G75*
%MOIN*%
%OFA0B0*%
%FSLAX25Y25*%
%IPPOS*%
%LPD*%
%AMOC8*
5,1,8,0,0,1.08239X$1,22.5*
%
%ADD10C,0.00000*%
%ADD11R,0.04724X0.04724*%
%ADD12R,0.05118X0.06299*%
%ADD13R,0.05906X0.05118*%
%ADD14R,0.13780X0.06299*%
%ADD15R,0.05118X0.05906*%
%ADD16R,0.10000X0.10000*%
%ADD17R,0.06693X0.07087*%
%ADD18R,0.03543X0.03150*%
%ADD19R,0.02362X0.03150*%
%ADD20R,0.01969X0.03150*%
D10*
X0001000Y0004937D02*
X0001000Y0256906D01*
X0004937Y0260843D01*
X0315961Y0260843D01*
X0320409Y0256906D01*
X0320409Y0004937D01*
X0315961Y0001000D01*
X0004937Y0001000D01*
X0001000Y0004937D01*
D11*
X0067732Y0134858D03*
X0076000Y0134858D03*
X0111039Y0249031D03*
X0119307Y0249031D03*
X0130724Y0249031D03*
X0138992Y0249031D03*
X0150409Y0249031D03*
X0158677Y0249031D03*
X0170094Y0249031D03*
X0178362Y0249031D03*
D12*
X0194110Y0146669D03*
X0201591Y0146669D03*
X0217732Y0146669D03*
X0225213Y0146669D03*
X0118913Y0146669D03*
X0111433Y0146669D03*
X0095291Y0146669D03*
X0087811Y0146669D03*
X0075606Y0146669D03*
X0068126Y0146669D03*
X0099622Y0036433D03*
X0107102Y0036433D03*
D13*
X0063992Y0182299D03*
X0063992Y0189780D03*
X0166354Y0189780D03*
X0166354Y0182299D03*
D14*
X0187220Y0186039D03*
X0208480Y0186039D03*
X0200606Y0091551D03*
X0179346Y0091551D03*
X0102181Y0186039D03*
X0080921Y0186039D03*
X0039189Y0024622D03*
X0017929Y0024622D03*
D15*
X0024819Y0048244D03*
X0032299Y0048244D03*
X0221669Y0083677D03*
X0229150Y0083677D03*
D16*
X0119110Y0091551D03*
X0119110Y0046669D03*
X0050213Y0046669D03*
X0050213Y0091551D03*
D17*
X0070291Y0099228D03*
X0070291Y0115370D03*
D18*
X0138402Y0044307D03*
X0146669Y0040567D03*
X0146669Y0048047D03*
X0169898Y0044307D03*
X0178165Y0040567D03*
X0178165Y0048047D03*
X0052181Y0198047D03*
X0052181Y0205528D03*
X0043913Y0201787D03*
X0020685Y0198047D03*
X0020685Y0205528D03*
X0012417Y0201787D03*
D19*
X0027476Y0198835D03*
X0027476Y0204740D03*
X0037516Y0204740D03*
X0037516Y0198835D03*
X0137713Y0230331D03*
X0137713Y0236236D03*
X0147752Y0236236D03*
X0147752Y0230331D03*
X0153461Y0047260D03*
X0153461Y0041354D03*
X0163500Y0041354D03*
X0163500Y0047260D03*
D20*
X0160055Y0047260D03*
X0156906Y0047260D03*
X0156906Y0041354D03*
X0160055Y0041354D03*
X0034071Y0198835D03*
X0030921Y0198835D03*
X0030921Y0204740D03*
X0034071Y0204740D03*
X0141157Y0230331D03*
X0144307Y0230331D03*
X0144307Y0236236D03*
X0141157Y0236236D03*
M02*
