G75*
%MOIN*%
%OFA0B0*%
%FSLAX25Y25*%
%IPPOS*%
%LPD*%
%AMOC8*
5,1,8,0,0,1.08239X$1,22.5*
%
%ADD10C,0.00000*%
%ADD11C,0.01500*%
%ADD12C,0.00800*%
%ADD13C,0.01000*%
%ADD14C,0.00500*%
%ADD15C,0.00400*%
%ADD16C,0.00600*%
%ADD17C,0.00200*%
%ADD18C,0.00300*%
%ADD19C,0.03000*%
%ADD20R,0.03000X0.02000*%
%ADD21R,0.03000X0.04000*%
D10*
X0001000Y0004937D02*
X0001000Y0256906D01*
X0004937Y0260843D01*
X0315961Y0260843D01*
X0320409Y0256906D01*
X0320409Y0004937D01*
X0315961Y0001000D01*
X0004937Y0001000D01*
X0001000Y0004937D01*
D11*
X0104192Y0246081D02*
X0104192Y0251753D01*
X0101356Y0248917D02*
X0107028Y0248917D01*
D12*
X0104051Y0198539D02*
X0082051Y0198539D01*
X0079051Y0195539D01*
X0079051Y0190539D01*
X0079051Y0181539D02*
X0079051Y0176539D01*
X0082051Y0173539D01*
X0104051Y0173539D01*
X0104051Y0181539D01*
X0104051Y0190539D02*
X0104051Y0198539D01*
X0102351Y0190439D02*
X0102240Y0190701D01*
X0102123Y0190961D01*
X0102000Y0191217D01*
X0101871Y0191471D01*
X0101735Y0191721D01*
X0101593Y0191968D01*
X0101446Y0192211D01*
X0101292Y0192451D01*
X0101133Y0192687D01*
X0100967Y0192919D01*
X0100797Y0193147D01*
X0100620Y0193370D01*
X0100439Y0193589D01*
X0100252Y0193804D01*
X0100060Y0194014D01*
X0099863Y0194219D01*
X0099660Y0194420D01*
X0099453Y0194615D01*
X0099242Y0194806D01*
X0099025Y0194991D01*
X0098805Y0195171D01*
X0098580Y0195345D01*
X0098350Y0195514D01*
X0098117Y0195677D01*
X0097880Y0195834D01*
X0097639Y0195986D01*
X0097394Y0196131D01*
X0097146Y0196271D01*
X0096895Y0196405D01*
X0096640Y0196532D01*
X0096383Y0196653D01*
X0096122Y0196768D01*
X0095859Y0196876D01*
X0095593Y0196978D01*
X0095325Y0197073D01*
X0095055Y0197162D01*
X0094782Y0197244D01*
X0094507Y0197320D01*
X0094231Y0197389D01*
X0093953Y0197451D01*
X0093674Y0197506D01*
X0093394Y0197555D01*
X0093112Y0197596D01*
X0092829Y0197631D01*
X0092546Y0197658D01*
X0092262Y0197679D01*
X0091978Y0197693D01*
X0091693Y0197700D01*
X0091409Y0197700D01*
X0091124Y0197693D01*
X0090840Y0197679D01*
X0090556Y0197658D01*
X0090273Y0197631D01*
X0089990Y0197596D01*
X0089708Y0197555D01*
X0089428Y0197506D01*
X0089149Y0197451D01*
X0088871Y0197389D01*
X0088595Y0197320D01*
X0088320Y0197244D01*
X0088047Y0197162D01*
X0087777Y0197073D01*
X0087509Y0196978D01*
X0087243Y0196876D01*
X0086980Y0196768D01*
X0086719Y0196653D01*
X0086462Y0196532D01*
X0086207Y0196405D01*
X0085956Y0196271D01*
X0085708Y0196131D01*
X0085463Y0195986D01*
X0085222Y0195834D01*
X0084985Y0195677D01*
X0084752Y0195514D01*
X0084522Y0195345D01*
X0084297Y0195171D01*
X0084077Y0194991D01*
X0083860Y0194806D01*
X0083649Y0194615D01*
X0083442Y0194420D01*
X0083239Y0194219D01*
X0083042Y0194014D01*
X0082850Y0193804D01*
X0082663Y0193589D01*
X0082482Y0193370D01*
X0082305Y0193147D01*
X0082135Y0192919D01*
X0081969Y0192687D01*
X0081810Y0192451D01*
X0081656Y0192211D01*
X0081509Y0191968D01*
X0081367Y0191721D01*
X0081231Y0191471D01*
X0081102Y0191217D01*
X0080979Y0190961D01*
X0080862Y0190701D01*
X0080751Y0190439D01*
X0080751Y0181639D02*
X0080862Y0181377D01*
X0080979Y0181117D01*
X0081102Y0180861D01*
X0081231Y0180607D01*
X0081367Y0180357D01*
X0081509Y0180110D01*
X0081656Y0179867D01*
X0081810Y0179627D01*
X0081969Y0179391D01*
X0082135Y0179159D01*
X0082305Y0178931D01*
X0082482Y0178708D01*
X0082663Y0178489D01*
X0082850Y0178274D01*
X0083042Y0178064D01*
X0083239Y0177859D01*
X0083442Y0177658D01*
X0083649Y0177463D01*
X0083860Y0177272D01*
X0084077Y0177087D01*
X0084297Y0176907D01*
X0084522Y0176733D01*
X0084752Y0176564D01*
X0084985Y0176401D01*
X0085222Y0176244D01*
X0085463Y0176092D01*
X0085708Y0175947D01*
X0085956Y0175807D01*
X0086207Y0175673D01*
X0086462Y0175546D01*
X0086719Y0175425D01*
X0086980Y0175310D01*
X0087243Y0175202D01*
X0087509Y0175100D01*
X0087777Y0175005D01*
X0088047Y0174916D01*
X0088320Y0174834D01*
X0088595Y0174758D01*
X0088871Y0174689D01*
X0089149Y0174627D01*
X0089428Y0174572D01*
X0089708Y0174523D01*
X0089990Y0174482D01*
X0090273Y0174447D01*
X0090556Y0174420D01*
X0090840Y0174399D01*
X0091124Y0174385D01*
X0091409Y0174378D01*
X0091693Y0174378D01*
X0091978Y0174385D01*
X0092262Y0174399D01*
X0092546Y0174420D01*
X0092829Y0174447D01*
X0093112Y0174482D01*
X0093394Y0174523D01*
X0093674Y0174572D01*
X0093953Y0174627D01*
X0094231Y0174689D01*
X0094507Y0174758D01*
X0094782Y0174834D01*
X0095055Y0174916D01*
X0095325Y0175005D01*
X0095593Y0175100D01*
X0095859Y0175202D01*
X0096122Y0175310D01*
X0096383Y0175425D01*
X0096640Y0175546D01*
X0096895Y0175673D01*
X0097146Y0175807D01*
X0097394Y0175947D01*
X0097639Y0176092D01*
X0097880Y0176244D01*
X0098117Y0176401D01*
X0098350Y0176564D01*
X0098580Y0176733D01*
X0098805Y0176907D01*
X0099025Y0177087D01*
X0099242Y0177272D01*
X0099453Y0177463D01*
X0099660Y0177658D01*
X0099863Y0177859D01*
X0100060Y0178064D01*
X0100252Y0178274D01*
X0100439Y0178489D01*
X0100620Y0178708D01*
X0100797Y0178931D01*
X0100967Y0179159D01*
X0101133Y0179391D01*
X0101292Y0179627D01*
X0101446Y0179867D01*
X0101593Y0180110D01*
X0101735Y0180357D01*
X0101871Y0180607D01*
X0102000Y0180861D01*
X0102123Y0181117D01*
X0102240Y0181377D01*
X0102351Y0181639D01*
X0138359Y0144948D02*
X0137368Y0143958D01*
X0137864Y0144453D02*
X0140836Y0141481D01*
X0140341Y0140985D02*
X0141332Y0141976D01*
X0138572Y0140207D02*
X0138572Y0139216D01*
X0137581Y0138225D01*
X0136590Y0138225D01*
X0136095Y0139711D02*
X0137085Y0140702D01*
X0138076Y0140702D01*
X0138572Y0140207D01*
X0136095Y0139711D02*
X0135104Y0139711D01*
X0134608Y0140207D01*
X0134608Y0141198D01*
X0135599Y0142188D01*
X0136590Y0142188D01*
X0133335Y0138933D02*
X0132344Y0138933D01*
X0131353Y0137942D01*
X0131353Y0136951D01*
X0133335Y0134970D01*
X0134325Y0134970D01*
X0135316Y0135961D01*
X0135316Y0136951D01*
X0133335Y0138933D01*
X0129584Y0136173D02*
X0129584Y0134191D01*
X0127602Y0134191D01*
X0130574Y0131219D01*
X0129796Y0129450D02*
X0127814Y0127468D01*
X0126140Y0126784D02*
X0125149Y0125793D01*
X0125644Y0126289D02*
X0122672Y0129261D01*
X0122176Y0128766D02*
X0123167Y0129756D01*
X0121398Y0126996D02*
X0122389Y0126005D01*
X0122389Y0125015D01*
X0120902Y0123528D01*
X0121893Y0122538D02*
X0118921Y0125510D01*
X0120407Y0126996D01*
X0121398Y0126996D01*
X0118142Y0123741D02*
X0117152Y0123741D01*
X0116161Y0122750D01*
X0116161Y0121759D01*
X0116656Y0121264D01*
X0117647Y0121264D01*
X0118638Y0122255D01*
X0119629Y0122255D01*
X0120124Y0121759D01*
X0120124Y0120768D01*
X0119133Y0119778D01*
X0118142Y0119778D01*
X0113875Y0124519D02*
X0110902Y0127492D01*
X0112176Y0128766D02*
X0113663Y0130252D01*
X0114653Y0130252D01*
X0116635Y0128270D01*
X0116635Y0127279D01*
X0115149Y0125793D01*
X0112176Y0128766D01*
X0113875Y0124519D02*
X0108921Y0125510D01*
X0111893Y0122538D01*
X0110124Y0121759D02*
X0109133Y0122750D01*
X0108142Y0121759D01*
X0106161Y0121759D02*
X0108142Y0119778D01*
X0109133Y0119778D01*
X0110124Y0120768D01*
X0110124Y0121759D01*
X0108142Y0123741D02*
X0107152Y0123741D01*
X0106161Y0122750D01*
X0106161Y0121759D01*
X0107395Y0102730D02*
X0108796Y0102730D01*
X0109497Y0102029D01*
X0106694Y0099227D01*
X0107395Y0098526D01*
X0108796Y0098526D01*
X0109497Y0099227D01*
X0109497Y0102029D01*
X0107395Y0102730D02*
X0106694Y0102029D01*
X0106694Y0099227D01*
X0104893Y0099227D02*
X0104192Y0098526D01*
X0102791Y0098526D01*
X0102091Y0099227D01*
X0102091Y0100628D01*
X0104192Y0100628D01*
X0104893Y0099927D01*
X0104893Y0099227D01*
X0103492Y0102029D02*
X0102091Y0100628D01*
X0100289Y0101328D02*
X0099588Y0100628D01*
X0100289Y0099927D01*
X0100289Y0099227D01*
X0099588Y0098526D01*
X0098187Y0098526D01*
X0097487Y0099227D01*
X0098888Y0100628D02*
X0099588Y0100628D01*
X0100289Y0101328D02*
X0100289Y0102029D01*
X0099588Y0102730D01*
X0098187Y0102730D01*
X0097487Y0102029D01*
X0095685Y0100628D02*
X0092883Y0100628D01*
X0091215Y0102730D02*
X0089813Y0102730D01*
X0090514Y0102730D02*
X0090514Y0098526D01*
X0089813Y0098526D02*
X0091215Y0098526D01*
X0088012Y0098526D02*
X0088012Y0102730D01*
X0085209Y0102730D02*
X0088012Y0098526D01*
X0085209Y0098526D02*
X0085209Y0102730D01*
X0083541Y0102730D02*
X0082140Y0102730D01*
X0082841Y0102730D02*
X0082841Y0098526D01*
X0083541Y0098526D02*
X0082140Y0098526D01*
X0080339Y0098526D02*
X0080339Y0102730D01*
X0078937Y0101328D01*
X0077536Y0102730D01*
X0077536Y0098526D01*
X0063054Y0109266D02*
X0062353Y0108565D01*
X0060952Y0108565D01*
X0060251Y0109266D01*
X0061652Y0110667D02*
X0062353Y0110667D01*
X0063054Y0109967D01*
X0063054Y0109266D01*
X0062353Y0110667D02*
X0063054Y0111368D01*
X0063054Y0112068D01*
X0062353Y0112769D01*
X0060952Y0112769D01*
X0060251Y0112068D01*
X0058450Y0114558D02*
X0055647Y0114558D01*
X0053846Y0112068D02*
X0053846Y0110667D01*
X0053145Y0109967D01*
X0051043Y0109967D01*
X0051043Y0108565D02*
X0051043Y0112769D01*
X0053145Y0112769D01*
X0053846Y0112068D01*
X0051043Y0115258D02*
X0051043Y0119462D01*
X0053145Y0119462D01*
X0053846Y0118761D01*
X0053846Y0117360D01*
X0053145Y0116659D01*
X0051043Y0116659D01*
X0049242Y0115959D02*
X0049242Y0117360D01*
X0047841Y0117360D01*
X0049242Y0115959D02*
X0048541Y0115258D01*
X0047140Y0115258D01*
X0046439Y0115959D01*
X0046439Y0118761D01*
X0047140Y0119462D01*
X0048541Y0119462D01*
X0049242Y0118761D01*
X0048384Y0122109D02*
X0046982Y0122109D01*
X0046282Y0122809D01*
X0046282Y0125612D01*
X0046982Y0126312D01*
X0048384Y0126312D01*
X0049084Y0125612D01*
X0049084Y0124210D02*
X0047683Y0124210D01*
X0049084Y0124210D02*
X0049084Y0122809D01*
X0048384Y0122109D01*
X0050886Y0122109D02*
X0050886Y0126312D01*
X0052988Y0126312D01*
X0053688Y0125612D01*
X0053688Y0124210D01*
X0052988Y0123510D01*
X0050886Y0123510D01*
X0055490Y0121408D02*
X0058292Y0121408D01*
X0060094Y0122109D02*
X0062896Y0122109D01*
X0061495Y0122109D02*
X0061495Y0126312D01*
X0060094Y0124911D01*
X0060952Y0119462D02*
X0060251Y0118761D01*
X0060952Y0119462D02*
X0062353Y0119462D01*
X0063054Y0118761D01*
X0063054Y0118061D01*
X0060251Y0115258D01*
X0063054Y0115258D01*
X0058450Y0107865D02*
X0055647Y0107865D01*
X0053452Y0104344D02*
X0053452Y0101541D01*
X0052051Y0100140D01*
X0050650Y0101541D01*
X0050650Y0104344D01*
X0048848Y0104344D02*
X0046046Y0104344D01*
X0046046Y0102242D01*
X0047447Y0102943D01*
X0048147Y0102943D01*
X0048848Y0102242D01*
X0048848Y0100841D01*
X0048147Y0100140D01*
X0046746Y0100140D01*
X0046046Y0100841D01*
X0047140Y0108565D02*
X0048541Y0108565D01*
X0049242Y0109266D01*
X0049242Y0110667D01*
X0047841Y0110667D01*
X0049242Y0112068D02*
X0048541Y0112769D01*
X0047140Y0112769D01*
X0046439Y0112068D01*
X0046439Y0109266D01*
X0047140Y0108565D01*
X0047949Y0082769D02*
X0047949Y0079967D01*
X0049350Y0078565D01*
X0050752Y0079967D01*
X0050752Y0082769D01*
X0046148Y0082068D02*
X0046148Y0081368D01*
X0045447Y0080667D01*
X0046148Y0079967D01*
X0046148Y0079266D01*
X0045447Y0078565D01*
X0044046Y0078565D01*
X0043345Y0079266D01*
X0041744Y0079266D02*
X0041744Y0078565D01*
X0041043Y0078565D01*
X0041043Y0079266D01*
X0041744Y0079266D01*
X0039242Y0079266D02*
X0038541Y0078565D01*
X0037140Y0078565D01*
X0036439Y0079266D01*
X0037841Y0080667D02*
X0038541Y0080667D01*
X0039242Y0079967D01*
X0039242Y0079266D01*
X0038541Y0080667D02*
X0039242Y0081368D01*
X0039242Y0082068D01*
X0038541Y0082769D01*
X0037140Y0082769D01*
X0036439Y0082068D01*
X0043345Y0082068D02*
X0044046Y0082769D01*
X0045447Y0082769D01*
X0046148Y0082068D01*
X0045447Y0080667D02*
X0044746Y0080667D01*
X0043846Y0072769D02*
X0043846Y0068565D01*
X0041043Y0072769D01*
X0041043Y0068565D01*
X0039242Y0069266D02*
X0039242Y0070667D01*
X0037841Y0070667D01*
X0039242Y0069266D02*
X0038541Y0068565D01*
X0037140Y0068565D01*
X0036439Y0069266D01*
X0036439Y0072068D01*
X0037140Y0072769D01*
X0038541Y0072769D01*
X0039242Y0072068D01*
X0045647Y0072769D02*
X0045647Y0068565D01*
X0047749Y0068565D01*
X0048450Y0069266D01*
X0048450Y0072068D01*
X0047749Y0072769D01*
X0045647Y0072769D01*
X0023592Y0060004D02*
X0020089Y0060004D01*
X0019389Y0060705D01*
X0021490Y0060705D02*
X0021490Y0059304D01*
X0021490Y0057502D02*
X0023592Y0057502D01*
X0021490Y0057502D02*
X0020790Y0056802D01*
X0020790Y0054700D01*
X0023592Y0054700D01*
X0022892Y0052898D02*
X0023592Y0052198D01*
X0023592Y0050797D01*
X0022892Y0050096D01*
X0020089Y0052898D01*
X0022892Y0052898D01*
X0022892Y0050096D02*
X0020089Y0050096D01*
X0019389Y0050797D01*
X0019389Y0052198D01*
X0020089Y0052898D01*
X0020089Y0048295D02*
X0022892Y0045492D01*
X0023592Y0046193D01*
X0023592Y0047594D01*
X0022892Y0048295D01*
X0020089Y0048295D01*
X0019389Y0047594D01*
X0019389Y0046193D01*
X0020089Y0045492D01*
X0022892Y0045492D01*
X0023592Y0043691D02*
X0023592Y0040888D01*
X0023019Y0040715D02*
X0022318Y0041415D01*
X0020217Y0041415D01*
X0020217Y0040014D01*
X0020917Y0039313D01*
X0022318Y0039313D01*
X0023019Y0040014D01*
X0023019Y0040715D01*
X0023592Y0042289D02*
X0019389Y0042289D01*
X0020790Y0040888D01*
X0020217Y0041415D02*
X0021618Y0042816D01*
X0023019Y0043517D01*
X0018415Y0042816D02*
X0017714Y0043517D01*
X0016313Y0043517D01*
X0015613Y0042816D01*
X0015613Y0040014D01*
X0016313Y0039313D01*
X0017714Y0039313D01*
X0018415Y0040014D01*
X0016947Y0040888D02*
X0014144Y0040888D01*
X0013444Y0041589D01*
X0013444Y0042990D01*
X0014144Y0043691D01*
X0013444Y0045492D02*
X0015545Y0045492D01*
X0014845Y0046893D01*
X0014845Y0047594D01*
X0015545Y0048295D01*
X0016947Y0048295D01*
X0017647Y0047594D01*
X0017647Y0046193D01*
X0016947Y0045492D01*
X0016947Y0043691D02*
X0017647Y0042990D01*
X0017647Y0041589D01*
X0016947Y0040888D01*
X0016059Y0037122D02*
X0016059Y0029122D01*
X0016059Y0037122D02*
X0038059Y0037122D01*
X0041059Y0034122D01*
X0041059Y0029122D01*
X0041059Y0020122D02*
X0041059Y0015122D01*
X0038059Y0012122D01*
X0016059Y0012122D01*
X0016059Y0020122D01*
X0016175Y0009993D02*
X0015475Y0009293D01*
X0016175Y0009993D02*
X0017577Y0009993D01*
X0018277Y0009293D01*
X0018277Y0008592D01*
X0015475Y0005790D01*
X0018277Y0005790D01*
X0020079Y0005790D02*
X0022881Y0008592D01*
X0022881Y0009293D01*
X0022181Y0009993D01*
X0020779Y0009993D01*
X0020079Y0009293D01*
X0024683Y0009293D02*
X0024683Y0006490D01*
X0027485Y0009293D01*
X0027485Y0006490D01*
X0026784Y0005790D01*
X0025383Y0005790D01*
X0024683Y0006490D01*
X0022881Y0005790D02*
X0020079Y0005790D01*
X0024683Y0009293D02*
X0025383Y0009993D01*
X0026784Y0009993D01*
X0027485Y0009293D01*
X0029287Y0009993D02*
X0029287Y0006490D01*
X0029987Y0005790D01*
X0031388Y0005790D01*
X0032089Y0006490D01*
X0032089Y0009993D01*
X0033891Y0009993D02*
X0036693Y0009993D01*
X0035292Y0007892D02*
X0033891Y0007892D01*
X0033891Y0009993D02*
X0033891Y0005790D01*
X0039359Y0029022D02*
X0039248Y0029284D01*
X0039131Y0029544D01*
X0039008Y0029800D01*
X0038879Y0030054D01*
X0038743Y0030304D01*
X0038601Y0030551D01*
X0038454Y0030794D01*
X0038300Y0031034D01*
X0038141Y0031270D01*
X0037975Y0031502D01*
X0037805Y0031730D01*
X0037628Y0031953D01*
X0037447Y0032172D01*
X0037260Y0032387D01*
X0037068Y0032597D01*
X0036871Y0032802D01*
X0036668Y0033003D01*
X0036461Y0033198D01*
X0036250Y0033389D01*
X0036033Y0033574D01*
X0035813Y0033754D01*
X0035588Y0033928D01*
X0035358Y0034097D01*
X0035125Y0034260D01*
X0034888Y0034417D01*
X0034647Y0034569D01*
X0034402Y0034714D01*
X0034154Y0034854D01*
X0033903Y0034988D01*
X0033648Y0035115D01*
X0033391Y0035236D01*
X0033130Y0035351D01*
X0032867Y0035459D01*
X0032601Y0035561D01*
X0032333Y0035656D01*
X0032063Y0035745D01*
X0031790Y0035827D01*
X0031515Y0035903D01*
X0031239Y0035972D01*
X0030961Y0036034D01*
X0030682Y0036089D01*
X0030402Y0036138D01*
X0030120Y0036179D01*
X0029837Y0036214D01*
X0029554Y0036241D01*
X0029270Y0036262D01*
X0028986Y0036276D01*
X0028701Y0036283D01*
X0028417Y0036283D01*
X0028132Y0036276D01*
X0027848Y0036262D01*
X0027564Y0036241D01*
X0027281Y0036214D01*
X0026998Y0036179D01*
X0026716Y0036138D01*
X0026436Y0036089D01*
X0026157Y0036034D01*
X0025879Y0035972D01*
X0025603Y0035903D01*
X0025328Y0035827D01*
X0025055Y0035745D01*
X0024785Y0035656D01*
X0024517Y0035561D01*
X0024251Y0035459D01*
X0023988Y0035351D01*
X0023727Y0035236D01*
X0023470Y0035115D01*
X0023215Y0034988D01*
X0022964Y0034854D01*
X0022716Y0034714D01*
X0022471Y0034569D01*
X0022230Y0034417D01*
X0021993Y0034260D01*
X0021760Y0034097D01*
X0021530Y0033928D01*
X0021305Y0033754D01*
X0021085Y0033574D01*
X0020868Y0033389D01*
X0020657Y0033198D01*
X0020450Y0033003D01*
X0020247Y0032802D01*
X0020050Y0032597D01*
X0019858Y0032387D01*
X0019671Y0032172D01*
X0019490Y0031953D01*
X0019313Y0031730D01*
X0019143Y0031502D01*
X0018977Y0031270D01*
X0018818Y0031034D01*
X0018664Y0030794D01*
X0018517Y0030551D01*
X0018375Y0030304D01*
X0018239Y0030054D01*
X0018110Y0029800D01*
X0017987Y0029544D01*
X0017870Y0029284D01*
X0017759Y0029022D01*
X0017759Y0020222D02*
X0017870Y0019960D01*
X0017987Y0019700D01*
X0018110Y0019444D01*
X0018239Y0019190D01*
X0018375Y0018940D01*
X0018517Y0018693D01*
X0018664Y0018450D01*
X0018818Y0018210D01*
X0018977Y0017974D01*
X0019143Y0017742D01*
X0019313Y0017514D01*
X0019490Y0017291D01*
X0019671Y0017072D01*
X0019858Y0016857D01*
X0020050Y0016647D01*
X0020247Y0016442D01*
X0020450Y0016241D01*
X0020657Y0016046D01*
X0020868Y0015855D01*
X0021085Y0015670D01*
X0021305Y0015490D01*
X0021530Y0015316D01*
X0021760Y0015147D01*
X0021993Y0014984D01*
X0022230Y0014827D01*
X0022471Y0014675D01*
X0022716Y0014530D01*
X0022964Y0014390D01*
X0023215Y0014256D01*
X0023470Y0014129D01*
X0023727Y0014008D01*
X0023988Y0013893D01*
X0024251Y0013785D01*
X0024517Y0013683D01*
X0024785Y0013588D01*
X0025055Y0013499D01*
X0025328Y0013417D01*
X0025603Y0013341D01*
X0025879Y0013272D01*
X0026157Y0013210D01*
X0026436Y0013155D01*
X0026716Y0013106D01*
X0026998Y0013065D01*
X0027281Y0013030D01*
X0027564Y0013003D01*
X0027848Y0012982D01*
X0028132Y0012968D01*
X0028417Y0012961D01*
X0028701Y0012961D01*
X0028986Y0012968D01*
X0029270Y0012982D01*
X0029554Y0013003D01*
X0029837Y0013030D01*
X0030120Y0013065D01*
X0030402Y0013106D01*
X0030682Y0013155D01*
X0030961Y0013210D01*
X0031239Y0013272D01*
X0031515Y0013341D01*
X0031790Y0013417D01*
X0032063Y0013499D01*
X0032333Y0013588D01*
X0032601Y0013683D01*
X0032867Y0013785D01*
X0033130Y0013893D01*
X0033391Y0014008D01*
X0033648Y0014129D01*
X0033903Y0014256D01*
X0034154Y0014390D01*
X0034402Y0014530D01*
X0034647Y0014675D01*
X0034888Y0014827D01*
X0035125Y0014984D01*
X0035358Y0015147D01*
X0035588Y0015316D01*
X0035813Y0015490D01*
X0036033Y0015670D01*
X0036250Y0015855D01*
X0036461Y0016046D01*
X0036668Y0016241D01*
X0036871Y0016442D01*
X0037068Y0016647D01*
X0037260Y0016857D01*
X0037447Y0017072D01*
X0037628Y0017291D01*
X0037805Y0017514D01*
X0037975Y0017742D01*
X0038141Y0017974D01*
X0038300Y0018210D01*
X0038454Y0018450D01*
X0038601Y0018693D01*
X0038743Y0018940D01*
X0038879Y0019190D01*
X0039008Y0019444D01*
X0039131Y0019700D01*
X0039248Y0019960D01*
X0039359Y0020222D01*
X0059661Y0020685D02*
X0059661Y0028559D01*
X0065961Y0036827D02*
X0077772Y0036827D01*
X0078487Y0039628D02*
X0075684Y0039628D01*
X0075684Y0043832D01*
X0078487Y0043832D01*
X0080288Y0043832D02*
X0083091Y0043832D01*
X0081689Y0043832D02*
X0081689Y0039628D01*
X0077085Y0041730D02*
X0075684Y0041730D01*
X0073883Y0041030D02*
X0073883Y0040329D01*
X0073182Y0039628D01*
X0071781Y0039628D01*
X0071080Y0040329D01*
X0071781Y0041730D02*
X0073182Y0041730D01*
X0073883Y0041030D01*
X0073883Y0043131D02*
X0073182Y0043832D01*
X0071781Y0043832D01*
X0071080Y0043131D01*
X0071080Y0042431D01*
X0071781Y0041730D01*
X0069279Y0039628D02*
X0066476Y0039628D01*
X0066476Y0043832D01*
X0069279Y0043832D01*
X0067878Y0041730D02*
X0066476Y0041730D01*
X0064675Y0041730D02*
X0063974Y0041030D01*
X0061872Y0041030D01*
X0063274Y0041030D02*
X0064675Y0039628D01*
X0064675Y0041730D02*
X0064675Y0043131D01*
X0063974Y0043832D01*
X0061872Y0043832D01*
X0061872Y0039628D01*
X0064976Y0024622D02*
X0064978Y0024791D01*
X0064984Y0024960D01*
X0064995Y0025129D01*
X0065009Y0025297D01*
X0065028Y0025465D01*
X0065051Y0025633D01*
X0065077Y0025800D01*
X0065108Y0025966D01*
X0065143Y0026132D01*
X0065182Y0026296D01*
X0065226Y0026460D01*
X0065273Y0026622D01*
X0065324Y0026783D01*
X0065379Y0026943D01*
X0065438Y0027102D01*
X0065500Y0027259D01*
X0065567Y0027414D01*
X0065638Y0027568D01*
X0065712Y0027720D01*
X0065790Y0027870D01*
X0065871Y0028018D01*
X0065956Y0028164D01*
X0066045Y0028308D01*
X0066137Y0028450D01*
X0066233Y0028589D01*
X0066332Y0028726D01*
X0066434Y0028861D01*
X0066540Y0028993D01*
X0066649Y0029122D01*
X0066761Y0029249D01*
X0066876Y0029373D01*
X0066994Y0029494D01*
X0067115Y0029612D01*
X0067239Y0029727D01*
X0067366Y0029839D01*
X0067495Y0029948D01*
X0067627Y0030054D01*
X0067762Y0030156D01*
X0067899Y0030255D01*
X0068038Y0030351D01*
X0068180Y0030443D01*
X0068324Y0030532D01*
X0068470Y0030617D01*
X0068618Y0030698D01*
X0068768Y0030776D01*
X0068920Y0030850D01*
X0069074Y0030921D01*
X0069229Y0030988D01*
X0069386Y0031050D01*
X0069545Y0031109D01*
X0069705Y0031164D01*
X0069866Y0031215D01*
X0070028Y0031262D01*
X0070192Y0031306D01*
X0070356Y0031345D01*
X0070522Y0031380D01*
X0070688Y0031411D01*
X0070855Y0031437D01*
X0071023Y0031460D01*
X0071191Y0031479D01*
X0071359Y0031493D01*
X0071528Y0031504D01*
X0071697Y0031510D01*
X0071866Y0031512D01*
X0072035Y0031510D01*
X0072204Y0031504D01*
X0072373Y0031493D01*
X0072541Y0031479D01*
X0072709Y0031460D01*
X0072877Y0031437D01*
X0073044Y0031411D01*
X0073210Y0031380D01*
X0073376Y0031345D01*
X0073540Y0031306D01*
X0073704Y0031262D01*
X0073866Y0031215D01*
X0074027Y0031164D01*
X0074187Y0031109D01*
X0074346Y0031050D01*
X0074503Y0030988D01*
X0074658Y0030921D01*
X0074812Y0030850D01*
X0074964Y0030776D01*
X0075114Y0030698D01*
X0075262Y0030617D01*
X0075408Y0030532D01*
X0075552Y0030443D01*
X0075694Y0030351D01*
X0075833Y0030255D01*
X0075970Y0030156D01*
X0076105Y0030054D01*
X0076237Y0029948D01*
X0076366Y0029839D01*
X0076493Y0029727D01*
X0076617Y0029612D01*
X0076738Y0029494D01*
X0076856Y0029373D01*
X0076971Y0029249D01*
X0077083Y0029122D01*
X0077192Y0028993D01*
X0077298Y0028861D01*
X0077400Y0028726D01*
X0077499Y0028589D01*
X0077595Y0028450D01*
X0077687Y0028308D01*
X0077776Y0028164D01*
X0077861Y0028018D01*
X0077942Y0027870D01*
X0078020Y0027720D01*
X0078094Y0027568D01*
X0078165Y0027414D01*
X0078232Y0027259D01*
X0078294Y0027102D01*
X0078353Y0026943D01*
X0078408Y0026783D01*
X0078459Y0026622D01*
X0078506Y0026460D01*
X0078550Y0026296D01*
X0078589Y0026132D01*
X0078624Y0025966D01*
X0078655Y0025800D01*
X0078681Y0025633D01*
X0078704Y0025465D01*
X0078723Y0025297D01*
X0078737Y0025129D01*
X0078748Y0024960D01*
X0078754Y0024791D01*
X0078756Y0024622D01*
X0078754Y0024453D01*
X0078748Y0024284D01*
X0078737Y0024115D01*
X0078723Y0023947D01*
X0078704Y0023779D01*
X0078681Y0023611D01*
X0078655Y0023444D01*
X0078624Y0023278D01*
X0078589Y0023112D01*
X0078550Y0022948D01*
X0078506Y0022784D01*
X0078459Y0022622D01*
X0078408Y0022461D01*
X0078353Y0022301D01*
X0078294Y0022142D01*
X0078232Y0021985D01*
X0078165Y0021830D01*
X0078094Y0021676D01*
X0078020Y0021524D01*
X0077942Y0021374D01*
X0077861Y0021226D01*
X0077776Y0021080D01*
X0077687Y0020936D01*
X0077595Y0020794D01*
X0077499Y0020655D01*
X0077400Y0020518D01*
X0077298Y0020383D01*
X0077192Y0020251D01*
X0077083Y0020122D01*
X0076971Y0019995D01*
X0076856Y0019871D01*
X0076738Y0019750D01*
X0076617Y0019632D01*
X0076493Y0019517D01*
X0076366Y0019405D01*
X0076237Y0019296D01*
X0076105Y0019190D01*
X0075970Y0019088D01*
X0075833Y0018989D01*
X0075694Y0018893D01*
X0075552Y0018801D01*
X0075408Y0018712D01*
X0075262Y0018627D01*
X0075114Y0018546D01*
X0074964Y0018468D01*
X0074812Y0018394D01*
X0074658Y0018323D01*
X0074503Y0018256D01*
X0074346Y0018194D01*
X0074187Y0018135D01*
X0074027Y0018080D01*
X0073866Y0018029D01*
X0073704Y0017982D01*
X0073540Y0017938D01*
X0073376Y0017899D01*
X0073210Y0017864D01*
X0073044Y0017833D01*
X0072877Y0017807D01*
X0072709Y0017784D01*
X0072541Y0017765D01*
X0072373Y0017751D01*
X0072204Y0017740D01*
X0072035Y0017734D01*
X0071866Y0017732D01*
X0071697Y0017734D01*
X0071528Y0017740D01*
X0071359Y0017751D01*
X0071191Y0017765D01*
X0071023Y0017784D01*
X0070855Y0017807D01*
X0070688Y0017833D01*
X0070522Y0017864D01*
X0070356Y0017899D01*
X0070192Y0017938D01*
X0070028Y0017982D01*
X0069866Y0018029D01*
X0069705Y0018080D01*
X0069545Y0018135D01*
X0069386Y0018194D01*
X0069229Y0018256D01*
X0069074Y0018323D01*
X0068920Y0018394D01*
X0068768Y0018468D01*
X0068618Y0018546D01*
X0068470Y0018627D01*
X0068324Y0018712D01*
X0068180Y0018801D01*
X0068038Y0018893D01*
X0067899Y0018989D01*
X0067762Y0019088D01*
X0067627Y0019190D01*
X0067495Y0019296D01*
X0067366Y0019405D01*
X0067239Y0019517D01*
X0067115Y0019632D01*
X0066994Y0019750D01*
X0066876Y0019871D01*
X0066761Y0019995D01*
X0066649Y0020122D01*
X0066540Y0020251D01*
X0066434Y0020383D01*
X0066332Y0020518D01*
X0066233Y0020655D01*
X0066137Y0020794D01*
X0066045Y0020936D01*
X0065956Y0021080D01*
X0065871Y0021226D01*
X0065790Y0021374D01*
X0065712Y0021524D01*
X0065638Y0021676D01*
X0065567Y0021830D01*
X0065500Y0021985D01*
X0065438Y0022142D01*
X0065379Y0022301D01*
X0065324Y0022461D01*
X0065273Y0022622D01*
X0065226Y0022784D01*
X0065182Y0022948D01*
X0065143Y0023112D01*
X0065108Y0023278D01*
X0065077Y0023444D01*
X0065051Y0023611D01*
X0065028Y0023779D01*
X0065009Y0023947D01*
X0064995Y0024115D01*
X0064984Y0024284D01*
X0064978Y0024453D01*
X0064976Y0024622D01*
X0065961Y0012417D02*
X0077772Y0012417D01*
X0084071Y0020685D02*
X0084071Y0028559D01*
X0097975Y0029501D02*
X0097975Y0025298D01*
X0097975Y0026699D02*
X0100077Y0026699D01*
X0100777Y0027399D01*
X0100777Y0028801D01*
X0100077Y0029501D01*
X0097975Y0029501D01*
X0099376Y0026699D02*
X0100777Y0025298D01*
X0102579Y0025998D02*
X0103279Y0025298D01*
X0104681Y0025298D01*
X0105381Y0025998D01*
X0105381Y0027399D01*
X0104681Y0028100D01*
X0103980Y0028100D01*
X0102579Y0027399D01*
X0102579Y0029501D01*
X0105381Y0029501D01*
X0106169Y0023163D02*
X0103366Y0020360D01*
X0104067Y0021061D02*
X0106169Y0018959D01*
X0106003Y0019633D02*
X0106003Y0020624D01*
X0106994Y0021615D01*
X0107985Y0021615D01*
X0108480Y0021119D01*
X0108480Y0020129D01*
X0109471Y0020129D01*
X0109966Y0019633D01*
X0109966Y0018642D01*
X0108976Y0017652D01*
X0107985Y0017652D01*
X0107985Y0019633D02*
X0108480Y0020129D01*
X0111240Y0020907D02*
X0111736Y0021402D01*
X0112231Y0020907D01*
X0111736Y0020412D01*
X0111240Y0020907D01*
X0112574Y0021761D02*
X0113975Y0023163D01*
X0113975Y0018959D01*
X0112574Y0018959D02*
X0115376Y0018959D01*
X0115508Y0020129D02*
X0116994Y0021615D01*
X0117985Y0021615D01*
X0118976Y0020624D01*
X0118976Y0019633D01*
X0117490Y0018147D01*
X0117178Y0018959D02*
X0119980Y0023163D01*
X0118763Y0023384D02*
X0121736Y0020412D01*
X0123717Y0022393D01*
X0123183Y0023163D02*
X0123183Y0018959D01*
X0121782Y0018959D02*
X0124584Y0018959D01*
X0125508Y0020129D02*
X0128480Y0017156D01*
X0130462Y0019138D01*
X0130990Y0018959D02*
X0132391Y0020360D01*
X0133792Y0018959D01*
X0133792Y0023163D01*
X0133717Y0022393D02*
X0130745Y0025366D01*
X0132514Y0026144D02*
X0134496Y0024163D01*
X0135487Y0024163D01*
X0136477Y0025153D01*
X0136477Y0026144D01*
X0138247Y0026923D02*
X0140228Y0028904D01*
X0139237Y0027913D02*
X0136265Y0030886D01*
X0136265Y0028904D01*
X0134496Y0028126D02*
X0133505Y0028126D01*
X0132514Y0027135D01*
X0132514Y0026144D01*
X0130990Y0023163D02*
X0130990Y0018959D01*
X0131736Y0020412D02*
X0128763Y0023384D01*
X0133717Y0022393D01*
X0135508Y0020129D02*
X0138480Y0017156D01*
X0140462Y0019138D01*
X0141736Y0020412D02*
X0138763Y0023384D01*
X0143717Y0022393D01*
X0140745Y0025366D01*
X0142514Y0026144D02*
X0144496Y0024163D01*
X0145487Y0024163D01*
X0146477Y0025153D01*
X0146477Y0026144D01*
X0148247Y0026923D02*
X0150228Y0028904D01*
X0149237Y0027913D02*
X0146265Y0030886D01*
X0146265Y0028904D01*
X0144496Y0028126D02*
X0143505Y0028126D01*
X0142514Y0027135D01*
X0142514Y0026144D01*
X0141998Y0029683D02*
X0143979Y0031664D01*
X0144758Y0033434D02*
X0142776Y0035415D01*
X0142776Y0037397D01*
X0144758Y0037397D01*
X0146739Y0035415D01*
X0145253Y0036901D02*
X0143271Y0034920D01*
X0151785Y0036406D02*
X0153271Y0037892D01*
X0154262Y0037892D01*
X0154758Y0037397D01*
X0154758Y0036406D01*
X0153271Y0034920D01*
X0151785Y0036406D02*
X0154758Y0033434D01*
X0156244Y0034920D01*
X0156244Y0035911D01*
X0155748Y0036406D01*
X0154758Y0036406D01*
X0153979Y0031664D02*
X0151998Y0029683D01*
X0153505Y0028126D02*
X0152514Y0027135D01*
X0152514Y0026144D01*
X0154496Y0024163D01*
X0155487Y0024163D01*
X0156477Y0025153D01*
X0156477Y0026144D01*
X0158247Y0026923D02*
X0158247Y0030886D01*
X0157751Y0031381D01*
X0156761Y0031381D01*
X0155770Y0030390D01*
X0155770Y0029400D01*
X0154496Y0028126D02*
X0153505Y0028126D01*
X0150745Y0025366D02*
X0153717Y0022393D01*
X0148763Y0023384D01*
X0151736Y0020412D01*
X0150462Y0019138D02*
X0148480Y0017156D01*
X0145508Y0020129D01*
X0147490Y0022110D01*
X0147985Y0019633D02*
X0146994Y0018642D01*
X0155508Y0020129D02*
X0158480Y0017156D01*
X0160462Y0019138D01*
X0161736Y0020412D02*
X0158763Y0023384D01*
X0163717Y0022393D01*
X0160745Y0025366D01*
X0162514Y0026144D02*
X0164496Y0024163D01*
X0165487Y0024163D01*
X0166477Y0025153D01*
X0166477Y0026144D01*
X0168247Y0026923D02*
X0168247Y0030886D01*
X0167751Y0031381D01*
X0166761Y0031381D01*
X0165770Y0030390D01*
X0165770Y0029400D01*
X0164496Y0028126D02*
X0163505Y0028126D01*
X0162514Y0027135D01*
X0162514Y0026144D01*
X0161998Y0029683D02*
X0163979Y0031664D01*
X0164758Y0033434D02*
X0162776Y0035415D01*
X0162776Y0037397D01*
X0164758Y0037397D01*
X0166739Y0035415D01*
X0165253Y0036901D02*
X0163271Y0034920D01*
X0160228Y0028904D02*
X0158247Y0026923D01*
X0157490Y0022110D02*
X0155508Y0020129D01*
X0156994Y0018642D02*
X0157985Y0019633D01*
X0165508Y0020129D02*
X0166994Y0021615D01*
X0167985Y0021615D01*
X0168976Y0020624D01*
X0168976Y0019633D01*
X0167490Y0018147D01*
X0168480Y0017156D02*
X0165508Y0020129D01*
X0168763Y0023384D02*
X0171736Y0020412D01*
X0173717Y0022393D01*
X0174991Y0023667D02*
X0172019Y0026640D01*
X0176973Y0025649D01*
X0174000Y0028621D01*
X0171998Y0029683D02*
X0173979Y0031664D01*
X0174758Y0033434D02*
X0176244Y0034920D01*
X0176244Y0035911D01*
X0175748Y0036406D01*
X0174758Y0036406D01*
X0173271Y0034920D01*
X0171785Y0036406D02*
X0173271Y0037892D01*
X0174262Y0037892D01*
X0174758Y0037397D01*
X0174758Y0036406D01*
X0174758Y0033434D02*
X0171785Y0036406D01*
X0178530Y0033150D02*
X0179521Y0034141D01*
X0179025Y0033646D02*
X0181998Y0030673D01*
X0181502Y0030178D02*
X0182493Y0031169D01*
X0183672Y0032348D02*
X0180700Y0035321D01*
X0182186Y0036807D01*
X0183177Y0036807D01*
X0184168Y0035816D01*
X0184168Y0034825D01*
X0182682Y0033339D01*
X0183672Y0034330D02*
X0185654Y0034330D01*
X0186433Y0036099D02*
X0184451Y0038081D01*
X0184451Y0039072D01*
X0185442Y0040062D01*
X0186433Y0040062D01*
X0188414Y0038081D01*
X0188414Y0037090D01*
X0187423Y0036099D01*
X0186433Y0036099D01*
X0186928Y0037585D02*
X0188910Y0037585D01*
X0187751Y0031381D02*
X0186761Y0031381D01*
X0185770Y0030390D01*
X0185770Y0029400D01*
X0186265Y0028904D01*
X0187256Y0028904D01*
X0188247Y0029895D01*
X0189237Y0029895D01*
X0189733Y0029400D01*
X0189733Y0028409D01*
X0188742Y0027418D01*
X0187751Y0027418D01*
X0186477Y0026144D02*
X0186477Y0025153D01*
X0185487Y0024163D01*
X0184496Y0024163D01*
X0182514Y0026144D01*
X0182514Y0027135D01*
X0183505Y0028126D01*
X0184496Y0028126D01*
X0180724Y0028409D02*
X0178742Y0026427D01*
X0177490Y0022110D02*
X0175508Y0020129D01*
X0176499Y0021119D02*
X0179471Y0018147D01*
X0182231Y0019916D02*
X0184213Y0021898D01*
X0186003Y0020624D02*
X0186003Y0019633D01*
X0186499Y0019138D01*
X0187490Y0019138D01*
X0188480Y0020129D01*
X0189471Y0020129D01*
X0189966Y0019633D01*
X0189966Y0018642D01*
X0188976Y0017652D01*
X0187985Y0017652D01*
X0186003Y0020624D02*
X0186994Y0021615D01*
X0187985Y0021615D01*
X0188763Y0023384D02*
X0190250Y0024870D01*
X0191240Y0024870D01*
X0193222Y0022889D01*
X0193222Y0021898D01*
X0191736Y0020412D01*
X0188763Y0023384D01*
X0195487Y0023172D02*
X0197468Y0025153D01*
X0198763Y0023384D02*
X0200745Y0025366D01*
X0202019Y0026640D02*
X0204000Y0028621D01*
X0203010Y0027630D02*
X0205982Y0024658D01*
X0207490Y0022110D02*
X0210462Y0019138D01*
X0211736Y0020412D02*
X0213717Y0022393D01*
X0212727Y0021402D02*
X0209754Y0024375D01*
X0209754Y0022393D01*
X0207490Y0022110D02*
X0207490Y0020129D01*
X0205508Y0020129D01*
X0208480Y0017156D01*
X0201736Y0020412D02*
X0198763Y0023384D01*
X0197490Y0022110D02*
X0195508Y0020129D01*
X0196499Y0021119D02*
X0199471Y0018147D01*
X0200250Y0021898D02*
X0201240Y0022889D01*
X0198742Y0027418D02*
X0199733Y0028409D01*
X0199733Y0029400D01*
X0201007Y0030673D02*
X0201998Y0030673D01*
X0202988Y0031664D01*
X0202988Y0032655D01*
X0202493Y0033150D01*
X0201502Y0033150D01*
X0200511Y0032160D01*
X0199521Y0032160D01*
X0199025Y0032655D01*
X0199025Y0033646D01*
X0200016Y0034637D01*
X0201007Y0034637D01*
X0197751Y0031381D02*
X0196761Y0031381D01*
X0195770Y0030390D01*
X0195770Y0029400D01*
X0197751Y0027418D01*
X0198742Y0027418D01*
X0208742Y0026427D02*
X0210724Y0028409D01*
X0211502Y0030178D02*
X0212988Y0031664D01*
X0212988Y0032655D01*
X0211007Y0034637D01*
X0210016Y0034637D01*
X0208530Y0033150D01*
X0211502Y0030178D01*
X0215274Y0029895D02*
X0218247Y0026923D01*
X0220228Y0028904D01*
X0221502Y0030178D02*
X0218530Y0033150D01*
X0223484Y0032160D01*
X0220511Y0035132D01*
X0216244Y0034920D02*
X0216244Y0035911D01*
X0216244Y0034920D02*
X0215253Y0033929D01*
X0214262Y0033929D01*
X0212281Y0035911D01*
X0212281Y0036901D01*
X0213271Y0037892D01*
X0214262Y0037892D01*
X0217256Y0031877D02*
X0215274Y0029895D01*
X0216761Y0028409D02*
X0217751Y0029400D01*
X0217468Y0025153D02*
X0215487Y0023172D01*
X0217490Y0022110D02*
X0220462Y0019138D01*
X0221736Y0020412D02*
X0223717Y0022393D01*
X0222727Y0021402D02*
X0219754Y0024375D01*
X0219754Y0022393D01*
X0217490Y0022110D02*
X0217490Y0020129D01*
X0215508Y0020129D01*
X0218480Y0017156D01*
X0225508Y0020129D02*
X0227490Y0020129D01*
X0227490Y0022110D01*
X0230462Y0019138D01*
X0231736Y0020412D02*
X0233717Y0022393D01*
X0232727Y0021402D02*
X0229754Y0024375D01*
X0229754Y0022393D01*
X0227468Y0025153D02*
X0225487Y0023172D01*
X0225508Y0020129D02*
X0228480Y0017156D01*
X0236003Y0019633D02*
X0237985Y0017652D01*
X0238976Y0017652D01*
X0239966Y0018642D01*
X0239966Y0019633D01*
X0238976Y0020624D01*
X0237985Y0019633D01*
X0236003Y0019633D02*
X0236003Y0020624D01*
X0236994Y0021615D01*
X0237985Y0021615D01*
X0238763Y0023384D02*
X0243717Y0022393D01*
X0240745Y0025366D01*
X0242019Y0026640D02*
X0243505Y0028126D01*
X0244496Y0028126D01*
X0246477Y0026144D01*
X0246477Y0025153D01*
X0244991Y0023667D01*
X0242019Y0026640D01*
X0239733Y0028409D02*
X0239733Y0029400D01*
X0237751Y0031381D01*
X0236761Y0031381D01*
X0235274Y0029895D01*
X0238247Y0026923D01*
X0239733Y0028409D01*
X0241502Y0030178D02*
X0242493Y0031169D01*
X0241998Y0030673D02*
X0239025Y0033646D01*
X0238530Y0033150D02*
X0239521Y0034141D01*
X0240700Y0035321D02*
X0242186Y0036807D01*
X0243177Y0036807D01*
X0244168Y0035816D01*
X0244168Y0034825D01*
X0242682Y0033339D01*
X0243672Y0032348D02*
X0240700Y0035321D01*
X0238013Y0036689D02*
X0235041Y0039661D01*
X0236527Y0041148D01*
X0237518Y0041148D01*
X0238508Y0040157D01*
X0238508Y0039166D01*
X0237022Y0037680D01*
X0236739Y0035415D02*
X0234758Y0033434D01*
X0231785Y0036406D01*
X0233767Y0038388D01*
X0234262Y0035911D02*
X0233271Y0034920D01*
X0230511Y0035132D02*
X0228530Y0033150D01*
X0229521Y0034141D02*
X0232493Y0031169D01*
X0229733Y0029400D02*
X0229733Y0028409D01*
X0228742Y0027418D01*
X0227751Y0027418D01*
X0227256Y0028904D02*
X0228247Y0029895D01*
X0229237Y0029895D01*
X0229733Y0029400D01*
X0227256Y0028904D02*
X0226265Y0028904D01*
X0225770Y0029400D01*
X0225770Y0030390D01*
X0226761Y0031381D01*
X0227751Y0031381D01*
X0235487Y0023172D02*
X0237468Y0025153D01*
X0238763Y0023384D02*
X0241736Y0020412D01*
X0245508Y0020129D02*
X0247490Y0020129D01*
X0247490Y0022110D01*
X0250462Y0019138D01*
X0251736Y0020412D02*
X0251736Y0024375D01*
X0251240Y0024870D01*
X0250250Y0024870D01*
X0249259Y0023879D01*
X0249259Y0022889D01*
X0251736Y0020412D02*
X0253717Y0022393D01*
X0255487Y0023172D02*
X0257468Y0025153D01*
X0258247Y0026923D02*
X0260228Y0028904D01*
X0261502Y0030178D02*
X0258530Y0033150D01*
X0263484Y0032160D01*
X0260511Y0035132D01*
X0257256Y0031877D02*
X0255274Y0029895D01*
X0258247Y0026923D01*
X0256761Y0028409D02*
X0257751Y0029400D01*
X0245654Y0034330D02*
X0243672Y0034330D01*
X0245508Y0020129D02*
X0248480Y0017156D01*
X0285508Y0020129D02*
X0286994Y0018642D01*
X0287490Y0020129D01*
X0287985Y0020624D01*
X0288976Y0020624D01*
X0289966Y0019633D01*
X0289966Y0018642D01*
X0288976Y0017652D01*
X0287985Y0017652D01*
X0285508Y0020129D02*
X0287490Y0022110D01*
X0288763Y0023384D02*
X0290745Y0021402D01*
X0292727Y0021402D01*
X0292727Y0023384D01*
X0290745Y0025366D01*
X0290401Y0060962D02*
X0289000Y0062363D01*
X0289700Y0062363D02*
X0287599Y0062363D01*
X0287599Y0060962D02*
X0287599Y0065166D01*
X0289700Y0065166D01*
X0290401Y0064465D01*
X0290401Y0063064D01*
X0289700Y0062363D01*
X0285797Y0060962D02*
X0285797Y0065166D01*
X0282995Y0065166D02*
X0282995Y0060962D01*
X0284396Y0062363D01*
X0285797Y0060962D01*
X0281193Y0063064D02*
X0280493Y0062363D01*
X0278391Y0062363D01*
X0278391Y0060962D02*
X0278391Y0065166D01*
X0280493Y0065166D01*
X0281193Y0064465D01*
X0281193Y0063064D01*
X0276589Y0060262D02*
X0273787Y0060262D01*
X0270584Y0060962D02*
X0270584Y0065166D01*
X0269183Y0065166D02*
X0271985Y0065166D01*
X0272280Y0066866D02*
X0269780Y0069366D01*
X0267280Y0066866D01*
X0262280Y0066866D01*
X0259780Y0069366D01*
X0259780Y0074366D01*
X0262280Y0076866D01*
X0267280Y0076866D01*
X0269780Y0074366D01*
X0272280Y0076866D01*
X0277280Y0076866D01*
X0279780Y0074366D01*
X0279780Y0069366D01*
X0277280Y0066866D01*
X0272280Y0066866D01*
X0267381Y0065166D02*
X0264579Y0060962D01*
X0262777Y0060962D02*
X0259975Y0060962D01*
X0259975Y0065166D01*
X0262777Y0065166D01*
X0264579Y0065166D02*
X0267381Y0060962D01*
X0261376Y0063064D02*
X0259975Y0063064D01*
X0219498Y0076636D02*
X0219498Y0079439D01*
X0219498Y0078037D02*
X0215294Y0078037D01*
X0216695Y0076636D01*
X0213553Y0077337D02*
X0213553Y0078738D01*
X0212852Y0079439D01*
X0212852Y0081240D02*
X0213553Y0081941D01*
X0213553Y0083342D01*
X0212852Y0084043D01*
X0212152Y0084043D01*
X0211451Y0083342D01*
X0211451Y0082641D01*
X0211451Y0083342D02*
X0210750Y0084043D01*
X0210050Y0084043D01*
X0209349Y0083342D01*
X0209349Y0081941D01*
X0210050Y0081240D01*
X0210050Y0079439D02*
X0209349Y0078738D01*
X0209349Y0077337D01*
X0210050Y0076636D01*
X0212852Y0076636D01*
X0213553Y0077337D01*
X0215995Y0081240D02*
X0215294Y0081941D01*
X0215294Y0083342D01*
X0215995Y0084043D01*
X0218797Y0081240D01*
X0219498Y0081941D01*
X0219498Y0083342D01*
X0218797Y0084043D01*
X0215995Y0084043D01*
X0215995Y0085844D02*
X0215294Y0086545D01*
X0215294Y0087946D01*
X0215995Y0088646D01*
X0218797Y0085844D01*
X0219498Y0086545D01*
X0219498Y0087946D01*
X0218797Y0088646D01*
X0215995Y0088646D01*
X0216695Y0090448D02*
X0216695Y0092550D01*
X0217396Y0093250D01*
X0219498Y0093250D01*
X0219498Y0095753D02*
X0215995Y0095753D01*
X0215294Y0096453D01*
X0217396Y0096453D02*
X0217396Y0095052D01*
X0216695Y0090448D02*
X0219498Y0090448D01*
X0218797Y0085844D02*
X0215995Y0085844D01*
X0215995Y0081240D02*
X0218797Y0081240D01*
X0202476Y0079051D02*
X0202476Y0087051D01*
X0202476Y0079051D02*
X0180476Y0079051D01*
X0177476Y0082051D01*
X0177476Y0087051D01*
X0177476Y0096051D02*
X0177476Y0101051D01*
X0180476Y0104051D01*
X0202476Y0104051D01*
X0202476Y0096051D01*
X0200776Y0095951D02*
X0200665Y0096213D01*
X0200548Y0096473D01*
X0200425Y0096729D01*
X0200296Y0096983D01*
X0200160Y0097233D01*
X0200018Y0097480D01*
X0199871Y0097723D01*
X0199717Y0097963D01*
X0199558Y0098199D01*
X0199392Y0098431D01*
X0199222Y0098659D01*
X0199045Y0098882D01*
X0198864Y0099101D01*
X0198677Y0099316D01*
X0198485Y0099526D01*
X0198288Y0099731D01*
X0198085Y0099932D01*
X0197878Y0100127D01*
X0197667Y0100318D01*
X0197450Y0100503D01*
X0197230Y0100683D01*
X0197005Y0100857D01*
X0196775Y0101026D01*
X0196542Y0101189D01*
X0196305Y0101346D01*
X0196064Y0101498D01*
X0195819Y0101643D01*
X0195571Y0101783D01*
X0195320Y0101917D01*
X0195065Y0102044D01*
X0194808Y0102165D01*
X0194547Y0102280D01*
X0194284Y0102388D01*
X0194018Y0102490D01*
X0193750Y0102585D01*
X0193480Y0102674D01*
X0193207Y0102756D01*
X0192932Y0102832D01*
X0192656Y0102901D01*
X0192378Y0102963D01*
X0192099Y0103018D01*
X0191819Y0103067D01*
X0191537Y0103108D01*
X0191254Y0103143D01*
X0190971Y0103170D01*
X0190687Y0103191D01*
X0190403Y0103205D01*
X0190118Y0103212D01*
X0189834Y0103212D01*
X0189549Y0103205D01*
X0189265Y0103191D01*
X0188981Y0103170D01*
X0188698Y0103143D01*
X0188415Y0103108D01*
X0188133Y0103067D01*
X0187853Y0103018D01*
X0187574Y0102963D01*
X0187296Y0102901D01*
X0187020Y0102832D01*
X0186745Y0102756D01*
X0186472Y0102674D01*
X0186202Y0102585D01*
X0185934Y0102490D01*
X0185668Y0102388D01*
X0185405Y0102280D01*
X0185144Y0102165D01*
X0184887Y0102044D01*
X0184632Y0101917D01*
X0184381Y0101783D01*
X0184133Y0101643D01*
X0183888Y0101498D01*
X0183647Y0101346D01*
X0183410Y0101189D01*
X0183177Y0101026D01*
X0182947Y0100857D01*
X0182722Y0100683D01*
X0182502Y0100503D01*
X0182285Y0100318D01*
X0182074Y0100127D01*
X0181867Y0099932D01*
X0181664Y0099731D01*
X0181467Y0099526D01*
X0181275Y0099316D01*
X0181088Y0099101D01*
X0180907Y0098882D01*
X0180730Y0098659D01*
X0180560Y0098431D01*
X0180394Y0098199D01*
X0180235Y0097963D01*
X0180081Y0097723D01*
X0179934Y0097480D01*
X0179792Y0097233D01*
X0179656Y0096983D01*
X0179527Y0096729D01*
X0179404Y0096473D01*
X0179287Y0096213D01*
X0179176Y0095951D01*
X0179176Y0087151D02*
X0179287Y0086889D01*
X0179404Y0086629D01*
X0179527Y0086373D01*
X0179656Y0086119D01*
X0179792Y0085869D01*
X0179934Y0085622D01*
X0180081Y0085379D01*
X0180235Y0085139D01*
X0180394Y0084903D01*
X0180560Y0084671D01*
X0180730Y0084443D01*
X0180907Y0084220D01*
X0181088Y0084001D01*
X0181275Y0083786D01*
X0181467Y0083576D01*
X0181664Y0083371D01*
X0181867Y0083170D01*
X0182074Y0082975D01*
X0182285Y0082784D01*
X0182502Y0082599D01*
X0182722Y0082419D01*
X0182947Y0082245D01*
X0183177Y0082076D01*
X0183410Y0081913D01*
X0183647Y0081756D01*
X0183888Y0081604D01*
X0184133Y0081459D01*
X0184381Y0081319D01*
X0184632Y0081185D01*
X0184887Y0081058D01*
X0185144Y0080937D01*
X0185405Y0080822D01*
X0185668Y0080714D01*
X0185934Y0080612D01*
X0186202Y0080517D01*
X0186472Y0080428D01*
X0186745Y0080346D01*
X0187020Y0080270D01*
X0187296Y0080201D01*
X0187574Y0080139D01*
X0187853Y0080084D01*
X0188133Y0080035D01*
X0188415Y0079994D01*
X0188698Y0079959D01*
X0188981Y0079932D01*
X0189265Y0079911D01*
X0189549Y0079897D01*
X0189834Y0079890D01*
X0190118Y0079890D01*
X0190403Y0079897D01*
X0190687Y0079911D01*
X0190971Y0079932D01*
X0191254Y0079959D01*
X0191537Y0079994D01*
X0191819Y0080035D01*
X0192099Y0080084D01*
X0192378Y0080139D01*
X0192656Y0080201D01*
X0192932Y0080270D01*
X0193207Y0080346D01*
X0193480Y0080428D01*
X0193750Y0080517D01*
X0194018Y0080612D01*
X0194284Y0080714D01*
X0194547Y0080822D01*
X0194808Y0080937D01*
X0195065Y0081058D01*
X0195320Y0081185D01*
X0195571Y0081319D01*
X0195819Y0081459D01*
X0196064Y0081604D01*
X0196305Y0081756D01*
X0196542Y0081913D01*
X0196775Y0082076D01*
X0197005Y0082245D01*
X0197230Y0082419D01*
X0197450Y0082599D01*
X0197667Y0082784D01*
X0197878Y0082975D01*
X0198085Y0083170D01*
X0198288Y0083371D01*
X0198485Y0083576D01*
X0198677Y0083786D01*
X0198864Y0084001D01*
X0199045Y0084220D01*
X0199222Y0084443D01*
X0199392Y0084671D01*
X0199558Y0084903D01*
X0199717Y0085139D01*
X0199871Y0085379D01*
X0200018Y0085622D01*
X0200160Y0085869D01*
X0200296Y0086119D01*
X0200425Y0086373D01*
X0200548Y0086629D01*
X0200665Y0086889D01*
X0200776Y0087151D01*
X0199629Y0120273D02*
X0196656Y0123245D01*
X0195665Y0122255D02*
X0197647Y0124236D01*
X0198921Y0125510D02*
X0200902Y0127492D01*
X0202176Y0128766D02*
X0204158Y0130747D01*
X0203167Y0129756D02*
X0206140Y0126784D01*
X0208921Y0125510D02*
X0211893Y0122538D01*
X0210902Y0123528D02*
X0212389Y0125015D01*
X0212389Y0126005D01*
X0211398Y0126996D01*
X0210407Y0126996D01*
X0208921Y0125510D01*
X0208142Y0123741D02*
X0207152Y0123741D01*
X0206161Y0122750D01*
X0206161Y0121759D01*
X0208142Y0119778D01*
X0209133Y0119778D01*
X0210124Y0120768D01*
X0210124Y0121759D01*
X0209133Y0122750D01*
X0208142Y0121759D01*
X0201893Y0122538D02*
X0198921Y0125510D01*
X0200407Y0124024D02*
X0201398Y0125015D01*
X0197814Y0127468D02*
X0199796Y0129450D01*
X0200079Y0131714D02*
X0201070Y0131714D01*
X0202061Y0132705D01*
X0202061Y0133696D01*
X0203830Y0134474D02*
X0200858Y0137447D01*
X0200079Y0135677D02*
X0199088Y0135677D01*
X0198097Y0134687D01*
X0198097Y0133696D01*
X0200079Y0131714D01*
X0203830Y0134474D02*
X0205812Y0136456D01*
X0207085Y0137730D02*
X0204113Y0140702D01*
X0206095Y0139711D02*
X0209067Y0139711D01*
X0206095Y0138721D02*
X0206095Y0142684D01*
X0200742Y0142377D02*
X0200742Y0141386D01*
X0199751Y0140396D01*
X0198760Y0140396D01*
X0196779Y0142377D01*
X0196779Y0143368D01*
X0197770Y0144359D01*
X0198760Y0144359D01*
X0200742Y0142377D01*
X0197486Y0139122D02*
X0196991Y0139617D01*
X0196000Y0139617D01*
X0195009Y0138626D01*
X0194019Y0138626D01*
X0193523Y0139122D01*
X0193523Y0140112D01*
X0194514Y0141103D01*
X0195505Y0141103D01*
X0197486Y0139122D02*
X0197486Y0138131D01*
X0196496Y0137140D01*
X0195505Y0137140D01*
X0194821Y0135465D02*
X0193830Y0134474D01*
X0194325Y0134970D02*
X0191353Y0137942D01*
X0190858Y0137447D02*
X0191848Y0138438D01*
X0189584Y0136173D02*
X0189584Y0134191D01*
X0187602Y0134191D01*
X0190574Y0131219D01*
X0189796Y0129450D02*
X0187814Y0127468D01*
X0186140Y0126784D02*
X0185149Y0125793D01*
X0185644Y0126289D02*
X0182672Y0129261D01*
X0182176Y0128766D02*
X0183167Y0129756D01*
X0181398Y0126996D02*
X0182389Y0126005D01*
X0182389Y0125015D01*
X0180902Y0123528D01*
X0181893Y0122538D02*
X0178921Y0125510D01*
X0180407Y0126996D01*
X0181398Y0126996D01*
X0178142Y0123741D02*
X0177152Y0123741D01*
X0176161Y0122750D01*
X0176161Y0121759D01*
X0176656Y0121264D01*
X0177647Y0121264D01*
X0178638Y0122255D01*
X0179629Y0122255D01*
X0180124Y0121759D01*
X0180124Y0120768D01*
X0179133Y0119778D01*
X0178142Y0119778D01*
X0173875Y0124519D02*
X0170902Y0127492D01*
X0172176Y0128766D02*
X0173663Y0130252D01*
X0174653Y0130252D01*
X0176635Y0128270D01*
X0176635Y0127279D01*
X0175149Y0125793D01*
X0172176Y0128766D01*
X0170386Y0131030D02*
X0168404Y0129049D01*
X0169395Y0130039D02*
X0166423Y0133012D01*
X0166423Y0131030D01*
X0167626Y0127279D02*
X0165644Y0125298D01*
X0167152Y0123741D02*
X0166161Y0122750D01*
X0166161Y0121759D01*
X0168142Y0119778D01*
X0169133Y0119778D01*
X0170124Y0120768D01*
X0170124Y0121759D01*
X0169133Y0122750D01*
X0168142Y0121759D01*
X0168142Y0123741D02*
X0167152Y0123741D01*
X0168921Y0125510D02*
X0173875Y0124519D01*
X0171893Y0122538D02*
X0168921Y0125510D01*
X0162389Y0125015D02*
X0160902Y0123528D01*
X0161893Y0122538D02*
X0158921Y0125510D01*
X0160407Y0126996D01*
X0161398Y0126996D01*
X0162389Y0126005D01*
X0162389Y0125015D01*
X0159133Y0122750D02*
X0158142Y0121759D01*
X0159133Y0122750D02*
X0160124Y0121759D01*
X0160124Y0120768D01*
X0159133Y0119778D01*
X0158142Y0119778D01*
X0156161Y0121759D01*
X0156161Y0122750D01*
X0157152Y0123741D01*
X0158142Y0123741D01*
X0153875Y0124519D02*
X0148921Y0125510D01*
X0148142Y0123741D02*
X0149133Y0122750D01*
X0149133Y0121759D01*
X0147647Y0120273D01*
X0148638Y0119282D02*
X0145665Y0122255D01*
X0147152Y0123741D01*
X0148142Y0123741D01*
X0148638Y0121264D02*
X0150619Y0121264D01*
X0151893Y0122538D02*
X0150902Y0127492D01*
X0143875Y0124519D02*
X0138921Y0125510D01*
X0137647Y0124236D02*
X0135665Y0122255D01*
X0136656Y0123245D02*
X0139629Y0120273D01*
X0141893Y0122538D02*
X0140902Y0127492D01*
X0139395Y0130039D02*
X0137413Y0130039D01*
X0135432Y0132021D01*
X0134653Y0130252D02*
X0135644Y0129261D01*
X0135644Y0128270D01*
X0134158Y0126784D01*
X0135149Y0127775D02*
X0137130Y0127775D01*
X0135149Y0125793D02*
X0132176Y0128766D01*
X0133663Y0130252D01*
X0134653Y0130252D01*
X0132556Y0133200D02*
X0129584Y0136173D01*
X0137413Y0134003D02*
X0139395Y0132021D01*
X0139395Y0130039D01*
X0141164Y0132799D02*
X0142155Y0132799D01*
X0143146Y0133790D01*
X0143146Y0134781D01*
X0141164Y0136763D01*
X0140173Y0136763D01*
X0139183Y0135772D01*
X0139183Y0134781D01*
X0141164Y0132799D01*
X0133875Y0124519D02*
X0131893Y0122538D01*
X0128921Y0125510D01*
X0130902Y0127492D01*
X0131398Y0125015D02*
X0130407Y0124024D01*
X0129629Y0122255D02*
X0130124Y0121759D01*
X0130124Y0120768D01*
X0129133Y0119778D01*
X0128142Y0119778D01*
X0127647Y0121264D02*
X0128638Y0122255D01*
X0129629Y0122255D01*
X0128142Y0123741D02*
X0127152Y0123741D01*
X0126161Y0122750D01*
X0126161Y0121759D01*
X0126656Y0121264D01*
X0127647Y0121264D01*
X0127212Y0102730D02*
X0125811Y0102730D01*
X0125110Y0102029D01*
X0123309Y0102029D02*
X0123309Y0100628D01*
X0122608Y0099927D01*
X0120506Y0099927D01*
X0120506Y0098526D02*
X0120506Y0102730D01*
X0122608Y0102730D01*
X0123309Y0102029D01*
X0125110Y0098526D02*
X0127913Y0101328D01*
X0127913Y0102029D01*
X0127212Y0102730D01*
X0129714Y0102029D02*
X0130415Y0102730D01*
X0131816Y0102730D01*
X0132516Y0102029D01*
X0132516Y0101328D01*
X0131816Y0100628D01*
X0132516Y0099927D01*
X0132516Y0099227D01*
X0131816Y0098526D01*
X0130415Y0098526D01*
X0129714Y0099227D01*
X0127913Y0098526D02*
X0125110Y0098526D01*
X0131115Y0100628D02*
X0131816Y0100628D01*
X0134318Y0102029D02*
X0135019Y0102730D01*
X0136420Y0102730D01*
X0137120Y0102029D01*
X0134318Y0099227D01*
X0135019Y0098526D01*
X0136420Y0098526D01*
X0137120Y0099227D01*
X0137120Y0102029D01*
X0138922Y0102730D02*
X0141724Y0102730D01*
X0141724Y0102029D01*
X0138922Y0099227D01*
X0138922Y0098526D01*
X0134318Y0099227D02*
X0134318Y0102029D01*
X0118705Y0102730D02*
X0118705Y0098526D01*
X0115902Y0098526D02*
X0115902Y0102730D01*
X0117303Y0101328D01*
X0118705Y0102730D01*
X0114101Y0100628D02*
X0111298Y0100628D01*
X0104893Y0102730D02*
X0103492Y0102029D01*
X0139450Y0056202D02*
X0140851Y0056202D01*
X0141552Y0055501D01*
X0141552Y0052699D01*
X0140851Y0051998D01*
X0139450Y0051998D01*
X0138749Y0052699D01*
X0138749Y0055501D01*
X0139450Y0056202D01*
X0140150Y0053400D02*
X0141552Y0051998D01*
X0143353Y0052699D02*
X0144054Y0051998D01*
X0145455Y0051998D01*
X0146156Y0052699D01*
X0146156Y0054100D01*
X0145455Y0054801D01*
X0144754Y0054801D01*
X0143353Y0054100D01*
X0143353Y0056202D01*
X0146156Y0056202D01*
X0169852Y0055501D02*
X0170552Y0056202D01*
X0171953Y0056202D01*
X0172654Y0055501D01*
X0172654Y0052699D01*
X0171953Y0051998D01*
X0170552Y0051998D01*
X0169852Y0052699D01*
X0169852Y0055501D01*
X0171253Y0053400D02*
X0172654Y0051998D01*
X0174456Y0054100D02*
X0177258Y0054100D01*
X0176557Y0051998D02*
X0176557Y0056202D01*
X0174456Y0054100D01*
X0170228Y0028904D02*
X0168247Y0026923D01*
X0170745Y0025366D02*
X0168763Y0023384D01*
X0170250Y0021898D02*
X0171240Y0022889D01*
X0137985Y0019633D02*
X0136994Y0018642D01*
X0135508Y0020129D02*
X0137490Y0022110D01*
X0129188Y0022462D02*
X0129188Y0019660D01*
X0128488Y0018959D01*
X0127086Y0018959D01*
X0126386Y0019660D01*
X0129188Y0022462D01*
X0128488Y0023163D01*
X0127086Y0023163D01*
X0126386Y0022462D01*
X0126386Y0019660D01*
X0125508Y0020129D02*
X0127490Y0022110D01*
X0127985Y0019633D02*
X0126994Y0018642D01*
X0125487Y0024163D02*
X0124496Y0024163D01*
X0125487Y0024163D02*
X0126477Y0025153D01*
X0126477Y0026144D01*
X0125982Y0026640D01*
X0124991Y0026640D01*
X0124000Y0025649D01*
X0123010Y0025649D01*
X0122514Y0026144D01*
X0122514Y0027135D01*
X0123505Y0028126D01*
X0124496Y0028126D01*
X0125274Y0029895D02*
X0128247Y0026923D01*
X0130228Y0028904D01*
X0127751Y0029400D02*
X0126761Y0028409D01*
X0125274Y0029895D02*
X0127256Y0031877D01*
X0128530Y0033150D02*
X0130511Y0035132D01*
X0129521Y0034141D02*
X0132493Y0031169D01*
X0123183Y0023163D02*
X0121782Y0021761D01*
X0121240Y0022889D02*
X0120250Y0021898D01*
X0118763Y0023384D02*
X0120745Y0025366D01*
X0117610Y0026286D02*
X0117610Y0028267D01*
X0115628Y0030249D01*
X0113647Y0028267D02*
X0115628Y0026286D01*
X0117610Y0026286D01*
X0114850Y0024516D02*
X0114850Y0023526D01*
X0113859Y0022535D01*
X0112868Y0022535D01*
X0112868Y0024516D02*
X0113363Y0025012D01*
X0114354Y0025012D01*
X0114850Y0024516D01*
X0113363Y0025012D02*
X0113363Y0026003D01*
X0112868Y0026498D01*
X0111877Y0026498D01*
X0110886Y0025507D01*
X0110887Y0024516D01*
X0115508Y0020129D02*
X0118480Y0017156D01*
X0118480Y0019138D02*
X0120462Y0019138D01*
X0103366Y0018959D02*
X0103366Y0023163D01*
X0100163Y0023163D02*
X0100163Y0018959D01*
X0098762Y0018959D02*
X0101565Y0018959D01*
X0098762Y0021761D02*
X0100163Y0023163D01*
X0013444Y0045492D02*
X0013444Y0048295D01*
X0011624Y0087620D02*
X0007420Y0087620D01*
X0007420Y0090423D01*
X0007420Y0092224D02*
X0011624Y0095027D01*
X0007420Y0095027D01*
X0008121Y0096828D02*
X0010923Y0096828D01*
X0011624Y0097529D01*
X0011624Y0098930D01*
X0010923Y0099631D01*
X0011624Y0101432D02*
X0008821Y0104235D01*
X0008121Y0104235D01*
X0007420Y0103534D01*
X0007420Y0102133D01*
X0008121Y0101432D01*
X0008121Y0099631D02*
X0007420Y0098930D01*
X0007420Y0097529D01*
X0008121Y0096828D01*
X0011624Y0101432D02*
X0011624Y0104235D01*
X0011624Y0108093D02*
X0007420Y0108093D01*
X0007420Y0110895D01*
X0007420Y0112697D02*
X0011624Y0115499D01*
X0007420Y0115499D01*
X0008121Y0117301D02*
X0010923Y0117301D01*
X0011624Y0118001D01*
X0011624Y0119403D01*
X0010923Y0120103D01*
X0011624Y0121905D02*
X0011624Y0124707D01*
X0011624Y0123306D02*
X0007420Y0123306D01*
X0008821Y0121905D01*
X0008121Y0120103D02*
X0007420Y0119403D01*
X0007420Y0118001D01*
X0008121Y0117301D01*
X0007420Y0112697D02*
X0011624Y0112697D01*
X0011624Y0110895D02*
X0011624Y0108093D01*
X0009522Y0108093D02*
X0009522Y0109494D01*
X0011624Y0092224D02*
X0007420Y0092224D01*
X0009522Y0089022D02*
X0009522Y0087620D01*
X0011624Y0087620D02*
X0011624Y0090423D01*
X0023203Y0140219D02*
X0022502Y0140919D01*
X0023203Y0140219D02*
X0024604Y0140219D01*
X0025305Y0140919D01*
X0025305Y0141620D01*
X0024604Y0142321D01*
X0023203Y0142321D01*
X0022502Y0143021D01*
X0022502Y0143722D01*
X0023203Y0144422D01*
X0024604Y0144422D01*
X0025305Y0143722D01*
X0027106Y0144422D02*
X0027106Y0140219D01*
X0029208Y0140219D01*
X0029909Y0140919D01*
X0029909Y0143722D01*
X0029208Y0144422D01*
X0027106Y0144422D01*
X0031710Y0139518D02*
X0034513Y0139518D01*
X0036314Y0140919D02*
X0037015Y0140219D01*
X0038416Y0140219D01*
X0039117Y0140919D01*
X0039117Y0141620D01*
X0038416Y0142321D01*
X0037015Y0142321D01*
X0036314Y0143021D01*
X0036314Y0143722D01*
X0037015Y0144422D01*
X0038416Y0144422D01*
X0039117Y0143722D01*
X0040918Y0143722D02*
X0040918Y0140919D01*
X0041619Y0140219D01*
X0043020Y0140219D01*
X0043720Y0140919D01*
X0045522Y0140219D02*
X0045522Y0144422D01*
X0043720Y0143722D02*
X0043020Y0144422D01*
X0041619Y0144422D01*
X0040918Y0143722D01*
X0045522Y0141620D02*
X0048324Y0144422D01*
X0046223Y0142321D02*
X0048324Y0140219D01*
X0046877Y0150061D02*
X0045475Y0150061D01*
X0044775Y0150762D01*
X0045475Y0152163D02*
X0044775Y0152864D01*
X0044775Y0153564D01*
X0045475Y0154265D01*
X0046877Y0154265D01*
X0047577Y0153564D01*
X0046877Y0152163D02*
X0047577Y0151463D01*
X0047577Y0150762D01*
X0046877Y0150061D01*
X0046877Y0152163D02*
X0045475Y0152163D01*
X0043107Y0150061D02*
X0041705Y0150061D01*
X0042406Y0150061D02*
X0042406Y0154265D01*
X0041705Y0154265D02*
X0043107Y0154265D01*
X0039904Y0154265D02*
X0039904Y0150061D01*
X0037102Y0150061D02*
X0037102Y0154265D01*
X0038503Y0152864D01*
X0039904Y0154265D01*
X0040087Y0160250D02*
X0040087Y0164453D01*
X0038686Y0163052D01*
X0037284Y0164453D01*
X0037284Y0160250D01*
X0035483Y0159549D02*
X0032680Y0159549D01*
X0030879Y0160950D02*
X0030879Y0163753D01*
X0030178Y0164453D01*
X0028077Y0164453D01*
X0028077Y0160250D01*
X0030178Y0160250D01*
X0030879Y0160950D01*
X0026275Y0160950D02*
X0025574Y0160250D01*
X0024173Y0160250D01*
X0023473Y0160950D01*
X0024173Y0162352D02*
X0025574Y0162352D01*
X0026275Y0161651D01*
X0026275Y0160950D01*
X0024173Y0162352D02*
X0023473Y0163052D01*
X0023473Y0163753D01*
X0024173Y0164453D01*
X0025574Y0164453D01*
X0026275Y0163753D01*
X0025737Y0170092D02*
X0024336Y0170092D01*
X0023636Y0170793D01*
X0024336Y0172194D02*
X0025737Y0172194D01*
X0026438Y0171494D01*
X0026438Y0170793D01*
X0025737Y0170092D01*
X0028240Y0170092D02*
X0030341Y0170092D01*
X0031042Y0170793D01*
X0031042Y0173595D01*
X0030341Y0174296D01*
X0028240Y0174296D01*
X0028240Y0170092D01*
X0024336Y0172194D02*
X0023636Y0172895D01*
X0023636Y0173595D01*
X0024336Y0174296D01*
X0025737Y0174296D01*
X0026438Y0173595D01*
X0032844Y0169392D02*
X0035646Y0169392D01*
X0037447Y0170793D02*
X0038148Y0170092D01*
X0039549Y0170092D01*
X0040250Y0170793D01*
X0042051Y0170793D02*
X0042752Y0170092D01*
X0044153Y0170092D01*
X0044854Y0170793D01*
X0044854Y0171494D01*
X0044153Y0172194D01*
X0042752Y0172194D01*
X0042051Y0172895D01*
X0042051Y0173595D01*
X0042752Y0174296D01*
X0044153Y0174296D01*
X0044854Y0173595D01*
X0040250Y0173595D02*
X0039549Y0174296D01*
X0038148Y0174296D01*
X0037447Y0173595D01*
X0037447Y0170793D01*
X0042589Y0164453D02*
X0041888Y0163753D01*
X0041888Y0160950D01*
X0042589Y0160250D01*
X0043990Y0160250D01*
X0044691Y0160950D01*
X0044691Y0163753D01*
X0043990Y0164453D01*
X0042589Y0164453D01*
X0046492Y0163753D02*
X0046492Y0163052D01*
X0047193Y0162352D01*
X0048594Y0162352D01*
X0049295Y0161651D01*
X0049295Y0160950D01*
X0048594Y0160250D01*
X0047193Y0160250D01*
X0046492Y0160950D01*
X0046492Y0163753D02*
X0047193Y0164453D01*
X0048594Y0164453D01*
X0049295Y0163753D01*
X0051096Y0164453D02*
X0052497Y0164453D01*
X0051797Y0164453D02*
X0051797Y0160250D01*
X0052497Y0160250D02*
X0051096Y0160250D01*
X0051480Y0154265D02*
X0050079Y0154265D01*
X0049379Y0153564D01*
X0049379Y0150762D01*
X0050079Y0150061D01*
X0051480Y0150061D01*
X0052181Y0150762D01*
X0052181Y0153564D01*
X0051480Y0154265D01*
X0035300Y0149361D02*
X0032498Y0149361D01*
X0030696Y0150762D02*
X0030696Y0153564D01*
X0029995Y0154265D01*
X0027894Y0154265D01*
X0027894Y0150061D01*
X0029995Y0150061D01*
X0030696Y0150762D01*
X0026092Y0150762D02*
X0025392Y0150061D01*
X0023990Y0150061D01*
X0023290Y0150762D01*
X0023990Y0152163D02*
X0025392Y0152163D01*
X0026092Y0151463D01*
X0026092Y0150762D01*
X0023990Y0152163D02*
X0023290Y0152864D01*
X0023290Y0153564D01*
X0023990Y0154265D01*
X0025392Y0154265D01*
X0026092Y0153564D01*
X0018502Y0209975D02*
X0018502Y0210675D01*
X0021304Y0213478D01*
X0021304Y0214178D01*
X0018502Y0214178D01*
X0016700Y0213478D02*
X0016700Y0210675D01*
X0016000Y0209975D01*
X0014599Y0209975D01*
X0013898Y0210675D01*
X0013898Y0213478D01*
X0014599Y0214178D01*
X0016000Y0214178D01*
X0016700Y0213478D01*
X0015299Y0211376D02*
X0016700Y0209975D01*
X0045394Y0211069D02*
X0046095Y0210369D01*
X0047496Y0210369D01*
X0048196Y0211069D01*
X0048196Y0213871D01*
X0047496Y0214572D01*
X0046095Y0214572D01*
X0045394Y0213871D01*
X0045394Y0211069D01*
X0046795Y0211770D02*
X0048196Y0210369D01*
X0049998Y0211069D02*
X0050699Y0210369D01*
X0052100Y0210369D01*
X0052800Y0211069D01*
X0052800Y0211770D01*
X0052100Y0212470D01*
X0049998Y0212470D01*
X0049998Y0211069D01*
X0049998Y0212470D02*
X0051399Y0213871D01*
X0052800Y0214572D01*
X0185350Y0195539D02*
X0185350Y0190539D01*
X0185350Y0195539D02*
X0188350Y0198539D01*
X0210350Y0198539D01*
X0210350Y0190539D01*
X0210350Y0181539D02*
X0210350Y0173539D01*
X0188350Y0173539D01*
X0185350Y0176539D01*
X0185350Y0181539D01*
X0187050Y0190439D02*
X0187161Y0190701D01*
X0187278Y0190961D01*
X0187401Y0191217D01*
X0187530Y0191471D01*
X0187666Y0191721D01*
X0187808Y0191968D01*
X0187955Y0192211D01*
X0188109Y0192451D01*
X0188268Y0192687D01*
X0188434Y0192919D01*
X0188604Y0193147D01*
X0188781Y0193370D01*
X0188962Y0193589D01*
X0189149Y0193804D01*
X0189341Y0194014D01*
X0189538Y0194219D01*
X0189741Y0194420D01*
X0189948Y0194615D01*
X0190159Y0194806D01*
X0190376Y0194991D01*
X0190596Y0195171D01*
X0190821Y0195345D01*
X0191051Y0195514D01*
X0191284Y0195677D01*
X0191521Y0195834D01*
X0191762Y0195986D01*
X0192007Y0196131D01*
X0192255Y0196271D01*
X0192506Y0196405D01*
X0192761Y0196532D01*
X0193018Y0196653D01*
X0193279Y0196768D01*
X0193542Y0196876D01*
X0193808Y0196978D01*
X0194076Y0197073D01*
X0194346Y0197162D01*
X0194619Y0197244D01*
X0194894Y0197320D01*
X0195170Y0197389D01*
X0195448Y0197451D01*
X0195727Y0197506D01*
X0196007Y0197555D01*
X0196289Y0197596D01*
X0196572Y0197631D01*
X0196855Y0197658D01*
X0197139Y0197679D01*
X0197423Y0197693D01*
X0197708Y0197700D01*
X0197992Y0197700D01*
X0198277Y0197693D01*
X0198561Y0197679D01*
X0198845Y0197658D01*
X0199128Y0197631D01*
X0199411Y0197596D01*
X0199693Y0197555D01*
X0199973Y0197506D01*
X0200252Y0197451D01*
X0200530Y0197389D01*
X0200806Y0197320D01*
X0201081Y0197244D01*
X0201354Y0197162D01*
X0201624Y0197073D01*
X0201892Y0196978D01*
X0202158Y0196876D01*
X0202421Y0196768D01*
X0202682Y0196653D01*
X0202939Y0196532D01*
X0203194Y0196405D01*
X0203445Y0196271D01*
X0203693Y0196131D01*
X0203938Y0195986D01*
X0204179Y0195834D01*
X0204416Y0195677D01*
X0204649Y0195514D01*
X0204879Y0195345D01*
X0205104Y0195171D01*
X0205324Y0194991D01*
X0205541Y0194806D01*
X0205752Y0194615D01*
X0205959Y0194420D01*
X0206162Y0194219D01*
X0206359Y0194014D01*
X0206551Y0193804D01*
X0206738Y0193589D01*
X0206919Y0193370D01*
X0207096Y0193147D01*
X0207266Y0192919D01*
X0207432Y0192687D01*
X0207591Y0192451D01*
X0207745Y0192211D01*
X0207892Y0191968D01*
X0208034Y0191721D01*
X0208170Y0191471D01*
X0208299Y0191217D01*
X0208422Y0190961D01*
X0208539Y0190701D01*
X0208650Y0190439D01*
X0208650Y0181639D02*
X0208539Y0181377D01*
X0208422Y0181117D01*
X0208299Y0180861D01*
X0208170Y0180607D01*
X0208034Y0180357D01*
X0207892Y0180110D01*
X0207745Y0179867D01*
X0207591Y0179627D01*
X0207432Y0179391D01*
X0207266Y0179159D01*
X0207096Y0178931D01*
X0206919Y0178708D01*
X0206738Y0178489D01*
X0206551Y0178274D01*
X0206359Y0178064D01*
X0206162Y0177859D01*
X0205959Y0177658D01*
X0205752Y0177463D01*
X0205541Y0177272D01*
X0205324Y0177087D01*
X0205104Y0176907D01*
X0204879Y0176733D01*
X0204649Y0176564D01*
X0204416Y0176401D01*
X0204179Y0176244D01*
X0203938Y0176092D01*
X0203693Y0175947D01*
X0203445Y0175807D01*
X0203194Y0175673D01*
X0202939Y0175546D01*
X0202682Y0175425D01*
X0202421Y0175310D01*
X0202158Y0175202D01*
X0201892Y0175100D01*
X0201624Y0175005D01*
X0201354Y0174916D01*
X0201081Y0174834D01*
X0200806Y0174758D01*
X0200530Y0174689D01*
X0200252Y0174627D01*
X0199973Y0174572D01*
X0199693Y0174523D01*
X0199411Y0174482D01*
X0199128Y0174447D01*
X0198845Y0174420D01*
X0198561Y0174399D01*
X0198277Y0174385D01*
X0197992Y0174378D01*
X0197708Y0174378D01*
X0197423Y0174385D01*
X0197139Y0174399D01*
X0196855Y0174420D01*
X0196572Y0174447D01*
X0196289Y0174482D01*
X0196007Y0174523D01*
X0195727Y0174572D01*
X0195448Y0174627D01*
X0195170Y0174689D01*
X0194894Y0174758D01*
X0194619Y0174834D01*
X0194346Y0174916D01*
X0194076Y0175005D01*
X0193808Y0175100D01*
X0193542Y0175202D01*
X0193279Y0175310D01*
X0193018Y0175425D01*
X0192761Y0175546D01*
X0192506Y0175673D01*
X0192255Y0175807D01*
X0192007Y0175947D01*
X0191762Y0176092D01*
X0191521Y0176244D01*
X0191284Y0176401D01*
X0191051Y0176564D01*
X0190821Y0176733D01*
X0190596Y0176907D01*
X0190376Y0177087D01*
X0190159Y0177272D01*
X0189948Y0177463D01*
X0189741Y0177658D01*
X0189538Y0177859D01*
X0189341Y0178064D01*
X0189149Y0178274D01*
X0188962Y0178489D01*
X0188781Y0178708D01*
X0188604Y0178931D01*
X0188434Y0179159D01*
X0188268Y0179391D01*
X0188109Y0179627D01*
X0187955Y0179867D01*
X0187808Y0180110D01*
X0187666Y0180357D01*
X0187530Y0180607D01*
X0187401Y0180861D01*
X0187278Y0181117D01*
X0187161Y0181377D01*
X0187050Y0181639D01*
X0213429Y0140018D02*
X0212438Y0139027D01*
X0212438Y0138037D01*
X0212934Y0137541D01*
X0213924Y0137541D01*
X0214915Y0138532D01*
X0215906Y0138532D01*
X0216401Y0138036D01*
X0216401Y0137046D01*
X0215410Y0136055D01*
X0214420Y0136055D01*
X0213146Y0134781D02*
X0213146Y0133790D01*
X0212155Y0132799D01*
X0211164Y0132799D01*
X0209183Y0134781D01*
X0209183Y0135772D01*
X0210173Y0136763D01*
X0211164Y0136763D01*
X0213429Y0140018D02*
X0214420Y0140018D01*
X0216918Y0133507D02*
X0215927Y0132516D01*
X0215927Y0131526D01*
X0216918Y0133507D02*
X0217909Y0133507D01*
X0218404Y0133012D01*
X0218404Y0129049D01*
X0220386Y0131030D01*
X0220407Y0126996D02*
X0221398Y0126996D01*
X0222389Y0126005D01*
X0222389Y0125015D01*
X0220902Y0123528D01*
X0221893Y0122538D02*
X0218921Y0125510D01*
X0220407Y0126996D01*
X0217626Y0127279D02*
X0215644Y0125298D01*
X0217152Y0123741D02*
X0216161Y0122750D01*
X0216161Y0121759D01*
X0218142Y0119778D01*
X0219133Y0119778D01*
X0220124Y0120768D01*
X0220124Y0121759D01*
X0219133Y0122750D01*
X0218142Y0121759D01*
X0218142Y0123741D02*
X0217152Y0123741D01*
X0210881Y0130535D02*
X0208900Y0128553D01*
X0196140Y0126784D02*
X0195149Y0125793D01*
X0195644Y0126289D02*
X0192672Y0129261D01*
X0192176Y0128766D02*
X0193167Y0129756D01*
X0191398Y0126996D02*
X0192389Y0126005D01*
X0192389Y0125015D01*
X0190902Y0123528D01*
X0191893Y0122538D02*
X0188921Y0125510D01*
X0190407Y0126996D01*
X0191398Y0126996D01*
X0188142Y0123741D02*
X0187152Y0123741D01*
X0186161Y0122750D01*
X0186161Y0121759D01*
X0186656Y0121264D01*
X0187647Y0121264D01*
X0188638Y0122255D01*
X0189629Y0122255D01*
X0190124Y0121759D01*
X0190124Y0120768D01*
X0189133Y0119778D01*
X0188142Y0119778D01*
X0192556Y0133200D02*
X0189584Y0136173D01*
X0225927Y0132516D02*
X0226918Y0133507D01*
X0227909Y0133507D01*
X0228404Y0133012D01*
X0228404Y0132021D01*
X0229395Y0132021D01*
X0229890Y0131526D01*
X0229890Y0130535D01*
X0228900Y0129544D01*
X0227909Y0129544D01*
X0227909Y0131526D02*
X0228404Y0132021D01*
X0225927Y0131526D02*
X0225927Y0132516D01*
X0227626Y0127279D02*
X0225644Y0125298D01*
X0227647Y0124236D02*
X0230619Y0121264D01*
X0231893Y0122538D02*
X0231893Y0126501D01*
X0231398Y0126996D01*
X0230407Y0126996D01*
X0229416Y0126005D01*
X0229416Y0125015D01*
X0227647Y0124236D02*
X0227647Y0122255D01*
X0225665Y0122255D01*
X0228638Y0119282D01*
X0231893Y0122538D02*
X0233875Y0124519D01*
X0235644Y0125298D02*
X0237626Y0127279D01*
X0237909Y0129544D02*
X0238900Y0129544D01*
X0239890Y0130535D01*
X0239890Y0131526D01*
X0239395Y0132021D01*
X0238404Y0132021D01*
X0237413Y0131030D01*
X0236423Y0131030D01*
X0235927Y0131526D01*
X0235927Y0132516D01*
X0236918Y0133507D01*
X0237909Y0133507D01*
X0238687Y0135276D02*
X0240669Y0137258D01*
X0239678Y0136267D02*
X0242650Y0133295D01*
X0244915Y0135560D02*
X0241943Y0138532D01*
X0243924Y0140513D01*
X0245198Y0141787D02*
X0246684Y0143274D01*
X0247675Y0143274D01*
X0248666Y0142283D01*
X0248666Y0141292D01*
X0247180Y0139806D01*
X0248171Y0138815D02*
X0245198Y0141787D01*
X0244420Y0138037D02*
X0243429Y0137046D01*
X0244915Y0135560D02*
X0246897Y0137541D01*
X0259416Y0126005D02*
X0259416Y0125015D01*
X0259416Y0126005D02*
X0260407Y0126996D01*
X0261398Y0126996D01*
X0261893Y0126501D01*
X0261893Y0122538D01*
X0263875Y0124519D01*
X0265644Y0125298D02*
X0267626Y0127279D01*
X0268404Y0129049D02*
X0269890Y0130535D01*
X0269890Y0131526D01*
X0267909Y0133507D01*
X0266918Y0133507D01*
X0265432Y0132021D01*
X0268404Y0129049D01*
X0271660Y0132304D02*
X0272650Y0133295D01*
X0272155Y0132799D02*
X0269183Y0135772D01*
X0269678Y0136267D02*
X0268687Y0135276D01*
X0270858Y0137447D02*
X0272344Y0138933D01*
X0273335Y0138933D01*
X0274325Y0137942D01*
X0274325Y0136951D01*
X0272839Y0135465D01*
X0273830Y0134474D02*
X0270858Y0137447D01*
X0273830Y0136456D02*
X0275812Y0136456D01*
X0260619Y0121264D02*
X0257647Y0124236D01*
X0257647Y0122255D01*
X0255665Y0122255D01*
X0258638Y0119282D01*
X0271640Y0228900D02*
X0270939Y0229601D01*
X0271640Y0228900D02*
X0273041Y0228900D01*
X0273742Y0229601D01*
X0273742Y0230301D01*
X0273041Y0231002D01*
X0271640Y0231002D01*
X0270939Y0231702D01*
X0270939Y0232403D01*
X0271640Y0233104D01*
X0273041Y0233104D01*
X0273742Y0232403D01*
X0275543Y0233104D02*
X0275543Y0228900D01*
X0278346Y0228900D01*
X0280147Y0228900D02*
X0280147Y0233104D01*
X0282249Y0233104D01*
X0282950Y0232403D01*
X0282950Y0231002D01*
X0282249Y0230301D01*
X0280147Y0230301D01*
X0281548Y0230301D02*
X0282950Y0228900D01*
X0284751Y0230301D02*
X0286152Y0228900D01*
X0287554Y0230301D01*
X0287554Y0233104D01*
X0289355Y0232403D02*
X0289355Y0229601D01*
X0290056Y0228900D01*
X0291457Y0228900D01*
X0292157Y0229601D01*
X0292157Y0232403D01*
X0291457Y0233104D01*
X0290056Y0233104D01*
X0289355Y0232403D01*
X0284751Y0233104D02*
X0284751Y0230301D01*
X0278346Y0233104D02*
X0275543Y0233104D01*
X0275543Y0231002D02*
X0276945Y0231002D01*
D13*
X0044307Y0124228D02*
X0043126Y0124228D01*
X0039583Y0120685D01*
X0034465Y0120685D01*
X0043913Y0117142D02*
X0044701Y0117142D01*
X0043913Y0117142D02*
X0037220Y0110449D01*
X0034465Y0110449D01*
X0043913Y0109268D02*
X0043913Y0105724D01*
X0038795Y0100606D01*
X0034858Y0100606D01*
X0042339Y0100213D02*
X0042339Y0093126D01*
X0039583Y0090370D01*
X0034465Y0090370D01*
X0042339Y0100213D02*
X0044307Y0102181D01*
X0043913Y0109268D02*
X0044701Y0110055D01*
D14*
X0050213Y0091551D02*
X0050213Y0046669D01*
X0119110Y0046669D01*
X0119110Y0091551D01*
X0050213Y0091551D01*
X0066551Y0098854D02*
X0066551Y0115744D01*
X0066748Y0115764D02*
X0067929Y0115764D01*
X0068866Y0108799D02*
X0074866Y0108799D01*
X0071866Y0105299D01*
X0068866Y0108799D01*
X0068970Y0108678D02*
X0074763Y0108678D01*
X0074335Y0108180D02*
X0069397Y0108180D01*
X0069824Y0107681D02*
X0073908Y0107681D01*
X0073481Y0107183D02*
X0070252Y0107183D01*
X0070679Y0106684D02*
X0073053Y0106684D01*
X0072626Y0106186D02*
X0071106Y0106186D01*
X0071533Y0105687D02*
X0072199Y0105687D01*
X0075803Y0098835D02*
X0076984Y0098835D01*
X0077181Y0098854D02*
X0077181Y0115744D01*
X0076984Y0115764D02*
X0075803Y0115764D01*
X0078116Y0131358D02*
X0065616Y0131358D01*
X0065616Y0138358D01*
X0078116Y0138358D01*
X0078116Y0131358D01*
X0072616Y0134858D02*
X0071116Y0136858D01*
X0072366Y0134608D01*
X0071116Y0135858D01*
X0072116Y0134358D01*
X0071116Y0134858D01*
X0071866Y0133858D01*
X0071116Y0133858D01*
X0071116Y0132858D01*
X0071866Y0133858D01*
X0072616Y0134858D01*
X0071116Y0134858D02*
X0071116Y0133858D01*
X0071116Y0134858D02*
X0071116Y0135858D01*
X0071116Y0136858D01*
X0069366Y0141169D02*
X0074366Y0141169D01*
X0074366Y0152169D01*
X0069366Y0152169D01*
X0069366Y0141169D01*
X0089051Y0141169D02*
X0089051Y0152169D01*
X0094051Y0152169D01*
X0094051Y0141169D01*
X0089051Y0141169D01*
X0091945Y0117732D02*
X0308087Y0117732D01*
X0308087Y0062811D01*
X0095291Y0062811D01*
X0110173Y0072614D02*
X0060173Y0072614D01*
X0065173Y0067614D01*
X0060173Y0072614D02*
X0065173Y0077614D01*
X0066748Y0098835D02*
X0067929Y0098835D01*
X0091945Y0117732D02*
X0091945Y0007890D01*
X0308087Y0007890D01*
X0308087Y0062811D01*
X0230909Y0081177D02*
X0230909Y0086177D01*
X0219909Y0086177D01*
X0219909Y0081177D01*
X0230909Y0081177D01*
X0197850Y0099425D02*
X0197850Y0028559D01*
X0123047Y0028559D01*
X0123047Y0099425D01*
X0197850Y0099425D01*
X0163980Y0066492D02*
X0163980Y0061492D01*
X0152980Y0061492D01*
X0152980Y0066492D01*
X0163980Y0066492D01*
X0163980Y0058618D02*
X0163980Y0053618D01*
X0152980Y0053618D01*
X0152980Y0058618D01*
X0163980Y0058618D01*
X0164917Y0049807D02*
X0159917Y0049807D01*
X0159917Y0038807D01*
X0164917Y0038807D01*
X0164917Y0049807D01*
X0171728Y0050057D02*
X0171728Y0047057D01*
X0171728Y0050057D02*
X0175228Y0050057D01*
X0176728Y0045057D02*
X0176728Y0043557D01*
X0171728Y0041557D02*
X0171728Y0038557D01*
X0175228Y0038557D01*
X0157043Y0038807D02*
X0152043Y0038807D01*
X0152043Y0049807D01*
X0157043Y0049807D01*
X0157043Y0038807D01*
X0145232Y0043557D02*
X0145232Y0045057D01*
X0143732Y0050057D02*
X0140232Y0050057D01*
X0140232Y0047057D01*
X0140232Y0041557D02*
X0140232Y0038557D01*
X0143732Y0038557D01*
X0123047Y0028559D02*
X0095488Y0028559D01*
X0095488Y0099425D01*
X0123047Y0099425D01*
X0117673Y0141169D02*
X0112673Y0141169D01*
X0112673Y0152169D01*
X0117673Y0152169D01*
X0117673Y0141169D01*
X0159673Y0183539D02*
X0159673Y0188539D01*
X0170673Y0188539D01*
X0170673Y0183539D01*
X0159673Y0183539D01*
X0195350Y0152169D02*
X0200350Y0152169D01*
X0200350Y0141169D01*
X0195350Y0141169D01*
X0195350Y0152169D01*
X0218972Y0152169D02*
X0218972Y0141169D01*
X0223972Y0141169D01*
X0223972Y0152169D01*
X0218972Y0152169D01*
X0172791Y0231720D02*
X0167791Y0231720D01*
X0167791Y0242720D01*
X0172791Y0242720D01*
X0172791Y0231720D01*
X0160980Y0231720D02*
X0155980Y0231720D01*
X0155980Y0242720D01*
X0160980Y0242720D01*
X0160980Y0231720D01*
X0160793Y0245531D02*
X0148293Y0245531D01*
X0148293Y0252531D01*
X0160793Y0252531D01*
X0160793Y0245531D01*
X0155293Y0249031D02*
X0153793Y0251031D01*
X0155043Y0248781D01*
X0153793Y0250031D01*
X0154793Y0248531D01*
X0153793Y0249031D01*
X0154543Y0248031D01*
X0153793Y0248031D01*
X0153793Y0247031D01*
X0154543Y0248031D01*
X0155293Y0249031D01*
X0153793Y0249031D02*
X0153793Y0248031D01*
X0153793Y0249031D02*
X0153793Y0250031D01*
X0153793Y0251031D01*
X0141108Y0252531D02*
X0141108Y0245531D01*
X0128608Y0245531D01*
X0128608Y0252531D01*
X0141108Y0252531D01*
X0135608Y0249031D02*
X0134108Y0251031D01*
X0135358Y0248781D01*
X0134108Y0250031D01*
X0135108Y0248531D01*
X0134108Y0249031D01*
X0134858Y0248031D01*
X0134108Y0248031D01*
X0134108Y0247031D01*
X0134858Y0248031D01*
X0135608Y0249031D01*
X0134108Y0249031D02*
X0134108Y0248031D01*
X0134108Y0249031D02*
X0134108Y0250031D01*
X0134108Y0251031D01*
X0136295Y0242720D02*
X0141295Y0242720D01*
X0141295Y0231720D01*
X0136295Y0231720D01*
X0136295Y0242720D01*
X0121423Y0245531D02*
X0108923Y0245531D01*
X0108923Y0252531D01*
X0121423Y0252531D01*
X0121423Y0245531D01*
X0115923Y0249031D02*
X0114423Y0251031D01*
X0115673Y0248781D01*
X0114423Y0250031D01*
X0115423Y0248531D01*
X0114423Y0249031D01*
X0115173Y0248031D01*
X0114423Y0248031D01*
X0114423Y0247031D01*
X0115173Y0248031D01*
X0115923Y0249031D01*
X0114423Y0249031D02*
X0114423Y0248031D01*
X0114423Y0249031D02*
X0114423Y0250031D01*
X0114423Y0251031D01*
X0113736Y0242720D02*
X0108736Y0242720D01*
X0108736Y0231720D01*
X0113736Y0231720D01*
X0113736Y0242720D01*
X0167978Y0245531D02*
X0167978Y0252531D01*
X0180478Y0252531D01*
X0180478Y0245531D01*
X0167978Y0245531D01*
X0173478Y0247031D02*
X0173478Y0248031D01*
X0174228Y0248031D01*
X0173478Y0249031D01*
X0174478Y0248531D01*
X0173478Y0250031D01*
X0174728Y0248781D01*
X0173478Y0251031D01*
X0174978Y0249031D01*
X0174228Y0248031D01*
X0173478Y0247031D01*
X0173478Y0248031D02*
X0173478Y0249031D01*
X0173478Y0250031D01*
X0173478Y0251031D01*
X0069492Y0188539D02*
X0069492Y0183539D01*
X0058492Y0183539D01*
X0058492Y0188539D01*
X0069492Y0188539D01*
X0049244Y0196037D02*
X0045744Y0196037D01*
X0045744Y0199037D01*
X0050744Y0201037D02*
X0050744Y0202537D01*
X0045744Y0204537D02*
X0045744Y0207537D01*
X0049244Y0207537D01*
X0038933Y0207287D02*
X0033933Y0207287D01*
X0033933Y0196287D01*
X0038933Y0196287D01*
X0038933Y0207287D01*
X0037996Y0211098D02*
X0037996Y0216098D01*
X0026996Y0216098D01*
X0026996Y0211098D01*
X0037996Y0211098D01*
X0037996Y0218972D02*
X0026996Y0218972D01*
X0026996Y0223972D01*
X0037996Y0223972D01*
X0037996Y0218972D01*
X0031059Y0207287D02*
X0026059Y0207287D01*
X0026059Y0196287D01*
X0031059Y0196287D01*
X0031059Y0207287D01*
X0019248Y0202537D02*
X0019248Y0201037D01*
X0017748Y0196037D02*
X0014248Y0196037D01*
X0014248Y0199037D01*
X0014248Y0204537D02*
X0014248Y0207537D01*
X0017748Y0207537D01*
X0023059Y0050744D02*
X0023059Y0045744D01*
X0034059Y0045744D01*
X0034059Y0050744D01*
X0023059Y0050744D01*
X0100862Y0041933D02*
X0100862Y0030933D01*
X0105862Y0030933D01*
X0105862Y0041933D01*
X0100862Y0041933D01*
D15*
X0147241Y0042298D02*
X0147758Y0042298D01*
X0149826Y0040230D01*
X0150343Y0040230D01*
X0150343Y0039076D02*
X0149309Y0038041D01*
X0149309Y0038558D02*
X0149309Y0037007D01*
X0150343Y0037007D02*
X0147241Y0037007D01*
X0147241Y0038558D01*
X0147758Y0039076D01*
X0148792Y0039076D01*
X0149309Y0038558D01*
X0147241Y0040230D02*
X0147241Y0042298D01*
X0159735Y0056692D02*
X0159735Y0059795D01*
X0161286Y0059795D01*
X0161803Y0059278D01*
X0161803Y0058243D01*
X0161286Y0057726D01*
X0159735Y0057726D01*
X0160769Y0057726D02*
X0161803Y0056692D01*
X0162958Y0057209D02*
X0163475Y0056692D01*
X0164509Y0056692D01*
X0165026Y0057209D01*
X0165026Y0057726D01*
X0164509Y0058243D01*
X0162958Y0058243D01*
X0162958Y0057209D01*
X0162958Y0058243D02*
X0163992Y0059278D01*
X0165026Y0059795D01*
X0159694Y0061869D02*
X0157626Y0061869D01*
X0159177Y0063421D01*
X0159177Y0060318D01*
X0156471Y0060318D02*
X0154403Y0060318D01*
X0155437Y0060318D02*
X0155437Y0063421D01*
X0154403Y0062387D01*
X0153249Y0062904D02*
X0153249Y0061869D01*
X0152732Y0061352D01*
X0151180Y0061352D01*
X0151180Y0060318D02*
X0151180Y0063421D01*
X0152732Y0063421D01*
X0153249Y0062904D01*
X0152215Y0061352D02*
X0153249Y0060318D01*
X0166615Y0050853D02*
X0166615Y0048784D01*
X0168166Y0048784D01*
X0167649Y0049819D01*
X0167649Y0050336D01*
X0168166Y0050853D01*
X0169200Y0050853D01*
X0169717Y0050336D01*
X0169717Y0049301D01*
X0169200Y0048784D01*
X0169717Y0047630D02*
X0169717Y0045562D01*
X0169717Y0046596D02*
X0166615Y0046596D01*
X0167649Y0045562D01*
X0168166Y0044407D02*
X0168683Y0043890D01*
X0168683Y0042339D01*
X0168683Y0043373D02*
X0169717Y0044407D01*
X0168166Y0044407D02*
X0167132Y0044407D01*
X0166615Y0043890D01*
X0166615Y0042339D01*
X0169717Y0042339D01*
X0191748Y0074251D02*
X0192782Y0074251D01*
X0193299Y0074768D01*
X0194454Y0075802D02*
X0196522Y0075802D01*
X0196005Y0074251D02*
X0196005Y0077354D01*
X0194454Y0075802D01*
X0193299Y0076837D02*
X0192782Y0077354D01*
X0191748Y0077354D01*
X0191231Y0076837D01*
X0191231Y0074768D01*
X0191748Y0074251D01*
X0192616Y0139369D02*
X0192616Y0140921D01*
X0192099Y0141438D01*
X0191065Y0141438D01*
X0190548Y0140921D01*
X0190548Y0139369D01*
X0193650Y0139369D01*
X0192616Y0140404D02*
X0193650Y0141438D01*
X0193650Y0142592D02*
X0193650Y0144660D01*
X0193650Y0143626D02*
X0190548Y0143626D01*
X0191582Y0142592D01*
X0214170Y0143109D02*
X0214687Y0142592D01*
X0214170Y0143109D02*
X0214170Y0144143D01*
X0214687Y0144660D01*
X0215204Y0144660D01*
X0217272Y0142592D01*
X0217272Y0144660D01*
X0217272Y0141438D02*
X0216238Y0140404D01*
X0216238Y0140921D02*
X0216238Y0139369D01*
X0217272Y0139369D02*
X0214170Y0139369D01*
X0214170Y0140921D01*
X0214687Y0141438D01*
X0215721Y0141438D01*
X0216238Y0140921D01*
X0204396Y0168739D02*
X0202328Y0168739D01*
X0204396Y0170808D01*
X0204396Y0171325D01*
X0203879Y0171842D01*
X0202845Y0171842D01*
X0202328Y0171325D01*
X0201173Y0171325D02*
X0200656Y0171842D01*
X0199622Y0171842D01*
X0199105Y0171325D01*
X0199105Y0169256D01*
X0199622Y0168739D01*
X0200656Y0168739D01*
X0201173Y0169256D01*
X0165664Y0189739D02*
X0163596Y0189739D01*
X0164630Y0189739D02*
X0164630Y0192842D01*
X0163596Y0191808D01*
X0162442Y0192325D02*
X0161925Y0192842D01*
X0160890Y0192842D01*
X0160373Y0192325D01*
X0160373Y0190256D01*
X0160890Y0189739D01*
X0161925Y0189739D01*
X0162442Y0190256D01*
X0162989Y0229920D02*
X0162989Y0231472D01*
X0163506Y0231989D01*
X0164540Y0231989D01*
X0165057Y0231472D01*
X0165057Y0229920D01*
X0166091Y0229920D02*
X0162989Y0229920D01*
X0165057Y0230955D02*
X0166091Y0231989D01*
X0166091Y0233143D02*
X0166091Y0235212D01*
X0165780Y0235252D02*
X0162678Y0235252D01*
X0162678Y0236804D01*
X0163195Y0237321D01*
X0164229Y0237321D01*
X0164746Y0236804D01*
X0164746Y0235252D01*
X0164746Y0236286D02*
X0165780Y0237321D01*
X0166091Y0236883D02*
X0165574Y0236366D01*
X0165057Y0236366D01*
X0164540Y0236883D01*
X0164540Y0237917D01*
X0165057Y0238434D01*
X0165574Y0238434D01*
X0166091Y0237917D01*
X0166091Y0236883D01*
X0164540Y0236883D02*
X0164023Y0236366D01*
X0163506Y0236366D01*
X0162989Y0236883D01*
X0162989Y0237917D01*
X0163506Y0238434D01*
X0164023Y0238434D01*
X0164540Y0237917D01*
X0163712Y0238475D02*
X0162678Y0239509D01*
X0165780Y0239509D01*
X0165780Y0238475D02*
X0165780Y0240543D01*
X0165263Y0241698D02*
X0165780Y0242215D01*
X0165780Y0243249D01*
X0165263Y0243766D01*
X0164746Y0243766D01*
X0164229Y0243249D01*
X0164229Y0241698D01*
X0165263Y0241698D01*
X0164229Y0241698D02*
X0163195Y0242732D01*
X0162678Y0243766D01*
X0162989Y0234177D02*
X0166091Y0234177D01*
X0164023Y0233143D02*
X0162989Y0234177D01*
X0146095Y0235252D02*
X0142993Y0235252D01*
X0142993Y0236804D01*
X0143510Y0237321D01*
X0144544Y0237321D01*
X0145061Y0236804D01*
X0145061Y0235252D01*
X0145061Y0236286D02*
X0146095Y0237321D01*
X0146095Y0238475D02*
X0146095Y0240543D01*
X0146095Y0239509D02*
X0142993Y0239509D01*
X0144027Y0238475D01*
X0142993Y0241698D02*
X0142993Y0243766D01*
X0143510Y0243766D01*
X0145578Y0241698D01*
X0146095Y0241698D01*
X0148278Y0253731D02*
X0148278Y0256834D01*
X0149312Y0256834D02*
X0147243Y0256834D01*
X0150466Y0256834D02*
X0152534Y0253731D01*
X0150466Y0253731D02*
X0152534Y0256834D01*
X0166928Y0256834D02*
X0166928Y0253731D01*
X0168997Y0253731D02*
X0168997Y0256834D01*
X0167963Y0255800D01*
X0166928Y0256834D01*
X0170151Y0255800D02*
X0171185Y0256834D01*
X0171185Y0253731D01*
X0170151Y0253731D02*
X0172220Y0253731D01*
X0173374Y0253214D02*
X0175442Y0253214D01*
X0176597Y0254249D02*
X0177114Y0253731D01*
X0178148Y0253731D01*
X0178665Y0254249D01*
X0178665Y0254766D01*
X0178148Y0255283D01*
X0177114Y0255283D01*
X0176597Y0255800D01*
X0176597Y0256317D01*
X0177114Y0256834D01*
X0178148Y0256834D01*
X0178665Y0256317D01*
X0179819Y0256834D02*
X0181888Y0256834D01*
X0180854Y0256834D02*
X0180854Y0253731D01*
X0183042Y0253731D02*
X0185111Y0253731D01*
X0186265Y0253731D02*
X0186265Y0256834D01*
X0187816Y0256834D01*
X0188333Y0256317D01*
X0188333Y0255283D01*
X0187816Y0254766D01*
X0186265Y0254766D01*
X0184076Y0255283D02*
X0183042Y0255283D01*
X0183042Y0256834D02*
X0183042Y0253731D01*
X0183042Y0256834D02*
X0185111Y0256834D01*
X0132849Y0256834D02*
X0130781Y0253731D01*
X0129627Y0253731D02*
X0128592Y0254766D01*
X0128761Y0254766D02*
X0127210Y0254766D01*
X0127558Y0254766D02*
X0129110Y0254766D01*
X0129627Y0255283D01*
X0129627Y0256317D01*
X0129110Y0256834D01*
X0127558Y0256834D01*
X0127558Y0253731D01*
X0127210Y0253731D02*
X0127210Y0256834D01*
X0128761Y0256834D01*
X0129278Y0256317D01*
X0129278Y0255283D01*
X0128761Y0254766D01*
X0130781Y0256834D02*
X0132849Y0253731D01*
X0126055Y0253731D02*
X0123987Y0253731D01*
X0123987Y0256834D01*
X0126055Y0256834D01*
X0125021Y0255283D02*
X0123987Y0255283D01*
X0122833Y0256834D02*
X0120764Y0256834D01*
X0121798Y0256834D02*
X0121798Y0253731D01*
X0119610Y0254249D02*
X0119093Y0253731D01*
X0118059Y0253731D01*
X0117541Y0254249D01*
X0118059Y0255283D02*
X0119093Y0255283D01*
X0119610Y0254766D01*
X0119610Y0254249D01*
X0118059Y0255283D02*
X0117541Y0255800D01*
X0117541Y0256317D01*
X0118059Y0256834D01*
X0119093Y0256834D01*
X0119610Y0256317D01*
X0116387Y0253214D02*
X0114319Y0253214D01*
X0113164Y0253731D02*
X0111096Y0253731D01*
X0113164Y0255800D01*
X0113164Y0256317D01*
X0112647Y0256834D01*
X0111613Y0256834D01*
X0111096Y0256317D01*
X0109942Y0256834D02*
X0109942Y0253731D01*
X0107873Y0253731D02*
X0107873Y0256834D01*
X0108907Y0255800D01*
X0109942Y0256834D01*
X0106519Y0238434D02*
X0104451Y0238434D01*
X0103934Y0237917D01*
X0103934Y0236883D01*
X0104451Y0236366D01*
X0104968Y0236366D01*
X0105485Y0236883D01*
X0105485Y0238434D01*
X0106519Y0238434D02*
X0107036Y0237917D01*
X0107036Y0236883D01*
X0106519Y0236366D01*
X0107036Y0235212D02*
X0107036Y0233143D01*
X0107036Y0234177D02*
X0103934Y0234177D01*
X0104968Y0233143D01*
X0105485Y0231989D02*
X0106002Y0231472D01*
X0106002Y0229920D01*
X0107036Y0229920D02*
X0103934Y0229920D01*
X0103934Y0231472D01*
X0104451Y0231989D01*
X0105485Y0231989D01*
X0106002Y0230955D02*
X0107036Y0231989D01*
X0068038Y0182342D02*
X0065969Y0182342D01*
X0064815Y0181825D02*
X0064298Y0182342D01*
X0063264Y0182342D01*
X0062747Y0181825D01*
X0062747Y0179756D01*
X0063264Y0179239D01*
X0064298Y0179239D01*
X0064815Y0179756D01*
X0065969Y0179756D02*
X0065969Y0179239D01*
X0065969Y0179756D02*
X0068038Y0181825D01*
X0068038Y0182342D01*
X0092806Y0171325D02*
X0092806Y0169256D01*
X0093323Y0168739D01*
X0094357Y0168739D01*
X0094874Y0169256D01*
X0096028Y0169256D02*
X0096028Y0169774D01*
X0096546Y0170291D01*
X0097580Y0170291D01*
X0098097Y0169774D01*
X0098097Y0169256D01*
X0097580Y0168739D01*
X0096546Y0168739D01*
X0096028Y0169256D01*
X0096546Y0170291D02*
X0096028Y0170808D01*
X0096028Y0171325D01*
X0096546Y0171842D01*
X0097580Y0171842D01*
X0098097Y0171325D01*
X0098097Y0170808D01*
X0097580Y0170291D01*
X0094874Y0171325D02*
X0094357Y0171842D01*
X0093323Y0171842D01*
X0092806Y0171325D01*
X0079166Y0152698D02*
X0076063Y0152698D01*
X0077615Y0151147D01*
X0077615Y0153215D01*
X0077615Y0149992D02*
X0076581Y0149992D01*
X0076063Y0149475D01*
X0076063Y0147924D01*
X0079166Y0147924D01*
X0078132Y0147924D02*
X0078132Y0149475D01*
X0077615Y0149992D01*
X0078132Y0148958D02*
X0079166Y0149992D01*
X0084766Y0144660D02*
X0085283Y0144660D01*
X0085800Y0144143D01*
X0085800Y0143109D01*
X0085283Y0142592D01*
X0084766Y0142592D01*
X0084249Y0143109D01*
X0084249Y0144143D01*
X0084766Y0144660D01*
X0085800Y0144143D02*
X0086317Y0144660D01*
X0086834Y0144660D01*
X0087351Y0144143D01*
X0087351Y0143109D01*
X0086834Y0142592D01*
X0086317Y0142592D01*
X0085800Y0143109D01*
X0085800Y0141438D02*
X0086317Y0140921D01*
X0086317Y0139369D01*
X0087351Y0139369D02*
X0084249Y0139369D01*
X0084249Y0140921D01*
X0084766Y0141438D01*
X0085800Y0141438D01*
X0086317Y0140404D02*
X0087351Y0141438D01*
X0073080Y0141110D02*
X0072563Y0140592D01*
X0071012Y0140592D01*
X0071012Y0139558D02*
X0071012Y0142661D01*
X0072563Y0142661D01*
X0073080Y0142144D01*
X0073080Y0141110D01*
X0072046Y0140592D02*
X0073080Y0139558D01*
X0069857Y0139558D02*
X0069857Y0142661D01*
X0067789Y0142661D02*
X0067789Y0139558D01*
X0068823Y0140592D01*
X0069857Y0139558D01*
X0066635Y0141110D02*
X0066117Y0140592D01*
X0064566Y0140592D01*
X0064566Y0139558D02*
X0064566Y0142661D01*
X0066117Y0142661D01*
X0066635Y0142144D01*
X0066635Y0141110D01*
X0065166Y0113845D02*
X0063098Y0113845D01*
X0062063Y0112811D01*
X0063098Y0111776D01*
X0065166Y0111776D01*
X0065166Y0110622D02*
X0065166Y0108554D01*
X0065166Y0109588D02*
X0062063Y0109588D01*
X0063098Y0108554D01*
X0063615Y0107399D02*
X0063615Y0105331D01*
X0064132Y0104177D02*
X0062063Y0104177D01*
X0062063Y0102108D02*
X0064132Y0102108D01*
X0065166Y0103142D01*
X0064132Y0104177D01*
X0064649Y0100954D02*
X0062581Y0100954D01*
X0064649Y0098885D01*
X0065166Y0099403D01*
X0065166Y0100437D01*
X0064649Y0100954D01*
X0062581Y0100954D02*
X0062063Y0100437D01*
X0062063Y0099403D01*
X0062581Y0098885D01*
X0064649Y0098885D01*
X0063615Y0097731D02*
X0063615Y0095663D01*
X0062063Y0097214D01*
X0065166Y0097214D01*
X0078563Y0108554D02*
X0078563Y0110105D01*
X0079081Y0110622D01*
X0081149Y0110622D01*
X0081666Y0110105D01*
X0081666Y0108554D01*
X0078563Y0108554D01*
X0079081Y0111776D02*
X0078563Y0112294D01*
X0078563Y0113328D01*
X0079081Y0113845D01*
X0079598Y0113845D01*
X0080115Y0113328D01*
X0080632Y0113845D01*
X0081149Y0113845D01*
X0081666Y0113328D01*
X0081666Y0112294D01*
X0081149Y0111776D01*
X0080115Y0112811D02*
X0080115Y0113328D01*
X0063615Y0113845D02*
X0063615Y0111776D01*
X0107871Y0139369D02*
X0107871Y0140921D01*
X0108388Y0141438D01*
X0109422Y0141438D01*
X0109939Y0140921D01*
X0109939Y0139369D01*
X0110973Y0139369D02*
X0107871Y0139369D01*
X0109939Y0140404D02*
X0110973Y0141438D01*
X0110456Y0142592D02*
X0110973Y0143109D01*
X0110973Y0144143D01*
X0110456Y0144660D01*
X0108388Y0144660D01*
X0107871Y0144143D01*
X0107871Y0143109D01*
X0108388Y0142592D01*
X0108905Y0142592D01*
X0109422Y0143109D01*
X0109422Y0144660D01*
X0035859Y0199819D02*
X0032756Y0199819D01*
X0032756Y0201370D01*
X0033274Y0201888D01*
X0034308Y0201888D01*
X0034825Y0201370D01*
X0034825Y0199819D01*
X0034825Y0200853D02*
X0035859Y0201888D01*
X0035859Y0203042D02*
X0035859Y0205110D01*
X0035859Y0204076D02*
X0032756Y0204076D01*
X0033791Y0203042D01*
X0032233Y0203001D02*
X0032233Y0200933D01*
X0032233Y0201967D02*
X0029130Y0201967D01*
X0030165Y0200933D01*
X0032233Y0199779D02*
X0032233Y0197710D01*
X0032233Y0198744D02*
X0029130Y0198744D01*
X0030165Y0197710D01*
X0030682Y0196556D02*
X0031199Y0196039D01*
X0031199Y0194487D01*
X0032233Y0194487D02*
X0029130Y0194487D01*
X0029130Y0196039D01*
X0029648Y0196556D01*
X0030682Y0196556D01*
X0031199Y0195522D02*
X0032233Y0196556D01*
X0033274Y0206265D02*
X0032756Y0206782D01*
X0032756Y0207816D01*
X0033274Y0208333D01*
X0033791Y0208333D01*
X0035859Y0206265D01*
X0035859Y0208333D01*
X0035819Y0214172D02*
X0033751Y0214172D01*
X0034785Y0214172D02*
X0034785Y0217275D01*
X0033751Y0216241D01*
X0032596Y0216758D02*
X0032596Y0215724D01*
X0032079Y0215207D01*
X0030528Y0215207D01*
X0031562Y0215207D02*
X0032596Y0214172D01*
X0030528Y0214172D02*
X0030528Y0217275D01*
X0032079Y0217275D01*
X0032596Y0216758D01*
X0032159Y0217798D02*
X0031642Y0218316D01*
X0033710Y0220384D01*
X0033710Y0218316D01*
X0033193Y0217798D01*
X0032159Y0217798D01*
X0031642Y0218316D02*
X0031642Y0220384D01*
X0032159Y0220901D01*
X0033193Y0220901D01*
X0033710Y0220384D01*
X0030487Y0217798D02*
X0028419Y0217798D01*
X0029453Y0217798D02*
X0029453Y0220901D01*
X0028419Y0219867D01*
X0027264Y0220384D02*
X0027264Y0219350D01*
X0026747Y0218833D01*
X0025196Y0218833D01*
X0026230Y0218833D02*
X0027264Y0217798D01*
X0025196Y0217798D02*
X0025196Y0220901D01*
X0026747Y0220901D01*
X0027264Y0220384D01*
X0036973Y0216758D02*
X0037490Y0217275D01*
X0038525Y0217275D01*
X0039042Y0216758D01*
X0039042Y0216241D01*
X0038525Y0215724D01*
X0039042Y0215207D01*
X0039042Y0214690D01*
X0038525Y0214172D01*
X0037490Y0214172D01*
X0036973Y0214690D01*
X0038008Y0215724D02*
X0038525Y0215724D01*
X0301983Y0080394D02*
X0301983Y0078859D01*
X0302751Y0078092D01*
X0303518Y0078092D01*
X0304285Y0078859D01*
X0304285Y0080394D01*
X0305053Y0081161D01*
X0305820Y0081161D01*
X0306587Y0080394D01*
X0306587Y0078859D01*
X0305820Y0078092D01*
X0306587Y0076557D02*
X0306587Y0073488D01*
X0303518Y0076557D01*
X0302751Y0076557D01*
X0301983Y0075790D01*
X0301983Y0074255D01*
X0302751Y0073488D01*
X0302751Y0071953D02*
X0303518Y0071953D01*
X0304285Y0071186D01*
X0305053Y0071953D01*
X0305820Y0071953D01*
X0306587Y0071186D01*
X0306587Y0069651D01*
X0305820Y0068884D01*
X0304285Y0067350D02*
X0304285Y0064280D01*
X0305820Y0062746D02*
X0301983Y0062746D01*
X0301983Y0059676D02*
X0305820Y0059676D01*
X0306587Y0060444D01*
X0306587Y0061978D01*
X0305820Y0062746D01*
X0305820Y0058142D02*
X0306587Y0057374D01*
X0306587Y0055840D01*
X0305820Y0055072D01*
X0302751Y0055072D01*
X0301983Y0055840D01*
X0301983Y0057374D01*
X0302751Y0058142D01*
X0301983Y0053538D02*
X0306587Y0053538D01*
X0306587Y0050468D02*
X0301983Y0050468D01*
X0303518Y0052003D01*
X0301983Y0053538D01*
X0301983Y0048934D02*
X0301983Y0045865D01*
X0306587Y0045865D01*
X0306587Y0048934D01*
X0304285Y0047399D02*
X0304285Y0045865D01*
X0302751Y0044330D02*
X0301983Y0043563D01*
X0301983Y0041261D01*
X0306587Y0041261D01*
X0306587Y0043563D01*
X0305820Y0044330D01*
X0302751Y0044330D01*
X0302751Y0039726D02*
X0301983Y0038959D01*
X0301983Y0037424D01*
X0302751Y0036657D01*
X0305820Y0036657D01*
X0306587Y0037424D01*
X0306587Y0038959D01*
X0305820Y0039726D01*
X0302751Y0039726D01*
X0301983Y0035122D02*
X0306587Y0035122D01*
X0301983Y0032053D01*
X0306587Y0032053D01*
X0302751Y0068884D02*
X0301983Y0069651D01*
X0301983Y0071186D01*
X0302751Y0071953D01*
X0304285Y0071186D02*
X0304285Y0070419D01*
X0301983Y0080394D02*
X0302751Y0081161D01*
D16*
X0255539Y0157224D02*
X0176539Y0157224D01*
X0176539Y0180724D01*
X0176679Y0180726D01*
X0176819Y0180732D01*
X0176959Y0180742D01*
X0177099Y0180755D01*
X0177238Y0180773D01*
X0177377Y0180795D01*
X0177514Y0180820D01*
X0177652Y0180849D01*
X0177788Y0180882D01*
X0177923Y0180919D01*
X0178057Y0180960D01*
X0178190Y0181005D01*
X0178322Y0181053D01*
X0178452Y0181105D01*
X0178581Y0181160D01*
X0178708Y0181219D01*
X0178834Y0181282D01*
X0178958Y0181348D01*
X0179079Y0181417D01*
X0179199Y0181490D01*
X0179317Y0181567D01*
X0179432Y0181646D01*
X0179546Y0181729D01*
X0179656Y0181815D01*
X0179765Y0181904D01*
X0179871Y0181996D01*
X0179974Y0182091D01*
X0180075Y0182188D01*
X0180172Y0182289D01*
X0180267Y0182392D01*
X0180359Y0182498D01*
X0180448Y0182607D01*
X0180534Y0182717D01*
X0180617Y0182831D01*
X0180696Y0182946D01*
X0180773Y0183064D01*
X0180846Y0183184D01*
X0180915Y0183305D01*
X0180981Y0183429D01*
X0181044Y0183555D01*
X0181103Y0183682D01*
X0181158Y0183811D01*
X0181210Y0183941D01*
X0181258Y0184073D01*
X0181303Y0184206D01*
X0181344Y0184340D01*
X0181381Y0184475D01*
X0181414Y0184611D01*
X0181443Y0184749D01*
X0181468Y0184886D01*
X0181490Y0185025D01*
X0181508Y0185164D01*
X0181521Y0185304D01*
X0181531Y0185444D01*
X0181537Y0185584D01*
X0181539Y0185724D01*
X0181537Y0185864D01*
X0181531Y0186004D01*
X0181521Y0186144D01*
X0181508Y0186284D01*
X0181490Y0186423D01*
X0181468Y0186562D01*
X0181443Y0186699D01*
X0181414Y0186837D01*
X0181381Y0186973D01*
X0181344Y0187108D01*
X0181303Y0187242D01*
X0181258Y0187375D01*
X0181210Y0187507D01*
X0181158Y0187637D01*
X0181103Y0187766D01*
X0181044Y0187893D01*
X0180981Y0188019D01*
X0180915Y0188143D01*
X0180846Y0188264D01*
X0180773Y0188384D01*
X0180696Y0188502D01*
X0180617Y0188617D01*
X0180534Y0188731D01*
X0180448Y0188841D01*
X0180359Y0188950D01*
X0180267Y0189056D01*
X0180172Y0189159D01*
X0180075Y0189260D01*
X0179974Y0189357D01*
X0179871Y0189452D01*
X0179765Y0189544D01*
X0179656Y0189633D01*
X0179546Y0189719D01*
X0179432Y0189802D01*
X0179317Y0189881D01*
X0179199Y0189958D01*
X0179079Y0190031D01*
X0178958Y0190100D01*
X0178834Y0190166D01*
X0178708Y0190229D01*
X0178581Y0190288D01*
X0178452Y0190343D01*
X0178322Y0190395D01*
X0178190Y0190443D01*
X0178057Y0190488D01*
X0177923Y0190529D01*
X0177788Y0190566D01*
X0177652Y0190599D01*
X0177514Y0190628D01*
X0177377Y0190653D01*
X0177238Y0190675D01*
X0177099Y0190693D01*
X0176959Y0190706D01*
X0176819Y0190716D01*
X0176679Y0190722D01*
X0176539Y0190724D01*
X0176539Y0214224D01*
X0255539Y0214224D01*
X0255539Y0157224D01*
X0265528Y0249406D02*
X0265528Y0259406D01*
X0275528Y0259406D01*
X0285528Y0259406D01*
X0295528Y0259406D01*
X0295528Y0249406D01*
X0285528Y0249406D01*
X0285528Y0259406D01*
X0275528Y0259406D02*
X0275528Y0249406D01*
X0285528Y0249406D01*
X0275528Y0249406D02*
X0265528Y0249406D01*
X0149240Y0214224D02*
X0149240Y0157224D01*
X0070240Y0157224D01*
X0070240Y0180724D01*
X0070380Y0180726D01*
X0070520Y0180732D01*
X0070660Y0180742D01*
X0070800Y0180755D01*
X0070939Y0180773D01*
X0071078Y0180795D01*
X0071215Y0180820D01*
X0071353Y0180849D01*
X0071489Y0180882D01*
X0071624Y0180919D01*
X0071758Y0180960D01*
X0071891Y0181005D01*
X0072023Y0181053D01*
X0072153Y0181105D01*
X0072282Y0181160D01*
X0072409Y0181219D01*
X0072535Y0181282D01*
X0072659Y0181348D01*
X0072780Y0181417D01*
X0072900Y0181490D01*
X0073018Y0181567D01*
X0073133Y0181646D01*
X0073247Y0181729D01*
X0073357Y0181815D01*
X0073466Y0181904D01*
X0073572Y0181996D01*
X0073675Y0182091D01*
X0073776Y0182188D01*
X0073873Y0182289D01*
X0073968Y0182392D01*
X0074060Y0182498D01*
X0074149Y0182607D01*
X0074235Y0182717D01*
X0074318Y0182831D01*
X0074397Y0182946D01*
X0074474Y0183064D01*
X0074547Y0183184D01*
X0074616Y0183305D01*
X0074682Y0183429D01*
X0074745Y0183555D01*
X0074804Y0183682D01*
X0074859Y0183811D01*
X0074911Y0183941D01*
X0074959Y0184073D01*
X0075004Y0184206D01*
X0075045Y0184340D01*
X0075082Y0184475D01*
X0075115Y0184611D01*
X0075144Y0184749D01*
X0075169Y0184886D01*
X0075191Y0185025D01*
X0075209Y0185164D01*
X0075222Y0185304D01*
X0075232Y0185444D01*
X0075238Y0185584D01*
X0075240Y0185724D01*
X0075238Y0185864D01*
X0075232Y0186004D01*
X0075222Y0186144D01*
X0075209Y0186284D01*
X0075191Y0186423D01*
X0075169Y0186562D01*
X0075144Y0186699D01*
X0075115Y0186837D01*
X0075082Y0186973D01*
X0075045Y0187108D01*
X0075004Y0187242D01*
X0074959Y0187375D01*
X0074911Y0187507D01*
X0074859Y0187637D01*
X0074804Y0187766D01*
X0074745Y0187893D01*
X0074682Y0188019D01*
X0074616Y0188143D01*
X0074547Y0188264D01*
X0074474Y0188384D01*
X0074397Y0188502D01*
X0074318Y0188617D01*
X0074235Y0188731D01*
X0074149Y0188841D01*
X0074060Y0188950D01*
X0073968Y0189056D01*
X0073873Y0189159D01*
X0073776Y0189260D01*
X0073675Y0189357D01*
X0073572Y0189452D01*
X0073466Y0189544D01*
X0073357Y0189633D01*
X0073247Y0189719D01*
X0073133Y0189802D01*
X0073018Y0189881D01*
X0072900Y0189958D01*
X0072780Y0190031D01*
X0072659Y0190100D01*
X0072535Y0190166D01*
X0072409Y0190229D01*
X0072282Y0190288D01*
X0072153Y0190343D01*
X0072023Y0190395D01*
X0071891Y0190443D01*
X0071758Y0190488D01*
X0071624Y0190529D01*
X0071489Y0190566D01*
X0071353Y0190599D01*
X0071215Y0190628D01*
X0071078Y0190653D01*
X0070939Y0190675D01*
X0070800Y0190693D01*
X0070660Y0190706D01*
X0070520Y0190716D01*
X0070380Y0190722D01*
X0070240Y0190724D01*
X0070240Y0214224D01*
X0149240Y0214224D01*
X0034622Y0122988D02*
X0034622Y0117988D01*
X0032122Y0115488D01*
X0017122Y0115488D01*
X0014622Y0117988D01*
X0014622Y0122988D01*
X0017122Y0125488D01*
X0032122Y0125488D01*
X0034622Y0122988D01*
X0032122Y0115488D02*
X0034622Y0112988D01*
X0034622Y0107988D01*
X0032122Y0105488D01*
X0017122Y0105488D01*
X0014622Y0107988D01*
X0014622Y0112988D01*
X0017122Y0115488D01*
X0017122Y0105488D02*
X0014622Y0102988D01*
X0014622Y0097988D01*
X0017122Y0095488D01*
X0032122Y0095488D01*
X0034622Y0097988D01*
X0034622Y0102988D01*
X0032122Y0105488D01*
X0032122Y0095488D02*
X0034622Y0092988D01*
X0034622Y0087988D01*
X0032122Y0085488D01*
X0017122Y0085488D01*
X0014622Y0087988D01*
X0014622Y0092988D01*
X0017122Y0095488D01*
X0017122Y0085488D02*
X0014622Y0082988D01*
X0014622Y0077988D01*
X0017122Y0075488D01*
X0032122Y0075488D01*
X0034622Y0077988D01*
X0034622Y0082988D01*
X0032122Y0085488D01*
X0032122Y0075488D02*
X0034622Y0072988D01*
X0034622Y0067988D01*
X0032122Y0065488D01*
X0017122Y0065488D01*
X0014622Y0067988D01*
X0014622Y0072988D01*
X0017122Y0075488D01*
D17*
X0074938Y0165824D02*
X0077140Y0165824D01*
X0077140Y0167292D01*
X0077140Y0168034D02*
X0074938Y0168034D01*
X0077140Y0169502D01*
X0074938Y0169502D01*
X0074938Y0167292D02*
X0074938Y0165824D01*
X0076039Y0165824D02*
X0076039Y0166558D01*
X0084938Y0165824D02*
X0085672Y0166558D01*
X0084938Y0167292D01*
X0087140Y0167292D01*
X0086773Y0168034D02*
X0087140Y0168401D01*
X0087140Y0169135D01*
X0086773Y0169502D01*
X0086406Y0169502D01*
X0086039Y0169135D01*
X0086039Y0168401D01*
X0085672Y0168034D01*
X0085305Y0168034D01*
X0084938Y0168401D01*
X0084938Y0169135D01*
X0085305Y0169502D01*
X0085672Y0170244D02*
X0084938Y0170978D01*
X0087140Y0170978D01*
X0087140Y0170244D02*
X0087140Y0171712D01*
X0087140Y0165824D02*
X0084938Y0165824D01*
X0094938Y0165824D02*
X0095672Y0166558D01*
X0094938Y0167292D01*
X0097140Y0167292D01*
X0096773Y0168034D02*
X0097140Y0168401D01*
X0097140Y0169135D01*
X0096773Y0169502D01*
X0096406Y0169502D01*
X0096039Y0169135D01*
X0096039Y0168401D01*
X0095672Y0168034D01*
X0095305Y0168034D01*
X0094938Y0168401D01*
X0094938Y0169135D01*
X0095305Y0169502D01*
X0095305Y0170244D02*
X0094938Y0170611D01*
X0094938Y0171345D01*
X0095305Y0171712D01*
X0095672Y0171712D01*
X0097140Y0170244D01*
X0097140Y0171712D01*
X0097140Y0165824D02*
X0094938Y0165824D01*
X0104938Y0165824D02*
X0105672Y0166558D01*
X0104938Y0167292D01*
X0107140Y0167292D01*
X0106773Y0168034D02*
X0107140Y0168401D01*
X0107140Y0169135D01*
X0106773Y0169502D01*
X0106406Y0169502D01*
X0106039Y0169135D01*
X0106039Y0168401D01*
X0105672Y0168034D01*
X0105305Y0168034D01*
X0104938Y0168401D01*
X0104938Y0169135D01*
X0105305Y0169502D01*
X0105305Y0170244D02*
X0104938Y0170611D01*
X0104938Y0171345D01*
X0105305Y0171712D01*
X0105672Y0171712D01*
X0106039Y0171345D01*
X0106406Y0171712D01*
X0106773Y0171712D01*
X0107140Y0171345D01*
X0107140Y0170611D01*
X0106773Y0170244D01*
X0106039Y0170978D02*
X0106039Y0171345D01*
X0107140Y0165824D02*
X0104938Y0165824D01*
X0114938Y0165824D02*
X0114938Y0166925D01*
X0115305Y0167292D01*
X0116039Y0167292D01*
X0116406Y0166925D01*
X0116406Y0165824D01*
X0117140Y0165824D02*
X0114938Y0165824D01*
X0116406Y0166558D02*
X0117140Y0167292D01*
X0116773Y0168034D02*
X0117140Y0168401D01*
X0117140Y0169135D01*
X0116773Y0169502D01*
X0116406Y0169502D01*
X0116039Y0169135D01*
X0116039Y0168401D01*
X0115672Y0168034D01*
X0115305Y0168034D01*
X0114938Y0168401D01*
X0114938Y0169135D01*
X0115305Y0169502D01*
X0114938Y0170244D02*
X0114938Y0171712D01*
X0114938Y0170978D02*
X0117140Y0170978D01*
X0124938Y0171345D02*
X0125305Y0171712D01*
X0126039Y0171712D01*
X0126406Y0171345D01*
X0126406Y0170244D01*
X0127140Y0170244D02*
X0124938Y0170244D01*
X0124938Y0171345D01*
X0127140Y0169502D02*
X0127140Y0168034D01*
X0124938Y0168034D01*
X0125305Y0167292D02*
X0124938Y0166925D01*
X0124938Y0166191D01*
X0125305Y0165824D01*
X0125672Y0165824D01*
X0126039Y0166191D01*
X0126039Y0166925D01*
X0126406Y0167292D01*
X0126773Y0167292D01*
X0127140Y0166925D01*
X0127140Y0166191D01*
X0126773Y0165824D01*
X0134938Y0166191D02*
X0135305Y0165824D01*
X0135672Y0165824D01*
X0136039Y0166191D01*
X0136039Y0166925D01*
X0136406Y0167292D01*
X0136773Y0167292D01*
X0137140Y0166925D01*
X0137140Y0166191D01*
X0136773Y0165824D01*
X0134938Y0166191D02*
X0134938Y0166925D01*
X0135305Y0167292D01*
X0134938Y0168034D02*
X0134938Y0169502D01*
X0134938Y0168768D02*
X0137140Y0168768D01*
X0137140Y0170244D02*
X0134938Y0170244D01*
X0134938Y0171712D01*
X0134938Y0172454D02*
X0134938Y0173555D01*
X0135305Y0173922D01*
X0136039Y0173922D01*
X0136406Y0173555D01*
X0136406Y0172454D01*
X0137140Y0172454D02*
X0134938Y0172454D01*
X0136039Y0170978D02*
X0136039Y0170244D01*
X0137140Y0170244D02*
X0137140Y0171712D01*
X0144938Y0170608D02*
X0144938Y0169508D01*
X0147140Y0169508D01*
X0146406Y0169508D02*
X0146406Y0170608D01*
X0146039Y0170975D01*
X0145305Y0170975D01*
X0144938Y0170608D01*
X0146406Y0170241D02*
X0147140Y0170975D01*
X0147140Y0168768D02*
X0147140Y0168034D01*
X0147140Y0168401D02*
X0144938Y0168401D01*
X0144938Y0168034D02*
X0144938Y0168768D01*
X0145305Y0167292D02*
X0144938Y0166925D01*
X0144938Y0165824D01*
X0147140Y0165824D01*
X0147140Y0166925D01*
X0146773Y0167292D01*
X0145305Y0167292D01*
X0144173Y0199195D02*
X0144540Y0199562D01*
X0144540Y0200296D01*
X0144173Y0200663D01*
X0143439Y0200663D01*
X0143439Y0199929D01*
X0142705Y0200663D02*
X0142338Y0200296D01*
X0142338Y0199562D01*
X0142705Y0199195D01*
X0144173Y0199195D01*
X0144540Y0201405D02*
X0142338Y0201405D01*
X0144540Y0202873D01*
X0142338Y0202873D01*
X0142338Y0203615D02*
X0142338Y0204715D01*
X0142705Y0205082D01*
X0144173Y0205082D01*
X0144540Y0204715D01*
X0144540Y0203615D01*
X0142338Y0203615D01*
X0134540Y0203615D02*
X0134540Y0204715D01*
X0134173Y0205082D01*
X0132705Y0205082D01*
X0132338Y0204715D01*
X0132338Y0203615D01*
X0134540Y0203615D01*
X0134173Y0202873D02*
X0132705Y0202873D01*
X0132338Y0202506D01*
X0132338Y0201405D01*
X0134540Y0201405D01*
X0134540Y0202506D01*
X0134173Y0202873D01*
X0133806Y0200663D02*
X0132338Y0200663D01*
X0133806Y0200663D02*
X0134540Y0199929D01*
X0133806Y0199195D01*
X0132338Y0199195D01*
X0124540Y0201405D02*
X0124540Y0202873D01*
X0124540Y0202139D02*
X0122338Y0202139D01*
X0123072Y0201405D01*
X0123439Y0203615D02*
X0123439Y0204715D01*
X0123806Y0205082D01*
X0124173Y0205082D01*
X0124540Y0204715D01*
X0124540Y0203615D01*
X0122338Y0203615D01*
X0122338Y0204715D01*
X0122705Y0205082D01*
X0123072Y0205082D01*
X0123439Y0204715D01*
X0114540Y0205082D02*
X0113072Y0205082D01*
X0112338Y0204348D01*
X0113072Y0203615D01*
X0114540Y0203615D01*
X0114540Y0202873D02*
X0114540Y0201405D01*
X0114540Y0202139D02*
X0112338Y0202139D01*
X0113072Y0201405D01*
X0113439Y0203615D02*
X0113439Y0205082D01*
X0104540Y0205082D02*
X0103072Y0205082D01*
X0102338Y0204348D01*
X0103072Y0203615D01*
X0104540Y0203615D01*
X0104540Y0202873D02*
X0104540Y0201405D01*
X0103072Y0202873D01*
X0102705Y0202873D01*
X0102338Y0202506D01*
X0102338Y0201772D01*
X0102705Y0201405D01*
X0103439Y0203615D02*
X0103439Y0205082D01*
X0094540Y0204715D02*
X0094540Y0203615D01*
X0092338Y0203615D01*
X0092338Y0204715D01*
X0092705Y0205082D01*
X0093072Y0205082D01*
X0093439Y0204715D01*
X0093439Y0203615D01*
X0093072Y0202873D02*
X0094540Y0201405D01*
X0094540Y0202873D01*
X0093072Y0202873D02*
X0092705Y0202873D01*
X0092338Y0202506D01*
X0092338Y0201772D01*
X0092705Y0201405D01*
X0093439Y0204715D02*
X0093806Y0205082D01*
X0094173Y0205082D01*
X0094540Y0204715D01*
X0084540Y0204715D02*
X0084540Y0203615D01*
X0082338Y0203615D01*
X0082338Y0204715D01*
X0082705Y0205082D01*
X0084173Y0205082D01*
X0084540Y0204715D01*
X0084540Y0202873D02*
X0082338Y0202873D01*
X0082338Y0201405D02*
X0084540Y0202873D01*
X0084540Y0201405D02*
X0082338Y0201405D01*
X0082705Y0200663D02*
X0082338Y0200296D01*
X0082338Y0199562D01*
X0082705Y0199195D01*
X0084173Y0199195D01*
X0084540Y0199562D01*
X0084540Y0200296D01*
X0084173Y0200663D01*
X0083439Y0200663D01*
X0083439Y0199929D01*
X0074540Y0199931D02*
X0073072Y0199931D01*
X0073072Y0200298D01*
X0073439Y0200665D01*
X0073072Y0201032D01*
X0073439Y0201399D01*
X0074540Y0201399D01*
X0074540Y0200665D02*
X0073439Y0200665D01*
X0073439Y0202141D02*
X0074173Y0202141D01*
X0074540Y0202508D01*
X0074540Y0203242D01*
X0074173Y0203609D01*
X0073439Y0203609D01*
X0073072Y0203242D01*
X0073072Y0202508D01*
X0073439Y0202141D01*
X0073072Y0204351D02*
X0073072Y0205085D01*
X0072705Y0204718D02*
X0074173Y0204718D01*
X0074540Y0205085D01*
X0073806Y0199189D02*
X0072338Y0199189D01*
X0072338Y0197721D02*
X0073806Y0197721D01*
X0074540Y0198455D01*
X0073806Y0199189D01*
X0178637Y0199189D02*
X0180105Y0199189D01*
X0180839Y0198455D01*
X0180105Y0197721D01*
X0178637Y0197721D01*
X0179371Y0199931D02*
X0179371Y0200298D01*
X0179738Y0200665D01*
X0179371Y0201032D01*
X0179738Y0201399D01*
X0180839Y0201399D01*
X0180839Y0200665D02*
X0179738Y0200665D01*
X0179371Y0199931D02*
X0180839Y0199931D01*
X0180472Y0202141D02*
X0179738Y0202141D01*
X0179371Y0202508D01*
X0179371Y0203242D01*
X0179738Y0203609D01*
X0180472Y0203609D01*
X0180839Y0203242D01*
X0180839Y0202508D01*
X0180472Y0202141D01*
X0179371Y0204351D02*
X0179371Y0205085D01*
X0179004Y0204718D02*
X0180472Y0204718D01*
X0180839Y0205085D01*
X0188637Y0204715D02*
X0188637Y0203615D01*
X0190839Y0203615D01*
X0190839Y0204715D01*
X0190472Y0205082D01*
X0189004Y0205082D01*
X0188637Y0204715D01*
X0188637Y0202873D02*
X0190839Y0202873D01*
X0188637Y0201405D01*
X0190839Y0201405D01*
X0190472Y0200663D02*
X0189738Y0200663D01*
X0189738Y0199929D01*
X0189004Y0200663D02*
X0188637Y0200296D01*
X0188637Y0199562D01*
X0189004Y0199195D01*
X0190472Y0199195D01*
X0190839Y0199562D01*
X0190839Y0200296D01*
X0190472Y0200663D01*
X0198637Y0201772D02*
X0199004Y0201405D01*
X0198637Y0201772D02*
X0198637Y0202506D01*
X0199004Y0202873D01*
X0199371Y0202873D01*
X0200839Y0201405D01*
X0200839Y0202873D01*
X0200839Y0203615D02*
X0200839Y0204715D01*
X0200472Y0205082D01*
X0200105Y0205082D01*
X0199738Y0204715D01*
X0199738Y0203615D01*
X0199738Y0204715D02*
X0199371Y0205082D01*
X0199004Y0205082D01*
X0198637Y0204715D01*
X0198637Y0203615D01*
X0200839Y0203615D01*
X0208637Y0204348D02*
X0209371Y0205082D01*
X0210839Y0205082D01*
X0209738Y0205082D02*
X0209738Y0203615D01*
X0209371Y0203615D02*
X0208637Y0204348D01*
X0209371Y0203615D02*
X0210839Y0203615D01*
X0210839Y0202873D02*
X0210839Y0201405D01*
X0209371Y0202873D01*
X0209004Y0202873D01*
X0208637Y0202506D01*
X0208637Y0201772D01*
X0209004Y0201405D01*
X0218637Y0202139D02*
X0220839Y0202139D01*
X0220839Y0201405D02*
X0220839Y0202873D01*
X0220839Y0203615D02*
X0219371Y0203615D01*
X0218637Y0204348D01*
X0219371Y0205082D01*
X0220839Y0205082D01*
X0219738Y0205082D02*
X0219738Y0203615D01*
X0218637Y0202139D02*
X0219371Y0201405D01*
X0228637Y0202139D02*
X0230839Y0202139D01*
X0230839Y0201405D02*
X0230839Y0202873D01*
X0230839Y0203615D02*
X0230839Y0204715D01*
X0230472Y0205082D01*
X0230105Y0205082D01*
X0229738Y0204715D01*
X0229738Y0203615D01*
X0229738Y0204715D02*
X0229371Y0205082D01*
X0229004Y0205082D01*
X0228637Y0204715D01*
X0228637Y0203615D01*
X0230839Y0203615D01*
X0228637Y0202139D02*
X0229371Y0201405D01*
X0238637Y0201405D02*
X0238637Y0202506D01*
X0239004Y0202873D01*
X0240472Y0202873D01*
X0240839Y0202506D01*
X0240839Y0201405D01*
X0238637Y0201405D01*
X0238637Y0200663D02*
X0240105Y0200663D01*
X0240839Y0199929D01*
X0240105Y0199195D01*
X0238637Y0199195D01*
X0238637Y0203615D02*
X0238637Y0204715D01*
X0239004Y0205082D01*
X0240472Y0205082D01*
X0240839Y0204715D01*
X0240839Y0203615D01*
X0238637Y0203615D01*
X0248637Y0203615D02*
X0248637Y0204715D01*
X0249004Y0205082D01*
X0250472Y0205082D01*
X0250839Y0204715D01*
X0250839Y0203615D01*
X0248637Y0203615D01*
X0248637Y0202873D02*
X0250839Y0202873D01*
X0248637Y0201405D01*
X0250839Y0201405D01*
X0250472Y0200663D02*
X0249738Y0200663D01*
X0249738Y0199929D01*
X0249004Y0200663D02*
X0248637Y0200296D01*
X0248637Y0199562D01*
X0249004Y0199195D01*
X0250472Y0199195D01*
X0250839Y0199562D01*
X0250839Y0200296D01*
X0250472Y0200663D01*
X0242338Y0173922D02*
X0242705Y0173555D01*
X0242705Y0172454D01*
X0243439Y0172454D02*
X0241237Y0172454D01*
X0241237Y0173555D01*
X0241604Y0173922D01*
X0242338Y0173922D01*
X0241237Y0171712D02*
X0241237Y0170244D01*
X0243439Y0170244D01*
X0243439Y0171712D01*
X0242338Y0170978D02*
X0242338Y0170244D01*
X0241237Y0169502D02*
X0241237Y0168034D01*
X0241237Y0168768D02*
X0243439Y0168768D01*
X0243072Y0167292D02*
X0243439Y0166925D01*
X0243439Y0166191D01*
X0243072Y0165824D01*
X0242338Y0166191D02*
X0242338Y0166925D01*
X0242705Y0167292D01*
X0243072Y0167292D01*
X0242338Y0166191D02*
X0241971Y0165824D01*
X0241604Y0165824D01*
X0241237Y0166191D01*
X0241237Y0166925D01*
X0241604Y0167292D01*
X0233439Y0166925D02*
X0233439Y0166191D01*
X0233072Y0165824D01*
X0232338Y0166191D02*
X0232338Y0166925D01*
X0232705Y0167292D01*
X0233072Y0167292D01*
X0233439Y0166925D01*
X0233439Y0168034D02*
X0231237Y0168034D01*
X0231604Y0167292D02*
X0231237Y0166925D01*
X0231237Y0166191D01*
X0231604Y0165824D01*
X0231971Y0165824D01*
X0232338Y0166191D01*
X0233439Y0168034D02*
X0233439Y0169502D01*
X0233439Y0170244D02*
X0231237Y0170244D01*
X0231237Y0171345D01*
X0231604Y0171712D01*
X0232338Y0171712D01*
X0232705Y0171345D01*
X0232705Y0170244D01*
X0223439Y0170978D02*
X0221237Y0170978D01*
X0221237Y0170244D02*
X0221237Y0171712D01*
X0221604Y0169502D02*
X0221237Y0169135D01*
X0221237Y0168401D01*
X0221604Y0168034D01*
X0221971Y0168034D01*
X0222338Y0168401D01*
X0222338Y0169135D01*
X0222705Y0169502D01*
X0223072Y0169502D01*
X0223439Y0169135D01*
X0223439Y0168401D01*
X0223072Y0168034D01*
X0223439Y0167292D02*
X0222705Y0166558D01*
X0222705Y0166925D02*
X0222705Y0165824D01*
X0223439Y0165824D02*
X0221237Y0165824D01*
X0221237Y0166925D01*
X0221604Y0167292D01*
X0222338Y0167292D01*
X0222705Y0166925D01*
X0213439Y0167292D02*
X0211237Y0167292D01*
X0211971Y0166558D01*
X0211237Y0165824D01*
X0213439Y0165824D01*
X0213072Y0168034D02*
X0213439Y0168401D01*
X0213439Y0169135D01*
X0213072Y0169502D01*
X0212705Y0169502D01*
X0212338Y0169135D01*
X0212338Y0168401D01*
X0211971Y0168034D01*
X0211604Y0168034D01*
X0211237Y0168401D01*
X0211237Y0169135D01*
X0211604Y0169502D01*
X0211604Y0170244D02*
X0211237Y0170611D01*
X0211237Y0171345D01*
X0211604Y0171712D01*
X0211971Y0171712D01*
X0212338Y0171345D01*
X0212705Y0171712D01*
X0213072Y0171712D01*
X0213439Y0171345D01*
X0213439Y0170611D01*
X0213072Y0170244D01*
X0212338Y0170978D02*
X0212338Y0171345D01*
X0203439Y0171712D02*
X0203439Y0170244D01*
X0201971Y0171712D01*
X0201604Y0171712D01*
X0201237Y0171345D01*
X0201237Y0170611D01*
X0201604Y0170244D01*
X0201604Y0169502D02*
X0201237Y0169135D01*
X0201237Y0168401D01*
X0201604Y0168034D01*
X0201971Y0168034D01*
X0202338Y0168401D01*
X0202338Y0169135D01*
X0202705Y0169502D01*
X0203072Y0169502D01*
X0203439Y0169135D01*
X0203439Y0168401D01*
X0203072Y0168034D01*
X0203439Y0167292D02*
X0201237Y0167292D01*
X0201971Y0166558D01*
X0201237Y0165824D01*
X0203439Y0165824D01*
X0193439Y0165824D02*
X0191237Y0165824D01*
X0191971Y0166558D01*
X0191237Y0167292D01*
X0193439Y0167292D01*
X0193072Y0168034D02*
X0193439Y0168401D01*
X0193439Y0169135D01*
X0193072Y0169502D01*
X0192705Y0169502D01*
X0192338Y0169135D01*
X0192338Y0168401D01*
X0191971Y0168034D01*
X0191604Y0168034D01*
X0191237Y0168401D01*
X0191237Y0169135D01*
X0191604Y0169502D01*
X0191971Y0170244D02*
X0191237Y0170978D01*
X0193439Y0170978D01*
X0193439Y0170244D02*
X0193439Y0171712D01*
X0183439Y0169502D02*
X0181237Y0169502D01*
X0181237Y0168034D02*
X0183439Y0169502D01*
X0183439Y0168034D02*
X0181237Y0168034D01*
X0181237Y0167292D02*
X0181237Y0165824D01*
X0183439Y0165824D01*
X0183439Y0167292D01*
X0182338Y0166558D02*
X0182338Y0165824D01*
X0251237Y0165824D02*
X0251237Y0166925D01*
X0251604Y0167292D01*
X0253072Y0167292D01*
X0253439Y0166925D01*
X0253439Y0165824D01*
X0251237Y0165824D01*
X0251237Y0168034D02*
X0251237Y0168768D01*
X0251237Y0168401D02*
X0253439Y0168401D01*
X0253439Y0168034D02*
X0253439Y0168768D01*
X0253439Y0169508D02*
X0251237Y0169508D01*
X0251237Y0170608D01*
X0251604Y0170975D01*
X0252338Y0170975D01*
X0252705Y0170608D01*
X0252705Y0169508D01*
X0252705Y0170241D02*
X0253439Y0170975D01*
D18*
X0226972Y0146572D02*
X0225871Y0145471D01*
X0226238Y0145104D02*
X0224770Y0146572D01*
X0224770Y0145104D02*
X0226972Y0145104D01*
X0226605Y0144270D02*
X0226972Y0143903D01*
X0226972Y0143169D01*
X0226605Y0142802D01*
X0225137Y0144270D01*
X0226605Y0144270D01*
X0226605Y0142802D02*
X0225137Y0142802D01*
X0224770Y0143169D01*
X0224770Y0143903D01*
X0225137Y0144270D01*
X0226972Y0141968D02*
X0226972Y0140500D01*
X0226972Y0141234D02*
X0224770Y0141234D01*
X0225504Y0140500D01*
X0203350Y0140500D02*
X0203350Y0141968D01*
X0203350Y0141234D02*
X0201148Y0141234D01*
X0201882Y0140500D01*
X0201148Y0142802D02*
X0203350Y0142802D01*
X0202616Y0142802D02*
X0201148Y0144270D01*
X0202249Y0143169D02*
X0203350Y0144270D01*
X0199292Y0108403D02*
X0197824Y0108403D01*
X0197824Y0106201D01*
X0196990Y0106568D02*
X0196990Y0108403D01*
X0197824Y0107302D02*
X0198558Y0107302D01*
X0196990Y0106568D02*
X0196623Y0106201D01*
X0195889Y0106201D01*
X0195522Y0106568D01*
X0195522Y0108403D01*
X0194688Y0108036D02*
X0194321Y0108403D01*
X0193587Y0108403D01*
X0193220Y0108036D01*
X0193220Y0106568D01*
X0194688Y0108036D01*
X0194688Y0106568D01*
X0194321Y0106201D01*
X0193587Y0106201D01*
X0193220Y0106568D01*
X0192386Y0106201D02*
X0190919Y0106201D01*
X0192386Y0107669D01*
X0192386Y0108036D01*
X0192019Y0108403D01*
X0191285Y0108403D01*
X0190919Y0108036D01*
X0190084Y0108036D02*
X0189717Y0108403D01*
X0188984Y0108403D01*
X0188617Y0108036D01*
X0190084Y0108036D02*
X0190084Y0107669D01*
X0188617Y0106201D01*
X0190084Y0106201D01*
X0164115Y0069494D02*
X0162647Y0068026D01*
X0163014Y0068393D02*
X0164115Y0067292D01*
X0162647Y0067292D02*
X0162647Y0069494D01*
X0161813Y0069127D02*
X0160345Y0067659D01*
X0160712Y0067292D01*
X0161446Y0067292D01*
X0161813Y0067659D01*
X0161813Y0069127D01*
X0161446Y0069494D01*
X0160712Y0069494D01*
X0160345Y0069127D01*
X0160345Y0067659D01*
X0159511Y0067292D02*
X0158043Y0067292D01*
X0158777Y0067292D02*
X0158777Y0069494D01*
X0158043Y0068760D01*
X0158383Y0052820D02*
X0156915Y0051352D01*
X0157282Y0051719D02*
X0158383Y0050619D01*
X0159118Y0049942D02*
X0158017Y0048841D01*
X0158384Y0048474D02*
X0156916Y0049942D01*
X0156915Y0050619D02*
X0156915Y0052820D01*
X0156081Y0052453D02*
X0155714Y0052820D01*
X0154980Y0052820D01*
X0154613Y0052453D01*
X0154613Y0050985D01*
X0156081Y0052453D01*
X0156081Y0050985D01*
X0155714Y0050619D01*
X0154980Y0050619D01*
X0154613Y0050985D01*
X0153779Y0050619D02*
X0152311Y0050619D01*
X0153045Y0050619D02*
X0153045Y0052820D01*
X0152311Y0052086D01*
X0156916Y0048474D02*
X0159118Y0048474D01*
X0158751Y0047640D02*
X0159118Y0047273D01*
X0159118Y0046539D01*
X0158751Y0046172D01*
X0157283Y0047640D01*
X0158751Y0047640D01*
X0158751Y0046172D02*
X0157283Y0046172D01*
X0156916Y0046539D01*
X0156916Y0047273D01*
X0157283Y0047640D01*
X0159118Y0045338D02*
X0159118Y0043870D01*
X0159118Y0044604D02*
X0156916Y0044604D01*
X0157650Y0043870D01*
X0157841Y0044210D02*
X0159309Y0042742D01*
X0158942Y0043109D02*
X0160043Y0044210D01*
X0160043Y0042742D02*
X0157841Y0042742D01*
X0158208Y0041908D02*
X0159676Y0040440D01*
X0160043Y0040807D01*
X0160043Y0041541D01*
X0159676Y0041908D01*
X0158208Y0041908D01*
X0157841Y0041541D01*
X0157841Y0040807D01*
X0158208Y0040440D01*
X0159676Y0040440D01*
X0160043Y0039606D02*
X0160043Y0038138D01*
X0160043Y0038872D02*
X0157841Y0038872D01*
X0158575Y0038138D01*
X0089456Y0128365D02*
X0088722Y0128365D01*
X0088355Y0128732D01*
X0088355Y0129466D02*
X0089089Y0129832D01*
X0089456Y0129832D01*
X0089823Y0129466D01*
X0089823Y0128732D01*
X0089456Y0128365D01*
X0088355Y0129466D02*
X0088355Y0130566D01*
X0089823Y0130566D01*
X0087521Y0130199D02*
X0086053Y0128732D01*
X0086420Y0128365D01*
X0087154Y0128365D01*
X0087521Y0128732D01*
X0087521Y0130199D01*
X0087154Y0130566D01*
X0086420Y0130566D01*
X0086053Y0130199D01*
X0086053Y0128732D01*
X0085219Y0128732D02*
X0084852Y0128365D01*
X0084118Y0128365D01*
X0083751Y0128732D01*
X0083751Y0129099D01*
X0084118Y0129466D01*
X0084852Y0129466D01*
X0085219Y0129099D01*
X0085219Y0128732D01*
X0084852Y0129466D02*
X0085219Y0129832D01*
X0085219Y0130199D01*
X0084852Y0130566D01*
X0084118Y0130566D01*
X0083751Y0130199D01*
X0083751Y0129832D01*
X0084118Y0129466D01*
X0082917Y0130199D02*
X0081449Y0128732D01*
X0081816Y0128365D01*
X0082550Y0128365D01*
X0082917Y0128732D01*
X0082917Y0130199D01*
X0082550Y0130566D01*
X0081816Y0130566D01*
X0081449Y0130199D01*
X0081449Y0128732D01*
X0080615Y0129466D02*
X0079147Y0129466D01*
X0078313Y0130566D02*
X0078313Y0128365D01*
X0077579Y0129099D01*
X0076845Y0128365D01*
X0076845Y0130566D01*
X0076011Y0130199D02*
X0075644Y0130566D01*
X0074910Y0130566D01*
X0074543Y0130199D01*
X0074543Y0128732D01*
X0074910Y0128365D01*
X0075644Y0128365D01*
X0076011Y0128732D01*
X0076011Y0130199D01*
X0073709Y0128365D02*
X0072241Y0128365D01*
X0072241Y0130566D01*
X0069939Y0130566D02*
X0069939Y0128365D01*
X0071407Y0128365D01*
X0069105Y0128365D02*
X0067637Y0128365D01*
X0067637Y0130566D01*
X0069105Y0130566D01*
X0068371Y0129466D02*
X0067637Y0129466D01*
X0066803Y0130199D02*
X0066803Y0130566D01*
X0066803Y0130199D02*
X0066069Y0129466D01*
X0066069Y0128365D01*
X0066069Y0129466D02*
X0065335Y0130199D01*
X0065335Y0130566D01*
X0067099Y0148534D02*
X0066365Y0149268D01*
X0068567Y0149268D01*
X0068567Y0148534D02*
X0068567Y0150002D01*
X0068567Y0150836D02*
X0066365Y0150836D01*
X0067466Y0151203D02*
X0068567Y0152304D01*
X0067833Y0150836D02*
X0066365Y0152304D01*
X0094849Y0144270D02*
X0096317Y0142802D01*
X0095950Y0143169D02*
X0097051Y0144270D01*
X0097051Y0142802D02*
X0094849Y0142802D01*
X0094849Y0141234D02*
X0097051Y0141234D01*
X0097051Y0140500D02*
X0097051Y0141968D01*
X0095583Y0140500D02*
X0094849Y0141234D01*
X0118471Y0141234D02*
X0120673Y0141234D01*
X0120673Y0140500D02*
X0120673Y0141968D01*
X0120306Y0142802D02*
X0118838Y0144270D01*
X0120306Y0144270D01*
X0120673Y0143903D01*
X0120673Y0143169D01*
X0120306Y0142802D01*
X0118838Y0142802D01*
X0118471Y0143169D01*
X0118471Y0143903D01*
X0118838Y0144270D01*
X0118471Y0145104D02*
X0120673Y0145104D01*
X0119939Y0145104D02*
X0118471Y0146572D01*
X0119572Y0145471D02*
X0120673Y0146572D01*
X0118471Y0141234D02*
X0119205Y0140500D01*
X0160323Y0179939D02*
X0161791Y0179939D01*
X0161057Y0179939D02*
X0161057Y0182141D01*
X0160323Y0181407D01*
X0162625Y0181774D02*
X0162992Y0182141D01*
X0163726Y0182141D01*
X0164093Y0181774D01*
X0162625Y0180306D01*
X0162992Y0179939D01*
X0163726Y0179939D01*
X0164093Y0180306D01*
X0164093Y0181774D01*
X0164927Y0181774D02*
X0165294Y0182141D01*
X0166028Y0182141D01*
X0166395Y0181774D01*
X0164927Y0180306D01*
X0165294Y0179939D01*
X0166028Y0179939D01*
X0166395Y0180306D01*
X0166395Y0181774D01*
X0167229Y0181407D02*
X0168330Y0181407D01*
X0168697Y0181040D01*
X0168697Y0179939D01*
X0169898Y0179939D02*
X0169898Y0181774D01*
X0170265Y0182141D01*
X0170265Y0181040D02*
X0169531Y0181040D01*
X0167229Y0181407D02*
X0167229Y0179939D01*
X0164927Y0180306D02*
X0164927Y0181774D01*
X0162625Y0181774D02*
X0162625Y0180306D01*
X0196491Y0200689D02*
X0197958Y0202157D01*
X0197958Y0202524D01*
X0197591Y0202891D01*
X0196858Y0202891D01*
X0196491Y0202524D01*
X0196491Y0200689D02*
X0197958Y0200689D01*
X0198793Y0200689D02*
X0200260Y0202157D01*
X0200260Y0202524D01*
X0199893Y0202891D01*
X0199159Y0202891D01*
X0198793Y0202524D01*
X0198793Y0200689D02*
X0200260Y0200689D01*
X0201094Y0201056D02*
X0202562Y0202524D01*
X0202562Y0201056D01*
X0202195Y0200689D01*
X0201461Y0200689D01*
X0201094Y0201056D01*
X0201094Y0202524D01*
X0201461Y0202891D01*
X0202195Y0202891D01*
X0202562Y0202524D01*
X0203396Y0202891D02*
X0203396Y0201056D01*
X0203763Y0200689D01*
X0204497Y0200689D01*
X0204864Y0201056D01*
X0204864Y0202891D01*
X0205698Y0202891D02*
X0207166Y0202891D01*
X0206432Y0201790D02*
X0205698Y0201790D01*
X0205698Y0200689D02*
X0205698Y0202891D01*
X0175791Y0231052D02*
X0175791Y0232519D01*
X0175791Y0231786D02*
X0173589Y0231786D01*
X0174323Y0231052D01*
X0173589Y0233354D02*
X0175791Y0233354D01*
X0175057Y0233354D02*
X0173589Y0234821D01*
X0174690Y0233721D02*
X0175791Y0234821D01*
X0176071Y0242538D02*
X0174603Y0242538D01*
X0174603Y0244740D01*
X0172500Y0244740D02*
X0171032Y0244740D01*
X0171032Y0243639D01*
X0171766Y0244006D01*
X0172133Y0244006D01*
X0172500Y0243639D01*
X0172500Y0242905D01*
X0172133Y0242538D01*
X0171399Y0242538D01*
X0171032Y0242905D01*
X0171467Y0242538D02*
X0169999Y0242538D01*
X0169999Y0244740D01*
X0171467Y0244740D01*
X0172301Y0244740D02*
X0172301Y0242538D01*
X0173769Y0242538D01*
X0176905Y0242905D02*
X0177272Y0242538D01*
X0178006Y0242538D01*
X0178373Y0242905D01*
X0178373Y0244373D01*
X0178006Y0244740D01*
X0177272Y0244740D01*
X0176905Y0244373D01*
X0176905Y0242905D01*
X0179207Y0242538D02*
X0179941Y0243272D01*
X0180675Y0242538D01*
X0180675Y0244740D01*
X0181509Y0243639D02*
X0182977Y0243639D01*
X0183811Y0244373D02*
X0184178Y0244740D01*
X0184912Y0244740D01*
X0185279Y0244373D01*
X0183811Y0242905D01*
X0184178Y0242538D01*
X0184912Y0242538D01*
X0185279Y0242905D01*
X0185279Y0244373D01*
X0186113Y0244373D02*
X0186113Y0244006D01*
X0186480Y0243639D01*
X0187214Y0243639D01*
X0187581Y0243272D01*
X0187581Y0242905D01*
X0187214Y0242538D01*
X0186480Y0242538D01*
X0186113Y0242905D01*
X0186113Y0243272D01*
X0186480Y0243639D01*
X0187214Y0243639D02*
X0187581Y0244006D01*
X0187581Y0244373D01*
X0187214Y0244740D01*
X0186480Y0244740D01*
X0186113Y0244373D01*
X0188415Y0244373D02*
X0188782Y0244740D01*
X0189516Y0244740D01*
X0189883Y0244373D01*
X0188415Y0242905D01*
X0188782Y0242538D01*
X0189516Y0242538D01*
X0189883Y0242905D01*
X0189883Y0244373D01*
X0190717Y0244740D02*
X0190717Y0243639D01*
X0191451Y0244006D01*
X0191818Y0244006D01*
X0192185Y0243639D01*
X0192185Y0242905D01*
X0191818Y0242538D01*
X0191084Y0242538D01*
X0190717Y0242905D01*
X0190717Y0244740D02*
X0192185Y0244740D01*
X0188415Y0244373D02*
X0188415Y0242905D01*
X0183811Y0242905D02*
X0183811Y0244373D01*
X0179207Y0244740D02*
X0179207Y0242538D01*
X0170733Y0243639D02*
X0169999Y0243639D01*
X0170198Y0244373D02*
X0168730Y0242905D01*
X0169097Y0242538D01*
X0169831Y0242538D01*
X0170198Y0242905D01*
X0170198Y0244373D01*
X0169831Y0244740D01*
X0169097Y0244740D01*
X0168730Y0244373D01*
X0168730Y0242905D01*
X0168431Y0242538D02*
X0168431Y0243639D01*
X0169165Y0244373D01*
X0169165Y0244740D01*
X0167896Y0244373D02*
X0167529Y0244740D01*
X0166795Y0244740D01*
X0166428Y0244373D01*
X0166428Y0244006D01*
X0166795Y0243639D01*
X0167529Y0243639D01*
X0167896Y0243272D01*
X0167896Y0242905D01*
X0167529Y0242538D01*
X0166795Y0242538D01*
X0166428Y0242905D01*
X0166428Y0243272D01*
X0166795Y0243639D01*
X0167529Y0243639D02*
X0167896Y0244006D01*
X0167896Y0244373D01*
X0167697Y0244373D02*
X0168431Y0243639D01*
X0167697Y0244373D02*
X0167697Y0244740D01*
X0165594Y0244373D02*
X0164126Y0242905D01*
X0164493Y0242538D01*
X0165227Y0242538D01*
X0165594Y0242905D01*
X0165594Y0244373D01*
X0165227Y0244740D01*
X0164493Y0244740D01*
X0164126Y0244373D01*
X0164126Y0242905D01*
X0163292Y0243639D02*
X0161824Y0243639D01*
X0160990Y0242538D02*
X0160990Y0244740D01*
X0159522Y0244740D02*
X0159522Y0242538D01*
X0160256Y0243272D01*
X0160990Y0242538D01*
X0158688Y0242905D02*
X0158688Y0244373D01*
X0158321Y0244740D01*
X0157587Y0244740D01*
X0157220Y0244373D01*
X0157220Y0242905D01*
X0157587Y0242538D01*
X0158321Y0242538D01*
X0158688Y0242905D01*
X0156386Y0242538D02*
X0154918Y0242538D01*
X0154918Y0244740D01*
X0155181Y0242855D02*
X0154080Y0241754D01*
X0154447Y0241387D02*
X0152979Y0242855D01*
X0152815Y0242905D02*
X0152448Y0242538D01*
X0151714Y0242538D01*
X0151347Y0242905D01*
X0151782Y0242538D02*
X0150314Y0242538D01*
X0150314Y0244740D01*
X0151782Y0244740D01*
X0151347Y0244740D02*
X0151347Y0243639D01*
X0152081Y0244006D01*
X0152448Y0244006D01*
X0152815Y0243639D01*
X0152815Y0242905D01*
X0152616Y0242538D02*
X0154084Y0242538D01*
X0152616Y0242538D02*
X0152616Y0244740D01*
X0152815Y0244740D02*
X0151347Y0244740D01*
X0150513Y0244373D02*
X0149045Y0242905D01*
X0149412Y0242538D01*
X0150146Y0242538D01*
X0150513Y0242905D01*
X0150513Y0244373D01*
X0150146Y0244740D01*
X0149412Y0244740D01*
X0149045Y0244373D01*
X0149045Y0242905D01*
X0148746Y0242538D02*
X0148746Y0243639D01*
X0149480Y0244373D01*
X0149480Y0244740D01*
X0148211Y0244373D02*
X0148211Y0244006D01*
X0147844Y0243639D01*
X0147110Y0243639D01*
X0146743Y0244006D01*
X0146743Y0244373D01*
X0147110Y0244740D01*
X0147844Y0244740D01*
X0148211Y0244373D01*
X0148012Y0244373D02*
X0148746Y0243639D01*
X0148211Y0243272D02*
X0148211Y0242905D01*
X0147844Y0242538D01*
X0147110Y0242538D01*
X0146743Y0242905D01*
X0146743Y0243272D01*
X0147110Y0243639D01*
X0147844Y0243639D02*
X0148211Y0243272D01*
X0148012Y0244373D02*
X0148012Y0244740D01*
X0145909Y0244373D02*
X0144441Y0242905D01*
X0144808Y0242538D01*
X0145542Y0242538D01*
X0145909Y0242905D01*
X0145909Y0244373D01*
X0145542Y0244740D01*
X0144808Y0244740D01*
X0144441Y0244373D01*
X0144441Y0242905D01*
X0143607Y0243639D02*
X0142139Y0243639D01*
X0141305Y0242538D02*
X0141305Y0244740D01*
X0139837Y0244740D02*
X0139837Y0242538D01*
X0140571Y0243272D01*
X0141305Y0242538D01*
X0139003Y0242905D02*
X0139003Y0244373D01*
X0138636Y0244740D01*
X0137902Y0244740D01*
X0137535Y0244373D01*
X0137535Y0242905D01*
X0137902Y0242538D01*
X0138636Y0242538D01*
X0139003Y0242905D01*
X0136701Y0242538D02*
X0135233Y0242538D01*
X0135233Y0244740D01*
X0135496Y0242855D02*
X0134395Y0241754D01*
X0134762Y0241387D02*
X0133294Y0242855D01*
X0133130Y0242905D02*
X0132763Y0242538D01*
X0132029Y0242538D01*
X0131662Y0242905D01*
X0132097Y0242538D02*
X0130629Y0242538D01*
X0130629Y0244740D01*
X0132097Y0244740D01*
X0131662Y0244740D02*
X0133130Y0244740D01*
X0132931Y0244740D02*
X0132931Y0242538D01*
X0134399Y0242538D01*
X0133130Y0242905D02*
X0133130Y0243639D01*
X0132763Y0244006D01*
X0132396Y0244006D01*
X0131662Y0243639D01*
X0131662Y0244740D01*
X0130828Y0244373D02*
X0130461Y0244740D01*
X0129727Y0244740D01*
X0129360Y0244373D01*
X0129360Y0242905D01*
X0130828Y0244373D01*
X0130828Y0242905D01*
X0130461Y0242538D01*
X0129727Y0242538D01*
X0129360Y0242905D01*
X0129061Y0242538D02*
X0129061Y0243639D01*
X0129795Y0244373D01*
X0129795Y0244740D01*
X0128526Y0244373D02*
X0128526Y0244006D01*
X0128159Y0243639D01*
X0127425Y0243639D01*
X0127058Y0244006D01*
X0127058Y0244373D01*
X0127425Y0244740D01*
X0128159Y0244740D01*
X0128526Y0244373D01*
X0128327Y0244373D02*
X0129061Y0243639D01*
X0128526Y0243272D02*
X0128526Y0242905D01*
X0128159Y0242538D01*
X0127425Y0242538D01*
X0127058Y0242905D01*
X0127058Y0243272D01*
X0127425Y0243639D01*
X0128159Y0243639D02*
X0128526Y0243272D01*
X0128327Y0244373D02*
X0128327Y0244740D01*
X0126224Y0244373D02*
X0125857Y0244740D01*
X0125123Y0244740D01*
X0124756Y0244373D01*
X0124756Y0242905D01*
X0126224Y0244373D01*
X0126224Y0242905D01*
X0125857Y0242538D01*
X0125123Y0242538D01*
X0124756Y0242905D01*
X0123922Y0243639D02*
X0122454Y0243639D01*
X0121620Y0242538D02*
X0121620Y0244740D01*
X0120152Y0244740D02*
X0120152Y0242538D01*
X0120886Y0243272D01*
X0121620Y0242538D01*
X0119318Y0242905D02*
X0119318Y0244373D01*
X0118951Y0244740D01*
X0118217Y0244740D01*
X0117850Y0244373D01*
X0117850Y0242905D01*
X0118217Y0242538D01*
X0118951Y0242538D01*
X0119318Y0242905D01*
X0117016Y0242538D02*
X0115548Y0242538D01*
X0115548Y0244740D01*
X0113246Y0244740D02*
X0113246Y0242538D01*
X0114714Y0242538D01*
X0112412Y0242538D02*
X0110944Y0242538D01*
X0110944Y0244740D01*
X0112412Y0244740D01*
X0111678Y0243639D02*
X0110944Y0243639D01*
X0110110Y0244373D02*
X0110110Y0244740D01*
X0110110Y0244373D02*
X0109376Y0243639D01*
X0109376Y0242538D01*
X0109376Y0243639D02*
X0108642Y0244373D01*
X0108642Y0244740D01*
X0114534Y0234821D02*
X0116002Y0233354D01*
X0115635Y0233721D02*
X0116736Y0234821D01*
X0116736Y0233354D02*
X0114534Y0233354D01*
X0114534Y0231786D02*
X0116736Y0231786D01*
X0116736Y0232519D02*
X0116736Y0231052D01*
X0115268Y0231052D02*
X0114534Y0231786D01*
X0130629Y0243639D02*
X0131363Y0243639D01*
X0133294Y0241387D02*
X0135496Y0241387D01*
X0135496Y0240553D02*
X0135496Y0239085D01*
X0135496Y0239819D02*
X0133294Y0239819D01*
X0134028Y0239085D01*
X0150314Y0243639D02*
X0151048Y0243639D01*
X0152979Y0241387D02*
X0155181Y0241387D01*
X0155181Y0240553D02*
X0155181Y0239085D01*
X0155181Y0239819D02*
X0152979Y0239819D01*
X0153713Y0239085D01*
X0100867Y0202891D02*
X0099399Y0202891D01*
X0099399Y0200689D01*
X0098565Y0201056D02*
X0098565Y0202891D01*
X0099399Y0201790D02*
X0100133Y0201790D01*
X0098565Y0201056D02*
X0098198Y0200689D01*
X0097464Y0200689D01*
X0097097Y0201056D01*
X0097097Y0202891D01*
X0096263Y0202524D02*
X0094795Y0201056D01*
X0095162Y0200689D01*
X0095896Y0200689D01*
X0096263Y0201056D01*
X0096263Y0202524D01*
X0095896Y0202891D01*
X0095162Y0202891D01*
X0094795Y0202524D01*
X0094795Y0201056D01*
X0093961Y0200689D02*
X0092493Y0200689D01*
X0093961Y0202157D01*
X0093961Y0202524D01*
X0093594Y0202891D01*
X0092860Y0202891D01*
X0092493Y0202524D01*
X0091659Y0202524D02*
X0091292Y0202891D01*
X0090558Y0202891D01*
X0090191Y0202524D01*
X0091659Y0202524D02*
X0091659Y0202157D01*
X0090191Y0200689D01*
X0091659Y0200689D01*
X0068341Y0192141D02*
X0067974Y0191774D01*
X0067974Y0189939D01*
X0067607Y0191040D02*
X0068341Y0191040D01*
X0066773Y0191040D02*
X0066773Y0189939D01*
X0066773Y0191040D02*
X0066406Y0191407D01*
X0065305Y0191407D01*
X0065305Y0189939D01*
X0064471Y0190306D02*
X0064104Y0189939D01*
X0063371Y0189939D01*
X0063004Y0190306D01*
X0064471Y0191774D01*
X0064471Y0190306D01*
X0063004Y0190306D02*
X0063004Y0191774D01*
X0063371Y0192141D01*
X0064104Y0192141D01*
X0064471Y0191774D01*
X0062169Y0191774D02*
X0061803Y0192141D01*
X0061069Y0192141D01*
X0060702Y0191774D01*
X0060702Y0190306D01*
X0062169Y0191774D01*
X0062169Y0190306D01*
X0061803Y0189939D01*
X0061069Y0189939D01*
X0060702Y0190306D01*
X0059868Y0189939D02*
X0058400Y0189939D01*
X0059134Y0189939D02*
X0059134Y0192141D01*
X0058400Y0191407D01*
X0041933Y0195619D02*
X0041933Y0197086D01*
X0041933Y0196352D02*
X0039731Y0196352D01*
X0040465Y0195619D01*
X0040098Y0197920D02*
X0039731Y0198287D01*
X0039731Y0199021D01*
X0040098Y0199388D01*
X0041566Y0197920D01*
X0041933Y0198287D01*
X0041933Y0199021D01*
X0041566Y0199388D01*
X0040098Y0199388D01*
X0039731Y0200222D02*
X0041933Y0200222D01*
X0041199Y0200222D02*
X0039731Y0201690D01*
X0040832Y0200589D02*
X0041933Y0201690D01*
X0041566Y0197920D02*
X0040098Y0197920D01*
X0032399Y0208099D02*
X0031298Y0209200D01*
X0030931Y0208833D02*
X0032399Y0210301D01*
X0030931Y0210301D02*
X0030931Y0208099D01*
X0030097Y0208466D02*
X0029730Y0208099D01*
X0028996Y0208099D01*
X0028629Y0208466D01*
X0030097Y0209934D01*
X0030097Y0208466D01*
X0030097Y0209934D02*
X0029730Y0210301D01*
X0028996Y0210301D01*
X0028629Y0209934D01*
X0028629Y0208466D01*
X0027795Y0208099D02*
X0026327Y0208099D01*
X0027061Y0208099D02*
X0027061Y0210301D01*
X0026327Y0209567D01*
X0025259Y0207422D02*
X0024159Y0206321D01*
X0024525Y0205954D02*
X0023058Y0207422D01*
X0023058Y0205954D02*
X0025259Y0205954D01*
X0024892Y0205120D02*
X0025259Y0204753D01*
X0025259Y0204019D01*
X0024892Y0203652D01*
X0023425Y0205120D01*
X0024892Y0205120D01*
X0023425Y0205120D02*
X0023058Y0204753D01*
X0023058Y0204019D01*
X0023425Y0203652D01*
X0024892Y0203652D01*
X0025259Y0202818D02*
X0025259Y0201350D01*
X0025259Y0202084D02*
X0023058Y0202084D01*
X0023792Y0201350D01*
X0032059Y0224772D02*
X0033527Y0224772D01*
X0032793Y0224772D02*
X0032793Y0226974D01*
X0032059Y0226240D01*
X0034361Y0226607D02*
X0034361Y0225139D01*
X0035829Y0226607D01*
X0035829Y0225139D01*
X0035462Y0224772D01*
X0034728Y0224772D01*
X0034361Y0225139D01*
X0034361Y0226607D02*
X0034728Y0226974D01*
X0035462Y0226974D01*
X0035829Y0226607D01*
X0036663Y0226974D02*
X0036663Y0224772D01*
X0036663Y0225506D02*
X0038131Y0226974D01*
X0037030Y0225873D02*
X0038131Y0224772D01*
D19*
X0270528Y0261906D02*
X0270528Y0284406D01*
X0280528Y0284406D02*
X0280528Y0261906D01*
X0290528Y0261906D02*
X0290528Y0284406D01*
D20*
X0290528Y0260406D03*
X0280528Y0260406D03*
X0270528Y0260406D03*
D21*
X0270528Y0247406D03*
X0280528Y0247406D03*
X0290528Y0247406D03*
M02*
