G75*
%MOIN*%
%OFA0B0*%
%FSLAX25Y25*%
%IPPOS*%
%LPD*%
%AMOC8*
5,1,8,0,0,1.08239X$1,22.5*
%
%ADD10C,0.00000*%
%ADD11C,0.00875*%
%ADD12R,0.12000X0.06500*%
%ADD13R,0.10000X0.10000*%
%ADD14R,0.04500X0.04000*%
%ADD15R,0.06969X0.07087*%
D10*
X0001000Y0004937D02*
X0001000Y0256906D01*
X0004937Y0260843D01*
X0315961Y0260843D01*
X0320409Y0256906D01*
X0320409Y0004937D01*
X0315961Y0001000D01*
X0004937Y0001000D01*
X0001000Y0004937D01*
D11*
X0024246Y0046931D02*
X0026872Y0046931D01*
X0024246Y0046931D02*
X0024246Y0049557D01*
X0026872Y0049557D01*
X0026872Y0046931D01*
X0026872Y0047805D02*
X0024246Y0047805D01*
X0024246Y0048679D02*
X0026872Y0048679D01*
X0026872Y0049553D02*
X0024246Y0049553D01*
X0030246Y0046931D02*
X0032872Y0046931D01*
X0030246Y0046931D02*
X0030246Y0049557D01*
X0032872Y0049557D01*
X0032872Y0046931D01*
X0032872Y0047805D02*
X0030246Y0047805D01*
X0030246Y0048679D02*
X0032872Y0048679D01*
X0032872Y0049553D02*
X0030246Y0049553D01*
X0104675Y0040746D02*
X0104675Y0038120D01*
X0102049Y0038120D01*
X0102049Y0040746D01*
X0104675Y0040746D01*
X0104675Y0038994D02*
X0102049Y0038994D01*
X0102049Y0039868D02*
X0104675Y0039868D01*
X0104675Y0040742D02*
X0102049Y0040742D01*
X0104675Y0034746D02*
X0104675Y0032120D01*
X0102049Y0032120D01*
X0102049Y0034746D01*
X0104675Y0034746D01*
X0104675Y0032994D02*
X0102049Y0032994D01*
X0102049Y0033868D02*
X0104675Y0033868D01*
X0104675Y0034742D02*
X0102049Y0034742D01*
X0153230Y0039994D02*
X0153230Y0042620D01*
X0155856Y0042620D01*
X0155856Y0039994D01*
X0153230Y0039994D01*
X0153230Y0040868D02*
X0155856Y0040868D01*
X0155856Y0041742D02*
X0153230Y0041742D01*
X0153230Y0042616D02*
X0155856Y0042616D01*
X0153230Y0045994D02*
X0153230Y0048620D01*
X0155856Y0048620D01*
X0155856Y0045994D01*
X0153230Y0045994D01*
X0153230Y0046868D02*
X0155856Y0046868D01*
X0155856Y0047742D02*
X0153230Y0047742D01*
X0153230Y0048616D02*
X0155856Y0048616D01*
X0163730Y0048620D02*
X0163730Y0045994D01*
X0161104Y0045994D01*
X0161104Y0048620D01*
X0163730Y0048620D01*
X0163730Y0046868D02*
X0161104Y0046868D01*
X0161104Y0047742D02*
X0163730Y0047742D01*
X0163730Y0048616D02*
X0161104Y0048616D01*
X0163730Y0042620D02*
X0163730Y0039994D01*
X0161104Y0039994D01*
X0161104Y0042620D01*
X0163730Y0042620D01*
X0163730Y0040868D02*
X0161104Y0040868D01*
X0161104Y0041742D02*
X0163730Y0041742D01*
X0163730Y0042616D02*
X0161104Y0042616D01*
X0160167Y0057431D02*
X0162793Y0057431D01*
X0162793Y0054805D01*
X0160167Y0054805D01*
X0160167Y0057431D01*
X0160167Y0055679D02*
X0162793Y0055679D01*
X0162793Y0056553D02*
X0160167Y0056553D01*
X0160167Y0057427D02*
X0162793Y0057427D01*
X0162793Y0062679D02*
X0160167Y0062679D01*
X0160167Y0065305D01*
X0162793Y0065305D01*
X0162793Y0062679D01*
X0162793Y0063553D02*
X0160167Y0063553D01*
X0160167Y0064427D02*
X0162793Y0064427D01*
X0162793Y0065301D02*
X0160167Y0065301D01*
X0156793Y0062679D02*
X0154167Y0062679D01*
X0154167Y0065305D01*
X0156793Y0065305D01*
X0156793Y0062679D01*
X0156793Y0063553D02*
X0154167Y0063553D01*
X0154167Y0064427D02*
X0156793Y0064427D01*
X0156793Y0065301D02*
X0154167Y0065301D01*
X0154167Y0057431D02*
X0156793Y0057431D01*
X0156793Y0054805D01*
X0154167Y0054805D01*
X0154167Y0057431D01*
X0154167Y0055679D02*
X0156793Y0055679D01*
X0156793Y0056553D02*
X0154167Y0056553D01*
X0154167Y0057427D02*
X0156793Y0057427D01*
X0221096Y0084990D02*
X0223722Y0084990D01*
X0223722Y0082364D01*
X0221096Y0082364D01*
X0221096Y0084990D01*
X0221096Y0083238D02*
X0223722Y0083238D01*
X0223722Y0084112D02*
X0221096Y0084112D01*
X0221096Y0084986D02*
X0223722Y0084986D01*
X0227096Y0084990D02*
X0229722Y0084990D01*
X0229722Y0082364D01*
X0227096Y0082364D01*
X0227096Y0084990D01*
X0227096Y0083238D02*
X0229722Y0083238D01*
X0229722Y0084112D02*
X0227096Y0084112D01*
X0227096Y0084986D02*
X0229722Y0084986D01*
X0220159Y0142356D02*
X0220159Y0144982D01*
X0222785Y0144982D01*
X0222785Y0142356D01*
X0220159Y0142356D01*
X0220159Y0143230D02*
X0222785Y0143230D01*
X0222785Y0144104D02*
X0220159Y0144104D01*
X0220159Y0144978D02*
X0222785Y0144978D01*
X0220159Y0148356D02*
X0220159Y0150982D01*
X0222785Y0150982D01*
X0222785Y0148356D01*
X0220159Y0148356D01*
X0220159Y0149230D02*
X0222785Y0149230D01*
X0222785Y0150104D02*
X0220159Y0150104D01*
X0220159Y0150978D02*
X0222785Y0150978D01*
X0196537Y0150982D02*
X0196537Y0148356D01*
X0196537Y0150982D02*
X0199163Y0150982D01*
X0199163Y0148356D01*
X0196537Y0148356D01*
X0196537Y0149230D02*
X0199163Y0149230D01*
X0199163Y0150104D02*
X0196537Y0150104D01*
X0196537Y0150978D02*
X0199163Y0150978D01*
X0196537Y0144982D02*
X0196537Y0142356D01*
X0196537Y0144982D02*
X0199163Y0144982D01*
X0199163Y0142356D01*
X0196537Y0142356D01*
X0196537Y0143230D02*
X0199163Y0143230D01*
X0199163Y0144104D02*
X0196537Y0144104D01*
X0196537Y0144978D02*
X0199163Y0144978D01*
X0169486Y0184726D02*
X0166860Y0184726D01*
X0166860Y0187352D01*
X0169486Y0187352D01*
X0169486Y0184726D01*
X0169486Y0185600D02*
X0166860Y0185600D01*
X0166860Y0186474D02*
X0169486Y0186474D01*
X0169486Y0187348D02*
X0166860Y0187348D01*
X0163486Y0184726D02*
X0160860Y0184726D01*
X0160860Y0187352D01*
X0163486Y0187352D01*
X0163486Y0184726D01*
X0163486Y0185600D02*
X0160860Y0185600D01*
X0160860Y0186474D02*
X0163486Y0186474D01*
X0163486Y0187348D02*
X0160860Y0187348D01*
X0159793Y0232907D02*
X0159793Y0235533D01*
X0159793Y0232907D02*
X0157167Y0232907D01*
X0157167Y0235533D01*
X0159793Y0235533D01*
X0159793Y0233781D02*
X0157167Y0233781D01*
X0157167Y0234655D02*
X0159793Y0234655D01*
X0159793Y0235529D02*
X0157167Y0235529D01*
X0159793Y0238907D02*
X0159793Y0241533D01*
X0159793Y0238907D02*
X0157167Y0238907D01*
X0157167Y0241533D01*
X0159793Y0241533D01*
X0159793Y0239781D02*
X0157167Y0239781D01*
X0157167Y0240655D02*
X0159793Y0240655D01*
X0159793Y0241529D02*
X0157167Y0241529D01*
X0156730Y0246968D02*
X0159356Y0246968D01*
X0156730Y0246968D02*
X0156730Y0251094D01*
X0159356Y0251094D01*
X0159356Y0246968D01*
X0159356Y0247842D02*
X0156730Y0247842D01*
X0156730Y0248716D02*
X0159356Y0248716D01*
X0159356Y0249590D02*
X0156730Y0249590D01*
X0156730Y0250464D02*
X0159356Y0250464D01*
X0152356Y0246968D02*
X0149730Y0246968D01*
X0149730Y0251094D01*
X0152356Y0251094D01*
X0152356Y0246968D01*
X0152356Y0247842D02*
X0149730Y0247842D01*
X0149730Y0248716D02*
X0152356Y0248716D01*
X0152356Y0249590D02*
X0149730Y0249590D01*
X0149730Y0250464D02*
X0152356Y0250464D01*
X0139671Y0246968D02*
X0137045Y0246968D01*
X0137045Y0251094D01*
X0139671Y0251094D01*
X0139671Y0246968D01*
X0139671Y0247842D02*
X0137045Y0247842D01*
X0137045Y0248716D02*
X0139671Y0248716D01*
X0139671Y0249590D02*
X0137045Y0249590D01*
X0137045Y0250464D02*
X0139671Y0250464D01*
X0132671Y0246968D02*
X0130045Y0246968D01*
X0130045Y0251094D01*
X0132671Y0251094D01*
X0132671Y0246968D01*
X0132671Y0247842D02*
X0130045Y0247842D01*
X0130045Y0248716D02*
X0132671Y0248716D01*
X0132671Y0249590D02*
X0130045Y0249590D01*
X0130045Y0250464D02*
X0132671Y0250464D01*
X0140108Y0241533D02*
X0140108Y0238907D01*
X0137482Y0238907D01*
X0137482Y0241533D01*
X0140108Y0241533D01*
X0140108Y0239781D02*
X0137482Y0239781D01*
X0137482Y0240655D02*
X0140108Y0240655D01*
X0140108Y0241529D02*
X0137482Y0241529D01*
X0140108Y0235533D02*
X0140108Y0232907D01*
X0137482Y0232907D01*
X0137482Y0235533D01*
X0140108Y0235533D01*
X0140108Y0233781D02*
X0137482Y0233781D01*
X0137482Y0234655D02*
X0140108Y0234655D01*
X0140108Y0235529D02*
X0137482Y0235529D01*
X0119986Y0246968D02*
X0117360Y0246968D01*
X0117360Y0251094D01*
X0119986Y0251094D01*
X0119986Y0246968D01*
X0119986Y0247842D02*
X0117360Y0247842D01*
X0117360Y0248716D02*
X0119986Y0248716D01*
X0119986Y0249590D02*
X0117360Y0249590D01*
X0117360Y0250464D02*
X0119986Y0250464D01*
X0112986Y0246968D02*
X0110360Y0246968D01*
X0110360Y0251094D01*
X0112986Y0251094D01*
X0112986Y0246968D01*
X0112986Y0247842D02*
X0110360Y0247842D01*
X0110360Y0248716D02*
X0112986Y0248716D01*
X0112986Y0249590D02*
X0110360Y0249590D01*
X0110360Y0250464D02*
X0112986Y0250464D01*
X0109923Y0241533D02*
X0109923Y0238907D01*
X0109923Y0241533D02*
X0112549Y0241533D01*
X0112549Y0238907D01*
X0109923Y0238907D01*
X0109923Y0239781D02*
X0112549Y0239781D01*
X0112549Y0240655D02*
X0109923Y0240655D01*
X0109923Y0241529D02*
X0112549Y0241529D01*
X0109923Y0235533D02*
X0109923Y0232907D01*
X0109923Y0235533D02*
X0112549Y0235533D01*
X0112549Y0232907D01*
X0109923Y0232907D01*
X0109923Y0233781D02*
X0112549Y0233781D01*
X0112549Y0234655D02*
X0109923Y0234655D01*
X0109923Y0235529D02*
X0112549Y0235529D01*
X0068305Y0187352D02*
X0065679Y0187352D01*
X0068305Y0187352D02*
X0068305Y0184726D01*
X0065679Y0184726D01*
X0065679Y0187352D01*
X0065679Y0185600D02*
X0068305Y0185600D01*
X0068305Y0186474D02*
X0065679Y0186474D01*
X0065679Y0187348D02*
X0068305Y0187348D01*
X0062305Y0187352D02*
X0059679Y0187352D01*
X0062305Y0187352D02*
X0062305Y0184726D01*
X0059679Y0184726D01*
X0059679Y0187352D01*
X0059679Y0185600D02*
X0062305Y0185600D01*
X0062305Y0186474D02*
X0059679Y0186474D01*
X0059679Y0187348D02*
X0062305Y0187348D01*
X0035120Y0197474D02*
X0035120Y0200100D01*
X0037746Y0200100D01*
X0037746Y0197474D01*
X0035120Y0197474D01*
X0035120Y0198348D02*
X0037746Y0198348D01*
X0037746Y0199222D02*
X0035120Y0199222D01*
X0035120Y0200096D02*
X0037746Y0200096D01*
X0035120Y0203474D02*
X0035120Y0206100D01*
X0037746Y0206100D01*
X0037746Y0203474D01*
X0035120Y0203474D01*
X0035120Y0204348D02*
X0037746Y0204348D01*
X0037746Y0205222D02*
X0035120Y0205222D01*
X0035120Y0206096D02*
X0037746Y0206096D01*
X0036809Y0214911D02*
X0034183Y0214911D01*
X0036809Y0214911D02*
X0036809Y0212285D01*
X0034183Y0212285D01*
X0034183Y0214911D01*
X0034183Y0213159D02*
X0036809Y0213159D01*
X0036809Y0214033D02*
X0034183Y0214033D01*
X0034183Y0214907D02*
X0036809Y0214907D01*
X0036809Y0220159D02*
X0034183Y0220159D01*
X0034183Y0222785D01*
X0036809Y0222785D01*
X0036809Y0220159D01*
X0036809Y0221033D02*
X0034183Y0221033D01*
X0034183Y0221907D02*
X0036809Y0221907D01*
X0036809Y0222781D02*
X0034183Y0222781D01*
X0030809Y0220159D02*
X0028183Y0220159D01*
X0028183Y0222785D01*
X0030809Y0222785D01*
X0030809Y0220159D01*
X0030809Y0221033D02*
X0028183Y0221033D01*
X0028183Y0221907D02*
X0030809Y0221907D01*
X0030809Y0222781D02*
X0028183Y0222781D01*
X0028183Y0214911D02*
X0030809Y0214911D01*
X0030809Y0212285D01*
X0028183Y0212285D01*
X0028183Y0214911D01*
X0028183Y0213159D02*
X0030809Y0213159D01*
X0030809Y0214033D02*
X0028183Y0214033D01*
X0028183Y0214907D02*
X0030809Y0214907D01*
X0029872Y0206100D02*
X0029872Y0203474D01*
X0027246Y0203474D01*
X0027246Y0206100D01*
X0029872Y0206100D01*
X0029872Y0204348D02*
X0027246Y0204348D01*
X0027246Y0205222D02*
X0029872Y0205222D01*
X0029872Y0206096D02*
X0027246Y0206096D01*
X0029872Y0200100D02*
X0029872Y0197474D01*
X0027246Y0197474D01*
X0027246Y0200100D01*
X0029872Y0200100D01*
X0029872Y0198348D02*
X0027246Y0198348D01*
X0027246Y0199222D02*
X0029872Y0199222D01*
X0029872Y0200096D02*
X0027246Y0200096D01*
X0073179Y0150982D02*
X0073179Y0148356D01*
X0070553Y0148356D01*
X0070553Y0150982D01*
X0073179Y0150982D01*
X0073179Y0149230D02*
X0070553Y0149230D01*
X0070553Y0150104D02*
X0073179Y0150104D01*
X0073179Y0150978D02*
X0070553Y0150978D01*
X0073179Y0144982D02*
X0073179Y0142356D01*
X0070553Y0142356D01*
X0070553Y0144982D01*
X0073179Y0144982D01*
X0073179Y0143230D02*
X0070553Y0143230D01*
X0070553Y0144104D02*
X0073179Y0144104D01*
X0073179Y0144978D02*
X0070553Y0144978D01*
X0069679Y0132795D02*
X0067053Y0132795D01*
X0067053Y0136921D01*
X0069679Y0136921D01*
X0069679Y0132795D01*
X0069679Y0133669D02*
X0067053Y0133669D01*
X0067053Y0134543D02*
X0069679Y0134543D01*
X0069679Y0135417D02*
X0067053Y0135417D01*
X0067053Y0136291D02*
X0069679Y0136291D01*
X0074053Y0132795D02*
X0076679Y0132795D01*
X0074053Y0132795D02*
X0074053Y0136921D01*
X0076679Y0136921D01*
X0076679Y0132795D01*
X0076679Y0133669D02*
X0074053Y0133669D01*
X0074053Y0134543D02*
X0076679Y0134543D01*
X0076679Y0135417D02*
X0074053Y0135417D01*
X0074053Y0136291D02*
X0076679Y0136291D01*
X0090238Y0142356D02*
X0090238Y0144982D01*
X0092864Y0144982D01*
X0092864Y0142356D01*
X0090238Y0142356D01*
X0090238Y0143230D02*
X0092864Y0143230D01*
X0092864Y0144104D02*
X0090238Y0144104D01*
X0090238Y0144978D02*
X0092864Y0144978D01*
X0090238Y0148356D02*
X0090238Y0150982D01*
X0092864Y0150982D01*
X0092864Y0148356D01*
X0090238Y0148356D01*
X0090238Y0149230D02*
X0092864Y0149230D01*
X0092864Y0150104D02*
X0090238Y0150104D01*
X0090238Y0150978D02*
X0092864Y0150978D01*
X0113860Y0150982D02*
X0113860Y0148356D01*
X0113860Y0150982D02*
X0116486Y0150982D01*
X0116486Y0148356D01*
X0113860Y0148356D01*
X0113860Y0149230D02*
X0116486Y0149230D01*
X0116486Y0150104D02*
X0113860Y0150104D01*
X0113860Y0150978D02*
X0116486Y0150978D01*
X0113860Y0144982D02*
X0113860Y0142356D01*
X0113860Y0144982D02*
X0116486Y0144982D01*
X0116486Y0142356D01*
X0113860Y0142356D01*
X0113860Y0143230D02*
X0116486Y0143230D01*
X0116486Y0144104D02*
X0113860Y0144104D01*
X0113860Y0144978D02*
X0116486Y0144978D01*
X0168978Y0232907D02*
X0168978Y0235533D01*
X0171604Y0235533D01*
X0171604Y0232907D01*
X0168978Y0232907D01*
X0168978Y0233781D02*
X0171604Y0233781D01*
X0171604Y0234655D02*
X0168978Y0234655D01*
X0168978Y0235529D02*
X0171604Y0235529D01*
X0168978Y0238907D02*
X0168978Y0241533D01*
X0171604Y0241533D01*
X0171604Y0238907D01*
X0168978Y0238907D01*
X0168978Y0239781D02*
X0171604Y0239781D01*
X0171604Y0240655D02*
X0168978Y0240655D01*
X0168978Y0241529D02*
X0171604Y0241529D01*
X0172041Y0246968D02*
X0169415Y0246968D01*
X0169415Y0251094D01*
X0172041Y0251094D01*
X0172041Y0246968D01*
X0172041Y0247842D02*
X0169415Y0247842D01*
X0169415Y0248716D02*
X0172041Y0248716D01*
X0172041Y0249590D02*
X0169415Y0249590D01*
X0169415Y0250464D02*
X0172041Y0250464D01*
X0176415Y0246968D02*
X0179041Y0246968D01*
X0176415Y0246968D02*
X0176415Y0251094D01*
X0179041Y0251094D01*
X0179041Y0246968D01*
X0179041Y0247842D02*
X0176415Y0247842D01*
X0176415Y0248716D02*
X0179041Y0248716D01*
X0179041Y0249590D02*
X0176415Y0249590D01*
X0176415Y0250464D02*
X0179041Y0250464D01*
D12*
X0187350Y0186039D03*
X0208350Y0186039D03*
X0200476Y0091551D03*
X0179476Y0091551D03*
X0102051Y0186039D03*
X0081051Y0186039D03*
X0039059Y0024622D03*
X0018059Y0024622D03*
D13*
X0050213Y0046669D03*
X0050213Y0091551D03*
X0119110Y0091551D03*
X0119110Y0046669D03*
D14*
X0138732Y0044307D03*
X0146732Y0040807D03*
X0146732Y0047807D03*
X0170228Y0044307D03*
X0178228Y0040807D03*
X0178228Y0047807D03*
X0052244Y0198287D03*
X0052244Y0205287D03*
X0044244Y0201787D03*
X0020748Y0198287D03*
X0020748Y0205287D03*
X0012748Y0201787D03*
D15*
X0071866Y0115339D03*
X0071866Y0099260D03*
M02*
