G75*
%MOIN*%
%OFA0B0*%
%FSLAX25Y25*%
%IPPOS*%
%LPD*%
%AMOC8*
5,1,8,0,0,1.08239X$1,22.5*
%
%ADD10C,0.00000*%
%ADD11C,0.01500*%
%ADD12C,0.06000*%
%ADD13R,0.06000X0.06000*%
%ADD14R,0.05150X0.05150*%
%ADD15C,0.05150*%
%ADD16C,0.07400*%
%ADD17C,0.05543*%
%ADD18R,0.04724X0.04724*%
%ADD19R,0.05118X0.06299*%
%ADD20R,0.05906X0.05118*%
%ADD21R,0.13780X0.06299*%
%ADD22C,0.16598*%
%ADD23C,0.16200*%
%ADD24R,0.05118X0.05906*%
%ADD25R,0.10000X0.10000*%
%ADD26C,0.05937*%
%ADD27C,0.06000*%
%ADD28R,0.06693X0.07087*%
%ADD29OC8,0.06000*%
%ADD30R,0.05000X0.02500*%
%ADD31C,0.01600*%
%ADD32C,0.01200*%
%ADD33C,0.05000*%
%ADD34OC8,0.02400*%
%ADD35C,0.03200*%
%ADD36C,0.02400*%
%ADD37C,0.01000*%
%ADD38C,0.04400*%
%ADD39C,0.02400*%
%ADD40C,0.04000*%
D10*
X0001000Y0004937D02*
X0001000Y0256906D01*
X0004937Y0260843D01*
X0315961Y0260843D01*
X0320409Y0256906D01*
X0320409Y0004937D01*
X0315961Y0001000D01*
X0004937Y0001000D01*
X0001000Y0004937D01*
D11*
X0250963Y0071752D02*
X0256634Y0071752D01*
X0253798Y0074587D02*
X0253798Y0068916D01*
D12*
X0304150Y0092063D03*
X0304150Y0102063D03*
X0304150Y0112063D03*
X0304150Y0122063D03*
X0304150Y0132063D03*
X0304150Y0142063D03*
X0304150Y0152063D03*
X0304150Y0162063D03*
X0304150Y0172063D03*
X0304150Y0182063D03*
X0304150Y0192063D03*
X0304150Y0202063D03*
X0304150Y0212063D03*
X0016039Y0172063D03*
X0016039Y0162063D03*
X0016039Y0152063D03*
X0016039Y0142063D03*
D13*
X0304150Y0222063D03*
D14*
X0288402Y0008874D03*
D15*
X0278402Y0008874D03*
X0268402Y0008874D03*
X0258402Y0008874D03*
X0248402Y0008874D03*
X0238402Y0008874D03*
X0228402Y0008874D03*
X0218402Y0008874D03*
X0208402Y0008874D03*
X0198402Y0008874D03*
X0188402Y0008874D03*
X0178402Y0008874D03*
X0168402Y0008874D03*
X0158402Y0008874D03*
X0148402Y0008874D03*
X0138402Y0008874D03*
X0128402Y0008874D03*
X0118402Y0008874D03*
X0108402Y0008874D03*
X0108402Y0108874D03*
X0118402Y0108874D03*
X0128402Y0108874D03*
X0138402Y0108874D03*
X0148402Y0108874D03*
X0158402Y0108874D03*
X0168402Y0108874D03*
X0178402Y0108874D03*
X0188402Y0108874D03*
X0198402Y0108874D03*
X0208402Y0108874D03*
X0218402Y0108874D03*
X0228402Y0108874D03*
X0238402Y0108874D03*
X0248402Y0108874D03*
X0258402Y0108874D03*
X0268402Y0108874D03*
X0278402Y0108874D03*
X0288402Y0108874D03*
D16*
X0290213Y0071866D03*
X0300213Y0071866D03*
X0274780Y0071866D03*
X0264780Y0071866D03*
X0235409Y0063992D03*
X0225409Y0063992D03*
D17*
X0223165Y0160724D03*
X0213165Y0160724D03*
X0203165Y0160724D03*
X0193165Y0160724D03*
X0183165Y0160724D03*
X0173165Y0160724D03*
X0173165Y0210724D03*
X0183165Y0210724D03*
X0193165Y0210724D03*
X0203165Y0210724D03*
X0213165Y0210724D03*
X0223165Y0210724D03*
X0233165Y0210724D03*
X0243165Y0210724D03*
X0243165Y0160724D03*
X0233165Y0160724D03*
X0109307Y0160724D03*
X0099307Y0160724D03*
X0089307Y0160724D03*
X0079307Y0160724D03*
X0069307Y0160724D03*
X0059307Y0160724D03*
X0049307Y0160724D03*
X0039307Y0160724D03*
X0039307Y0210724D03*
X0049307Y0210724D03*
X0059307Y0210724D03*
X0069307Y0210724D03*
X0079307Y0210724D03*
X0089307Y0210724D03*
X0099307Y0210724D03*
X0109307Y0210724D03*
D18*
X0114976Y0245094D03*
X0123244Y0245094D03*
X0134661Y0245094D03*
X0142929Y0245094D03*
X0154346Y0245094D03*
X0162614Y0245094D03*
X0103559Y0245094D03*
X0095291Y0245094D03*
X0205528Y0063992D03*
X0213795Y0063992D03*
D19*
X0189780Y0063992D03*
X0182299Y0063992D03*
X0182299Y0083677D03*
X0189780Y0083677D03*
X0186236Y0146669D03*
X0193717Y0146669D03*
X0217732Y0146669D03*
X0225213Y0146669D03*
X0162220Y0229346D03*
X0154740Y0229346D03*
X0142535Y0229346D03*
X0135055Y0229346D03*
X0122850Y0229346D03*
X0115370Y0229346D03*
X0103165Y0229346D03*
X0095685Y0229346D03*
X0091354Y0146669D03*
X0083874Y0146669D03*
X0059858Y0146669D03*
X0052378Y0146669D03*
D20*
X0028559Y0182299D03*
X0028559Y0189780D03*
X0162417Y0189780D03*
X0162417Y0182299D03*
D21*
X0191157Y0186039D03*
X0212417Y0186039D03*
X0157299Y0060055D03*
X0136039Y0060055D03*
X0035252Y0024622D03*
X0013992Y0024622D03*
X0057299Y0186039D03*
X0078559Y0186039D03*
D22*
X0257387Y0039189D03*
D23*
X0269898Y0024380D03*
X0286209Y0039089D03*
D24*
X0150409Y0036433D03*
X0142929Y0036433D03*
X0028362Y0048244D03*
X0020882Y0048244D03*
D25*
X0050213Y0046669D03*
X0050213Y0091551D03*
X0119110Y0091551D03*
X0119110Y0046669D03*
D26*
X0087630Y0033480D02*
X0081693Y0033480D01*
X0081693Y0015764D02*
X0087630Y0015764D01*
X0062039Y0015764D02*
X0056102Y0015764D01*
X0056102Y0033480D02*
X0062039Y0033480D01*
D27*
X0043559Y0238906D02*
X0043559Y0244906D01*
X0033559Y0244906D02*
X0033559Y0238906D01*
X0023559Y0238906D02*
X0023559Y0244906D01*
X0013559Y0244906D02*
X0013559Y0238906D01*
X0190724Y0238906D02*
X0190724Y0244906D01*
X0200724Y0244906D02*
X0200724Y0238906D01*
X0210724Y0238906D02*
X0210724Y0244906D01*
X0220724Y0244906D02*
X0220724Y0238906D01*
X0270528Y0238906D02*
X0270528Y0244906D01*
X0280528Y0244906D02*
X0280528Y0238906D01*
X0290528Y0238906D02*
X0290528Y0244906D01*
D28*
X0235646Y0052378D03*
X0235646Y0036236D03*
D29*
X0029622Y0070488D03*
X0019622Y0070488D03*
X0019622Y0080488D03*
X0029622Y0080488D03*
X0029622Y0090488D03*
X0019622Y0090488D03*
X0019622Y0100488D03*
X0029622Y0100488D03*
X0029622Y0110488D03*
X0019622Y0110488D03*
X0019622Y0120488D03*
X0029622Y0120488D03*
D30*
X0008874Y0082940D03*
X0008874Y0079740D03*
X0008874Y0076540D03*
D31*
X0006033Y0071290D02*
X0007611Y0069712D01*
X0007611Y0068863D01*
X0008403Y0066952D01*
X0014308Y0061047D01*
X0015771Y0059584D01*
X0017682Y0058792D01*
X0031562Y0058792D01*
X0033473Y0059584D01*
X0039379Y0065489D01*
X0040841Y0066952D01*
X0041538Y0068635D01*
X0047310Y0068635D01*
X0049221Y0069426D01*
X0050684Y0070889D01*
X0062070Y0082275D01*
X0070117Y0074429D01*
X0068605Y0074429D01*
X0066216Y0073440D01*
X0048445Y0055669D01*
X0044417Y0055669D01*
X0042947Y0055060D01*
X0042631Y0054744D01*
X0032810Y0054744D01*
X0031717Y0055197D01*
X0025007Y0055197D01*
X0023537Y0054588D01*
X0022946Y0053997D01*
X0021361Y0053997D01*
X0021361Y0048724D01*
X0020402Y0048724D01*
X0020402Y0053997D01*
X0018047Y0053997D01*
X0017506Y0053889D01*
X0016997Y0053678D01*
X0016538Y0053372D01*
X0016148Y0052982D01*
X0015842Y0052523D01*
X0015630Y0052014D01*
X0015523Y0051473D01*
X0015523Y0048724D01*
X0020402Y0048724D01*
X0020402Y0047765D01*
X0015523Y0047765D01*
X0015523Y0045016D01*
X0015630Y0044475D01*
X0015842Y0043965D01*
X0016148Y0043506D01*
X0016538Y0043116D01*
X0016997Y0042810D01*
X0017506Y0042599D01*
X0018047Y0042491D01*
X0020402Y0042491D01*
X0020402Y0047764D01*
X0021361Y0047764D01*
X0021361Y0042491D01*
X0022946Y0042491D01*
X0023537Y0041900D01*
X0025007Y0041291D01*
X0031717Y0041291D01*
X0032810Y0041744D01*
X0035839Y0041744D01*
X0035839Y0031772D01*
X0027567Y0031772D01*
X0026096Y0031163D01*
X0024971Y0030037D01*
X0024362Y0028567D01*
X0024362Y0020677D01*
X0024971Y0019207D01*
X0026096Y0018081D01*
X0027567Y0017472D01*
X0042937Y0017472D01*
X0044408Y0018081D01*
X0045026Y0018700D01*
X0046021Y0019112D01*
X0047849Y0020940D01*
X0048839Y0023329D01*
X0048839Y0037669D01*
X0052133Y0037669D01*
X0051702Y0037238D01*
X0051169Y0036504D01*
X0050756Y0035695D01*
X0050476Y0034831D01*
X0050334Y0033934D01*
X0050334Y0033665D01*
X0058887Y0033665D01*
X0058887Y0039249D01*
X0058449Y0039249D01*
X0058604Y0039403D01*
X0059213Y0040874D01*
X0059213Y0048052D01*
X0075408Y0064247D01*
X0076398Y0066636D01*
X0076398Y0068305D01*
X0088320Y0056681D01*
X0088320Y0039211D01*
X0088084Y0039249D01*
X0084846Y0039249D01*
X0084846Y0033665D01*
X0084477Y0033665D01*
X0084477Y0039249D01*
X0081239Y0039249D01*
X0080342Y0039107D01*
X0079479Y0038826D01*
X0078670Y0038414D01*
X0077935Y0037880D01*
X0077293Y0037238D01*
X0076759Y0036504D01*
X0076347Y0035695D01*
X0076066Y0034831D01*
X0075924Y0033934D01*
X0075924Y0033665D01*
X0084477Y0033665D01*
X0084477Y0033296D01*
X0075924Y0033296D01*
X0075924Y0033026D01*
X0076066Y0032130D01*
X0076347Y0031266D01*
X0076759Y0030457D01*
X0077293Y0029722D01*
X0077935Y0029080D01*
X0078670Y0028547D01*
X0079479Y0028134D01*
X0080342Y0027854D01*
X0081239Y0027712D01*
X0084477Y0027712D01*
X0084477Y0033296D01*
X0084846Y0033296D01*
X0084846Y0027712D01*
X0088084Y0027712D01*
X0088320Y0027749D01*
X0088320Y0024446D01*
X0088309Y0024420D01*
X0088320Y0023413D01*
X0088320Y0022732D01*
X0080307Y0022732D01*
X0077746Y0021671D01*
X0077322Y0021248D01*
X0066410Y0021248D01*
X0065987Y0021671D01*
X0063425Y0022732D01*
X0054716Y0022732D01*
X0052155Y0021671D01*
X0050195Y0019711D01*
X0049134Y0017150D01*
X0049134Y0014378D01*
X0050195Y0011816D01*
X0052155Y0009856D01*
X0054716Y0008795D01*
X0063425Y0008795D01*
X0065987Y0009856D01*
X0067947Y0011816D01*
X0068126Y0012248D01*
X0075607Y0012248D01*
X0075785Y0011816D01*
X0077746Y0009856D01*
X0080307Y0008795D01*
X0089016Y0008795D01*
X0091577Y0009856D01*
X0093538Y0011816D01*
X0094598Y0014378D01*
X0094598Y0015109D01*
X0101827Y0008033D01*
X0101827Y0007566D01*
X0102828Y0005150D01*
X0102977Y0005000D01*
X0008811Y0005000D01*
X0005000Y0008811D01*
X0005000Y0019615D01*
X0005317Y0019298D01*
X0005776Y0018991D01*
X0006286Y0018780D01*
X0006827Y0018672D01*
X0013217Y0018672D01*
X0013217Y0023847D01*
X0014767Y0023847D01*
X0014767Y0018672D01*
X0021158Y0018672D01*
X0021699Y0018780D01*
X0022208Y0018991D01*
X0022667Y0019298D01*
X0023057Y0019688D01*
X0023363Y0020146D01*
X0023574Y0020656D01*
X0023682Y0021197D01*
X0023682Y0023847D01*
X0014767Y0023847D01*
X0014767Y0025397D01*
X0013217Y0025397D01*
X0013217Y0030572D01*
X0006827Y0030572D01*
X0006286Y0030464D01*
X0005776Y0030253D01*
X0005317Y0029947D01*
X0005000Y0029629D01*
X0005000Y0071530D01*
X0005578Y0071290D01*
X0006033Y0071290D01*
X0005313Y0071400D02*
X0005000Y0071400D01*
X0007400Y0069923D02*
X0007400Y0030572D01*
X0005171Y0029800D02*
X0005000Y0029800D01*
X0005000Y0033000D02*
X0035839Y0033000D01*
X0033000Y0031772D02*
X0033000Y0041744D01*
X0029800Y0041291D02*
X0029800Y0031772D01*
X0026600Y0031371D02*
X0026600Y0041291D01*
X0023400Y0042038D02*
X0023400Y0029009D01*
X0023363Y0029098D02*
X0023057Y0029557D01*
X0022667Y0029947D01*
X0022208Y0030253D01*
X0021699Y0030464D01*
X0021158Y0030572D01*
X0014767Y0030572D01*
X0014767Y0025397D01*
X0023682Y0025397D01*
X0023682Y0028047D01*
X0023574Y0028588D01*
X0023363Y0029098D01*
X0022813Y0029800D02*
X0024873Y0029800D01*
X0024362Y0026600D02*
X0023682Y0026600D01*
X0023400Y0025397D02*
X0023400Y0023847D01*
X0023682Y0023400D02*
X0024362Y0023400D01*
X0024560Y0020200D02*
X0023386Y0020200D01*
X0023400Y0020235D02*
X0023400Y0005000D01*
X0020200Y0005000D02*
X0020200Y0018672D01*
X0017000Y0018672D02*
X0017000Y0005000D01*
X0013800Y0005000D02*
X0013800Y0023847D01*
X0013217Y0023400D02*
X0014767Y0023400D01*
X0013800Y0025397D02*
X0013800Y0061555D01*
X0013555Y0061800D02*
X0005000Y0061800D01*
X0005000Y0058600D02*
X0051376Y0058600D01*
X0052200Y0059424D02*
X0052200Y0072405D01*
X0051195Y0071400D02*
X0064176Y0071400D01*
X0065000Y0072224D02*
X0065000Y0079418D01*
X0063378Y0081000D02*
X0060795Y0081000D01*
X0061800Y0082005D02*
X0061800Y0069024D01*
X0060976Y0068200D02*
X0041358Y0068200D01*
X0042600Y0068635D02*
X0042600Y0054744D01*
X0043767Y0055400D02*
X0005000Y0055400D01*
X0005000Y0052200D02*
X0015708Y0052200D01*
X0017000Y0053680D02*
X0017000Y0059075D01*
X0020200Y0058792D02*
X0020200Y0053997D01*
X0020402Y0052200D02*
X0021361Y0052200D01*
X0023400Y0054451D02*
X0023400Y0058792D01*
X0026600Y0058792D02*
X0026600Y0055197D01*
X0029800Y0055197D02*
X0029800Y0058792D01*
X0033000Y0059388D02*
X0033000Y0054744D01*
X0036200Y0054744D02*
X0036200Y0062311D01*
X0035689Y0061800D02*
X0054576Y0061800D01*
X0055400Y0062624D02*
X0055400Y0075605D01*
X0054395Y0074600D02*
X0069942Y0074600D01*
X0068200Y0074261D02*
X0068200Y0076298D01*
X0066660Y0077800D02*
X0057595Y0077800D01*
X0058600Y0078805D02*
X0058600Y0065824D01*
X0057776Y0065000D02*
X0038889Y0065000D01*
X0039400Y0065511D02*
X0039400Y0054744D01*
X0045800Y0055669D02*
X0045800Y0068635D01*
X0049000Y0069335D02*
X0049000Y0056224D01*
X0060161Y0049000D02*
X0088320Y0049000D01*
X0088320Y0045800D02*
X0059213Y0045800D01*
X0059213Y0042600D02*
X0088320Y0042600D01*
X0088320Y0039400D02*
X0058600Y0039400D01*
X0058600Y0039249D01*
X0059255Y0039249D02*
X0059255Y0033665D01*
X0058887Y0033665D01*
X0058887Y0033296D01*
X0059255Y0033296D01*
X0059255Y0027712D01*
X0062493Y0027712D01*
X0063390Y0027854D01*
X0064254Y0028134D01*
X0065063Y0028547D01*
X0065797Y0029080D01*
X0066439Y0029722D01*
X0066973Y0030457D01*
X0067385Y0031266D01*
X0067666Y0032130D01*
X0067808Y0033026D01*
X0067808Y0033296D01*
X0059255Y0033296D01*
X0059255Y0033665D01*
X0067808Y0033665D01*
X0067808Y0033934D01*
X0067666Y0034831D01*
X0067385Y0035695D01*
X0066973Y0036504D01*
X0066439Y0037238D01*
X0065797Y0037880D01*
X0065063Y0038414D01*
X0064254Y0038826D01*
X0063390Y0039107D01*
X0062493Y0039249D01*
X0059255Y0039249D01*
X0061800Y0039249D02*
X0061800Y0050639D01*
X0063361Y0052200D02*
X0088320Y0052200D01*
X0088320Y0055400D02*
X0066561Y0055400D01*
X0065000Y0053839D02*
X0065000Y0038446D01*
X0067128Y0036200D02*
X0076605Y0036200D01*
X0077800Y0037745D02*
X0077800Y0066938D01*
X0076506Y0068200D02*
X0076398Y0068200D01*
X0075720Y0065000D02*
X0079788Y0065000D01*
X0081000Y0063818D02*
X0081000Y0039211D01*
X0084200Y0039249D02*
X0084200Y0060698D01*
X0083070Y0061800D02*
X0072961Y0061800D01*
X0071400Y0060239D02*
X0071400Y0021248D01*
X0068200Y0021248D02*
X0068200Y0057039D01*
X0069761Y0058600D02*
X0086352Y0058600D01*
X0087400Y0057578D02*
X0087400Y0039249D01*
X0084846Y0036200D02*
X0084477Y0036200D01*
X0084200Y0033665D02*
X0084200Y0033296D01*
X0084477Y0033000D02*
X0084846Y0033000D01*
X0084846Y0029800D02*
X0084477Y0029800D01*
X0084200Y0027712D02*
X0084200Y0022732D01*
X0081000Y0022732D02*
X0081000Y0027750D01*
X0077800Y0029215D02*
X0077800Y0021694D01*
X0074600Y0021248D02*
X0074600Y0063439D01*
X0048838Y0083751D02*
X0044122Y0079035D01*
X0038587Y0079035D01*
X0036622Y0081000D01*
X0046087Y0081000D01*
X0045800Y0080713D02*
X0045800Y0083751D01*
X0044937Y0083751D02*
X0048838Y0083751D01*
X0044937Y0083751D02*
X0044396Y0083859D01*
X0043886Y0084070D01*
X0043428Y0084376D01*
X0043038Y0084766D01*
X0042731Y0085225D01*
X0042520Y0085734D01*
X0042413Y0086275D01*
X0042413Y0090751D01*
X0049413Y0090751D01*
X0049413Y0092351D01*
X0049413Y0099351D01*
X0044937Y0099351D01*
X0044396Y0099244D01*
X0043886Y0099032D01*
X0043428Y0098726D01*
X0043038Y0098336D01*
X0042731Y0097877D01*
X0042520Y0097368D01*
X0042413Y0096827D01*
X0042413Y0092351D01*
X0049413Y0092351D01*
X0051013Y0092351D01*
X0051013Y0099351D01*
X0055488Y0099351D01*
X0056029Y0099244D01*
X0056539Y0099032D01*
X0056997Y0098726D01*
X0057387Y0098336D01*
X0057694Y0097877D01*
X0057905Y0097368D01*
X0058013Y0096827D01*
X0058013Y0092926D01*
X0058324Y0093237D01*
X0059022Y0093953D01*
X0059054Y0093967D01*
X0070603Y0105516D01*
X0070603Y0127625D01*
X0071395Y0129536D01*
X0081378Y0139520D01*
X0080519Y0139520D01*
X0079049Y0140129D01*
X0077924Y0141254D01*
X0077315Y0142724D01*
X0077315Y0144668D01*
X0076431Y0145553D01*
X0073028Y0148956D01*
X0066581Y0148956D01*
X0065217Y0149521D01*
X0065217Y0147149D01*
X0060338Y0147149D01*
X0060338Y0146190D01*
X0065217Y0146190D01*
X0065217Y0143244D01*
X0065110Y0142703D01*
X0064899Y0142193D01*
X0064592Y0141735D01*
X0064202Y0141345D01*
X0063744Y0141038D01*
X0063234Y0140827D01*
X0062693Y0140720D01*
X0060338Y0140720D01*
X0060338Y0146190D01*
X0059379Y0146190D01*
X0059379Y0140720D01*
X0057794Y0140720D01*
X0057203Y0140129D01*
X0055733Y0139520D01*
X0049023Y0139520D01*
X0047553Y0140129D01*
X0046428Y0141254D01*
X0045819Y0142724D01*
X0045819Y0150615D01*
X0046428Y0152085D01*
X0047553Y0153210D01*
X0047681Y0153263D01*
X0047681Y0154068D01*
X0045471Y0154984D01*
X0044307Y0156148D01*
X0043143Y0154984D01*
X0040654Y0153953D01*
X0037960Y0153953D01*
X0035471Y0154984D01*
X0033566Y0156889D01*
X0032535Y0159377D01*
X0032535Y0162071D01*
X0033566Y0164560D01*
X0034813Y0165806D01*
X0035513Y0167498D01*
X0036864Y0168849D01*
X0040013Y0171998D01*
X0041777Y0172729D01*
X0061797Y0172729D01*
X0063561Y0171998D01*
X0064912Y0170648D01*
X0068064Y0167496D01*
X0070654Y0167496D01*
X0073143Y0166465D01*
X0074307Y0165301D01*
X0075066Y0166060D01*
X0074570Y0166060D01*
X0072291Y0167004D01*
X0070547Y0168748D01*
X0070547Y0168748D01*
X0061424Y0177871D01*
X0059281Y0177871D01*
X0059244Y0177856D01*
X0058049Y0177871D01*
X0056853Y0177871D01*
X0056817Y0177886D01*
X0056778Y0177886D01*
X0056747Y0177900D01*
X0055693Y0176846D01*
X0053414Y0175902D01*
X0033569Y0175902D01*
X0033418Y0175849D01*
X0032661Y0175886D01*
X0032307Y0175740D01*
X0024811Y0175740D01*
X0023340Y0176349D01*
X0022215Y0177474D01*
X0021606Y0178945D01*
X0021606Y0185654D01*
X0022215Y0187124D01*
X0022806Y0187715D01*
X0022806Y0189300D01*
X0028079Y0189300D01*
X0028079Y0190259D01*
X0022806Y0190259D01*
X0022806Y0192614D01*
X0022914Y0193155D01*
X0023125Y0193665D01*
X0023431Y0194123D01*
X0023821Y0194513D01*
X0024280Y0194820D01*
X0024790Y0195031D01*
X0025331Y0195139D01*
X0028080Y0195139D01*
X0028080Y0190259D01*
X0029039Y0190259D01*
X0029039Y0195139D01*
X0031788Y0195139D01*
X0032329Y0195031D01*
X0032838Y0194820D01*
X0033297Y0194513D01*
X0033687Y0194123D01*
X0033993Y0193665D01*
X0034170Y0193238D01*
X0034170Y0206285D01*
X0033566Y0206889D01*
X0032535Y0209377D01*
X0032535Y0212071D01*
X0033566Y0214560D01*
X0035471Y0216465D01*
X0037960Y0217496D01*
X0040654Y0217496D01*
X0043143Y0216465D01*
X0045048Y0214560D01*
X0045111Y0214408D01*
X0045677Y0214974D01*
X0046387Y0215490D01*
X0047168Y0215888D01*
X0048002Y0216159D01*
X0048869Y0216296D01*
X0049221Y0216296D01*
X0049221Y0210810D01*
X0049393Y0210810D01*
X0049393Y0216296D01*
X0049746Y0216296D01*
X0050612Y0216159D01*
X0051446Y0215888D01*
X0052227Y0215490D01*
X0052937Y0214974D01*
X0053503Y0214408D01*
X0053566Y0214560D01*
X0055471Y0216465D01*
X0057960Y0217496D01*
X0060654Y0217496D01*
X0063143Y0216465D01*
X0064307Y0215301D01*
X0065471Y0216465D01*
X0067960Y0217496D01*
X0070654Y0217496D01*
X0073143Y0216465D01*
X0074307Y0215301D01*
X0075471Y0216465D01*
X0077960Y0217496D01*
X0080654Y0217496D01*
X0083143Y0216465D01*
X0084307Y0215301D01*
X0085471Y0216465D01*
X0087960Y0217496D01*
X0089748Y0217496D01*
X0090238Y0218680D01*
X0091588Y0220030D01*
X0093755Y0222197D01*
X0092330Y0222197D01*
X0090860Y0222806D01*
X0089735Y0223931D01*
X0089126Y0225401D01*
X0089126Y0233292D01*
X0089735Y0234762D01*
X0090860Y0235887D01*
X0090988Y0235940D01*
X0090988Y0239207D01*
X0090663Y0239341D01*
X0089538Y0240466D01*
X0088929Y0241937D01*
X0088929Y0248252D01*
X0089538Y0249723D01*
X0090663Y0250848D01*
X0092133Y0251457D01*
X0098449Y0251457D01*
X0099919Y0250848D01*
X0100579Y0250189D01*
X0100921Y0250257D01*
X0103178Y0250257D01*
X0103178Y0245476D01*
X0103940Y0245476D01*
X0103940Y0250257D01*
X0106197Y0250257D01*
X0106738Y0250149D01*
X0107248Y0249938D01*
X0107706Y0249632D01*
X0108096Y0249242D01*
X0108403Y0248783D01*
X0108614Y0248273D01*
X0108617Y0248258D01*
X0109223Y0249723D01*
X0110348Y0250848D01*
X0111819Y0251457D01*
X0114747Y0251457D01*
X0117009Y0253719D01*
X0118360Y0255069D01*
X0120124Y0255800D01*
X0127939Y0255800D01*
X0129703Y0255069D01*
X0133316Y0251457D01*
X0134929Y0251457D01*
X0134980Y0251581D01*
X0136246Y0252846D01*
X0136246Y0252846D01*
X0136949Y0253549D01*
X0138215Y0254815D01*
X0139869Y0255500D01*
X0165281Y0255500D01*
X0166935Y0254815D01*
X0180714Y0241035D01*
X0181980Y0239770D01*
X0182665Y0238116D01*
X0182665Y0216286D01*
X0182727Y0216296D01*
X0183080Y0216296D01*
X0183080Y0210810D01*
X0183251Y0210810D01*
X0185745Y0210810D01*
X0185745Y0210639D01*
X0183251Y0210639D01*
X0183251Y0210810D01*
X0183251Y0216296D01*
X0183604Y0216296D01*
X0184470Y0216159D01*
X0185304Y0215888D01*
X0185745Y0215663D01*
X0185745Y0233986D01*
X0184790Y0234940D01*
X0183724Y0237513D01*
X0183724Y0246298D01*
X0184790Y0248871D01*
X0186759Y0250840D01*
X0189332Y0251905D01*
X0192117Y0251905D01*
X0194690Y0250840D01*
X0195724Y0249805D01*
X0196759Y0250840D01*
X0199332Y0251905D01*
X0202117Y0251905D01*
X0204690Y0250840D01*
X0205724Y0249805D01*
X0206759Y0250840D01*
X0209332Y0251905D01*
X0212117Y0251905D01*
X0214690Y0250840D01*
X0215724Y0249805D01*
X0216759Y0250840D01*
X0219332Y0251905D01*
X0222117Y0251905D01*
X0224690Y0250840D01*
X0226659Y0248871D01*
X0227724Y0246298D01*
X0227724Y0237513D01*
X0227672Y0237388D01*
X0227672Y0234940D01*
X0230319Y0234940D01*
X0233365Y0231894D01*
X0233365Y0227586D01*
X0232965Y0227186D01*
X0232965Y0217496D01*
X0234512Y0217496D01*
X0237001Y0216465D01*
X0238906Y0214560D01*
X0238969Y0214408D01*
X0239536Y0214974D01*
X0240245Y0215490D01*
X0241027Y0215888D01*
X0241861Y0216159D01*
X0242727Y0216296D01*
X0243080Y0216296D01*
X0243080Y0210810D01*
X0243251Y0210810D01*
X0248737Y0210810D01*
X0248737Y0211163D01*
X0248600Y0212029D01*
X0248329Y0212863D01*
X0247931Y0213645D01*
X0247415Y0214354D01*
X0246795Y0214974D01*
X0246086Y0215490D01*
X0245304Y0215888D01*
X0244470Y0216159D01*
X0243604Y0216296D01*
X0243251Y0216296D01*
X0243251Y0210810D01*
X0243251Y0210639D01*
X0248737Y0210639D01*
X0248737Y0210286D01*
X0248600Y0209420D01*
X0248329Y0208586D01*
X0247931Y0207804D01*
X0247415Y0207095D01*
X0246795Y0206475D01*
X0246086Y0205959D01*
X0245304Y0205561D01*
X0244470Y0205290D01*
X0243604Y0205153D01*
X0243251Y0205153D01*
X0243251Y0210638D01*
X0243080Y0210638D01*
X0243080Y0205153D01*
X0242727Y0205153D01*
X0241861Y0205290D01*
X0241027Y0205561D01*
X0240245Y0205959D01*
X0239536Y0206475D01*
X0238969Y0207041D01*
X0238906Y0206889D01*
X0238397Y0206379D01*
X0238468Y0196476D01*
X0253440Y0181505D01*
X0254231Y0179593D01*
X0254231Y0157446D01*
X0253440Y0155535D01*
X0251977Y0154072D01*
X0240166Y0142261D01*
X0238255Y0141469D01*
X0237963Y0141469D01*
X0238483Y0140949D01*
X0238483Y0136641D01*
X0235437Y0133595D01*
X0234872Y0133595D01*
X0233202Y0131925D01*
X0233202Y0113372D01*
X0233402Y0113172D01*
X0234677Y0114448D01*
X0237094Y0115449D01*
X0239709Y0115449D01*
X0242126Y0114448D01*
X0243402Y0113172D01*
X0244677Y0114448D01*
X0247094Y0115449D01*
X0249709Y0115449D01*
X0252126Y0114448D01*
X0252406Y0114168D01*
X0252406Y0145784D01*
X0251706Y0146484D01*
X0251706Y0150792D01*
X0254752Y0153838D01*
X0259059Y0153838D01*
X0262105Y0150792D01*
X0262105Y0146484D01*
X0261405Y0145784D01*
X0261405Y0114746D01*
X0262126Y0114448D01*
X0263402Y0113172D01*
X0264677Y0114448D01*
X0267094Y0115449D01*
X0269709Y0115449D01*
X0272126Y0114448D01*
X0273402Y0113172D01*
X0274677Y0114448D01*
X0277094Y0115449D01*
X0278783Y0115449D01*
X0278783Y0171974D01*
X0279469Y0173628D01*
X0297150Y0191309D01*
X0297150Y0193455D01*
X0298215Y0196028D01*
X0299250Y0197063D01*
X0298215Y0198098D01*
X0297150Y0200671D01*
X0297150Y0203455D01*
X0298215Y0206028D01*
X0300099Y0207912D01*
X0299726Y0208285D01*
X0299189Y0209023D01*
X0298775Y0209837D01*
X0298492Y0210705D01*
X0298350Y0211607D01*
X0298350Y0211863D01*
X0303950Y0211863D01*
X0303950Y0212263D01*
X0298350Y0212263D01*
X0298350Y0212519D01*
X0298492Y0213421D01*
X0298775Y0214289D01*
X0299189Y0215103D01*
X0299436Y0215443D01*
X0298884Y0215672D01*
X0297759Y0216797D01*
X0297150Y0218267D01*
X0297150Y0222178D01*
X0293273Y0222178D01*
X0291362Y0222970D01*
X0289899Y0224432D01*
X0282277Y0232054D01*
X0281920Y0231906D01*
X0279135Y0231906D01*
X0276562Y0232971D01*
X0274679Y0234855D01*
X0274306Y0234482D01*
X0273567Y0233945D01*
X0272754Y0233530D01*
X0271886Y0233248D01*
X0270984Y0233106D01*
X0270728Y0233106D01*
X0270728Y0241705D01*
X0270328Y0241705D01*
X0270328Y0233106D01*
X0270071Y0233106D01*
X0269169Y0233248D01*
X0268301Y0233530D01*
X0267488Y0233945D01*
X0266749Y0234482D01*
X0266104Y0235127D01*
X0265567Y0235866D01*
X0265152Y0236679D01*
X0264870Y0237547D01*
X0264728Y0238449D01*
X0264728Y0241705D01*
X0270327Y0241705D01*
X0270327Y0242106D01*
X0270328Y0242106D02*
X0270328Y0250705D01*
X0270071Y0250705D01*
X0269169Y0250563D01*
X0268301Y0250281D01*
X0267488Y0249866D01*
X0266749Y0249329D01*
X0266104Y0248684D01*
X0265567Y0247945D01*
X0265152Y0247132D01*
X0264870Y0246264D01*
X0264728Y0245362D01*
X0264728Y0242106D01*
X0270327Y0242106D01*
X0270328Y0242106D02*
X0270728Y0242106D01*
X0270728Y0250705D01*
X0270984Y0250705D01*
X0271886Y0250563D01*
X0272754Y0250281D01*
X0273567Y0249866D01*
X0274306Y0249329D01*
X0274679Y0248956D01*
X0276562Y0250840D01*
X0279135Y0251905D01*
X0281920Y0251905D01*
X0284493Y0250840D01*
X0285528Y0249805D01*
X0286562Y0250840D01*
X0289135Y0251905D01*
X0291920Y0251905D01*
X0294493Y0250840D01*
X0296462Y0248871D01*
X0297528Y0246298D01*
X0297528Y0237513D01*
X0296462Y0234940D01*
X0295280Y0233759D01*
X0296461Y0232578D01*
X0309121Y0232578D01*
X0311032Y0231786D01*
X0312024Y0230795D01*
X0312024Y0252969D01*
X0308150Y0256843D01*
X0008811Y0256843D01*
X0005000Y0253031D01*
X0005000Y0090528D01*
X0012622Y0098150D01*
X0012622Y0103388D01*
X0014723Y0105488D01*
X0012622Y0107589D01*
X0012622Y0113388D01*
X0014723Y0115488D01*
X0012622Y0117589D01*
X0012622Y0123388D01*
X0016723Y0127488D01*
X0022522Y0127488D01*
X0024622Y0125388D01*
X0026723Y0127488D01*
X0032522Y0127488D01*
X0036622Y0123388D01*
X0036622Y0117589D01*
X0034522Y0115488D01*
X0036622Y0113388D01*
X0036622Y0107589D01*
X0034522Y0105488D01*
X0036622Y0103388D01*
X0036622Y0097589D01*
X0034522Y0095488D01*
X0036622Y0093388D01*
X0036622Y0087589D01*
X0034522Y0085488D01*
X0036622Y0083388D01*
X0036622Y0081000D01*
X0036200Y0083810D02*
X0036200Y0087167D01*
X0036433Y0087400D02*
X0042413Y0087400D01*
X0042600Y0085542D02*
X0042600Y0079035D01*
X0039400Y0079035D02*
X0039400Y0153953D01*
X0042217Y0154600D02*
X0046398Y0154600D01*
X0045800Y0154848D02*
X0045800Y0099351D01*
X0049000Y0099351D02*
X0049000Y0139529D01*
X0052200Y0139520D02*
X0052200Y0099351D01*
X0051013Y0097000D02*
X0049413Y0097000D01*
X0049413Y0093800D02*
X0051013Y0093800D01*
X0049000Y0092351D02*
X0049000Y0090751D01*
X0045800Y0090751D02*
X0045800Y0092351D01*
X0042600Y0092351D02*
X0042600Y0090751D01*
X0042413Y0090600D02*
X0036622Y0090600D01*
X0036210Y0093800D02*
X0042413Y0093800D01*
X0042447Y0097000D02*
X0036033Y0097000D01*
X0036200Y0097167D02*
X0036200Y0093810D01*
X0036622Y0100200D02*
X0065287Y0100200D01*
X0065000Y0099913D02*
X0065000Y0142438D01*
X0064636Y0141800D02*
X0077698Y0141800D01*
X0077800Y0141553D02*
X0077800Y0135941D01*
X0077259Y0135400D02*
X0018245Y0135400D01*
X0017432Y0135063D02*
X0020005Y0136129D01*
X0021974Y0138098D01*
X0023039Y0140671D01*
X0023039Y0143455D01*
X0021974Y0146028D01*
X0020939Y0147063D01*
X0021974Y0148098D01*
X0023039Y0150671D01*
X0023039Y0153455D01*
X0021974Y0156028D01*
X0020939Y0157063D01*
X0021974Y0158098D01*
X0023039Y0160671D01*
X0023039Y0163455D01*
X0021974Y0166028D01*
X0020939Y0167063D01*
X0021974Y0168098D01*
X0023039Y0170671D01*
X0023039Y0173455D01*
X0021974Y0176028D01*
X0020005Y0177997D01*
X0017432Y0179063D01*
X0014647Y0179063D01*
X0012074Y0177997D01*
X0010105Y0176028D01*
X0009039Y0173455D01*
X0009039Y0170671D01*
X0010105Y0168098D01*
X0011140Y0167063D01*
X0010105Y0166028D01*
X0009039Y0163455D01*
X0009039Y0160671D01*
X0010105Y0158098D01*
X0011140Y0157063D01*
X0010105Y0156028D01*
X0009039Y0153455D01*
X0009039Y0150671D01*
X0010105Y0148098D01*
X0011140Y0147063D01*
X0010105Y0146028D01*
X0009039Y0143455D01*
X0009039Y0140671D01*
X0010105Y0138098D01*
X0012074Y0136129D01*
X0014647Y0135063D01*
X0017432Y0135063D01*
X0017000Y0135063D02*
X0017000Y0127488D01*
X0015034Y0125800D02*
X0005000Y0125800D01*
X0005000Y0122600D02*
X0012622Y0122600D01*
X0013800Y0124566D02*
X0013800Y0135414D01*
X0013833Y0135400D02*
X0005000Y0135400D01*
X0005000Y0132200D02*
X0074059Y0132200D01*
X0074600Y0132741D02*
X0074600Y0147383D01*
X0073783Y0148200D02*
X0065217Y0148200D01*
X0065000Y0147149D02*
X0065000Y0146190D01*
X0065217Y0145000D02*
X0076983Y0145000D01*
X0071866Y0146669D02*
X0059858Y0146669D01*
X0059379Y0147149D02*
X0059379Y0152619D01*
X0057794Y0152619D01*
X0057203Y0153210D01*
X0056681Y0153426D01*
X0056681Y0154483D01*
X0057960Y0153953D01*
X0060550Y0153953D01*
X0061667Y0152836D01*
X0061884Y0152619D01*
X0060338Y0152619D01*
X0060338Y0147149D01*
X0059379Y0147149D01*
X0059379Y0148200D02*
X0060338Y0148200D01*
X0061800Y0147149D02*
X0061800Y0146190D01*
X0060338Y0145000D02*
X0059379Y0145000D01*
X0059379Y0141800D02*
X0060338Y0141800D01*
X0061800Y0140720D02*
X0061800Y0096713D01*
X0062087Y0097000D02*
X0057978Y0097000D01*
X0058013Y0093800D02*
X0058873Y0093800D01*
X0058600Y0093520D02*
X0058600Y0140720D01*
X0055400Y0139520D02*
X0055400Y0099351D01*
X0042600Y0097561D02*
X0042600Y0154759D01*
X0039307Y0160724D02*
X0039583Y0161000D01*
X0039583Y0164780D01*
X0042732Y0167929D01*
X0060843Y0167929D01*
X0064386Y0164386D01*
X0064386Y0156906D01*
X0067535Y0153756D01*
X0075016Y0153756D01*
X0079150Y0149622D01*
X0082102Y0146669D01*
X0083677Y0146669D01*
X0081000Y0139520D02*
X0081000Y0139141D01*
X0080459Y0138600D02*
X0022182Y0138600D01*
X0020200Y0136324D02*
X0020200Y0127488D01*
X0023400Y0126610D02*
X0023400Y0176324D01*
X0022690Y0177000D02*
X0021002Y0177000D01*
X0020200Y0177802D02*
X0020200Y0232720D01*
X0019594Y0232971D02*
X0022167Y0231906D01*
X0024951Y0231906D01*
X0027524Y0232971D01*
X0028559Y0234006D01*
X0029594Y0232971D01*
X0032167Y0231906D01*
X0034951Y0231906D01*
X0037524Y0232971D01*
X0038559Y0234006D01*
X0039594Y0232971D01*
X0042167Y0231906D01*
X0044951Y0231906D01*
X0047524Y0232971D01*
X0049493Y0234940D01*
X0050559Y0237513D01*
X0050559Y0246298D01*
X0049493Y0248871D01*
X0047524Y0250840D01*
X0044951Y0251905D01*
X0042167Y0251905D01*
X0039594Y0250840D01*
X0038559Y0249805D01*
X0037524Y0250840D01*
X0034951Y0251905D01*
X0032167Y0251905D01*
X0029594Y0250840D01*
X0028559Y0249805D01*
X0027524Y0250840D01*
X0024951Y0251905D01*
X0022167Y0251905D01*
X0019594Y0250840D01*
X0018559Y0249805D01*
X0017524Y0250840D01*
X0014951Y0251905D01*
X0012167Y0251905D01*
X0009594Y0250840D01*
X0007625Y0248871D01*
X0006559Y0246298D01*
X0006559Y0237513D01*
X0007625Y0234940D01*
X0009594Y0232971D01*
X0012167Y0231906D01*
X0014951Y0231906D01*
X0017524Y0232971D01*
X0018559Y0234006D01*
X0019594Y0232971D01*
X0017000Y0232754D02*
X0017000Y0179063D01*
X0013800Y0178712D02*
X0013800Y0231906D01*
X0010600Y0232554D02*
X0010600Y0176523D01*
X0011077Y0177000D02*
X0005000Y0177000D01*
X0005000Y0173800D02*
X0009182Y0173800D01*
X0009069Y0170600D02*
X0005000Y0170600D01*
X0005000Y0167400D02*
X0010803Y0167400D01*
X0010600Y0167603D02*
X0010600Y0166523D01*
X0009348Y0164200D02*
X0005000Y0164200D01*
X0005000Y0161000D02*
X0009039Y0161000D01*
X0010403Y0157800D02*
X0005000Y0157800D01*
X0005000Y0154600D02*
X0009513Y0154600D01*
X0010600Y0156523D02*
X0010600Y0157603D01*
X0009039Y0151400D02*
X0005000Y0151400D01*
X0005000Y0148200D02*
X0010063Y0148200D01*
X0010600Y0147603D02*
X0010600Y0146523D01*
X0009679Y0145000D02*
X0005000Y0145000D01*
X0005000Y0141800D02*
X0009039Y0141800D01*
X0009897Y0138600D02*
X0005000Y0138600D01*
X0010600Y0137603D02*
X0010600Y0096128D01*
X0011472Y0097000D02*
X0005000Y0097000D01*
X0005000Y0093800D02*
X0008272Y0093800D01*
X0007400Y0092928D02*
X0007400Y0235483D01*
X0007965Y0234600D02*
X0005000Y0234600D01*
X0005000Y0231400D02*
X0089126Y0231400D01*
X0089126Y0228200D02*
X0005000Y0228200D01*
X0005000Y0225000D02*
X0089292Y0225000D01*
X0090600Y0223066D02*
X0090600Y0219042D01*
X0090205Y0218600D02*
X0005000Y0218600D01*
X0005000Y0215400D02*
X0034406Y0215400D01*
X0036200Y0216767D02*
X0036200Y0232423D01*
X0033000Y0231906D02*
X0033000Y0213193D01*
X0032589Y0212200D02*
X0005000Y0212200D01*
X0005000Y0209000D02*
X0032692Y0209000D01*
X0033000Y0208256D02*
X0033000Y0194712D01*
X0034170Y0196200D02*
X0005000Y0196200D01*
X0005000Y0193000D02*
X0022883Y0193000D01*
X0023400Y0194076D02*
X0023400Y0231906D01*
X0026600Y0232588D02*
X0026600Y0195139D01*
X0028080Y0193000D02*
X0029039Y0193000D01*
X0029800Y0195139D02*
X0029800Y0232886D01*
X0039400Y0233165D02*
X0039400Y0217496D01*
X0042600Y0216690D02*
X0042600Y0231906D01*
X0045800Y0232257D02*
X0045800Y0215063D01*
X0046263Y0215400D02*
X0044208Y0215400D01*
X0046866Y0215764D02*
X0081709Y0250606D01*
X0102969Y0250606D01*
X0103559Y0250016D01*
X0103559Y0245094D01*
X0103400Y0244713D02*
X0103400Y0236496D01*
X0105692Y0236496D02*
X0099988Y0236496D01*
X0099988Y0239410D01*
X0100579Y0240000D01*
X0100921Y0239932D01*
X0103178Y0239932D01*
X0103178Y0244713D01*
X0103940Y0244713D01*
X0103940Y0239932D01*
X0106197Y0239932D01*
X0106738Y0240040D01*
X0107248Y0240251D01*
X0107706Y0240557D01*
X0108096Y0240947D01*
X0108403Y0241406D01*
X0108405Y0241411D01*
X0108405Y0239209D01*
X0106549Y0237353D01*
X0105692Y0236496D01*
X0106600Y0237404D02*
X0106600Y0240012D01*
X0108131Y0241000D02*
X0108405Y0241000D01*
X0106996Y0237800D02*
X0099988Y0237800D01*
X0100200Y0236496D02*
X0100200Y0239622D01*
X0103178Y0241000D02*
X0103940Y0241000D01*
X0103940Y0244200D02*
X0103178Y0244200D01*
X0103940Y0244713D02*
X0108405Y0244713D01*
X0108405Y0245476D01*
X0103940Y0245476D01*
X0103940Y0244713D01*
X0103400Y0245476D02*
X0103400Y0256843D01*
X0100200Y0256843D02*
X0100200Y0250567D01*
X0100167Y0250600D02*
X0110101Y0250600D01*
X0109800Y0250299D02*
X0109800Y0256843D01*
X0106600Y0256843D02*
X0106600Y0250177D01*
X0103940Y0247400D02*
X0103178Y0247400D01*
X0106600Y0245476D02*
X0106600Y0244713D01*
X0113205Y0245094D02*
X0114976Y0245094D01*
X0115173Y0245094D02*
X0121079Y0251000D01*
X0126984Y0251000D01*
X0132890Y0245094D01*
X0135400Y0252000D02*
X0135400Y0256843D01*
X0138600Y0256843D02*
X0138600Y0254974D01*
X0137200Y0253800D02*
X0130972Y0253800D01*
X0132200Y0252572D02*
X0132200Y0256843D01*
X0129000Y0256843D02*
X0129000Y0255361D01*
X0125800Y0255800D02*
X0125800Y0256843D01*
X0122600Y0256843D02*
X0122600Y0255800D01*
X0119400Y0255500D02*
X0119400Y0256843D01*
X0116200Y0256843D02*
X0116200Y0252909D01*
X0117091Y0253800D02*
X0005769Y0253800D01*
X0007400Y0255431D02*
X0007400Y0248328D01*
X0007016Y0247400D02*
X0005000Y0247400D01*
X0005000Y0244200D02*
X0006559Y0244200D01*
X0006559Y0241000D02*
X0005000Y0241000D01*
X0005000Y0237800D02*
X0006559Y0237800D01*
X0005000Y0250600D02*
X0009354Y0250600D01*
X0010600Y0251257D02*
X0010600Y0256843D01*
X0013800Y0256843D02*
X0013800Y0251905D01*
X0017000Y0251057D02*
X0017000Y0256843D01*
X0020200Y0256843D02*
X0020200Y0251091D01*
X0019354Y0250600D02*
X0017764Y0250600D01*
X0023400Y0251905D02*
X0023400Y0256843D01*
X0026600Y0256843D02*
X0026600Y0251223D01*
X0027764Y0250600D02*
X0029354Y0250600D01*
X0029800Y0250925D02*
X0029800Y0256843D01*
X0033000Y0256843D02*
X0033000Y0251905D01*
X0036200Y0251388D02*
X0036200Y0256843D01*
X0039400Y0256843D02*
X0039400Y0250646D01*
X0039354Y0250600D02*
X0037764Y0250600D01*
X0042600Y0251905D02*
X0042600Y0256843D01*
X0045800Y0256843D02*
X0045800Y0251554D01*
X0047764Y0250600D02*
X0090416Y0250600D01*
X0090600Y0250784D02*
X0090600Y0256843D01*
X0087400Y0256843D02*
X0087400Y0217264D01*
X0084406Y0215400D02*
X0084208Y0215400D01*
X0084200Y0215408D02*
X0084200Y0256843D01*
X0081000Y0256843D02*
X0081000Y0217353D01*
X0077800Y0217430D02*
X0077800Y0256843D01*
X0074600Y0256843D02*
X0074600Y0215594D01*
X0074406Y0215400D02*
X0074208Y0215400D01*
X0071400Y0217187D02*
X0071400Y0256843D01*
X0068200Y0256843D02*
X0068200Y0217496D01*
X0065000Y0215994D02*
X0065000Y0256843D01*
X0061800Y0256843D02*
X0061800Y0217021D01*
X0064208Y0215400D02*
X0064406Y0215400D01*
X0058600Y0217496D02*
X0058600Y0256843D01*
X0055400Y0256843D02*
X0055400Y0216394D01*
X0054406Y0215400D02*
X0052351Y0215400D01*
X0052200Y0215504D02*
X0052200Y0256843D01*
X0049000Y0256843D02*
X0049000Y0249364D01*
X0050103Y0247400D02*
X0088929Y0247400D01*
X0088929Y0244200D02*
X0050559Y0244200D01*
X0050559Y0241000D02*
X0089317Y0241000D01*
X0090600Y0239405D02*
X0090600Y0235627D01*
X0089668Y0234600D02*
X0049153Y0234600D01*
X0049000Y0234447D02*
X0049000Y0216296D01*
X0049221Y0215400D02*
X0049393Y0215400D01*
X0049393Y0212200D02*
X0049221Y0212200D01*
X0049221Y0210638D02*
X0049393Y0210638D01*
X0049393Y0205153D01*
X0049746Y0205153D01*
X0050612Y0205290D01*
X0051446Y0205561D01*
X0052227Y0205959D01*
X0052937Y0206475D01*
X0053503Y0207041D01*
X0053566Y0206889D01*
X0055471Y0204984D01*
X0057960Y0203953D01*
X0060654Y0203953D01*
X0063143Y0204984D01*
X0064307Y0206148D01*
X0065471Y0204984D01*
X0067960Y0203953D01*
X0070654Y0203953D01*
X0073143Y0204984D01*
X0074307Y0206148D01*
X0075471Y0204984D01*
X0077960Y0203953D01*
X0080654Y0203953D01*
X0083143Y0204984D01*
X0084307Y0206148D01*
X0085471Y0204984D01*
X0087960Y0203953D01*
X0089507Y0203953D01*
X0089507Y0200798D01*
X0089107Y0200398D01*
X0089107Y0196090D01*
X0092153Y0193044D01*
X0096461Y0193044D01*
X0099507Y0196090D01*
X0099507Y0200398D01*
X0099107Y0200798D01*
X0099107Y0203953D01*
X0100654Y0203953D01*
X0103143Y0204984D01*
X0105048Y0206889D01*
X0105111Y0207041D01*
X0105677Y0206475D01*
X0106387Y0205959D01*
X0107168Y0205561D01*
X0108002Y0205290D01*
X0108869Y0205153D01*
X0109221Y0205153D01*
X0109221Y0210638D01*
X0109393Y0210638D01*
X0109393Y0205153D01*
X0109746Y0205153D01*
X0110612Y0205290D01*
X0111446Y0205561D01*
X0112227Y0205959D01*
X0112937Y0206475D01*
X0113557Y0207095D01*
X0114072Y0207804D01*
X0114471Y0208586D01*
X0114742Y0209420D01*
X0114879Y0210286D01*
X0114879Y0210639D01*
X0109393Y0210639D01*
X0109393Y0210810D01*
X0114879Y0210810D01*
X0114879Y0211163D01*
X0114742Y0212029D01*
X0114471Y0212863D01*
X0114072Y0213645D01*
X0113557Y0214354D01*
X0112937Y0214974D01*
X0112227Y0215490D01*
X0111446Y0215888D01*
X0110710Y0216127D01*
X0113337Y0218753D01*
X0114068Y0220518D01*
X0114068Y0222120D01*
X0115295Y0220892D01*
X0116561Y0219626D01*
X0118215Y0218941D01*
X0128273Y0218941D01*
X0129927Y0219626D01*
X0130358Y0220057D01*
X0130358Y0175685D01*
X0128528Y0177516D01*
X0126249Y0178460D01*
X0078371Y0178460D01*
X0076741Y0180090D01*
X0077784Y0180090D01*
X0077784Y0185264D01*
X0079334Y0185264D01*
X0079334Y0180090D01*
X0085725Y0180090D01*
X0086266Y0180197D01*
X0086775Y0180408D01*
X0087234Y0180715D01*
X0087624Y0181105D01*
X0087930Y0181563D01*
X0088141Y0182073D01*
X0088249Y0182614D01*
X0088249Y0185265D01*
X0079334Y0185265D01*
X0079334Y0186814D01*
X0088249Y0186814D01*
X0088249Y0189465D01*
X0088141Y0190006D01*
X0087930Y0190515D01*
X0087624Y0190974D01*
X0087234Y0191364D01*
X0086775Y0191670D01*
X0086266Y0191881D01*
X0085725Y0191989D01*
X0079334Y0191989D01*
X0079334Y0186814D01*
X0077784Y0186814D01*
X0077784Y0191989D01*
X0071394Y0191989D01*
X0070853Y0191881D01*
X0070343Y0191670D01*
X0069884Y0191364D01*
X0069494Y0190974D01*
X0069188Y0190515D01*
X0068977Y0190006D01*
X0068869Y0189465D01*
X0068869Y0187962D01*
X0068189Y0188642D01*
X0068189Y0189985D01*
X0067580Y0191455D01*
X0066455Y0192580D01*
X0064985Y0193189D01*
X0049614Y0193189D01*
X0048144Y0192580D01*
X0047018Y0191455D01*
X0046570Y0190372D01*
X0046570Y0205866D01*
X0047168Y0205561D01*
X0048002Y0205290D01*
X0048869Y0205153D01*
X0049221Y0205153D01*
X0049221Y0210638D01*
X0049221Y0209000D02*
X0049393Y0209000D01*
X0049393Y0205800D02*
X0049221Y0205800D01*
X0049000Y0205153D02*
X0049000Y0192935D01*
X0049158Y0193000D02*
X0046570Y0193000D01*
X0046570Y0196200D02*
X0089107Y0196200D01*
X0090600Y0194597D02*
X0090600Y0178460D01*
X0087400Y0178460D02*
X0087400Y0180881D01*
X0086272Y0180200D02*
X0130358Y0180200D01*
X0130358Y0177000D02*
X0129044Y0177000D01*
X0129000Y0177044D02*
X0129000Y0219242D01*
X0130358Y0218600D02*
X0113183Y0218600D01*
X0113000Y0218417D02*
X0113000Y0214911D01*
X0112351Y0215400D02*
X0130358Y0215400D01*
X0130358Y0212200D02*
X0114686Y0212200D01*
X0113000Y0210810D02*
X0113000Y0210639D01*
X0114605Y0209000D02*
X0130358Y0209000D01*
X0130358Y0205800D02*
X0111915Y0205800D01*
X0113000Y0206538D02*
X0113000Y0178460D01*
X0109800Y0178460D02*
X0109800Y0205161D01*
X0109393Y0205800D02*
X0109221Y0205800D01*
X0106699Y0205800D02*
X0103959Y0205800D01*
X0103400Y0205241D02*
X0103400Y0178460D01*
X0100200Y0178460D02*
X0100200Y0203953D01*
X0099107Y0202600D02*
X0130358Y0202600D01*
X0130358Y0199400D02*
X0099507Y0199400D01*
X0099507Y0196200D02*
X0130358Y0196200D01*
X0130358Y0193000D02*
X0065441Y0193000D01*
X0065000Y0193183D02*
X0065000Y0205455D01*
X0064655Y0205800D02*
X0063959Y0205800D01*
X0061800Y0204427D02*
X0061800Y0193189D01*
X0058600Y0193189D02*
X0058600Y0203953D01*
X0055400Y0205055D02*
X0055400Y0193189D01*
X0052200Y0193189D02*
X0052200Y0205945D01*
X0051915Y0205800D02*
X0054655Y0205800D01*
X0046699Y0205800D02*
X0046570Y0205800D01*
X0046570Y0202600D02*
X0089507Y0202600D01*
X0087400Y0204185D02*
X0087400Y0191198D01*
X0088182Y0189800D02*
X0130358Y0189800D01*
X0130358Y0186600D02*
X0079334Y0186600D01*
X0077800Y0186814D02*
X0077800Y0204019D01*
X0081000Y0204096D02*
X0081000Y0191989D01*
X0079334Y0189800D02*
X0077784Y0189800D01*
X0074600Y0191989D02*
X0074600Y0205855D01*
X0074655Y0205800D02*
X0073959Y0205800D01*
X0071400Y0204262D02*
X0071400Y0191989D01*
X0068936Y0189800D02*
X0068189Y0189800D01*
X0068200Y0188631D02*
X0068200Y0203953D01*
X0083959Y0205800D02*
X0084655Y0205800D01*
X0084200Y0206041D02*
X0084200Y0191989D01*
X0084200Y0186814D02*
X0084200Y0185265D01*
X0081000Y0185265D02*
X0081000Y0186814D01*
X0077800Y0185264D02*
X0077800Y0179031D01*
X0077784Y0180200D02*
X0079334Y0180200D01*
X0081000Y0180090D02*
X0081000Y0178460D01*
X0084200Y0178460D02*
X0084200Y0180090D01*
X0088249Y0183400D02*
X0130358Y0183400D01*
X0125800Y0178460D02*
X0125800Y0218941D01*
X0122600Y0218941D02*
X0122600Y0178460D01*
X0119400Y0178460D02*
X0119400Y0218941D01*
X0116200Y0219987D02*
X0116200Y0178460D01*
X0106600Y0178460D02*
X0106600Y0205851D01*
X0109221Y0209000D02*
X0109393Y0209000D01*
X0109800Y0210639D02*
X0109800Y0210810D01*
X0099425Y0211630D02*
X0109268Y0221472D01*
X0109268Y0233283D01*
X0113205Y0237220D01*
X0113205Y0245094D01*
X0113000Y0251457D02*
X0113000Y0256843D01*
X0097000Y0256843D02*
X0097000Y0251457D01*
X0093800Y0251457D02*
X0093800Y0256843D01*
X0090988Y0237800D02*
X0050559Y0237800D01*
X0034170Y0205800D02*
X0005000Y0205800D01*
X0005000Y0202600D02*
X0034170Y0202600D01*
X0034170Y0199400D02*
X0005000Y0199400D01*
X0005000Y0189800D02*
X0028079Y0189800D01*
X0026600Y0190259D02*
X0026600Y0189300D01*
X0023400Y0189300D02*
X0023400Y0190259D01*
X0021998Y0186600D02*
X0005000Y0186600D01*
X0005000Y0183400D02*
X0021606Y0183400D01*
X0021606Y0180200D02*
X0005000Y0180200D01*
X0021276Y0167400D02*
X0035473Y0167400D01*
X0036200Y0168185D02*
X0036200Y0175902D01*
X0039400Y0175902D02*
X0039400Y0171385D01*
X0038615Y0170600D02*
X0023010Y0170600D01*
X0022897Y0173800D02*
X0065495Y0173800D01*
X0065000Y0174295D02*
X0065000Y0170560D01*
X0064960Y0170600D02*
X0068695Y0170600D01*
X0068200Y0171095D02*
X0068200Y0167496D01*
X0070886Y0167400D02*
X0071895Y0167400D01*
X0071400Y0167187D02*
X0071400Y0167895D01*
X0074600Y0166060D02*
X0074600Y0165594D01*
X0061800Y0172728D02*
X0061800Y0177495D01*
X0062295Y0177000D02*
X0055847Y0177000D01*
X0055400Y0176725D02*
X0055400Y0172729D01*
X0052200Y0172729D02*
X0052200Y0175902D01*
X0049000Y0175902D02*
X0049000Y0172729D01*
X0045800Y0172729D02*
X0045800Y0175902D01*
X0042600Y0175902D02*
X0042600Y0172729D01*
X0033000Y0175869D02*
X0033000Y0163193D01*
X0033417Y0164200D02*
X0022731Y0164200D01*
X0023039Y0161000D02*
X0032535Y0161000D01*
X0033000Y0158256D02*
X0033000Y0127010D01*
X0034210Y0125800D02*
X0070603Y0125800D01*
X0070603Y0122600D02*
X0036622Y0122600D01*
X0036200Y0123810D02*
X0036200Y0154682D01*
X0036398Y0154600D02*
X0022565Y0154600D01*
X0023039Y0151400D02*
X0046144Y0151400D01*
X0045819Y0148200D02*
X0022016Y0148200D01*
X0022400Y0145000D02*
X0045819Y0145000D01*
X0046202Y0141800D02*
X0023039Y0141800D01*
X0026600Y0127366D02*
X0026600Y0175740D01*
X0029800Y0175740D02*
X0029800Y0127488D01*
X0025034Y0125800D02*
X0024210Y0125800D01*
X0014011Y0116200D02*
X0005000Y0116200D01*
X0005000Y0113000D02*
X0012622Y0113000D01*
X0013800Y0114566D02*
X0013800Y0116411D01*
X0012622Y0119400D02*
X0005000Y0119400D01*
X0005000Y0109800D02*
X0012622Y0109800D01*
X0013611Y0106600D02*
X0005000Y0106600D01*
X0005000Y0103400D02*
X0012634Y0103400D01*
X0013800Y0104566D02*
X0013800Y0106411D01*
X0012622Y0100200D02*
X0005000Y0100200D01*
X0005000Y0090600D02*
X0005072Y0090600D01*
X0008874Y0087614D02*
X0016748Y0095488D01*
X0024622Y0095488D01*
X0029622Y0090488D01*
X0035810Y0084200D02*
X0043692Y0084200D01*
X0029422Y0070688D02*
X0029422Y0070288D01*
X0019822Y0070288D01*
X0019822Y0070688D01*
X0025422Y0070688D01*
X0029422Y0070688D01*
X0026600Y0070688D02*
X0026600Y0070288D01*
X0023400Y0070288D02*
X0023400Y0070688D01*
X0020200Y0070688D02*
X0020200Y0070288D01*
X0010600Y0064755D02*
X0010600Y0030572D01*
X0013217Y0029800D02*
X0014767Y0029800D01*
X0017000Y0030572D02*
X0017000Y0042809D01*
X0017504Y0042600D02*
X0005000Y0042600D01*
X0005000Y0039400D02*
X0035839Y0039400D01*
X0035839Y0036200D02*
X0005000Y0036200D01*
X0005000Y0045800D02*
X0015523Y0045800D01*
X0017000Y0047765D02*
X0017000Y0048724D01*
X0015523Y0049000D02*
X0005000Y0049000D01*
X0020200Y0048724D02*
X0020200Y0047765D01*
X0020402Y0049000D02*
X0021361Y0049000D01*
X0021361Y0045800D02*
X0020402Y0045800D01*
X0020402Y0042600D02*
X0021361Y0042600D01*
X0020200Y0042491D02*
X0020200Y0030572D01*
X0020200Y0025397D02*
X0020200Y0023847D01*
X0017000Y0023847D02*
X0017000Y0025397D01*
X0014767Y0026600D02*
X0013217Y0026600D01*
X0013217Y0020200D02*
X0014767Y0020200D01*
X0010600Y0018672D02*
X0010600Y0005000D01*
X0007400Y0006411D02*
X0007400Y0018672D01*
X0005000Y0017000D02*
X0049134Y0017000D01*
X0049373Y0013800D02*
X0005000Y0013800D01*
X0005000Y0010600D02*
X0051411Y0010600D01*
X0052200Y0009838D02*
X0052200Y0005000D01*
X0055400Y0005000D02*
X0055400Y0008795D01*
X0058600Y0008795D02*
X0058600Y0005000D01*
X0061800Y0005000D02*
X0061800Y0008795D01*
X0065000Y0009447D02*
X0065000Y0005000D01*
X0068200Y0005000D02*
X0068200Y0012248D01*
X0066731Y0010600D02*
X0077002Y0010600D01*
X0077800Y0009834D02*
X0077800Y0005000D01*
X0081000Y0005000D02*
X0081000Y0008795D01*
X0084200Y0008795D02*
X0084200Y0005000D01*
X0087400Y0005000D02*
X0087400Y0008795D01*
X0090600Y0009451D02*
X0090600Y0005000D01*
X0093800Y0005000D02*
X0093800Y0012450D01*
X0094359Y0013800D02*
X0095935Y0013800D01*
X0097000Y0012758D02*
X0097000Y0005000D01*
X0100200Y0005000D02*
X0100200Y0009626D01*
X0099204Y0010600D02*
X0092321Y0010600D01*
X0101896Y0007400D02*
X0006411Y0007400D01*
X0026600Y0005000D02*
X0026600Y0017873D01*
X0029800Y0017472D02*
X0029800Y0005000D01*
X0033000Y0005000D02*
X0033000Y0017472D01*
X0036200Y0017472D02*
X0036200Y0005000D01*
X0039400Y0005000D02*
X0039400Y0017472D01*
X0042600Y0017472D02*
X0042600Y0005000D01*
X0045800Y0005000D02*
X0045800Y0019020D01*
X0047109Y0020200D02*
X0050684Y0020200D01*
X0052200Y0021690D02*
X0052200Y0029225D01*
X0052344Y0029080D02*
X0053079Y0028547D01*
X0053888Y0028134D01*
X0054752Y0027854D01*
X0055648Y0027712D01*
X0058887Y0027712D01*
X0058887Y0033296D01*
X0050334Y0033296D01*
X0050334Y0033026D01*
X0050476Y0032130D01*
X0050756Y0031266D01*
X0051169Y0030457D01*
X0051702Y0029722D01*
X0052344Y0029080D01*
X0051646Y0029800D02*
X0048839Y0029800D01*
X0048839Y0026600D02*
X0088320Y0026600D01*
X0087400Y0027712D02*
X0087400Y0022732D01*
X0088320Y0023400D02*
X0048839Y0023400D01*
X0055400Y0022732D02*
X0055400Y0027751D01*
X0058600Y0027712D02*
X0058600Y0022732D01*
X0061800Y0022732D02*
X0061800Y0027712D01*
X0059255Y0029800D02*
X0058887Y0029800D01*
X0058887Y0033000D02*
X0059255Y0033000D01*
X0058600Y0033296D02*
X0058600Y0033665D01*
X0058887Y0036200D02*
X0059255Y0036200D01*
X0061800Y0033665D02*
X0061800Y0033296D01*
X0065000Y0033296D02*
X0065000Y0033665D01*
X0067804Y0033000D02*
X0075929Y0033000D01*
X0077800Y0033296D02*
X0077800Y0033665D01*
X0081000Y0033665D02*
X0081000Y0033296D01*
X0077237Y0029800D02*
X0066496Y0029800D01*
X0065000Y0028515D02*
X0065000Y0022080D01*
X0055400Y0033296D02*
X0055400Y0033665D01*
X0052200Y0033665D02*
X0052200Y0033296D01*
X0050338Y0033000D02*
X0048839Y0033000D01*
X0048839Y0036200D02*
X0051014Y0036200D01*
X0049000Y0037669D02*
X0049000Y0005000D01*
X0071400Y0005000D02*
X0071400Y0012248D01*
X0074600Y0012248D02*
X0074600Y0005000D01*
X0127216Y0066733D02*
X0107594Y0086356D01*
X0107594Y0103560D01*
X0107979Y0103499D01*
X0108402Y0103499D01*
X0108825Y0103499D01*
X0109660Y0103632D01*
X0110465Y0103893D01*
X0111219Y0104277D01*
X0111903Y0104774D01*
X0112501Y0105373D01*
X0112650Y0105578D01*
X0112828Y0105150D01*
X0114677Y0103300D01*
X0117094Y0102299D01*
X0117746Y0102299D01*
X0120694Y0099351D01*
X0119910Y0099351D01*
X0119910Y0092351D01*
X0118310Y0092351D01*
X0118310Y0090751D01*
X0111310Y0090751D01*
X0111310Y0086275D01*
X0111418Y0085734D01*
X0111629Y0085225D01*
X0111935Y0084766D01*
X0112325Y0084376D01*
X0112784Y0084070D01*
X0113293Y0083859D01*
X0113834Y0083751D01*
X0118310Y0083751D01*
X0118310Y0090751D01*
X0119910Y0090751D01*
X0119910Y0083751D01*
X0124386Y0083751D01*
X0124927Y0083859D01*
X0125437Y0084070D01*
X0125895Y0084376D01*
X0126285Y0084766D01*
X0126592Y0085225D01*
X0126803Y0085734D01*
X0126910Y0086275D01*
X0126910Y0090751D01*
X0119910Y0090751D01*
X0119910Y0092351D01*
X0126910Y0092351D01*
X0126910Y0093135D01*
X0127690Y0092356D01*
X0127690Y0091366D01*
X0130736Y0088320D01*
X0135044Y0088320D01*
X0138090Y0091366D01*
X0138090Y0095674D01*
X0135044Y0098720D01*
X0134054Y0098720D01*
X0130250Y0102523D01*
X0132126Y0103300D01*
X0133402Y0104576D01*
X0134677Y0103300D01*
X0137094Y0102299D01*
X0139709Y0102299D01*
X0142126Y0103300D01*
X0143402Y0104576D01*
X0144677Y0103300D01*
X0147094Y0102299D01*
X0149709Y0102299D01*
X0152126Y0103300D01*
X0153402Y0104576D01*
X0154677Y0103300D01*
X0157094Y0102299D01*
X0159709Y0102299D01*
X0162126Y0103300D01*
X0163975Y0105150D01*
X0164153Y0105578D01*
X0164302Y0105373D01*
X0164900Y0104774D01*
X0165585Y0104277D01*
X0166338Y0103893D01*
X0167143Y0103632D01*
X0167979Y0103499D01*
X0168402Y0103499D01*
X0168825Y0103499D01*
X0169660Y0103632D01*
X0170465Y0103893D01*
X0171219Y0104277D01*
X0171903Y0104774D01*
X0172501Y0105373D01*
X0172650Y0105578D01*
X0172828Y0105150D01*
X0174677Y0103300D01*
X0177094Y0102299D01*
X0178770Y0102299D01*
X0180839Y0100230D01*
X0180839Y0099240D01*
X0183885Y0096194D01*
X0185296Y0096194D01*
X0179930Y0090827D01*
X0178945Y0090827D01*
X0177474Y0090218D01*
X0176349Y0089093D01*
X0175740Y0087622D01*
X0175740Y0080403D01*
X0173313Y0080403D01*
X0171623Y0079703D01*
X0170329Y0078409D01*
X0166392Y0074472D01*
X0165691Y0072781D01*
X0165691Y0065568D01*
X0165515Y0065686D01*
X0165006Y0065897D01*
X0164465Y0066005D01*
X0158074Y0066005D01*
X0158074Y0060830D01*
X0156524Y0060830D01*
X0156524Y0059280D01*
X0147609Y0059280D01*
X0147609Y0058041D01*
X0146929Y0058721D01*
X0146929Y0064000D01*
X0146320Y0065471D01*
X0145195Y0066596D01*
X0144995Y0066678D01*
X0144995Y0075068D01*
X0144051Y0077347D01*
X0142307Y0079091D01*
X0140029Y0080035D01*
X0137562Y0080035D01*
X0135283Y0079091D01*
X0133539Y0077347D01*
X0132595Y0075068D01*
X0132595Y0067205D01*
X0128354Y0067205D01*
X0127216Y0066733D01*
X0129000Y0067205D02*
X0129000Y0090056D01*
X0128456Y0090600D02*
X0126910Y0090600D01*
X0125800Y0090751D02*
X0125800Y0092351D01*
X0122600Y0092351D02*
X0122600Y0090751D01*
X0119910Y0090600D02*
X0118310Y0090600D01*
X0119400Y0090751D02*
X0119400Y0074550D01*
X0119350Y0074600D02*
X0132595Y0074600D01*
X0132595Y0071400D02*
X0122550Y0071400D01*
X0122600Y0071350D02*
X0122600Y0083751D01*
X0119910Y0084200D02*
X0118310Y0084200D01*
X0116200Y0083751D02*
X0116200Y0077750D01*
X0116150Y0077800D02*
X0133993Y0077800D01*
X0135400Y0079139D02*
X0135400Y0088676D01*
X0137324Y0090600D02*
X0178397Y0090600D01*
X0177000Y0089743D02*
X0177000Y0102338D01*
X0174577Y0103400D02*
X0162226Y0103400D01*
X0161000Y0102834D02*
X0161000Y0066005D01*
X0158074Y0065000D02*
X0156524Y0065000D01*
X0156524Y0066005D02*
X0150134Y0066005D01*
X0149593Y0065897D01*
X0149083Y0065686D01*
X0148625Y0065380D01*
X0148235Y0064990D01*
X0147928Y0064531D01*
X0147717Y0064021D01*
X0147609Y0063480D01*
X0147609Y0060830D01*
X0156524Y0060830D01*
X0156524Y0066005D01*
X0154600Y0066005D02*
X0154600Y0103377D01*
X0154577Y0103400D02*
X0152226Y0103400D01*
X0151400Y0102999D02*
X0151400Y0066005D01*
X0148245Y0065000D02*
X0146515Y0065000D01*
X0148200Y0064938D02*
X0148200Y0102299D01*
X0145000Y0103166D02*
X0145000Y0066676D01*
X0144995Y0068200D02*
X0165691Y0068200D01*
X0164200Y0066005D02*
X0164200Y0105513D01*
X0167400Y0103591D02*
X0167400Y0075480D01*
X0166520Y0074600D02*
X0144995Y0074600D01*
X0144995Y0071400D02*
X0165691Y0071400D01*
X0169720Y0077800D02*
X0143598Y0077800D01*
X0141800Y0079301D02*
X0141800Y0103165D01*
X0142226Y0103400D02*
X0144577Y0103400D01*
X0138600Y0102299D02*
X0138600Y0080035D01*
X0132200Y0088320D02*
X0132200Y0067205D01*
X0132595Y0068200D02*
X0125750Y0068200D01*
X0125800Y0068150D02*
X0125800Y0084313D01*
X0125631Y0084200D02*
X0175740Y0084200D01*
X0175740Y0081000D02*
X0112950Y0081000D01*
X0113000Y0080950D02*
X0113000Y0083980D01*
X0112589Y0084200D02*
X0109750Y0084200D01*
X0109800Y0084150D02*
X0109800Y0103677D01*
X0108402Y0103499D02*
X0108402Y0108874D01*
X0108402Y0108874D01*
X0108402Y0103499D01*
X0107594Y0103400D02*
X0114577Y0103400D01*
X0116200Y0102669D02*
X0116200Y0099351D01*
X0118310Y0099351D02*
X0113834Y0099351D01*
X0113293Y0099244D01*
X0112784Y0099032D01*
X0112325Y0098726D01*
X0111935Y0098336D01*
X0111629Y0097877D01*
X0111418Y0097368D01*
X0111310Y0096827D01*
X0111310Y0092351D01*
X0118310Y0092351D01*
X0118310Y0099351D01*
X0119400Y0100645D02*
X0119400Y0092351D01*
X0119910Y0093800D02*
X0118310Y0093800D01*
X0116200Y0092351D02*
X0116200Y0090751D01*
X0113000Y0090751D02*
X0113000Y0092351D01*
X0111310Y0093800D02*
X0107594Y0093800D01*
X0107594Y0090600D02*
X0111310Y0090600D01*
X0111310Y0087400D02*
X0107594Y0087400D01*
X0107594Y0097000D02*
X0111345Y0097000D01*
X0113000Y0099122D02*
X0113000Y0104977D01*
X0108402Y0106600D02*
X0108402Y0106600D01*
X0107594Y0100200D02*
X0119845Y0100200D01*
X0119910Y0097000D02*
X0118310Y0097000D01*
X0118310Y0087400D02*
X0119910Y0087400D01*
X0126910Y0087400D02*
X0175740Y0087400D01*
X0180200Y0091097D02*
X0180200Y0100869D01*
X0180839Y0100200D02*
X0132573Y0100200D01*
X0132200Y0100573D02*
X0132200Y0103374D01*
X0132226Y0103400D02*
X0134577Y0103400D01*
X0135400Y0103001D02*
X0135400Y0098363D01*
X0136763Y0097000D02*
X0183079Y0097000D01*
X0183400Y0096679D02*
X0183400Y0094297D01*
X0182903Y0093800D02*
X0138090Y0093800D01*
X0153402Y0113172D02*
X0153138Y0113436D01*
X0153138Y0140868D01*
X0168291Y0156022D01*
X0169330Y0154984D01*
X0169728Y0154818D01*
X0169728Y0146562D01*
X0170413Y0144908D01*
X0178372Y0136949D01*
X0180026Y0136264D01*
X0209375Y0136264D01*
X0209790Y0136436D01*
X0199348Y0125993D01*
X0198556Y0124082D01*
X0198556Y0115449D01*
X0197094Y0115449D01*
X0194677Y0114448D01*
X0193402Y0113172D01*
X0192126Y0114448D01*
X0189709Y0115449D01*
X0187094Y0115449D01*
X0184677Y0114448D01*
X0183402Y0113172D01*
X0182126Y0114448D01*
X0179709Y0115449D01*
X0177094Y0115449D01*
X0174677Y0114448D01*
X0172828Y0112598D01*
X0172650Y0112170D01*
X0172501Y0112375D01*
X0171903Y0112974D01*
X0171219Y0113471D01*
X0170465Y0113855D01*
X0169660Y0114116D01*
X0168825Y0114249D01*
X0168402Y0114249D01*
X0168402Y0108874D01*
X0168402Y0103499D01*
X0168402Y0108874D01*
X0168402Y0108874D01*
X0168402Y0108874D01*
X0168402Y0114249D01*
X0167979Y0114249D01*
X0167143Y0114116D01*
X0166338Y0113855D01*
X0165585Y0113471D01*
X0164900Y0112974D01*
X0164302Y0112375D01*
X0164153Y0112170D01*
X0163975Y0112598D01*
X0162126Y0114448D01*
X0159709Y0115449D01*
X0157094Y0115449D01*
X0154677Y0114448D01*
X0153402Y0113172D01*
X0154600Y0114371D02*
X0154600Y0142331D01*
X0154069Y0141800D02*
X0173521Y0141800D01*
X0173800Y0141521D02*
X0173800Y0113571D01*
X0173229Y0113000D02*
X0171867Y0113000D01*
X0170600Y0113786D02*
X0170600Y0144721D01*
X0170375Y0145000D02*
X0157269Y0145000D01*
X0157800Y0145531D02*
X0157800Y0115449D01*
X0161000Y0114914D02*
X0161000Y0148731D01*
X0160469Y0148200D02*
X0169728Y0148200D01*
X0169728Y0151400D02*
X0163669Y0151400D01*
X0164200Y0151931D02*
X0164200Y0112235D01*
X0163574Y0113000D02*
X0164936Y0113000D01*
X0167400Y0114157D02*
X0167400Y0155131D01*
X0166869Y0154600D02*
X0169728Y0154600D01*
X0176721Y0138600D02*
X0153138Y0138600D01*
X0153138Y0135400D02*
X0208755Y0135400D01*
X0209000Y0135645D02*
X0209000Y0136264D01*
X0205800Y0136264D02*
X0205800Y0132445D01*
X0205555Y0132200D02*
X0153138Y0132200D01*
X0153138Y0129000D02*
X0202355Y0129000D01*
X0202600Y0129245D02*
X0202600Y0136264D01*
X0199400Y0136264D02*
X0199400Y0126045D01*
X0199268Y0125800D02*
X0153138Y0125800D01*
X0153138Y0122600D02*
X0198556Y0122600D01*
X0198556Y0119400D02*
X0153138Y0119400D01*
X0153138Y0116200D02*
X0198556Y0116200D01*
X0196200Y0115079D02*
X0196200Y0136264D01*
X0193000Y0136264D02*
X0193000Y0113574D01*
X0189800Y0115411D02*
X0189800Y0136264D01*
X0186600Y0136264D02*
X0186600Y0115244D01*
X0183400Y0113174D02*
X0183400Y0136264D01*
X0180200Y0136264D02*
X0180200Y0115246D01*
X0177000Y0115410D02*
X0177000Y0138321D01*
X0193237Y0147149D02*
X0193237Y0152619D01*
X0191652Y0152619D01*
X0191061Y0153210D01*
X0190539Y0153426D01*
X0190539Y0154483D01*
X0191818Y0153953D01*
X0194512Y0153953D01*
X0197001Y0154984D01*
X0198165Y0156148D01*
X0199330Y0154984D01*
X0201818Y0153953D01*
X0204512Y0153953D01*
X0207001Y0154984D01*
X0208165Y0156148D01*
X0209330Y0154984D01*
X0211818Y0153953D01*
X0214512Y0153953D01*
X0217001Y0154984D01*
X0217966Y0155949D01*
X0218364Y0155949D01*
X0219330Y0154984D01*
X0221818Y0153953D01*
X0224512Y0153953D01*
X0227001Y0154984D01*
X0228165Y0156148D01*
X0229330Y0154984D01*
X0231818Y0153953D01*
X0234512Y0153953D01*
X0237001Y0154984D01*
X0238165Y0156148D01*
X0238755Y0155558D01*
X0235067Y0151869D01*
X0231252Y0151869D01*
X0231163Y0152085D01*
X0230037Y0153210D01*
X0228567Y0153819D01*
X0221858Y0153819D01*
X0221472Y0153659D01*
X0221087Y0153819D01*
X0214378Y0153819D01*
X0212907Y0153210D01*
X0211782Y0152085D01*
X0211173Y0150615D01*
X0211173Y0149821D01*
X0206616Y0145264D01*
X0199076Y0145264D01*
X0199076Y0146190D01*
X0194196Y0146190D01*
X0194196Y0147149D01*
X0193237Y0147149D01*
X0194196Y0147149D02*
X0194196Y0152619D01*
X0196551Y0152619D01*
X0197092Y0152511D01*
X0197602Y0152300D01*
X0198060Y0151994D01*
X0198450Y0151604D01*
X0198757Y0151145D01*
X0198968Y0150636D01*
X0199076Y0150095D01*
X0199076Y0147149D01*
X0194196Y0147149D01*
X0194196Y0148200D02*
X0193237Y0148200D01*
X0196200Y0147149D02*
X0196200Y0146190D01*
X0199400Y0145264D02*
X0199400Y0154954D01*
X0200256Y0154600D02*
X0196075Y0154600D01*
X0196200Y0154652D02*
X0196200Y0152619D01*
X0194196Y0151400D02*
X0193237Y0151400D01*
X0193000Y0152619D02*
X0193000Y0153953D01*
X0198587Y0151400D02*
X0211499Y0151400D01*
X0212200Y0152503D02*
X0212200Y0153953D01*
X0210256Y0154600D02*
X0206075Y0154600D01*
X0205800Y0154486D02*
X0205800Y0145264D01*
X0202600Y0145264D02*
X0202600Y0153953D01*
X0209000Y0155313D02*
X0209000Y0147647D01*
X0209553Y0148200D02*
X0199076Y0148200D01*
X0198165Y0165301D02*
X0197001Y0166465D01*
X0194512Y0167496D01*
X0191818Y0167496D01*
X0191406Y0167325D01*
X0203634Y0179553D01*
X0204034Y0180520D01*
X0204201Y0180408D01*
X0204711Y0180197D01*
X0205252Y0180090D01*
X0211642Y0180090D01*
X0211642Y0185264D01*
X0213192Y0185264D01*
X0213192Y0180090D01*
X0219583Y0180090D01*
X0220124Y0180197D01*
X0220633Y0180408D01*
X0221092Y0180715D01*
X0221482Y0181105D01*
X0221788Y0181563D01*
X0221999Y0182073D01*
X0222107Y0182614D01*
X0222107Y0185265D01*
X0213192Y0185265D01*
X0213192Y0186814D01*
X0222107Y0186814D01*
X0222107Y0189465D01*
X0221999Y0190006D01*
X0221788Y0190515D01*
X0221482Y0190974D01*
X0221092Y0191364D01*
X0220633Y0191670D01*
X0220124Y0191881D01*
X0219583Y0191989D01*
X0213192Y0191989D01*
X0213192Y0186814D01*
X0211642Y0186814D01*
X0211642Y0191989D01*
X0205252Y0191989D01*
X0204711Y0191881D01*
X0204201Y0191670D01*
X0204034Y0191559D01*
X0203634Y0192525D01*
X0202368Y0193791D01*
X0201665Y0194494D01*
X0200399Y0195760D01*
X0198745Y0196445D01*
X0197038Y0196445D01*
X0196797Y0196545D01*
X0185976Y0196545D01*
X0182765Y0199756D01*
X0182765Y0205153D01*
X0183080Y0205153D01*
X0183080Y0210638D01*
X0183251Y0210638D01*
X0183251Y0205153D01*
X0183604Y0205153D01*
X0184470Y0205290D01*
X0185304Y0205561D01*
X0186086Y0205959D01*
X0186795Y0206475D01*
X0187361Y0207041D01*
X0187425Y0206889D01*
X0189330Y0204984D01*
X0191818Y0203953D01*
X0194512Y0203953D01*
X0197001Y0204984D01*
X0198165Y0206148D01*
X0199330Y0204984D01*
X0201818Y0203953D01*
X0204512Y0203953D01*
X0207001Y0204984D01*
X0208165Y0206148D01*
X0209330Y0204984D01*
X0211818Y0203953D01*
X0214512Y0203953D01*
X0217001Y0204984D01*
X0218165Y0206148D01*
X0219330Y0204984D01*
X0221818Y0203953D01*
X0223365Y0203953D01*
X0223365Y0192959D01*
X0224096Y0191194D01*
X0225446Y0189844D01*
X0228365Y0186925D01*
X0228365Y0165501D01*
X0228165Y0165301D01*
X0227001Y0166465D01*
X0224512Y0167496D01*
X0221818Y0167496D01*
X0219330Y0166465D01*
X0218165Y0165301D01*
X0217001Y0166465D01*
X0214512Y0167496D01*
X0211818Y0167496D01*
X0209330Y0166465D01*
X0208165Y0165301D01*
X0207001Y0166465D01*
X0204512Y0167496D01*
X0201818Y0167496D01*
X0199330Y0166465D01*
X0198165Y0165301D01*
X0199400Y0166494D02*
X0199400Y0175320D01*
X0197880Y0173800D02*
X0228365Y0173800D01*
X0228365Y0170600D02*
X0194680Y0170600D01*
X0196200Y0172120D02*
X0196200Y0166797D01*
X0194744Y0167400D02*
X0201587Y0167400D01*
X0202600Y0167496D02*
X0202600Y0178520D01*
X0203902Y0180200D02*
X0204704Y0180200D01*
X0205800Y0180090D02*
X0205800Y0166963D01*
X0204744Y0167400D02*
X0211587Y0167400D01*
X0212200Y0167496D02*
X0212200Y0185264D01*
X0212200Y0186814D02*
X0212200Y0203953D01*
X0215400Y0204320D02*
X0215400Y0191989D01*
X0213192Y0189800D02*
X0211642Y0189800D01*
X0209000Y0191989D02*
X0209000Y0205313D01*
X0208513Y0205800D02*
X0207818Y0205800D01*
X0205800Y0204486D02*
X0205800Y0191989D01*
X0203159Y0193000D02*
X0223365Y0193000D01*
X0221800Y0190487D02*
X0221800Y0203960D01*
X0223365Y0202600D02*
X0182765Y0202600D01*
X0183400Y0205153D02*
X0183400Y0199121D01*
X0183121Y0199400D02*
X0223365Y0199400D01*
X0223365Y0196200D02*
X0199337Y0196200D01*
X0199400Y0196174D02*
X0199400Y0204954D01*
X0198513Y0205800D02*
X0197818Y0205800D01*
X0196200Y0204652D02*
X0196200Y0196545D01*
X0193000Y0196545D02*
X0193000Y0203953D01*
X0189800Y0204789D02*
X0189800Y0196545D01*
X0186600Y0196545D02*
X0186600Y0206333D01*
X0185773Y0205800D02*
X0188513Y0205800D01*
X0183251Y0205800D02*
X0183080Y0205800D01*
X0183080Y0209000D02*
X0183251Y0209000D01*
X0183400Y0210639D02*
X0183400Y0210810D01*
X0183251Y0212200D02*
X0183080Y0212200D01*
X0183080Y0215400D02*
X0183251Y0215400D01*
X0183400Y0216296D02*
X0183400Y0256843D01*
X0180200Y0256843D02*
X0180200Y0241550D01*
X0180750Y0241000D02*
X0183724Y0241000D01*
X0183724Y0237800D02*
X0182665Y0237800D01*
X0182665Y0234600D02*
X0185130Y0234600D01*
X0185745Y0231400D02*
X0182665Y0231400D01*
X0182665Y0228200D02*
X0185745Y0228200D01*
X0185745Y0225000D02*
X0182665Y0225000D01*
X0182665Y0221800D02*
X0185745Y0221800D01*
X0185745Y0218600D02*
X0182665Y0218600D01*
X0173665Y0218600D02*
X0139358Y0218600D01*
X0139358Y0215400D02*
X0168264Y0215400D01*
X0167425Y0214560D02*
X0166394Y0212071D01*
X0166394Y0209377D01*
X0166847Y0208282D01*
X0166847Y0194719D01*
X0166696Y0194820D01*
X0166187Y0195031D01*
X0165646Y0195139D01*
X0162897Y0195139D01*
X0162897Y0190259D01*
X0161938Y0190259D01*
X0161938Y0195139D01*
X0159189Y0195139D01*
X0158648Y0195031D01*
X0158138Y0194820D01*
X0157680Y0194513D01*
X0157290Y0194123D01*
X0156983Y0193665D01*
X0156772Y0193155D01*
X0156665Y0192614D01*
X0156665Y0190259D01*
X0161938Y0190259D01*
X0161938Y0189300D01*
X0156665Y0189300D01*
X0156665Y0187715D01*
X0156074Y0187124D01*
X0155465Y0185654D01*
X0155465Y0178945D01*
X0155738Y0178285D01*
X0145964Y0168511D01*
X0145964Y0170477D01*
X0142918Y0173523D01*
X0141928Y0173523D01*
X0139358Y0176092D01*
X0139358Y0222197D01*
X0145890Y0222197D01*
X0147360Y0222806D01*
X0148486Y0223931D01*
X0148638Y0224299D01*
X0148790Y0223931D01*
X0149915Y0222806D01*
X0151385Y0222197D01*
X0158095Y0222197D01*
X0158480Y0222357D01*
X0158866Y0222197D01*
X0165575Y0222197D01*
X0167045Y0222806D01*
X0168171Y0223931D01*
X0168780Y0225401D01*
X0168780Y0233292D01*
X0168171Y0234762D01*
X0167045Y0235887D01*
X0167020Y0235897D01*
X0167020Y0236797D01*
X0166290Y0238561D01*
X0166043Y0238809D01*
X0166043Y0239374D01*
X0165446Y0239971D01*
X0165793Y0240040D01*
X0166303Y0240251D01*
X0166761Y0240557D01*
X0167151Y0240947D01*
X0167458Y0241406D01*
X0167504Y0241518D01*
X0173665Y0235356D01*
X0173665Y0217496D01*
X0171818Y0217496D01*
X0169330Y0216465D01*
X0167425Y0214560D01*
X0167400Y0214501D02*
X0167400Y0223160D01*
X0168613Y0225000D02*
X0173665Y0225000D01*
X0173665Y0221800D02*
X0139358Y0221800D01*
X0141800Y0222197D02*
X0141800Y0173651D01*
X0141651Y0173800D02*
X0151252Y0173800D01*
X0151400Y0173948D02*
X0151400Y0222197D01*
X0154600Y0222197D02*
X0154600Y0177148D01*
X0154452Y0177000D02*
X0139358Y0177000D01*
X0139358Y0180200D02*
X0155465Y0180200D01*
X0155465Y0183400D02*
X0139358Y0183400D01*
X0139358Y0186600D02*
X0155856Y0186600D01*
X0157800Y0189300D02*
X0157800Y0190259D01*
X0156741Y0193000D02*
X0139358Y0193000D01*
X0139358Y0189800D02*
X0161938Y0189800D01*
X0161000Y0190259D02*
X0161000Y0189300D01*
X0161938Y0193000D02*
X0162897Y0193000D01*
X0164200Y0195139D02*
X0164200Y0222197D01*
X0161000Y0222197D02*
X0161000Y0195139D01*
X0157800Y0194594D02*
X0157800Y0222197D01*
X0162220Y0229346D02*
X0162220Y0235843D01*
X0160843Y0237220D01*
X0166605Y0237800D02*
X0171222Y0237800D01*
X0170600Y0238422D02*
X0170600Y0216991D01*
X0166447Y0212200D02*
X0139358Y0212200D01*
X0139358Y0209000D02*
X0166550Y0209000D01*
X0166847Y0205800D02*
X0139358Y0205800D01*
X0139358Y0202600D02*
X0166847Y0202600D01*
X0166847Y0199400D02*
X0139358Y0199400D01*
X0139358Y0196200D02*
X0166847Y0196200D01*
X0148200Y0170748D02*
X0148200Y0223646D01*
X0145000Y0222197D02*
X0145000Y0171441D01*
X0145841Y0170600D02*
X0148052Y0170600D01*
X0191480Y0167400D02*
X0191587Y0167400D01*
X0193000Y0167496D02*
X0193000Y0168920D01*
X0201080Y0177000D02*
X0228365Y0177000D01*
X0228365Y0180200D02*
X0220130Y0180200D01*
X0218600Y0180090D02*
X0218600Y0165736D01*
X0221587Y0167400D02*
X0214744Y0167400D01*
X0215400Y0167128D02*
X0215400Y0180090D01*
X0213192Y0180200D02*
X0211642Y0180200D01*
X0209000Y0180090D02*
X0209000Y0166136D01*
X0218600Y0155713D02*
X0218600Y0153819D01*
X0220256Y0154600D02*
X0216075Y0154600D01*
X0215400Y0154320D02*
X0215400Y0153819D01*
X0221800Y0153795D02*
X0221800Y0153960D01*
X0225000Y0153819D02*
X0225000Y0154155D01*
X0226075Y0154600D02*
X0230256Y0154600D01*
X0231400Y0154126D02*
X0231400Y0151869D01*
X0234600Y0151869D02*
X0234600Y0153989D01*
X0236075Y0154600D02*
X0237797Y0154600D01*
X0237800Y0154603D02*
X0237800Y0155782D01*
X0233165Y0160724D02*
X0233165Y0188913D01*
X0228165Y0193913D01*
X0228165Y0229740D01*
X0228200Y0234940D02*
X0228200Y0256843D01*
X0225000Y0256843D02*
X0225000Y0250529D01*
X0224929Y0250600D02*
X0269405Y0250600D01*
X0269800Y0250663D02*
X0269800Y0256843D01*
X0266600Y0256843D02*
X0266600Y0249180D01*
X0265289Y0247400D02*
X0227268Y0247400D01*
X0227724Y0244200D02*
X0264728Y0244200D01*
X0266600Y0242106D02*
X0266600Y0241705D01*
X0264728Y0241000D02*
X0227724Y0241000D01*
X0227724Y0237800D02*
X0264830Y0237800D01*
X0266600Y0234631D02*
X0266600Y0115244D01*
X0269800Y0115411D02*
X0269800Y0233148D01*
X0270328Y0234600D02*
X0270728Y0234600D01*
X0273000Y0233656D02*
X0273000Y0113574D01*
X0276200Y0115079D02*
X0276200Y0233334D01*
X0274934Y0234600D02*
X0274424Y0234600D01*
X0270728Y0237800D02*
X0270328Y0237800D01*
X0270328Y0241000D02*
X0270728Y0241000D01*
X0269800Y0241705D02*
X0269800Y0242106D01*
X0270328Y0244200D02*
X0270728Y0244200D01*
X0270728Y0247400D02*
X0270328Y0247400D01*
X0273000Y0250155D02*
X0273000Y0256843D01*
X0276200Y0256843D02*
X0276200Y0250477D01*
X0276323Y0250600D02*
X0271650Y0250600D01*
X0270728Y0250600D02*
X0270328Y0250600D01*
X0279400Y0251905D02*
X0279400Y0256843D01*
X0282600Y0256843D02*
X0282600Y0251624D01*
X0284733Y0250600D02*
X0286323Y0250600D01*
X0285800Y0250077D02*
X0285800Y0256843D01*
X0289000Y0256843D02*
X0289000Y0251850D01*
X0292200Y0251789D02*
X0292200Y0256843D01*
X0295400Y0256843D02*
X0295400Y0249933D01*
X0294733Y0250600D02*
X0312024Y0250600D01*
X0311400Y0253592D02*
X0311400Y0231418D01*
X0311418Y0231400D02*
X0312024Y0231400D01*
X0312024Y0234600D02*
X0296122Y0234600D01*
X0295400Y0233878D02*
X0295400Y0233639D01*
X0298600Y0232578D02*
X0298600Y0256843D01*
X0301800Y0256843D02*
X0301800Y0232578D01*
X0305000Y0232578D02*
X0305000Y0256843D01*
X0308200Y0256792D02*
X0308200Y0232578D01*
X0312024Y0237800D02*
X0297528Y0237800D01*
X0297528Y0241000D02*
X0312024Y0241000D01*
X0312024Y0244200D02*
X0297528Y0244200D01*
X0297071Y0247400D02*
X0312024Y0247400D01*
X0311192Y0253800D02*
X0167950Y0253800D01*
X0167400Y0254350D02*
X0167400Y0256843D01*
X0164200Y0256843D02*
X0164200Y0255500D01*
X0161000Y0255500D02*
X0161000Y0256843D01*
X0157800Y0256843D02*
X0157800Y0255500D01*
X0154600Y0255500D02*
X0154600Y0256843D01*
X0151400Y0256843D02*
X0151400Y0255500D01*
X0148200Y0255500D02*
X0148200Y0256843D01*
X0145000Y0256843D02*
X0145000Y0255500D01*
X0141800Y0255500D02*
X0141800Y0256843D01*
X0162614Y0245094D02*
X0170291Y0237417D01*
X0170291Y0225409D01*
X0168780Y0228200D02*
X0173665Y0228200D01*
X0173665Y0231400D02*
X0168780Y0231400D01*
X0168238Y0234600D02*
X0173665Y0234600D01*
X0167400Y0235532D02*
X0167400Y0241320D01*
X0167186Y0241000D02*
X0168022Y0241000D01*
X0174350Y0247400D02*
X0184181Y0247400D01*
X0183724Y0244200D02*
X0177550Y0244200D01*
X0177000Y0244750D02*
X0177000Y0256843D01*
X0173800Y0256843D02*
X0173800Y0247950D01*
X0171150Y0250600D02*
X0186519Y0250600D01*
X0186600Y0250681D02*
X0186600Y0256843D01*
X0189800Y0256843D02*
X0189800Y0251905D01*
X0193000Y0251540D02*
X0193000Y0256843D01*
X0196200Y0256843D02*
X0196200Y0250281D01*
X0196519Y0250600D02*
X0194929Y0250600D01*
X0199400Y0251905D02*
X0199400Y0256843D01*
X0202600Y0256843D02*
X0202600Y0251705D01*
X0204929Y0250600D02*
X0206519Y0250600D01*
X0205800Y0249881D02*
X0205800Y0256843D01*
X0209000Y0256843D02*
X0209000Y0251768D01*
X0212200Y0251871D02*
X0212200Y0256843D01*
X0215400Y0256843D02*
X0215400Y0250129D01*
X0214929Y0250600D02*
X0216519Y0250600D01*
X0218600Y0251602D02*
X0218600Y0256843D01*
X0221800Y0256843D02*
X0221800Y0251905D01*
X0231400Y0256843D02*
X0231400Y0233859D01*
X0230659Y0234600D02*
X0266631Y0234600D01*
X0279400Y0231906D02*
X0279400Y0173462D01*
X0279641Y0173800D02*
X0254231Y0173800D01*
X0254231Y0170600D02*
X0278783Y0170600D01*
X0278783Y0167400D02*
X0254231Y0167400D01*
X0254231Y0164200D02*
X0278783Y0164200D01*
X0278783Y0161000D02*
X0254231Y0161000D01*
X0254231Y0157800D02*
X0278783Y0157800D01*
X0278783Y0154600D02*
X0252505Y0154600D01*
X0253800Y0152886D02*
X0253800Y0156404D01*
X0257000Y0153838D02*
X0257000Y0256843D01*
X0253800Y0256843D02*
X0253800Y0180635D01*
X0253980Y0180200D02*
X0286041Y0180200D01*
X0285800Y0179959D02*
X0285800Y0228531D01*
X0286131Y0228200D02*
X0233365Y0228200D01*
X0233365Y0231400D02*
X0282931Y0231400D01*
X0282600Y0231731D02*
X0282600Y0176759D01*
X0282841Y0177000D02*
X0254231Y0177000D01*
X0251544Y0183400D02*
X0289241Y0183400D01*
X0289000Y0183159D02*
X0289000Y0225331D01*
X0289331Y0225000D02*
X0232965Y0225000D01*
X0232965Y0221800D02*
X0297150Y0221800D01*
X0295400Y0222178D02*
X0295400Y0189559D01*
X0295641Y0189800D02*
X0245144Y0189800D01*
X0244200Y0190744D02*
X0244200Y0205247D01*
X0243251Y0205800D02*
X0243080Y0205800D01*
X0241000Y0205574D02*
X0241000Y0193944D01*
X0241944Y0193000D02*
X0297150Y0193000D01*
X0298387Y0196200D02*
X0238744Y0196200D01*
X0238447Y0199400D02*
X0297676Y0199400D01*
X0298600Y0197713D02*
X0298600Y0196413D01*
X0297150Y0202600D02*
X0238424Y0202600D01*
X0238401Y0205800D02*
X0240557Y0205800D01*
X0243080Y0209000D02*
X0243251Y0209000D01*
X0244200Y0210639D02*
X0244200Y0210810D01*
X0243251Y0212200D02*
X0243080Y0212200D01*
X0243080Y0215400D02*
X0243251Y0215400D01*
X0244200Y0216202D02*
X0244200Y0256843D01*
X0241000Y0256843D02*
X0241000Y0215874D01*
X0240122Y0215400D02*
X0238066Y0215400D01*
X0237800Y0215666D02*
X0237800Y0256843D01*
X0234600Y0256843D02*
X0234600Y0217460D01*
X0232965Y0218600D02*
X0297150Y0218600D01*
X0298600Y0215956D02*
X0298600Y0213752D01*
X0298600Y0212263D02*
X0298600Y0211863D01*
X0298600Y0210374D02*
X0298600Y0206413D01*
X0298121Y0205800D02*
X0245773Y0205800D01*
X0247400Y0207080D02*
X0247400Y0187544D01*
X0248344Y0186600D02*
X0292441Y0186600D01*
X0292200Y0186359D02*
X0292200Y0222622D01*
X0299405Y0215400D02*
X0246209Y0215400D01*
X0247400Y0214369D02*
X0247400Y0256843D01*
X0250600Y0256843D02*
X0250600Y0184344D01*
X0228365Y0183400D02*
X0222107Y0183400D01*
X0221800Y0181591D02*
X0221800Y0167488D01*
X0224744Y0167400D02*
X0228365Y0167400D01*
X0228200Y0165336D02*
X0228200Y0187091D01*
X0228365Y0186600D02*
X0213192Y0186600D01*
X0215400Y0186814D02*
X0215400Y0185265D01*
X0213192Y0183400D02*
X0211642Y0183400D01*
X0218600Y0185265D02*
X0218600Y0186814D01*
X0221800Y0186814D02*
X0221800Y0185265D01*
X0222040Y0189800D02*
X0225491Y0189800D01*
X0225000Y0190291D02*
X0225000Y0167294D01*
X0228200Y0156113D02*
X0228200Y0153819D01*
X0239053Y0141800D02*
X0252406Y0141800D01*
X0252406Y0138600D02*
X0238483Y0138600D01*
X0237800Y0135958D02*
X0237800Y0115449D01*
X0241000Y0114914D02*
X0241000Y0143095D01*
X0242905Y0145000D02*
X0252406Y0145000D01*
X0251706Y0148200D02*
X0246105Y0148200D01*
X0247400Y0149495D02*
X0247400Y0115449D01*
X0250600Y0115080D02*
X0250600Y0152695D01*
X0249305Y0151400D02*
X0252314Y0151400D01*
X0260200Y0152697D02*
X0260200Y0256843D01*
X0263400Y0256843D02*
X0263400Y0113174D01*
X0261405Y0116200D02*
X0278783Y0116200D01*
X0278783Y0119400D02*
X0261405Y0119400D01*
X0261405Y0122600D02*
X0278783Y0122600D01*
X0278783Y0125800D02*
X0261405Y0125800D01*
X0261405Y0129000D02*
X0278783Y0129000D01*
X0278783Y0132200D02*
X0261405Y0132200D01*
X0261405Y0135400D02*
X0278783Y0135400D01*
X0278783Y0138600D02*
X0261405Y0138600D01*
X0261405Y0141800D02*
X0278783Y0141800D01*
X0278783Y0145000D02*
X0261405Y0145000D01*
X0262105Y0148200D02*
X0278783Y0148200D01*
X0278783Y0151400D02*
X0261497Y0151400D01*
X0252406Y0135400D02*
X0237242Y0135400D01*
X0234600Y0133324D02*
X0234600Y0114371D01*
X0233202Y0116200D02*
X0252406Y0116200D01*
X0252406Y0119400D02*
X0233202Y0119400D01*
X0233202Y0122600D02*
X0252406Y0122600D01*
X0252406Y0125800D02*
X0233202Y0125800D01*
X0233202Y0129000D02*
X0252406Y0129000D01*
X0252406Y0132200D02*
X0233476Y0132200D01*
X0228402Y0133913D02*
X0233283Y0138795D01*
X0228402Y0133913D02*
X0228402Y0108874D01*
X0244200Y0113971D02*
X0244200Y0146295D01*
X0218600Y0191989D02*
X0218600Y0205713D01*
X0218513Y0205800D02*
X0217818Y0205800D01*
X0202600Y0203953D02*
X0202600Y0193559D01*
X0202368Y0193791D02*
X0202368Y0193791D01*
X0201665Y0194494D02*
X0201665Y0194494D01*
X0247400Y0210639D02*
X0247400Y0210810D01*
X0248544Y0212200D02*
X0303950Y0212200D01*
X0301800Y0212263D02*
X0301800Y0211863D01*
X0299206Y0209000D02*
X0248463Y0209000D01*
X0170600Y0251150D02*
X0170600Y0256843D01*
X0114387Y0221800D02*
X0114068Y0221800D01*
X0103362Y0225016D02*
X0103362Y0229150D01*
X0103165Y0229346D01*
X0103362Y0225016D02*
X0094307Y0215961D01*
X0094307Y0198244D01*
X0093800Y0193044D02*
X0093800Y0178460D01*
X0097000Y0178460D02*
X0097000Y0193583D01*
X0089107Y0199400D02*
X0046570Y0199400D01*
X0058600Y0177864D02*
X0058600Y0172729D01*
X0058600Y0153953D02*
X0058600Y0152619D01*
X0059379Y0151400D02*
X0060338Y0151400D01*
X0061800Y0152619D02*
X0061800Y0152703D01*
X0068200Y0148956D02*
X0068200Y0103113D01*
X0068487Y0103400D02*
X0036610Y0103400D01*
X0036200Y0103810D02*
X0036200Y0107167D01*
X0035633Y0106600D02*
X0070603Y0106600D01*
X0070603Y0109800D02*
X0036622Y0109800D01*
X0036622Y0113000D02*
X0070603Y0113000D01*
X0070603Y0116200D02*
X0035233Y0116200D01*
X0036200Y0117167D02*
X0036200Y0113810D01*
X0036622Y0119400D02*
X0070603Y0119400D01*
X0071173Y0129000D02*
X0005000Y0129000D01*
X0021676Y0157800D02*
X0033189Y0157800D01*
X0071400Y0148956D02*
X0071400Y0129541D01*
X0077784Y0183400D02*
X0079334Y0183400D01*
X0087400Y0185265D02*
X0087400Y0186814D01*
X0093358Y0221800D02*
X0005000Y0221800D01*
X0008874Y0087614D02*
X0008874Y0082940D01*
X0007886Y0068200D02*
X0005000Y0068200D01*
X0005000Y0065000D02*
X0010355Y0065000D01*
X0146929Y0061800D02*
X0147609Y0061800D01*
X0148200Y0060830D02*
X0148200Y0059280D01*
X0147609Y0058600D02*
X0147050Y0058600D01*
X0148932Y0054525D02*
X0149083Y0054424D01*
X0149593Y0054213D01*
X0150134Y0054106D01*
X0156524Y0054105D01*
X0156524Y0059280D01*
X0158074Y0059280D01*
X0158074Y0054106D01*
X0164465Y0054106D01*
X0165006Y0054213D01*
X0165515Y0054424D01*
X0165974Y0054731D01*
X0166364Y0055121D01*
X0166670Y0055579D01*
X0166881Y0056089D01*
X0166885Y0056107D01*
X0168137Y0054855D01*
X0172445Y0054855D01*
X0175491Y0057901D01*
X0175491Y0062209D01*
X0174891Y0062809D01*
X0174891Y0069961D01*
X0176134Y0071203D01*
X0186954Y0071203D01*
X0188645Y0071903D01*
X0192582Y0075840D01*
X0193365Y0076623D01*
X0194604Y0077137D01*
X0195730Y0078262D01*
X0196109Y0079177D01*
X0249979Y0079177D01*
X0243248Y0072447D01*
X0242563Y0070793D01*
X0242563Y0066843D01*
X0241937Y0068354D01*
X0239771Y0070520D01*
X0236941Y0071692D01*
X0233878Y0071692D01*
X0231048Y0070520D01*
X0231020Y0070492D01*
X0229799Y0070492D01*
X0229771Y0070520D01*
X0226941Y0071692D01*
X0223878Y0071692D01*
X0221048Y0070520D01*
X0219348Y0068820D01*
X0218423Y0069745D01*
X0216953Y0070354D01*
X0210637Y0070354D01*
X0209167Y0069745D01*
X0208508Y0069086D01*
X0208166Y0069154D01*
X0205909Y0069154D01*
X0205909Y0064373D01*
X0205146Y0064373D01*
X0205146Y0063611D01*
X0200365Y0063611D01*
X0200365Y0062687D01*
X0197787Y0062687D01*
X0196339Y0064135D01*
X0196339Y0067937D01*
X0195730Y0069408D01*
X0194604Y0070533D01*
X0193134Y0071142D01*
X0186425Y0071142D01*
X0186039Y0070982D01*
X0185654Y0071142D01*
X0178945Y0071142D01*
X0177474Y0070533D01*
X0176349Y0069408D01*
X0175740Y0067937D01*
X0175740Y0060047D01*
X0176349Y0058577D01*
X0177474Y0057451D01*
X0178945Y0056843D01*
X0180778Y0056843D01*
X0189339Y0048281D01*
X0191030Y0047581D01*
X0214513Y0047581D01*
X0216204Y0048281D01*
X0224215Y0056292D01*
X0226941Y0056292D01*
X0228368Y0056883D01*
X0228299Y0056717D01*
X0228299Y0048039D01*
X0228908Y0046569D01*
X0230033Y0045444D01*
X0231504Y0044835D01*
X0239788Y0044835D01*
X0241258Y0045444D01*
X0242383Y0046569D01*
X0242563Y0047003D01*
X0242563Y0042536D01*
X0241873Y0042556D01*
X0241258Y0043171D01*
X0239788Y0043780D01*
X0231504Y0043780D01*
X0230033Y0043171D01*
X0228908Y0042045D01*
X0228299Y0040575D01*
X0228299Y0031897D01*
X0228908Y0030427D01*
X0230033Y0029302D01*
X0231504Y0028693D01*
X0239788Y0028693D01*
X0241258Y0029302D01*
X0241517Y0029561D01*
X0242563Y0029530D01*
X0242563Y0020580D01*
X0239705Y0017722D01*
X0239020Y0016068D01*
X0239020Y0014218D01*
X0238825Y0014249D01*
X0238402Y0014249D01*
X0238402Y0009437D01*
X0238402Y0009437D01*
X0238402Y0014249D01*
X0237979Y0014249D01*
X0237143Y0014116D01*
X0236338Y0013855D01*
X0235585Y0013471D01*
X0234900Y0012974D01*
X0234302Y0012375D01*
X0234153Y0012170D01*
X0233975Y0012598D01*
X0232126Y0014448D01*
X0229709Y0015449D01*
X0227167Y0015449D01*
X0209539Y0033077D01*
X0208273Y0034342D01*
X0206620Y0035028D01*
X0155768Y0035028D01*
X0155768Y0035954D01*
X0150889Y0035954D01*
X0150889Y0036913D01*
X0149930Y0036913D01*
X0149930Y0042186D01*
X0148932Y0042186D01*
X0148932Y0054525D01*
X0148932Y0052200D02*
X0185421Y0052200D01*
X0186600Y0051021D02*
X0186600Y0035028D01*
X0183400Y0035028D02*
X0183400Y0054221D01*
X0182221Y0055400D02*
X0172990Y0055400D01*
X0173800Y0056210D02*
X0173800Y0035028D01*
X0170600Y0035028D02*
X0170600Y0054855D01*
X0167593Y0055400D02*
X0166551Y0055400D01*
X0167400Y0055593D02*
X0167400Y0035028D01*
X0164200Y0035028D02*
X0164200Y0054106D01*
X0161000Y0054106D02*
X0161000Y0035028D01*
X0157800Y0035028D02*
X0157800Y0059280D01*
X0158074Y0058600D02*
X0156524Y0058600D01*
X0154600Y0059280D02*
X0154600Y0060830D01*
X0156524Y0061800D02*
X0158074Y0061800D01*
X0157800Y0060830D02*
X0157800Y0102299D01*
X0168402Y0106600D02*
X0168402Y0106600D01*
X0168402Y0109800D02*
X0168402Y0109800D01*
X0168402Y0113000D02*
X0168402Y0113000D01*
X0170600Y0103962D02*
X0170600Y0078680D01*
X0173800Y0080403D02*
X0173800Y0104177D01*
X0196200Y0079177D02*
X0196200Y0068272D01*
X0196230Y0068200D02*
X0201051Y0068200D01*
X0200990Y0068139D02*
X0200684Y0067681D01*
X0200473Y0067171D01*
X0200365Y0066630D01*
X0200365Y0064373D01*
X0205146Y0064373D01*
X0205146Y0069154D01*
X0202890Y0069154D01*
X0202349Y0069047D01*
X0201839Y0068836D01*
X0201380Y0068529D01*
X0200990Y0068139D01*
X0202600Y0069097D02*
X0202600Y0079177D01*
X0199400Y0079177D02*
X0199400Y0062687D01*
X0200365Y0065000D02*
X0196339Y0065000D01*
X0193000Y0071142D02*
X0193000Y0076258D01*
X0191342Y0074600D02*
X0245401Y0074600D01*
X0244200Y0073399D02*
X0244200Y0079177D01*
X0247400Y0079177D02*
X0247400Y0076599D01*
X0248601Y0077800D02*
X0195268Y0077800D01*
X0189800Y0073058D02*
X0189800Y0071142D01*
X0187430Y0071400D02*
X0223173Y0071400D01*
X0221800Y0070831D02*
X0221800Y0079177D01*
X0218600Y0079177D02*
X0218600Y0069569D01*
X0215400Y0070354D02*
X0215400Y0079177D01*
X0212200Y0079177D02*
X0212200Y0070354D01*
X0209000Y0069578D02*
X0209000Y0079177D01*
X0205800Y0079177D02*
X0205800Y0064373D01*
X0205909Y0065000D02*
X0205146Y0065000D01*
X0202600Y0064373D02*
X0202600Y0063611D01*
X0205146Y0068200D02*
X0205909Y0068200D01*
X0221800Y0053877D02*
X0221800Y0020816D01*
X0222416Y0020200D02*
X0242182Y0020200D01*
X0241000Y0019018D02*
X0241000Y0029195D01*
X0242563Y0026600D02*
X0216016Y0026600D01*
X0215400Y0027216D02*
X0215400Y0047948D01*
X0216923Y0049000D02*
X0228299Y0049000D01*
X0228299Y0052200D02*
X0220123Y0052200D01*
X0218600Y0050677D02*
X0218600Y0024016D01*
X0219216Y0023400D02*
X0242563Y0023400D01*
X0237800Y0028693D02*
X0237800Y0014221D01*
X0238402Y0013800D02*
X0238402Y0013800D01*
X0236230Y0013800D02*
X0232774Y0013800D01*
X0231400Y0014749D02*
X0231400Y0028736D01*
X0229535Y0029800D02*
X0212816Y0029800D01*
X0212200Y0030416D02*
X0212200Y0047581D01*
X0209000Y0047581D02*
X0209000Y0033616D01*
X0209616Y0033000D02*
X0228299Y0033000D01*
X0228299Y0036200D02*
X0150889Y0036200D01*
X0151400Y0035954D02*
X0151400Y0036913D01*
X0150889Y0036913D02*
X0155768Y0036913D01*
X0155768Y0039662D01*
X0155661Y0040203D01*
X0155450Y0040712D01*
X0155143Y0041171D01*
X0154753Y0041561D01*
X0154295Y0041867D01*
X0153785Y0042078D01*
X0153244Y0042186D01*
X0150889Y0042186D01*
X0150889Y0036913D01*
X0150889Y0039400D02*
X0149930Y0039400D01*
X0151400Y0042186D02*
X0151400Y0054106D01*
X0154600Y0054106D02*
X0154600Y0041663D01*
X0155768Y0039400D02*
X0228299Y0039400D01*
X0229463Y0042600D02*
X0148932Y0042600D01*
X0148932Y0045800D02*
X0229677Y0045800D01*
X0231400Y0044878D02*
X0231400Y0043737D01*
X0234600Y0043780D02*
X0234600Y0044835D01*
X0237800Y0044835D02*
X0237800Y0043780D01*
X0241000Y0043277D02*
X0241000Y0045337D01*
X0241614Y0045800D02*
X0242563Y0045800D01*
X0242563Y0042600D02*
X0241828Y0042600D01*
X0234600Y0028693D02*
X0234600Y0012674D01*
X0238402Y0010600D02*
X0238402Y0010600D01*
X0239406Y0017000D02*
X0225616Y0017000D01*
X0225000Y0017616D02*
X0225000Y0056292D01*
X0223323Y0055400D02*
X0228299Y0055400D01*
X0228200Y0056814D02*
X0228200Y0015449D01*
X0250027Y0015317D02*
X0250878Y0016167D01*
X0251563Y0017821D01*
X0251563Y0028349D01*
X0252639Y0027728D01*
X0255767Y0026890D01*
X0259006Y0026890D01*
X0259309Y0026971D01*
X0259135Y0026208D01*
X0259019Y0025180D01*
X0269098Y0025180D01*
X0269098Y0035258D01*
X0269066Y0035255D01*
X0269686Y0037570D01*
X0269686Y0040808D01*
X0269347Y0042074D01*
X0270036Y0042764D01*
X0270980Y0045042D01*
X0270980Y0066589D01*
X0271161Y0066450D01*
X0271898Y0066024D01*
X0272686Y0065698D01*
X0273509Y0065477D01*
X0274353Y0065366D01*
X0274580Y0065366D01*
X0274580Y0071666D01*
X0274980Y0071666D01*
X0274980Y0072066D01*
X0281280Y0072066D01*
X0281280Y0072292D01*
X0281168Y0073137D01*
X0280948Y0073960D01*
X0280622Y0074747D01*
X0280196Y0075485D01*
X0279677Y0076161D01*
X0279074Y0076764D01*
X0278398Y0077282D01*
X0277661Y0077708D01*
X0276873Y0078034D01*
X0276050Y0078255D01*
X0275206Y0078366D01*
X0274980Y0078366D01*
X0274980Y0072066D01*
X0274580Y0072066D01*
X0274580Y0078366D01*
X0274353Y0078366D01*
X0273608Y0078268D01*
X0297150Y0101809D01*
X0297150Y0100671D01*
X0298215Y0098098D01*
X0299250Y0097063D01*
X0298215Y0096028D01*
X0297337Y0093907D01*
X0297253Y0093991D01*
X0297253Y0093991D01*
X0296461Y0094783D01*
X0292153Y0094783D01*
X0291362Y0093991D01*
X0291362Y0093991D01*
X0289899Y0092528D01*
X0289107Y0091737D01*
X0289107Y0087429D01*
X0289899Y0086637D01*
X0297471Y0079065D01*
X0295851Y0078394D01*
X0295213Y0077756D01*
X0294574Y0078394D01*
X0291744Y0079566D01*
X0288681Y0079566D01*
X0285851Y0078394D01*
X0283685Y0076228D01*
X0282513Y0073398D01*
X0282513Y0070335D01*
X0283685Y0067504D01*
X0285770Y0065419D01*
X0285770Y0053235D01*
X0286470Y0051544D01*
X0287764Y0050250D01*
X0288199Y0049815D01*
X0288037Y0049852D01*
X0287009Y0049968D01*
X0287009Y0039889D01*
X0285409Y0039889D01*
X0285409Y0049968D01*
X0284380Y0049852D01*
X0283186Y0049579D01*
X0282031Y0049175D01*
X0280928Y0048644D01*
X0279891Y0047993D01*
X0278934Y0047229D01*
X0278068Y0046364D01*
X0277305Y0045406D01*
X0276654Y0044370D01*
X0276123Y0043267D01*
X0275718Y0042111D01*
X0275446Y0040918D01*
X0275330Y0039889D01*
X0285409Y0039889D01*
X0285409Y0038289D01*
X0287009Y0038289D01*
X0287009Y0028210D01*
X0288037Y0028326D01*
X0289231Y0028598D01*
X0290386Y0029003D01*
X0291489Y0029534D01*
X0291775Y0029713D01*
X0291676Y0029474D01*
X0291676Y0015449D01*
X0285031Y0015449D01*
X0283561Y0014840D01*
X0282647Y0013926D01*
X0282126Y0014448D01*
X0279709Y0015449D01*
X0277094Y0015449D01*
X0274677Y0014448D01*
X0273402Y0013172D01*
X0272728Y0013845D01*
X0272920Y0013889D01*
X0274075Y0014293D01*
X0275178Y0014825D01*
X0276215Y0015476D01*
X0277172Y0016239D01*
X0278038Y0017105D01*
X0278801Y0018062D01*
X0279453Y0019099D01*
X0279984Y0020202D01*
X0280388Y0021357D01*
X0280661Y0022551D01*
X0280776Y0023580D01*
X0270698Y0023580D01*
X0270698Y0025180D01*
X0269098Y0025180D01*
X0269098Y0023580D01*
X0259019Y0023580D01*
X0259135Y0022551D01*
X0259407Y0021357D01*
X0259811Y0020202D01*
X0260343Y0019099D01*
X0260994Y0018062D01*
X0261757Y0017105D01*
X0262623Y0016239D01*
X0263580Y0015476D01*
X0264617Y0014825D01*
X0265065Y0014609D01*
X0264677Y0014448D01*
X0263402Y0013172D01*
X0262126Y0014448D01*
X0259709Y0015449D01*
X0257094Y0015449D01*
X0254677Y0014448D01*
X0253402Y0013172D01*
X0252126Y0014448D01*
X0250027Y0015317D01*
X0250600Y0015080D02*
X0250600Y0015890D01*
X0251223Y0017000D02*
X0261862Y0017000D01*
X0263400Y0015620D02*
X0263400Y0013174D01*
X0262774Y0013800D02*
X0264029Y0013800D01*
X0260200Y0015246D02*
X0260200Y0019395D01*
X0259812Y0020200D02*
X0251563Y0020200D01*
X0251563Y0023400D02*
X0259039Y0023400D01*
X0260200Y0023580D02*
X0260200Y0025180D01*
X0259224Y0026600D02*
X0251563Y0026600D01*
X0253800Y0027417D02*
X0253800Y0013571D01*
X0254029Y0013800D02*
X0252774Y0013800D01*
X0257000Y0015410D02*
X0257000Y0026890D01*
X0263400Y0025180D02*
X0263400Y0023580D01*
X0266600Y0023580D02*
X0266600Y0025180D01*
X0269098Y0026600D02*
X0270698Y0026600D01*
X0270698Y0025180D02*
X0270698Y0035258D01*
X0271726Y0035142D01*
X0272920Y0034870D01*
X0274075Y0034466D01*
X0275178Y0033934D01*
X0276215Y0033283D01*
X0277172Y0032520D01*
X0278038Y0031654D01*
X0278801Y0030697D01*
X0279453Y0029660D01*
X0279984Y0028557D01*
X0280388Y0027402D01*
X0280661Y0026208D01*
X0280776Y0025180D01*
X0270698Y0025180D01*
X0269800Y0025180D02*
X0269800Y0042528D01*
X0269872Y0042600D02*
X0275889Y0042600D01*
X0276200Y0043428D02*
X0276200Y0065517D01*
X0276050Y0065477D02*
X0276873Y0065698D01*
X0277661Y0066024D01*
X0278398Y0066450D01*
X0279074Y0066969D01*
X0279677Y0067571D01*
X0280196Y0068247D01*
X0280622Y0068985D01*
X0280948Y0069772D01*
X0281168Y0070595D01*
X0281280Y0071440D01*
X0281280Y0071666D01*
X0274980Y0071666D01*
X0274980Y0065366D01*
X0275206Y0065366D01*
X0276050Y0065477D01*
X0274980Y0068200D02*
X0274580Y0068200D01*
X0273000Y0065614D02*
X0273000Y0034842D01*
X0270698Y0033000D02*
X0269098Y0033000D01*
X0269098Y0029800D02*
X0270698Y0029800D01*
X0273000Y0025180D02*
X0273000Y0023580D01*
X0276200Y0023580D02*
X0276200Y0025180D01*
X0279400Y0025180D02*
X0279400Y0023580D01*
X0280756Y0023400D02*
X0291676Y0023400D01*
X0291676Y0020200D02*
X0279983Y0020200D01*
X0279400Y0019015D02*
X0279400Y0015449D01*
X0277933Y0017000D02*
X0291676Y0017000D01*
X0289000Y0015449D02*
X0289000Y0028546D01*
X0287009Y0029800D02*
X0285409Y0029800D01*
X0285409Y0028210D02*
X0285409Y0038289D01*
X0275330Y0038289D01*
X0275446Y0037260D01*
X0275718Y0036067D01*
X0276123Y0034911D01*
X0276654Y0033808D01*
X0277305Y0032772D01*
X0278068Y0031814D01*
X0278934Y0030949D01*
X0279891Y0030185D01*
X0280928Y0029534D01*
X0282031Y0029003D01*
X0283186Y0028598D01*
X0284380Y0028326D01*
X0285409Y0028210D01*
X0282600Y0028804D02*
X0282600Y0013974D01*
X0285800Y0015449D02*
X0285800Y0038289D01*
X0285409Y0039400D02*
X0269686Y0039400D01*
X0269319Y0036200D02*
X0275688Y0036200D01*
X0276200Y0034750D02*
X0276200Y0033293D01*
X0276570Y0033000D02*
X0277161Y0033000D01*
X0279400Y0030577D02*
X0279400Y0029744D01*
X0279365Y0029800D02*
X0280504Y0029800D01*
X0280571Y0026600D02*
X0291676Y0026600D01*
X0287009Y0033000D02*
X0285409Y0033000D01*
X0285409Y0036200D02*
X0287009Y0036200D01*
X0285800Y0039889D02*
X0285800Y0053162D01*
X0286199Y0052200D02*
X0270980Y0052200D01*
X0270980Y0049000D02*
X0281667Y0049000D01*
X0282600Y0049374D02*
X0282600Y0070124D01*
X0282513Y0071400D02*
X0281274Y0071400D01*
X0279400Y0071666D02*
X0279400Y0072066D01*
X0280683Y0074600D02*
X0283011Y0074600D01*
X0282600Y0073609D02*
X0282600Y0087260D01*
X0282740Y0087400D02*
X0289136Y0087400D01*
X0289899Y0086637D02*
X0289899Y0086637D01*
X0292200Y0084336D02*
X0292200Y0079377D01*
X0289000Y0079566D02*
X0289000Y0093660D01*
X0289140Y0093800D02*
X0291170Y0093800D01*
X0292200Y0094783D02*
X0292200Y0096860D01*
X0292340Y0097000D02*
X0299187Y0097000D01*
X0298600Y0096413D02*
X0298600Y0097713D01*
X0297345Y0100200D02*
X0295540Y0100200D01*
X0295400Y0100060D02*
X0295400Y0094783D01*
X0289899Y0092528D02*
X0289899Y0092528D01*
X0289107Y0090600D02*
X0285940Y0090600D01*
X0285800Y0090460D02*
X0285800Y0078343D01*
X0285257Y0077800D02*
X0277439Y0077800D01*
X0276200Y0078215D02*
X0276200Y0080860D01*
X0276340Y0081000D02*
X0295536Y0081000D01*
X0295400Y0081136D02*
X0295400Y0077943D01*
X0295257Y0077800D02*
X0295168Y0077800D01*
X0292336Y0084200D02*
X0279540Y0084200D01*
X0279400Y0084060D02*
X0279400Y0076438D01*
X0274980Y0077800D02*
X0274580Y0077800D01*
X0274580Y0074600D02*
X0274980Y0074600D01*
X0276200Y0072066D02*
X0276200Y0071666D01*
X0274980Y0071400D02*
X0274580Y0071400D01*
X0279400Y0067294D02*
X0279400Y0047601D01*
X0277619Y0045800D02*
X0270980Y0045800D01*
X0276200Y0039889D02*
X0276200Y0038289D01*
X0279400Y0038289D02*
X0279400Y0039889D01*
X0282600Y0039889D02*
X0282600Y0038289D01*
X0285409Y0042600D02*
X0287009Y0042600D01*
X0287009Y0045800D02*
X0285409Y0045800D01*
X0285409Y0049000D02*
X0287009Y0049000D01*
X0285770Y0055400D02*
X0270980Y0055400D01*
X0270980Y0058600D02*
X0285770Y0058600D01*
X0285770Y0061800D02*
X0270980Y0061800D01*
X0270980Y0065000D02*
X0285770Y0065000D01*
X0283397Y0068200D02*
X0280159Y0068200D01*
X0242815Y0071400D02*
X0237646Y0071400D01*
X0237800Y0071336D02*
X0237800Y0079177D01*
X0234600Y0079177D02*
X0234600Y0071692D01*
X0233173Y0071400D02*
X0227646Y0071400D01*
X0228200Y0071171D02*
X0228200Y0079177D01*
X0225000Y0079177D02*
X0225000Y0071692D01*
X0231400Y0070666D02*
X0231400Y0079177D01*
X0241000Y0079177D02*
X0241000Y0069291D01*
X0242001Y0068200D02*
X0242563Y0068200D01*
X0205800Y0047581D02*
X0205800Y0035028D01*
X0202600Y0035028D02*
X0202600Y0047581D01*
X0199400Y0047581D02*
X0199400Y0035028D01*
X0196200Y0035028D02*
X0196200Y0047581D01*
X0193000Y0047581D02*
X0193000Y0035028D01*
X0189800Y0035028D02*
X0189800Y0048091D01*
X0188621Y0049000D02*
X0148932Y0049000D01*
X0156524Y0055400D02*
X0158074Y0055400D01*
X0151400Y0059280D02*
X0151400Y0060830D01*
X0174891Y0065000D02*
X0175740Y0065000D01*
X0175849Y0068200D02*
X0174891Y0068200D01*
X0177000Y0070058D02*
X0177000Y0071203D01*
X0180200Y0071142D02*
X0180200Y0071203D01*
X0183400Y0071142D02*
X0183400Y0071203D01*
X0186600Y0071142D02*
X0186600Y0071203D01*
X0175740Y0061800D02*
X0175491Y0061800D01*
X0175491Y0058600D02*
X0176339Y0058600D01*
X0177000Y0057926D02*
X0177000Y0035028D01*
X0180200Y0035028D02*
X0180200Y0056843D01*
X0154600Y0036913D02*
X0154600Y0035954D01*
X0272774Y0013800D02*
X0274029Y0013800D01*
X0273000Y0013917D02*
X0273000Y0013574D01*
X0276200Y0015079D02*
X0276200Y0015466D01*
D32*
X0296276Y0008874D02*
X0296276Y0028559D01*
X0300213Y0032496D01*
X0300213Y0044307D01*
X0290370Y0054150D01*
X0290370Y0071709D01*
X0290213Y0071866D01*
X0225409Y0063992D02*
X0213598Y0052181D01*
X0191945Y0052181D01*
X0184071Y0060055D01*
X0184071Y0063992D01*
X0189976Y0063992D02*
X0195882Y0058087D01*
X0210449Y0058087D01*
X0213795Y0061433D01*
X0213795Y0063992D01*
X0205528Y0063992D02*
X0205331Y0063992D01*
X0197063Y0072260D01*
X0177378Y0072260D01*
X0174622Y0069504D01*
X0174622Y0056512D01*
X0172654Y0054543D01*
X0169110Y0054543D01*
X0168323Y0054543D01*
X0168323Y0054346D01*
X0170291Y0060055D02*
X0170291Y0071866D01*
X0174228Y0075803D01*
X0186039Y0075803D01*
X0189976Y0079740D01*
X0189780Y0079937D01*
X0189780Y0083677D01*
X0136827Y0026591D02*
X0119898Y0026591D01*
X0107299Y0039189D01*
X0107299Y0056118D01*
X0101394Y0065961D02*
X0092339Y0075016D01*
X0092339Y0128953D01*
X0106512Y0143126D01*
X0106512Y0151394D01*
X0103756Y0154150D01*
X0083677Y0154150D01*
X0079150Y0149622D01*
X0095094Y0123835D02*
X0106118Y0134858D01*
X0095094Y0123835D02*
X0095094Y0078559D01*
X0095488Y0077772D01*
X0101394Y0065961D02*
X0101394Y0023835D01*
X0107693Y0017535D01*
X0199740Y0017535D01*
X0208402Y0008874D01*
X0207102Y0151197D02*
X0207299Y0151394D01*
X0195882Y0191945D02*
X0184071Y0191945D01*
X0178165Y0197850D01*
X0178165Y0209661D01*
X0183165Y0210724D02*
X0184976Y0210724D01*
X0109307Y0160724D02*
X0109307Y0160488D01*
X0109268Y0160449D01*
X0050213Y0091551D02*
X0038008Y0091551D01*
X0032102Y0085646D01*
X0026197Y0085646D01*
X0024622Y0084071D01*
X0024622Y0070685D01*
X0024425Y0070488D01*
X0019622Y0070488D01*
X0024622Y0070685D02*
X0029425Y0070685D01*
X0029622Y0070488D01*
X0029740Y0059268D02*
X0025409Y0059268D01*
X0020882Y0054740D01*
X0020882Y0048244D01*
X0059071Y0033480D02*
X0059071Y0031118D01*
D33*
X0044307Y0016354D01*
X0022260Y0016354D01*
X0013992Y0024622D01*
X0013992Y0041354D01*
X0020882Y0048244D01*
X0028362Y0048244D02*
X0042339Y0048244D01*
X0042339Y0024622D01*
X0059071Y0033480D02*
X0084661Y0033480D01*
X0050213Y0048244D02*
X0069898Y0067929D01*
X0050213Y0048244D02*
X0042339Y0048244D01*
X0050213Y0091551D02*
X0050213Y0108480D01*
X0050213Y0114386D01*
X0071472Y0135646D01*
X0071472Y0146276D01*
X0071866Y0146669D01*
X0108402Y0108874D02*
X0108402Y0102260D01*
X0119110Y0091551D01*
X0126984Y0083677D01*
X0154543Y0083677D01*
X0160449Y0089583D01*
X0166354Y0083677D01*
X0166354Y0075803D01*
X0157299Y0066748D01*
X0157299Y0060055D01*
X0162811Y0054543D01*
X0168323Y0054543D01*
X0168323Y0054346D02*
X0150409Y0036433D01*
X0169110Y0054543D02*
X0184858Y0038795D01*
X0207299Y0038795D01*
X0233283Y0012811D01*
X0234465Y0012811D01*
X0238402Y0008874D01*
X0242339Y0036039D02*
X0235646Y0036236D01*
X0235646Y0052378D02*
X0235646Y0063756D01*
X0235409Y0063992D01*
X0225409Y0063992D01*
X0269898Y0024380D02*
X0271499Y0024380D01*
X0286209Y0039089D01*
X0274780Y0050518D01*
X0274780Y0071866D01*
X0207102Y0151197D02*
X0198244Y0151197D01*
X0198244Y0169898D02*
X0212417Y0184071D01*
X0212417Y0186039D02*
X0226197Y0186039D01*
X0212417Y0186039D02*
X0208480Y0189976D01*
X0205724Y0189976D01*
X0205724Y0197850D01*
X0189976Y0197850D01*
X0183283Y0204543D01*
X0183283Y0210606D01*
X0183165Y0210724D01*
X0183165Y0224346D01*
X0182102Y0225409D01*
X0170291Y0225409D02*
X0170291Y0221472D01*
X0162417Y0213598D01*
X0162417Y0189780D01*
X0168402Y0151315D02*
X0168402Y0108874D01*
X0168402Y0097535D01*
X0160449Y0089583D01*
X0093913Y0186039D02*
X0078559Y0186039D01*
X0079740Y0187220D02*
X0079740Y0193913D01*
X0075803Y0197850D01*
X0056118Y0197850D01*
X0049307Y0204661D01*
X0049307Y0210724D01*
X0049031Y0213598D02*
X0046866Y0215764D01*
X0045094Y0217535D01*
X0036433Y0217535D01*
X0028559Y0209661D01*
X0028559Y0189780D01*
X0093913Y0186039D02*
X0109268Y0201394D01*
X0109268Y0210685D01*
D34*
X0094307Y0198244D03*
X0140764Y0168323D03*
X0168323Y0151394D03*
X0140764Y0134858D03*
X0106118Y0134858D03*
X0103362Y0146669D03*
X0071866Y0146669D03*
X0050213Y0108480D03*
X0069898Y0067929D03*
X0029740Y0059268D03*
X0132890Y0093520D03*
X0170291Y0060055D03*
X0207693Y0097457D03*
X0186039Y0101394D03*
X0233283Y0138795D03*
X0256906Y0148638D03*
X0226197Y0186039D03*
X0189976Y0178165D03*
X0207299Y0151394D03*
X0182102Y0225409D03*
X0170291Y0225409D03*
X0160843Y0237220D03*
X0228165Y0229740D03*
X0294307Y0089583D03*
X0298638Y0054150D03*
X0242339Y0036039D03*
D35*
X0079740Y0187220D02*
X0078559Y0186039D01*
X0049307Y0210724D02*
X0049031Y0211000D01*
X0049031Y0213598D01*
X0103559Y0245094D02*
X0104150Y0245094D01*
X0109307Y0210724D02*
X0109268Y0210685D01*
X0270528Y0238087D02*
X0296551Y0212063D01*
X0304150Y0212063D01*
X0270528Y0238087D02*
X0270528Y0241906D01*
D36*
X0280528Y0241906D02*
X0280528Y0241157D01*
X0294307Y0227378D01*
X0308087Y0227378D01*
X0313992Y0221472D01*
X0313992Y0069898D01*
X0294307Y0089583D01*
X0313992Y0069898D02*
X0298638Y0054150D01*
X0203756Y0107299D02*
X0203756Y0123047D01*
X0223441Y0142732D01*
X0223441Y0146669D01*
X0225213Y0146669D01*
X0237220Y0146669D01*
X0249031Y0158480D01*
X0249031Y0178559D01*
X0233283Y0194307D01*
X0233165Y0210724D01*
X0212417Y0186039D02*
X0212417Y0184071D01*
X0198244Y0169898D02*
X0198244Y0151197D01*
X0193717Y0146669D01*
X0203756Y0107299D02*
X0184071Y0087614D01*
X0184071Y0083677D01*
X0182299Y0083677D01*
X0182299Y0063992D02*
X0184071Y0063992D01*
X0108402Y0008874D02*
X0093520Y0023441D01*
X0093520Y0058874D01*
X0062024Y0089583D01*
X0075803Y0103362D01*
X0075803Y0126591D01*
X0091157Y0141945D01*
X0091157Y0146472D01*
X0091354Y0146669D01*
X0103362Y0146669D01*
X0062024Y0089583D02*
X0046276Y0073835D01*
X0036433Y0073835D01*
X0030528Y0079740D01*
X0029622Y0080488D01*
X0036433Y0073835D02*
X0036433Y0069898D01*
X0030528Y0063992D01*
X0018717Y0063992D01*
X0012811Y0069898D01*
X0012811Y0071866D01*
X0008874Y0075803D01*
X0008874Y0076540D01*
X0050213Y0048244D02*
X0050213Y0046669D01*
X0042339Y0024622D02*
X0035252Y0024622D01*
X0099307Y0210724D02*
X0099425Y0211630D01*
X0114976Y0245094D02*
X0115173Y0245094D01*
X0132890Y0245094D02*
X0134661Y0245094D01*
X0304150Y0222063D02*
X0304150Y0221472D01*
X0310055Y0215567D01*
X0310055Y0158480D01*
X0304150Y0152575D01*
X0304150Y0152063D01*
D37*
X0304150Y0142063D02*
X0304150Y0140764D01*
X0310055Y0134858D01*
X0310055Y0109268D01*
X0304150Y0103362D01*
X0304150Y0102063D01*
X0296276Y0107299D02*
X0268717Y0079740D01*
X0256906Y0079740D01*
X0247063Y0069898D01*
X0247063Y0018717D01*
X0243520Y0015173D01*
X0243520Y0007299D01*
X0241157Y0004937D01*
X0203756Y0004937D01*
X0199819Y0008874D01*
X0198402Y0008874D01*
X0199819Y0026591D02*
X0136827Y0026591D01*
X0121079Y0030528D02*
X0111236Y0040370D01*
X0111236Y0067535D01*
X0097457Y0081315D01*
X0097457Y0117142D01*
X0109268Y0128953D01*
X0109268Y0160449D01*
X0089307Y0160724D02*
X0087614Y0160449D01*
X0079740Y0160449D01*
X0079307Y0160724D01*
X0083677Y0146669D02*
X0083874Y0146669D01*
X0052378Y0146669D02*
X0052181Y0146669D01*
X0052181Y0158480D01*
X0050213Y0160449D01*
X0049307Y0160724D01*
X0118402Y0108874D02*
X0119110Y0107299D01*
X0132890Y0093520D01*
X0128402Y0108874D02*
X0128953Y0109268D01*
X0128953Y0126984D01*
X0180134Y0178165D01*
X0189976Y0178165D01*
X0199819Y0182102D02*
X0184071Y0166354D01*
X0172260Y0166354D01*
X0148638Y0142732D01*
X0148638Y0109268D01*
X0148402Y0108874D01*
X0140764Y0111236D02*
X0138402Y0108874D01*
X0140764Y0111236D02*
X0140764Y0134858D01*
X0173165Y0160724D02*
X0174228Y0160449D01*
X0174228Y0147457D01*
X0180921Y0140764D01*
X0208480Y0140764D01*
X0214386Y0146669D01*
X0217732Y0146669D01*
X0221472Y0160449D02*
X0213598Y0160449D01*
X0213165Y0160724D01*
X0221472Y0160449D02*
X0223165Y0160724D01*
X0199819Y0182102D02*
X0199819Y0189976D01*
X0197850Y0191945D01*
X0195882Y0191945D01*
X0178165Y0209661D02*
X0178165Y0237220D01*
X0164386Y0251000D01*
X0140764Y0251000D01*
X0138795Y0249031D01*
X0138795Y0241945D01*
X0128953Y0233677D01*
X0128953Y0225016D01*
X0127378Y0223441D01*
X0119110Y0223441D01*
X0115173Y0227378D01*
X0117142Y0229346D01*
X0115370Y0229346D01*
X0122850Y0229346D02*
X0123047Y0229346D01*
X0123047Y0245094D01*
X0123244Y0245094D01*
X0134858Y0229346D02*
X0135055Y0229346D01*
X0134858Y0229346D02*
X0134858Y0174228D01*
X0140764Y0168323D01*
X0183165Y0160724D02*
X0184071Y0160449D01*
X0186039Y0158480D01*
X0186039Y0146669D01*
X0186236Y0146669D01*
X0178402Y0108874D02*
X0180134Y0107299D01*
X0186039Y0101394D01*
X0189780Y0083677D02*
X0263205Y0083677D01*
X0283283Y0103756D01*
X0283283Y0171079D01*
X0304150Y0191945D01*
X0304150Y0192063D01*
X0304150Y0182063D02*
X0304150Y0180134D01*
X0296276Y0172260D01*
X0296276Y0107299D01*
X0304150Y0112063D02*
X0304150Y0113205D01*
X0298244Y0119110D01*
X0298244Y0164386D01*
X0304150Y0170291D01*
X0304150Y0172063D01*
X0256906Y0148638D02*
X0256906Y0109268D01*
X0258402Y0108874D01*
X0218402Y0108874D02*
X0217535Y0107299D01*
X0207693Y0097457D01*
X0213598Y0063992D02*
X0213795Y0063992D01*
X0189976Y0063992D02*
X0189780Y0063992D01*
X0205724Y0030528D02*
X0121079Y0030528D01*
X0107299Y0056118D02*
X0107299Y0065961D01*
X0095488Y0077772D01*
X0083677Y0016748D02*
X0060055Y0016748D01*
X0059071Y0015764D01*
X0083677Y0016748D02*
X0084661Y0015764D01*
X0019622Y0080488D02*
X0018717Y0079740D01*
X0008874Y0079740D01*
X0095488Y0229346D02*
X0095685Y0229346D01*
X0095488Y0229346D02*
X0095488Y0245094D01*
X0095291Y0245094D01*
X0101394Y0229346D02*
X0103165Y0229346D01*
X0142535Y0229346D02*
X0142732Y0229346D01*
X0142732Y0245094D01*
X0142929Y0245094D01*
X0154346Y0245094D02*
X0154543Y0245094D01*
X0154543Y0229346D01*
X0154740Y0229346D01*
X0205724Y0030528D02*
X0227378Y0008874D01*
X0228402Y0008874D01*
X0218402Y0008874D02*
X0217535Y0008874D01*
X0199819Y0026591D01*
X0176197Y0002969D02*
X0290370Y0002969D01*
X0296276Y0008874D01*
X0176197Y0002969D02*
X0170291Y0008874D01*
X0168402Y0008874D01*
D38*
X0142929Y0036433D02*
X0142732Y0036433D01*
X0142732Y0046276D01*
X0119110Y0046276D01*
X0119110Y0046669D01*
X0134858Y0060055D02*
X0136039Y0060055D01*
X0138795Y0058087D01*
X0138795Y0073835D01*
X0136827Y0060055D02*
X0136039Y0060055D01*
X0136827Y0060055D02*
X0138795Y0058087D01*
X0142732Y0054150D01*
X0142732Y0046276D01*
X0101394Y0084465D02*
X0101394Y0115173D01*
X0141748Y0155528D01*
X0125016Y0172260D01*
X0075803Y0172260D01*
X0063992Y0184071D01*
X0058087Y0184071D01*
X0057299Y0186039D01*
X0056118Y0186039D01*
X0052181Y0182102D01*
X0040370Y0182102D01*
X0040370Y0209661D01*
X0039307Y0210724D01*
X0040370Y0182102D02*
X0032496Y0182102D01*
X0028559Y0182299D01*
X0141748Y0155528D02*
X0166354Y0180134D01*
X0162417Y0182299D01*
X0166354Y0182102D01*
X0173047Y0182102D01*
X0173047Y0209661D01*
X0173165Y0210724D01*
X0191945Y0211630D02*
X0193165Y0210724D01*
X0191945Y0211630D02*
X0191945Y0241157D01*
X0190724Y0241906D01*
X0200724Y0241906D02*
X0201787Y0241157D01*
X0201787Y0211630D01*
X0203165Y0210724D01*
X0211630Y0211630D02*
X0213165Y0210724D01*
X0211630Y0211630D02*
X0211630Y0241157D01*
X0210724Y0241906D01*
X0220724Y0241906D02*
X0221472Y0241157D01*
X0221472Y0211630D01*
X0223165Y0210724D01*
X0191157Y0186039D02*
X0189976Y0186039D01*
X0186039Y0182102D01*
X0173047Y0182102D01*
X0264780Y0071866D02*
X0264780Y0046276D01*
X0258874Y0040370D01*
X0257387Y0039189D01*
D39*
X0138795Y0073835D03*
D40*
X0136039Y0060055D02*
X0125409Y0060055D01*
X0101394Y0084071D01*
X0101394Y0084465D01*
M02*
