G75*
%MOIN*%
%OFA0B0*%
%FSLAX25Y25*%
%IPPOS*%
%LPD*%
%AMOC8*
5,1,8,0,0,1.08239X$1,22.5*
%
%ADD10C,0.00000*%
%ADD11C,0.06000*%
%ADD12R,0.06000X0.06000*%
%ADD13R,0.05150X0.05150*%
%ADD14C,0.05150*%
%ADD15C,0.05543*%
%ADD16R,0.05000X0.02500*%
%ADD17C,0.00800*%
%ADD18C,0.16598*%
%ADD19C,0.16200*%
%ADD20C,0.07400*%
%ADD21C,0.05937*%
%ADD22C,0.06000*%
%ADD23OC8,0.06000*%
%ADD24C,0.01200*%
%ADD25C,0.02400*%
%ADD26C,0.01600*%
%ADD27C,0.03200*%
%ADD28C,0.05000*%
%ADD29OC8,0.02570*%
%ADD30C,0.02400*%
%ADD31C,0.01000*%
%ADD32C,0.04000*%
D10*
X0001000Y0004937D02*
X0001000Y0256906D01*
X0004937Y0260843D01*
X0315961Y0260843D01*
X0320409Y0256906D01*
X0320409Y0004937D01*
X0315961Y0001000D01*
X0004937Y0001000D01*
X0001000Y0004937D01*
D11*
X0016039Y0142063D03*
X0016039Y0152063D03*
X0016039Y0162063D03*
X0016039Y0172063D03*
X0304150Y0172063D03*
X0304150Y0182063D03*
X0304150Y0192063D03*
X0304150Y0202063D03*
X0304150Y0212063D03*
X0304150Y0162063D03*
X0304150Y0152063D03*
X0304150Y0142063D03*
X0304150Y0132063D03*
X0304150Y0122063D03*
X0304150Y0112063D03*
X0304150Y0102063D03*
X0304150Y0092063D03*
D12*
X0304150Y0222063D03*
D13*
X0288402Y0012811D03*
D14*
X0278402Y0012811D03*
X0268402Y0012811D03*
X0258402Y0012811D03*
X0248402Y0012811D03*
X0238402Y0012811D03*
X0228402Y0012811D03*
X0218402Y0012811D03*
X0208402Y0012811D03*
X0198402Y0012811D03*
X0188402Y0012811D03*
X0178402Y0012811D03*
X0168402Y0012811D03*
X0158402Y0012811D03*
X0148402Y0012811D03*
X0138402Y0012811D03*
X0128402Y0012811D03*
X0118402Y0012811D03*
X0108402Y0012811D03*
X0108402Y0112811D03*
X0118402Y0112811D03*
X0128402Y0112811D03*
X0138402Y0112811D03*
X0148402Y0112811D03*
X0158402Y0112811D03*
X0168402Y0112811D03*
X0178402Y0112811D03*
X0188402Y0112811D03*
X0198402Y0112811D03*
X0208402Y0112811D03*
X0218402Y0112811D03*
X0228402Y0112811D03*
X0238402Y0112811D03*
X0248402Y0112811D03*
X0258402Y0112811D03*
X0268402Y0112811D03*
X0278402Y0112811D03*
X0288402Y0112811D03*
D15*
X0251039Y0160724D03*
X0241039Y0160724D03*
X0231039Y0160724D03*
X0221039Y0160724D03*
X0211039Y0160724D03*
X0201039Y0160724D03*
X0191039Y0160724D03*
X0181039Y0160724D03*
X0144740Y0160724D03*
X0134740Y0160724D03*
X0124740Y0160724D03*
X0114740Y0160724D03*
X0104740Y0160724D03*
X0094740Y0160724D03*
X0084740Y0160724D03*
X0074740Y0160724D03*
X0074740Y0210724D03*
X0084740Y0210724D03*
X0094740Y0210724D03*
X0104740Y0210724D03*
X0114740Y0210724D03*
X0124740Y0210724D03*
X0134740Y0210724D03*
X0144740Y0210724D03*
X0181039Y0210724D03*
X0191039Y0210724D03*
X0201039Y0210724D03*
X0211039Y0210724D03*
X0221039Y0210724D03*
X0231039Y0210724D03*
X0241039Y0210724D03*
X0251039Y0210724D03*
D16*
X0213598Y0172063D03*
X0213598Y0168520D03*
X0201787Y0168291D03*
X0201787Y0172291D03*
X0189976Y0172291D03*
X0189976Y0168291D03*
X0107299Y0168520D03*
X0107299Y0172063D03*
X0095488Y0172291D03*
X0095488Y0168291D03*
X0083677Y0168291D03*
X0083677Y0172291D03*
X0304150Y0081512D03*
X0304150Y0077969D03*
D17*
X0213344Y0074622D02*
X0208480Y0069759D01*
X0208480Y0069110D01*
X0201787Y0168791D02*
X0201787Y0171791D01*
X0189976Y0171791D02*
X0189976Y0168791D01*
X0095488Y0168791D02*
X0095488Y0171791D01*
X0083677Y0171791D02*
X0083677Y0168791D01*
D18*
X0257387Y0039189D03*
D19*
X0269898Y0024380D03*
X0286209Y0039089D03*
D20*
X0274780Y0071866D03*
X0264780Y0071866D03*
D21*
X0087630Y0033480D02*
X0081693Y0033480D01*
X0081693Y0015764D02*
X0087630Y0015764D01*
X0062039Y0015764D02*
X0056102Y0015764D01*
X0056102Y0033480D02*
X0062039Y0033480D01*
D22*
X0043559Y0238906D02*
X0043559Y0244906D01*
X0033559Y0244906D02*
X0033559Y0238906D01*
X0023559Y0238906D02*
X0023559Y0244906D01*
X0013559Y0244906D02*
X0013559Y0238906D01*
X0190724Y0238906D02*
X0190724Y0244906D01*
X0200724Y0244906D02*
X0200724Y0238906D01*
X0210724Y0238906D02*
X0210724Y0244906D01*
X0220724Y0244906D02*
X0220724Y0238906D01*
X0270528Y0238906D02*
X0270528Y0244906D01*
X0280528Y0244906D02*
X0280528Y0238906D01*
X0290528Y0238906D02*
X0290528Y0244906D01*
D23*
X0029622Y0120488D03*
X0029622Y0110488D03*
X0029622Y0100488D03*
X0029622Y0090488D03*
X0029622Y0080488D03*
X0019622Y0080488D03*
X0019622Y0090488D03*
X0019622Y0100488D03*
X0019622Y0110488D03*
X0019622Y0120488D03*
X0019622Y0070488D03*
X0029622Y0070488D03*
D24*
X0059500Y0033850D02*
X0059071Y0033480D01*
X0059500Y0033850D02*
X0084250Y0033850D01*
X0084661Y0033480D01*
X0108402Y0112811D02*
X0108100Y0113050D01*
X0085206Y0135944D01*
X0238600Y0013150D02*
X0238402Y0012811D01*
X0238600Y0013150D02*
X0239163Y0013150D01*
X0249963Y0023950D01*
X0269650Y0023950D01*
X0269898Y0024380D01*
X0251039Y0210724D02*
X0251200Y0211150D01*
X0252100Y0212050D01*
X0303850Y0212050D01*
X0304150Y0212063D01*
D25*
X0225550Y0154113D03*
X0213344Y0133356D03*
X0243269Y0120925D03*
X0208480Y0069110D03*
X0214863Y0064900D03*
X0198638Y0065173D03*
X0172654Y0057693D03*
X0162417Y0067929D03*
X0159176Y0033063D03*
X0061187Y0091450D03*
X0036100Y0084250D03*
X0040150Y0124300D03*
X0085206Y0135944D03*
X0119350Y0158050D03*
X0129475Y0190900D03*
X0129475Y0194894D03*
X0129813Y0199337D03*
X0175409Y0226591D03*
X0178165Y0243126D03*
X0126197Y0245094D03*
X0051963Y0194444D03*
X0030700Y0177852D03*
X0024622Y0178165D03*
X0028507Y0194500D03*
X0172000Y0148713D03*
X0218575Y0193656D03*
X0297100Y0070807D03*
D26*
X0201039Y0160724D02*
X0201039Y0168291D01*
X0201787Y0168291D01*
X0201787Y0172291D02*
X0201787Y0172450D01*
X0213400Y0172450D01*
X0201787Y0172291D02*
X0189976Y0172291D01*
X0189976Y0168291D02*
X0191039Y0168291D01*
X0191039Y0160724D01*
X0175409Y0226591D02*
X0175409Y0240370D01*
X0178165Y0243126D01*
X0107299Y0172291D02*
X0107299Y0172063D01*
X0107299Y0172291D02*
X0095488Y0172291D01*
X0083677Y0172291D01*
X0083677Y0168291D02*
X0084740Y0168291D01*
X0084740Y0160724D01*
X0094740Y0160724D02*
X0094740Y0168291D01*
X0095488Y0168291D01*
D27*
X0107425Y0191960D02*
X0099799Y0199587D01*
X0097593Y0200500D01*
X0053722Y0200500D01*
X0053513Y0200570D01*
X0052536Y0200500D01*
X0027314Y0200500D01*
X0025109Y0199587D01*
X0023421Y0197899D01*
X0022507Y0195693D01*
X0022507Y0193307D01*
X0023421Y0191101D01*
X0025109Y0189413D01*
X0013859Y0189413D01*
X0011911Y0188606D01*
X0010420Y0187115D01*
X0006548Y0183243D01*
X0006548Y0183243D01*
X0005800Y0182495D01*
X0005800Y0237255D01*
X0006947Y0234487D01*
X0009141Y0232293D01*
X0012008Y0231106D01*
X0015111Y0231106D01*
X0017977Y0232293D01*
X0018559Y0232875D01*
X0019141Y0232293D01*
X0022008Y0231106D01*
X0025111Y0231106D01*
X0027977Y0232293D01*
X0028559Y0232875D01*
X0029141Y0232293D01*
X0032008Y0231106D01*
X0035111Y0231106D01*
X0037977Y0232293D01*
X0038559Y0232875D01*
X0039141Y0232293D01*
X0042008Y0231106D01*
X0045111Y0231106D01*
X0047977Y0232293D01*
X0050172Y0234487D01*
X0050221Y0234606D01*
X0081480Y0234606D01*
X0087007Y0229079D01*
X0087007Y0216682D01*
X0086793Y0216771D01*
X0085986Y0216987D01*
X0085158Y0217096D01*
X0084740Y0217096D01*
X0084323Y0217096D01*
X0083494Y0216987D01*
X0082688Y0216771D01*
X0081916Y0216451D01*
X0081193Y0216034D01*
X0080596Y0215576D01*
X0079029Y0217143D01*
X0076246Y0218296D01*
X0073234Y0218296D01*
X0070451Y0217143D01*
X0068321Y0215013D01*
X0067169Y0212230D01*
X0067169Y0209218D01*
X0068321Y0206435D01*
X0070451Y0204305D01*
X0073234Y0203153D01*
X0076246Y0203153D01*
X0079029Y0204305D01*
X0080596Y0205873D01*
X0081193Y0205415D01*
X0081916Y0204998D01*
X0082688Y0204678D01*
X0083494Y0204462D01*
X0084323Y0204353D01*
X0084740Y0204353D01*
X0084740Y0210724D01*
X0084740Y0210724D01*
X0084740Y0204353D01*
X0085158Y0204353D01*
X0085986Y0204462D01*
X0086793Y0204678D01*
X0087564Y0204998D01*
X0088288Y0205415D01*
X0088884Y0205873D01*
X0090451Y0204305D01*
X0093234Y0203153D01*
X0096246Y0203153D01*
X0099029Y0204305D01*
X0099740Y0205016D01*
X0100451Y0204305D01*
X0103234Y0203153D01*
X0106246Y0203153D01*
X0109029Y0204305D01*
X0109740Y0205016D01*
X0110451Y0204305D01*
X0113234Y0203153D01*
X0116246Y0203153D01*
X0119029Y0204305D01*
X0119740Y0205016D01*
X0120111Y0204646D01*
X0107425Y0191960D01*
X0106000Y0193385D02*
X0106000Y0203153D01*
X0101000Y0204078D02*
X0101000Y0198385D01*
X0103385Y0196000D02*
X0111465Y0196000D01*
X0111000Y0195535D02*
X0111000Y0204078D01*
X0116000Y0203153D02*
X0116000Y0200535D01*
X0116465Y0201000D02*
X0005800Y0201000D01*
X0005800Y0196000D02*
X0022634Y0196000D01*
X0026000Y0199956D02*
X0026000Y0231474D01*
X0031000Y0231523D02*
X0031000Y0200500D01*
X0036000Y0200500D02*
X0036000Y0231474D01*
X0041000Y0231523D02*
X0041000Y0200500D01*
X0046000Y0200500D02*
X0046000Y0231474D01*
X0051000Y0234606D02*
X0051000Y0200500D01*
X0056000Y0200500D02*
X0056000Y0234606D01*
X0061000Y0234606D02*
X0061000Y0200500D01*
X0066000Y0200500D02*
X0066000Y0234606D01*
X0071000Y0234606D02*
X0071000Y0217371D01*
X0069308Y0216000D02*
X0005800Y0216000D01*
X0005800Y0211000D02*
X0067169Y0211000D01*
X0068757Y0206000D02*
X0005800Y0206000D01*
X0005800Y0191000D02*
X0023522Y0191000D01*
X0025109Y0189413D02*
X0025109Y0189413D01*
X0021000Y0189413D02*
X0021000Y0231523D01*
X0016000Y0231474D02*
X0016000Y0189413D01*
X0011000Y0187695D02*
X0011000Y0231523D01*
X0005800Y0231000D02*
X0085086Y0231000D01*
X0086000Y0230086D02*
X0086000Y0216983D01*
X0084740Y0217096D02*
X0084740Y0210725D01*
X0084740Y0217096D01*
X0084740Y0216000D02*
X0084740Y0216000D01*
X0081149Y0216000D02*
X0080172Y0216000D01*
X0081000Y0215886D02*
X0081000Y0234606D01*
X0076000Y0234606D02*
X0076000Y0218296D01*
X0084740Y0211000D02*
X0084740Y0211000D01*
X0084740Y0210725D02*
X0084740Y0210725D01*
X0084740Y0206000D02*
X0084740Y0206000D01*
X0086000Y0204466D02*
X0086000Y0200500D01*
X0081000Y0200500D02*
X0081000Y0205563D01*
X0076000Y0203153D02*
X0076000Y0200500D01*
X0071000Y0200500D02*
X0071000Y0204078D01*
X0091000Y0204078D02*
X0091000Y0200500D01*
X0096000Y0200500D02*
X0096000Y0203153D01*
X0087007Y0221000D02*
X0005800Y0221000D01*
X0005800Y0226000D02*
X0087007Y0226000D01*
X0105969Y0241000D02*
X0117047Y0241000D01*
X0117047Y0243138D02*
X0117047Y0236027D01*
X0117961Y0233822D01*
X0119649Y0232134D01*
X0119969Y0231814D01*
X0117806Y0232709D01*
X0114260Y0232709D01*
X0090927Y0256043D01*
X0190601Y0256043D01*
X0184536Y0249978D01*
X0184373Y0249585D01*
X0184112Y0249324D01*
X0182924Y0246457D01*
X0182924Y0237354D01*
X0184112Y0234487D01*
X0186306Y0232293D01*
X0189173Y0231106D01*
X0192276Y0231106D01*
X0195143Y0232293D01*
X0195724Y0232875D01*
X0196306Y0232293D01*
X0199173Y0231106D01*
X0202276Y0231106D01*
X0203739Y0231712D01*
X0203739Y0217802D01*
X0202545Y0218296D01*
X0199533Y0218296D01*
X0196750Y0217143D01*
X0195183Y0215576D01*
X0194587Y0216034D01*
X0193864Y0216451D01*
X0193092Y0216771D01*
X0192285Y0216987D01*
X0191457Y0217096D01*
X0191039Y0217096D01*
X0190622Y0217096D01*
X0189794Y0216987D01*
X0188987Y0216771D01*
X0188215Y0216451D01*
X0187492Y0216034D01*
X0186896Y0215576D01*
X0185328Y0217143D01*
X0182545Y0218296D01*
X0179533Y0218296D01*
X0176750Y0217143D01*
X0174620Y0215013D01*
X0173468Y0212230D01*
X0173468Y0211300D01*
X0151091Y0211300D01*
X0151003Y0211970D01*
X0150787Y0212777D01*
X0150467Y0213549D01*
X0150049Y0214272D01*
X0149541Y0214935D01*
X0148950Y0215525D01*
X0148288Y0216034D01*
X0147564Y0216451D01*
X0146793Y0216771D01*
X0145986Y0216987D01*
X0145158Y0217096D01*
X0144740Y0217096D01*
X0144323Y0217096D01*
X0143494Y0216987D01*
X0142688Y0216771D01*
X0141916Y0216451D01*
X0141193Y0216034D01*
X0140740Y0215686D01*
X0140740Y0226721D01*
X0139827Y0228926D01*
X0129170Y0239583D01*
X0129596Y0240008D01*
X0131283Y0241696D01*
X0132197Y0243901D01*
X0132197Y0246288D01*
X0131283Y0248493D01*
X0129596Y0250181D01*
X0127390Y0251094D01*
X0125003Y0251094D01*
X0122798Y0250181D01*
X0121110Y0248493D01*
X0117961Y0245344D01*
X0117047Y0243138D01*
X0118617Y0246000D02*
X0100969Y0246000D01*
X0101000Y0245969D02*
X0101000Y0256043D01*
X0106000Y0256043D02*
X0106000Y0240969D01*
X0110969Y0236000D02*
X0117058Y0236000D01*
X0116000Y0232709D02*
X0116000Y0256043D01*
X0121000Y0256043D02*
X0121000Y0248383D01*
X0124775Y0251000D02*
X0095969Y0251000D01*
X0096000Y0250969D02*
X0096000Y0256043D01*
X0091000Y0255969D02*
X0091000Y0256043D01*
X0090969Y0256000D02*
X0190558Y0256000D01*
X0186000Y0256043D02*
X0186000Y0251442D01*
X0185558Y0251000D02*
X0127618Y0251000D01*
X0126000Y0251094D02*
X0126000Y0256043D01*
X0131000Y0256043D02*
X0131000Y0248777D01*
X0132197Y0246000D02*
X0182924Y0246000D01*
X0182924Y0241000D02*
X0130588Y0241000D01*
X0131000Y0241412D02*
X0131000Y0237753D01*
X0132753Y0236000D02*
X0183485Y0236000D01*
X0186000Y0232599D02*
X0186000Y0216472D01*
X0186472Y0216000D02*
X0187448Y0216000D01*
X0191039Y0216000D02*
X0191039Y0216000D01*
X0191039Y0217096D02*
X0191039Y0211300D01*
X0191039Y0211300D01*
X0191039Y0217096D01*
X0191000Y0217096D02*
X0191000Y0231106D01*
X0196000Y0232599D02*
X0196000Y0216393D01*
X0195607Y0216000D02*
X0194631Y0216000D01*
X0201000Y0218296D02*
X0201000Y0231106D01*
X0203739Y0231000D02*
X0137753Y0231000D01*
X0136000Y0232753D02*
X0136000Y0256043D01*
X0141000Y0256043D02*
X0141000Y0215886D01*
X0141149Y0216000D02*
X0140740Y0216000D01*
X0144740Y0216000D02*
X0144740Y0216000D01*
X0144740Y0217096D02*
X0144740Y0211300D01*
X0144740Y0211300D01*
X0144740Y0217096D01*
X0146000Y0216983D02*
X0146000Y0256043D01*
X0151000Y0256043D02*
X0151000Y0211980D01*
X0148331Y0216000D02*
X0175607Y0216000D01*
X0176000Y0216393D02*
X0176000Y0256043D01*
X0171000Y0256043D02*
X0171000Y0211300D01*
X0166000Y0211300D02*
X0166000Y0256043D01*
X0161000Y0256043D02*
X0161000Y0211300D01*
X0156000Y0211300D02*
X0156000Y0256043D01*
X0181000Y0256043D02*
X0181000Y0218296D01*
X0203739Y0221000D02*
X0140740Y0221000D01*
X0140740Y0226000D02*
X0203739Y0226000D01*
X0220627Y0199300D02*
X0236193Y0199300D01*
X0238399Y0200213D01*
X0241338Y0203153D01*
X0242545Y0203153D01*
X0245328Y0204305D01*
X0246896Y0205873D01*
X0247492Y0205415D01*
X0248215Y0204998D01*
X0248987Y0204678D01*
X0249794Y0204462D01*
X0250622Y0204353D01*
X0251039Y0204353D01*
X0251039Y0210724D01*
X0251039Y0210724D01*
X0251039Y0204353D01*
X0251457Y0204353D01*
X0252285Y0204462D01*
X0253092Y0204678D01*
X0253864Y0204998D01*
X0254587Y0205415D01*
X0255249Y0205924D01*
X0255840Y0206514D01*
X0256349Y0207177D01*
X0256766Y0207900D01*
X0257086Y0208672D01*
X0257302Y0209479D01*
X0257411Y0210307D01*
X0257411Y0210724D01*
X0251039Y0210724D01*
X0251039Y0210724D01*
X0257411Y0210724D01*
X0257411Y0211142D01*
X0257302Y0211970D01*
X0257086Y0212777D01*
X0256766Y0213549D01*
X0256349Y0214272D01*
X0255840Y0214935D01*
X0255249Y0215525D01*
X0254696Y0215950D01*
X0297474Y0215950D01*
X0298298Y0215127D01*
X0298218Y0214988D01*
X0297886Y0214189D01*
X0297663Y0213353D01*
X0297550Y0212496D01*
X0297550Y0212063D01*
X0297550Y0211630D01*
X0297663Y0210773D01*
X0297886Y0209937D01*
X0298218Y0209138D01*
X0298650Y0208388D01*
X0298995Y0207939D01*
X0297537Y0206481D01*
X0296350Y0203615D01*
X0296350Y0200511D01*
X0297537Y0197645D01*
X0298119Y0197063D01*
X0297537Y0196481D01*
X0296350Y0193615D01*
X0296350Y0190511D01*
X0297028Y0188873D01*
X0294098Y0185943D01*
X0292607Y0184452D01*
X0291800Y0182504D01*
X0291800Y0119386D01*
X0289869Y0120186D01*
X0286935Y0120186D01*
X0284224Y0119063D01*
X0283402Y0118241D01*
X0282579Y0119063D01*
X0279869Y0120186D01*
X0276935Y0120186D01*
X0274224Y0119063D01*
X0273402Y0118241D01*
X0272579Y0119063D01*
X0269869Y0120186D01*
X0269550Y0120186D01*
X0269550Y0148304D01*
X0268743Y0150252D01*
X0258611Y0160384D01*
X0258611Y0162230D01*
X0257458Y0165013D01*
X0255328Y0167143D01*
X0252545Y0168296D01*
X0249533Y0168296D01*
X0246750Y0167143D01*
X0246039Y0166432D01*
X0245328Y0167143D01*
X0242545Y0168296D01*
X0240866Y0168296D01*
X0223875Y0185587D01*
X0223875Y0190772D01*
X0224575Y0192462D01*
X0224575Y0194849D01*
X0223661Y0197055D01*
X0221974Y0198742D01*
X0220627Y0199300D01*
X0221000Y0199300D02*
X0221000Y0199146D01*
X0224098Y0196000D02*
X0297338Y0196000D01*
X0296350Y0201000D02*
X0239185Y0201000D01*
X0241000Y0202815D02*
X0241000Y0168296D01*
X0238209Y0171000D02*
X0291800Y0171000D01*
X0291800Y0176000D02*
X0233295Y0176000D01*
X0231000Y0178336D02*
X0231000Y0199300D01*
X0226000Y0199300D02*
X0226000Y0183424D01*
X0223875Y0186000D02*
X0294155Y0186000D01*
X0296000Y0187845D02*
X0296000Y0215950D01*
X0297550Y0212063D02*
X0304149Y0212063D01*
X0297550Y0212063D01*
X0297633Y0211000D02*
X0257411Y0211000D01*
X0256000Y0210724D02*
X0256000Y0210724D01*
X0256000Y0214726D02*
X0256000Y0215950D01*
X0261000Y0215950D02*
X0261000Y0157995D01*
X0262995Y0156000D02*
X0291800Y0156000D01*
X0291800Y0151000D02*
X0267995Y0151000D01*
X0266000Y0152995D02*
X0266000Y0215950D01*
X0271000Y0215950D02*
X0271000Y0119717D01*
X0269550Y0121000D02*
X0291800Y0121000D01*
X0291000Y0119717D02*
X0291000Y0215950D01*
X0286000Y0215950D02*
X0286000Y0119799D01*
X0281000Y0119717D02*
X0281000Y0215950D01*
X0276000Y0215950D02*
X0276000Y0119799D01*
X0269550Y0126000D02*
X0291800Y0126000D01*
X0291800Y0131000D02*
X0269550Y0131000D01*
X0269550Y0136000D02*
X0291800Y0136000D01*
X0291800Y0141000D02*
X0269550Y0141000D01*
X0269550Y0146000D02*
X0291800Y0146000D01*
X0291800Y0161000D02*
X0258611Y0161000D01*
X0256472Y0166000D02*
X0291800Y0166000D01*
X0291800Y0181000D02*
X0228382Y0181000D01*
X0236000Y0173248D02*
X0236000Y0199300D01*
X0246000Y0204977D02*
X0246000Y0166472D01*
X0251000Y0168296D02*
X0251000Y0204353D01*
X0251039Y0206000D02*
X0251039Y0206000D01*
X0255326Y0206000D02*
X0297338Y0206000D01*
X0301000Y0212063D02*
X0301000Y0212063D01*
X0304149Y0212063D02*
X0304149Y0212063D01*
X0313285Y0221000D02*
X0315609Y0221000D01*
X0314899Y0219387D02*
X0311950Y0222336D01*
X0311950Y0226018D01*
X0311219Y0227782D01*
X0309869Y0229132D01*
X0308104Y0229863D01*
X0300195Y0229863D01*
X0298431Y0229132D01*
X0297248Y0227950D01*
X0250907Y0227950D01*
X0248702Y0227037D01*
X0247014Y0225349D01*
X0239961Y0218296D01*
X0239533Y0218296D01*
X0237828Y0217590D01*
X0237828Y0227110D01*
X0239472Y0228755D01*
X0240583Y0231438D01*
X0240583Y0250484D01*
X0239472Y0253167D01*
X0237419Y0255220D01*
X0236596Y0256043D01*
X0314142Y0256043D01*
X0315609Y0254744D01*
X0315609Y0218676D01*
X0314899Y0219387D01*
X0314899Y0219387D01*
X0315609Y0226000D02*
X0311950Y0226000D01*
X0311000Y0228001D02*
X0311000Y0256043D01*
X0314190Y0256000D02*
X0236639Y0256000D01*
X0241000Y0256043D02*
X0241000Y0219335D01*
X0242665Y0221000D02*
X0237828Y0221000D01*
X0237828Y0226000D02*
X0247665Y0226000D01*
X0246000Y0224335D02*
X0246000Y0256043D01*
X0251000Y0256043D02*
X0251000Y0227950D01*
X0256000Y0227950D02*
X0256000Y0256043D01*
X0261000Y0256043D02*
X0261000Y0227950D01*
X0266000Y0227950D02*
X0266000Y0234099D01*
X0266167Y0233933D02*
X0266853Y0233406D01*
X0267602Y0232973D01*
X0268402Y0232642D01*
X0269237Y0232418D01*
X0270095Y0232306D01*
X0270527Y0232306D01*
X0270527Y0241905D01*
X0270528Y0241905D01*
X0270528Y0232306D01*
X0270960Y0232306D01*
X0271818Y0232418D01*
X0272654Y0232642D01*
X0273453Y0232973D01*
X0274202Y0233406D01*
X0274651Y0233751D01*
X0276109Y0232293D01*
X0278976Y0231106D01*
X0282079Y0231106D01*
X0284946Y0232293D01*
X0285528Y0232875D01*
X0286109Y0232293D01*
X0288976Y0231106D01*
X0292079Y0231106D01*
X0294946Y0232293D01*
X0297140Y0234487D01*
X0298328Y0237354D01*
X0298328Y0246457D01*
X0297140Y0249324D01*
X0294946Y0251518D01*
X0292079Y0252705D01*
X0288976Y0252705D01*
X0286109Y0251518D01*
X0285528Y0250936D01*
X0284946Y0251518D01*
X0282079Y0252705D01*
X0278976Y0252705D01*
X0276109Y0251518D01*
X0274651Y0250060D01*
X0274202Y0250405D01*
X0273453Y0250838D01*
X0272654Y0251169D01*
X0271818Y0251393D01*
X0270960Y0251505D01*
X0270528Y0251505D01*
X0270528Y0241906D01*
X0270527Y0241906D01*
X0270527Y0241905D01*
X0263928Y0241905D01*
X0263928Y0238473D01*
X0264040Y0237615D01*
X0264264Y0236779D01*
X0264595Y0235980D01*
X0265028Y0235231D01*
X0265555Y0234544D01*
X0266167Y0233933D01*
X0264587Y0236000D02*
X0240583Y0236000D01*
X0240583Y0241000D02*
X0263928Y0241000D01*
X0263928Y0241906D02*
X0270527Y0241906D01*
X0270527Y0251505D01*
X0270095Y0251505D01*
X0269237Y0251393D01*
X0268402Y0251169D01*
X0267602Y0250838D01*
X0266853Y0250405D01*
X0266167Y0249878D01*
X0265555Y0249267D01*
X0265028Y0248580D01*
X0264595Y0247831D01*
X0264264Y0247032D01*
X0264040Y0246196D01*
X0263928Y0245338D01*
X0263928Y0241906D01*
X0266000Y0241905D02*
X0266000Y0241906D01*
X0264015Y0246000D02*
X0240583Y0246000D01*
X0240370Y0251000D02*
X0267994Y0251000D01*
X0266000Y0249712D02*
X0266000Y0256043D01*
X0271000Y0256043D02*
X0271000Y0251500D01*
X0270528Y0251000D02*
X0270527Y0251000D01*
X0273061Y0251000D02*
X0275591Y0251000D01*
X0276000Y0251409D02*
X0276000Y0256043D01*
X0281000Y0256043D02*
X0281000Y0252705D01*
X0285464Y0251000D02*
X0285591Y0251000D01*
X0286000Y0251409D02*
X0286000Y0256043D01*
X0291000Y0256043D02*
X0291000Y0252705D01*
X0295464Y0251000D02*
X0315609Y0251000D01*
X0315609Y0246000D02*
X0298328Y0246000D01*
X0296000Y0250464D02*
X0296000Y0256043D01*
X0301000Y0256043D02*
X0301000Y0229863D01*
X0296000Y0227950D02*
X0296000Y0233347D01*
X0297767Y0236000D02*
X0315609Y0236000D01*
X0315609Y0241000D02*
X0298328Y0241000D01*
X0291000Y0231106D02*
X0291000Y0227950D01*
X0286000Y0227950D02*
X0286000Y0232402D01*
X0281000Y0231106D02*
X0281000Y0227950D01*
X0276000Y0227950D02*
X0276000Y0232402D01*
X0271000Y0232311D02*
X0271000Y0227950D01*
X0270527Y0236000D02*
X0270528Y0236000D01*
X0270527Y0241000D02*
X0270528Y0241000D01*
X0270527Y0246000D02*
X0270528Y0246000D01*
X0240402Y0231000D02*
X0315609Y0231000D01*
X0306000Y0229863D02*
X0306000Y0256043D01*
X0256000Y0206723D02*
X0256000Y0166472D01*
X0223969Y0191000D02*
X0296350Y0191000D01*
X0207846Y0135763D02*
X0207344Y0134550D01*
X0207344Y0132163D01*
X0208044Y0130473D01*
X0208044Y0120186D01*
X0206935Y0120186D01*
X0204224Y0119063D01*
X0203402Y0118241D01*
X0202579Y0119063D01*
X0199869Y0120186D01*
X0196935Y0120186D01*
X0194224Y0119063D01*
X0193402Y0118241D01*
X0192579Y0119063D01*
X0189869Y0120186D01*
X0188559Y0120186D01*
X0187152Y0121593D01*
X0185204Y0122400D01*
X0175896Y0122400D01*
X0173948Y0121593D01*
X0172457Y0120102D01*
X0170849Y0118494D01*
X0170772Y0118533D01*
X0169848Y0118834D01*
X0168888Y0118986D01*
X0168402Y0118986D01*
X0168402Y0115244D01*
X0168402Y0115244D01*
X0168402Y0118986D01*
X0167916Y0118986D01*
X0166956Y0118834D01*
X0166031Y0118533D01*
X0165165Y0118092D01*
X0164379Y0117521D01*
X0164250Y0117392D01*
X0162579Y0119063D01*
X0159869Y0120186D01*
X0156935Y0120186D01*
X0154224Y0119063D01*
X0153402Y0118241D01*
X0152579Y0119063D01*
X0149869Y0120186D01*
X0146935Y0120186D01*
X0144224Y0119063D01*
X0143402Y0118241D01*
X0142579Y0119063D01*
X0139869Y0120186D01*
X0138762Y0120186D01*
X0135113Y0124006D01*
X0135113Y0152792D01*
X0151335Y0136570D01*
X0153283Y0135763D01*
X0207846Y0135763D01*
X0206000Y0135763D02*
X0206000Y0119799D01*
X0208044Y0121000D02*
X0187745Y0121000D01*
X0186000Y0122070D02*
X0186000Y0135763D01*
X0181000Y0135763D02*
X0181000Y0122400D01*
X0176000Y0122400D02*
X0176000Y0135763D01*
X0171000Y0135763D02*
X0171000Y0118645D01*
X0173355Y0121000D02*
X0137985Y0121000D01*
X0136000Y0123077D02*
X0136000Y0151905D01*
X0135113Y0151000D02*
X0136905Y0151000D01*
X0135113Y0146000D02*
X0141905Y0146000D01*
X0141000Y0146905D02*
X0141000Y0119717D01*
X0146000Y0119799D02*
X0146000Y0141905D01*
X0146905Y0141000D02*
X0135113Y0141000D01*
X0135113Y0136000D02*
X0152711Y0136000D01*
X0151000Y0136905D02*
X0151000Y0119717D01*
X0156000Y0119799D02*
X0156000Y0135763D01*
X0161000Y0135763D02*
X0161000Y0119717D01*
X0166000Y0118518D02*
X0166000Y0135763D01*
X0168402Y0116000D02*
X0168402Y0116000D01*
X0191000Y0119717D02*
X0191000Y0135763D01*
X0196000Y0135763D02*
X0196000Y0119799D01*
X0201000Y0119717D02*
X0201000Y0135763D01*
X0207825Y0131000D02*
X0135113Y0131000D01*
X0135113Y0126000D02*
X0208044Y0126000D01*
X0246000Y0087305D02*
X0246000Y0063418D01*
X0241000Y0063418D02*
X0241000Y0082305D01*
X0239695Y0081000D02*
X0274631Y0081000D01*
X0274779Y0079166D02*
X0274301Y0079166D01*
X0273352Y0079041D01*
X0272428Y0078794D01*
X0271544Y0078427D01*
X0270717Y0077950D01*
X0269594Y0079072D01*
X0266470Y0080366D01*
X0263089Y0080366D01*
X0259965Y0079072D01*
X0257574Y0076681D01*
X0256280Y0073557D01*
X0256280Y0070175D01*
X0257574Y0067051D01*
X0259965Y0064660D01*
X0262963Y0063418D01*
X0222113Y0063418D01*
X0222201Y0063506D01*
X0222667Y0063825D01*
X0222940Y0064244D01*
X0258950Y0100255D01*
X0258950Y0097822D01*
X0259757Y0095874D01*
X0261248Y0094383D01*
X0276730Y0078901D01*
X0276207Y0079041D01*
X0275258Y0079166D01*
X0274780Y0079166D01*
X0274780Y0071866D01*
X0274780Y0071866D01*
X0282080Y0071866D01*
X0282080Y0071388D01*
X0281955Y0070439D01*
X0281707Y0069515D01*
X0281341Y0068630D01*
X0280862Y0067802D01*
X0280280Y0067043D01*
X0279603Y0066366D01*
X0278844Y0065783D01*
X0278015Y0065305D01*
X0277131Y0064939D01*
X0276207Y0064691D01*
X0275258Y0064566D01*
X0274780Y0064566D01*
X0274780Y0071866D01*
X0282080Y0071866D01*
X0282080Y0072345D01*
X0281955Y0073293D01*
X0281815Y0073816D01*
X0292213Y0063418D01*
X0266596Y0063418D01*
X0269594Y0064660D01*
X0270717Y0065783D01*
X0271544Y0065305D01*
X0272428Y0064939D01*
X0273352Y0064691D01*
X0274301Y0064566D01*
X0274779Y0064566D01*
X0274779Y0071866D01*
X0274780Y0071866D01*
X0274779Y0071866D01*
X0274779Y0079166D01*
X0276000Y0079068D02*
X0276000Y0079631D01*
X0274779Y0076000D02*
X0274780Y0076000D01*
X0276000Y0071866D02*
X0276000Y0071866D01*
X0274779Y0071000D02*
X0274780Y0071000D01*
X0274779Y0066000D02*
X0274780Y0066000D01*
X0276000Y0064664D02*
X0276000Y0063418D01*
X0279126Y0066000D02*
X0289631Y0066000D01*
X0291000Y0064631D02*
X0291000Y0063418D01*
X0286000Y0063418D02*
X0286000Y0069631D01*
X0284631Y0071000D02*
X0282028Y0071000D01*
X0281000Y0071866D02*
X0281000Y0071866D01*
X0281000Y0068040D02*
X0281000Y0063418D01*
X0271000Y0063418D02*
X0271000Y0065619D01*
X0261000Y0064231D02*
X0261000Y0063418D01*
X0258625Y0066000D02*
X0224695Y0066000D01*
X0226000Y0067305D02*
X0226000Y0063418D01*
X0231000Y0063418D02*
X0231000Y0072305D01*
X0229695Y0071000D02*
X0256280Y0071000D01*
X0257291Y0076000D02*
X0234695Y0076000D01*
X0236000Y0077305D02*
X0236000Y0063418D01*
X0236000Y0048818D02*
X0236000Y0018518D01*
X0236031Y0018533D02*
X0235165Y0018092D01*
X0234379Y0017521D01*
X0234250Y0017392D01*
X0232579Y0019063D01*
X0229869Y0020186D01*
X0226935Y0020186D01*
X0224224Y0019063D01*
X0223402Y0018241D01*
X0222579Y0019063D01*
X0219869Y0020186D01*
X0216935Y0020186D01*
X0214224Y0019063D01*
X0213402Y0018241D01*
X0212579Y0019063D01*
X0209869Y0020186D01*
X0206935Y0020186D01*
X0204224Y0019063D01*
X0203402Y0018241D01*
X0202579Y0019063D01*
X0199869Y0020186D01*
X0196935Y0020186D01*
X0194224Y0019063D01*
X0193402Y0018241D01*
X0192579Y0019063D01*
X0189869Y0020186D01*
X0186935Y0020186D01*
X0186086Y0019834D01*
X0184677Y0021243D01*
X0182729Y0022050D01*
X0164995Y0022050D01*
X0171206Y0028261D01*
X0172013Y0030209D01*
X0172013Y0032317D01*
X0171206Y0034265D01*
X0169715Y0035756D01*
X0167767Y0036563D01*
X0165659Y0036563D01*
X0164431Y0036055D01*
X0164263Y0036462D01*
X0162575Y0038150D01*
X0160369Y0039063D01*
X0157983Y0039063D01*
X0155777Y0038150D01*
X0154089Y0036462D01*
X0153389Y0034772D01*
X0140479Y0021861D01*
X0138988Y0020370D01*
X0138912Y0020186D01*
X0138709Y0020186D01*
X0094329Y0064566D01*
X0155457Y0064566D01*
X0156229Y0063794D01*
X0166465Y0053558D01*
X0166465Y0053558D01*
X0168040Y0051983D01*
X0170093Y0049929D01*
X0172776Y0048818D01*
X0248491Y0048818D01*
X0246905Y0047232D01*
X0245180Y0044245D01*
X0244287Y0040914D01*
X0244287Y0037464D01*
X0245180Y0034133D01*
X0246905Y0031146D01*
X0249344Y0028707D01*
X0252330Y0026982D01*
X0255662Y0026090D01*
X0258316Y0026090D01*
X0258276Y0025730D01*
X0268548Y0025730D01*
X0268548Y0032322D01*
X0269593Y0034133D01*
X0270486Y0037464D01*
X0270486Y0040914D01*
X0269593Y0044245D01*
X0267869Y0047232D01*
X0266283Y0048818D01*
X0279701Y0048818D01*
X0279428Y0048646D01*
X0278400Y0047827D01*
X0277471Y0046898D01*
X0276652Y0045870D01*
X0275952Y0044757D01*
X0275382Y0043573D01*
X0274948Y0042333D01*
X0274656Y0041052D01*
X0274587Y0040439D01*
X0284859Y0040439D01*
X0284859Y0037739D01*
X0287559Y0037739D01*
X0287559Y0027467D01*
X0288172Y0027536D01*
X0289453Y0027829D01*
X0290693Y0028263D01*
X0291877Y0028833D01*
X0292990Y0029532D01*
X0294017Y0030351D01*
X0294094Y0030428D01*
X0294094Y0021740D01*
X0292464Y0020111D01*
X0292112Y0020111D01*
X0291931Y0020186D01*
X0284872Y0020186D01*
X0283108Y0019455D01*
X0282647Y0018995D01*
X0282579Y0019063D01*
X0280698Y0019842D01*
X0280724Y0019895D01*
X0281158Y0021135D01*
X0281450Y0022417D01*
X0281520Y0023030D01*
X0271248Y0023030D01*
X0271248Y0025730D01*
X0268548Y0025730D01*
X0268548Y0023030D01*
X0258276Y0023030D01*
X0258345Y0022417D01*
X0258637Y0021135D01*
X0258969Y0020186D01*
X0256935Y0020186D01*
X0254224Y0019063D01*
X0253402Y0018241D01*
X0252579Y0019063D01*
X0249869Y0020186D01*
X0246935Y0020186D01*
X0244224Y0019063D01*
X0242553Y0017392D01*
X0242424Y0017521D01*
X0241638Y0018092D01*
X0240772Y0018533D01*
X0239848Y0018834D01*
X0238888Y0018986D01*
X0238402Y0018986D01*
X0238402Y0013950D01*
X0238402Y0013950D01*
X0238402Y0018986D01*
X0237916Y0018986D01*
X0236956Y0018834D01*
X0236031Y0018533D01*
X0238402Y0016000D02*
X0238402Y0016000D01*
X0241000Y0018417D02*
X0241000Y0048818D01*
X0246000Y0048818D02*
X0246000Y0045665D01*
X0246193Y0046000D02*
X0112895Y0046000D01*
X0111000Y0047895D02*
X0111000Y0064566D01*
X0106000Y0064566D02*
X0106000Y0052895D01*
X0107895Y0051000D02*
X0169023Y0051000D01*
X0168040Y0051983D02*
X0168040Y0051983D01*
X0166000Y0054023D02*
X0166000Y0036563D01*
X0169126Y0036000D02*
X0244680Y0036000D01*
X0246000Y0032713D02*
X0246000Y0019799D01*
X0251000Y0019717D02*
X0251000Y0027751D01*
X0256000Y0026090D02*
X0256000Y0019799D01*
X0258685Y0021000D02*
X0184920Y0021000D01*
X0186000Y0019920D02*
X0186000Y0048818D01*
X0181000Y0048818D02*
X0181000Y0022050D01*
X0176000Y0022050D02*
X0176000Y0048818D01*
X0171000Y0049554D02*
X0171000Y0034471D01*
X0172013Y0031000D02*
X0247051Y0031000D01*
X0244311Y0041000D02*
X0117895Y0041000D01*
X0116000Y0042895D02*
X0116000Y0064566D01*
X0121000Y0064566D02*
X0121000Y0037895D01*
X0122895Y0036000D02*
X0153898Y0036000D01*
X0156000Y0038242D02*
X0156000Y0064023D01*
X0156229Y0063794D02*
X0156229Y0063794D01*
X0159023Y0061000D02*
X0097895Y0061000D01*
X0096000Y0062895D02*
X0096000Y0064566D01*
X0101000Y0064566D02*
X0101000Y0057895D01*
X0102895Y0056000D02*
X0164023Y0056000D01*
X0161000Y0059023D02*
X0161000Y0038802D01*
X0171000Y0028055D02*
X0171000Y0022050D01*
X0168945Y0026000D02*
X0258306Y0026000D01*
X0261000Y0025730D02*
X0261000Y0023030D01*
X0266000Y0023030D02*
X0266000Y0025730D01*
X0268548Y0026000D02*
X0271248Y0026000D01*
X0271248Y0025730D02*
X0271248Y0036001D01*
X0271861Y0035932D01*
X0273142Y0035640D01*
X0274382Y0035206D01*
X0275332Y0034749D01*
X0274948Y0035845D01*
X0274656Y0037126D01*
X0274587Y0037739D01*
X0284859Y0037739D01*
X0284859Y0027467D01*
X0284246Y0027536D01*
X0282965Y0027829D01*
X0281724Y0028263D01*
X0280774Y0028720D01*
X0281158Y0027624D01*
X0281450Y0026342D01*
X0281520Y0025730D01*
X0271248Y0025730D01*
X0271000Y0025730D02*
X0271000Y0048818D01*
X0268580Y0046000D02*
X0276755Y0046000D01*
X0276000Y0044833D02*
X0276000Y0048818D01*
X0274650Y0041000D02*
X0270463Y0041000D01*
X0276000Y0040439D02*
X0276000Y0037739D01*
X0274913Y0036000D02*
X0271260Y0036000D01*
X0271248Y0036000D02*
X0270093Y0036000D01*
X0271248Y0031000D02*
X0268548Y0031000D01*
X0276000Y0025730D02*
X0276000Y0023030D01*
X0281000Y0023030D02*
X0281000Y0025730D01*
X0281489Y0026000D02*
X0294094Y0026000D01*
X0291000Y0028410D02*
X0291000Y0020186D01*
X0293353Y0021000D02*
X0281111Y0021000D01*
X0281000Y0020684D02*
X0281000Y0019717D01*
X0286000Y0020186D02*
X0286000Y0037739D01*
X0284859Y0036000D02*
X0287559Y0036000D01*
X0287559Y0031000D02*
X0284859Y0031000D01*
X0281000Y0028611D02*
X0281000Y0028075D01*
X0281000Y0037739D02*
X0281000Y0040439D01*
X0256000Y0063418D02*
X0256000Y0097305D01*
X0254695Y0096000D02*
X0259705Y0096000D01*
X0261000Y0094631D02*
X0261000Y0079501D01*
X0266000Y0080366D02*
X0266000Y0089631D01*
X0264631Y0091000D02*
X0249695Y0091000D01*
X0251000Y0092305D02*
X0251000Y0063418D01*
X0271000Y0078113D02*
X0271000Y0084631D01*
X0269631Y0086000D02*
X0244695Y0086000D01*
X0231000Y0048818D02*
X0231000Y0019717D01*
X0226000Y0019799D02*
X0226000Y0048818D01*
X0221000Y0048818D02*
X0221000Y0019717D01*
X0216000Y0019799D02*
X0216000Y0048818D01*
X0211000Y0048818D02*
X0211000Y0019717D01*
X0206000Y0019799D02*
X0206000Y0048818D01*
X0201000Y0048818D02*
X0201000Y0019717D01*
X0196000Y0019799D02*
X0196000Y0048818D01*
X0191000Y0048818D02*
X0191000Y0019717D01*
X0166000Y0022050D02*
X0166000Y0023055D01*
X0151000Y0032382D02*
X0151000Y0064566D01*
X0146000Y0064566D02*
X0146000Y0027382D01*
X0144618Y0026000D02*
X0132895Y0026000D01*
X0131000Y0027895D02*
X0131000Y0064566D01*
X0126000Y0064566D02*
X0126000Y0032895D01*
X0127895Y0031000D02*
X0149618Y0031000D01*
X0141000Y0022382D02*
X0141000Y0064566D01*
X0136000Y0064566D02*
X0136000Y0022895D01*
X0137895Y0021000D02*
X0139618Y0021000D01*
X0102100Y0017865D02*
X0102100Y0016869D01*
X0101027Y0014278D01*
X0101027Y0013950D01*
X0095287Y0013950D01*
X0095398Y0014219D01*
X0095398Y0017309D01*
X0094216Y0020164D01*
X0092030Y0022350D01*
X0089175Y0023532D01*
X0080148Y0023532D01*
X0077292Y0022350D01*
X0075138Y0020195D01*
X0071304Y0024028D01*
X0069813Y0025519D01*
X0067865Y0026326D01*
X0060700Y0026326D01*
X0060121Y0026912D01*
X0062470Y0026912D01*
X0063324Y0027024D01*
X0064155Y0027247D01*
X0064951Y0027577D01*
X0065696Y0028007D01*
X0066380Y0028531D01*
X0066988Y0029140D01*
X0067513Y0029823D01*
X0067943Y0030569D01*
X0068273Y0031364D01*
X0068495Y0032196D01*
X0068608Y0033050D01*
X0068608Y0033480D01*
X0059071Y0033480D01*
X0059071Y0033480D01*
X0068608Y0033480D01*
X0068608Y0033911D01*
X0068495Y0034765D01*
X0068273Y0035596D01*
X0067943Y0036392D01*
X0067513Y0037137D01*
X0066988Y0037821D01*
X0066380Y0038429D01*
X0065696Y0038954D01*
X0064951Y0039384D01*
X0064155Y0039714D01*
X0063324Y0039936D01*
X0062470Y0040049D01*
X0059071Y0040049D01*
X0059071Y0033480D01*
X0059071Y0033480D01*
X0059071Y0040049D01*
X0055672Y0040049D01*
X0054818Y0039936D01*
X0053986Y0039714D01*
X0053191Y0039384D01*
X0052445Y0038954D01*
X0051762Y0038429D01*
X0051153Y0037821D01*
X0050629Y0037137D01*
X0050402Y0036744D01*
X0030037Y0057347D01*
X0030037Y0063888D01*
X0032356Y0063888D01*
X0036222Y0067754D01*
X0036222Y0070488D01*
X0030037Y0070488D01*
X0030037Y0070488D01*
X0036222Y0070488D01*
X0036222Y0073222D01*
X0035244Y0074200D01*
X0045765Y0074200D01*
X0080109Y0039856D01*
X0079577Y0039714D01*
X0078781Y0039384D01*
X0078036Y0038954D01*
X0077353Y0038429D01*
X0076744Y0037821D01*
X0076220Y0037137D01*
X0075789Y0036392D01*
X0075460Y0035596D01*
X0075237Y0034765D01*
X0075124Y0033911D01*
X0075124Y0033480D01*
X0075124Y0033050D01*
X0075237Y0032196D01*
X0075460Y0031364D01*
X0075789Y0030569D01*
X0076220Y0029823D01*
X0076744Y0029140D01*
X0077353Y0028531D01*
X0078036Y0028007D01*
X0078781Y0027577D01*
X0079577Y0027247D01*
X0080409Y0027024D01*
X0081262Y0026912D01*
X0084661Y0026912D01*
X0084661Y0033480D01*
X0075124Y0033480D01*
X0084661Y0033480D01*
X0084661Y0033480D01*
X0084661Y0033480D01*
X0084661Y0026912D01*
X0088060Y0026912D01*
X0088914Y0027024D01*
X0089746Y0027247D01*
X0090541Y0027577D01*
X0091287Y0028007D01*
X0091666Y0028298D01*
X0102100Y0017865D01*
X0101000Y0018965D02*
X0101000Y0013950D01*
X0101740Y0016000D02*
X0095398Y0016000D01*
X0096000Y0013950D02*
X0096000Y0023965D01*
X0093965Y0026000D02*
X0068652Y0026000D01*
X0066000Y0026326D02*
X0066000Y0028240D01*
X0068122Y0031000D02*
X0075611Y0031000D01*
X0076000Y0030204D02*
X0076000Y0021057D01*
X0075943Y0021000D02*
X0074332Y0021000D01*
X0071000Y0024332D02*
X0071000Y0048965D01*
X0068965Y0051000D02*
X0036311Y0051000D01*
X0036000Y0051314D02*
X0036000Y0067532D01*
X0034468Y0066000D02*
X0053965Y0066000D01*
X0056000Y0063965D02*
X0056000Y0040049D01*
X0061000Y0040049D02*
X0061000Y0058965D01*
X0058965Y0061000D02*
X0030037Y0061000D01*
X0031000Y0063888D02*
X0031000Y0056373D01*
X0031369Y0056000D02*
X0063965Y0056000D01*
X0066000Y0053965D02*
X0066000Y0038721D01*
X0068105Y0036000D02*
X0075627Y0036000D01*
X0076000Y0036757D02*
X0076000Y0043965D01*
X0073965Y0046000D02*
X0041253Y0046000D01*
X0041000Y0046256D02*
X0041000Y0074200D01*
X0036000Y0074200D02*
X0036000Y0073444D01*
X0036222Y0071000D02*
X0048965Y0071000D01*
X0051000Y0068965D02*
X0051000Y0037621D01*
X0046196Y0041000D02*
X0078965Y0041000D01*
X0081000Y0033480D02*
X0081000Y0033480D01*
X0084661Y0031000D02*
X0084661Y0031000D01*
X0086000Y0026912D02*
X0086000Y0023532D01*
X0081000Y0023532D02*
X0081000Y0026946D01*
X0076000Y0033480D02*
X0076000Y0033480D01*
X0066000Y0033480D02*
X0066000Y0033480D01*
X0061000Y0033480D02*
X0061000Y0033480D01*
X0059071Y0036000D02*
X0059071Y0036000D01*
X0061000Y0026912D02*
X0061000Y0026326D01*
X0046000Y0041198D02*
X0046000Y0073965D01*
X0036000Y0070488D02*
X0036000Y0070488D01*
X0031000Y0070488D02*
X0031000Y0070488D01*
X0091000Y0027841D02*
X0091000Y0022776D01*
X0093380Y0021000D02*
X0098965Y0021000D01*
X0006000Y0182695D02*
X0006000Y0236772D01*
X0005800Y0236000D02*
X0006320Y0236000D01*
X0010420Y0187115D02*
X0010420Y0187115D01*
X0009305Y0186000D02*
X0005800Y0186000D01*
X0111000Y0235969D02*
X0111000Y0256043D01*
X0119649Y0232134D02*
X0119649Y0232134D01*
D28*
X0116354Y0225409D02*
X0111236Y0225409D01*
X0083677Y0252969D01*
X0016748Y0252969D01*
X0013559Y0249780D01*
X0013559Y0241906D01*
X0043559Y0241906D02*
X0084504Y0241906D01*
X0094307Y0232102D01*
X0094307Y0211157D01*
X0094740Y0210724D01*
X0116354Y0225409D02*
X0125016Y0216748D01*
X0125016Y0211000D01*
X0124740Y0210724D01*
X0190724Y0241906D02*
X0190724Y0245843D01*
X0201787Y0256906D01*
X0225409Y0256906D01*
X0233283Y0249031D01*
X0233283Y0232890D01*
X0230528Y0230134D01*
X0230528Y0211236D01*
X0231039Y0210724D01*
X0211039Y0210724D02*
X0211039Y0241591D01*
X0078559Y0079740D02*
X0086433Y0071866D01*
X0158480Y0071866D01*
X0162417Y0067929D01*
X0172654Y0057693D01*
X0174228Y0056118D01*
X0176197Y0056118D01*
X0295488Y0056118D01*
X0301394Y0050213D01*
X0301394Y0018717D01*
X0295488Y0012811D01*
X0288402Y0012811D01*
D29*
X0078559Y0079740D03*
D30*
X0077500Y0082000D01*
X0069062Y0090438D01*
X0066474Y0087850D01*
X0034750Y0087850D01*
X0032500Y0090100D01*
X0029800Y0090100D01*
X0029622Y0090488D01*
X0029622Y0080488D02*
X0029800Y0080200D01*
X0048250Y0080200D01*
X0108100Y0020350D01*
X0108100Y0013150D01*
X0108402Y0012811D01*
X0069062Y0090438D02*
X0030700Y0128800D01*
X0030700Y0177852D01*
X0028507Y0194500D02*
X0052750Y0194500D01*
X0051963Y0194444D01*
X0052750Y0194500D02*
X0096400Y0194500D01*
X0106750Y0184150D01*
X0107650Y0183700D01*
X0134650Y0210700D01*
X0134740Y0210724D01*
X0134740Y0225528D01*
X0123047Y0237220D01*
X0123047Y0241945D01*
X0126197Y0245094D01*
X0134740Y0210724D02*
X0135550Y0209800D01*
X0134763Y0209800D01*
X0139263Y0205300D01*
X0213400Y0205300D01*
X0213400Y0172450D01*
X0213598Y0172063D01*
X0214750Y0172000D01*
X0217000Y0172000D01*
X0226000Y0163000D01*
X0226000Y0156925D01*
X0225550Y0154113D01*
X0235000Y0205300D02*
X0213400Y0205300D01*
X0235000Y0205300D02*
X0239950Y0210250D01*
X0241039Y0210724D01*
X0241300Y0211150D01*
X0241300Y0211150D01*
X0252100Y0221950D01*
X0303850Y0221950D01*
X0304150Y0222063D01*
X0304750Y0221050D01*
X0311500Y0214300D01*
X0311500Y0159400D01*
X0304300Y0152200D01*
X0304150Y0152063D01*
X0119800Y0158950D02*
X0119800Y0163000D01*
X0110800Y0172000D01*
X0108550Y0172000D01*
X0107299Y0172063D01*
X0107650Y0172450D01*
X0107650Y0183700D01*
X0119800Y0158950D02*
X0119350Y0158500D01*
X0119350Y0158050D01*
D31*
X0129813Y0163731D02*
X0129813Y0121881D01*
X0138250Y0113050D01*
X0138402Y0112811D01*
X0133413Y0113387D02*
X0133413Y0112037D01*
X0137687Y0107763D01*
X0168963Y0107763D01*
X0173463Y0112263D01*
X0173463Y0113613D01*
X0176950Y0117100D01*
X0184150Y0117100D01*
X0188200Y0113050D01*
X0188402Y0112811D01*
X0178402Y0112811D02*
X0178300Y0112600D01*
X0171269Y0105569D01*
X0109337Y0105569D01*
X0091000Y0124300D01*
X0040150Y0124300D01*
X0024622Y0134858D02*
X0024622Y0178165D01*
X0016300Y0172000D02*
X0016039Y0172063D01*
X0016300Y0172000D02*
X0020350Y0167950D01*
X0020350Y0136113D01*
X0014950Y0130713D01*
X0014950Y0050500D01*
X0058600Y0006850D01*
X0150512Y0006850D01*
X0153437Y0009775D01*
X0153437Y0014669D01*
X0155519Y0016750D01*
X0181675Y0016750D01*
X0185275Y0013150D01*
X0188200Y0013150D01*
X0188402Y0012811D01*
X0187300Y0006850D02*
X0298000Y0006850D01*
X0311050Y0019900D01*
X0311050Y0058713D01*
X0299800Y0069963D01*
X0299800Y0118000D01*
X0303850Y0122050D01*
X0304150Y0122063D01*
X0308800Y0133750D02*
X0308800Y0106750D01*
X0304300Y0102250D01*
X0304150Y0102063D01*
X0304150Y0092063D02*
X0304300Y0091900D01*
X0304300Y0081550D01*
X0304150Y0081512D01*
X0304150Y0077969D02*
X0304300Y0077950D01*
X0304300Y0072100D01*
X0312850Y0063550D01*
X0312850Y0019000D01*
X0298900Y0005050D01*
X0176500Y0005050D01*
X0168850Y0012700D01*
X0168402Y0012811D01*
X0178402Y0012811D02*
X0178750Y0012700D01*
X0181450Y0012700D01*
X0187300Y0006850D01*
X0166713Y0031263D02*
X0148600Y0013150D01*
X0148402Y0012811D01*
X0143481Y0012081D02*
X0140050Y0008650D01*
X0079187Y0008650D01*
X0066811Y0021026D01*
X0058487Y0021026D01*
X0024737Y0055169D01*
X0024737Y0085656D01*
X0019900Y0090100D01*
X0019622Y0090488D01*
X0024794Y0095556D02*
X0019900Y0100450D01*
X0019622Y0100488D01*
X0024794Y0095556D02*
X0033793Y0095556D01*
X0037900Y0091450D01*
X0061187Y0091450D01*
X0067150Y0084250D02*
X0138250Y0013150D01*
X0138402Y0012811D01*
X0143481Y0012081D02*
X0143481Y0017368D01*
X0159176Y0033063D01*
X0172654Y0057693D02*
X0174622Y0057693D01*
X0176197Y0056118D01*
X0198638Y0065173D02*
X0211423Y0065173D01*
X0243269Y0096625D01*
X0243269Y0120925D01*
X0228250Y0125987D02*
X0228250Y0113050D01*
X0228402Y0112811D01*
X0228250Y0125987D02*
X0213174Y0141063D01*
X0154337Y0141063D01*
X0135100Y0160300D01*
X0134740Y0160724D01*
X0134650Y0160750D01*
X0134650Y0190113D01*
X0129475Y0194894D01*
X0129813Y0199337D02*
X0172000Y0157150D01*
X0172000Y0148713D01*
X0161256Y0144044D02*
X0145000Y0160300D01*
X0144740Y0160724D01*
X0129813Y0163731D02*
X0129475Y0164575D01*
X0129475Y0190900D01*
X0107299Y0168520D02*
X0107200Y0168400D01*
X0107200Y0163000D01*
X0104950Y0160750D01*
X0104740Y0160724D01*
X0110013Y0136787D02*
X0092463Y0136787D01*
X0045137Y0184113D01*
X0014913Y0184113D01*
X0009550Y0178750D01*
X0009550Y0148657D01*
X0015850Y0142357D01*
X0015850Y0142300D01*
X0016039Y0142063D01*
X0024622Y0134858D02*
X0019622Y0129858D01*
X0019622Y0120488D01*
X0036100Y0084250D02*
X0067150Y0084250D01*
X0095500Y0131050D02*
X0044377Y0182173D01*
X0015673Y0182173D01*
X0011350Y0177850D01*
X0011350Y0166600D01*
X0015850Y0162100D01*
X0016039Y0162063D01*
X0095500Y0131050D02*
X0097919Y0131050D01*
X0115919Y0113050D01*
X0118000Y0113050D01*
X0118402Y0112811D01*
X0133413Y0113387D02*
X0110013Y0136787D01*
X0161256Y0144044D02*
X0226506Y0144044D01*
X0257500Y0113050D01*
X0258400Y0113050D01*
X0258402Y0112811D01*
X0262450Y0111250D02*
X0262450Y0139150D01*
X0241300Y0160300D01*
X0241039Y0160724D01*
X0240850Y0160750D01*
X0218575Y0183419D01*
X0218575Y0193656D01*
X0213598Y0168520D02*
X0213400Y0168400D01*
X0213400Y0163000D01*
X0211150Y0160750D01*
X0211039Y0160724D01*
X0213344Y0133356D02*
X0213344Y0074622D01*
X0218800Y0067600D02*
X0262450Y0111250D01*
X0264250Y0098876D02*
X0264250Y0147250D01*
X0251200Y0160300D01*
X0251039Y0160724D01*
X0297100Y0181450D02*
X0297100Y0070807D01*
X0309250Y0053876D02*
X0264250Y0098876D01*
X0304300Y0138250D02*
X0308800Y0133750D01*
X0304300Y0138250D02*
X0304300Y0141850D01*
X0304150Y0142063D01*
X0297100Y0181450D02*
X0303850Y0188200D01*
X0303850Y0191800D01*
X0304150Y0192063D01*
X0218800Y0067600D02*
X0214863Y0064900D01*
X0228402Y0012811D02*
X0228700Y0012700D01*
X0228813Y0012700D01*
X0232863Y0008650D01*
X0297100Y0008650D01*
X0309250Y0020800D01*
X0309250Y0053876D01*
D32*
X0211039Y0241591D02*
X0210724Y0241906D01*
M02*
