G75*
%MOIN*%
%OFA0B0*%
%FSLAX25Y25*%
%IPPOS*%
%LPD*%
%AMOC8*
5,1,8,0,0,1.08239X$1,22.5*
%
%ADD10C,0.00000*%
%ADD11C,0.06000*%
%ADD12R,0.06000X0.06000*%
%ADD13R,0.05150X0.05150*%
%ADD14C,0.05150*%
%ADD15C,0.05543*%
%ADD16R,0.04724X0.04724*%
%ADD17R,0.05118X0.06299*%
%ADD18R,0.05906X0.05118*%
%ADD19R,0.13780X0.06299*%
%ADD20C,0.16598*%
%ADD21C,0.16200*%
%ADD22C,0.07400*%
%ADD23R,0.05118X0.05906*%
%ADD24R,0.10000X0.10000*%
%ADD25C,0.05937*%
%ADD26C,0.06000*%
%ADD27R,0.06693X0.07087*%
%ADD28R,0.03543X0.03150*%
%ADD29R,0.02362X0.03150*%
%ADD30R,0.01969X0.03150*%
%ADD31R,0.06500X0.06500*%
%ADD32C,0.06500*%
%ADD33C,0.05000*%
%ADD34C,0.01200*%
%ADD35C,0.02400*%
%ADD36C,0.03200*%
%ADD37C,0.02400*%
%ADD38C,0.01000*%
%ADD39OC8,0.02400*%
%ADD40C,0.10000*%
%ADD41C,0.06600*%
%ADD42C,0.04400*%
%ADD43C,0.04000*%
D10*
X0001000Y0008874D02*
X0001000Y0252969D01*
X0008874Y0260843D01*
X0312024Y0260843D01*
X0320409Y0252969D01*
X0320409Y0008874D01*
X0312024Y0001000D01*
X0008874Y0001000D01*
X0001000Y0008874D01*
D11*
X0016039Y0142063D03*
X0016039Y0152063D03*
X0016039Y0162063D03*
X0016039Y0172063D03*
X0304150Y0172063D03*
X0304150Y0182063D03*
X0304150Y0192063D03*
X0304150Y0202063D03*
X0304150Y0212063D03*
X0304150Y0162063D03*
X0304150Y0152063D03*
X0304150Y0142063D03*
X0304150Y0132063D03*
X0304150Y0122063D03*
X0304150Y0112063D03*
X0304150Y0102063D03*
X0304150Y0092063D03*
D12*
X0304150Y0222063D03*
D13*
X0288402Y0012811D03*
D14*
X0278402Y0012811D03*
X0268402Y0012811D03*
X0258402Y0012811D03*
X0248402Y0012811D03*
X0238402Y0012811D03*
X0228402Y0012811D03*
X0218402Y0012811D03*
X0208402Y0012811D03*
X0198402Y0012811D03*
X0188402Y0012811D03*
X0178402Y0012811D03*
X0168402Y0012811D03*
X0158402Y0012811D03*
X0148402Y0012811D03*
X0138402Y0012811D03*
X0128402Y0012811D03*
X0118402Y0012811D03*
X0108402Y0012811D03*
X0108402Y0112811D03*
X0118402Y0112811D03*
X0128402Y0112811D03*
X0138402Y0112811D03*
X0148402Y0112811D03*
X0158402Y0112811D03*
X0168402Y0112811D03*
X0178402Y0112811D03*
X0188402Y0112811D03*
X0198402Y0112811D03*
X0208402Y0112811D03*
X0218402Y0112811D03*
X0228402Y0112811D03*
X0238402Y0112811D03*
X0248402Y0112811D03*
X0258402Y0112811D03*
X0268402Y0112811D03*
X0278402Y0112811D03*
X0288402Y0112811D03*
D15*
X0251039Y0160724D03*
X0241039Y0160724D03*
X0231039Y0160724D03*
X0221039Y0160724D03*
X0211039Y0160724D03*
X0201039Y0160724D03*
X0191039Y0160724D03*
X0181039Y0160724D03*
X0144740Y0160724D03*
X0134740Y0160724D03*
X0124740Y0160724D03*
X0114740Y0160724D03*
X0104740Y0160724D03*
X0094740Y0160724D03*
X0084740Y0160724D03*
X0074740Y0160724D03*
X0074740Y0210724D03*
X0084740Y0210724D03*
X0094740Y0210724D03*
X0104740Y0210724D03*
X0114740Y0210724D03*
X0124740Y0210724D03*
X0134740Y0210724D03*
X0144740Y0210724D03*
X0181039Y0210724D03*
X0191039Y0210724D03*
X0201039Y0210724D03*
X0211039Y0210724D03*
X0221039Y0210724D03*
X0231039Y0210724D03*
X0241039Y0210724D03*
X0251039Y0210724D03*
D16*
X0158677Y0249031D03*
X0150409Y0249031D03*
X0138992Y0249031D03*
X0130724Y0249031D03*
X0076000Y0134858D03*
X0067732Y0134858D03*
D17*
X0068126Y0146669D03*
X0075606Y0146669D03*
X0087811Y0146669D03*
X0095291Y0146669D03*
X0111433Y0146669D03*
X0118913Y0146669D03*
X0194110Y0146669D03*
X0201591Y0146669D03*
X0217732Y0146669D03*
X0225213Y0146669D03*
X0107102Y0036433D03*
X0099622Y0036433D03*
D18*
X0063992Y0182299D03*
X0063992Y0189780D03*
X0166354Y0189780D03*
X0166354Y0182299D03*
D19*
X0187220Y0186039D03*
X0208480Y0186039D03*
X0200606Y0091551D03*
X0179346Y0091551D03*
X0102181Y0186039D03*
X0080921Y0186039D03*
X0039189Y0024622D03*
X0017929Y0024622D03*
D20*
X0257387Y0039189D03*
D21*
X0269898Y0024380D03*
X0286209Y0039089D03*
D22*
X0274780Y0071866D03*
X0264780Y0071866D03*
D23*
X0229150Y0083677D03*
X0221669Y0083677D03*
X0032299Y0046669D03*
X0024819Y0046669D03*
D24*
X0050213Y0046669D03*
X0050213Y0091551D03*
X0119110Y0091551D03*
X0119110Y0046669D03*
D25*
X0087630Y0033480D02*
X0081693Y0033480D01*
X0081693Y0015764D02*
X0087630Y0015764D01*
X0062039Y0015764D02*
X0056102Y0015764D01*
X0056102Y0033480D02*
X0062039Y0033480D01*
D26*
X0043559Y0238906D02*
X0043559Y0244906D01*
X0033559Y0244906D02*
X0033559Y0238906D01*
X0023559Y0238906D02*
X0023559Y0244906D01*
X0013559Y0244906D02*
X0013559Y0238906D01*
X0190724Y0238906D02*
X0190724Y0244906D01*
X0200724Y0244906D02*
X0200724Y0238906D01*
X0210724Y0238906D02*
X0210724Y0244906D01*
X0220724Y0244906D02*
X0220724Y0238906D01*
X0270528Y0238906D02*
X0270528Y0244906D01*
X0280528Y0244906D02*
X0280528Y0238906D01*
X0290528Y0238906D02*
X0290528Y0244906D01*
D27*
X0070291Y0115370D03*
X0070291Y0099228D03*
D28*
X0138402Y0044307D03*
X0146669Y0040567D03*
X0146669Y0048047D03*
X0169898Y0044307D03*
X0178165Y0040567D03*
X0178165Y0048047D03*
X0052181Y0198047D03*
X0052181Y0205528D03*
X0043913Y0201787D03*
X0020685Y0198047D03*
X0020685Y0205528D03*
X0012417Y0201787D03*
D29*
X0027476Y0198835D03*
X0027476Y0204740D03*
X0037516Y0204740D03*
X0037516Y0198835D03*
X0137713Y0230331D03*
X0137713Y0236236D03*
X0147752Y0236236D03*
X0147752Y0230331D03*
X0153461Y0047260D03*
X0153461Y0041354D03*
X0163500Y0041354D03*
X0163500Y0047260D03*
D30*
X0160055Y0047260D03*
X0156906Y0047260D03*
X0156906Y0041354D03*
X0160055Y0041354D03*
X0034071Y0198835D03*
X0030921Y0198835D03*
X0030921Y0204740D03*
X0034071Y0204740D03*
X0141157Y0230331D03*
X0144307Y0230331D03*
X0144307Y0236236D03*
X0141157Y0236236D03*
D31*
X0026748Y0126551D03*
X0016748Y0126551D03*
D32*
X0016748Y0116551D03*
X0016748Y0106551D03*
X0016748Y0096551D03*
X0026748Y0096551D03*
X0026748Y0106551D03*
X0026748Y0116551D03*
X0026748Y0086551D03*
X0026748Y0076551D03*
X0026748Y0066551D03*
X0026748Y0056551D03*
X0016748Y0056551D03*
X0016748Y0066551D03*
X0016748Y0076551D03*
X0016748Y0086551D03*
D33*
X0042339Y0058087D02*
X0042339Y0056118D01*
X0038697Y0052476D01*
X0038697Y0048146D01*
X0032299Y0046669D01*
X0038697Y0048146D02*
X0039189Y0045291D01*
X0039189Y0024622D01*
X0047063Y0016354D02*
X0021472Y0016354D01*
X0015173Y0022654D01*
X0015173Y0023441D01*
X0017929Y0024622D01*
X0017929Y0041354D01*
X0024819Y0046669D01*
X0042339Y0058087D02*
X0050213Y0065961D01*
X0050213Y0091551D01*
X0050213Y0112417D01*
X0060055Y0122260D01*
X0060055Y0123047D01*
X0060055Y0142732D01*
X0063992Y0146669D01*
X0068126Y0146669D01*
X0075606Y0146669D02*
X0075606Y0135252D01*
X0076000Y0134858D01*
X0060055Y0123047D02*
X0068126Y0115370D01*
X0070291Y0115370D01*
X0070291Y0099228D02*
X0070291Y0088008D01*
X0078559Y0079740D01*
X0050213Y0046669D02*
X0059071Y0037811D01*
X0059071Y0033480D01*
X0057496Y0033480D01*
X0055724Y0031709D01*
X0055724Y0026591D01*
X0047063Y0016354D01*
X0180134Y0105331D02*
X0187220Y0099425D01*
X0191157Y0098244D01*
X0193565Y0095837D01*
X0193565Y0091900D01*
X0257387Y0064473D02*
X0257387Y0039189D01*
X0269898Y0024380D02*
X0271499Y0024380D01*
X0286209Y0039089D01*
X0274780Y0050518D01*
X0274780Y0071866D01*
X0264780Y0071866D02*
X0257387Y0064473D01*
X0166354Y0174228D02*
X0166354Y0182299D01*
X0166354Y0189780D02*
X0166354Y0210055D01*
X0166354Y0212024D01*
X0175409Y0221079D01*
X0186039Y0221079D01*
X0190764Y0216354D01*
X0190764Y0211000D01*
X0191039Y0210724D01*
X0191039Y0201118D01*
X0197063Y0195094D01*
X0205331Y0195094D01*
X0208087Y0192339D01*
X0208087Y0186433D01*
X0208480Y0186039D01*
X0236039Y0186039D01*
X0250606Y0200606D01*
X0250606Y0210291D01*
X0251039Y0210724D01*
X0233283Y0233283D02*
X0221472Y0221472D01*
X0221472Y0211157D01*
X0221039Y0210724D01*
X0201039Y0210724D02*
X0201039Y0225843D01*
X0207299Y0232102D01*
X0217929Y0232102D01*
X0220685Y0234858D01*
X0220685Y0241866D01*
X0233283Y0249031D02*
X0233283Y0233283D01*
X0233283Y0249031D02*
X0225409Y0256906D01*
X0205724Y0256906D01*
X0200724Y0251906D01*
X0200724Y0241906D01*
X0166354Y0210055D02*
X0145409Y0210055D01*
X0144740Y0210724D01*
X0145488Y0209976D01*
X0145488Y0198638D01*
X0132890Y0186039D01*
X0109661Y0186039D01*
X0102181Y0186039D01*
X0091157Y0197063D01*
X0089976Y0197063D01*
X0084740Y0202299D01*
X0084740Y0210724D01*
X0084740Y0214898D01*
X0078165Y0221472D01*
X0069898Y0221472D01*
X0063992Y0215567D01*
X0063992Y0189780D01*
X0092339Y0217929D02*
X0097535Y0217929D01*
X0104740Y0210724D01*
X0114386Y0211079D02*
X0114740Y0210724D01*
X0114386Y0211079D02*
X0114386Y0215567D01*
X0104543Y0225409D01*
X0095488Y0225409D01*
X0067929Y0252969D01*
X0028559Y0252969D01*
X0023559Y0247969D01*
X0023559Y0241906D01*
X0033559Y0241906D02*
X0033559Y0233402D01*
X0036827Y0230134D01*
X0080134Y0230134D01*
X0092339Y0217929D01*
D34*
X0037516Y0200705D02*
X0037516Y0198835D01*
X0034300Y0198550D02*
X0034300Y0196750D01*
X0032500Y0194950D01*
X0030700Y0194163D01*
X0029350Y0194950D01*
X0027550Y0196750D01*
X0027550Y0198550D01*
X0034071Y0198835D02*
X0034300Y0198550D01*
X0042831Y0166846D02*
X0038795Y0162811D01*
X0038795Y0108480D01*
X0037220Y0106906D01*
X0034071Y0102181D02*
X0034071Y0084858D01*
X0030921Y0081709D01*
X0023047Y0081709D01*
X0021866Y0080528D01*
X0021866Y0071433D01*
X0026748Y0066551D01*
X0026748Y0076551D02*
X0031276Y0076551D01*
X0038008Y0083283D01*
X0038008Y0086039D01*
X0034071Y0102181D02*
X0029701Y0106551D01*
X0026748Y0106551D01*
X0016748Y0096551D02*
X0011236Y0091039D01*
X0011236Y0062811D01*
X0016748Y0057299D01*
X0016748Y0056551D01*
X0024819Y0046669D02*
X0024850Y0046563D01*
X0084700Y0033850D02*
X0084661Y0033480D01*
X0084700Y0033850D02*
X0097300Y0046450D01*
X0118900Y0046450D01*
X0119110Y0046669D01*
X0142339Y0039976D02*
X0143520Y0037220D01*
X0153550Y0039250D02*
X0155350Y0037450D01*
X0158500Y0037450D01*
X0159175Y0038125D01*
X0157094Y0037450D01*
X0159175Y0038125D02*
X0160300Y0039250D01*
X0160300Y0041050D01*
X0160055Y0041354D01*
X0163500Y0041354D02*
X0163900Y0041050D01*
X0153550Y0041050D02*
X0153550Y0039250D01*
X0193565Y0091900D02*
X0200350Y0091900D01*
X0200606Y0091551D01*
X0200800Y0091450D01*
X0222400Y0091450D01*
X0228700Y0085150D01*
X0228700Y0083800D01*
X0229150Y0083677D01*
X0229600Y0083350D01*
X0261100Y0083350D01*
X0272350Y0072100D01*
X0274780Y0071866D01*
X0201591Y0146669D02*
X0201700Y0146800D01*
X0201700Y0152594D01*
X0206256Y0157150D01*
X0206256Y0184206D01*
X0208480Y0186039D01*
X0251039Y0210724D02*
X0252100Y0212950D01*
X0168400Y0112600D02*
X0168323Y0112600D01*
X0168323Y0105513D01*
X0115750Y0105513D01*
X0108663Y0112600D01*
X0108550Y0112600D01*
X0108402Y0112811D01*
X0080232Y0126984D02*
X0067929Y0126984D01*
X0067929Y0134858D01*
X0067732Y0134858D01*
X0094996Y0146669D02*
X0095291Y0146669D01*
X0094996Y0146669D02*
X0095980Y0147654D01*
X0099917Y0146669D01*
X0044799Y0166846D02*
X0042831Y0166846D01*
X0168323Y0105513D02*
X0177772Y0105513D01*
X0178559Y0106118D01*
X0180134Y0105331D01*
X0178635Y0105513D02*
X0177772Y0105513D01*
D35*
X0177014Y0105836D02*
X0179789Y0105836D01*
X0179852Y0105862D01*
X0186506Y0099208D01*
X0186766Y0099101D01*
X0185090Y0099101D01*
X0184671Y0099520D01*
X0181216Y0100951D01*
X0117240Y0100951D01*
X0113235Y0100951D01*
X0107256Y0100951D01*
X0104888Y0103319D01*
X0104888Y0108226D01*
X0105375Y0107872D01*
X0106185Y0107459D01*
X0107049Y0107178D01*
X0107947Y0107036D01*
X0108402Y0107036D01*
X0108856Y0107036D01*
X0109754Y0107178D01*
X0110618Y0107459D01*
X0111428Y0107872D01*
X0112164Y0108406D01*
X0112553Y0108796D01*
X0114451Y0106898D01*
X0117014Y0105836D01*
X0118284Y0105836D01*
X0120512Y0103609D01*
X0122313Y0102863D01*
X0150925Y0102863D01*
X0152726Y0103609D01*
X0154104Y0104987D01*
X0155557Y0106440D01*
X0157014Y0105836D01*
X0159789Y0105836D01*
X0162352Y0106898D01*
X0164250Y0108796D01*
X0164640Y0108406D01*
X0165375Y0107872D01*
X0166185Y0107459D01*
X0167049Y0107178D01*
X0167947Y0107036D01*
X0168402Y0107036D01*
X0168856Y0107036D01*
X0169754Y0107178D01*
X0170618Y0107459D01*
X0171428Y0107872D01*
X0172164Y0108406D01*
X0172553Y0108796D01*
X0174451Y0106898D01*
X0177014Y0105836D01*
X0177000Y0105842D02*
X0177000Y0100951D01*
X0181000Y0100951D02*
X0181000Y0104714D01*
X0180714Y0105000D02*
X0154117Y0105000D01*
X0153000Y0103883D02*
X0153000Y0100951D01*
X0149000Y0100951D02*
X0149000Y0102863D01*
X0145000Y0102863D02*
X0145000Y0100951D01*
X0141000Y0100951D02*
X0141000Y0102863D01*
X0137000Y0102863D02*
X0137000Y0100951D01*
X0133000Y0100951D02*
X0133000Y0102863D01*
X0129000Y0102863D02*
X0129000Y0100951D01*
X0125000Y0100951D02*
X0125000Y0102863D01*
X0121000Y0103406D02*
X0121000Y0100951D01*
X0117000Y0100951D02*
X0117000Y0105842D01*
X0119120Y0105000D02*
X0104888Y0105000D01*
X0105000Y0103207D02*
X0105000Y0108144D01*
X0108402Y0109000D02*
X0108402Y0109000D01*
X0108402Y0107036D02*
X0108402Y0112811D01*
X0108402Y0107036D01*
X0109000Y0107059D02*
X0109000Y0100951D01*
X0107207Y0101000D02*
X0184714Y0101000D01*
X0185000Y0100714D02*
X0185000Y0099191D01*
X0188653Y0098462D02*
X0297631Y0098462D01*
X0297876Y0097871D01*
X0298684Y0097063D01*
X0297876Y0096255D01*
X0296750Y0093535D01*
X0296750Y0090591D01*
X0297876Y0087871D01*
X0299958Y0085790D01*
X0302678Y0084663D01*
X0305622Y0084663D01*
X0305900Y0084778D01*
X0305900Y0038420D01*
X0287266Y0019786D01*
X0287265Y0019786D01*
X0301254Y0033774D01*
X0302000Y0035575D01*
X0302000Y0068003D01*
X0302700Y0069693D01*
X0302700Y0071921D01*
X0301847Y0073979D01*
X0300272Y0075555D01*
X0298214Y0076407D01*
X0295986Y0076407D01*
X0293928Y0075555D01*
X0292353Y0073979D01*
X0291500Y0071921D01*
X0291500Y0069693D01*
X0292200Y0068003D01*
X0292200Y0048670D01*
X0291683Y0048995D01*
X0290540Y0049545D01*
X0289342Y0049964D01*
X0288104Y0050247D01*
X0287409Y0050325D01*
X0287409Y0040289D01*
X0285009Y0040289D01*
X0285009Y0050325D01*
X0284313Y0050247D01*
X0283075Y0049964D01*
X0281878Y0049545D01*
X0280734Y0048995D01*
X0279659Y0048319D01*
X0278667Y0047528D01*
X0277770Y0046631D01*
X0276978Y0045638D01*
X0276303Y0044564D01*
X0275752Y0043420D01*
X0275333Y0042222D01*
X0275051Y0040985D01*
X0274972Y0040289D01*
X0285009Y0040289D01*
X0285009Y0037889D01*
X0274972Y0037889D01*
X0275051Y0037193D01*
X0275333Y0035956D01*
X0275752Y0034758D01*
X0276244Y0033738D01*
X0275372Y0034285D01*
X0274229Y0034836D01*
X0273031Y0035255D01*
X0271793Y0035537D01*
X0271098Y0035616D01*
X0271098Y0025580D01*
X0268698Y0025580D01*
X0268698Y0033382D01*
X0269220Y0034287D01*
X0270086Y0037517D01*
X0270086Y0040861D01*
X0269220Y0044091D01*
X0267548Y0046986D01*
X0266305Y0048229D01*
X0266305Y0061442D01*
X0266787Y0062603D01*
X0266787Y0063930D01*
X0269368Y0064999D01*
X0270682Y0066313D01*
X0270938Y0066117D01*
X0271721Y0065664D01*
X0272557Y0065318D01*
X0273431Y0065084D01*
X0274327Y0064966D01*
X0274779Y0064966D01*
X0274779Y0071866D01*
X0274780Y0071866D01*
X0274780Y0071866D01*
X0281680Y0071866D01*
X0281680Y0071414D01*
X0281561Y0070517D01*
X0281327Y0069643D01*
X0280981Y0068808D01*
X0280529Y0068024D01*
X0279978Y0067307D01*
X0279339Y0066667D01*
X0278621Y0066117D01*
X0277838Y0065664D01*
X0277002Y0065318D01*
X0276129Y0065084D01*
X0275232Y0064966D01*
X0274780Y0064966D01*
X0274780Y0071866D01*
X0281680Y0071866D01*
X0281680Y0072318D01*
X0281561Y0073215D01*
X0281327Y0074089D01*
X0280981Y0074924D01*
X0280529Y0075708D01*
X0279978Y0076425D01*
X0279339Y0077065D01*
X0278621Y0077616D01*
X0277838Y0078068D01*
X0277002Y0078414D01*
X0276129Y0078648D01*
X0275232Y0078766D01*
X0274780Y0078766D01*
X0274780Y0071866D01*
X0274779Y0071866D01*
X0274779Y0078766D01*
X0274327Y0078766D01*
X0273431Y0078648D01*
X0272557Y0078414D01*
X0271721Y0078068D01*
X0270938Y0077616D01*
X0270682Y0077419D01*
X0269368Y0078733D01*
X0266391Y0079966D01*
X0263168Y0079966D01*
X0260191Y0078733D01*
X0257913Y0076454D01*
X0256844Y0073873D01*
X0255517Y0073873D01*
X0254355Y0073392D01*
X0237177Y0073392D01*
X0232840Y0077729D01*
X0233224Y0077889D01*
X0233749Y0078239D01*
X0234194Y0078685D01*
X0234544Y0079209D01*
X0234786Y0079791D01*
X0234909Y0080409D01*
X0234909Y0083598D01*
X0229229Y0083598D01*
X0229229Y0083757D01*
X0229070Y0083757D01*
X0229070Y0089830D01*
X0227251Y0089830D01*
X0226721Y0090360D01*
X0225104Y0091030D01*
X0218235Y0091030D01*
X0216618Y0090360D01*
X0215398Y0089140D01*
X0210696Y0089140D01*
X0210696Y0091176D01*
X0200981Y0091176D01*
X0200981Y0091926D01*
X0200231Y0091926D01*
X0200231Y0091176D01*
X0190636Y0091176D01*
X0190636Y0091926D01*
X0200231Y0091926D01*
X0200231Y0097901D01*
X0193401Y0097901D01*
X0192783Y0097778D01*
X0192201Y0097537D01*
X0191677Y0097186D01*
X0191231Y0096741D01*
X0190881Y0096217D01*
X0190640Y0095634D01*
X0190631Y0095589D01*
X0189966Y0097193D01*
X0188729Y0098431D01*
X0188653Y0098462D01*
X0189000Y0098462D02*
X0189000Y0098160D01*
X0190046Y0097000D02*
X0191490Y0097000D01*
X0193000Y0097821D02*
X0193000Y0098462D01*
X0197000Y0098462D02*
X0197000Y0097901D01*
X0200231Y0097000D02*
X0200981Y0097000D01*
X0200981Y0097901D02*
X0200981Y0091926D01*
X0210696Y0091926D01*
X0210696Y0095016D01*
X0210573Y0095634D01*
X0210332Y0096217D01*
X0209982Y0096741D01*
X0209536Y0097186D01*
X0209012Y0097537D01*
X0208429Y0097778D01*
X0207811Y0097901D01*
X0200981Y0097901D01*
X0201000Y0097901D02*
X0201000Y0098462D01*
X0205000Y0098462D02*
X0205000Y0097901D01*
X0200981Y0093000D02*
X0200231Y0093000D01*
X0201000Y0091926D02*
X0201000Y0091176D01*
X0197000Y0091176D02*
X0197000Y0091926D01*
X0193000Y0091926D02*
X0193000Y0091176D01*
X0205000Y0091176D02*
X0205000Y0091926D01*
X0209000Y0091926D02*
X0209000Y0091176D01*
X0210696Y0093000D02*
X0296750Y0093000D01*
X0297000Y0094139D02*
X0297000Y0098462D01*
X0298621Y0097000D02*
X0209722Y0097000D01*
X0209000Y0097541D02*
X0209000Y0098462D01*
X0213000Y0098462D02*
X0213000Y0089140D01*
X0217000Y0090518D02*
X0217000Y0098462D01*
X0221000Y0098462D02*
X0221000Y0091030D01*
X0225000Y0091030D02*
X0225000Y0098462D01*
X0229000Y0098462D02*
X0229000Y0089830D01*
X0229229Y0089830D02*
X0229229Y0083757D01*
X0234909Y0083757D01*
X0234909Y0086945D01*
X0234786Y0087563D01*
X0234544Y0088146D01*
X0234194Y0088670D01*
X0233749Y0089116D01*
X0233224Y0089466D01*
X0232642Y0089707D01*
X0232024Y0089830D01*
X0229229Y0089830D01*
X0229229Y0089000D02*
X0229070Y0089000D01*
X0233000Y0089559D02*
X0233000Y0098462D01*
X0237000Y0098462D02*
X0237000Y0073569D01*
X0241000Y0073392D02*
X0241000Y0098462D01*
X0245000Y0098462D02*
X0245000Y0073392D01*
X0249000Y0073392D02*
X0249000Y0098462D01*
X0253000Y0098462D02*
X0253000Y0073392D01*
X0257000Y0074251D02*
X0257000Y0098462D01*
X0261000Y0098462D02*
X0261000Y0079068D01*
X0258458Y0077000D02*
X0233569Y0077000D01*
X0233000Y0077569D02*
X0233000Y0077796D01*
X0234909Y0081000D02*
X0305900Y0081000D01*
X0305000Y0084663D02*
X0305000Y0037520D01*
X0304480Y0037000D02*
X0302000Y0037000D01*
X0301000Y0033520D02*
X0301000Y0033520D01*
X0300480Y0033000D02*
X0300480Y0033000D01*
X0297000Y0029520D02*
X0297000Y0029520D01*
X0296480Y0029000D02*
X0296480Y0029000D01*
X0293000Y0025520D02*
X0293000Y0025520D01*
X0292480Y0025000D02*
X0292480Y0025000D01*
X0289000Y0021520D02*
X0289000Y0021520D01*
X0288480Y0021000D02*
X0288480Y0021000D01*
X0288550Y0013150D02*
X0288402Y0012811D01*
X0288550Y0013150D02*
X0311500Y0036100D01*
X0311500Y0240500D01*
X0296669Y0255331D01*
X0285252Y0255331D01*
X0280528Y0250606D01*
X0280528Y0241906D01*
X0286376Y0234289D02*
X0284719Y0232632D01*
X0282000Y0231506D01*
X0279056Y0231506D01*
X0276336Y0232632D01*
X0275565Y0233403D01*
X0275565Y0206353D01*
X0274819Y0204552D01*
X0273441Y0203174D01*
X0250813Y0180546D01*
X0250813Y0167896D01*
X0252466Y0167896D01*
X0255102Y0166804D01*
X0257119Y0164787D01*
X0257965Y0162745D01*
X0296750Y0201529D01*
X0296750Y0203535D01*
X0297876Y0206255D01*
X0299533Y0207912D01*
X0299421Y0208024D01*
X0298847Y0208813D01*
X0298404Y0209683D01*
X0298102Y0210611D01*
X0297950Y0211575D01*
X0297950Y0212063D01*
X0304149Y0212063D01*
X0304149Y0212063D01*
X0297950Y0212063D01*
X0297950Y0212551D01*
X0298102Y0213515D01*
X0298404Y0214443D01*
X0298822Y0215264D01*
X0298657Y0215333D01*
X0297419Y0216571D01*
X0296750Y0218188D01*
X0296750Y0225938D01*
X0297419Y0227555D01*
X0298657Y0228793D01*
X0300274Y0229463D01*
X0305900Y0229463D01*
X0305900Y0238180D01*
X0295577Y0248503D01*
X0295830Y0248155D01*
X0296273Y0247285D01*
X0296575Y0246357D01*
X0296728Y0245393D01*
X0296728Y0241906D01*
X0290528Y0241906D01*
X0290528Y0241905D01*
X0296728Y0241905D01*
X0296728Y0238418D01*
X0296575Y0237454D01*
X0296273Y0236526D01*
X0295830Y0235656D01*
X0295257Y0234866D01*
X0294567Y0234176D01*
X0293777Y0233603D01*
X0292908Y0233160D01*
X0291979Y0232858D01*
X0291016Y0232706D01*
X0290528Y0232706D01*
X0290528Y0241905D01*
X0290527Y0241905D01*
X0290527Y0232706D01*
X0290040Y0232706D01*
X0289076Y0232858D01*
X0288148Y0233160D01*
X0287278Y0233603D01*
X0286489Y0234176D01*
X0286376Y0234289D01*
X0285087Y0233000D02*
X0288639Y0233000D01*
X0289000Y0232883D02*
X0289000Y0193780D01*
X0288220Y0193000D02*
X0263267Y0193000D01*
X0265000Y0194733D02*
X0265000Y0169780D01*
X0264220Y0169000D02*
X0250813Y0169000D01*
X0253000Y0167675D02*
X0253000Y0182733D01*
X0251267Y0181000D02*
X0276220Y0181000D01*
X0277000Y0181780D02*
X0277000Y0232357D01*
X0275968Y0233000D02*
X0275565Y0233000D01*
X0275565Y0229000D02*
X0299157Y0229000D01*
X0301000Y0229463D02*
X0301000Y0243080D01*
X0299080Y0245000D02*
X0296728Y0245000D01*
X0297000Y0247080D02*
X0297000Y0226543D01*
X0296750Y0225000D02*
X0275565Y0225000D01*
X0275565Y0221000D02*
X0296750Y0221000D01*
X0297000Y0217583D02*
X0297000Y0204139D01*
X0297356Y0205000D02*
X0275004Y0205000D01*
X0273000Y0202733D02*
X0273000Y0177780D01*
X0272220Y0177000D02*
X0250813Y0177000D01*
X0250813Y0173000D02*
X0268220Y0173000D01*
X0269000Y0173780D02*
X0269000Y0198733D01*
X0267267Y0197000D02*
X0292220Y0197000D01*
X0293000Y0197780D02*
X0293000Y0233207D01*
X0292416Y0233000D02*
X0305900Y0233000D01*
X0305000Y0229463D02*
X0305000Y0239080D01*
X0305900Y0237000D02*
X0296427Y0237000D01*
X0296728Y0241000D02*
X0303080Y0241000D01*
X0293000Y0241905D02*
X0293000Y0241906D01*
X0290528Y0241000D02*
X0290527Y0241000D01*
X0290527Y0237000D02*
X0290528Y0237000D01*
X0290527Y0233000D02*
X0290528Y0233000D01*
X0285000Y0232913D02*
X0285000Y0189780D01*
X0284220Y0189000D02*
X0259267Y0189000D01*
X0261000Y0190733D02*
X0261000Y0165780D01*
X0260220Y0165000D02*
X0256906Y0165000D01*
X0257000Y0164906D02*
X0257000Y0186733D01*
X0255267Y0185000D02*
X0280220Y0185000D01*
X0281000Y0185780D02*
X0281000Y0231506D01*
X0275565Y0217000D02*
X0297242Y0217000D01*
X0298021Y0213000D02*
X0275565Y0213000D01*
X0275565Y0209000D02*
X0298752Y0209000D01*
X0301000Y0212063D02*
X0301000Y0212063D01*
X0296220Y0201000D02*
X0271267Y0201000D01*
X0265000Y0208593D02*
X0265000Y0233968D01*
X0264254Y0234714D02*
X0265765Y0233203D01*
X0265765Y0209358D01*
X0241759Y0185351D01*
X0241013Y0183550D01*
X0241013Y0167896D01*
X0239613Y0167896D01*
X0236977Y0166804D01*
X0236039Y0165867D01*
X0235102Y0166804D01*
X0232466Y0167896D01*
X0229613Y0167896D01*
X0226977Y0166804D01*
X0226039Y0165867D01*
X0225102Y0166804D01*
X0222466Y0167896D01*
X0219613Y0167896D01*
X0216977Y0166804D01*
X0216039Y0165867D01*
X0215102Y0166804D01*
X0212466Y0167896D01*
X0209613Y0167896D01*
X0206977Y0166804D01*
X0206039Y0165867D01*
X0205102Y0166804D01*
X0202466Y0167896D01*
X0199613Y0167896D01*
X0196977Y0166804D01*
X0196039Y0165867D01*
X0195102Y0166804D01*
X0192466Y0167896D01*
X0189613Y0167896D01*
X0186977Y0166804D01*
X0186039Y0165867D01*
X0185102Y0166804D01*
X0182466Y0167896D01*
X0179613Y0167896D01*
X0176977Y0166804D01*
X0174960Y0164787D01*
X0173868Y0162151D01*
X0173868Y0159298D01*
X0174786Y0157081D01*
X0171620Y0157081D01*
X0171620Y0164828D01*
X0172161Y0164828D01*
X0175616Y0166259D01*
X0178260Y0168904D01*
X0182256Y0172899D01*
X0183972Y0172899D01*
X0187427Y0174330D01*
X0190071Y0176975D01*
X0190699Y0178490D01*
X0194985Y0178490D01*
X0196603Y0179160D01*
X0197840Y0180397D01*
X0198505Y0182001D01*
X0198514Y0181956D01*
X0198755Y0181374D01*
X0199105Y0180850D01*
X0199551Y0180404D01*
X0200075Y0180054D01*
X0200657Y0179813D01*
X0201275Y0179690D01*
X0208105Y0179690D01*
X0208105Y0185664D01*
X0208855Y0185664D01*
X0208855Y0179690D01*
X0215685Y0179690D01*
X0216303Y0179813D01*
X0216886Y0180054D01*
X0217410Y0180404D01*
X0217856Y0180850D01*
X0218206Y0181374D01*
X0218447Y0181956D01*
X0218570Y0182575D01*
X0218570Y0185665D01*
X0208855Y0185665D01*
X0208855Y0186414D01*
X0218570Y0186414D01*
X0218570Y0189504D01*
X0218447Y0190122D01*
X0218206Y0190705D01*
X0217856Y0191229D01*
X0217410Y0191675D01*
X0216886Y0192025D01*
X0216303Y0192266D01*
X0215685Y0192389D01*
X0208855Y0192389D01*
X0208855Y0186414D01*
X0208105Y0186414D01*
X0208105Y0192389D01*
X0201275Y0192389D01*
X0200657Y0192266D01*
X0200075Y0192025D01*
X0199551Y0191675D01*
X0199105Y0191229D01*
X0198755Y0190705D01*
X0198514Y0190122D01*
X0198505Y0190078D01*
X0197840Y0191681D01*
X0196603Y0192919D01*
X0194985Y0193589D01*
X0190439Y0193589D01*
X0190439Y0204773D01*
X0190569Y0204753D01*
X0191039Y0204753D01*
X0191039Y0210724D01*
X0191039Y0210724D01*
X0191039Y0204753D01*
X0191509Y0204753D01*
X0192438Y0204900D01*
X0193332Y0205190D01*
X0194169Y0205617D01*
X0194930Y0206169D01*
X0195191Y0206431D01*
X0196977Y0204645D01*
X0199613Y0203553D01*
X0202466Y0203553D01*
X0205102Y0204645D01*
X0206039Y0205582D01*
X0206977Y0204645D01*
X0209613Y0203553D01*
X0212466Y0203553D01*
X0215102Y0204645D01*
X0216039Y0205582D01*
X0216977Y0204645D01*
X0219613Y0203553D01*
X0222466Y0203553D01*
X0225102Y0204645D01*
X0226039Y0205582D01*
X0226977Y0204645D01*
X0229613Y0203553D01*
X0232466Y0203553D01*
X0235102Y0204645D01*
X0236039Y0205582D01*
X0236977Y0204645D01*
X0239613Y0203553D01*
X0242466Y0203553D01*
X0245102Y0204645D01*
X0246888Y0206431D01*
X0247149Y0206169D01*
X0247910Y0205617D01*
X0248747Y0205190D01*
X0249641Y0204900D01*
X0250569Y0204753D01*
X0251039Y0204753D01*
X0251039Y0210724D01*
X0251039Y0210724D01*
X0251039Y0204753D01*
X0251509Y0204753D01*
X0252438Y0204900D01*
X0253332Y0205190D01*
X0254169Y0205617D01*
X0254930Y0206169D01*
X0255594Y0206834D01*
X0256147Y0207595D01*
X0256574Y0208432D01*
X0256864Y0209326D01*
X0257011Y0210254D01*
X0257011Y0210724D01*
X0251039Y0210724D01*
X0251039Y0210724D01*
X0251039Y0210725D02*
X0251039Y0216696D01*
X0250569Y0216696D01*
X0249641Y0216549D01*
X0248747Y0216259D01*
X0247910Y0215832D01*
X0247149Y0215279D01*
X0246888Y0215018D01*
X0245102Y0216804D01*
X0242466Y0217896D01*
X0239613Y0217896D01*
X0236977Y0216804D01*
X0236039Y0215867D01*
X0235102Y0216804D01*
X0232466Y0217896D01*
X0229613Y0217896D01*
X0228372Y0217382D01*
X0228372Y0218614D01*
X0239133Y0229375D01*
X0240183Y0231911D01*
X0240183Y0250404D01*
X0239133Y0252940D01*
X0237192Y0254881D01*
X0235630Y0256443D01*
X0278444Y0256443D01*
X0277355Y0255354D01*
X0275780Y0253778D01*
X0274928Y0251720D01*
X0274928Y0250971D01*
X0274719Y0251179D01*
X0272000Y0252305D01*
X0269056Y0252305D01*
X0266336Y0251179D01*
X0264254Y0249097D01*
X0263128Y0246377D01*
X0263128Y0237434D01*
X0264254Y0234714D01*
X0265765Y0233000D02*
X0240183Y0233000D01*
X0240183Y0237000D02*
X0263307Y0237000D01*
X0263128Y0241000D02*
X0240183Y0241000D01*
X0240183Y0245000D02*
X0263128Y0245000D01*
X0264214Y0249000D02*
X0240183Y0249000D01*
X0239073Y0253000D02*
X0275458Y0253000D01*
X0277000Y0254998D02*
X0277000Y0256443D01*
X0273000Y0256443D02*
X0273000Y0251891D01*
X0269000Y0252282D02*
X0269000Y0256443D01*
X0265000Y0256443D02*
X0265000Y0249843D01*
X0261000Y0256443D02*
X0261000Y0204593D01*
X0261407Y0205000D02*
X0252746Y0205000D01*
X0253000Y0205082D02*
X0253000Y0196593D01*
X0253407Y0197000D02*
X0190439Y0197000D01*
X0190439Y0201000D02*
X0257407Y0201000D01*
X0257000Y0200593D02*
X0257000Y0210185D01*
X0257000Y0210724D02*
X0257000Y0210724D01*
X0257011Y0210724D02*
X0257011Y0211194D01*
X0256864Y0212123D01*
X0256574Y0213017D01*
X0256147Y0213854D01*
X0255594Y0214615D01*
X0254930Y0215279D01*
X0254169Y0215832D01*
X0253332Y0216259D01*
X0252438Y0216549D01*
X0251509Y0216696D01*
X0251039Y0216696D01*
X0251039Y0210725D01*
X0251039Y0210725D01*
X0251039Y0210724D02*
X0257011Y0210724D01*
X0257000Y0211264D02*
X0257000Y0256443D01*
X0253000Y0256443D02*
X0253000Y0216366D01*
X0251039Y0213000D02*
X0251039Y0213000D01*
X0253000Y0210724D02*
X0253000Y0210724D01*
X0251039Y0209000D02*
X0251039Y0209000D01*
X0251039Y0205000D02*
X0251039Y0205000D01*
X0249333Y0205000D02*
X0245457Y0205000D01*
X0245000Y0204602D02*
X0245000Y0188593D01*
X0245407Y0189000D02*
X0218570Y0189000D01*
X0217000Y0186414D02*
X0217000Y0185665D01*
X0218570Y0185000D02*
X0241613Y0185000D01*
X0241013Y0181000D02*
X0217956Y0181000D01*
X0217000Y0180130D02*
X0217000Y0166814D01*
X0213000Y0167675D02*
X0213000Y0179690D01*
X0209000Y0179690D02*
X0209000Y0167642D01*
X0205000Y0166846D02*
X0205000Y0179690D01*
X0208105Y0181000D02*
X0208855Y0181000D01*
X0208855Y0185000D02*
X0208105Y0185000D01*
X0209000Y0185665D02*
X0209000Y0186414D01*
X0208855Y0189000D02*
X0208105Y0189000D01*
X0209000Y0192389D02*
X0209000Y0203807D01*
X0206622Y0205000D02*
X0205457Y0205000D01*
X0205000Y0204602D02*
X0205000Y0192389D01*
X0201000Y0192334D02*
X0201000Y0203553D01*
X0197000Y0204635D02*
X0197000Y0192522D01*
X0196407Y0193000D02*
X0249407Y0193000D01*
X0249000Y0192593D02*
X0249000Y0205108D01*
X0256758Y0209000D02*
X0265407Y0209000D01*
X0265765Y0213000D02*
X0256579Y0213000D01*
X0249000Y0216341D02*
X0249000Y0256443D01*
X0245000Y0256443D02*
X0245000Y0216846D01*
X0244629Y0217000D02*
X0265765Y0217000D01*
X0265765Y0221000D02*
X0230758Y0221000D01*
X0229000Y0219242D02*
X0229000Y0217642D01*
X0233000Y0217675D02*
X0233000Y0223242D01*
X0234758Y0225000D02*
X0265765Y0225000D01*
X0265765Y0229000D02*
X0238758Y0229000D01*
X0237000Y0227242D02*
X0237000Y0216814D01*
X0237450Y0217000D02*
X0234629Y0217000D01*
X0241000Y0217896D02*
X0241000Y0256443D01*
X0237000Y0256443D02*
X0237000Y0255073D01*
X0197620Y0232182D02*
X0195190Y0229751D01*
X0194139Y0227215D01*
X0194139Y0215847D01*
X0193332Y0216259D01*
X0192438Y0216549D01*
X0191509Y0216696D01*
X0191039Y0216696D01*
X0190569Y0216696D01*
X0189641Y0216549D01*
X0188786Y0216271D01*
X0186364Y0218693D01*
X0182909Y0220124D01*
X0179170Y0220124D01*
X0175715Y0218693D01*
X0173070Y0216049D01*
X0171639Y0212594D01*
X0171639Y0194532D01*
X0171347Y0194824D01*
X0170823Y0195174D01*
X0170240Y0195416D01*
X0169622Y0195539D01*
X0166434Y0195539D01*
X0166434Y0189859D01*
X0166275Y0189859D01*
X0166275Y0195539D01*
X0163086Y0195539D01*
X0162468Y0195416D01*
X0161886Y0195174D01*
X0161362Y0194824D01*
X0160916Y0194378D01*
X0160566Y0193854D01*
X0160325Y0193272D01*
X0160202Y0192654D01*
X0160202Y0189859D01*
X0166275Y0189859D01*
X0166275Y0189700D01*
X0160202Y0189700D01*
X0160202Y0187881D01*
X0159671Y0187351D01*
X0159002Y0185733D01*
X0159002Y0183628D01*
X0112271Y0183628D01*
X0112271Y0185665D01*
X0102556Y0185665D01*
X0102556Y0186414D01*
X0112271Y0186414D01*
X0112271Y0189504D01*
X0112148Y0190122D01*
X0111907Y0190705D01*
X0111556Y0191229D01*
X0111111Y0191675D01*
X0110587Y0192025D01*
X0110004Y0192266D01*
X0109386Y0192389D01*
X0102556Y0192389D01*
X0102556Y0186414D01*
X0101806Y0186414D01*
X0101806Y0192389D01*
X0094976Y0192389D01*
X0094358Y0192266D01*
X0093776Y0192025D01*
X0093251Y0191675D01*
X0092806Y0191229D01*
X0092456Y0190705D01*
X0092214Y0190122D01*
X0092205Y0190078D01*
X0091541Y0191681D01*
X0090303Y0192919D01*
X0088686Y0193589D01*
X0084140Y0193589D01*
X0084140Y0204773D01*
X0084270Y0204753D01*
X0084740Y0204753D01*
X0084740Y0210724D01*
X0084740Y0210724D01*
X0084740Y0204753D01*
X0085210Y0204753D01*
X0086139Y0204900D01*
X0087032Y0205190D01*
X0087870Y0205617D01*
X0088630Y0206169D01*
X0088892Y0206431D01*
X0090678Y0204645D01*
X0093314Y0203553D01*
X0096167Y0203553D01*
X0098803Y0204645D01*
X0099740Y0205582D01*
X0100678Y0204645D01*
X0103314Y0203553D01*
X0106167Y0203553D01*
X0108803Y0204645D01*
X0109740Y0205582D01*
X0110678Y0204645D01*
X0113314Y0203553D01*
X0116167Y0203553D01*
X0116276Y0203598D01*
X0117122Y0202751D01*
X0124690Y0195183D01*
X0125502Y0194847D01*
X0124728Y0194072D01*
X0123875Y0192014D01*
X0123875Y0189786D01*
X0124728Y0187728D01*
X0126303Y0186153D01*
X0128361Y0185300D01*
X0130589Y0185300D01*
X0132647Y0186153D01*
X0134223Y0187728D01*
X0134923Y0189418D01*
X0143304Y0197799D01*
X0144050Y0199600D01*
X0144050Y0204788D01*
X0144270Y0204753D01*
X0144740Y0204753D01*
X0144740Y0210724D01*
X0144740Y0210724D01*
X0144740Y0204753D01*
X0145210Y0204753D01*
X0146139Y0204900D01*
X0147032Y0205190D01*
X0147870Y0205617D01*
X0148630Y0206169D01*
X0149295Y0206834D01*
X0149848Y0207595D01*
X0150274Y0208432D01*
X0150565Y0209326D01*
X0150712Y0210254D01*
X0150712Y0210724D01*
X0144740Y0210724D01*
X0144740Y0210724D01*
X0144740Y0210725D02*
X0144740Y0216696D01*
X0144270Y0216696D01*
X0144066Y0216664D01*
X0147083Y0219681D01*
X0148461Y0221059D01*
X0149207Y0222860D01*
X0149207Y0224356D01*
X0149808Y0224356D01*
X0151425Y0225026D01*
X0152663Y0226263D01*
X0153333Y0227881D01*
X0153333Y0232781D01*
X0153125Y0233283D01*
X0153333Y0233786D01*
X0153333Y0238686D01*
X0153034Y0239407D01*
X0155518Y0239407D01*
X0157319Y0240153D01*
X0158697Y0241531D01*
X0159435Y0242269D01*
X0161915Y0242269D01*
X0163532Y0242939D01*
X0164770Y0244177D01*
X0165439Y0245794D01*
X0165439Y0252269D01*
X0164770Y0253886D01*
X0163532Y0255124D01*
X0161915Y0255794D01*
X0155440Y0255794D01*
X0154543Y0255422D01*
X0153647Y0255794D01*
X0150411Y0255794D01*
X0149812Y0256443D01*
X0195503Y0256443D01*
X0194875Y0255814D01*
X0193824Y0253278D01*
X0193824Y0251631D01*
X0192196Y0252305D01*
X0189252Y0252305D01*
X0186533Y0251179D01*
X0184451Y0249097D01*
X0183324Y0246377D01*
X0183324Y0237434D01*
X0184451Y0234714D01*
X0186533Y0232632D01*
X0189252Y0231506D01*
X0192196Y0231506D01*
X0194916Y0232632D01*
X0195724Y0233440D01*
X0196533Y0232632D01*
X0197620Y0232182D01*
X0197000Y0232439D02*
X0197000Y0231561D01*
X0196165Y0233000D02*
X0195284Y0233000D01*
X0193000Y0231838D02*
X0193000Y0216366D01*
X0194139Y0217000D02*
X0188057Y0217000D01*
X0189000Y0216341D02*
X0189000Y0231610D01*
X0186165Y0233000D02*
X0153242Y0233000D01*
X0153333Y0229000D02*
X0194879Y0229000D01*
X0194139Y0225000D02*
X0151363Y0225000D01*
X0153000Y0227077D02*
X0153000Y0183628D01*
X0149000Y0183628D02*
X0149000Y0206539D01*
X0150459Y0209000D02*
X0171639Y0209000D01*
X0171639Y0205000D02*
X0146447Y0205000D01*
X0145000Y0204753D02*
X0145000Y0183628D01*
X0141000Y0183628D02*
X0141000Y0195495D01*
X0142505Y0197000D02*
X0171639Y0197000D01*
X0169000Y0195539D02*
X0169000Y0256443D01*
X0165000Y0256443D02*
X0165000Y0253330D01*
X0165137Y0253000D02*
X0193824Y0253000D01*
X0193000Y0251973D02*
X0193000Y0256443D01*
X0189000Y0256443D02*
X0189000Y0252201D01*
X0185000Y0249646D02*
X0185000Y0256443D01*
X0181000Y0256443D02*
X0181000Y0220124D01*
X0185000Y0219258D02*
X0185000Y0234165D01*
X0183504Y0237000D02*
X0153333Y0237000D01*
X0157000Y0240021D02*
X0157000Y0183628D01*
X0159002Y0185000D02*
X0112271Y0185000D01*
X0113000Y0183628D02*
X0113000Y0203683D01*
X0110322Y0205000D02*
X0109158Y0205000D01*
X0109000Y0204842D02*
X0109000Y0192389D01*
X0105000Y0192389D02*
X0105000Y0203553D01*
X0101000Y0204511D02*
X0101000Y0192389D01*
X0101806Y0189000D02*
X0102556Y0189000D01*
X0105000Y0186414D02*
X0105000Y0185665D01*
X0109000Y0185665D02*
X0109000Y0186414D01*
X0112271Y0189000D02*
X0124201Y0189000D01*
X0125000Y0187456D02*
X0125000Y0183628D01*
X0121000Y0183628D02*
X0121000Y0198873D01*
X0122873Y0197000D02*
X0084140Y0197000D01*
X0085000Y0193589D02*
X0085000Y0204753D01*
X0084740Y0205000D02*
X0084740Y0205000D01*
X0086447Y0205000D02*
X0090322Y0205000D01*
X0089000Y0206322D02*
X0089000Y0193459D01*
X0090108Y0193000D02*
X0124284Y0193000D01*
X0125000Y0194344D02*
X0125000Y0195055D01*
X0118873Y0201000D02*
X0084140Y0201000D01*
X0093000Y0203683D02*
X0093000Y0191423D01*
X0097000Y0192389D02*
X0097000Y0203898D01*
X0099158Y0205000D02*
X0100322Y0205000D01*
X0084740Y0209000D02*
X0084740Y0209000D01*
X0084740Y0210725D02*
X0084740Y0215769D01*
X0084740Y0215770D01*
X0084740Y0210725D01*
X0084740Y0210725D01*
X0084740Y0213000D02*
X0084740Y0213000D01*
X0083342Y0216549D02*
X0082487Y0216271D01*
X0080065Y0218693D01*
X0076610Y0220124D01*
X0072870Y0220124D01*
X0069415Y0218693D01*
X0066771Y0216049D01*
X0065340Y0212594D01*
X0065340Y0195539D01*
X0064072Y0195539D01*
X0064072Y0189999D01*
X0063913Y0189999D01*
X0063913Y0195539D01*
X0061226Y0195539D01*
X0061226Y0196012D01*
X0060373Y0198070D01*
X0058798Y0199645D01*
X0058353Y0200090D01*
X0058353Y0200497D01*
X0057818Y0201787D01*
X0058353Y0203078D01*
X0058353Y0207978D01*
X0057683Y0209595D01*
X0056445Y0210832D01*
X0054828Y0211502D01*
X0053027Y0211502D01*
X0052376Y0212154D01*
X0050575Y0212900D01*
X0044513Y0212900D01*
X0044133Y0213818D01*
X0042558Y0215393D01*
X0040500Y0216246D01*
X0038272Y0216246D01*
X0036214Y0215393D01*
X0034638Y0213818D01*
X0034589Y0213699D01*
X0033378Y0213197D01*
X0032005Y0211825D01*
X0031676Y0212154D01*
X0029875Y0212900D01*
X0022075Y0212900D01*
X0020274Y0212154D01*
X0019623Y0211502D01*
X0018038Y0211502D01*
X0016421Y0210832D01*
X0015788Y0210200D01*
X0009475Y0210200D01*
X0007674Y0209454D01*
X0005931Y0207710D01*
X0005400Y0207180D01*
X0005400Y0251146D01*
X0010697Y0256443D01*
X0022275Y0256443D01*
X0017710Y0251877D01*
X0017469Y0251296D01*
X0015031Y0252305D01*
X0012087Y0252305D01*
X0009367Y0251179D01*
X0007286Y0249097D01*
X0006159Y0246377D01*
X0006159Y0237434D01*
X0007286Y0234714D01*
X0009367Y0232632D01*
X0012087Y0231506D01*
X0015031Y0231506D01*
X0017751Y0232632D01*
X0018559Y0233440D01*
X0019367Y0232632D01*
X0022087Y0231506D01*
X0025031Y0231506D01*
X0026659Y0232180D01*
X0026659Y0232029D01*
X0027710Y0229493D01*
X0030977Y0226225D01*
X0032918Y0224284D01*
X0035454Y0223234D01*
X0077276Y0223234D01*
X0083876Y0216634D01*
X0083342Y0216549D01*
X0083510Y0217000D02*
X0081758Y0217000D01*
X0081000Y0217758D02*
X0081000Y0219510D01*
X0079510Y0221000D02*
X0005400Y0221000D01*
X0005400Y0217000D02*
X0067722Y0217000D01*
X0069000Y0218278D02*
X0069000Y0223234D01*
X0073000Y0223234D02*
X0073000Y0220124D01*
X0077000Y0219963D02*
X0077000Y0223234D01*
X0065000Y0223234D02*
X0065000Y0195539D01*
X0065340Y0197000D02*
X0060817Y0197000D01*
X0061000Y0196557D02*
X0061000Y0223234D01*
X0057000Y0223234D02*
X0057000Y0210278D01*
X0057929Y0209000D02*
X0065340Y0209000D01*
X0065340Y0205000D02*
X0058353Y0205000D01*
X0058145Y0201000D02*
X0065340Y0201000D01*
X0058798Y0199645D02*
X0058798Y0199645D01*
X0055626Y0194898D02*
X0053165Y0197358D01*
X0052181Y0198047D01*
X0052181Y0197850D01*
X0037417Y0197850D01*
X0037417Y0171276D01*
X0035941Y0169799D01*
X0035941Y0115744D01*
X0026748Y0106551D01*
X0026748Y0096551D02*
X0016748Y0096551D01*
X0016748Y0096551D01*
X0020298Y0096551D01*
X0026748Y0096551D01*
X0026748Y0096551D01*
X0025000Y0096551D02*
X0025000Y0096551D01*
X0021000Y0096551D02*
X0021000Y0096551D01*
X0017000Y0096551D02*
X0017000Y0096551D01*
X0011433Y0099819D02*
X0016748Y0104346D01*
X0016748Y0106551D01*
X0024622Y0143224D02*
X0024622Y0170783D01*
X0030528Y0176689D01*
X0030700Y0177852D01*
X0030700Y0194163D01*
X0027550Y0198550D02*
X0027476Y0198835D01*
X0021981Y0197650D02*
X0020685Y0198047D01*
X0013000Y0210200D02*
X0013000Y0231506D01*
X0017000Y0232321D02*
X0017000Y0211072D01*
X0021000Y0212455D02*
X0021000Y0231956D01*
X0018999Y0233000D02*
X0018119Y0233000D01*
X0025000Y0231506D02*
X0025000Y0212900D01*
X0029000Y0212900D02*
X0029000Y0228203D01*
X0028203Y0229000D02*
X0005400Y0229000D01*
X0005400Y0233000D02*
X0008999Y0233000D01*
X0009000Y0232999D02*
X0009000Y0210003D01*
X0007220Y0209000D02*
X0005400Y0209000D01*
X0005400Y0213000D02*
X0033180Y0213000D01*
X0033000Y0212820D02*
X0033000Y0224250D01*
X0032203Y0225000D02*
X0005400Y0225000D01*
X0005400Y0237000D02*
X0006339Y0237000D01*
X0006159Y0241000D02*
X0005400Y0241000D01*
X0005400Y0245000D02*
X0006159Y0245000D01*
X0005400Y0249000D02*
X0007245Y0249000D01*
X0009000Y0250812D02*
X0009000Y0254746D01*
X0007254Y0253000D02*
X0018832Y0253000D01*
X0017000Y0251490D02*
X0017000Y0256443D01*
X0013000Y0256443D02*
X0013000Y0252305D01*
X0021000Y0255168D02*
X0021000Y0256443D01*
X0037000Y0223234D02*
X0037000Y0215719D01*
X0041000Y0216038D02*
X0041000Y0223234D01*
X0045000Y0223234D02*
X0045000Y0212900D01*
X0044472Y0213000D02*
X0065508Y0213000D01*
X0053000Y0211530D02*
X0053000Y0223234D01*
X0049000Y0223234D02*
X0049000Y0212900D01*
X0037516Y0198835D02*
X0037417Y0198343D01*
X0037417Y0197850D01*
X0043017Y0192250D02*
X0049105Y0192250D01*
X0049534Y0192072D01*
X0050532Y0192072D01*
X0050879Y0191726D01*
X0050879Y0191725D02*
X0052454Y0190150D01*
X0054512Y0189298D01*
X0056740Y0189298D01*
X0058095Y0189859D01*
X0062122Y0189859D01*
X0061738Y0189700D01*
X0057839Y0189700D01*
X0057839Y0187881D01*
X0057309Y0187351D01*
X0056639Y0185733D01*
X0056639Y0184669D01*
X0056292Y0183831D01*
X0056292Y0180768D01*
X0056639Y0179929D01*
X0056639Y0178865D01*
X0057309Y0177248D01*
X0058547Y0176010D01*
X0060164Y0175340D01*
X0060672Y0175340D01*
X0062460Y0174599D01*
X0070210Y0174599D01*
X0070478Y0174330D01*
X0073933Y0172899D01*
X0075650Y0172899D01*
X0076802Y0171746D01*
X0046035Y0171746D01*
X0045794Y0171846D01*
X0043017Y0171846D01*
X0043017Y0172389D01*
X0043017Y0192250D01*
X0045000Y0192250D02*
X0045000Y0171846D01*
X0043017Y0173000D02*
X0073690Y0173000D01*
X0073000Y0173286D02*
X0073000Y0171746D01*
X0069000Y0171746D02*
X0069000Y0174599D01*
X0065000Y0174599D02*
X0065000Y0171746D01*
X0061000Y0171746D02*
X0061000Y0175204D01*
X0057557Y0177000D02*
X0043017Y0177000D01*
X0043017Y0181000D02*
X0056292Y0181000D01*
X0057000Y0177994D02*
X0057000Y0171746D01*
X0053000Y0171746D02*
X0053000Y0189924D01*
X0050879Y0191725D02*
X0050879Y0191726D01*
X0049000Y0192250D02*
X0049000Y0171746D01*
X0043017Y0185000D02*
X0056639Y0185000D01*
X0057000Y0186604D02*
X0057000Y0189405D01*
X0057839Y0189000D02*
X0043017Y0189000D01*
X0061000Y0189700D02*
X0061000Y0189859D01*
X0063913Y0193000D02*
X0064072Y0193000D01*
X0095371Y0146749D02*
X0100523Y0146749D01*
X0100359Y0146590D01*
X0095371Y0146590D01*
X0095371Y0146749D01*
X0097000Y0146749D02*
X0097000Y0146590D01*
X0094047Y0140320D02*
X0081341Y0127533D01*
X0080659Y0126852D01*
X0080656Y0126844D01*
X0080650Y0126839D01*
X0080283Y0125943D01*
X0079913Y0125051D01*
X0079913Y0125043D01*
X0079910Y0125035D01*
X0079913Y0124068D01*
X0079913Y0091488D01*
X0080659Y0089687D01*
X0082037Y0088309D01*
X0095057Y0075290D01*
X0083867Y0075290D01*
X0084409Y0075832D01*
X0085459Y0078368D01*
X0085459Y0081113D01*
X0084409Y0083649D01*
X0077191Y0090866D01*
X0077191Y0093016D01*
X0077368Y0093193D01*
X0078038Y0094810D01*
X0078038Y0103647D01*
X0077368Y0105264D01*
X0076130Y0106502D01*
X0074513Y0107172D01*
X0068594Y0107172D01*
X0068339Y0107427D01*
X0074513Y0107427D01*
X0076130Y0108097D01*
X0077368Y0109334D01*
X0078038Y0110952D01*
X0078038Y0119789D01*
X0077368Y0121406D01*
X0076130Y0122644D01*
X0074513Y0123313D01*
X0069787Y0123313D01*
X0066955Y0126007D01*
X0066955Y0129296D01*
X0067732Y0129296D01*
X0067732Y0134858D01*
X0067732Y0134858D01*
X0067732Y0129296D01*
X0070410Y0129296D01*
X0070581Y0129330D01*
X0071145Y0128766D01*
X0072763Y0128096D01*
X0074295Y0128096D01*
X0074627Y0127958D01*
X0077372Y0127958D01*
X0077705Y0128096D01*
X0079237Y0128096D01*
X0080855Y0128766D01*
X0082092Y0130004D01*
X0082762Y0131621D01*
X0082762Y0133153D01*
X0082900Y0133486D01*
X0082900Y0136231D01*
X0082762Y0136563D01*
X0082762Y0138096D01*
X0082506Y0138713D01*
X0082506Y0140043D01*
X0082760Y0139790D01*
X0084377Y0139120D01*
X0091245Y0139120D01*
X0092862Y0139790D01*
X0093393Y0140320D01*
X0094047Y0140320D01*
X0093000Y0139927D02*
X0093000Y0139266D01*
X0090748Y0137000D02*
X0082762Y0137000D01*
X0085000Y0139120D02*
X0085000Y0131216D01*
X0086773Y0133000D02*
X0082762Y0133000D01*
X0082798Y0129000D02*
X0081089Y0129000D01*
X0081000Y0128911D02*
X0081000Y0127193D01*
X0080232Y0126984D02*
X0080232Y0112024D01*
X0080232Y0109366D01*
X0079346Y0108480D01*
X0060449Y0108480D01*
X0056512Y0104543D01*
X0057113Y0105000D02*
X0059101Y0105000D01*
X0058884Y0104476D02*
X0058884Y0102248D01*
X0059737Y0100190D01*
X0061312Y0098615D01*
X0061312Y0098615D01*
X0062545Y0097382D01*
X0062545Y0094810D01*
X0063215Y0093193D01*
X0063391Y0093016D01*
X0063391Y0086635D01*
X0064442Y0084099D01*
X0073251Y0075290D01*
X0061875Y0075290D01*
X0060185Y0075990D01*
X0057957Y0075990D01*
X0057113Y0075640D01*
X0057113Y0082576D01*
X0057705Y0082821D01*
X0058943Y0084059D01*
X0059613Y0085676D01*
X0059613Y0097426D01*
X0058943Y0099044D01*
X0057705Y0100281D01*
X0057113Y0100527D01*
X0057113Y0109559D01*
X0060579Y0113026D01*
X0062545Y0111156D01*
X0062545Y0110952D01*
X0063215Y0109334D01*
X0063587Y0108962D01*
X0063370Y0108962D01*
X0061312Y0108110D01*
X0059737Y0106534D01*
X0058884Y0104476D01*
X0059401Y0101000D02*
X0057113Y0101000D01*
X0061000Y0098927D02*
X0061000Y0075652D01*
X0057113Y0077000D02*
X0071541Y0077000D01*
X0073000Y0075541D02*
X0073000Y0075290D01*
X0069000Y0075290D02*
X0069000Y0079541D01*
X0067541Y0081000D02*
X0057113Y0081000D01*
X0059333Y0085000D02*
X0064069Y0085000D01*
X0065000Y0083541D02*
X0065000Y0075290D01*
X0065000Y0065490D02*
X0065000Y0038895D01*
X0065272Y0038756D02*
X0064407Y0039197D01*
X0063484Y0039497D01*
X0062525Y0039649D01*
X0059071Y0039649D01*
X0059071Y0033480D01*
X0059071Y0027312D01*
X0062525Y0027312D01*
X0063484Y0027464D01*
X0064407Y0027764D01*
X0065272Y0028205D01*
X0066058Y0028775D01*
X0066744Y0029462D01*
X0067315Y0030247D01*
X0067756Y0031112D01*
X0068056Y0032036D01*
X0068208Y0032995D01*
X0068208Y0033480D01*
X0059071Y0033480D01*
X0059071Y0033480D01*
X0059071Y0033480D01*
X0059071Y0027312D01*
X0055617Y0027312D01*
X0054658Y0027464D01*
X0053734Y0027764D01*
X0052869Y0028205D01*
X0052084Y0028775D01*
X0051397Y0029462D01*
X0050827Y0030247D01*
X0050386Y0031112D01*
X0050086Y0032036D01*
X0049934Y0032995D01*
X0049934Y0033480D01*
X0059071Y0033480D01*
X0059071Y0033480D01*
X0068208Y0033480D01*
X0068208Y0033966D01*
X0068056Y0034925D01*
X0067756Y0035848D01*
X0067315Y0036713D01*
X0066744Y0037499D01*
X0066058Y0038185D01*
X0065272Y0038756D01*
X0067107Y0037000D02*
X0076625Y0037000D01*
X0076417Y0036713D02*
X0075976Y0035848D01*
X0075676Y0034925D01*
X0075524Y0033966D01*
X0075524Y0033480D01*
X0075524Y0032995D01*
X0075676Y0032036D01*
X0075976Y0031112D01*
X0076417Y0030247D01*
X0076988Y0029462D01*
X0077674Y0028775D01*
X0078460Y0028205D01*
X0079325Y0027764D01*
X0080248Y0027464D01*
X0081207Y0027312D01*
X0084661Y0027312D01*
X0084661Y0033480D01*
X0075524Y0033480D01*
X0084661Y0033480D01*
X0084661Y0033480D01*
X0084661Y0033480D01*
X0084661Y0027312D01*
X0088115Y0027312D01*
X0089074Y0027464D01*
X0089998Y0027764D01*
X0090863Y0028205D01*
X0091648Y0028775D01*
X0092335Y0029462D01*
X0092906Y0030247D01*
X0093266Y0030954D01*
X0093333Y0030791D01*
X0094571Y0029553D01*
X0096188Y0028883D01*
X0097800Y0028883D01*
X0097800Y0020750D01*
X0093064Y0020750D01*
X0091804Y0022010D01*
X0089096Y0023132D01*
X0080227Y0023132D01*
X0077519Y0022010D01*
X0076259Y0020750D01*
X0067474Y0020750D01*
X0066213Y0022010D01*
X0063505Y0023132D01*
X0054637Y0023132D01*
X0051928Y0022010D01*
X0050453Y0020535D01*
X0050479Y0020597D01*
X0050479Y0028647D01*
X0049809Y0030264D01*
X0048571Y0031502D01*
X0046954Y0032172D01*
X0046089Y0032172D01*
X0046089Y0038469D01*
X0049013Y0038469D01*
X0049013Y0045469D01*
X0051413Y0045469D01*
X0051413Y0047869D01*
X0058413Y0047869D01*
X0058413Y0051984D01*
X0058290Y0052603D01*
X0058048Y0053185D01*
X0057698Y0053709D01*
X0057252Y0054155D01*
X0056728Y0054505D01*
X0056146Y0054746D01*
X0055528Y0054869D01*
X0051413Y0054869D01*
X0051413Y0047869D01*
X0049013Y0047869D01*
X0049013Y0054200D01*
X0049239Y0054746D01*
X0049239Y0055229D01*
X0056062Y0062052D01*
X0057113Y0064588D01*
X0057113Y0065140D01*
X0057957Y0064790D01*
X0060185Y0064790D01*
X0061875Y0065490D01*
X0106270Y0065490D01*
X0106981Y0063773D01*
X0108556Y0062197D01*
X0115884Y0054869D01*
X0113795Y0054869D01*
X0113177Y0054746D01*
X0112594Y0054505D01*
X0112070Y0054155D01*
X0111625Y0053709D01*
X0111274Y0053185D01*
X0111033Y0052603D01*
X0110910Y0051984D01*
X0110910Y0047869D01*
X0117910Y0047869D01*
X0117910Y0045469D01*
X0110910Y0045469D01*
X0110910Y0043828D01*
X0110537Y0043983D01*
X0103668Y0043983D01*
X0103362Y0043856D01*
X0103056Y0043983D01*
X0096188Y0043983D01*
X0094571Y0043313D01*
X0093333Y0042075D01*
X0092663Y0040458D01*
X0092663Y0037047D01*
X0092335Y0037499D01*
X0091648Y0038185D01*
X0090863Y0038756D01*
X0089998Y0039197D01*
X0089074Y0039497D01*
X0088115Y0039649D01*
X0084661Y0039649D01*
X0081207Y0039649D01*
X0080248Y0039497D01*
X0079325Y0039197D01*
X0078460Y0038756D01*
X0077674Y0038185D01*
X0076988Y0037499D01*
X0076417Y0036713D01*
X0077000Y0037511D02*
X0077000Y0065490D01*
X0073000Y0065490D02*
X0073000Y0020750D01*
X0076509Y0021000D02*
X0067224Y0021000D01*
X0069000Y0020750D02*
X0069000Y0065490D01*
X0061000Y0065127D02*
X0061000Y0039649D01*
X0059071Y0039649D02*
X0057711Y0039649D01*
X0058048Y0040154D01*
X0058290Y0040736D01*
X0058413Y0041354D01*
X0058413Y0045469D01*
X0051413Y0045469D01*
X0051413Y0038469D01*
X0052475Y0038469D01*
X0052084Y0038185D01*
X0051397Y0037499D01*
X0050827Y0036713D01*
X0050386Y0035848D01*
X0050086Y0034925D01*
X0049934Y0033966D01*
X0049934Y0033480D01*
X0059071Y0033480D01*
X0059071Y0033480D01*
X0059071Y0039649D01*
X0058342Y0041000D02*
X0092888Y0041000D01*
X0093000Y0041272D02*
X0093000Y0065490D01*
X0089000Y0065490D02*
X0089000Y0039509D01*
X0085000Y0039649D02*
X0085000Y0065490D01*
X0081000Y0065490D02*
X0081000Y0039616D01*
X0084661Y0039649D02*
X0084661Y0033480D01*
X0084661Y0033480D01*
X0084661Y0039649D01*
X0084661Y0037000D02*
X0084661Y0037000D01*
X0084661Y0033000D02*
X0084661Y0033000D01*
X0081000Y0033480D02*
X0081000Y0033480D01*
X0077450Y0029000D02*
X0066283Y0029000D01*
X0065000Y0028066D02*
X0065000Y0022513D01*
X0061000Y0023132D02*
X0061000Y0027312D01*
X0059071Y0029000D02*
X0059071Y0029000D01*
X0057000Y0027312D02*
X0057000Y0023132D01*
X0053000Y0022454D02*
X0053000Y0028138D01*
X0051859Y0029000D02*
X0050332Y0029000D01*
X0049000Y0031073D02*
X0049000Y0038469D01*
X0051035Y0037000D02*
X0046089Y0037000D01*
X0046089Y0033000D02*
X0049934Y0033000D01*
X0053000Y0033480D02*
X0053000Y0033480D01*
X0057000Y0033480D02*
X0057000Y0033480D01*
X0059071Y0033000D02*
X0059071Y0033000D01*
X0061000Y0033480D02*
X0061000Y0033480D01*
X0059071Y0037000D02*
X0059071Y0037000D01*
X0065000Y0033480D02*
X0065000Y0033480D01*
X0068208Y0033000D02*
X0075524Y0033000D01*
X0077000Y0033480D02*
X0077000Y0033480D01*
X0077000Y0029450D02*
X0077000Y0021491D01*
X0081000Y0023132D02*
X0081000Y0027345D01*
X0085000Y0027312D02*
X0085000Y0023132D01*
X0089000Y0023132D02*
X0089000Y0027452D01*
X0091873Y0029000D02*
X0095906Y0029000D01*
X0097000Y0028883D02*
X0097000Y0020750D01*
X0097800Y0021000D02*
X0092814Y0021000D01*
X0093000Y0020814D02*
X0093000Y0030432D01*
X0097800Y0025000D02*
X0050479Y0025000D01*
X0050479Y0021000D02*
X0050918Y0021000D01*
X0049212Y0018383D02*
X0048734Y0017229D01*
X0048734Y0014298D01*
X0049789Y0011750D01*
X0023280Y0011750D01*
X0016757Y0018272D01*
X0017554Y0018272D01*
X0017554Y0024247D01*
X0018304Y0024247D01*
X0018304Y0018272D01*
X0025134Y0018272D01*
X0025752Y0018395D01*
X0026335Y0018637D01*
X0026859Y0018987D01*
X0027304Y0019433D01*
X0027655Y0019957D01*
X0027896Y0020539D01*
X0027905Y0020584D01*
X0028569Y0018980D01*
X0029807Y0017742D01*
X0031424Y0017072D01*
X0046954Y0017072D01*
X0048571Y0017742D01*
X0049212Y0018383D01*
X0049000Y0018171D02*
X0049000Y0017872D01*
X0048734Y0017000D02*
X0018030Y0017000D01*
X0017000Y0018030D02*
X0017000Y0018272D01*
X0017554Y0021000D02*
X0018304Y0021000D01*
X0021000Y0018272D02*
X0021000Y0014030D01*
X0022030Y0013000D02*
X0049272Y0013000D01*
X0049000Y0013656D02*
X0049000Y0011750D01*
X0045000Y0011750D02*
X0045000Y0017072D01*
X0041000Y0017072D02*
X0041000Y0011750D01*
X0037000Y0011750D02*
X0037000Y0017072D01*
X0033000Y0017072D02*
X0033000Y0011750D01*
X0029000Y0011750D02*
X0029000Y0018549D01*
X0025000Y0018272D02*
X0025000Y0011750D01*
X0018304Y0024997D02*
X0017554Y0024997D01*
X0017554Y0030972D01*
X0013606Y0030972D01*
X0013606Y0050917D01*
X0013889Y0050754D01*
X0014670Y0050430D01*
X0015487Y0050212D01*
X0016325Y0050101D01*
X0016748Y0050101D01*
X0016748Y0056551D01*
X0016748Y0056551D01*
X0016748Y0050101D01*
X0017171Y0050101D01*
X0018009Y0050212D01*
X0018826Y0050430D01*
X0019194Y0050583D01*
X0019183Y0050555D01*
X0019060Y0049937D01*
X0019060Y0046749D01*
X0024739Y0046749D01*
X0024739Y0046590D01*
X0019060Y0046590D01*
X0019060Y0043401D01*
X0019183Y0042783D01*
X0019424Y0042201D01*
X0019774Y0041677D01*
X0020220Y0041231D01*
X0020744Y0040881D01*
X0021326Y0040640D01*
X0021945Y0040517D01*
X0024739Y0040517D01*
X0024739Y0046590D01*
X0024898Y0046590D01*
X0024898Y0040517D01*
X0026718Y0040517D01*
X0027248Y0039986D01*
X0028865Y0039317D01*
X0032289Y0039317D01*
X0032289Y0032172D01*
X0031424Y0032172D01*
X0029807Y0031502D01*
X0028569Y0030264D01*
X0027905Y0028660D01*
X0027896Y0028705D01*
X0027655Y0029287D01*
X0027304Y0029812D01*
X0026859Y0030257D01*
X0026335Y0030607D01*
X0025752Y0030849D01*
X0025134Y0030972D01*
X0018304Y0030972D01*
X0018304Y0024997D01*
X0018304Y0025000D02*
X0017554Y0025000D01*
X0017554Y0029000D02*
X0018304Y0029000D01*
X0017000Y0030972D02*
X0017000Y0050101D01*
X0019060Y0049000D02*
X0013606Y0049000D01*
X0013606Y0045000D02*
X0019060Y0045000D01*
X0021000Y0046590D02*
X0021000Y0046749D01*
X0024739Y0045000D02*
X0024898Y0045000D01*
X0024898Y0041000D02*
X0024739Y0041000D01*
X0025000Y0040517D02*
X0025000Y0030972D01*
X0027774Y0029000D02*
X0028045Y0029000D01*
X0029000Y0030695D02*
X0029000Y0039317D01*
X0032289Y0037000D02*
X0013606Y0037000D01*
X0013606Y0033000D02*
X0032289Y0033000D01*
X0021000Y0030972D02*
X0021000Y0040775D01*
X0020566Y0041000D02*
X0013606Y0041000D01*
X0016748Y0053000D02*
X0016748Y0053000D01*
X0016748Y0056551D02*
X0016748Y0056551D01*
X0023198Y0056551D01*
X0026748Y0056551D01*
X0026748Y0056551D01*
X0016748Y0056551D01*
X0016748Y0058901D01*
X0016748Y0058901D01*
X0016748Y0056551D01*
X0016748Y0056551D01*
X0017000Y0056551D02*
X0017000Y0056551D01*
X0016748Y0057000D02*
X0016748Y0057000D01*
X0021000Y0056551D02*
X0021000Y0056551D01*
X0025000Y0056551D02*
X0025000Y0056551D01*
X0049013Y0053000D02*
X0051413Y0053000D01*
X0053000Y0054869D02*
X0053000Y0058990D01*
X0051010Y0057000D02*
X0113754Y0057000D01*
X0113000Y0057754D02*
X0113000Y0054673D01*
X0111198Y0053000D02*
X0058125Y0053000D01*
X0057000Y0054324D02*
X0057000Y0064316D01*
X0057113Y0065000D02*
X0057449Y0065000D01*
X0060692Y0065000D02*
X0106473Y0065000D01*
X0105000Y0065490D02*
X0105000Y0043983D01*
X0101000Y0043983D02*
X0101000Y0065490D01*
X0097000Y0065490D02*
X0097000Y0043983D01*
X0109000Y0043983D02*
X0109000Y0061754D01*
X0109754Y0061000D02*
X0055010Y0061000D01*
X0058413Y0049000D02*
X0110910Y0049000D01*
X0113000Y0047869D02*
X0113000Y0045469D01*
X0110910Y0045000D02*
X0058413Y0045000D01*
X0057000Y0045469D02*
X0057000Y0047869D01*
X0053000Y0047869D02*
X0053000Y0045469D01*
X0051413Y0045000D02*
X0049013Y0045000D01*
X0049013Y0041000D02*
X0051413Y0041000D01*
X0051413Y0049000D02*
X0049013Y0049000D01*
X0084661Y0029000D02*
X0084661Y0029000D01*
X0107102Y0036433D02*
X0112393Y0033850D01*
X0119800Y0033850D01*
X0119800Y0024400D01*
X0108550Y0013150D01*
X0108402Y0012811D01*
X0119800Y0033850D02*
X0126492Y0033850D01*
X0126492Y0052181D01*
X0111728Y0066945D01*
X0093346Y0077000D02*
X0084893Y0077000D01*
X0085000Y0077259D02*
X0085000Y0075290D01*
X0089000Y0075290D02*
X0089000Y0081346D01*
X0089346Y0081000D02*
X0085459Y0081000D01*
X0085000Y0082221D02*
X0085000Y0085346D01*
X0085346Y0085000D02*
X0083057Y0085000D01*
X0081000Y0087057D02*
X0081000Y0089346D01*
X0081346Y0089000D02*
X0079057Y0089000D01*
X0079913Y0093000D02*
X0077191Y0093000D01*
X0078038Y0097000D02*
X0079913Y0097000D01*
X0079913Y0101000D02*
X0078038Y0101000D01*
X0077477Y0105000D02*
X0079913Y0105000D01*
X0077000Y0105632D02*
X0077000Y0108966D01*
X0077034Y0109000D02*
X0079913Y0109000D01*
X0079913Y0113000D02*
X0078038Y0113000D01*
X0078038Y0117000D02*
X0079913Y0117000D01*
X0079913Y0121000D02*
X0077536Y0121000D01*
X0077000Y0121774D02*
X0077000Y0127958D01*
X0073000Y0128096D02*
X0073000Y0123313D01*
X0069000Y0124062D02*
X0069000Y0129296D01*
X0070911Y0129000D02*
X0066955Y0129000D01*
X0067732Y0133000D02*
X0067732Y0133000D01*
X0068014Y0125000D02*
X0079910Y0125000D01*
X0089000Y0135241D02*
X0089000Y0139120D01*
X0106735Y0121000D02*
X0130327Y0121000D01*
X0130848Y0121521D02*
X0129113Y0119786D01*
X0127014Y0119786D01*
X0124451Y0118724D01*
X0123402Y0117675D01*
X0122352Y0118724D01*
X0119789Y0119786D01*
X0117014Y0119786D01*
X0114451Y0118724D01*
X0112553Y0116826D01*
X0112164Y0117216D01*
X0111428Y0117750D01*
X0110618Y0118163D01*
X0109754Y0118444D01*
X0108856Y0118586D01*
X0108402Y0118586D01*
X0108402Y0112811D01*
X0108402Y0112811D01*
X0108402Y0112811D01*
X0108402Y0118586D01*
X0107947Y0118586D01*
X0107049Y0118444D01*
X0106185Y0118163D01*
X0105375Y0117750D01*
X0104888Y0117396D01*
X0104888Y0119154D01*
X0107256Y0121521D01*
X0130848Y0121521D01*
X0129000Y0121521D02*
X0129000Y0119786D01*
X0125000Y0118952D02*
X0125000Y0121521D01*
X0121000Y0121521D02*
X0121000Y0119284D01*
X0117000Y0119780D02*
X0117000Y0121521D01*
X0113000Y0121521D02*
X0113000Y0117273D01*
X0112727Y0117000D02*
X0112379Y0117000D01*
X0109000Y0118563D02*
X0109000Y0121521D01*
X0105000Y0119265D02*
X0105000Y0117478D01*
X0108402Y0117000D02*
X0108402Y0117000D01*
X0108402Y0113000D02*
X0108402Y0113000D01*
X0113000Y0108349D02*
X0113000Y0100951D01*
X0093000Y0077346D02*
X0093000Y0075290D01*
X0070291Y0099228D02*
X0067929Y0099917D01*
X0064484Y0103362D01*
X0069000Y0107172D02*
X0069000Y0107427D01*
X0073000Y0107427D02*
X0073000Y0107172D01*
X0063549Y0109000D02*
X0057113Y0109000D01*
X0061000Y0107798D02*
X0061000Y0112625D01*
X0060606Y0113000D02*
X0060553Y0113000D01*
X0059613Y0097000D02*
X0062545Y0097000D01*
X0063391Y0093000D02*
X0059613Y0093000D01*
X0059613Y0089000D02*
X0063391Y0089000D01*
X0117000Y0047869D02*
X0117000Y0045469D01*
X0126492Y0033850D02*
X0143256Y0033850D01*
X0143256Y0011294D01*
X0146350Y0008200D01*
X0171324Y0008200D01*
X0173630Y0010506D01*
X0173630Y0024680D01*
X0177850Y0028900D01*
X0177850Y0040150D01*
X0178165Y0040567D01*
X0153550Y0041050D02*
X0153461Y0041354D01*
X0146669Y0040567D02*
X0146350Y0040150D01*
X0143650Y0037450D01*
X0143650Y0036433D01*
X0143256Y0033850D01*
X0157000Y0100951D02*
X0157000Y0105842D01*
X0161000Y0106338D02*
X0161000Y0100951D01*
X0165000Y0100951D02*
X0165000Y0108144D01*
X0168402Y0109000D02*
X0168402Y0109000D01*
X0168402Y0107036D02*
X0168402Y0112200D01*
X0168402Y0107036D01*
X0169000Y0107059D02*
X0169000Y0100951D01*
X0173000Y0100951D02*
X0173000Y0108349D01*
X0168402Y0112200D02*
X0168402Y0112200D01*
X0141607Y0140321D02*
X0141069Y0141618D01*
X0141069Y0143846D01*
X0141922Y0145904D01*
X0143497Y0147480D01*
X0145187Y0148180D01*
X0149643Y0152636D01*
X0149643Y0155485D01*
X0148803Y0154645D01*
X0146167Y0153553D01*
X0143314Y0153553D01*
X0140678Y0154645D01*
X0139740Y0155582D01*
X0138803Y0154645D01*
X0136167Y0153553D01*
X0133314Y0153553D01*
X0130678Y0154645D01*
X0129740Y0155582D01*
X0128803Y0154645D01*
X0126167Y0153553D01*
X0124950Y0153553D01*
X0124950Y0152564D01*
X0125203Y0152311D01*
X0125872Y0150694D01*
X0125872Y0142644D01*
X0125203Y0141027D01*
X0124497Y0140321D01*
X0141607Y0140321D01*
X0141000Y0140321D02*
X0141000Y0154511D01*
X0137000Y0153898D02*
X0137000Y0140321D01*
X0133000Y0140321D02*
X0133000Y0153683D01*
X0129000Y0154842D02*
X0129000Y0140321D01*
X0125872Y0145000D02*
X0141547Y0145000D01*
X0141325Y0141000D02*
X0125175Y0141000D01*
X0125000Y0140825D02*
X0125000Y0140321D01*
X0119350Y0146800D02*
X0118913Y0146669D01*
X0119350Y0146800D02*
X0119350Y0154113D01*
X0125000Y0153553D02*
X0125000Y0152514D01*
X0124950Y0153000D02*
X0149643Y0153000D01*
X0149000Y0151993D02*
X0149000Y0154842D01*
X0145000Y0153553D02*
X0145000Y0148102D01*
X0146007Y0149000D02*
X0125872Y0149000D01*
X0129000Y0183628D02*
X0129000Y0185300D01*
X0133000Y0186505D02*
X0133000Y0183628D01*
X0137000Y0183628D02*
X0137000Y0191495D01*
X0138505Y0193000D02*
X0160270Y0193000D01*
X0161000Y0194462D02*
X0161000Y0242269D01*
X0158166Y0241000D02*
X0183324Y0241000D01*
X0183324Y0245000D02*
X0165110Y0245000D01*
X0165000Y0244733D02*
X0165000Y0195539D01*
X0166275Y0193000D02*
X0166434Y0193000D01*
X0165000Y0189859D02*
X0165000Y0189700D01*
X0161000Y0189700D02*
X0161000Y0189859D01*
X0160202Y0189000D02*
X0134750Y0189000D01*
X0144050Y0201000D02*
X0171639Y0201000D01*
X0171807Y0213000D02*
X0150280Y0213000D01*
X0150274Y0213017D02*
X0149848Y0213854D01*
X0149295Y0214615D01*
X0148630Y0215279D01*
X0147870Y0215832D01*
X0147032Y0216259D01*
X0146139Y0216549D01*
X0145210Y0216696D01*
X0144740Y0216696D01*
X0144740Y0210725D01*
X0144740Y0210725D01*
X0144740Y0210724D02*
X0150712Y0210724D01*
X0150712Y0211194D01*
X0150565Y0212123D01*
X0150274Y0213017D01*
X0149000Y0214910D02*
X0149000Y0222360D01*
X0148402Y0221000D02*
X0194139Y0221000D01*
X0191039Y0216696D02*
X0191039Y0210725D01*
X0191039Y0216696D01*
X0191039Y0213000D02*
X0191039Y0213000D01*
X0191039Y0210725D02*
X0191039Y0210725D01*
X0191039Y0209000D02*
X0191039Y0209000D01*
X0191039Y0205000D02*
X0191039Y0205000D01*
X0192746Y0205000D02*
X0196622Y0205000D01*
X0193000Y0205082D02*
X0193000Y0193589D01*
X0198090Y0181000D02*
X0199005Y0181000D01*
X0201000Y0179745D02*
X0201000Y0167896D01*
X0197000Y0166814D02*
X0197000Y0179557D01*
X0193000Y0178490D02*
X0193000Y0167675D01*
X0189000Y0167642D02*
X0189000Y0175903D01*
X0190082Y0177000D02*
X0241013Y0177000D01*
X0241013Y0173000D02*
X0184215Y0173000D01*
X0185000Y0173325D02*
X0185000Y0166846D01*
X0181000Y0167896D02*
X0181000Y0171643D01*
X0178357Y0169000D02*
X0241013Y0169000D01*
X0241000Y0167896D02*
X0241000Y0203553D01*
X0237000Y0204635D02*
X0237000Y0166814D01*
X0233000Y0167675D02*
X0233000Y0203774D01*
X0235457Y0205000D02*
X0236622Y0205000D01*
X0229000Y0203807D02*
X0229000Y0167642D01*
X0225000Y0166846D02*
X0225000Y0204602D01*
X0225457Y0205000D02*
X0226622Y0205000D01*
X0221000Y0203553D02*
X0221000Y0167896D01*
X0216039Y0155582D02*
X0216977Y0154645D01*
X0218005Y0154219D01*
X0214298Y0154219D01*
X0212681Y0153549D01*
X0211443Y0152311D01*
X0210826Y0150821D01*
X0210061Y0150504D01*
X0207350Y0147792D01*
X0207350Y0150134D01*
X0207227Y0150752D01*
X0206985Y0151335D01*
X0206635Y0151859D01*
X0206189Y0152304D01*
X0205665Y0152655D01*
X0205083Y0152896D01*
X0204465Y0153019D01*
X0201670Y0153019D01*
X0201670Y0146749D01*
X0201511Y0146749D01*
X0201511Y0153019D01*
X0199692Y0153019D01*
X0199162Y0153549D01*
X0198950Y0153637D01*
X0198950Y0153827D01*
X0199613Y0153553D01*
X0202466Y0153553D01*
X0205102Y0154645D01*
X0206039Y0155582D01*
X0206977Y0154645D01*
X0209613Y0153553D01*
X0212466Y0153553D01*
X0215102Y0154645D01*
X0216039Y0155582D01*
X0217000Y0154635D02*
X0217000Y0154219D01*
X0213000Y0153774D02*
X0213000Y0153681D01*
X0212132Y0153000D02*
X0204560Y0153000D01*
X0205000Y0152912D02*
X0205000Y0154602D01*
X0201670Y0153000D02*
X0201511Y0153000D01*
X0201000Y0153019D02*
X0201000Y0153553D01*
X0201511Y0149000D02*
X0201670Y0149000D01*
X0207350Y0149000D02*
X0208557Y0149000D01*
X0209000Y0149443D02*
X0209000Y0153807D01*
X0225550Y0154113D02*
X0225550Y0146800D01*
X0225213Y0146669D01*
X0213000Y0185665D02*
X0213000Y0186414D01*
X0213000Y0192389D02*
X0213000Y0203774D01*
X0215457Y0205000D02*
X0216622Y0205000D01*
X0217000Y0204635D02*
X0217000Y0191948D01*
X0177000Y0167643D02*
X0177000Y0166814D01*
X0175173Y0165000D02*
X0172576Y0165000D01*
X0173000Y0165176D02*
X0173000Y0157081D01*
X0173868Y0161000D02*
X0171620Y0161000D01*
X0144740Y0205000D02*
X0144740Y0205000D01*
X0144740Y0209000D02*
X0144740Y0209000D01*
X0145000Y0210724D02*
X0145000Y0210724D01*
X0144740Y0213000D02*
X0144740Y0213000D01*
X0149000Y0210724D02*
X0149000Y0210724D01*
X0145000Y0216696D02*
X0145000Y0217598D01*
X0144402Y0217000D02*
X0174021Y0217000D01*
X0173000Y0215879D02*
X0173000Y0256443D01*
X0177000Y0256443D02*
X0177000Y0219226D01*
X0184411Y0249000D02*
X0165439Y0249000D01*
X0161000Y0255794D02*
X0161000Y0256443D01*
X0157000Y0256443D02*
X0157000Y0255794D01*
X0153000Y0255794D02*
X0153000Y0256443D01*
X0150400Y0249400D02*
X0150409Y0249031D01*
X0149031Y0249031D01*
X0144307Y0254150D01*
X0134661Y0254150D01*
X0130724Y0249031D01*
X0131050Y0249400D01*
X0135100Y0253450D01*
X0149950Y0248050D02*
X0150409Y0249031D01*
X0117000Y0202874D02*
X0117000Y0183628D01*
X0229070Y0085000D02*
X0229229Y0085000D01*
X0233000Y0083757D02*
X0233000Y0083598D01*
X0234909Y0085000D02*
X0301864Y0085000D01*
X0301000Y0085358D02*
X0301000Y0074827D01*
X0302253Y0073000D02*
X0305900Y0073000D01*
X0305900Y0069000D02*
X0302413Y0069000D01*
X0302000Y0065000D02*
X0305900Y0065000D01*
X0305900Y0061000D02*
X0302000Y0061000D01*
X0302000Y0057000D02*
X0305900Y0057000D01*
X0305900Y0053000D02*
X0302000Y0053000D01*
X0302000Y0049000D02*
X0305900Y0049000D01*
X0305900Y0045000D02*
X0302000Y0045000D01*
X0302000Y0041000D02*
X0305900Y0041000D01*
X0292200Y0049000D02*
X0291672Y0049000D01*
X0289000Y0050042D02*
X0289000Y0098462D01*
X0285000Y0098462D02*
X0285000Y0050324D01*
X0285009Y0049000D02*
X0287409Y0049000D01*
X0287409Y0045000D02*
X0285009Y0045000D01*
X0285009Y0041000D02*
X0287409Y0041000D01*
X0285000Y0040289D02*
X0285000Y0037889D01*
X0281000Y0037889D02*
X0281000Y0040289D01*
X0277000Y0040289D02*
X0277000Y0037889D01*
X0275095Y0037000D02*
X0269947Y0037000D01*
X0269000Y0033906D02*
X0269000Y0025580D01*
X0268698Y0025580D02*
X0268698Y0023180D01*
X0258661Y0023180D01*
X0258740Y0022484D01*
X0259022Y0021246D01*
X0259441Y0020048D01*
X0259568Y0019786D01*
X0257014Y0019786D01*
X0254451Y0018724D01*
X0253402Y0017675D01*
X0252950Y0018126D01*
X0252950Y0027231D01*
X0255715Y0026490D01*
X0258789Y0026490D01*
X0258740Y0026275D01*
X0258661Y0025580D01*
X0268698Y0025580D01*
X0268698Y0025000D02*
X0252950Y0025000D01*
X0253000Y0027217D02*
X0253000Y0018076D01*
X0252950Y0021000D02*
X0259108Y0021000D01*
X0257000Y0019780D02*
X0257000Y0026490D01*
X0261000Y0025580D02*
X0261000Y0023180D01*
X0265000Y0023180D02*
X0265000Y0025580D01*
X0268698Y0029000D02*
X0271098Y0029000D01*
X0271098Y0025580D02*
X0279200Y0025580D01*
X0276800Y0023180D01*
X0271098Y0023180D01*
X0271098Y0025580D01*
X0271098Y0025000D02*
X0278620Y0025000D01*
X0277000Y0025580D02*
X0277000Y0023380D01*
X0273000Y0023180D02*
X0273000Y0025580D01*
X0271098Y0033000D02*
X0268698Y0033000D01*
X0273000Y0035262D02*
X0273000Y0065200D01*
X0274070Y0065000D02*
X0269369Y0065000D01*
X0269000Y0064847D02*
X0269000Y0044472D01*
X0268695Y0045000D02*
X0276577Y0045000D01*
X0277000Y0045665D02*
X0277000Y0065318D01*
X0275489Y0065000D02*
X0292200Y0065000D01*
X0291787Y0069000D02*
X0281061Y0069000D01*
X0281000Y0068853D02*
X0281000Y0049123D01*
X0280745Y0049000D02*
X0266305Y0049000D01*
X0266305Y0053000D02*
X0292200Y0053000D01*
X0292200Y0057000D02*
X0266305Y0057000D01*
X0266305Y0061000D02*
X0292200Y0061000D01*
X0291947Y0073000D02*
X0281590Y0073000D01*
X0281000Y0071866D02*
X0281000Y0071866D01*
X0281000Y0074879D02*
X0281000Y0098462D01*
X0277000Y0098462D02*
X0277000Y0078415D01*
X0274780Y0077000D02*
X0274779Y0077000D01*
X0273000Y0078533D02*
X0273000Y0098462D01*
X0269000Y0098462D02*
X0269000Y0078885D01*
X0265000Y0079966D02*
X0265000Y0098462D01*
X0284465Y0091551D02*
X0288402Y0091551D01*
X0293000Y0098462D02*
X0293000Y0074627D01*
X0297000Y0076407D02*
X0297000Y0089987D01*
X0297409Y0089000D02*
X0233864Y0089000D01*
X0223461Y0051959D02*
X0243150Y0032270D01*
X0243150Y0017423D01*
X0242553Y0016826D01*
X0242164Y0017216D01*
X0241428Y0017750D01*
X0240618Y0018163D01*
X0239754Y0018444D01*
X0238856Y0018586D01*
X0238402Y0018586D01*
X0238402Y0012811D01*
X0238402Y0012811D01*
X0238402Y0018586D01*
X0237947Y0018586D01*
X0237049Y0018444D01*
X0236185Y0018163D01*
X0235375Y0017750D01*
X0234640Y0017216D01*
X0234250Y0016826D01*
X0232352Y0018724D01*
X0229789Y0019786D01*
X0227014Y0019786D01*
X0224451Y0018724D01*
X0223689Y0017963D01*
X0223617Y0050609D01*
X0223617Y0051581D01*
X0223614Y0051586D01*
X0223614Y0051592D01*
X0223461Y0051959D01*
X0225000Y0050420D02*
X0225000Y0018952D01*
X0223683Y0021000D02*
X0243150Y0021000D01*
X0241000Y0017968D02*
X0241000Y0034420D01*
X0242420Y0033000D02*
X0223656Y0033000D01*
X0223665Y0029000D02*
X0243150Y0029000D01*
X0243150Y0025000D02*
X0223674Y0025000D01*
X0229000Y0019786D02*
X0229000Y0046420D01*
X0230420Y0045000D02*
X0223629Y0045000D01*
X0223638Y0041000D02*
X0234420Y0041000D01*
X0233000Y0042420D02*
X0233000Y0018076D01*
X0234076Y0017000D02*
X0234424Y0017000D01*
X0237000Y0018428D02*
X0237000Y0038420D01*
X0238420Y0037000D02*
X0223647Y0037000D01*
X0223620Y0049000D02*
X0226420Y0049000D01*
X0238402Y0017000D02*
X0238402Y0017000D01*
X0242379Y0017000D02*
X0242727Y0017000D01*
X0238402Y0013000D02*
X0238402Y0013000D01*
X0270049Y0041000D02*
X0275054Y0041000D01*
X0274779Y0065000D02*
X0274780Y0065000D01*
X0274779Y0069000D02*
X0274780Y0069000D01*
X0277000Y0071866D02*
X0277000Y0071866D01*
X0274780Y0073000D02*
X0274779Y0073000D01*
X0279404Y0077000D02*
X0305900Y0077000D01*
D36*
X0099917Y0146669D02*
X0080232Y0126984D01*
D37*
X0080232Y0112024D03*
X0064484Y0103362D03*
X0056512Y0104543D03*
X0037220Y0106906D03*
X0038008Y0086039D03*
X0059071Y0070390D03*
X0034071Y0058480D03*
X0011433Y0099819D03*
X0024622Y0143224D03*
X0041551Y0154543D03*
X0030700Y0177852D03*
X0055626Y0194898D03*
X0041050Y0205300D03*
X0036550Y0208450D03*
X0039386Y0210646D03*
X0011630Y0223835D03*
X0099425Y0146669D03*
X0119350Y0154113D03*
X0124622Y0146669D03*
X0139976Y0152575D03*
X0146669Y0142732D03*
X0172000Y0148713D03*
X0137614Y0184465D03*
X0129475Y0190900D03*
X0129813Y0199337D03*
X0110055Y0200213D03*
X0161236Y0231709D03*
X0144307Y0254150D03*
X0225550Y0154113D03*
X0213344Y0133356D03*
X0243269Y0120925D03*
X0256906Y0087614D03*
X0288402Y0091551D03*
X0297100Y0070807D03*
X0214863Y0064900D03*
X0208480Y0069110D03*
X0198638Y0065173D03*
X0170650Y0048700D03*
X0161433Y0061531D03*
X0143126Y0058480D03*
X0157094Y0037450D03*
X0111728Y0066945D03*
X0087614Y0044307D03*
X0182102Y0103362D03*
X0283283Y0200213D03*
X0263598Y0212024D03*
X0251787Y0247457D03*
X0302969Y0235646D03*
D38*
X0270665Y0241768D02*
X0270665Y0207328D01*
X0245913Y0182576D01*
X0245913Y0155576D01*
X0217450Y0127113D01*
X0199450Y0127113D01*
X0174382Y0152181D01*
X0171079Y0152181D01*
X0169300Y0150402D01*
X0169300Y0138869D01*
X0152706Y0122275D01*
X0138532Y0122275D01*
X0129307Y0113050D01*
X0128800Y0113050D01*
X0128402Y0112811D01*
X0123287Y0107763D02*
X0118450Y0112600D01*
X0118402Y0112811D01*
X0123287Y0107763D02*
X0149950Y0107763D01*
X0153437Y0111250D01*
X0153437Y0114175D01*
X0156363Y0117100D01*
X0190000Y0117100D01*
X0193487Y0113613D01*
X0193487Y0111813D01*
X0196750Y0108550D01*
X0241525Y0108550D01*
X0243437Y0110463D01*
X0243437Y0113781D01*
X0302050Y0172000D01*
X0303850Y0172000D01*
X0304150Y0172063D01*
X0304300Y0172000D01*
X0308800Y0167500D01*
X0308800Y0120250D01*
X0304300Y0115750D01*
X0304300Y0112150D01*
X0304150Y0112063D01*
X0300213Y0103362D02*
X0301512Y0102063D01*
X0304150Y0102063D01*
X0303850Y0102250D01*
X0300213Y0103362D02*
X0189282Y0103362D01*
X0180044Y0112600D01*
X0178750Y0112600D01*
X0178402Y0112811D01*
X0188402Y0112811D02*
X0188650Y0112600D01*
X0188819Y0112600D01*
X0194669Y0106750D01*
X0278200Y0106750D01*
X0283713Y0112263D01*
X0283713Y0113613D01*
X0302050Y0131950D01*
X0303850Y0131950D01*
X0304150Y0132063D01*
X0302050Y0132400D01*
X0299800Y0134650D01*
X0299800Y0154000D01*
X0303850Y0158050D01*
X0303850Y0161650D01*
X0304150Y0162063D01*
X0303850Y0181900D02*
X0304150Y0182063D01*
X0303850Y0181900D02*
X0243269Y0120925D01*
X0217450Y0146350D02*
X0217732Y0146669D01*
X0217450Y0146350D02*
X0212837Y0146350D01*
X0206594Y0140106D01*
X0213344Y0133356D01*
X0206594Y0140106D02*
X0206369Y0139881D01*
X0190563Y0139881D01*
X0181450Y0148994D01*
X0181450Y0160300D01*
X0181039Y0160724D01*
X0191039Y0160724D02*
X0191350Y0160300D01*
X0194050Y0157600D01*
X0194050Y0146800D01*
X0194110Y0146669D01*
X0172000Y0148713D02*
X0172000Y0136450D01*
X0148600Y0113050D01*
X0148402Y0112811D01*
X0146669Y0142732D02*
X0154543Y0150606D01*
X0154543Y0162417D01*
X0150114Y0166846D01*
X0044799Y0166846D01*
X0041551Y0154543D02*
X0041551Y0069110D01*
X0034071Y0061630D01*
X0034071Y0058480D01*
X0059071Y0070390D02*
X0116157Y0070390D01*
X0132398Y0054150D01*
X0138795Y0054150D01*
X0138795Y0045783D01*
X0138402Y0044307D01*
X0138700Y0044650D01*
X0138700Y0045550D01*
X0142339Y0050213D02*
X0142339Y0039976D01*
X0143520Y0037220D02*
X0143520Y0036563D01*
X0143650Y0036433D01*
X0149950Y0042850D02*
X0149950Y0014500D01*
X0148600Y0013150D01*
X0148402Y0012811D01*
X0158402Y0012811D02*
X0158500Y0013150D01*
X0167950Y0022600D01*
X0167950Y0041050D01*
X0172000Y0041050D01*
X0177850Y0046900D01*
X0177850Y0047800D01*
X0178165Y0048047D01*
X0173244Y0047260D02*
X0173244Y0049720D01*
X0161433Y0061531D01*
X0160300Y0052300D02*
X0167050Y0052300D01*
X0170650Y0048700D01*
X0173244Y0047260D02*
X0170291Y0044307D01*
X0169898Y0044307D01*
X0169799Y0044307D01*
X0166354Y0047752D01*
X0166354Y0050213D01*
X0161433Y0050213D01*
X0160941Y0049720D01*
X0160941Y0047752D01*
X0160449Y0047260D01*
X0160055Y0047260D01*
X0157150Y0047350D02*
X0156906Y0047260D01*
X0157150Y0047350D02*
X0157150Y0049150D01*
X0160300Y0052300D01*
X0163500Y0047260D02*
X0163900Y0046900D01*
X0163900Y0046731D01*
X0166600Y0044031D01*
X0166600Y0042400D01*
X0167950Y0041050D01*
X0163500Y0041354D02*
X0163500Y0043224D01*
X0162417Y0044307D01*
X0156512Y0044307D01*
X0156906Y0043913D01*
X0156906Y0041354D01*
X0156512Y0044307D02*
X0151394Y0044307D01*
X0150213Y0045488D01*
X0150213Y0051394D01*
X0149425Y0052181D01*
X0144307Y0052181D01*
X0142339Y0050213D01*
X0146669Y0048047D02*
X0146800Y0047800D01*
X0146800Y0046000D01*
X0149950Y0042850D01*
X0153067Y0047260D02*
X0153461Y0047260D01*
X0153067Y0047260D02*
X0152083Y0048244D01*
X0152083Y0052181D01*
X0150114Y0054150D01*
X0138795Y0054150D01*
X0143126Y0058480D02*
X0152181Y0067535D01*
X0175016Y0067535D01*
X0188402Y0054150D01*
X0188402Y0012811D01*
X0198402Y0012811D02*
X0198550Y0013150D01*
X0198550Y0065085D01*
X0198638Y0065173D01*
X0208450Y0069080D02*
X0208480Y0069110D01*
X0208450Y0069080D02*
X0208450Y0013150D01*
X0208402Y0012811D01*
X0218402Y0012811D02*
X0218800Y0013150D01*
X0218717Y0050606D01*
X0214863Y0054460D01*
X0214863Y0064900D01*
X0221500Y0065800D02*
X0221500Y0060850D01*
X0248050Y0034300D01*
X0248050Y0013150D01*
X0248402Y0012811D01*
X0266950Y0005500D02*
X0138081Y0005500D01*
X0133187Y0010394D01*
X0133187Y0014106D01*
X0130150Y0016750D01*
X0122950Y0016750D01*
X0118900Y0012700D01*
X0118402Y0012811D01*
X0118000Y0012700D01*
X0115131Y0012700D01*
X0111081Y0008650D01*
X0105569Y0008650D01*
X0102700Y0011519D01*
X0102700Y0015850D01*
X0102700Y0031637D01*
X0099622Y0036433D01*
X0102700Y0015850D02*
X0084700Y0015850D01*
X0084661Y0015764D01*
X0084250Y0015850D01*
X0059500Y0015850D01*
X0059071Y0015764D01*
X0021250Y0006850D02*
X0122500Y0006850D01*
X0128350Y0012700D01*
X0128402Y0012811D01*
X0104276Y0073000D02*
X0084813Y0092463D01*
X0084813Y0124076D01*
X0101787Y0141157D01*
X0107087Y0146276D01*
X0107087Y0146800D01*
X0107087Y0149637D01*
X0107085Y0149663D01*
X0107080Y0149688D01*
X0107071Y0149712D01*
X0107058Y0149735D01*
X0107043Y0149756D01*
X0107025Y0149774D01*
X0107004Y0149789D01*
X0106981Y0149802D01*
X0106957Y0149811D01*
X0106932Y0149816D01*
X0106906Y0149818D01*
X0106906Y0149819D02*
X0103149Y0153494D01*
X0094037Y0153494D01*
X0090381Y0157150D01*
X0090381Y0162100D01*
X0087681Y0164800D01*
X0078850Y0164800D01*
X0074800Y0160750D01*
X0074740Y0160724D01*
X0084740Y0160724D02*
X0085150Y0160300D01*
X0087400Y0158050D01*
X0087400Y0146800D01*
X0087811Y0146669D01*
X0095291Y0146669D02*
X0099425Y0146669D01*
X0099917Y0146669D01*
X0107087Y0146800D02*
X0111250Y0146800D01*
X0111433Y0146669D01*
X0124622Y0146669D02*
X0134071Y0146669D01*
X0139976Y0152575D01*
X0124740Y0160724D02*
X0124300Y0160750D01*
X0114850Y0160750D01*
X0114740Y0160724D01*
X0111236Y0184465D02*
X0109661Y0186039D01*
X0111236Y0184465D02*
X0137614Y0184465D01*
X0129475Y0190900D02*
X0139150Y0200575D01*
X0139150Y0218678D01*
X0144307Y0223835D01*
X0144307Y0230331D01*
X0141157Y0230331D02*
X0141157Y0232496D01*
X0140370Y0233283D01*
X0133677Y0233283D01*
X0119898Y0219504D01*
X0119898Y0206906D01*
X0127466Y0199337D01*
X0129813Y0199337D01*
X0141157Y0236236D02*
X0141157Y0242339D01*
X0138992Y0244504D01*
X0138992Y0249031D01*
X0138700Y0248950D01*
X0144307Y0239583D02*
X0144307Y0236236D01*
X0144307Y0239583D02*
X0149031Y0244307D01*
X0154543Y0244307D01*
X0158500Y0248264D01*
X0158500Y0248950D01*
X0158677Y0249031D01*
X0221050Y0160750D02*
X0221039Y0160724D01*
X0221050Y0160750D02*
X0230950Y0160750D01*
X0231039Y0160724D01*
X0247037Y0153100D02*
X0255250Y0153100D01*
X0303850Y0201700D01*
X0304150Y0202063D01*
X0270665Y0241768D02*
X0270528Y0241906D01*
X0247037Y0153100D02*
X0214861Y0120924D01*
X0207538Y0120924D01*
X0205724Y0119110D01*
X0198550Y0113050D01*
X0198402Y0112811D01*
X0214300Y0073000D02*
X0104276Y0073000D01*
X0021250Y0006850D02*
X0008706Y0019394D01*
X0008706Y0203556D01*
X0010450Y0205300D01*
X0020350Y0205300D01*
X0020685Y0205528D01*
X0020800Y0205750D01*
X0023050Y0208000D01*
X0028900Y0208000D01*
X0030700Y0206200D01*
X0030700Y0204850D01*
X0030921Y0204740D01*
X0030921Y0201787D02*
X0030921Y0198835D01*
X0030921Y0201787D02*
X0036433Y0201787D01*
X0037516Y0200705D01*
X0037516Y0204740D02*
X0037900Y0204850D01*
X0037900Y0205750D01*
X0040106Y0207956D01*
X0039386Y0208677D01*
X0039386Y0210646D01*
X0040150Y0208000D02*
X0049600Y0208000D01*
X0051850Y0205750D01*
X0052181Y0205528D01*
X0044200Y0202150D02*
X0043913Y0201787D01*
X0044200Y0202150D02*
X0041050Y0205300D01*
X0040106Y0207956D02*
X0040150Y0208000D01*
X0036550Y0208450D02*
X0034300Y0206200D01*
X0034300Y0204850D01*
X0034071Y0204740D01*
X0030921Y0201787D02*
X0024937Y0201787D01*
X0021981Y0197650D01*
X0022555Y0201787D02*
X0012417Y0201787D01*
X0012319Y0201295D01*
X0011335Y0200311D01*
X0011335Y0132398D01*
X0016748Y0126984D01*
X0016748Y0126551D01*
X0022555Y0201787D02*
X0024130Y0203756D01*
X0026098Y0204740D01*
X0027476Y0204740D01*
X0214300Y0073000D02*
X0221500Y0065800D01*
X0272350Y0012250D02*
X0272350Y0010900D01*
X0266950Y0005500D01*
X0272350Y0012250D02*
X0276850Y0016750D01*
X0277300Y0016750D01*
X0297100Y0036550D01*
X0297100Y0070807D01*
D39*
X0078559Y0079740D03*
D40*
X0095488Y0099425D02*
X0103362Y0091551D01*
X0119110Y0091551D01*
X0179346Y0091551D01*
X0178165Y0090370D01*
X0178165Y0079740D01*
X0217535Y0079740D01*
X0233283Y0063992D01*
X0256906Y0063992D01*
X0256906Y0040370D01*
X0256906Y0063992D02*
X0257387Y0064473D01*
X0162220Y0142535D02*
X0150606Y0130921D01*
X0103362Y0130921D01*
X0095488Y0123047D01*
X0095488Y0099425D01*
X0162220Y0142535D02*
X0162220Y0174228D01*
X0166354Y0174228D01*
X0170291Y0174228D01*
X0178362Y0182299D01*
X0182102Y0182299D01*
X0181039Y0183362D02*
X0181039Y0210724D01*
X0162220Y0174228D02*
X0087614Y0174228D01*
X0080921Y0180921D01*
X0075803Y0182299D02*
X0074740Y0183362D01*
X0074740Y0210724D01*
D41*
X0080921Y0186039D02*
X0077181Y0182299D01*
X0075803Y0182299D01*
X0063992Y0182299D01*
X0080921Y0180921D02*
X0080921Y0186039D01*
X0181039Y0183362D02*
X0182102Y0182299D01*
X0183480Y0182299D01*
X0187220Y0186039D01*
D42*
X0221669Y0083677D02*
X0221500Y0083350D01*
X0221050Y0082900D01*
X0217535Y0079740D01*
D43*
X0220685Y0241866D02*
X0220724Y0241906D01*
M02*
