G75*
%MOIN*%
%OFA0B0*%
%FSLAX25Y25*%
%IPPOS*%
%LPD*%
%AMOC8*
5,1,8,0,0,1.08239X$1,22.5*
%
%ADD10C,0.00000*%
%ADD11C,0.01500*%
%ADD12C,0.06400*%
%ADD13R,0.06400X0.06400*%
%ADD14R,0.05550X0.05550*%
%ADD15C,0.05550*%
%ADD16C,0.07800*%
%ADD17C,0.05943*%
%ADD18R,0.05400X0.02900*%
%ADD19C,0.16998*%
%ADD20C,0.16600*%
%ADD21C,0.06337*%
%ADD22C,0.06400*%
%ADD23OC8,0.06400*%
D10*
X0001000Y0004937D02*
X0001000Y0256906D01*
X0004937Y0260843D01*
X0315961Y0260843D01*
X0320409Y0256906D01*
X0320409Y0004937D01*
X0315961Y0001000D01*
X0004937Y0001000D01*
X0001000Y0004937D01*
D11*
X0250963Y0071752D02*
X0256634Y0071752D01*
X0253798Y0074587D02*
X0253798Y0068916D01*
D12*
X0304150Y0092063D03*
X0304150Y0102063D03*
X0304150Y0112063D03*
X0304150Y0122063D03*
X0304150Y0132063D03*
X0304150Y0142063D03*
X0304150Y0152063D03*
X0304150Y0162063D03*
X0304150Y0172063D03*
X0304150Y0182063D03*
X0304150Y0192063D03*
X0304150Y0202063D03*
X0304150Y0212063D03*
X0016039Y0172063D03*
X0016039Y0162063D03*
X0016039Y0152063D03*
X0016039Y0142063D03*
D13*
X0304150Y0222063D03*
D14*
X0288402Y0008874D03*
D15*
X0278402Y0008874D03*
X0268402Y0008874D03*
X0258402Y0008874D03*
X0248402Y0008874D03*
X0238402Y0008874D03*
X0228402Y0008874D03*
X0218402Y0008874D03*
X0208402Y0008874D03*
X0198402Y0008874D03*
X0188402Y0008874D03*
X0178402Y0008874D03*
X0168402Y0008874D03*
X0158402Y0008874D03*
X0148402Y0008874D03*
X0138402Y0008874D03*
X0128402Y0008874D03*
X0118402Y0008874D03*
X0108402Y0008874D03*
X0108402Y0108874D03*
X0118402Y0108874D03*
X0128402Y0108874D03*
X0138402Y0108874D03*
X0148402Y0108874D03*
X0158402Y0108874D03*
X0168402Y0108874D03*
X0178402Y0108874D03*
X0188402Y0108874D03*
X0198402Y0108874D03*
X0208402Y0108874D03*
X0218402Y0108874D03*
X0228402Y0108874D03*
X0238402Y0108874D03*
X0248402Y0108874D03*
X0258402Y0108874D03*
X0268402Y0108874D03*
X0278402Y0108874D03*
X0288402Y0108874D03*
D16*
X0290213Y0071866D03*
X0300213Y0071866D03*
X0274780Y0071866D03*
X0264780Y0071866D03*
X0235409Y0063992D03*
X0225409Y0063992D03*
D17*
X0223165Y0160724D03*
X0213165Y0160724D03*
X0203165Y0160724D03*
X0193165Y0160724D03*
X0183165Y0160724D03*
X0173165Y0160724D03*
X0173165Y0210724D03*
X0183165Y0210724D03*
X0193165Y0210724D03*
X0203165Y0210724D03*
X0213165Y0210724D03*
X0223165Y0210724D03*
X0233165Y0210724D03*
X0243165Y0210724D03*
X0243165Y0160724D03*
X0233165Y0160724D03*
X0109307Y0160724D03*
X0099307Y0160724D03*
X0089307Y0160724D03*
X0079307Y0160724D03*
X0069307Y0160724D03*
X0059307Y0160724D03*
X0049307Y0160724D03*
X0039307Y0160724D03*
X0039307Y0210724D03*
X0049307Y0210724D03*
X0059307Y0210724D03*
X0069307Y0210724D03*
X0079307Y0210724D03*
X0089307Y0210724D03*
X0099307Y0210724D03*
X0109307Y0210724D03*
D18*
X0075803Y0172063D03*
X0075803Y0168520D03*
X0063992Y0168291D03*
X0063992Y0172291D03*
X0052181Y0172291D03*
X0052181Y0168291D03*
X0186039Y0168291D03*
X0186039Y0172291D03*
X0197850Y0172291D03*
X0197850Y0168291D03*
X0209661Y0168520D03*
X0209661Y0172063D03*
D19*
X0257387Y0039189D03*
D20*
X0269898Y0024380D03*
X0286209Y0039089D03*
D21*
X0087630Y0033480D02*
X0081693Y0033480D01*
X0081693Y0015764D02*
X0087630Y0015764D01*
X0062039Y0015764D02*
X0056102Y0015764D01*
X0056102Y0033480D02*
X0062039Y0033480D01*
D22*
X0043559Y0238906D02*
X0043559Y0244906D01*
X0033559Y0244906D02*
X0033559Y0238906D01*
X0023559Y0238906D02*
X0023559Y0244906D01*
X0013559Y0244906D02*
X0013559Y0238906D01*
X0190724Y0238906D02*
X0190724Y0244906D01*
X0200724Y0244906D02*
X0200724Y0238906D01*
X0210724Y0238906D02*
X0210724Y0244906D01*
X0220724Y0244906D02*
X0220724Y0238906D01*
X0270528Y0238906D02*
X0270528Y0244906D01*
X0280528Y0244906D02*
X0280528Y0238906D01*
X0290528Y0238906D02*
X0290528Y0244906D01*
D23*
X0029622Y0120488D03*
X0029622Y0110488D03*
X0029622Y0100488D03*
X0029622Y0090488D03*
X0029622Y0080488D03*
X0019622Y0080488D03*
X0019622Y0090488D03*
X0019622Y0100488D03*
X0019622Y0110488D03*
X0019622Y0120488D03*
X0019622Y0070488D03*
X0029622Y0070488D03*
M02*
