G75*
%MOIN*%
%OFA0B0*%
%FSLAX25Y25*%
%IPPOS*%
%LPD*%
%AMOC8*
5,1,8,0,0,1.08239X$1,22.5*
%
%ADD10C,0.00000*%
%ADD11C,0.06000*%
%ADD12R,0.06000X0.06000*%
%ADD13R,0.05150X0.05150*%
%ADD14C,0.05150*%
%ADD15C,0.05543*%
%ADD16R,0.05000X0.02500*%
%ADD17C,0.00800*%
%ADD18C,0.16598*%
%ADD19C,0.16200*%
%ADD20C,0.07400*%
%ADD21C,0.05937*%
%ADD22C,0.06000*%
%ADD23R,0.06500X0.06500*%
%ADD24C,0.06500*%
%ADD25C,0.01200*%
%ADD26C,0.03200*%
%ADD27C,0.02400*%
%ADD28C,0.02400*%
%ADD29C,0.01000*%
%ADD30C,0.05000*%
%ADD31OC8,0.02400*%
%ADD32C,0.01600*%
%ADD33C,0.04000*%
D10*
X0001000Y0008874D02*
X0001000Y0252969D01*
X0008874Y0260843D01*
X0312024Y0260843D01*
X0320409Y0252969D01*
X0320409Y0008874D01*
X0312024Y0001000D01*
X0008874Y0001000D01*
X0001000Y0008874D01*
D11*
X0016039Y0142063D03*
X0016039Y0152063D03*
X0016039Y0162063D03*
X0016039Y0172063D03*
X0304150Y0172063D03*
X0304150Y0182063D03*
X0304150Y0192063D03*
X0304150Y0202063D03*
X0304150Y0212063D03*
X0304150Y0162063D03*
X0304150Y0152063D03*
X0304150Y0142063D03*
X0304150Y0132063D03*
X0304150Y0122063D03*
X0304150Y0112063D03*
X0304150Y0102063D03*
X0304150Y0092063D03*
D12*
X0304150Y0222063D03*
D13*
X0288402Y0012811D03*
D14*
X0278402Y0012811D03*
X0268402Y0012811D03*
X0258402Y0012811D03*
X0248402Y0012811D03*
X0238402Y0012811D03*
X0228402Y0012811D03*
X0218402Y0012811D03*
X0208402Y0012811D03*
X0198402Y0012811D03*
X0188402Y0012811D03*
X0178402Y0012811D03*
X0168402Y0012811D03*
X0158402Y0012811D03*
X0148402Y0012811D03*
X0138402Y0012811D03*
X0128402Y0012811D03*
X0118402Y0012811D03*
X0108402Y0012811D03*
X0108402Y0112811D03*
X0118402Y0112811D03*
X0128402Y0112811D03*
X0138402Y0112811D03*
X0148402Y0112811D03*
X0158402Y0112811D03*
X0168402Y0112811D03*
X0178402Y0112811D03*
X0188402Y0112811D03*
X0198402Y0112811D03*
X0208402Y0112811D03*
X0218402Y0112811D03*
X0228402Y0112811D03*
X0238402Y0112811D03*
X0248402Y0112811D03*
X0258402Y0112811D03*
X0268402Y0112811D03*
X0278402Y0112811D03*
X0288402Y0112811D03*
D15*
X0251039Y0160724D03*
X0241039Y0160724D03*
X0231039Y0160724D03*
X0221039Y0160724D03*
X0211039Y0160724D03*
X0201039Y0160724D03*
X0191039Y0160724D03*
X0181039Y0160724D03*
X0144740Y0160724D03*
X0134740Y0160724D03*
X0124740Y0160724D03*
X0114740Y0160724D03*
X0104740Y0160724D03*
X0094740Y0160724D03*
X0084740Y0160724D03*
X0074740Y0160724D03*
X0074740Y0210724D03*
X0084740Y0210724D03*
X0094740Y0210724D03*
X0104740Y0210724D03*
X0114740Y0210724D03*
X0124740Y0210724D03*
X0134740Y0210724D03*
X0144740Y0210724D03*
X0181039Y0210724D03*
X0191039Y0210724D03*
X0201039Y0210724D03*
X0211039Y0210724D03*
X0221039Y0210724D03*
X0231039Y0210724D03*
X0241039Y0210724D03*
X0251039Y0210724D03*
D16*
X0213598Y0172063D03*
X0213598Y0168520D03*
X0201787Y0168291D03*
X0201787Y0172291D03*
X0189976Y0172291D03*
X0189976Y0168291D03*
X0107299Y0168520D03*
X0107299Y0172063D03*
X0095488Y0172291D03*
X0095488Y0168291D03*
X0083677Y0168291D03*
X0083677Y0172291D03*
X0304150Y0081512D03*
X0304150Y0077969D03*
D17*
X0213344Y0074622D02*
X0208480Y0069759D01*
X0208480Y0069110D01*
X0201787Y0168791D02*
X0201787Y0171791D01*
X0189976Y0171791D02*
X0189976Y0168791D01*
X0095488Y0168791D02*
X0095488Y0171791D01*
X0083677Y0171791D02*
X0083677Y0168791D01*
D18*
X0257387Y0039189D03*
D19*
X0269898Y0024380D03*
X0286209Y0039089D03*
D20*
X0274780Y0071866D03*
X0264780Y0071866D03*
D21*
X0087630Y0033480D02*
X0081693Y0033480D01*
X0081693Y0015764D02*
X0087630Y0015764D01*
X0062039Y0015764D02*
X0056102Y0015764D01*
X0056102Y0033480D02*
X0062039Y0033480D01*
D22*
X0270528Y0231031D02*
X0270528Y0237031D01*
X0280528Y0237031D02*
X0280528Y0231031D01*
X0290528Y0231031D02*
X0290528Y0237031D01*
X0220724Y0242843D02*
X0220724Y0248843D01*
X0210724Y0248843D02*
X0210724Y0242843D01*
X0200724Y0242843D02*
X0200724Y0248843D01*
X0190724Y0248843D02*
X0190724Y0242843D01*
X0043559Y0242843D02*
X0043559Y0248843D01*
X0033559Y0248843D02*
X0033559Y0242843D01*
X0023559Y0242843D02*
X0023559Y0248843D01*
X0013559Y0248843D02*
X0013559Y0242843D01*
D23*
X0016748Y0126551D03*
X0026748Y0126551D03*
D24*
X0026748Y0116551D03*
X0026748Y0106551D03*
X0026748Y0096551D03*
X0016748Y0096551D03*
X0016748Y0106551D03*
X0016748Y0116551D03*
X0016748Y0086551D03*
X0016748Y0076551D03*
X0016748Y0066551D03*
X0016748Y0056551D03*
X0026748Y0056551D03*
X0026748Y0066551D03*
X0026748Y0076551D03*
X0026748Y0086551D03*
D25*
X0036039Y0086039D02*
X0181512Y0086039D01*
X0195882Y0100409D01*
X0249963Y0023950D02*
X0269650Y0023950D01*
X0269898Y0024380D01*
X0249963Y0023950D02*
X0239163Y0013150D01*
X0238600Y0013150D01*
X0238402Y0012811D01*
X0084661Y0033480D02*
X0084250Y0033850D01*
X0059500Y0033850D01*
X0059071Y0033480D01*
X0037220Y0106906D02*
X0036394Y0106906D01*
X0026748Y0116551D01*
X0251039Y0210724D02*
X0251200Y0211150D01*
X0252100Y0212050D01*
X0303850Y0212050D01*
X0304150Y0212063D01*
D26*
X0304149Y0212063D02*
X0297550Y0212063D01*
X0297550Y0211630D01*
X0297663Y0210773D01*
X0297886Y0209937D01*
X0298218Y0209138D01*
X0298650Y0208388D01*
X0298995Y0207939D01*
X0297537Y0206481D01*
X0296350Y0203615D01*
X0296350Y0200511D01*
X0297537Y0197645D01*
X0298119Y0197063D01*
X0297537Y0196481D01*
X0296350Y0193615D01*
X0296350Y0190511D01*
X0297028Y0188873D01*
X0294098Y0185943D01*
X0292607Y0184452D01*
X0291800Y0182504D01*
X0291800Y0119386D01*
X0289869Y0120186D01*
X0286935Y0120186D01*
X0284224Y0119063D01*
X0283402Y0118241D01*
X0282579Y0119063D01*
X0279869Y0120186D01*
X0278605Y0120186D01*
X0278605Y0139249D01*
X0277798Y0141197D01*
X0258611Y0160384D01*
X0258611Y0162230D01*
X0257458Y0165013D01*
X0255328Y0167143D01*
X0252545Y0168296D01*
X0249533Y0168296D01*
X0246750Y0167143D01*
X0246039Y0166432D01*
X0245328Y0167143D01*
X0242545Y0168296D01*
X0239533Y0168296D01*
X0236750Y0167143D01*
X0236039Y0166432D01*
X0235328Y0167143D01*
X0232545Y0168296D01*
X0229533Y0168296D01*
X0229290Y0168195D01*
X0222087Y0175399D01*
X0220399Y0177087D01*
X0219400Y0177500D01*
X0219400Y0198513D01*
X0235406Y0198513D01*
X0237611Y0199426D01*
X0241338Y0203153D01*
X0242545Y0203153D01*
X0245328Y0204305D01*
X0246896Y0205873D01*
X0247492Y0205415D01*
X0248215Y0204998D01*
X0248987Y0204678D01*
X0249794Y0204462D01*
X0250622Y0204353D01*
X0251039Y0204353D01*
X0251039Y0210724D01*
X0251039Y0210724D01*
X0251039Y0204353D01*
X0251457Y0204353D01*
X0252285Y0204462D01*
X0253092Y0204678D01*
X0253864Y0204998D01*
X0254587Y0205415D01*
X0255249Y0205924D01*
X0255840Y0206514D01*
X0256349Y0207177D01*
X0256766Y0207900D01*
X0257086Y0208672D01*
X0257302Y0209479D01*
X0257411Y0210307D01*
X0257411Y0210724D01*
X0251039Y0210724D01*
X0251039Y0210724D01*
X0257411Y0210724D01*
X0257411Y0211142D01*
X0257302Y0211970D01*
X0257086Y0212777D01*
X0256766Y0213549D01*
X0256349Y0214272D01*
X0255840Y0214935D01*
X0255249Y0215525D01*
X0254696Y0215950D01*
X0297474Y0215950D01*
X0298298Y0215127D01*
X0298218Y0214988D01*
X0297886Y0214189D01*
X0297663Y0213353D01*
X0297550Y0212496D01*
X0297550Y0212063D01*
X0304149Y0212063D01*
X0304149Y0212063D01*
X0301000Y0212063D02*
X0301000Y0212063D01*
X0297633Y0211000D02*
X0257411Y0211000D01*
X0256000Y0210724D02*
X0256000Y0210724D01*
X0256000Y0214726D02*
X0256000Y0215950D01*
X0261000Y0215950D02*
X0261000Y0157995D01*
X0262995Y0156000D02*
X0291800Y0156000D01*
X0291800Y0151000D02*
X0267995Y0151000D01*
X0266000Y0152995D02*
X0266000Y0215950D01*
X0271000Y0215950D02*
X0271000Y0147995D01*
X0272995Y0146000D02*
X0291800Y0146000D01*
X0291800Y0141000D02*
X0277880Y0141000D01*
X0276000Y0142995D02*
X0276000Y0215950D01*
X0281000Y0215950D02*
X0281000Y0119717D01*
X0278605Y0121000D02*
X0291800Y0121000D01*
X0291000Y0119717D02*
X0291000Y0215950D01*
X0286000Y0215950D02*
X0286000Y0119799D01*
X0291800Y0126000D02*
X0278605Y0126000D01*
X0278605Y0131000D02*
X0291800Y0131000D01*
X0291800Y0136000D02*
X0278605Y0136000D01*
X0291800Y0161000D02*
X0258611Y0161000D01*
X0256472Y0166000D02*
X0291800Y0166000D01*
X0291800Y0171000D02*
X0226485Y0171000D01*
X0226000Y0171485D02*
X0226000Y0198513D01*
X0231000Y0198513D02*
X0231000Y0168296D01*
X0236000Y0166472D02*
X0236000Y0198759D01*
X0239185Y0201000D02*
X0296350Y0201000D01*
X0297338Y0196000D02*
X0219400Y0196000D01*
X0221000Y0198513D02*
X0221000Y0176485D01*
X0221485Y0176000D02*
X0291800Y0176000D01*
X0291800Y0181000D02*
X0219400Y0181000D01*
X0219400Y0186000D02*
X0294155Y0186000D01*
X0296000Y0187845D02*
X0296000Y0215950D01*
X0297338Y0206000D02*
X0255326Y0206000D01*
X0256000Y0206723D02*
X0256000Y0166472D01*
X0251000Y0168296D02*
X0251000Y0204353D01*
X0251039Y0206000D02*
X0251039Y0206000D01*
X0246000Y0204977D02*
X0246000Y0166472D01*
X0241000Y0168296D02*
X0241000Y0202815D01*
X0237828Y0217590D02*
X0237828Y0227110D01*
X0239472Y0228755D01*
X0240583Y0231438D01*
X0240583Y0250484D01*
X0239472Y0253167D01*
X0237419Y0255220D01*
X0236596Y0256043D01*
X0310123Y0256043D01*
X0315609Y0250891D01*
X0315609Y0218676D01*
X0311950Y0222336D01*
X0311950Y0226018D01*
X0311219Y0227782D01*
X0309869Y0229132D01*
X0308104Y0229863D01*
X0300195Y0229863D01*
X0298431Y0229132D01*
X0298009Y0228710D01*
X0298328Y0229480D01*
X0298328Y0238583D01*
X0297140Y0241450D01*
X0294946Y0243644D01*
X0292079Y0244831D01*
X0288976Y0244831D01*
X0286109Y0243644D01*
X0285528Y0243062D01*
X0284946Y0243644D01*
X0282079Y0244831D01*
X0278976Y0244831D01*
X0276109Y0243644D01*
X0274651Y0242186D01*
X0274202Y0242531D01*
X0273453Y0242964D01*
X0272654Y0243295D01*
X0271818Y0243519D01*
X0270960Y0243631D01*
X0270528Y0243631D01*
X0270528Y0234032D01*
X0270527Y0234032D01*
X0270527Y0243631D01*
X0270095Y0243631D01*
X0269237Y0243519D01*
X0268402Y0243295D01*
X0267602Y0242964D01*
X0266853Y0242531D01*
X0266167Y0242004D01*
X0265555Y0241393D01*
X0265028Y0240706D01*
X0264595Y0239957D01*
X0264264Y0239158D01*
X0264040Y0238322D01*
X0263928Y0237464D01*
X0263928Y0234032D01*
X0270527Y0234032D01*
X0270527Y0234031D01*
X0263928Y0234031D01*
X0263928Y0230599D01*
X0264040Y0229741D01*
X0264264Y0228905D01*
X0264595Y0228106D01*
X0264686Y0227950D01*
X0250907Y0227950D01*
X0248702Y0227037D01*
X0247014Y0225349D01*
X0247014Y0225349D01*
X0239961Y0218296D01*
X0239533Y0218296D01*
X0237828Y0217590D01*
X0237828Y0221000D02*
X0242665Y0221000D01*
X0241000Y0219335D02*
X0241000Y0256043D01*
X0236639Y0256000D02*
X0310169Y0256000D01*
X0311000Y0255219D02*
X0311000Y0228001D01*
X0311950Y0226000D02*
X0315609Y0226000D01*
X0315609Y0231000D02*
X0298328Y0231000D01*
X0301000Y0229863D02*
X0301000Y0256043D01*
X0296000Y0256043D02*
X0296000Y0242590D01*
X0297326Y0241000D02*
X0315609Y0241000D01*
X0315609Y0236000D02*
X0298328Y0236000D01*
X0306000Y0229863D02*
X0306000Y0256043D01*
X0315494Y0251000D02*
X0240370Y0251000D01*
X0240583Y0246000D02*
X0315609Y0246000D01*
X0291000Y0244831D02*
X0291000Y0256043D01*
X0286000Y0256043D02*
X0286000Y0243535D01*
X0281000Y0244831D02*
X0281000Y0256043D01*
X0276000Y0256043D02*
X0276000Y0243535D01*
X0271000Y0243626D02*
X0271000Y0256043D01*
X0266000Y0256043D02*
X0266000Y0241838D01*
X0265254Y0241000D02*
X0240583Y0241000D01*
X0240583Y0236000D02*
X0263928Y0236000D01*
X0266000Y0234032D02*
X0266000Y0234031D01*
X0263928Y0231000D02*
X0240402Y0231000D01*
X0237828Y0226000D02*
X0247665Y0226000D01*
X0246000Y0224335D02*
X0246000Y0256043D01*
X0251000Y0256043D02*
X0251000Y0227950D01*
X0256000Y0227950D02*
X0256000Y0256043D01*
X0261000Y0256043D02*
X0261000Y0227950D01*
X0270527Y0236000D02*
X0270528Y0236000D01*
X0270527Y0241000D02*
X0270528Y0241000D01*
X0313285Y0221000D02*
X0315609Y0221000D01*
X0296350Y0191000D02*
X0219400Y0191000D01*
X0195183Y0215576D02*
X0194587Y0216034D01*
X0193864Y0216451D01*
X0193092Y0216771D01*
X0192285Y0216987D01*
X0191457Y0217096D01*
X0191039Y0217096D01*
X0190622Y0217096D01*
X0189794Y0216987D01*
X0188987Y0216771D01*
X0188215Y0216451D01*
X0187492Y0216034D01*
X0186896Y0215576D01*
X0185328Y0217143D01*
X0182545Y0218296D01*
X0179533Y0218296D01*
X0176750Y0217143D01*
X0174620Y0215013D01*
X0173468Y0212230D01*
X0173468Y0210513D01*
X0151112Y0210513D01*
X0151112Y0210724D01*
X0144740Y0210724D01*
X0144740Y0210724D01*
X0144740Y0210725D02*
X0144740Y0217096D01*
X0144323Y0217096D01*
X0143494Y0216987D01*
X0142688Y0216771D01*
X0141916Y0216451D01*
X0141193Y0216034D01*
X0140740Y0215686D01*
X0140740Y0242727D01*
X0146164Y0248152D01*
X0146464Y0248276D01*
X0146839Y0248650D01*
X0147082Y0248805D01*
X0147706Y0249063D01*
X0148081Y0249438D01*
X0148528Y0249722D01*
X0148916Y0250274D01*
X0149394Y0250751D01*
X0149596Y0251241D01*
X0149901Y0251674D01*
X0150049Y0252333D01*
X0150307Y0252956D01*
X0150307Y0253486D01*
X0150423Y0254003D01*
X0150307Y0254668D01*
X0150307Y0255343D01*
X0150104Y0255833D01*
X0150068Y0256043D01*
X0183972Y0256043D01*
X0183471Y0254852D01*
X0183471Y0254833D01*
X0183464Y0254814D01*
X0183464Y0253381D01*
X0183455Y0251675D01*
X0182924Y0250394D01*
X0182924Y0241291D01*
X0184112Y0238424D01*
X0186306Y0236230D01*
X0189173Y0235043D01*
X0192276Y0235043D01*
X0195143Y0236230D01*
X0195724Y0236812D01*
X0196306Y0236230D01*
X0199173Y0235043D01*
X0202276Y0235043D01*
X0203739Y0235649D01*
X0203739Y0217802D01*
X0202545Y0218296D01*
X0199533Y0218296D01*
X0196750Y0217143D01*
X0195183Y0215576D01*
X0195607Y0216000D02*
X0194631Y0216000D01*
X0196000Y0216393D02*
X0196000Y0236536D01*
X0196861Y0236000D02*
X0194587Y0236000D01*
X0191000Y0235043D02*
X0191000Y0217096D01*
X0191039Y0217096D02*
X0191039Y0210725D01*
X0191039Y0210725D01*
X0191039Y0217096D01*
X0191039Y0216000D02*
X0191039Y0216000D01*
X0187448Y0216000D02*
X0186472Y0216000D01*
X0186000Y0216472D02*
X0186000Y0236536D01*
X0186861Y0236000D02*
X0140740Y0236000D01*
X0140740Y0241000D02*
X0183045Y0241000D01*
X0182924Y0246000D02*
X0144013Y0246000D01*
X0146000Y0247987D02*
X0146000Y0216983D01*
X0145986Y0216987D02*
X0145158Y0217096D01*
X0144740Y0217096D01*
X0144740Y0210725D01*
X0144740Y0210725D01*
X0144740Y0210724D02*
X0151112Y0210724D01*
X0151112Y0211142D01*
X0151003Y0211970D01*
X0150787Y0212777D01*
X0150467Y0213549D01*
X0150049Y0214272D01*
X0149541Y0214935D01*
X0148950Y0215525D01*
X0148288Y0216034D01*
X0147564Y0216451D01*
X0146793Y0216771D01*
X0145986Y0216987D01*
X0144740Y0216000D02*
X0144740Y0216000D01*
X0148331Y0216000D02*
X0175607Y0216000D01*
X0176000Y0216393D02*
X0176000Y0256043D01*
X0171000Y0256043D02*
X0171000Y0210513D01*
X0173468Y0211000D02*
X0151112Y0211000D01*
X0151000Y0210724D02*
X0151000Y0210724D01*
X0151000Y0211980D02*
X0151000Y0256043D01*
X0150075Y0256000D02*
X0183954Y0256000D01*
X0181000Y0256043D02*
X0181000Y0218296D01*
X0191039Y0211000D02*
X0191039Y0211000D01*
X0201000Y0218296D02*
X0201000Y0235043D01*
X0203739Y0231000D02*
X0140740Y0231000D01*
X0140740Y0226000D02*
X0203739Y0226000D01*
X0203739Y0221000D02*
X0140740Y0221000D01*
X0140740Y0216000D02*
X0141149Y0216000D01*
X0141000Y0215886D02*
X0141000Y0242987D01*
X0149497Y0251000D02*
X0183175Y0251000D01*
X0166000Y0256043D02*
X0166000Y0210513D01*
X0161000Y0210513D02*
X0161000Y0256043D01*
X0156000Y0256043D02*
X0156000Y0210513D01*
X0146000Y0210724D02*
X0146000Y0210724D01*
X0144740Y0211000D02*
X0144740Y0211000D01*
X0115320Y0203153D02*
X0114882Y0202095D01*
X0114882Y0184711D01*
X0108556Y0178113D01*
X0106457Y0178113D01*
X0106409Y0178115D01*
X0106402Y0178113D01*
X0103844Y0178113D01*
X0103309Y0177891D01*
X0100029Y0177891D01*
X0098943Y0178341D01*
X0092033Y0178341D01*
X0090947Y0177891D01*
X0089484Y0177891D01*
X0069079Y0198296D01*
X0067391Y0199984D01*
X0065186Y0200898D01*
X0054433Y0200898D01*
X0052227Y0199984D01*
X0050539Y0198296D01*
X0049626Y0196091D01*
X0049626Y0193704D01*
X0050539Y0191499D01*
X0052227Y0189811D01*
X0054433Y0188898D01*
X0061507Y0188898D01*
X0076377Y0174027D01*
X0076377Y0168242D01*
X0076246Y0168296D01*
X0073234Y0168296D01*
X0070451Y0167143D01*
X0070027Y0166719D01*
X0049630Y0187115D01*
X0049630Y0187115D01*
X0048139Y0188606D01*
X0046191Y0189413D01*
X0025157Y0189413D01*
X0036804Y0201061D01*
X0037651Y0200213D01*
X0039857Y0199300D01*
X0042243Y0199300D01*
X0044449Y0200213D01*
X0046137Y0201901D01*
X0047050Y0204107D01*
X0047050Y0206493D01*
X0046137Y0208699D01*
X0045385Y0209450D01*
X0045386Y0209452D01*
X0045386Y0211839D01*
X0044472Y0214044D01*
X0042785Y0215732D01*
X0040579Y0216646D01*
X0038192Y0216646D01*
X0037691Y0216438D01*
X0034395Y0216438D01*
X0032447Y0215631D01*
X0005800Y0188984D01*
X0005800Y0241192D01*
X0006947Y0238424D01*
X0009141Y0236230D01*
X0012008Y0235043D01*
X0015111Y0235043D01*
X0017977Y0236230D01*
X0018559Y0236812D01*
X0019141Y0236230D01*
X0022008Y0235043D01*
X0025111Y0235043D01*
X0027977Y0236230D01*
X0028559Y0236812D01*
X0029141Y0236230D01*
X0032008Y0235043D01*
X0035111Y0235043D01*
X0037977Y0236230D01*
X0038559Y0236812D01*
X0039141Y0236230D01*
X0042008Y0235043D01*
X0045111Y0235043D01*
X0047977Y0236230D01*
X0050172Y0238424D01*
X0050221Y0238543D01*
X0077543Y0238543D01*
X0087007Y0229079D01*
X0087007Y0216682D01*
X0086793Y0216771D01*
X0085986Y0216987D01*
X0085158Y0217096D01*
X0084740Y0217096D01*
X0084323Y0217096D01*
X0083494Y0216987D01*
X0082688Y0216771D01*
X0081916Y0216451D01*
X0081193Y0216034D01*
X0080596Y0215576D01*
X0079029Y0217143D01*
X0076246Y0218296D01*
X0073234Y0218296D01*
X0070451Y0217143D01*
X0068321Y0215013D01*
X0067169Y0212230D01*
X0067169Y0209218D01*
X0068321Y0206435D01*
X0070451Y0204305D01*
X0073234Y0203153D01*
X0076246Y0203153D01*
X0079029Y0204305D01*
X0080596Y0205873D01*
X0081193Y0205415D01*
X0081916Y0204998D01*
X0082688Y0204678D01*
X0083494Y0204462D01*
X0084323Y0204353D01*
X0084740Y0204353D01*
X0084740Y0210724D01*
X0084740Y0210724D01*
X0084740Y0204353D01*
X0085158Y0204353D01*
X0085986Y0204462D01*
X0086793Y0204678D01*
X0087564Y0204998D01*
X0088288Y0205415D01*
X0088884Y0205873D01*
X0090451Y0204305D01*
X0093234Y0203153D01*
X0096246Y0203153D01*
X0099029Y0204305D01*
X0099740Y0205016D01*
X0100451Y0204305D01*
X0103234Y0203153D01*
X0106246Y0203153D01*
X0109029Y0204305D01*
X0109740Y0205016D01*
X0110451Y0204305D01*
X0113234Y0203153D01*
X0115320Y0203153D01*
X0114882Y0201000D02*
X0045235Y0201000D01*
X0046000Y0201765D02*
X0046000Y0189413D01*
X0051000Y0191038D02*
X0051000Y0185745D01*
X0050745Y0186000D02*
X0064404Y0186000D01*
X0066000Y0184404D02*
X0066000Y0170745D01*
X0065745Y0171000D02*
X0076377Y0171000D01*
X0076000Y0168296D02*
X0076000Y0174404D01*
X0074404Y0176000D02*
X0060745Y0176000D01*
X0061000Y0175745D02*
X0061000Y0188898D01*
X0056000Y0188898D02*
X0056000Y0180745D01*
X0055745Y0181000D02*
X0069404Y0181000D01*
X0071000Y0179404D02*
X0071000Y0167371D01*
X0086000Y0181375D02*
X0086000Y0204466D01*
X0084740Y0206000D02*
X0084740Y0206000D01*
X0081000Y0205563D02*
X0081000Y0186375D01*
X0081375Y0186000D02*
X0114882Y0186000D01*
X0114882Y0191000D02*
X0076375Y0191000D01*
X0076000Y0191375D02*
X0076000Y0203153D01*
X0071000Y0204078D02*
X0071000Y0196375D01*
X0071375Y0196000D02*
X0114882Y0196000D01*
X0111000Y0204078D02*
X0111000Y0180662D01*
X0111324Y0181000D02*
X0086375Y0181000D01*
X0091000Y0177913D02*
X0091000Y0204078D01*
X0096000Y0203153D02*
X0096000Y0178341D01*
X0101000Y0177891D02*
X0101000Y0204078D01*
X0106000Y0203153D02*
X0106000Y0178113D01*
X0084740Y0210725D02*
X0084740Y0210725D01*
X0084740Y0217096D01*
X0084740Y0210725D01*
X0084740Y0211000D02*
X0084740Y0211000D01*
X0084740Y0216000D02*
X0084740Y0216000D01*
X0086000Y0216983D02*
X0086000Y0230086D01*
X0085086Y0231000D02*
X0005800Y0231000D01*
X0005800Y0226000D02*
X0087007Y0226000D01*
X0087007Y0221000D02*
X0005800Y0221000D01*
X0005800Y0216000D02*
X0033338Y0216000D01*
X0036000Y0216438D02*
X0036000Y0235411D01*
X0037422Y0236000D02*
X0039696Y0236000D01*
X0041000Y0235460D02*
X0041000Y0216471D01*
X0042138Y0216000D02*
X0069308Y0216000D01*
X0071000Y0217371D02*
X0071000Y0238543D01*
X0076000Y0238543D02*
X0076000Y0218296D01*
X0080172Y0216000D02*
X0081149Y0216000D01*
X0081000Y0215886D02*
X0081000Y0235086D01*
X0080086Y0236000D02*
X0047422Y0236000D01*
X0046000Y0235411D02*
X0046000Y0208835D01*
X0045386Y0211000D02*
X0067169Y0211000D01*
X0068757Y0206000D02*
X0047050Y0206000D01*
X0051000Y0198757D02*
X0051000Y0238543D01*
X0056000Y0238543D02*
X0056000Y0200898D01*
X0061000Y0200898D02*
X0061000Y0238543D01*
X0066000Y0238543D02*
X0066000Y0200560D01*
X0049626Y0196000D02*
X0031743Y0196000D01*
X0031000Y0195257D02*
X0031000Y0189413D01*
X0026743Y0191000D02*
X0051038Y0191000D01*
X0041000Y0189413D02*
X0041000Y0199300D01*
X0036865Y0201000D02*
X0036743Y0201000D01*
X0036000Y0200257D02*
X0036000Y0189413D01*
X0026000Y0189413D02*
X0026000Y0190257D01*
X0017816Y0201000D02*
X0005800Y0201000D01*
X0005800Y0196000D02*
X0012816Y0196000D01*
X0011000Y0194184D02*
X0011000Y0235460D01*
X0009696Y0236000D02*
X0005800Y0236000D01*
X0006000Y0240709D02*
X0006000Y0189184D01*
X0005800Y0191000D02*
X0007816Y0191000D01*
X0016000Y0199184D02*
X0016000Y0235411D01*
X0017422Y0236000D02*
X0019696Y0236000D01*
X0021000Y0235460D02*
X0021000Y0204184D01*
X0022816Y0206000D02*
X0005800Y0206000D01*
X0005800Y0211000D02*
X0027816Y0211000D01*
X0026000Y0209184D02*
X0026000Y0235411D01*
X0027422Y0236000D02*
X0029696Y0236000D01*
X0031000Y0235460D02*
X0031000Y0214184D01*
X0005880Y0241000D02*
X0005800Y0241000D01*
X0034962Y0140877D02*
X0075084Y0140877D01*
X0090011Y0125951D01*
X0091502Y0124460D01*
X0093450Y0123653D01*
X0096836Y0123653D01*
X0103676Y0116813D01*
X0103120Y0116047D01*
X0102679Y0115181D01*
X0102379Y0114257D01*
X0102227Y0113297D01*
X0102227Y0112811D01*
X0102227Y0112325D01*
X0102379Y0111365D01*
X0102679Y0110441D01*
X0103120Y0109575D01*
X0103692Y0108788D01*
X0104379Y0108101D01*
X0105165Y0107530D01*
X0106031Y0107089D01*
X0106956Y0106788D01*
X0107916Y0106636D01*
X0108395Y0106636D01*
X0108712Y0105872D01*
X0113254Y0101330D01*
X0115202Y0100523D01*
X0172330Y0100523D01*
X0174278Y0101330D01*
X0178384Y0105436D01*
X0179869Y0105436D01*
X0182579Y0106559D01*
X0183402Y0107381D01*
X0184224Y0106559D01*
X0186935Y0105436D01*
X0189869Y0105436D01*
X0192579Y0106559D01*
X0193402Y0107381D01*
X0194224Y0106559D01*
X0194445Y0106468D01*
X0193064Y0105087D01*
X0192823Y0104987D01*
X0179275Y0091439D01*
X0038681Y0091439D01*
X0037233Y0092039D01*
X0034846Y0092039D01*
X0033289Y0091395D01*
X0032235Y0092449D01*
X0032456Y0092737D01*
X0032905Y0093515D01*
X0033248Y0094345D01*
X0033481Y0095212D01*
X0033598Y0096102D01*
X0033598Y0096551D01*
X0026748Y0096551D01*
X0019898Y0096551D01*
X0017335Y0096551D01*
X0017335Y0096551D01*
X0026748Y0096551D01*
X0026748Y0096551D01*
X0026748Y0096551D01*
X0033598Y0096551D01*
X0033598Y0097000D01*
X0033481Y0097890D01*
X0033248Y0098758D01*
X0032905Y0099587D01*
X0032456Y0100365D01*
X0032235Y0100653D01*
X0033572Y0101991D01*
X0033595Y0102046D01*
X0033822Y0101819D01*
X0036027Y0100906D01*
X0038414Y0100906D01*
X0040619Y0101819D01*
X0042307Y0103507D01*
X0043220Y0105712D01*
X0043220Y0108099D01*
X0042307Y0110304D01*
X0040619Y0111992D01*
X0038414Y0112905D01*
X0038030Y0112905D01*
X0034798Y0116138D01*
X0034798Y0118152D01*
X0033872Y0120387D01*
X0034067Y0120582D01*
X0034798Y0122346D01*
X0034798Y0124071D01*
X0058906Y0099963D01*
X0060593Y0098276D01*
X0062799Y0097362D01*
X0065678Y0097362D01*
X0067883Y0098276D01*
X0069571Y0099963D01*
X0070484Y0102169D01*
X0070484Y0104556D01*
X0069571Y0106761D01*
X0067883Y0108449D01*
X0067043Y0108797D01*
X0034962Y0140877D01*
X0036000Y0140877D02*
X0036000Y0139840D01*
X0041000Y0140877D02*
X0041000Y0134840D01*
X0039840Y0136000D02*
X0079961Y0136000D01*
X0081000Y0134961D02*
X0081000Y0091439D01*
X0086000Y0091439D02*
X0086000Y0129961D01*
X0084961Y0131000D02*
X0044840Y0131000D01*
X0046000Y0129840D02*
X0046000Y0140877D01*
X0051000Y0140877D02*
X0051000Y0124840D01*
X0049840Y0126000D02*
X0089961Y0126000D01*
X0091000Y0124961D02*
X0091000Y0091439D01*
X0096000Y0091439D02*
X0096000Y0123653D01*
X0099489Y0121000D02*
X0054840Y0121000D01*
X0056000Y0119840D02*
X0056000Y0140877D01*
X0061000Y0140877D02*
X0061000Y0114840D01*
X0059840Y0116000D02*
X0103096Y0116000D01*
X0102227Y0112811D02*
X0107678Y0112811D01*
X0102227Y0112811D01*
X0102497Y0111000D02*
X0064840Y0111000D01*
X0066000Y0109840D02*
X0066000Y0140877D01*
X0071000Y0140877D02*
X0071000Y0091439D01*
X0076000Y0091439D02*
X0076000Y0139961D01*
X0101000Y0119489D02*
X0101000Y0091439D01*
X0106000Y0091439D02*
X0106000Y0107105D01*
X0108658Y0106000D02*
X0069886Y0106000D01*
X0070000Y0101000D02*
X0114050Y0101000D01*
X0116000Y0100523D02*
X0116000Y0091439D01*
X0121000Y0091439D02*
X0121000Y0100523D01*
X0126000Y0100523D02*
X0126000Y0091439D01*
X0131000Y0091439D02*
X0131000Y0100523D01*
X0136000Y0100523D02*
X0136000Y0091439D01*
X0141000Y0091439D02*
X0141000Y0100523D01*
X0146000Y0100523D02*
X0146000Y0091439D01*
X0151000Y0091439D02*
X0151000Y0100523D01*
X0156000Y0100523D02*
X0156000Y0091439D01*
X0161000Y0091439D02*
X0161000Y0100523D01*
X0166000Y0100523D02*
X0166000Y0091439D01*
X0171000Y0091439D02*
X0171000Y0100523D01*
X0173482Y0101000D02*
X0188836Y0101000D01*
X0191000Y0103164D02*
X0191000Y0105905D01*
X0191230Y0106000D02*
X0193977Y0106000D01*
X0186000Y0105823D02*
X0186000Y0098164D01*
X0183836Y0096000D02*
X0033585Y0096000D01*
X0031000Y0096551D02*
X0031000Y0096551D01*
X0032581Y0101000D02*
X0035799Y0101000D01*
X0036000Y0100917D02*
X0036000Y0092039D01*
X0041000Y0091439D02*
X0041000Y0102200D01*
X0038642Y0101000D02*
X0057869Y0101000D01*
X0056000Y0102869D02*
X0056000Y0091439D01*
X0061000Y0091439D02*
X0061000Y0098107D01*
X0066000Y0097496D02*
X0066000Y0091439D01*
X0051000Y0091439D02*
X0051000Y0107869D01*
X0052869Y0106000D02*
X0043220Y0106000D01*
X0041611Y0111000D02*
X0047869Y0111000D01*
X0046000Y0112869D02*
X0046000Y0091439D01*
X0026000Y0096551D02*
X0026000Y0096551D01*
X0021000Y0096551D02*
X0021000Y0096551D01*
X0036000Y0114936D02*
X0036000Y0122869D01*
X0034240Y0121000D02*
X0037869Y0121000D01*
X0041000Y0117869D02*
X0041000Y0111611D01*
X0042869Y0116000D02*
X0034936Y0116000D01*
X0026748Y0056231D02*
X0026748Y0049701D01*
X0026748Y0056231D01*
X0026748Y0056231D01*
X0026748Y0056000D02*
X0026748Y0056000D01*
X0026748Y0051000D02*
X0026748Y0051000D01*
X0026748Y0049701D02*
X0027197Y0049701D01*
X0028087Y0049818D01*
X0028955Y0050051D01*
X0029784Y0050394D01*
X0030562Y0050843D01*
X0031274Y0051390D01*
X0031909Y0052025D01*
X0032408Y0052675D01*
X0032877Y0052480D01*
X0035264Y0052480D01*
X0036954Y0053180D01*
X0140243Y0053180D01*
X0141933Y0052480D01*
X0144319Y0052480D01*
X0146525Y0053394D01*
X0148213Y0055082D01*
X0148689Y0056231D01*
X0158446Y0056231D01*
X0152008Y0049793D01*
X0151094Y0047588D01*
X0151094Y0036257D01*
X0152008Y0034051D01*
X0153695Y0032363D01*
X0155901Y0031450D01*
X0158288Y0031450D01*
X0160195Y0032240D01*
X0148140Y0020186D01*
X0146935Y0020186D01*
X0144224Y0019063D01*
X0143402Y0018241D01*
X0142579Y0019063D01*
X0139869Y0020186D01*
X0138424Y0020186D01*
X0130971Y0027639D01*
X0129023Y0028446D01*
X0091859Y0028446D01*
X0091970Y0028531D01*
X0092579Y0029140D01*
X0093103Y0029823D01*
X0093534Y0030569D01*
X0093863Y0031364D01*
X0094086Y0032196D01*
X0094198Y0033050D01*
X0094198Y0033480D01*
X0084662Y0033480D01*
X0084662Y0033480D01*
X0094198Y0033480D01*
X0094198Y0033911D01*
X0094086Y0034765D01*
X0093863Y0035596D01*
X0093534Y0036392D01*
X0093103Y0037137D01*
X0092579Y0037821D01*
X0091970Y0038429D01*
X0091287Y0038954D01*
X0090541Y0039384D01*
X0089746Y0039714D01*
X0088914Y0039936D01*
X0088060Y0040049D01*
X0084661Y0040049D01*
X0081262Y0040049D01*
X0080409Y0039936D01*
X0079577Y0039714D01*
X0078781Y0039384D01*
X0078036Y0038954D01*
X0077353Y0038429D01*
X0076744Y0037821D01*
X0076220Y0037137D01*
X0075789Y0036392D01*
X0075460Y0035596D01*
X0075237Y0034765D01*
X0075124Y0033911D01*
X0075124Y0033480D01*
X0075124Y0033050D01*
X0075237Y0032196D01*
X0075460Y0031364D01*
X0075789Y0030569D01*
X0076220Y0029823D01*
X0076744Y0029140D01*
X0077353Y0028531D01*
X0077464Y0028446D01*
X0066268Y0028446D01*
X0066380Y0028531D01*
X0066988Y0029140D01*
X0067513Y0029823D01*
X0067943Y0030569D01*
X0068273Y0031364D01*
X0068495Y0032196D01*
X0068608Y0033050D01*
X0068608Y0033480D01*
X0059071Y0033480D01*
X0059071Y0033480D01*
X0049534Y0033480D01*
X0049534Y0033050D01*
X0049646Y0032196D01*
X0049869Y0031364D01*
X0050199Y0030569D01*
X0050629Y0029823D01*
X0051153Y0029140D01*
X0051762Y0028531D01*
X0051874Y0028446D01*
X0010729Y0028446D01*
X0010729Y0053276D01*
X0011040Y0052737D01*
X0011587Y0052025D01*
X0012222Y0051390D01*
X0012934Y0050843D01*
X0013712Y0050394D01*
X0014541Y0050051D01*
X0015409Y0049818D01*
X0016299Y0049701D01*
X0016748Y0049701D01*
X0016748Y0056551D01*
X0016748Y0056551D01*
X0016748Y0049701D01*
X0017197Y0049701D01*
X0018087Y0049818D01*
X0018955Y0050051D01*
X0019784Y0050394D01*
X0020562Y0050843D01*
X0021274Y0051390D01*
X0021748Y0051864D01*
X0022222Y0051390D01*
X0022934Y0050843D01*
X0023712Y0050394D01*
X0024541Y0050051D01*
X0025409Y0049818D01*
X0026299Y0049701D01*
X0026748Y0049701D01*
X0026000Y0049741D02*
X0026000Y0028446D01*
X0031000Y0028446D02*
X0031000Y0051180D01*
X0030766Y0051000D02*
X0153215Y0051000D01*
X0156000Y0053785D02*
X0156000Y0056231D01*
X0158215Y0056000D02*
X0148593Y0056000D01*
X0151000Y0056231D02*
X0151000Y0023045D01*
X0148955Y0021000D02*
X0137609Y0021000D01*
X0136000Y0022609D02*
X0136000Y0053180D01*
X0141000Y0052867D02*
X0141000Y0019717D01*
X0146000Y0019799D02*
X0146000Y0053176D01*
X0151094Y0046000D02*
X0010729Y0046000D01*
X0010729Y0041000D02*
X0151094Y0041000D01*
X0151200Y0036000D02*
X0093696Y0036000D01*
X0091000Y0033480D02*
X0091000Y0033480D01*
X0093712Y0031000D02*
X0158955Y0031000D01*
X0156000Y0031450D02*
X0156000Y0028045D01*
X0153955Y0026000D02*
X0132609Y0026000D01*
X0131000Y0027609D02*
X0131000Y0053180D01*
X0126000Y0053180D02*
X0126000Y0028446D01*
X0121000Y0028446D02*
X0121000Y0053180D01*
X0116000Y0053180D02*
X0116000Y0028446D01*
X0111000Y0028446D02*
X0111000Y0053180D01*
X0106000Y0053180D02*
X0106000Y0028446D01*
X0101000Y0028446D02*
X0101000Y0053180D01*
X0096000Y0053180D02*
X0096000Y0028446D01*
X0086000Y0033480D02*
X0086000Y0033480D01*
X0084661Y0033480D02*
X0084661Y0033480D01*
X0075124Y0033480D01*
X0084661Y0033480D01*
X0084661Y0033480D01*
X0084661Y0040049D01*
X0084661Y0033480D01*
X0084661Y0036000D02*
X0084661Y0036000D01*
X0086000Y0040049D02*
X0086000Y0053180D01*
X0081000Y0053180D02*
X0081000Y0040014D01*
X0076000Y0036757D02*
X0076000Y0053180D01*
X0071000Y0053180D02*
X0071000Y0028446D01*
X0068122Y0031000D02*
X0075611Y0031000D01*
X0076000Y0030204D02*
X0076000Y0028446D01*
X0076000Y0033480D02*
X0076000Y0033480D01*
X0075627Y0036000D02*
X0068105Y0036000D01*
X0067943Y0036392D02*
X0067513Y0037137D01*
X0066988Y0037821D01*
X0066380Y0038429D01*
X0065696Y0038954D01*
X0064951Y0039384D01*
X0064155Y0039714D01*
X0063324Y0039936D01*
X0062470Y0040049D01*
X0059071Y0040049D01*
X0059071Y0033480D01*
X0059071Y0033480D01*
X0068608Y0033480D01*
X0068608Y0033911D01*
X0068495Y0034765D01*
X0068273Y0035596D01*
X0067943Y0036392D01*
X0066000Y0038721D02*
X0066000Y0053180D01*
X0061000Y0053180D02*
X0061000Y0040049D01*
X0059071Y0040049D02*
X0055672Y0040049D01*
X0054818Y0039936D01*
X0053986Y0039714D01*
X0053191Y0039384D01*
X0052445Y0038954D01*
X0051762Y0038429D01*
X0051153Y0037821D01*
X0050629Y0037137D01*
X0050199Y0036392D01*
X0049869Y0035596D01*
X0049646Y0034765D01*
X0049534Y0033911D01*
X0049534Y0033480D01*
X0059071Y0033480D01*
X0059071Y0033480D01*
X0059071Y0040049D01*
X0056000Y0040049D02*
X0056000Y0053180D01*
X0051000Y0053180D02*
X0051000Y0037621D01*
X0050036Y0036000D02*
X0010729Y0036000D01*
X0010729Y0031000D02*
X0050020Y0031000D01*
X0051000Y0029340D02*
X0051000Y0028446D01*
X0046000Y0028446D02*
X0046000Y0053180D01*
X0041000Y0053180D02*
X0041000Y0028446D01*
X0036000Y0028446D02*
X0036000Y0052785D01*
X0022730Y0051000D02*
X0020766Y0051000D01*
X0021000Y0051180D02*
X0021000Y0028446D01*
X0016000Y0028446D02*
X0016000Y0049741D01*
X0016748Y0051000D02*
X0016748Y0051000D01*
X0012730Y0051000D02*
X0010729Y0051000D01*
X0011000Y0052807D02*
X0011000Y0028446D01*
X0011000Y0017846D02*
X0011000Y0005800D01*
X0010862Y0005800D02*
X0005800Y0010862D01*
X0005800Y0017846D01*
X0048556Y0017846D01*
X0048334Y0017309D01*
X0048334Y0014219D01*
X0049517Y0011363D01*
X0051702Y0009178D01*
X0054557Y0007995D01*
X0063585Y0007995D01*
X0066440Y0009178D01*
X0068625Y0011363D01*
X0069808Y0014219D01*
X0069808Y0017309D01*
X0069586Y0017846D01*
X0074147Y0017846D01*
X0073924Y0017309D01*
X0073924Y0014219D01*
X0075107Y0011363D01*
X0077292Y0009178D01*
X0080148Y0007995D01*
X0089175Y0007995D01*
X0092030Y0009178D01*
X0094216Y0011363D01*
X0095398Y0014219D01*
X0095398Y0017309D01*
X0095176Y0017846D01*
X0103007Y0017846D01*
X0102150Y0016989D01*
X0101027Y0014278D01*
X0101027Y0011344D01*
X0102150Y0008634D01*
X0104224Y0006559D01*
X0106056Y0005800D01*
X0010862Y0005800D01*
X0010662Y0006000D02*
X0105574Y0006000D01*
X0106000Y0005823D02*
X0106000Y0005800D01*
X0101000Y0005800D02*
X0101000Y0017846D01*
X0101740Y0016000D02*
X0095398Y0016000D01*
X0096000Y0017846D02*
X0096000Y0005800D01*
X0091000Y0005800D02*
X0091000Y0008751D01*
X0093852Y0011000D02*
X0101169Y0011000D01*
X0086000Y0007995D02*
X0086000Y0005800D01*
X0081000Y0005800D02*
X0081000Y0007995D01*
X0076000Y0005800D02*
X0076000Y0010470D01*
X0075470Y0011000D02*
X0068262Y0011000D01*
X0066000Y0008996D02*
X0066000Y0005800D01*
X0061000Y0005800D02*
X0061000Y0007995D01*
X0056000Y0007995D02*
X0056000Y0005800D01*
X0051000Y0005800D02*
X0051000Y0009880D01*
X0049880Y0011000D02*
X0005800Y0011000D01*
X0006000Y0010662D02*
X0006000Y0017846D01*
X0005800Y0016000D02*
X0048334Y0016000D01*
X0046000Y0017846D02*
X0046000Y0005800D01*
X0041000Y0005800D02*
X0041000Y0017846D01*
X0036000Y0017846D02*
X0036000Y0005800D01*
X0031000Y0005800D02*
X0031000Y0017846D01*
X0026000Y0017846D02*
X0026000Y0005800D01*
X0021000Y0005800D02*
X0021000Y0017846D01*
X0016000Y0017846D02*
X0016000Y0005800D01*
X0051000Y0033480D02*
X0051000Y0033480D01*
X0056000Y0033480D02*
X0056000Y0033480D01*
X0059071Y0036000D02*
X0059071Y0036000D01*
X0061000Y0033480D02*
X0061000Y0033480D01*
X0066000Y0033480D02*
X0066000Y0033480D01*
X0081000Y0033480D02*
X0081000Y0033480D01*
X0091000Y0039119D02*
X0091000Y0053180D01*
X0071000Y0017846D02*
X0071000Y0005800D01*
X0069808Y0016000D02*
X0073924Y0016000D01*
X0016748Y0056000D02*
X0016748Y0056000D01*
X0106000Y0112811D02*
X0106000Y0112811D01*
X0107678Y0112811D02*
X0107678Y0112811D01*
X0111000Y0103583D02*
X0111000Y0091439D01*
X0123402Y0118241D02*
X0124201Y0119040D01*
X0111755Y0131487D01*
X0106945Y0131487D01*
X0118247Y0120186D01*
X0119869Y0120186D01*
X0122579Y0119063D01*
X0123402Y0118241D01*
X0121000Y0119717D02*
X0121000Y0122242D01*
X0122242Y0121000D02*
X0117432Y0121000D01*
X0116000Y0122432D02*
X0116000Y0127242D01*
X0117242Y0126000D02*
X0112432Y0126000D01*
X0111000Y0127432D02*
X0111000Y0131487D01*
X0112242Y0131000D02*
X0107432Y0131000D01*
X0135113Y0131000D02*
X0141369Y0131000D01*
X0141369Y0135912D02*
X0141369Y0123469D01*
X0142176Y0121521D01*
X0143667Y0120030D01*
X0144514Y0119183D01*
X0144224Y0119063D01*
X0143472Y0118311D01*
X0143135Y0119049D01*
X0142810Y0119886D01*
X0142699Y0120003D01*
X0142631Y0120150D01*
X0141974Y0120762D01*
X0135113Y0127943D01*
X0135113Y0144792D01*
X0135773Y0144519D01*
X0144809Y0144519D01*
X0143271Y0143882D01*
X0141583Y0142194D01*
X0140669Y0139989D01*
X0140669Y0137602D01*
X0141369Y0135912D01*
X0141333Y0136000D02*
X0135113Y0136000D01*
X0141000Y0136803D02*
X0141000Y0121781D01*
X0141746Y0121000D02*
X0142698Y0121000D01*
X0141369Y0126000D02*
X0136969Y0126000D01*
X0136000Y0127014D02*
X0136000Y0144519D01*
X0135113Y0141000D02*
X0141088Y0141000D01*
X0141000Y0140787D02*
X0141000Y0144519D01*
X0152669Y0139172D02*
X0155272Y0136570D01*
X0157220Y0135763D01*
X0188840Y0135763D01*
X0188840Y0135706D01*
X0189753Y0133501D01*
X0191441Y0131813D01*
X0193646Y0130900D01*
X0196033Y0130900D01*
X0197684Y0131583D01*
X0205881Y0131537D01*
X0208290Y0129128D01*
X0208250Y0120186D01*
X0206935Y0120186D01*
X0204224Y0119063D01*
X0203402Y0118241D01*
X0202579Y0119063D01*
X0199869Y0120186D01*
X0196935Y0120186D01*
X0194224Y0119063D01*
X0193402Y0118241D01*
X0192579Y0119063D01*
X0189869Y0120186D01*
X0188820Y0120186D01*
X0187897Y0121184D01*
X0187856Y0121283D01*
X0187184Y0121955D01*
X0186538Y0122653D01*
X0186441Y0122698D01*
X0186365Y0122774D01*
X0185487Y0123138D01*
X0184623Y0123536D01*
X0184516Y0123540D01*
X0184417Y0123581D01*
X0183466Y0123581D01*
X0182516Y0123618D01*
X0182416Y0123581D01*
X0176289Y0123581D01*
X0174341Y0122774D01*
X0172851Y0121283D01*
X0170265Y0118698D01*
X0169848Y0118834D01*
X0168888Y0118986D01*
X0168402Y0118986D01*
X0168402Y0116031D01*
X0168402Y0116031D01*
X0168402Y0118986D01*
X0167916Y0118986D01*
X0166956Y0118834D01*
X0166031Y0118533D01*
X0165165Y0118092D01*
X0164379Y0117521D01*
X0164250Y0117392D01*
X0162579Y0119063D01*
X0159869Y0120186D01*
X0158502Y0120186D01*
X0151969Y0126719D01*
X0151969Y0135912D01*
X0152669Y0137602D01*
X0152669Y0139172D01*
X0152006Y0136000D02*
X0156648Y0136000D01*
X0156000Y0136268D02*
X0156000Y0122688D01*
X0157688Y0121000D02*
X0172567Y0121000D01*
X0171000Y0119433D02*
X0171000Y0135763D01*
X0176000Y0135763D02*
X0176000Y0123461D01*
X0181000Y0123581D02*
X0181000Y0135763D01*
X0186000Y0135763D02*
X0186000Y0122925D01*
X0188067Y0121000D02*
X0208253Y0121000D01*
X0206000Y0119799D02*
X0206000Y0131418D01*
X0206418Y0131000D02*
X0196276Y0131000D01*
X0196000Y0130900D02*
X0196000Y0119799D01*
X0191000Y0119717D02*
X0191000Y0132254D01*
X0193404Y0131000D02*
X0151969Y0131000D01*
X0152688Y0126000D02*
X0208276Y0126000D01*
X0201000Y0131565D02*
X0201000Y0119717D01*
X0185574Y0106000D02*
X0181230Y0106000D01*
X0181000Y0105905D02*
X0181000Y0093164D01*
X0176000Y0091439D02*
X0176000Y0103052D01*
X0166000Y0118518D02*
X0166000Y0135763D01*
X0161000Y0135763D02*
X0161000Y0119717D01*
X0223295Y0063418D02*
X0265788Y0105911D01*
X0266935Y0105436D01*
X0268005Y0105436D01*
X0268005Y0088767D01*
X0268812Y0086819D01*
X0270303Y0085328D01*
X0276730Y0078901D01*
X0276207Y0079041D01*
X0275258Y0079166D01*
X0274780Y0079166D01*
X0274780Y0071866D01*
X0274780Y0071866D01*
X0282080Y0071866D01*
X0282080Y0071388D01*
X0281955Y0070439D01*
X0281707Y0069515D01*
X0281341Y0068630D01*
X0280862Y0067802D01*
X0280280Y0067043D01*
X0279603Y0066366D01*
X0278844Y0065783D01*
X0278015Y0065305D01*
X0277131Y0064939D01*
X0276207Y0064691D01*
X0275258Y0064566D01*
X0274780Y0064566D01*
X0274780Y0071866D01*
X0282080Y0071866D01*
X0282080Y0072345D01*
X0281955Y0073293D01*
X0281815Y0073816D01*
X0292213Y0063418D01*
X0266596Y0063418D01*
X0269594Y0064660D01*
X0270717Y0065783D01*
X0271544Y0065305D01*
X0272428Y0064939D01*
X0273352Y0064691D01*
X0274301Y0064566D01*
X0274779Y0064566D01*
X0274779Y0071866D01*
X0274780Y0071866D01*
X0274779Y0071866D01*
X0274779Y0079166D01*
X0274301Y0079166D01*
X0273352Y0079041D01*
X0272428Y0078794D01*
X0271544Y0078427D01*
X0270717Y0077950D01*
X0269594Y0079072D01*
X0266470Y0080366D01*
X0263089Y0080366D01*
X0259965Y0079072D01*
X0257574Y0076681D01*
X0256280Y0073557D01*
X0256280Y0070175D01*
X0257574Y0067051D01*
X0259965Y0064660D01*
X0262963Y0063418D01*
X0223295Y0063418D01*
X0226000Y0063418D02*
X0226000Y0066124D01*
X0225876Y0066000D02*
X0258625Y0066000D01*
X0261000Y0064231D02*
X0261000Y0063418D01*
X0256000Y0063418D02*
X0256000Y0096124D01*
X0255876Y0096000D02*
X0268005Y0096000D01*
X0268005Y0101000D02*
X0260876Y0101000D01*
X0261000Y0101124D02*
X0261000Y0079501D01*
X0266000Y0080366D02*
X0266000Y0105823D01*
X0278605Y0105436D02*
X0279869Y0105436D01*
X0282579Y0106559D01*
X0283402Y0107381D01*
X0284224Y0106559D01*
X0286935Y0105436D01*
X0289869Y0105436D01*
X0291800Y0106236D01*
X0291800Y0078821D01*
X0278605Y0092016D01*
X0278605Y0105436D01*
X0281000Y0105905D02*
X0281000Y0089621D01*
X0279621Y0091000D02*
X0291800Y0091000D01*
X0291800Y0086000D02*
X0284621Y0086000D01*
X0286000Y0084621D02*
X0286000Y0105823D01*
X0285574Y0106000D02*
X0281230Y0106000D01*
X0278605Y0101000D02*
X0291800Y0101000D01*
X0291800Y0096000D02*
X0278605Y0096000D01*
X0268005Y0091000D02*
X0250876Y0091000D01*
X0251000Y0091124D02*
X0251000Y0063418D01*
X0246000Y0063418D02*
X0246000Y0086124D01*
X0245876Y0086000D02*
X0269631Y0086000D01*
X0271000Y0084631D02*
X0271000Y0078113D01*
X0274779Y0076000D02*
X0274780Y0076000D01*
X0276000Y0079068D02*
X0276000Y0079631D01*
X0274631Y0081000D02*
X0240876Y0081000D01*
X0241000Y0081124D02*
X0241000Y0063418D01*
X0236000Y0063418D02*
X0236000Y0076124D01*
X0235876Y0076000D02*
X0257291Y0076000D01*
X0256280Y0071000D02*
X0230876Y0071000D01*
X0231000Y0071124D02*
X0231000Y0063418D01*
X0231000Y0048818D02*
X0231000Y0019717D01*
X0229869Y0020186D02*
X0226935Y0020186D01*
X0224224Y0019063D01*
X0223402Y0018241D01*
X0222579Y0019063D01*
X0219869Y0020186D01*
X0216935Y0020186D01*
X0214224Y0019063D01*
X0213402Y0018241D01*
X0212579Y0019063D01*
X0209869Y0020186D01*
X0206935Y0020186D01*
X0204224Y0019063D01*
X0203402Y0018241D01*
X0202579Y0019063D01*
X0199869Y0020186D01*
X0196935Y0020186D01*
X0194224Y0019063D01*
X0193402Y0018241D01*
X0192579Y0019063D01*
X0189869Y0020186D01*
X0186935Y0020186D01*
X0184224Y0019063D01*
X0183402Y0018241D01*
X0182579Y0019063D01*
X0179869Y0020186D01*
X0176935Y0020186D01*
X0174224Y0019063D01*
X0173402Y0018241D01*
X0172579Y0019063D01*
X0169869Y0020186D01*
X0166935Y0020186D01*
X0164224Y0019063D01*
X0163402Y0018241D01*
X0162579Y0019063D01*
X0162176Y0019230D01*
X0175143Y0032198D01*
X0175950Y0034146D01*
X0175950Y0045817D01*
X0176650Y0047507D01*
X0176650Y0048818D01*
X0248491Y0048818D01*
X0246905Y0047232D01*
X0245180Y0044245D01*
X0244287Y0040914D01*
X0244287Y0037464D01*
X0245180Y0034133D01*
X0246905Y0031146D01*
X0249344Y0028707D01*
X0252330Y0026982D01*
X0255662Y0026090D01*
X0258316Y0026090D01*
X0258276Y0025730D01*
X0268548Y0025730D01*
X0268548Y0032322D01*
X0269593Y0034133D01*
X0270486Y0037464D01*
X0270486Y0040914D01*
X0269593Y0044245D01*
X0267869Y0047232D01*
X0266283Y0048818D01*
X0279701Y0048818D01*
X0279428Y0048646D01*
X0278400Y0047827D01*
X0277471Y0046898D01*
X0276652Y0045870D01*
X0275952Y0044757D01*
X0275382Y0043573D01*
X0274948Y0042333D01*
X0274656Y0041052D01*
X0274587Y0040439D01*
X0284859Y0040439D01*
X0284859Y0037739D01*
X0287559Y0037739D01*
X0287559Y0027467D01*
X0288172Y0027536D01*
X0289453Y0027829D01*
X0290693Y0028263D01*
X0291877Y0028833D01*
X0292990Y0029532D01*
X0294017Y0030351D01*
X0294094Y0030428D01*
X0294094Y0021740D01*
X0292464Y0020111D01*
X0292112Y0020111D01*
X0291931Y0020186D01*
X0284872Y0020186D01*
X0283108Y0019455D01*
X0282647Y0018995D01*
X0282579Y0019063D01*
X0280698Y0019842D01*
X0280724Y0019895D01*
X0281158Y0021135D01*
X0281450Y0022417D01*
X0281520Y0023030D01*
X0271248Y0023030D01*
X0271248Y0025730D01*
X0268548Y0025730D01*
X0268548Y0023030D01*
X0258276Y0023030D01*
X0258345Y0022417D01*
X0258637Y0021135D01*
X0258969Y0020186D01*
X0256935Y0020186D01*
X0254224Y0019063D01*
X0253402Y0018241D01*
X0252579Y0019063D01*
X0249869Y0020186D01*
X0246935Y0020186D01*
X0244224Y0019063D01*
X0242553Y0017392D01*
X0242424Y0017521D01*
X0241638Y0018092D01*
X0240772Y0018533D01*
X0239848Y0018834D01*
X0238888Y0018986D01*
X0238402Y0018986D01*
X0238402Y0013950D01*
X0238402Y0013950D01*
X0238402Y0018986D01*
X0237916Y0018986D01*
X0236956Y0018834D01*
X0236031Y0018533D01*
X0235165Y0018092D01*
X0234379Y0017521D01*
X0234250Y0017392D01*
X0232579Y0019063D01*
X0229869Y0020186D01*
X0226000Y0019799D02*
X0226000Y0048818D01*
X0221000Y0048818D02*
X0221000Y0019717D01*
X0216000Y0019799D02*
X0216000Y0048818D01*
X0211000Y0048818D02*
X0211000Y0019717D01*
X0206000Y0019799D02*
X0206000Y0048818D01*
X0201000Y0048818D02*
X0201000Y0019717D01*
X0196000Y0019799D02*
X0196000Y0048818D01*
X0191000Y0048818D02*
X0191000Y0019717D01*
X0186000Y0019799D02*
X0186000Y0048818D01*
X0181000Y0048818D02*
X0181000Y0019717D01*
X0176000Y0019799D02*
X0176000Y0045937D01*
X0176026Y0046000D02*
X0246193Y0046000D01*
X0246000Y0045665D02*
X0246000Y0048818D01*
X0241000Y0048818D02*
X0241000Y0018417D01*
X0238402Y0016000D02*
X0238402Y0016000D01*
X0236000Y0018518D02*
X0236000Y0048818D01*
X0244311Y0041000D02*
X0175950Y0041000D01*
X0175950Y0036000D02*
X0244680Y0036000D01*
X0246000Y0032713D02*
X0246000Y0019799D01*
X0251000Y0019717D02*
X0251000Y0027751D01*
X0256000Y0026090D02*
X0256000Y0019799D01*
X0258685Y0021000D02*
X0163945Y0021000D01*
X0166000Y0019799D02*
X0166000Y0023055D01*
X0168945Y0026000D02*
X0258306Y0026000D01*
X0261000Y0025730D02*
X0261000Y0023030D01*
X0266000Y0023030D02*
X0266000Y0025730D01*
X0268548Y0026000D02*
X0271248Y0026000D01*
X0271248Y0025730D02*
X0271248Y0036001D01*
X0271861Y0035932D01*
X0273142Y0035640D01*
X0274382Y0035206D01*
X0275332Y0034749D01*
X0274948Y0035845D01*
X0274656Y0037126D01*
X0274587Y0037739D01*
X0284859Y0037739D01*
X0284859Y0027467D01*
X0284246Y0027536D01*
X0282965Y0027829D01*
X0281724Y0028263D01*
X0280774Y0028720D01*
X0281158Y0027624D01*
X0281450Y0026342D01*
X0281520Y0025730D01*
X0271248Y0025730D01*
X0271000Y0025730D02*
X0271000Y0048818D01*
X0268580Y0046000D02*
X0276755Y0046000D01*
X0276000Y0044833D02*
X0276000Y0048818D01*
X0274650Y0041000D02*
X0270463Y0041000D01*
X0276000Y0040439D02*
X0276000Y0037739D01*
X0274913Y0036000D02*
X0271260Y0036000D01*
X0271248Y0036000D02*
X0270093Y0036000D01*
X0271248Y0031000D02*
X0268548Y0031000D01*
X0276000Y0025730D02*
X0276000Y0023030D01*
X0281000Y0023030D02*
X0281000Y0025730D01*
X0281489Y0026000D02*
X0294094Y0026000D01*
X0291000Y0028410D02*
X0291000Y0020186D01*
X0293353Y0021000D02*
X0281111Y0021000D01*
X0281000Y0020684D02*
X0281000Y0019717D01*
X0286000Y0020186D02*
X0286000Y0037739D01*
X0284859Y0036000D02*
X0287559Y0036000D01*
X0287559Y0031000D02*
X0284859Y0031000D01*
X0281000Y0028611D02*
X0281000Y0028075D01*
X0281000Y0037739D02*
X0281000Y0040439D01*
X0281000Y0063418D02*
X0281000Y0068040D01*
X0279126Y0066000D02*
X0289631Y0066000D01*
X0291000Y0064631D02*
X0291000Y0063418D01*
X0286000Y0063418D02*
X0286000Y0069631D01*
X0284631Y0071000D02*
X0282028Y0071000D01*
X0281000Y0071866D02*
X0281000Y0071866D01*
X0276000Y0071866D02*
X0276000Y0071866D01*
X0274779Y0071000D02*
X0274780Y0071000D01*
X0274779Y0066000D02*
X0274780Y0066000D01*
X0276000Y0064664D02*
X0276000Y0063418D01*
X0271000Y0063418D02*
X0271000Y0065619D01*
X0289621Y0081000D02*
X0291800Y0081000D01*
X0291000Y0079621D02*
X0291000Y0105905D01*
X0291230Y0106000D02*
X0291800Y0106000D01*
X0247051Y0031000D02*
X0173945Y0031000D01*
X0171000Y0028055D02*
X0171000Y0019717D01*
D27*
X0157094Y0037450D02*
X0157094Y0046394D01*
X0168850Y0058150D01*
X0174228Y0056118D01*
X0111728Y0066945D02*
X0027142Y0066945D01*
X0026748Y0066551D01*
X0016748Y0066551D02*
X0016748Y0066945D01*
X0011335Y0072358D01*
X0011335Y0099425D01*
X0011433Y0099819D01*
X0011335Y0106807D02*
X0016748Y0106807D01*
X0016748Y0106551D01*
X0011335Y0106807D02*
X0011335Y0130921D01*
X0012319Y0131906D01*
X0013303Y0131906D01*
X0024622Y0143224D01*
X0025114Y0142240D01*
X0063992Y0103362D01*
X0064484Y0103362D01*
X0058874Y0099425D02*
X0047969Y0104543D01*
X0077500Y0082000D02*
X0078559Y0079740D01*
X0108100Y0013150D02*
X0108402Y0012811D01*
X0225550Y0154113D02*
X0226000Y0156925D01*
X0226000Y0163000D01*
X0217000Y0172000D01*
X0214750Y0172000D01*
X0213598Y0172063D01*
X0213400Y0172450D01*
X0213400Y0204513D01*
X0139263Y0204513D01*
X0138571Y0205992D01*
X0137417Y0204445D01*
X0124425Y0204445D01*
X0120882Y0200902D01*
X0120882Y0182299D01*
X0111728Y0172752D01*
X0110800Y0172000D01*
X0108550Y0172000D01*
X0107299Y0172063D01*
X0086138Y0172752D02*
X0083677Y0172291D01*
X0086138Y0172752D02*
X0063992Y0194898D01*
X0055626Y0194898D01*
X0134763Y0209800D02*
X0138571Y0205992D01*
X0135550Y0209800D02*
X0134740Y0210724D01*
X0134740Y0245213D01*
X0142978Y0253450D01*
X0143065Y0253362D01*
X0144307Y0254150D01*
X0135550Y0209800D02*
X0134763Y0209800D01*
X0213400Y0204513D02*
X0234213Y0204513D01*
X0239950Y0210250D01*
X0241039Y0210724D01*
X0241300Y0211150D01*
X0241300Y0211150D01*
X0252100Y0221950D01*
X0280528Y0221950D01*
X0280528Y0234031D01*
X0280528Y0221950D02*
X0303850Y0221950D01*
X0304150Y0222063D01*
X0304750Y0221050D01*
X0311500Y0214300D01*
X0311500Y0159400D01*
X0304300Y0152200D01*
X0304150Y0152063D01*
X0275409Y0163205D02*
X0275409Y0200213D01*
D28*
X0275409Y0200213D03*
X0263598Y0212024D03*
X0251787Y0247457D03*
X0302969Y0235646D03*
X0275409Y0163205D03*
X0243269Y0120925D03*
X0225550Y0154113D03*
X0194840Y0136900D03*
X0180134Y0136433D03*
X0174622Y0124622D03*
X0182102Y0103362D03*
X0208480Y0069110D03*
X0214863Y0062538D03*
X0198638Y0065173D03*
X0170650Y0048700D03*
X0161433Y0061531D03*
X0143126Y0058480D03*
X0157094Y0037450D03*
X0111728Y0066945D03*
X0087614Y0044307D03*
X0070882Y0070390D03*
X0058874Y0099425D03*
X0064484Y0103362D03*
X0080232Y0112024D03*
X0089583Y0153362D03*
X0123441Y0119504D03*
X0143126Y0119898D03*
X0146669Y0138795D03*
X0141945Y0144701D03*
X0172000Y0148713D03*
X0129475Y0190900D03*
X0129813Y0199337D03*
X0110055Y0200213D03*
X0161236Y0231709D03*
X0144307Y0254150D03*
X0055626Y0194898D03*
X0041050Y0205300D03*
X0036550Y0208450D03*
X0039386Y0210646D03*
X0011630Y0223835D03*
X0030700Y0177852D03*
X0044307Y0154543D03*
X0024622Y0143224D03*
X0037220Y0106906D03*
X0036039Y0086039D03*
X0011433Y0099819D03*
X0034071Y0058480D03*
X0028559Y0014780D03*
X0256906Y0087614D03*
X0288402Y0091551D03*
X0297100Y0070807D03*
D29*
X0297100Y0181450D01*
X0303850Y0188200D01*
X0303850Y0191800D01*
X0304150Y0192063D01*
X0251039Y0160724D02*
X0251200Y0160300D01*
X0273305Y0138195D01*
X0273305Y0089821D01*
X0309250Y0053876D01*
X0309250Y0020800D01*
X0297100Y0008650D01*
X0232863Y0008650D01*
X0228813Y0012700D01*
X0228700Y0012700D01*
X0228402Y0012811D01*
X0187300Y0006850D02*
X0298000Y0006850D01*
X0311050Y0019900D01*
X0311050Y0058713D01*
X0299800Y0069963D01*
X0299800Y0118000D01*
X0303850Y0122050D01*
X0304150Y0122063D01*
X0308800Y0133750D02*
X0308800Y0106750D01*
X0304300Y0102250D01*
X0304150Y0102063D01*
X0304150Y0092063D02*
X0304300Y0091900D01*
X0304300Y0081550D01*
X0304150Y0081512D01*
X0304150Y0077969D02*
X0304300Y0077950D01*
X0304300Y0072100D01*
X0312850Y0063550D01*
X0312850Y0019000D01*
X0298900Y0005050D01*
X0176500Y0005050D01*
X0168850Y0012700D01*
X0168402Y0012811D01*
X0178402Y0012811D02*
X0178750Y0012700D01*
X0181450Y0012700D01*
X0187300Y0006850D01*
X0170650Y0035200D02*
X0148600Y0013150D01*
X0148402Y0012811D01*
X0138402Y0012811D02*
X0138303Y0012811D01*
X0127969Y0023146D01*
X0005429Y0023146D01*
X0005429Y0181118D01*
X0035449Y0211138D01*
X0038894Y0211138D01*
X0039386Y0210646D01*
X0037900Y0208450D02*
X0041050Y0205300D01*
X0037900Y0208450D02*
X0036550Y0208450D01*
X0036433Y0208185D01*
X0007398Y0179150D01*
X0007398Y0102378D01*
X0014287Y0102378D01*
X0014780Y0101886D01*
X0018717Y0101886D01*
X0021669Y0104839D01*
X0021669Y0116157D01*
X0016748Y0116157D01*
X0016748Y0116551D01*
X0016039Y0142063D02*
X0015850Y0142300D01*
X0015850Y0142357D01*
X0009550Y0148657D01*
X0009550Y0178750D01*
X0014913Y0184113D01*
X0045137Y0184113D01*
X0092463Y0136787D01*
X0113950Y0136787D01*
X0133413Y0117324D01*
X0133413Y0110463D01*
X0136113Y0107763D01*
X0169750Y0107763D01*
X0173463Y0111475D01*
X0173463Y0114400D01*
X0177344Y0118281D01*
X0183363Y0118281D01*
X0188200Y0113050D01*
X0188402Y0112811D01*
X0178402Y0112811D02*
X0178165Y0112713D01*
X0171276Y0105823D01*
X0116256Y0105823D01*
X0113205Y0108874D01*
X0113205Y0114780D01*
X0099031Y0128953D01*
X0094504Y0128953D01*
X0077280Y0146177D01*
X0021669Y0146177D01*
X0016256Y0151591D01*
X0016039Y0152063D01*
X0016039Y0162063D02*
X0015850Y0162100D01*
X0011350Y0166600D01*
X0011350Y0177850D01*
X0015673Y0182173D01*
X0044377Y0182173D01*
X0095500Y0131050D01*
X0099887Y0131050D01*
X0117887Y0113050D01*
X0118000Y0113050D01*
X0118402Y0112811D01*
X0108402Y0112811D02*
X0107614Y0112024D01*
X0080232Y0112024D01*
X0059563Y0081709D02*
X0021177Y0081709D01*
X0016748Y0086138D01*
X0016748Y0086551D01*
X0016748Y0076551D02*
X0016748Y0076295D01*
X0021669Y0076295D01*
X0021669Y0064976D01*
X0025114Y0061531D01*
X0161433Y0061531D01*
X0170650Y0048700D02*
X0170650Y0035200D01*
X0143126Y0058480D02*
X0034071Y0058480D01*
X0059563Y0081709D02*
X0070882Y0070390D01*
X0129813Y0125818D02*
X0138250Y0116987D01*
X0138402Y0112811D01*
X0146669Y0124524D02*
X0146669Y0138795D01*
X0149518Y0149819D02*
X0136827Y0149819D01*
X0134740Y0151906D01*
X0134740Y0160724D01*
X0134650Y0160750D01*
X0129813Y0163731D02*
X0129813Y0125818D01*
X0146669Y0124524D02*
X0157988Y0113205D01*
X0158402Y0112811D01*
X0158274Y0141063D02*
X0149518Y0149819D01*
X0145000Y0160300D02*
X0144740Y0160724D01*
X0145000Y0160300D02*
X0161256Y0144044D01*
X0226506Y0144044D01*
X0257500Y0113050D01*
X0258400Y0113050D01*
X0258402Y0112811D01*
X0263237Y0110856D02*
X0263237Y0137969D01*
X0241300Y0160300D01*
X0241039Y0160724D01*
X0240850Y0160750D01*
X0213400Y0163000D02*
X0211150Y0160750D01*
X0211039Y0160724D01*
X0213400Y0163000D02*
X0213400Y0168400D01*
X0213598Y0168520D01*
X0213174Y0141063D02*
X0158274Y0141063D01*
X0172000Y0148713D02*
X0172000Y0157150D01*
X0129813Y0199337D01*
X0129475Y0190900D02*
X0129475Y0164575D01*
X0129813Y0163731D01*
X0107200Y0163000D02*
X0104950Y0160750D01*
X0104740Y0160724D01*
X0107200Y0163000D02*
X0107200Y0168400D01*
X0107299Y0168520D01*
X0044307Y0154543D02*
X0033559Y0154543D01*
X0016039Y0172063D01*
X0194840Y0136900D02*
X0207693Y0136827D01*
X0208087Y0136827D01*
X0213598Y0131315D01*
X0213598Y0130921D01*
X0213344Y0074622D01*
X0211423Y0065173D02*
X0198638Y0065173D01*
X0211423Y0065173D02*
X0243269Y0096625D01*
X0243269Y0120925D01*
X0228250Y0125987D02*
X0228250Y0113050D01*
X0228402Y0112811D01*
X0228250Y0125987D02*
X0213174Y0141063D01*
X0208402Y0112811D02*
X0208185Y0112713D01*
X0195882Y0100409D01*
X0218800Y0066419D02*
X0263237Y0110856D01*
X0304300Y0138250D02*
X0308800Y0133750D01*
X0304300Y0138250D02*
X0304300Y0141850D01*
X0304150Y0142063D01*
X0218800Y0066419D02*
X0214863Y0062538D01*
D30*
X0174228Y0056118D02*
X0295488Y0056118D01*
X0301394Y0050213D01*
X0301394Y0018717D01*
X0295488Y0012811D01*
X0288402Y0012811D01*
X0174228Y0056118D02*
X0158480Y0071866D01*
X0086433Y0071866D01*
X0078559Y0079740D01*
X0094740Y0210724D02*
X0094307Y0211157D01*
X0094307Y0232102D01*
X0080567Y0245843D01*
X0043559Y0245843D01*
X0016748Y0256906D02*
X0079740Y0256906D01*
X0111236Y0225409D01*
X0116354Y0225409D01*
X0125016Y0216748D01*
X0125016Y0211000D01*
X0124740Y0210724D01*
X0190724Y0245843D02*
X0190764Y0253362D01*
X0193913Y0256512D01*
X0193913Y0256906D01*
X0225409Y0256906D01*
X0233283Y0249031D01*
X0233283Y0232890D01*
X0230528Y0230134D01*
X0230528Y0211236D01*
X0231039Y0210724D01*
X0211039Y0210724D02*
X0211039Y0241591D01*
X0016748Y0256906D02*
X0013559Y0253717D01*
X0013559Y0245843D01*
D31*
X0078559Y0079740D03*
D32*
X0089583Y0153362D02*
X0089583Y0171898D01*
X0089189Y0172291D01*
X0095488Y0172291D01*
X0107299Y0172291D01*
X0107299Y0172063D01*
X0095488Y0168291D02*
X0094740Y0168291D01*
X0094740Y0160724D01*
X0084740Y0160724D02*
X0084740Y0168291D01*
X0083677Y0168291D01*
X0083677Y0172291D02*
X0089189Y0172291D01*
X0189976Y0172291D02*
X0201787Y0172291D01*
X0201787Y0172450D01*
X0213400Y0172450D01*
X0201787Y0168291D02*
X0201039Y0168291D01*
X0201039Y0160724D01*
X0191039Y0160724D02*
X0191039Y0168291D01*
X0189976Y0168291D01*
D33*
X0211039Y0241591D02*
X0210724Y0245843D01*
M02*
