G75*
%MOIN*%
%OFA0B0*%
%FSLAX25Y25*%
%IPPOS*%
%LPD*%
%AMOC8*
5,1,8,0,0,1.08239X$1,22.5*
%
%ADD10C,0.00000*%
%ADD11C,0.00800*%
%ADD12C,0.01000*%
%ADD13C,0.02100*%
%ADD14C,0.00600*%
%ADD15C,0.00500*%
%ADD16C,0.03000*%
%ADD17R,0.03000X0.02000*%
%ADD18R,0.03000X0.04000*%
D10*
X0001000Y0008874D02*
X0001000Y0252969D01*
X0008874Y0260843D01*
X0312024Y0260843D01*
X0320409Y0252969D01*
X0320409Y0008874D01*
X0312024Y0001000D01*
X0008874Y0001000D01*
X0001000Y0008874D01*
D11*
X0022416Y0140061D02*
X0024518Y0142163D01*
X0025218Y0141463D02*
X0022416Y0144265D01*
X0025218Y0144265D02*
X0025218Y0140061D01*
X0027020Y0140762D02*
X0027720Y0140061D01*
X0029122Y0140061D01*
X0029822Y0140762D01*
X0029822Y0143564D01*
X0029122Y0144265D01*
X0027720Y0144265D01*
X0027020Y0143564D01*
X0031624Y0143564D02*
X0032324Y0144265D01*
X0033725Y0144265D01*
X0034426Y0143564D01*
X0034426Y0142864D01*
X0033725Y0142163D01*
X0032324Y0142163D01*
X0031624Y0141463D01*
X0031624Y0140762D01*
X0032324Y0140061D01*
X0033725Y0140061D01*
X0034426Y0140762D01*
X0036228Y0139361D02*
X0039030Y0139361D01*
X0040831Y0140762D02*
X0040831Y0143564D01*
X0041532Y0144265D01*
X0043634Y0144265D01*
X0043634Y0140061D01*
X0041532Y0140061D01*
X0040831Y0140762D01*
X0045435Y0140762D02*
X0046136Y0140061D01*
X0047537Y0140061D01*
X0048238Y0140762D01*
X0047537Y0142163D02*
X0048238Y0142864D01*
X0048238Y0143564D01*
X0047537Y0144265D01*
X0046136Y0144265D01*
X0045435Y0143564D01*
X0046136Y0142163D02*
X0045435Y0141463D01*
X0045435Y0140762D01*
X0046136Y0142163D02*
X0047537Y0142163D01*
X0047413Y0150061D02*
X0045312Y0150061D01*
X0044611Y0150762D01*
X0044611Y0153564D01*
X0045312Y0154265D01*
X0047413Y0154265D01*
X0047413Y0150061D01*
X0049215Y0150762D02*
X0049916Y0150061D01*
X0051317Y0150061D01*
X0052017Y0150762D01*
X0051317Y0152163D02*
X0049916Y0152163D01*
X0049215Y0151463D01*
X0049215Y0150762D01*
X0051317Y0152163D02*
X0052017Y0152864D01*
X0052017Y0153564D01*
X0051317Y0154265D01*
X0049916Y0154265D01*
X0049215Y0153564D01*
X0050309Y0160219D02*
X0051710Y0160219D01*
X0052411Y0160919D01*
X0051710Y0162321D02*
X0050309Y0162321D01*
X0049609Y0161620D01*
X0049609Y0160919D01*
X0050309Y0160219D01*
X0047807Y0160219D02*
X0045705Y0160219D01*
X0045005Y0160919D01*
X0045005Y0163722D01*
X0045705Y0164422D01*
X0047807Y0164422D01*
X0047807Y0160219D01*
X0049609Y0163722D02*
X0050309Y0164422D01*
X0051710Y0164422D01*
X0052411Y0163722D01*
X0052411Y0163021D01*
X0051710Y0162321D01*
X0043203Y0159518D02*
X0040401Y0159518D01*
X0038599Y0160219D02*
X0038599Y0164422D01*
X0037198Y0163021D01*
X0035797Y0164422D01*
X0035797Y0160219D01*
X0033995Y0160919D02*
X0033295Y0160219D01*
X0031894Y0160219D01*
X0031193Y0160919D01*
X0031193Y0163722D01*
X0031894Y0164422D01*
X0033295Y0164422D01*
X0033995Y0163722D01*
X0033995Y0160919D01*
X0029391Y0160919D02*
X0028691Y0160219D01*
X0027290Y0160219D01*
X0026589Y0160919D01*
X0026589Y0161620D01*
X0027290Y0162321D01*
X0028691Y0162321D01*
X0029391Y0163021D01*
X0029391Y0163722D01*
X0028691Y0164422D01*
X0027290Y0164422D01*
X0026589Y0163722D01*
X0024787Y0164422D02*
X0023386Y0164422D01*
X0024087Y0164422D02*
X0024087Y0160219D01*
X0024787Y0160219D02*
X0023386Y0160219D01*
X0023827Y0154265D02*
X0023126Y0153564D01*
X0023126Y0150762D01*
X0023827Y0150061D01*
X0025228Y0150061D01*
X0025928Y0150762D01*
X0025928Y0153564D01*
X0025228Y0154265D01*
X0023827Y0154265D01*
X0027730Y0153564D02*
X0028431Y0154265D01*
X0029832Y0154265D01*
X0030532Y0153564D01*
X0030532Y0152864D01*
X0029832Y0152163D01*
X0028431Y0152163D01*
X0027730Y0151463D01*
X0027730Y0150762D01*
X0028431Y0150061D01*
X0029832Y0150061D01*
X0030532Y0150762D01*
X0032200Y0150061D02*
X0033602Y0150061D01*
X0032901Y0150061D02*
X0032901Y0154265D01*
X0033602Y0154265D02*
X0032200Y0154265D01*
X0035403Y0154265D02*
X0035403Y0150061D01*
X0038206Y0150061D02*
X0038206Y0154265D01*
X0036804Y0152864D01*
X0035403Y0154265D01*
X0040007Y0149361D02*
X0042809Y0149361D01*
X0035723Y0169518D02*
X0032920Y0169518D01*
X0031119Y0170919D02*
X0030418Y0170219D01*
X0029017Y0170219D01*
X0028317Y0170919D01*
X0026515Y0170919D02*
X0025814Y0170219D01*
X0024413Y0170219D01*
X0023713Y0170919D01*
X0023713Y0171620D01*
X0024413Y0172321D01*
X0025814Y0172321D01*
X0026515Y0173021D01*
X0026515Y0173722D01*
X0025814Y0174422D01*
X0024413Y0174422D01*
X0023713Y0173722D01*
X0028317Y0173722D02*
X0029017Y0174422D01*
X0030418Y0174422D01*
X0031119Y0173722D01*
X0031119Y0170919D01*
X0037524Y0170919D02*
X0037524Y0173722D01*
X0038225Y0174422D01*
X0040327Y0174422D01*
X0040327Y0170219D01*
X0038225Y0170219D01*
X0037524Y0170919D01*
X0042128Y0170919D02*
X0042829Y0170219D01*
X0044230Y0170219D01*
X0044931Y0170919D01*
X0044230Y0172321D02*
X0042829Y0172321D01*
X0042128Y0171620D01*
X0042128Y0170919D01*
X0044230Y0172321D02*
X0044931Y0173021D01*
X0044931Y0173722D01*
X0044230Y0174422D01*
X0042829Y0174422D01*
X0042128Y0173722D01*
X0079677Y0173541D02*
X0079677Y0167041D01*
X0079679Y0166981D01*
X0079684Y0166920D01*
X0079693Y0166861D01*
X0079706Y0166802D01*
X0079722Y0166743D01*
X0079742Y0166686D01*
X0079765Y0166631D01*
X0079792Y0166576D01*
X0079821Y0166524D01*
X0079854Y0166473D01*
X0079890Y0166424D01*
X0079928Y0166378D01*
X0079970Y0166334D01*
X0080014Y0166292D01*
X0080060Y0166254D01*
X0080109Y0166218D01*
X0080160Y0166185D01*
X0080212Y0166156D01*
X0080267Y0166129D01*
X0080322Y0166106D01*
X0080379Y0166086D01*
X0080438Y0166070D01*
X0080497Y0166057D01*
X0080556Y0166048D01*
X0080617Y0166043D01*
X0080677Y0166041D01*
X0086677Y0166041D02*
X0086737Y0166043D01*
X0086798Y0166048D01*
X0086857Y0166057D01*
X0086916Y0166070D01*
X0086975Y0166086D01*
X0087032Y0166106D01*
X0087087Y0166129D01*
X0087142Y0166156D01*
X0087194Y0166185D01*
X0087245Y0166218D01*
X0087294Y0166254D01*
X0087340Y0166292D01*
X0087384Y0166334D01*
X0087426Y0166378D01*
X0087464Y0166424D01*
X0087500Y0166473D01*
X0087533Y0166524D01*
X0087562Y0166576D01*
X0087589Y0166631D01*
X0087612Y0166686D01*
X0087632Y0166743D01*
X0087648Y0166802D01*
X0087661Y0166861D01*
X0087670Y0166920D01*
X0087675Y0166981D01*
X0087677Y0167041D01*
X0087677Y0173541D01*
X0087675Y0173601D01*
X0087670Y0173662D01*
X0087661Y0173721D01*
X0087648Y0173780D01*
X0087632Y0173839D01*
X0087612Y0173896D01*
X0087589Y0173951D01*
X0087562Y0174006D01*
X0087533Y0174058D01*
X0087500Y0174109D01*
X0087464Y0174158D01*
X0087426Y0174204D01*
X0087384Y0174248D01*
X0087340Y0174290D01*
X0087294Y0174328D01*
X0087245Y0174364D01*
X0087194Y0174397D01*
X0087142Y0174426D01*
X0087087Y0174453D01*
X0087032Y0174476D01*
X0086975Y0174496D01*
X0086916Y0174512D01*
X0086857Y0174525D01*
X0086798Y0174534D01*
X0086737Y0174539D01*
X0086677Y0174541D01*
X0080677Y0174541D02*
X0080617Y0174539D01*
X0080556Y0174534D01*
X0080497Y0174525D01*
X0080438Y0174512D01*
X0080379Y0174496D01*
X0080322Y0174476D01*
X0080267Y0174453D01*
X0080212Y0174426D01*
X0080160Y0174397D01*
X0080109Y0174364D01*
X0080060Y0174328D01*
X0080014Y0174290D01*
X0079970Y0174248D01*
X0079928Y0174204D01*
X0079890Y0174158D01*
X0079854Y0174109D01*
X0079821Y0174058D01*
X0079792Y0174006D01*
X0079765Y0173951D01*
X0079742Y0173896D01*
X0079722Y0173839D01*
X0079706Y0173780D01*
X0079693Y0173721D01*
X0079684Y0173662D01*
X0079679Y0173601D01*
X0079677Y0173541D01*
X0091488Y0173541D02*
X0091488Y0167041D01*
X0091490Y0166981D01*
X0091495Y0166920D01*
X0091504Y0166861D01*
X0091517Y0166802D01*
X0091533Y0166743D01*
X0091553Y0166686D01*
X0091576Y0166631D01*
X0091603Y0166576D01*
X0091632Y0166524D01*
X0091665Y0166473D01*
X0091701Y0166424D01*
X0091739Y0166378D01*
X0091781Y0166334D01*
X0091825Y0166292D01*
X0091871Y0166254D01*
X0091920Y0166218D01*
X0091971Y0166185D01*
X0092023Y0166156D01*
X0092078Y0166129D01*
X0092133Y0166106D01*
X0092190Y0166086D01*
X0092249Y0166070D01*
X0092308Y0166057D01*
X0092367Y0166048D01*
X0092428Y0166043D01*
X0092488Y0166041D01*
X0098488Y0166041D02*
X0098548Y0166043D01*
X0098609Y0166048D01*
X0098668Y0166057D01*
X0098727Y0166070D01*
X0098786Y0166086D01*
X0098843Y0166106D01*
X0098898Y0166129D01*
X0098953Y0166156D01*
X0099005Y0166185D01*
X0099056Y0166218D01*
X0099105Y0166254D01*
X0099151Y0166292D01*
X0099195Y0166334D01*
X0099237Y0166378D01*
X0099275Y0166424D01*
X0099311Y0166473D01*
X0099344Y0166524D01*
X0099373Y0166576D01*
X0099400Y0166631D01*
X0099423Y0166686D01*
X0099443Y0166743D01*
X0099459Y0166802D01*
X0099472Y0166861D01*
X0099481Y0166920D01*
X0099486Y0166981D01*
X0099488Y0167041D01*
X0099488Y0173541D01*
X0099486Y0173601D01*
X0099481Y0173662D01*
X0099472Y0173721D01*
X0099459Y0173780D01*
X0099443Y0173839D01*
X0099423Y0173896D01*
X0099400Y0173951D01*
X0099373Y0174006D01*
X0099344Y0174058D01*
X0099311Y0174109D01*
X0099275Y0174158D01*
X0099237Y0174204D01*
X0099195Y0174248D01*
X0099151Y0174290D01*
X0099105Y0174328D01*
X0099056Y0174364D01*
X0099005Y0174397D01*
X0098953Y0174426D01*
X0098898Y0174453D01*
X0098843Y0174476D01*
X0098786Y0174496D01*
X0098727Y0174512D01*
X0098668Y0174525D01*
X0098609Y0174534D01*
X0098548Y0174539D01*
X0098488Y0174541D01*
X0103362Y0173441D02*
X0103362Y0167142D01*
X0103361Y0167142D02*
X0103376Y0167081D01*
X0103394Y0167020D01*
X0103416Y0166961D01*
X0103441Y0166903D01*
X0103471Y0166848D01*
X0103503Y0166794D01*
X0103539Y0166742D01*
X0103578Y0166692D01*
X0103620Y0166645D01*
X0103665Y0166601D01*
X0103713Y0166560D01*
X0103763Y0166522D01*
X0103816Y0166487D01*
X0103870Y0166455D01*
X0103927Y0166427D01*
X0103985Y0166402D01*
X0104044Y0166381D01*
X0104105Y0166364D01*
X0104167Y0166351D01*
X0104229Y0166342D01*
X0104292Y0166336D01*
X0104355Y0166335D01*
X0104418Y0166338D01*
X0104481Y0166344D01*
X0104543Y0166354D01*
X0110055Y0166354D02*
X0110115Y0166344D01*
X0110175Y0166338D01*
X0110236Y0166335D01*
X0110296Y0166336D01*
X0110357Y0166340D01*
X0110417Y0166349D01*
X0110476Y0166360D01*
X0110535Y0166376D01*
X0110593Y0166395D01*
X0110649Y0166417D01*
X0110704Y0166443D01*
X0110757Y0166472D01*
X0110809Y0166504D01*
X0110858Y0166539D01*
X0110906Y0166577D01*
X0110950Y0166618D01*
X0110993Y0166661D01*
X0111032Y0166707D01*
X0111069Y0166755D01*
X0111103Y0166806D01*
X0111133Y0166858D01*
X0111161Y0166912D01*
X0111185Y0166968D01*
X0111206Y0167025D01*
X0111223Y0167083D01*
X0111237Y0167142D01*
X0111236Y0167142D02*
X0111236Y0173441D01*
X0111237Y0173441D02*
X0111223Y0173500D01*
X0111206Y0173558D01*
X0111185Y0173615D01*
X0111161Y0173671D01*
X0111133Y0173725D01*
X0111103Y0173777D01*
X0111069Y0173828D01*
X0111032Y0173876D01*
X0110993Y0173922D01*
X0110950Y0173965D01*
X0110906Y0174006D01*
X0110858Y0174044D01*
X0110809Y0174079D01*
X0110757Y0174111D01*
X0110704Y0174140D01*
X0110649Y0174166D01*
X0110593Y0174188D01*
X0110535Y0174207D01*
X0110476Y0174223D01*
X0110417Y0174234D01*
X0110357Y0174243D01*
X0110296Y0174247D01*
X0110236Y0174248D01*
X0110175Y0174245D01*
X0110115Y0174239D01*
X0110055Y0174229D01*
X0104543Y0174229D02*
X0104481Y0174239D01*
X0104418Y0174245D01*
X0104355Y0174248D01*
X0104292Y0174247D01*
X0104229Y0174241D01*
X0104167Y0174232D01*
X0104105Y0174219D01*
X0104044Y0174202D01*
X0103985Y0174181D01*
X0103927Y0174156D01*
X0103870Y0174128D01*
X0103816Y0174096D01*
X0103763Y0174061D01*
X0103713Y0174023D01*
X0103665Y0173982D01*
X0103620Y0173938D01*
X0103578Y0173891D01*
X0103539Y0173841D01*
X0103503Y0173789D01*
X0103471Y0173735D01*
X0103441Y0173680D01*
X0103416Y0173622D01*
X0103394Y0173563D01*
X0103376Y0173502D01*
X0103361Y0173441D01*
X0092488Y0174541D02*
X0092428Y0174539D01*
X0092367Y0174534D01*
X0092308Y0174525D01*
X0092249Y0174512D01*
X0092190Y0174496D01*
X0092133Y0174476D01*
X0092078Y0174453D01*
X0092023Y0174426D01*
X0091971Y0174397D01*
X0091920Y0174364D01*
X0091871Y0174328D01*
X0091825Y0174290D01*
X0091781Y0174248D01*
X0091739Y0174204D01*
X0091701Y0174158D01*
X0091665Y0174109D01*
X0091632Y0174058D01*
X0091603Y0174006D01*
X0091576Y0173951D01*
X0091553Y0173896D01*
X0091533Y0173839D01*
X0091517Y0173780D01*
X0091504Y0173721D01*
X0091495Y0173662D01*
X0091490Y0173601D01*
X0091488Y0173541D01*
X0043024Y0228624D02*
X0043024Y0232828D01*
X0041623Y0231427D01*
X0040222Y0232828D01*
X0040222Y0228624D01*
X0038420Y0228624D02*
X0035618Y0231427D01*
X0035618Y0232127D01*
X0036319Y0232828D01*
X0037720Y0232828D01*
X0038420Y0232127D01*
X0038420Y0228624D02*
X0035618Y0228624D01*
X0033817Y0227924D02*
X0031014Y0227924D01*
X0029213Y0229325D02*
X0028512Y0228624D01*
X0027111Y0228624D01*
X0026410Y0229325D01*
X0024609Y0229325D02*
X0023908Y0228624D01*
X0022507Y0228624D01*
X0021806Y0229325D01*
X0021806Y0232127D01*
X0022507Y0232828D01*
X0023908Y0232828D01*
X0024609Y0232127D01*
X0024609Y0229325D01*
X0026410Y0232127D02*
X0027111Y0232828D01*
X0028512Y0232828D01*
X0029213Y0232127D01*
X0029213Y0229325D01*
X0020005Y0228624D02*
X0020005Y0232828D01*
X0017202Y0228624D01*
X0017202Y0232828D01*
X0015401Y0232828D02*
X0012598Y0228624D01*
X0012598Y0232828D01*
X0015401Y0232828D02*
X0015401Y0228624D01*
X0185976Y0173541D02*
X0185976Y0167041D01*
X0185978Y0166981D01*
X0185983Y0166920D01*
X0185992Y0166861D01*
X0186005Y0166802D01*
X0186021Y0166743D01*
X0186041Y0166686D01*
X0186064Y0166631D01*
X0186091Y0166576D01*
X0186120Y0166524D01*
X0186153Y0166473D01*
X0186189Y0166424D01*
X0186227Y0166378D01*
X0186269Y0166334D01*
X0186313Y0166292D01*
X0186359Y0166254D01*
X0186408Y0166218D01*
X0186459Y0166185D01*
X0186511Y0166156D01*
X0186566Y0166129D01*
X0186621Y0166106D01*
X0186678Y0166086D01*
X0186737Y0166070D01*
X0186796Y0166057D01*
X0186855Y0166048D01*
X0186916Y0166043D01*
X0186976Y0166041D01*
X0192976Y0166041D02*
X0193036Y0166043D01*
X0193097Y0166048D01*
X0193156Y0166057D01*
X0193215Y0166070D01*
X0193274Y0166086D01*
X0193331Y0166106D01*
X0193386Y0166129D01*
X0193441Y0166156D01*
X0193493Y0166185D01*
X0193544Y0166218D01*
X0193593Y0166254D01*
X0193639Y0166292D01*
X0193683Y0166334D01*
X0193725Y0166378D01*
X0193763Y0166424D01*
X0193799Y0166473D01*
X0193832Y0166524D01*
X0193861Y0166576D01*
X0193888Y0166631D01*
X0193911Y0166686D01*
X0193931Y0166743D01*
X0193947Y0166802D01*
X0193960Y0166861D01*
X0193969Y0166920D01*
X0193974Y0166981D01*
X0193976Y0167041D01*
X0193976Y0173541D01*
X0193974Y0173601D01*
X0193969Y0173662D01*
X0193960Y0173721D01*
X0193947Y0173780D01*
X0193931Y0173839D01*
X0193911Y0173896D01*
X0193888Y0173951D01*
X0193861Y0174006D01*
X0193832Y0174058D01*
X0193799Y0174109D01*
X0193763Y0174158D01*
X0193725Y0174204D01*
X0193683Y0174248D01*
X0193639Y0174290D01*
X0193593Y0174328D01*
X0193544Y0174364D01*
X0193493Y0174397D01*
X0193441Y0174426D01*
X0193386Y0174453D01*
X0193331Y0174476D01*
X0193274Y0174496D01*
X0193215Y0174512D01*
X0193156Y0174525D01*
X0193097Y0174534D01*
X0193036Y0174539D01*
X0192976Y0174541D01*
X0197787Y0173541D02*
X0197787Y0167041D01*
X0197789Y0166981D01*
X0197794Y0166920D01*
X0197803Y0166861D01*
X0197816Y0166802D01*
X0197832Y0166743D01*
X0197852Y0166686D01*
X0197875Y0166631D01*
X0197902Y0166576D01*
X0197931Y0166524D01*
X0197964Y0166473D01*
X0198000Y0166424D01*
X0198038Y0166378D01*
X0198080Y0166334D01*
X0198124Y0166292D01*
X0198170Y0166254D01*
X0198219Y0166218D01*
X0198270Y0166185D01*
X0198322Y0166156D01*
X0198377Y0166129D01*
X0198432Y0166106D01*
X0198489Y0166086D01*
X0198548Y0166070D01*
X0198607Y0166057D01*
X0198666Y0166048D01*
X0198727Y0166043D01*
X0198787Y0166041D01*
X0204787Y0166041D02*
X0204847Y0166043D01*
X0204908Y0166048D01*
X0204967Y0166057D01*
X0205026Y0166070D01*
X0205085Y0166086D01*
X0205142Y0166106D01*
X0205197Y0166129D01*
X0205252Y0166156D01*
X0205304Y0166185D01*
X0205355Y0166218D01*
X0205404Y0166254D01*
X0205450Y0166292D01*
X0205494Y0166334D01*
X0205536Y0166378D01*
X0205574Y0166424D01*
X0205610Y0166473D01*
X0205643Y0166524D01*
X0205672Y0166576D01*
X0205699Y0166631D01*
X0205722Y0166686D01*
X0205742Y0166743D01*
X0205758Y0166802D01*
X0205771Y0166861D01*
X0205780Y0166920D01*
X0205785Y0166981D01*
X0205787Y0167041D01*
X0205787Y0173541D01*
X0205785Y0173601D01*
X0205780Y0173662D01*
X0205771Y0173721D01*
X0205758Y0173780D01*
X0205742Y0173839D01*
X0205722Y0173896D01*
X0205699Y0173951D01*
X0205672Y0174006D01*
X0205643Y0174058D01*
X0205610Y0174109D01*
X0205574Y0174158D01*
X0205536Y0174204D01*
X0205494Y0174248D01*
X0205450Y0174290D01*
X0205404Y0174328D01*
X0205355Y0174364D01*
X0205304Y0174397D01*
X0205252Y0174426D01*
X0205197Y0174453D01*
X0205142Y0174476D01*
X0205085Y0174496D01*
X0205026Y0174512D01*
X0204967Y0174525D01*
X0204908Y0174534D01*
X0204847Y0174539D01*
X0204787Y0174541D01*
X0209661Y0173441D02*
X0209661Y0167142D01*
X0209676Y0167081D01*
X0209694Y0167020D01*
X0209716Y0166961D01*
X0209741Y0166903D01*
X0209771Y0166848D01*
X0209803Y0166794D01*
X0209839Y0166742D01*
X0209878Y0166692D01*
X0209920Y0166645D01*
X0209965Y0166601D01*
X0210013Y0166560D01*
X0210063Y0166522D01*
X0210116Y0166487D01*
X0210170Y0166455D01*
X0210227Y0166427D01*
X0210285Y0166402D01*
X0210344Y0166381D01*
X0210405Y0166364D01*
X0210467Y0166351D01*
X0210529Y0166342D01*
X0210592Y0166336D01*
X0210655Y0166335D01*
X0210718Y0166338D01*
X0210781Y0166344D01*
X0210843Y0166354D01*
X0216354Y0166354D02*
X0216414Y0166344D01*
X0216474Y0166338D01*
X0216535Y0166335D01*
X0216595Y0166336D01*
X0216656Y0166340D01*
X0216716Y0166349D01*
X0216775Y0166360D01*
X0216834Y0166376D01*
X0216892Y0166395D01*
X0216948Y0166417D01*
X0217003Y0166443D01*
X0217056Y0166472D01*
X0217108Y0166504D01*
X0217157Y0166539D01*
X0217205Y0166577D01*
X0217249Y0166618D01*
X0217292Y0166661D01*
X0217331Y0166707D01*
X0217368Y0166755D01*
X0217402Y0166806D01*
X0217432Y0166858D01*
X0217460Y0166912D01*
X0217484Y0166968D01*
X0217505Y0167025D01*
X0217522Y0167083D01*
X0217536Y0167142D01*
X0217535Y0167142D02*
X0217535Y0173441D01*
X0217536Y0173441D02*
X0217522Y0173500D01*
X0217505Y0173558D01*
X0217484Y0173615D01*
X0217460Y0173671D01*
X0217432Y0173725D01*
X0217402Y0173777D01*
X0217368Y0173828D01*
X0217331Y0173876D01*
X0217292Y0173922D01*
X0217249Y0173965D01*
X0217205Y0174006D01*
X0217157Y0174044D01*
X0217108Y0174079D01*
X0217056Y0174111D01*
X0217003Y0174140D01*
X0216948Y0174166D01*
X0216892Y0174188D01*
X0216834Y0174207D01*
X0216775Y0174223D01*
X0216716Y0174234D01*
X0216656Y0174243D01*
X0216595Y0174247D01*
X0216535Y0174248D01*
X0216474Y0174245D01*
X0216414Y0174239D01*
X0216354Y0174229D01*
X0210843Y0174229D02*
X0210781Y0174239D01*
X0210718Y0174245D01*
X0210655Y0174248D01*
X0210592Y0174247D01*
X0210529Y0174241D01*
X0210467Y0174232D01*
X0210405Y0174219D01*
X0210344Y0174202D01*
X0210285Y0174181D01*
X0210227Y0174156D01*
X0210170Y0174128D01*
X0210116Y0174096D01*
X0210063Y0174061D01*
X0210013Y0174023D01*
X0209965Y0173982D01*
X0209920Y0173938D01*
X0209878Y0173891D01*
X0209839Y0173841D01*
X0209803Y0173789D01*
X0209771Y0173735D01*
X0209741Y0173680D01*
X0209716Y0173622D01*
X0209694Y0173563D01*
X0209676Y0173502D01*
X0209661Y0173441D01*
X0198787Y0174541D02*
X0198727Y0174539D01*
X0198666Y0174534D01*
X0198607Y0174525D01*
X0198548Y0174512D01*
X0198489Y0174496D01*
X0198432Y0174476D01*
X0198377Y0174453D01*
X0198322Y0174426D01*
X0198270Y0174397D01*
X0198219Y0174364D01*
X0198170Y0174328D01*
X0198124Y0174290D01*
X0198080Y0174248D01*
X0198038Y0174204D01*
X0198000Y0174158D01*
X0197964Y0174109D01*
X0197931Y0174058D01*
X0197902Y0174006D01*
X0197875Y0173951D01*
X0197852Y0173896D01*
X0197832Y0173839D01*
X0197816Y0173780D01*
X0197803Y0173721D01*
X0197794Y0173662D01*
X0197789Y0173601D01*
X0197787Y0173541D01*
X0186976Y0174541D02*
X0186916Y0174539D01*
X0186855Y0174534D01*
X0186796Y0174525D01*
X0186737Y0174512D01*
X0186678Y0174496D01*
X0186621Y0174476D01*
X0186566Y0174453D01*
X0186511Y0174426D01*
X0186459Y0174397D01*
X0186408Y0174364D01*
X0186359Y0174328D01*
X0186313Y0174290D01*
X0186269Y0174248D01*
X0186227Y0174204D01*
X0186189Y0174158D01*
X0186153Y0174109D01*
X0186120Y0174058D01*
X0186091Y0174006D01*
X0186064Y0173951D01*
X0186041Y0173896D01*
X0186021Y0173839D01*
X0186005Y0173780D01*
X0185992Y0173721D01*
X0185983Y0173662D01*
X0185978Y0173601D01*
X0185976Y0173541D01*
X0250404Y0117352D02*
X0251805Y0118753D01*
X0253473Y0118753D02*
X0254874Y0118753D01*
X0254174Y0118753D02*
X0254174Y0114550D01*
X0254874Y0114550D02*
X0253473Y0114550D01*
X0251805Y0114550D02*
X0250404Y0115951D01*
X0250404Y0117352D01*
X0256676Y0118053D02*
X0257376Y0118753D01*
X0258777Y0118753D01*
X0259478Y0118053D01*
X0259478Y0117352D01*
X0258777Y0116651D01*
X0257376Y0116651D01*
X0256676Y0115951D01*
X0256676Y0115250D01*
X0257376Y0114550D01*
X0258777Y0114550D01*
X0259478Y0115250D01*
X0261280Y0115250D02*
X0261280Y0118053D01*
X0261980Y0118753D01*
X0263381Y0118753D01*
X0264082Y0118053D01*
X0264082Y0115250D01*
X0263381Y0114550D01*
X0261980Y0114550D01*
X0261280Y0115250D01*
X0265884Y0114550D02*
X0265884Y0118753D01*
X0267285Y0117352D01*
X0268686Y0118753D01*
X0268686Y0114550D01*
X0270354Y0114550D02*
X0271755Y0115951D01*
X0271755Y0117352D01*
X0270354Y0118753D01*
X0278161Y0118753D02*
X0278161Y0114550D01*
X0280963Y0118753D01*
X0280963Y0114550D01*
X0282631Y0114550D02*
X0284032Y0114550D01*
X0283332Y0114550D02*
X0283332Y0118753D01*
X0284032Y0118753D02*
X0282631Y0118753D01*
X0282938Y0121794D02*
X0281537Y0121794D01*
X0280836Y0122494D01*
X0280836Y0123195D01*
X0281537Y0123895D01*
X0282938Y0123895D01*
X0283639Y0124596D01*
X0283639Y0125297D01*
X0282938Y0125997D01*
X0281537Y0125997D01*
X0280836Y0125297D01*
X0283639Y0122494D02*
X0282938Y0121794D01*
X0285440Y0122494D02*
X0286141Y0121794D01*
X0287542Y0121794D01*
X0288243Y0122494D01*
X0288243Y0125297D01*
X0287542Y0125997D01*
X0286141Y0125997D01*
X0285440Y0125297D01*
X0286141Y0129825D02*
X0285440Y0130526D01*
X0286141Y0129825D02*
X0287542Y0129825D01*
X0288243Y0130526D01*
X0288243Y0133328D01*
X0287542Y0134029D01*
X0286141Y0134029D01*
X0285440Y0133328D01*
X0283639Y0134029D02*
X0283639Y0129825D01*
X0280836Y0129825D01*
X0279035Y0129825D02*
X0279035Y0134029D01*
X0278334Y0131927D02*
X0276232Y0129825D01*
X0279035Y0131226D02*
X0276232Y0134029D01*
X0275965Y0139825D02*
X0275965Y0144029D01*
X0274564Y0142628D01*
X0273163Y0144029D01*
X0273163Y0139825D01*
X0271361Y0139825D02*
X0269960Y0139825D01*
X0270661Y0139825D02*
X0270661Y0144029D01*
X0271361Y0144029D02*
X0269960Y0144029D01*
X0268292Y0143328D02*
X0268292Y0142628D01*
X0267592Y0141927D01*
X0266190Y0141927D01*
X0265490Y0141226D01*
X0265490Y0140526D01*
X0266190Y0139825D01*
X0267592Y0139825D01*
X0268292Y0140526D01*
X0268292Y0143328D02*
X0267592Y0144029D01*
X0266190Y0144029D01*
X0265490Y0143328D01*
X0263688Y0143328D02*
X0263688Y0140526D01*
X0262988Y0139825D01*
X0261586Y0139825D01*
X0260886Y0140526D01*
X0260886Y0143328D01*
X0261586Y0144029D01*
X0262988Y0144029D01*
X0263688Y0143328D01*
X0259084Y0144029D02*
X0257683Y0142628D01*
X0257683Y0141226D01*
X0259084Y0139825D01*
X0260052Y0134029D02*
X0261453Y0134029D01*
X0262154Y0133328D01*
X0262154Y0130526D01*
X0261453Y0129825D01*
X0260052Y0129825D01*
X0259351Y0130526D01*
X0257550Y0131226D02*
X0254747Y0134029D01*
X0252946Y0134029D02*
X0251545Y0132628D01*
X0251545Y0131226D01*
X0252946Y0129825D01*
X0254747Y0129825D02*
X0256849Y0131927D01*
X0257550Y0134029D02*
X0257550Y0129825D01*
X0259351Y0133328D02*
X0260052Y0134029D01*
X0263955Y0133328D02*
X0264656Y0134029D01*
X0266057Y0134029D01*
X0266758Y0133328D01*
X0266758Y0132628D01*
X0266057Y0131927D01*
X0264656Y0131927D01*
X0263955Y0131226D01*
X0263955Y0130526D01*
X0264656Y0129825D01*
X0266057Y0129825D01*
X0266758Y0130526D01*
X0268426Y0129825D02*
X0269827Y0131226D01*
X0269827Y0132628D01*
X0268426Y0134029D01*
X0277634Y0139825D02*
X0279035Y0141226D01*
X0279035Y0142628D01*
X0277634Y0144029D01*
X0285440Y0143328D02*
X0285440Y0140526D01*
X0286141Y0139825D01*
X0287542Y0139825D01*
X0288243Y0140526D01*
X0288243Y0143328D01*
X0287542Y0144029D01*
X0286141Y0144029D01*
X0285440Y0143328D01*
X0290044Y0143328D02*
X0290044Y0140526D01*
X0290745Y0139825D01*
X0292846Y0139825D01*
X0292846Y0144029D01*
X0290745Y0144029D01*
X0290044Y0143328D01*
X0294648Y0143328D02*
X0295349Y0144029D01*
X0296750Y0144029D01*
X0297450Y0143328D01*
X0297450Y0142628D01*
X0296750Y0141927D01*
X0295349Y0141927D01*
X0294648Y0141226D01*
X0294648Y0140526D01*
X0295349Y0139825D01*
X0296750Y0139825D01*
X0297450Y0140526D01*
X0297450Y0134029D02*
X0294648Y0134029D01*
X0296049Y0134029D02*
X0296049Y0129825D01*
X0292846Y0129125D02*
X0290044Y0129125D01*
X0294648Y0125997D02*
X0297450Y0125997D01*
X0296049Y0125997D02*
X0296049Y0121794D01*
X0296443Y0118753D02*
X0296443Y0114550D01*
X0293240Y0113849D02*
X0290438Y0113849D01*
X0288636Y0114550D02*
X0286534Y0114550D01*
X0285834Y0115250D01*
X0285834Y0118053D01*
X0286534Y0118753D01*
X0288636Y0118753D01*
X0288636Y0114550D01*
X0290044Y0121093D02*
X0292846Y0121093D01*
X0295042Y0118753D02*
X0297844Y0118753D01*
X0297450Y0104029D02*
X0294648Y0104029D01*
X0296049Y0104029D02*
X0296049Y0099825D01*
X0292846Y0099125D02*
X0290044Y0099125D01*
X0288243Y0099825D02*
X0288243Y0104029D01*
X0286141Y0104029D01*
X0285440Y0103328D01*
X0285440Y0100526D01*
X0286141Y0099825D01*
X0288243Y0099825D01*
X0283639Y0100526D02*
X0283639Y0103328D01*
X0282938Y0104029D01*
X0281537Y0104029D01*
X0280836Y0103328D01*
X0280836Y0100526D01*
X0281537Y0099825D01*
X0282938Y0099825D01*
X0283639Y0100526D01*
X0279035Y0100526D02*
X0278334Y0099825D01*
X0276933Y0099825D01*
X0276232Y0100526D01*
X0276232Y0104029D01*
X0274431Y0104029D02*
X0271628Y0104029D01*
X0273030Y0104029D02*
X0273030Y0099825D01*
X0279035Y0100526D02*
X0279035Y0104029D01*
X0278468Y0094186D02*
X0277767Y0093486D01*
X0277767Y0090683D01*
X0278468Y0089983D01*
X0279869Y0089983D01*
X0280569Y0090683D01*
X0280569Y0093486D01*
X0279869Y0094186D01*
X0278468Y0094186D01*
X0279168Y0091384D02*
X0277767Y0089983D01*
X0282371Y0089983D02*
X0283772Y0091384D01*
X0283071Y0091384D02*
X0285173Y0091384D01*
X0285173Y0089983D02*
X0285173Y0094186D01*
X0283071Y0094186D01*
X0282371Y0093486D01*
X0282371Y0092084D01*
X0283071Y0091384D01*
X0286841Y0089983D02*
X0288243Y0089983D01*
X0287542Y0089983D02*
X0287542Y0094186D01*
X0288243Y0094186D02*
X0286841Y0094186D01*
X0290044Y0089282D02*
X0292846Y0089282D01*
X0296049Y0089983D02*
X0296049Y0094186D01*
X0297450Y0094186D02*
X0294648Y0094186D01*
X0295467Y0082174D02*
X0298269Y0082174D01*
X0296868Y0082174D02*
X0296868Y0077971D01*
X0293665Y0077270D02*
X0290863Y0077270D01*
X0289061Y0077971D02*
X0287660Y0077971D01*
X0288361Y0077971D02*
X0288361Y0082174D01*
X0289061Y0082174D02*
X0287660Y0082174D01*
X0285992Y0082174D02*
X0285992Y0077971D01*
X0285992Y0079372D02*
X0283890Y0079372D01*
X0283190Y0080073D01*
X0283190Y0081474D01*
X0283890Y0082174D01*
X0285992Y0082174D01*
X0284591Y0079372D02*
X0283190Y0077971D01*
X0281388Y0078671D02*
X0281388Y0081474D01*
X0280688Y0082174D01*
X0279286Y0082174D01*
X0278586Y0081474D01*
X0278586Y0078671D01*
X0279286Y0077971D01*
X0280688Y0077971D01*
X0281388Y0078671D01*
X0279987Y0079372D02*
X0278586Y0077971D01*
X0276784Y0077270D02*
X0273982Y0077270D01*
X0272180Y0077971D02*
X0269378Y0077971D01*
X0267576Y0077971D02*
X0266175Y0077971D01*
X0266876Y0077971D02*
X0266876Y0082174D01*
X0267576Y0082174D02*
X0266175Y0082174D01*
X0264507Y0082174D02*
X0261705Y0077971D01*
X0261705Y0082174D01*
X0259903Y0082174D02*
X0259903Y0077971D01*
X0259903Y0079372D02*
X0257101Y0082174D01*
X0259203Y0080073D02*
X0257101Y0077971D01*
X0264507Y0077971D02*
X0264507Y0082174D01*
X0272180Y0082174D02*
X0272180Y0077971D01*
X0263822Y0099825D02*
X0265223Y0101226D01*
X0265223Y0102628D01*
X0263822Y0104029D01*
X0262154Y0104029D02*
X0262154Y0099825D01*
X0259351Y0099825D02*
X0259351Y0104029D01*
X0260752Y0102628D01*
X0262154Y0104029D01*
X0257550Y0104029D02*
X0256149Y0104029D01*
X0256849Y0104029D02*
X0256849Y0099825D01*
X0256149Y0099825D02*
X0257550Y0099825D01*
X0254480Y0100526D02*
X0253780Y0099825D01*
X0252379Y0099825D01*
X0251678Y0100526D01*
X0251678Y0101226D01*
X0252379Y0101927D01*
X0253780Y0101927D01*
X0254480Y0102628D01*
X0254480Y0103328D01*
X0253780Y0104029D01*
X0252379Y0104029D01*
X0251678Y0103328D01*
X0249877Y0103328D02*
X0249877Y0100526D01*
X0249176Y0099825D01*
X0247775Y0099825D01*
X0247074Y0100526D01*
X0247074Y0103328D01*
X0247775Y0104029D01*
X0249176Y0104029D01*
X0249877Y0103328D01*
X0245273Y0104029D02*
X0243871Y0102628D01*
X0243871Y0101226D01*
X0245273Y0099825D01*
X0255887Y0056306D02*
X0255887Y0048638D01*
X0255887Y0056306D02*
X0299213Y0056306D01*
X0299213Y0022072D01*
X0279346Y0022072D01*
X0260843Y0022072D02*
X0255887Y0022072D01*
X0255887Y0029740D01*
X0300213Y0076591D02*
X0300213Y0082890D01*
X0300212Y0082890D02*
X0300227Y0082951D01*
X0300245Y0083012D01*
X0300267Y0083071D01*
X0300292Y0083129D01*
X0300322Y0083184D01*
X0300354Y0083238D01*
X0300390Y0083290D01*
X0300429Y0083340D01*
X0300471Y0083387D01*
X0300516Y0083431D01*
X0300564Y0083472D01*
X0300614Y0083510D01*
X0300667Y0083545D01*
X0300721Y0083577D01*
X0300778Y0083605D01*
X0300836Y0083630D01*
X0300895Y0083651D01*
X0300956Y0083668D01*
X0301018Y0083681D01*
X0301080Y0083690D01*
X0301143Y0083696D01*
X0301206Y0083697D01*
X0301269Y0083694D01*
X0301332Y0083688D01*
X0301394Y0083678D01*
X0306905Y0083678D02*
X0306965Y0083688D01*
X0307025Y0083694D01*
X0307086Y0083697D01*
X0307146Y0083696D01*
X0307207Y0083692D01*
X0307267Y0083683D01*
X0307326Y0083672D01*
X0307385Y0083656D01*
X0307443Y0083637D01*
X0307499Y0083615D01*
X0307554Y0083589D01*
X0307607Y0083560D01*
X0307659Y0083528D01*
X0307708Y0083493D01*
X0307756Y0083455D01*
X0307800Y0083414D01*
X0307843Y0083371D01*
X0307882Y0083325D01*
X0307919Y0083277D01*
X0307953Y0083226D01*
X0307983Y0083174D01*
X0308011Y0083120D01*
X0308035Y0083064D01*
X0308056Y0083007D01*
X0308073Y0082949D01*
X0308087Y0082890D01*
X0308087Y0076591D01*
X0308087Y0076590D02*
X0308073Y0076531D01*
X0308056Y0076473D01*
X0308035Y0076416D01*
X0308011Y0076360D01*
X0307983Y0076306D01*
X0307953Y0076254D01*
X0307919Y0076203D01*
X0307882Y0076155D01*
X0307843Y0076109D01*
X0307800Y0076066D01*
X0307756Y0076025D01*
X0307708Y0075987D01*
X0307659Y0075952D01*
X0307607Y0075920D01*
X0307554Y0075891D01*
X0307499Y0075865D01*
X0307443Y0075843D01*
X0307385Y0075824D01*
X0307326Y0075808D01*
X0307267Y0075797D01*
X0307207Y0075788D01*
X0307146Y0075784D01*
X0307086Y0075783D01*
X0307025Y0075786D01*
X0306965Y0075792D01*
X0306905Y0075802D01*
X0301394Y0075802D02*
X0301332Y0075792D01*
X0301269Y0075786D01*
X0301206Y0075783D01*
X0301143Y0075784D01*
X0301080Y0075790D01*
X0301018Y0075799D01*
X0300956Y0075812D01*
X0300895Y0075829D01*
X0300836Y0075850D01*
X0300778Y0075875D01*
X0300721Y0075903D01*
X0300667Y0075935D01*
X0300614Y0075970D01*
X0300564Y0076008D01*
X0300516Y0076049D01*
X0300471Y0076093D01*
X0300429Y0076140D01*
X0300390Y0076190D01*
X0300354Y0076242D01*
X0300322Y0076296D01*
X0300292Y0076351D01*
X0300267Y0076409D01*
X0300245Y0076468D01*
X0300227Y0076529D01*
X0300212Y0076590D01*
X0297450Y0149825D02*
X0294648Y0149825D01*
X0292846Y0149825D02*
X0290044Y0149825D01*
X0288243Y0149825D02*
X0288243Y0154029D01*
X0286141Y0154029D01*
X0285440Y0153328D01*
X0285440Y0150526D01*
X0286141Y0149825D01*
X0288243Y0149825D01*
X0291445Y0151927D02*
X0292846Y0151927D01*
X0292846Y0154029D02*
X0292846Y0149825D01*
X0292846Y0154029D02*
X0290044Y0154029D01*
X0290745Y0159825D02*
X0290044Y0160526D01*
X0290745Y0159825D02*
X0292146Y0159825D01*
X0292846Y0160526D01*
X0292846Y0163328D01*
X0292146Y0164029D01*
X0290745Y0164029D01*
X0290044Y0163328D01*
X0288243Y0164029D02*
X0288243Y0159825D01*
X0288243Y0161226D02*
X0285440Y0164029D01*
X0287542Y0161927D02*
X0285440Y0159825D01*
X0294648Y0160526D02*
X0295349Y0159825D01*
X0296750Y0159825D01*
X0297450Y0160526D01*
X0296750Y0161927D02*
X0295349Y0161927D01*
X0294648Y0161226D01*
X0294648Y0160526D01*
X0296750Y0161927D02*
X0297450Y0162628D01*
X0297450Y0163328D01*
X0296750Y0164029D01*
X0295349Y0164029D01*
X0294648Y0163328D01*
X0295349Y0169825D02*
X0296750Y0169825D01*
X0297450Y0170526D01*
X0296750Y0171927D02*
X0295349Y0171927D01*
X0294648Y0171226D01*
X0294648Y0170526D01*
X0295349Y0169825D01*
X0292846Y0169825D02*
X0290745Y0169825D01*
X0290044Y0170526D01*
X0290044Y0173328D01*
X0290745Y0174029D01*
X0292846Y0174029D01*
X0292846Y0169825D01*
X0296750Y0171927D02*
X0297450Y0172628D01*
X0297450Y0173328D01*
X0296750Y0174029D01*
X0295349Y0174029D01*
X0294648Y0173328D01*
X0288243Y0174029D02*
X0286841Y0174029D01*
X0287542Y0174029D02*
X0287542Y0169825D01*
X0288243Y0169825D02*
X0286841Y0169825D01*
X0280569Y0171226D02*
X0280569Y0172628D01*
X0279168Y0174029D01*
X0277500Y0174029D02*
X0276099Y0172628D01*
X0274698Y0174029D01*
X0274698Y0169825D01*
X0272896Y0170526D02*
X0272196Y0169825D01*
X0270794Y0169825D01*
X0270094Y0170526D01*
X0270094Y0173328D01*
X0270794Y0174029D01*
X0272196Y0174029D01*
X0272896Y0173328D01*
X0272896Y0170526D01*
X0268292Y0170526D02*
X0267592Y0169825D01*
X0266190Y0169825D01*
X0265490Y0170526D01*
X0265490Y0171226D01*
X0266190Y0171927D01*
X0267592Y0171927D01*
X0268292Y0172628D01*
X0268292Y0173328D01*
X0267592Y0174029D01*
X0266190Y0174029D01*
X0265490Y0173328D01*
X0263688Y0174029D02*
X0262287Y0174029D01*
X0262988Y0174029D02*
X0262988Y0169825D01*
X0263688Y0169825D02*
X0262287Y0169825D01*
X0260619Y0169825D02*
X0259218Y0171226D01*
X0259218Y0172628D01*
X0260619Y0174029D01*
X0277500Y0174029D02*
X0277500Y0169825D01*
X0279168Y0169825D02*
X0280569Y0171226D01*
X0286141Y0179825D02*
X0285440Y0180526D01*
X0286141Y0179825D02*
X0287542Y0179825D01*
X0288243Y0180526D01*
X0288243Y0183328D01*
X0287542Y0184029D01*
X0286141Y0184029D01*
X0285440Y0183328D01*
X0290044Y0184029D02*
X0292846Y0179825D01*
X0294648Y0180526D02*
X0294648Y0183328D01*
X0295349Y0184029D01*
X0297450Y0184029D01*
X0297450Y0179825D01*
X0295349Y0179825D01*
X0294648Y0180526D01*
X0294648Y0189825D02*
X0296049Y0191226D01*
X0295349Y0191226D02*
X0297450Y0191226D01*
X0297450Y0189825D02*
X0297450Y0194029D01*
X0295349Y0194029D01*
X0294648Y0193328D01*
X0294648Y0191927D01*
X0295349Y0191226D01*
X0292846Y0191927D02*
X0291445Y0191927D01*
X0290044Y0194029D02*
X0292846Y0194029D01*
X0292846Y0189825D01*
X0290044Y0189825D01*
X0288243Y0190526D02*
X0287542Y0189825D01*
X0286141Y0189825D01*
X0285440Y0190526D01*
X0285440Y0191226D01*
X0286141Y0191927D01*
X0287542Y0191927D01*
X0288243Y0192628D01*
X0288243Y0193328D01*
X0287542Y0194029D01*
X0286141Y0194029D01*
X0285440Y0193328D01*
X0283639Y0194029D02*
X0283639Y0189825D01*
X0280836Y0189825D01*
X0282237Y0191927D02*
X0283639Y0191927D01*
X0283639Y0194029D02*
X0280836Y0194029D01*
X0279035Y0194029D02*
X0276232Y0194029D01*
X0277634Y0194029D02*
X0277634Y0189825D01*
X0290044Y0200526D02*
X0290044Y0201226D01*
X0290745Y0201927D01*
X0292146Y0201927D01*
X0292846Y0202628D01*
X0292846Y0203328D01*
X0292146Y0204029D01*
X0290745Y0204029D01*
X0290044Y0203328D01*
X0290044Y0200526D02*
X0290745Y0199825D01*
X0292146Y0199825D01*
X0292846Y0200526D01*
X0294648Y0200526D02*
X0295349Y0199825D01*
X0296750Y0199825D01*
X0297450Y0200526D01*
X0297450Y0203328D01*
X0296750Y0204029D01*
X0295349Y0204029D01*
X0294648Y0203328D01*
X0295349Y0209825D02*
X0294648Y0210526D01*
X0294648Y0211927D01*
X0296049Y0211927D01*
X0294648Y0213328D02*
X0295349Y0214029D01*
X0296750Y0214029D01*
X0297450Y0213328D01*
X0297450Y0210526D01*
X0296750Y0209825D01*
X0295349Y0209825D01*
X0292846Y0209825D02*
X0292846Y0214029D01*
X0290044Y0209825D01*
X0290044Y0214029D01*
X0288243Y0214029D02*
X0286141Y0214029D01*
X0285440Y0213328D01*
X0285440Y0210526D01*
X0286141Y0209825D01*
X0288243Y0209825D01*
X0288243Y0214029D01*
X0287542Y0219825D02*
X0286141Y0219825D01*
X0285440Y0220526D01*
X0287542Y0219825D02*
X0288243Y0220526D01*
X0288243Y0223328D01*
X0287542Y0224029D01*
X0286141Y0224029D01*
X0285440Y0223328D01*
X0290044Y0223328D02*
X0290745Y0224029D01*
X0292146Y0224029D01*
X0292846Y0223328D01*
X0292846Y0220526D01*
X0292146Y0219825D01*
X0290745Y0219825D01*
X0290044Y0220526D01*
X0294648Y0221226D02*
X0294648Y0224029D01*
X0297450Y0224029D02*
X0297450Y0221226D01*
X0296049Y0219825D01*
X0294648Y0221226D01*
X0297160Y0231282D02*
X0296459Y0231982D01*
X0296459Y0233384D01*
X0297160Y0234084D01*
X0297860Y0234084D01*
X0298561Y0233384D01*
X0298561Y0231982D01*
X0299261Y0231282D01*
X0299962Y0231282D01*
X0300663Y0231982D01*
X0300663Y0233384D01*
X0299962Y0234084D01*
X0300663Y0235886D02*
X0296459Y0235886D01*
X0296459Y0238688D01*
X0296459Y0240490D02*
X0300663Y0240490D01*
X0300663Y0242592D01*
X0299962Y0243292D01*
X0298561Y0243292D01*
X0297860Y0242592D01*
X0297860Y0240490D01*
X0297860Y0241891D02*
X0296459Y0243292D01*
X0297860Y0245094D02*
X0296459Y0246495D01*
X0297860Y0247896D01*
X0300663Y0247896D01*
X0299962Y0249698D02*
X0297160Y0249698D01*
X0296459Y0250398D01*
X0296459Y0251799D01*
X0297160Y0252500D01*
X0299962Y0252500D01*
X0300663Y0251799D01*
X0300663Y0250398D01*
X0299962Y0249698D01*
X0300663Y0245094D02*
X0297860Y0245094D01*
X0300663Y0238688D02*
X0300663Y0235886D01*
X0298561Y0235886D02*
X0298561Y0237287D01*
X0297450Y0154029D02*
X0297450Y0149825D01*
D12*
X0243120Y0039446D02*
X0241252Y0037577D01*
X0241252Y0033841D01*
X0238911Y0033841D02*
X0238911Y0037577D01*
X0236109Y0037577D01*
X0235174Y0036643D01*
X0235174Y0033841D01*
X0236109Y0029546D02*
X0235174Y0028612D01*
X0238911Y0024875D01*
X0237977Y0023941D01*
X0236109Y0023941D01*
X0235174Y0024875D01*
X0235174Y0028612D01*
X0236109Y0029546D02*
X0237977Y0029546D01*
X0238911Y0028612D01*
X0238911Y0024875D01*
X0241252Y0023941D02*
X0244988Y0023941D01*
X0241252Y0027677D01*
X0241252Y0028612D01*
X0242186Y0029546D01*
X0244054Y0029546D01*
X0244988Y0028612D01*
X0244988Y0033841D02*
X0244988Y0037577D01*
X0243120Y0039446D01*
X0244988Y0036643D02*
X0241252Y0036643D01*
X0232834Y0027677D02*
X0230966Y0029546D01*
X0230966Y0023941D01*
X0232834Y0023941D02*
X0229097Y0023941D01*
X0226757Y0024875D02*
X0226757Y0025809D01*
X0225822Y0026743D01*
X0223954Y0026743D01*
X0223020Y0025809D01*
X0223020Y0024875D01*
X0223954Y0023941D01*
X0225822Y0023941D01*
X0226757Y0024875D01*
X0225822Y0026743D02*
X0226757Y0027677D01*
X0226757Y0028612D01*
X0225822Y0029546D01*
X0223954Y0029546D01*
X0223020Y0028612D01*
X0223020Y0027677D01*
X0223954Y0026743D01*
X0220679Y0024875D02*
X0220679Y0023941D01*
X0219745Y0023941D01*
X0219745Y0024875D01*
X0220679Y0024875D01*
X0217641Y0024875D02*
X0216707Y0023941D01*
X0214838Y0023941D01*
X0213904Y0024875D01*
X0213904Y0028612D01*
X0217641Y0024875D01*
X0217641Y0028612D01*
X0216707Y0029546D01*
X0214838Y0029546D01*
X0213904Y0028612D01*
X0211564Y0026743D02*
X0208761Y0026743D01*
X0207827Y0025809D01*
X0207827Y0024875D01*
X0208761Y0023941D01*
X0210630Y0023941D01*
X0211564Y0024875D01*
X0211564Y0026743D01*
X0209695Y0028612D01*
X0207827Y0029546D01*
X0208525Y0033841D02*
X0208525Y0037577D01*
X0205723Y0037577D01*
X0204789Y0036643D01*
X0204789Y0033841D01*
X0200580Y0029546D02*
X0200580Y0023941D01*
X0202448Y0023941D02*
X0198711Y0023941D01*
X0196371Y0024875D02*
X0192634Y0028612D01*
X0192634Y0024875D01*
X0193568Y0023941D01*
X0195437Y0023941D01*
X0196371Y0024875D01*
X0196371Y0028612D01*
X0195437Y0029546D01*
X0193568Y0029546D01*
X0192634Y0028612D01*
X0193568Y0033841D02*
X0192634Y0034775D01*
X0193568Y0035709D01*
X0195437Y0035709D01*
X0196371Y0036643D01*
X0195437Y0037577D01*
X0192634Y0037577D01*
X0190293Y0036643D02*
X0190293Y0034775D01*
X0189359Y0033841D01*
X0187491Y0033841D01*
X0186557Y0034775D01*
X0186557Y0036643D01*
X0187491Y0037577D01*
X0189359Y0037577D01*
X0190293Y0036643D01*
X0193568Y0033841D02*
X0196371Y0033841D01*
X0200580Y0029546D02*
X0202448Y0027677D01*
X0204552Y0024875D02*
X0204552Y0023941D01*
X0205486Y0023941D01*
X0205486Y0024875D01*
X0204552Y0024875D01*
X0211800Y0033841D02*
X0213668Y0033841D01*
X0214602Y0034775D01*
X0214602Y0036643D01*
X0213668Y0037577D01*
X0211800Y0037577D01*
X0210866Y0036643D01*
X0210866Y0035709D01*
X0214602Y0035709D01*
X0216943Y0034775D02*
X0217877Y0033841D01*
X0220679Y0033841D01*
X0220679Y0031973D02*
X0220679Y0037577D01*
X0217877Y0037577D01*
X0216943Y0036643D01*
X0216943Y0034775D01*
X0223020Y0034775D02*
X0223954Y0033841D01*
X0225822Y0033841D01*
X0226757Y0034775D01*
X0226757Y0036643D01*
X0225822Y0037577D01*
X0223954Y0037577D01*
X0223020Y0036643D01*
X0223020Y0034775D01*
X0184216Y0034775D02*
X0183282Y0033841D01*
X0180480Y0033841D01*
X0180480Y0037577D01*
X0178139Y0037577D02*
X0178139Y0033841D01*
X0178139Y0035709D02*
X0176271Y0037577D01*
X0175337Y0037577D01*
X0173075Y0036643D02*
X0173075Y0034775D01*
X0172141Y0033841D01*
X0169338Y0033841D01*
X0166998Y0034775D02*
X0166998Y0036643D01*
X0166063Y0037577D01*
X0164195Y0037577D01*
X0163261Y0036643D01*
X0163261Y0035709D01*
X0166998Y0035709D01*
X0166998Y0034775D02*
X0166063Y0033841D01*
X0164195Y0033841D01*
X0169338Y0037577D02*
X0172141Y0037577D01*
X0173075Y0036643D01*
X0184216Y0037577D02*
X0184216Y0034775D01*
X0154843Y0034775D02*
X0153909Y0035709D01*
X0151107Y0035709D01*
X0151107Y0036643D02*
X0151107Y0033841D01*
X0153909Y0033841D01*
X0154843Y0034775D01*
X0153909Y0037577D02*
X0152041Y0037577D01*
X0151107Y0036643D01*
X0148766Y0035709D02*
X0146898Y0037577D01*
X0145964Y0037577D01*
X0143702Y0037577D02*
X0141833Y0037577D01*
X0142768Y0038512D02*
X0142768Y0034775D01*
X0141833Y0033841D01*
X0148766Y0033841D02*
X0148766Y0037577D01*
X0133573Y0037577D02*
X0133573Y0031973D01*
X0133573Y0033841D02*
X0130771Y0033841D01*
X0129837Y0034775D01*
X0129837Y0036643D01*
X0130771Y0037577D01*
X0133573Y0037577D01*
X0127496Y0037577D02*
X0127496Y0033841D01*
X0127496Y0035709D02*
X0125628Y0037577D01*
X0124693Y0037577D01*
X0122432Y0036643D02*
X0122432Y0034775D01*
X0121497Y0033841D01*
X0119629Y0033841D01*
X0118695Y0034775D01*
X0118695Y0036643D01*
X0119629Y0037577D01*
X0121497Y0037577D01*
X0122432Y0036643D01*
X0116354Y0031973D02*
X0115420Y0031973D01*
X0114486Y0032907D01*
X0114486Y0037577D01*
X0114486Y0039446D02*
X0114486Y0040380D01*
X0111369Y0037577D02*
X0109501Y0037577D01*
X0108566Y0036643D01*
X0108566Y0035709D01*
X0112303Y0035709D01*
X0112303Y0034775D02*
X0112303Y0036643D01*
X0111369Y0037577D01*
X0112303Y0034775D02*
X0111369Y0033841D01*
X0109501Y0033841D01*
X0106226Y0034775D02*
X0105292Y0033841D01*
X0102489Y0033841D01*
X0099214Y0034775D02*
X0098280Y0033841D01*
X0099214Y0034775D02*
X0099214Y0038512D01*
X0098280Y0037577D02*
X0100149Y0037577D01*
X0102489Y0037577D02*
X0105292Y0037577D01*
X0106226Y0036643D01*
X0106226Y0034775D01*
X0096097Y0034775D02*
X0096097Y0033841D01*
X0095163Y0033841D01*
X0095163Y0034775D01*
X0096097Y0034775D01*
X0025409Y0171866D02*
X0025803Y0172260D01*
X0098242Y0250319D02*
X0097308Y0251253D01*
X0097308Y0254990D01*
X0098242Y0255924D01*
X0101045Y0255924D01*
X0101045Y0250319D01*
X0098242Y0250319D01*
X0103385Y0250319D02*
X0105254Y0252187D01*
X0104320Y0252187D02*
X0107122Y0252187D01*
X0107122Y0250319D02*
X0107122Y0255924D01*
X0104320Y0255924D01*
X0103385Y0254990D01*
X0103385Y0253121D01*
X0104320Y0252187D01*
X0109463Y0253121D02*
X0113199Y0253121D01*
X0113199Y0254055D02*
X0111331Y0255924D01*
X0109463Y0254055D01*
X0109463Y0250319D01*
X0113199Y0250319D02*
X0113199Y0254055D01*
X0115540Y0254990D02*
X0116474Y0255924D01*
X0118342Y0255924D01*
X0119276Y0254990D01*
X0119276Y0251253D01*
X0118342Y0250319D01*
X0116474Y0250319D01*
X0115540Y0251253D01*
X0127694Y0251253D02*
X0127694Y0254990D01*
X0128628Y0255924D01*
X0131431Y0255924D01*
X0131431Y0250319D01*
X0128628Y0250319D01*
X0127694Y0251253D01*
X0133771Y0251253D02*
X0134705Y0250319D01*
X0136574Y0250319D01*
X0137508Y0251253D01*
X0136574Y0253121D02*
X0134705Y0253121D01*
X0133771Y0252187D01*
X0133771Y0251253D01*
X0136574Y0253121D02*
X0137508Y0254055D01*
X0137508Y0254990D01*
X0136574Y0255924D01*
X0134705Y0255924D01*
X0133771Y0254990D01*
D13*
X0171268Y0056208D02*
X0171268Y0044124D01*
X0173282Y0044124D02*
X0169254Y0044124D01*
X0164582Y0046138D02*
X0162568Y0048152D01*
X0156526Y0048152D01*
X0156526Y0050166D02*
X0156526Y0044124D01*
X0162568Y0044124D01*
X0164582Y0046138D01*
X0162568Y0052180D02*
X0158540Y0052180D01*
X0156526Y0050166D01*
X0151531Y0052180D02*
X0151531Y0044124D01*
X0151531Y0048152D02*
X0147503Y0052180D01*
X0145489Y0052180D01*
X0140656Y0050166D02*
X0140656Y0046138D01*
X0138642Y0044124D01*
X0132600Y0044124D01*
X0132600Y0042110D02*
X0132600Y0052180D01*
X0138642Y0052180D01*
X0140656Y0050166D01*
X0132600Y0042110D02*
X0134614Y0040096D01*
X0136628Y0040096D01*
X0127605Y0044124D02*
X0127605Y0052180D01*
X0127605Y0048152D02*
X0123577Y0052180D01*
X0121563Y0052180D01*
X0114716Y0052180D02*
X0110688Y0052180D01*
X0108674Y0050166D01*
X0108674Y0044124D01*
X0114716Y0044124D01*
X0116730Y0046138D01*
X0114716Y0048152D01*
X0108674Y0048152D01*
X0103679Y0052180D02*
X0097637Y0052180D01*
X0095624Y0050166D01*
X0095624Y0046138D01*
X0097637Y0044124D01*
X0103679Y0044124D01*
X0103679Y0040096D02*
X0103679Y0052180D01*
X0090629Y0050166D02*
X0088615Y0052180D01*
X0084587Y0052180D01*
X0082573Y0050166D01*
X0082573Y0044124D01*
X0077578Y0044124D02*
X0075564Y0044124D01*
X0075564Y0046138D01*
X0077578Y0046138D01*
X0077578Y0044124D01*
X0071053Y0046138D02*
X0071053Y0050166D01*
X0069039Y0052180D01*
X0062997Y0052180D01*
X0058002Y0050166D02*
X0058002Y0046138D01*
X0055989Y0044124D01*
X0051961Y0044124D01*
X0049947Y0046138D01*
X0049947Y0050166D01*
X0051961Y0052180D01*
X0055989Y0052180D01*
X0058002Y0050166D01*
X0062997Y0044124D02*
X0069039Y0044124D01*
X0071053Y0046138D01*
X0090629Y0044124D02*
X0090629Y0056208D01*
X0044952Y0046138D02*
X0042938Y0046138D01*
X0042938Y0044124D01*
X0044952Y0044124D01*
X0044952Y0046138D01*
X0038427Y0046138D02*
X0038427Y0052180D01*
X0038427Y0046138D02*
X0036413Y0044124D01*
X0030371Y0044124D01*
X0030371Y0052180D01*
X0025376Y0056208D02*
X0025376Y0044124D01*
X0025376Y0048152D02*
X0019334Y0052180D01*
X0025376Y0048152D02*
X0019334Y0044124D01*
X0171268Y0056208D02*
X0173282Y0056208D01*
X0178277Y0050166D02*
X0180291Y0052180D01*
X0184319Y0052180D01*
X0186333Y0050166D01*
X0186333Y0046138D01*
X0184319Y0044124D01*
X0180291Y0044124D01*
X0178277Y0046138D01*
X0178277Y0050166D01*
X0191327Y0050166D02*
X0191327Y0046138D01*
X0193341Y0044124D01*
X0199383Y0044124D01*
X0203894Y0044124D02*
X0205908Y0044124D01*
X0205908Y0046138D01*
X0203894Y0046138D01*
X0203894Y0044124D01*
X0199383Y0040096D02*
X0199383Y0052180D01*
X0193341Y0052180D01*
X0191327Y0050166D01*
X0210903Y0052180D02*
X0210903Y0046138D01*
X0212917Y0044124D01*
X0214931Y0046138D01*
X0216945Y0044124D01*
X0218959Y0046138D01*
X0218959Y0052180D01*
X0223954Y0052180D02*
X0223954Y0046138D01*
X0225968Y0044124D01*
X0227981Y0046138D01*
X0229995Y0044124D01*
X0232009Y0046138D01*
X0232009Y0052180D01*
X0237004Y0052180D02*
X0237004Y0046138D01*
X0239018Y0044124D01*
X0241032Y0046138D01*
X0243046Y0044124D01*
X0245060Y0046138D01*
X0245060Y0052180D01*
D14*
X0220424Y0228524D02*
X0220424Y0232928D01*
X0218956Y0231460D01*
X0217489Y0232928D01*
X0217489Y0228524D01*
X0215820Y0228524D02*
X0212885Y0228524D01*
X0214353Y0228524D02*
X0214353Y0232928D01*
X0215820Y0231460D01*
X0211217Y0227790D02*
X0208281Y0227790D01*
X0206613Y0229258D02*
X0205879Y0228524D01*
X0204411Y0228524D01*
X0203677Y0229258D01*
X0202009Y0229258D02*
X0201275Y0228524D01*
X0199807Y0228524D01*
X0199073Y0229258D01*
X0199073Y0232194D01*
X0199807Y0232928D01*
X0201275Y0232928D01*
X0202009Y0232194D01*
X0202009Y0229258D01*
X0203677Y0232194D02*
X0204411Y0232928D01*
X0205879Y0232928D01*
X0206613Y0232194D01*
X0206613Y0229258D01*
X0197405Y0228524D02*
X0197405Y0232928D01*
X0194469Y0228524D01*
X0194469Y0232928D01*
X0192801Y0232928D02*
X0189865Y0228524D01*
X0189865Y0232928D01*
X0192801Y0232928D02*
X0192801Y0228524D01*
X0195724Y0249406D02*
X0185724Y0249406D01*
X0185724Y0259406D01*
X0195724Y0259406D01*
X0205724Y0259406D01*
X0215724Y0259406D01*
X0225724Y0259406D01*
X0225724Y0249406D01*
X0215724Y0249406D01*
X0205724Y0249406D01*
X0195724Y0249406D01*
X0195724Y0259406D01*
X0205724Y0259406D02*
X0205724Y0249406D01*
X0215724Y0249406D02*
X0215724Y0259406D01*
X0265528Y0259406D02*
X0265528Y0249406D01*
X0275528Y0249406D01*
X0275528Y0259406D01*
X0265528Y0259406D01*
X0275528Y0259406D02*
X0285528Y0259406D01*
X0295528Y0259406D01*
X0295528Y0249406D01*
X0285528Y0249406D01*
X0275528Y0249406D01*
X0285528Y0249406D02*
X0285528Y0259406D01*
X0048559Y0259406D02*
X0048559Y0249406D01*
X0038559Y0249406D01*
X0028559Y0249406D01*
X0018559Y0249406D01*
X0008559Y0249406D01*
X0008559Y0259406D01*
X0018559Y0259406D01*
X0028559Y0259406D01*
X0038559Y0259406D01*
X0048559Y0259406D01*
X0038559Y0259406D02*
X0038559Y0249406D01*
X0028559Y0249406D02*
X0028559Y0259406D01*
X0018559Y0259406D02*
X0018559Y0249406D01*
X0046296Y0034952D02*
X0046296Y0032750D01*
X0047030Y0032016D01*
X0048498Y0032016D01*
X0049232Y0032750D01*
X0049232Y0034952D01*
X0049232Y0033484D02*
X0050700Y0032016D01*
X0050700Y0030348D02*
X0046296Y0030348D01*
X0046296Y0027412D01*
X0047030Y0025744D02*
X0047764Y0025744D01*
X0048498Y0025010D01*
X0048498Y0023542D01*
X0049232Y0022808D01*
X0049966Y0022808D01*
X0050700Y0023542D01*
X0050700Y0025010D01*
X0049966Y0025744D01*
X0050700Y0027412D02*
X0050700Y0030348D01*
X0048498Y0030348D02*
X0048498Y0028880D01*
X0047030Y0025744D02*
X0046296Y0025010D01*
X0046296Y0023542D01*
X0047030Y0022808D01*
X0046296Y0021140D02*
X0050700Y0021140D01*
X0050700Y0018204D01*
X0048498Y0019672D02*
X0048498Y0021140D01*
X0046296Y0021140D02*
X0046296Y0018204D01*
X0046296Y0016536D02*
X0046296Y0013600D01*
X0046296Y0015068D02*
X0050700Y0015068D01*
X0050700Y0034952D02*
X0046296Y0034952D01*
D15*
X0033795Y0072969D02*
X0008165Y0072969D01*
X0008165Y0241157D01*
X0033795Y0241157D01*
X0033795Y0072969D01*
X0271039Y0072969D01*
X0271039Y0241157D01*
X0033795Y0241157D01*
X0034465Y0235252D02*
X0034465Y0079346D01*
X0241157Y0079346D01*
X0241157Y0235252D01*
X0034465Y0235252D01*
X0067929Y0237220D02*
X0071866Y0237220D01*
X0071866Y0256906D01*
X0071866Y0262811D02*
X0071866Y0282496D01*
X0071866Y0288402D02*
X0071866Y0308087D01*
X0085252Y0308087D01*
X0091157Y0308087D02*
X0104543Y0308087D01*
X0110449Y0308087D02*
X0123835Y0308087D01*
X0129740Y0308087D02*
X0143126Y0308087D01*
X0149031Y0308087D02*
X0162417Y0308087D01*
X0162417Y0288402D01*
X0162417Y0282496D02*
X0162417Y0262811D01*
X0162417Y0256906D02*
X0162417Y0237220D01*
X0071866Y0237220D01*
X0067929Y0237220D02*
X0067929Y0162417D01*
X0166354Y0162417D01*
X0166354Y0237220D01*
X0162417Y0237220D01*
X0271039Y0241157D02*
X0312024Y0241157D01*
X0312024Y0072969D01*
X0271039Y0072969D01*
X0299425Y0087220D02*
X0299425Y0217142D01*
X0308874Y0217142D01*
X0308874Y0087220D01*
X0299425Y0087220D01*
X0299425Y0217142D02*
X0299425Y0226984D01*
X0308874Y0226984D01*
X0308874Y0217142D01*
X0021079Y0177378D02*
X0021079Y0167142D01*
X0010843Y0167142D01*
X0010843Y0177378D01*
X0021079Y0177378D01*
X0021079Y0167142D02*
X0021079Y0136827D01*
X0010843Y0136827D01*
X0010843Y0167142D01*
D16*
X0013559Y0261906D02*
X0013559Y0284406D01*
X0023559Y0284406D02*
X0023559Y0261906D01*
X0033559Y0261906D02*
X0033559Y0284406D01*
X0043559Y0284406D02*
X0043559Y0261906D01*
X0190724Y0261906D02*
X0190724Y0284406D01*
X0200724Y0284406D02*
X0200724Y0261906D01*
X0210724Y0261906D02*
X0210724Y0284406D01*
X0220724Y0284406D02*
X0220724Y0261906D01*
X0270528Y0261906D02*
X0270528Y0284406D01*
X0280528Y0284406D02*
X0280528Y0261906D01*
X0290528Y0261906D02*
X0290528Y0284406D01*
D17*
X0290528Y0260406D03*
X0280528Y0260406D03*
X0270528Y0260406D03*
X0220724Y0260406D03*
X0210724Y0260406D03*
X0200724Y0260406D03*
X0190724Y0260406D03*
X0043559Y0260406D03*
X0033559Y0260406D03*
X0023559Y0260406D03*
X0013559Y0260406D03*
D18*
X0013559Y0247406D03*
X0023559Y0247406D03*
X0033559Y0247406D03*
X0043559Y0247406D03*
X0190724Y0247406D03*
X0200724Y0247406D03*
X0210724Y0247406D03*
X0220724Y0247406D03*
X0270528Y0247406D03*
X0280528Y0247406D03*
X0290528Y0247406D03*
M02*
