%
M48
M72
T01C0.01200
T02C0.03150
T03C0.03543
T04C0.03937
T05C0.04000
T06C0.11800
T07C0.12598
%
T01
X29740Y59268
X69898Y67929
X50213Y108480
X71866Y146669
X103362Y146669
X106118Y134858
X140764Y134858
X168323Y151394
X140764Y168323
X94307Y198244
X160843Y237220
X170291Y225409
X182102Y225409
X228165Y229740
X226197Y186039
X189976Y178165
X207299Y151394
X233283Y138795
X256906Y148638
X207693Y97457
X186039Y101394
X170291Y60055
X138795Y73835
X132890Y93520
X242339Y36039
X294307Y89583
X298638Y54150
T02
X108402Y8874
X118402Y8874
X128402Y8874
X138402Y8874
X148402Y8874
X158402Y8874
X168402Y8874
X178402Y8874
X188402Y8874
X198402Y8874
X208402Y8874
X218402Y8874
X228402Y8874
X238402Y8874
X248402Y8874
X258402Y8874
X268402Y8874
X278402Y8874
X288402Y8874
X248402Y108874
X258402Y108874
X268402Y108874
X278402Y108874
X288402Y108874
X238402Y108874
X228402Y108874
X218402Y108874
X208402Y108874
X198402Y108874
X188402Y108874
X178402Y108874
X168402Y108874
X158402Y108874
X148402Y108874
X138402Y108874
X128402Y108874
X118402Y108874
X108402Y108874
T03
X39307Y160724
X49307Y160724
X59307Y160724
X69307Y160724
X79307Y160724
X89307Y160724
X99307Y160724
X109307Y160724
X109307Y210724
X99307Y210724
X89307Y210724
X79307Y210724
X69307Y210724
X59307Y210724
X49307Y210724
X39307Y210724
X173165Y210724
X183165Y210724
X193165Y210724
X203165Y210724
X213165Y210724
X223165Y210724
X233165Y210724
X243165Y210724
X243165Y160724
X233165Y160724
X223165Y160724
X213165Y160724
X203165Y160724
X193165Y160724
X183165Y160724
X173165Y160724
T04
X59071Y15764
X59071Y33480
X84661Y33480
X84661Y15764
T05
X19622Y70488
X29622Y70488
X29622Y80488
X19622Y80488
X19622Y90488
X29622Y90488
X29622Y100488
X19622Y100488
X19622Y110488
X29622Y110488
X29622Y120488
X19622Y120488
X16039Y142063
X16039Y152063
X16039Y162063
X16039Y172063
X13559Y241906
X23559Y241906
X33559Y241906
X43559Y241906
X190724Y241906
X200724Y241906
X210724Y241906
X220724Y241906
X270528Y241906
X280528Y241906
X290528Y241906
X304150Y222063
X304150Y212063
X304150Y202063
X304150Y192063
X304150Y182063
X304150Y172063
X304150Y162063
X304150Y152063
X304150Y142063
X304150Y132063
X304150Y122063
X304150Y112063
X304150Y102063
X304150Y92063
X300213Y71866
X290213Y71866
X274780Y71866
X264780Y71866
X235409Y63992
X225409Y63992
T06
X286209Y39089
X269898Y24380
T07
X257387Y39189
M30
