G75*
%MOIN*%
%OFA0B0*%
%FSLAX25Y25*%
%IPPOS*%
%LPD*%
%AMOC8*
5,1,8,0,0,1.08239X$1,22.5*
%
%ADD10C,0.00000*%
%ADD11C,0.06000*%
%ADD12R,0.06000X0.06000*%
%ADD13R,0.05150X0.05150*%
%ADD14C,0.05150*%
%ADD15C,0.05543*%
%ADD16R,0.04724X0.04724*%
%ADD17R,0.05118X0.06299*%
%ADD18R,0.05906X0.05118*%
%ADD19R,0.13780X0.06299*%
%ADD20C,0.16598*%
%ADD21C,0.16200*%
%ADD22C,0.07400*%
%ADD23R,0.05118X0.05906*%
%ADD24R,0.10000X0.10000*%
%ADD25C,0.05937*%
%ADD26C,0.06000*%
%ADD27R,0.06693X0.07087*%
%ADD28R,0.03543X0.03150*%
%ADD29R,0.02362X0.03150*%
%ADD30R,0.01969X0.03150*%
%ADD31R,0.06500X0.06500*%
%ADD32C,0.06500*%
%ADD33C,0.05000*%
%ADD34C,0.01200*%
%ADD35C,0.02400*%
%ADD36C,0.02400*%
%ADD37OC8,0.02400*%
%ADD38C,0.01000*%
%ADD39C,0.01600*%
%ADD40C,0.10000*%
%ADD41C,0.06600*%
%ADD42C,0.04400*%
%ADD43C,0.04000*%
D10*
X0001000Y0008874D02*
X0001000Y0252969D01*
X0008874Y0260843D01*
X0312024Y0260843D01*
X0320409Y0252969D01*
X0320409Y0008874D01*
X0312024Y0001000D01*
X0008874Y0001000D01*
X0001000Y0008874D01*
D11*
X0016039Y0142063D03*
X0016039Y0152063D03*
X0016039Y0162063D03*
X0016039Y0172063D03*
X0304150Y0172063D03*
X0304150Y0182063D03*
X0304150Y0192063D03*
X0304150Y0202063D03*
X0304150Y0212063D03*
X0304150Y0162063D03*
X0304150Y0152063D03*
X0304150Y0142063D03*
X0304150Y0132063D03*
X0304150Y0122063D03*
X0304150Y0112063D03*
X0304150Y0102063D03*
X0304150Y0092063D03*
D12*
X0304150Y0222063D03*
D13*
X0288402Y0012811D03*
D14*
X0278402Y0012811D03*
X0268402Y0012811D03*
X0258402Y0012811D03*
X0248402Y0012811D03*
X0238402Y0012811D03*
X0228402Y0012811D03*
X0218402Y0012811D03*
X0208402Y0012811D03*
X0198402Y0012811D03*
X0188402Y0012811D03*
X0178402Y0012811D03*
X0168402Y0012811D03*
X0158402Y0012811D03*
X0148402Y0012811D03*
X0138402Y0012811D03*
X0128402Y0012811D03*
X0118402Y0012811D03*
X0108402Y0012811D03*
X0108402Y0112811D03*
X0118402Y0112811D03*
X0128402Y0112811D03*
X0138402Y0112811D03*
X0148402Y0112811D03*
X0158402Y0112811D03*
X0168402Y0112811D03*
X0178402Y0112811D03*
X0188402Y0112811D03*
X0198402Y0112811D03*
X0208402Y0112811D03*
X0218402Y0112811D03*
X0228402Y0112811D03*
X0238402Y0112811D03*
X0248402Y0112811D03*
X0258402Y0112811D03*
X0268402Y0112811D03*
X0278402Y0112811D03*
X0288402Y0112811D03*
D15*
X0251039Y0160724D03*
X0241039Y0160724D03*
X0231039Y0160724D03*
X0221039Y0160724D03*
X0211039Y0160724D03*
X0201039Y0160724D03*
X0191039Y0160724D03*
X0181039Y0160724D03*
X0144740Y0160724D03*
X0134740Y0160724D03*
X0124740Y0160724D03*
X0114740Y0160724D03*
X0104740Y0160724D03*
X0094740Y0160724D03*
X0084740Y0160724D03*
X0074740Y0160724D03*
X0074740Y0210724D03*
X0084740Y0210724D03*
X0094740Y0210724D03*
X0104740Y0210724D03*
X0114740Y0210724D03*
X0124740Y0210724D03*
X0134740Y0210724D03*
X0144740Y0210724D03*
X0181039Y0210724D03*
X0191039Y0210724D03*
X0201039Y0210724D03*
X0211039Y0210724D03*
X0221039Y0210724D03*
X0231039Y0210724D03*
X0241039Y0210724D03*
X0251039Y0210724D03*
D16*
X0158677Y0249031D03*
X0150409Y0249031D03*
X0138992Y0249031D03*
X0130724Y0249031D03*
X0076000Y0134858D03*
X0067732Y0134858D03*
D17*
X0068126Y0146669D03*
X0075606Y0146669D03*
X0087811Y0146669D03*
X0095291Y0146669D03*
X0099622Y0036433D03*
X0107102Y0036433D03*
X0217732Y0146669D03*
X0225213Y0146669D03*
D18*
X0166354Y0182299D03*
X0166354Y0189780D03*
X0063992Y0189780D03*
X0063992Y0182299D03*
D19*
X0080921Y0186039D03*
X0102181Y0186039D03*
X0187220Y0186039D03*
X0208480Y0186039D03*
X0200606Y0091551D03*
X0179346Y0091551D03*
X0039189Y0024622D03*
X0017929Y0024622D03*
D20*
X0257387Y0039189D03*
D21*
X0269898Y0024380D03*
X0286209Y0039089D03*
D22*
X0274780Y0071866D03*
X0264780Y0071866D03*
D23*
X0229150Y0083677D03*
X0221669Y0083677D03*
X0032299Y0046669D03*
X0024819Y0046669D03*
D24*
X0052713Y0049169D03*
X0052713Y0089051D03*
X0116610Y0089051D03*
X0116610Y0049169D03*
D25*
X0087630Y0033480D02*
X0081693Y0033480D01*
X0081693Y0015764D02*
X0087630Y0015764D01*
X0062039Y0015764D02*
X0056102Y0015764D01*
X0056102Y0033480D02*
X0062039Y0033480D01*
D26*
X0270528Y0231031D02*
X0270528Y0237031D01*
X0280528Y0237031D02*
X0280528Y0231031D01*
X0290528Y0231031D02*
X0290528Y0237031D01*
X0220724Y0242843D02*
X0220724Y0248843D01*
X0210724Y0248843D02*
X0210724Y0242843D01*
X0200724Y0242843D02*
X0200724Y0248843D01*
X0190724Y0248843D02*
X0190724Y0242843D01*
X0043559Y0242843D02*
X0043559Y0248843D01*
X0033559Y0248843D02*
X0033559Y0242843D01*
X0023559Y0242843D02*
X0023559Y0248843D01*
X0013559Y0248843D02*
X0013559Y0242843D01*
D27*
X0070291Y0115370D03*
X0070291Y0099228D03*
D28*
X0138402Y0044307D03*
X0146669Y0040567D03*
X0146669Y0048047D03*
X0169898Y0044307D03*
X0178165Y0040567D03*
X0178165Y0048047D03*
X0052181Y0198047D03*
X0052181Y0205528D03*
X0043913Y0201787D03*
X0020685Y0198047D03*
X0020685Y0205528D03*
X0012417Y0201787D03*
D29*
X0027476Y0198835D03*
X0027476Y0204740D03*
X0037516Y0204740D03*
X0037516Y0198835D03*
X0137713Y0230331D03*
X0137713Y0236236D03*
X0147752Y0236236D03*
X0147752Y0230331D03*
X0153461Y0047260D03*
X0153461Y0041354D03*
X0163500Y0041354D03*
X0163500Y0047260D03*
D30*
X0160055Y0047260D03*
X0156906Y0047260D03*
X0156906Y0041354D03*
X0160055Y0041354D03*
X0034071Y0198835D03*
X0030921Y0198835D03*
X0030921Y0204740D03*
X0034071Y0204740D03*
X0141157Y0230331D03*
X0144307Y0230331D03*
X0144307Y0236236D03*
X0141157Y0236236D03*
D31*
X0026748Y0126551D03*
X0016748Y0126551D03*
D32*
X0016748Y0116551D03*
X0016748Y0106551D03*
X0016748Y0096551D03*
X0026748Y0096551D03*
X0026748Y0106551D03*
X0026748Y0116551D03*
X0026748Y0086551D03*
X0026748Y0076551D03*
X0026748Y0066551D03*
X0026748Y0056551D03*
X0016748Y0056551D03*
X0016748Y0066551D03*
X0016748Y0076551D03*
X0016748Y0086551D03*
D33*
X0042339Y0058087D02*
X0039091Y0054839D01*
X0039091Y0046571D01*
X0032299Y0046669D01*
X0039091Y0046571D02*
X0039189Y0045291D01*
X0039189Y0024622D01*
X0047063Y0016354D02*
X0021472Y0016354D01*
X0015173Y0022654D01*
X0015173Y0023441D01*
X0017929Y0024622D01*
X0017929Y0041354D01*
X0024819Y0046669D01*
X0042339Y0058087D02*
X0052575Y0068717D01*
X0052713Y0089051D01*
X0052575Y0114780D01*
X0060055Y0122260D01*
X0060055Y0123047D01*
X0060055Y0142732D01*
X0063992Y0146669D01*
X0068126Y0146669D01*
X0060055Y0123047D02*
X0068126Y0115370D01*
X0070291Y0115370D01*
X0070291Y0099228D02*
X0070291Y0088008D01*
X0078559Y0079740D01*
X0052713Y0049169D02*
X0059071Y0041748D01*
X0059071Y0033480D01*
X0057496Y0033480D01*
X0055724Y0031709D01*
X0055724Y0026591D01*
X0047063Y0016354D01*
X0182102Y0103362D02*
X0187220Y0099425D01*
X0191157Y0098244D01*
X0193565Y0095837D01*
X0193565Y0091900D01*
X0257387Y0064473D02*
X0257387Y0039189D01*
X0269898Y0024380D02*
X0271499Y0024380D01*
X0286209Y0039089D01*
X0274780Y0050518D01*
X0274780Y0071866D01*
X0264780Y0071866D02*
X0257387Y0064473D01*
X0166354Y0174228D02*
X0166354Y0182299D01*
X0166354Y0189780D02*
X0166354Y0210055D01*
X0166354Y0212024D01*
X0175409Y0221079D01*
X0186039Y0221079D01*
X0190764Y0216354D01*
X0190764Y0211000D01*
X0191039Y0210724D01*
X0191039Y0201118D01*
X0197063Y0195094D01*
X0205331Y0195094D01*
X0208087Y0192339D01*
X0208087Y0186433D01*
X0208480Y0186039D01*
X0236039Y0186039D01*
X0250606Y0200606D01*
X0250606Y0210291D01*
X0251039Y0210724D01*
X0233283Y0233283D02*
X0221472Y0221472D01*
X0221472Y0211157D01*
X0221039Y0210724D01*
X0201039Y0210724D02*
X0201039Y0225843D01*
X0207299Y0232102D01*
X0217929Y0232102D01*
X0220685Y0234858D01*
X0220685Y0241866D01*
X0233283Y0249031D02*
X0233283Y0233283D01*
X0233283Y0249031D02*
X0225409Y0256906D01*
X0205724Y0256906D01*
X0200724Y0251906D01*
X0200724Y0245843D01*
X0166354Y0210055D02*
X0145409Y0210055D01*
X0144740Y0210724D01*
X0114740Y0210724D02*
X0114386Y0211079D01*
X0114386Y0215567D01*
X0104543Y0225409D01*
X0095488Y0225409D01*
X0063992Y0256906D01*
X0028559Y0256906D01*
X0023559Y0251906D01*
X0023559Y0245843D01*
X0033559Y0245843D02*
X0033559Y0233402D01*
X0036827Y0230134D01*
X0080134Y0230134D01*
X0092339Y0217929D01*
X0097535Y0217929D01*
X0104740Y0210724D01*
X0091157Y0197063D02*
X0089976Y0197063D01*
X0084740Y0202299D01*
X0084740Y0210724D01*
X0084740Y0214898D01*
X0078165Y0221472D01*
X0069898Y0221472D01*
X0063992Y0215567D01*
X0063992Y0189780D01*
X0091157Y0197063D02*
X0102181Y0186039D01*
D34*
X0087811Y0146669D02*
X0084813Y0143671D01*
X0084813Y0124076D01*
X0084813Y0092463D01*
X0108550Y0112600D02*
X0108402Y0112811D01*
X0108550Y0112600D02*
X0108663Y0112600D01*
X0120475Y0100788D01*
X0168323Y0100788D01*
X0168323Y0112600D01*
X0168400Y0112600D01*
X0173835Y0101576D02*
X0178559Y0102181D01*
X0182102Y0103362D01*
X0174698Y0101576D02*
X0173835Y0101576D01*
X0168323Y0100788D01*
X0153362Y0108874D02*
X0153362Y0114780D01*
X0170291Y0131709D01*
X0230134Y0131709D01*
X0245094Y0146669D01*
X0252969Y0146669D01*
X0282654Y0176354D01*
X0282654Y0211787D01*
X0290528Y0219661D01*
X0290528Y0234031D01*
X0299031Y0202181D02*
X0304031Y0202181D01*
X0304150Y0202063D01*
X0299031Y0202181D02*
X0295882Y0199031D01*
X0295882Y0177772D01*
X0246276Y0128165D01*
X0243126Y0128165D01*
X0236039Y0121079D01*
X0204543Y0121079D01*
X0198244Y0114780D01*
X0198402Y0112811D01*
X0200350Y0091900D02*
X0193565Y0091900D01*
X0200350Y0091900D02*
X0200606Y0091551D01*
X0200800Y0091450D01*
X0222400Y0091450D01*
X0228700Y0085150D01*
X0228700Y0083800D01*
X0229150Y0083677D01*
X0229600Y0083350D01*
X0261100Y0083350D01*
X0272350Y0072100D01*
X0274780Y0071866D01*
X0279775Y0105963D02*
X0291002Y0105963D01*
X0296276Y0111236D01*
X0296276Y0124189D01*
X0304150Y0132063D01*
X0251039Y0210724D02*
X0252100Y0212950D01*
X0153362Y0108874D02*
X0151394Y0106906D01*
X0133677Y0106906D01*
X0128402Y0112181D01*
X0128402Y0112811D01*
X0080232Y0119110D02*
X0067929Y0126984D01*
X0038795Y0108480D02*
X0037220Y0106906D01*
X0038795Y0108480D02*
X0038795Y0162811D01*
X0042831Y0166846D01*
X0044799Y0166846D01*
X0032500Y0194950D02*
X0030700Y0194163D01*
X0029350Y0194950D01*
X0027550Y0196750D01*
X0027550Y0198550D01*
X0032500Y0194950D02*
X0034300Y0196750D01*
X0034300Y0198550D01*
X0034071Y0198835D01*
X0037516Y0198835D02*
X0037516Y0200705D01*
X0016748Y0096551D02*
X0011236Y0091039D01*
X0011236Y0062811D01*
X0016748Y0057299D01*
X0016748Y0056551D01*
X0024819Y0046669D02*
X0024850Y0046563D01*
X0026748Y0076551D02*
X0031276Y0076551D01*
X0036039Y0081315D01*
X0036039Y0086039D01*
X0085489Y0046450D02*
X0084700Y0033850D01*
X0084661Y0033480D01*
X0085489Y0046450D02*
X0118900Y0046450D01*
X0116610Y0049169D01*
X0142339Y0039976D02*
X0143520Y0037220D01*
X0153550Y0039250D02*
X0155350Y0037450D01*
X0158500Y0037450D01*
X0159175Y0038125D01*
X0157094Y0037450D01*
X0159175Y0038125D02*
X0160300Y0039250D01*
X0160300Y0041050D01*
X0160055Y0041354D01*
X0163500Y0041354D02*
X0163900Y0041050D01*
X0153550Y0041050D02*
X0153550Y0039250D01*
D35*
X0153550Y0041050D02*
X0153461Y0041354D01*
X0146669Y0040567D02*
X0146350Y0040150D01*
X0143650Y0037450D01*
X0143650Y0036433D01*
X0143256Y0033850D01*
X0126492Y0033850D01*
X0126492Y0052181D01*
X0111728Y0066945D01*
X0107379Y0065000D02*
X0057439Y0065000D01*
X0057691Y0065248D02*
X0057722Y0065322D01*
X0057778Y0065380D01*
X0058190Y0066430D01*
X0058629Y0067470D01*
X0058629Y0067550D01*
X0058659Y0067625D01*
X0058637Y0068753D01*
X0058718Y0080612D01*
X0059730Y0081031D01*
X0060732Y0082033D01*
X0061275Y0083343D01*
X0061275Y0094760D01*
X0060732Y0096069D01*
X0059730Y0097071D01*
X0058730Y0097486D01*
X0058650Y0112282D01*
X0060564Y0114196D01*
X0063383Y0111515D01*
X0063383Y0111118D01*
X0063925Y0109809D01*
X0064927Y0108807D01*
X0066236Y0108265D01*
X0074346Y0108265D01*
X0075656Y0108807D01*
X0076658Y0109809D01*
X0077200Y0111118D01*
X0077200Y0119622D01*
X0076658Y0120931D01*
X0075656Y0121933D01*
X0074346Y0122476D01*
X0069452Y0122476D01*
X0066117Y0125648D01*
X0066117Y0128934D01*
X0070803Y0128934D01*
X0072112Y0129476D01*
X0072245Y0129609D01*
X0072704Y0129419D01*
X0073323Y0129296D01*
X0076000Y0129296D01*
X0078677Y0129296D01*
X0079296Y0129419D01*
X0079878Y0129660D01*
X0080402Y0130010D01*
X0080651Y0130259D01*
X0080651Y0091635D01*
X0081284Y0090105D01*
X0082455Y0088934D01*
X0082697Y0088834D01*
X0097079Y0074452D01*
X0081634Y0074452D01*
X0081993Y0074601D01*
X0083698Y0076306D01*
X0084621Y0078534D01*
X0084621Y0080946D01*
X0083698Y0083174D01*
X0076354Y0090519D01*
X0076354Y0093363D01*
X0076658Y0093667D01*
X0077200Y0094976D01*
X0077200Y0103480D01*
X0076658Y0104789D01*
X0075656Y0105792D01*
X0074346Y0106334D01*
X0068247Y0106334D01*
X0067182Y0107399D01*
X0065432Y0108124D01*
X0063537Y0108124D01*
X0061787Y0107399D01*
X0060447Y0106060D01*
X0059722Y0104309D01*
X0059722Y0102415D01*
X0060447Y0100665D01*
X0061787Y0099325D01*
X0063383Y0097729D01*
X0063383Y0094976D01*
X0063925Y0093667D01*
X0064229Y0093363D01*
X0064229Y0086802D01*
X0065152Y0084574D01*
X0075125Y0074601D01*
X0075485Y0074452D01*
X0073519Y0074452D01*
X0071829Y0075152D01*
X0069935Y0075152D01*
X0068184Y0074427D01*
X0066845Y0073087D01*
X0066120Y0071337D01*
X0066120Y0069442D01*
X0066845Y0067692D01*
X0068184Y0066353D01*
X0069935Y0065628D01*
X0071829Y0065628D01*
X0073519Y0066328D01*
X0106966Y0066328D01*
X0106966Y0065998D01*
X0107691Y0064247D01*
X0109031Y0062908D01*
X0114569Y0057369D01*
X0111295Y0057369D01*
X0110677Y0057246D01*
X0110094Y0057005D01*
X0109570Y0056655D01*
X0109125Y0056209D01*
X0108774Y0055685D01*
X0108533Y0055103D01*
X0108410Y0054484D01*
X0108410Y0050369D01*
X0115410Y0050369D01*
X0115410Y0047969D01*
X0117810Y0047969D01*
X0117810Y0040969D01*
X0121730Y0040969D01*
X0121730Y0038612D01*
X0120747Y0038612D01*
X0113494Y0038612D01*
X0113224Y0038744D01*
X0113224Y0040291D01*
X0112943Y0040969D01*
X0115410Y0040969D01*
X0115410Y0047969D01*
X0108410Y0047969D01*
X0108410Y0043854D01*
X0108533Y0043236D01*
X0108571Y0043145D01*
X0103835Y0043145D01*
X0103362Y0042949D01*
X0102890Y0043145D01*
X0096354Y0043145D01*
X0095045Y0042603D01*
X0094043Y0041600D01*
X0093501Y0040291D01*
X0093501Y0035373D01*
X0093346Y0035848D01*
X0092906Y0036713D01*
X0092335Y0037499D01*
X0091648Y0038185D01*
X0090863Y0038756D01*
X0089998Y0039197D01*
X0089074Y0039497D01*
X0088115Y0039649D01*
X0084661Y0039649D01*
X0081207Y0039649D01*
X0080248Y0039497D01*
X0079325Y0039197D01*
X0078460Y0038756D01*
X0077674Y0038185D01*
X0076988Y0037499D01*
X0076417Y0036713D01*
X0075976Y0035848D01*
X0075676Y0034925D01*
X0075524Y0033966D01*
X0075524Y0033480D01*
X0075524Y0032995D01*
X0075676Y0032036D01*
X0075976Y0031112D01*
X0076417Y0030247D01*
X0076988Y0029462D01*
X0077674Y0028775D01*
X0078460Y0028205D01*
X0079325Y0027764D01*
X0080248Y0027464D01*
X0081207Y0027312D01*
X0084661Y0027312D01*
X0084661Y0033480D01*
X0075524Y0033480D01*
X0084661Y0033480D01*
X0084661Y0033480D01*
X0084661Y0033480D01*
X0084661Y0027312D01*
X0088115Y0027312D01*
X0089074Y0027464D01*
X0089998Y0027764D01*
X0090863Y0028205D01*
X0091648Y0028775D01*
X0092335Y0029462D01*
X0092906Y0030247D01*
X0093346Y0031112D01*
X0093647Y0032036D01*
X0093668Y0032171D01*
X0094043Y0031266D01*
X0095045Y0030264D01*
X0096354Y0029721D01*
X0098638Y0029721D01*
X0098638Y0019912D01*
X0092717Y0019912D01*
X0091329Y0021300D01*
X0088929Y0022294D01*
X0080394Y0022294D01*
X0077994Y0021300D01*
X0076606Y0019912D01*
X0067127Y0019912D01*
X0065739Y0021300D01*
X0063338Y0022294D01*
X0054803Y0022294D01*
X0052403Y0021300D01*
X0050566Y0019463D01*
X0049572Y0017063D01*
X0049572Y0014465D01*
X0050566Y0012064D01*
X0052403Y0010227D01*
X0052651Y0010125D01*
X0024440Y0010125D01*
X0015811Y0018272D01*
X0017554Y0018272D01*
X0017554Y0024247D01*
X0018304Y0024247D01*
X0018304Y0018272D01*
X0025134Y0018272D01*
X0025752Y0018395D01*
X0026335Y0018637D01*
X0026859Y0018987D01*
X0027304Y0019433D01*
X0027655Y0019957D01*
X0027896Y0020539D01*
X0028019Y0021157D01*
X0028019Y0024247D01*
X0018304Y0024247D01*
X0018304Y0024997D01*
X0017554Y0024997D01*
X0017554Y0030972D01*
X0012768Y0030972D01*
X0012768Y0051475D01*
X0013157Y0051177D01*
X0013889Y0050754D01*
X0014670Y0050430D01*
X0015487Y0050212D01*
X0016325Y0050101D01*
X0016748Y0050101D01*
X0016748Y0056551D01*
X0016748Y0056551D01*
X0016748Y0050101D01*
X0017171Y0050101D01*
X0018009Y0050212D01*
X0018826Y0050430D01*
X0019194Y0050583D01*
X0019183Y0050555D01*
X0019060Y0049937D01*
X0019060Y0046749D01*
X0024739Y0046749D01*
X0024739Y0046590D01*
X0019060Y0046590D01*
X0019060Y0043401D01*
X0019183Y0042783D01*
X0019424Y0042201D01*
X0019774Y0041677D01*
X0020220Y0041231D01*
X0020744Y0040881D01*
X0021326Y0040640D01*
X0021945Y0040517D01*
X0024739Y0040517D01*
X0024739Y0046590D01*
X0024898Y0046590D01*
X0024898Y0040517D01*
X0027693Y0040517D01*
X0028007Y0040579D01*
X0029032Y0040154D01*
X0033127Y0040154D01*
X0033127Y0031334D01*
X0031591Y0031334D01*
X0030281Y0030792D01*
X0029279Y0029789D01*
X0028737Y0028480D01*
X0028737Y0020764D01*
X0029279Y0019455D01*
X0030281Y0018453D01*
X0031591Y0017910D01*
X0046787Y0017910D01*
X0048097Y0018453D01*
X0049099Y0019455D01*
X0049641Y0020764D01*
X0049641Y0028480D01*
X0049099Y0029789D01*
X0048097Y0030792D01*
X0046787Y0031334D01*
X0045251Y0031334D01*
X0045251Y0042105D01*
X0045673Y0041684D01*
X0046197Y0041333D01*
X0046779Y0041092D01*
X0047397Y0040969D01*
X0051513Y0040969D01*
X0051513Y0047969D01*
X0053913Y0047969D01*
X0053913Y0050369D01*
X0060913Y0050369D01*
X0060913Y0054484D01*
X0060790Y0055103D01*
X0060548Y0055685D01*
X0060198Y0056209D01*
X0059752Y0056655D01*
X0059228Y0057005D01*
X0058646Y0057246D01*
X0058028Y0057369D01*
X0053913Y0057369D01*
X0053913Y0050369D01*
X0051513Y0050369D01*
X0051513Y0057369D01*
X0050064Y0057369D01*
X0056888Y0064456D01*
X0057691Y0065248D01*
X0057000Y0064566D02*
X0057000Y0057369D01*
X0059236Y0057000D02*
X0110087Y0057000D01*
X0109000Y0056023D02*
X0109000Y0062938D01*
X0110938Y0061000D02*
X0053560Y0061000D01*
X0053000Y0060418D02*
X0053000Y0050369D01*
X0053913Y0049000D02*
X0115410Y0049000D01*
X0117000Y0047969D02*
X0117000Y0038612D01*
X0117810Y0041000D02*
X0115410Y0041000D01*
X0113000Y0040969D02*
X0113000Y0040831D01*
X0115410Y0045000D02*
X0117810Y0045000D01*
X0121000Y0040969D02*
X0121000Y0038612D01*
X0119800Y0033850D02*
X0112393Y0033850D01*
X0107102Y0036433D01*
X0105000Y0043145D02*
X0105000Y0066328D01*
X0101000Y0066328D02*
X0101000Y0043145D01*
X0097000Y0043145D02*
X0097000Y0066328D01*
X0093000Y0066328D02*
X0093000Y0036528D01*
X0092697Y0037000D02*
X0093501Y0037000D01*
X0093794Y0041000D02*
X0058182Y0041000D01*
X0058028Y0040969D02*
X0058646Y0041092D01*
X0059228Y0041333D01*
X0059752Y0041684D01*
X0060198Y0042129D01*
X0060548Y0042654D01*
X0060790Y0043236D01*
X0060913Y0043854D01*
X0060913Y0047969D01*
X0053913Y0047969D01*
X0053913Y0040969D01*
X0058028Y0040969D01*
X0057000Y0040969D02*
X0057000Y0039649D01*
X0055617Y0039649D02*
X0054658Y0039497D01*
X0053734Y0039197D01*
X0052869Y0038756D01*
X0052084Y0038185D01*
X0051397Y0037499D01*
X0050827Y0036713D01*
X0050386Y0035848D01*
X0050086Y0034925D01*
X0049934Y0033966D01*
X0049934Y0033480D01*
X0049934Y0032995D01*
X0050086Y0032036D01*
X0050386Y0031112D01*
X0050827Y0030247D01*
X0051397Y0029462D01*
X0052084Y0028775D01*
X0052869Y0028205D01*
X0053734Y0027764D01*
X0054658Y0027464D01*
X0055617Y0027312D01*
X0059071Y0027312D01*
X0062525Y0027312D01*
X0063484Y0027464D01*
X0064407Y0027764D01*
X0065272Y0028205D01*
X0066058Y0028775D01*
X0066744Y0029462D01*
X0067315Y0030247D01*
X0067756Y0031112D01*
X0068056Y0032036D01*
X0068208Y0032995D01*
X0068208Y0033480D01*
X0059071Y0033480D01*
X0059071Y0027312D01*
X0059071Y0033480D01*
X0059071Y0033480D01*
X0059071Y0033480D01*
X0049934Y0033480D01*
X0059071Y0033480D01*
X0059071Y0033480D01*
X0068208Y0033480D01*
X0068208Y0033966D01*
X0068056Y0034925D01*
X0067756Y0035848D01*
X0067315Y0036713D01*
X0066744Y0037499D01*
X0066058Y0038185D01*
X0065272Y0038756D01*
X0064407Y0039197D01*
X0063484Y0039497D01*
X0062525Y0039649D01*
X0059071Y0039649D01*
X0059071Y0033480D01*
X0059071Y0033480D01*
X0059071Y0039649D01*
X0055617Y0039649D01*
X0053913Y0041000D02*
X0051513Y0041000D01*
X0049000Y0040969D02*
X0049000Y0029888D01*
X0049426Y0029000D02*
X0051859Y0029000D01*
X0053000Y0028138D02*
X0053000Y0021548D01*
X0052103Y0021000D02*
X0049641Y0021000D01*
X0049000Y0019356D02*
X0049000Y0010125D01*
X0050178Y0013000D02*
X0021395Y0013000D01*
X0021000Y0013373D02*
X0021000Y0018272D01*
X0018304Y0021000D02*
X0017554Y0021000D01*
X0017000Y0018272D02*
X0017000Y0017149D01*
X0017158Y0017000D02*
X0049572Y0017000D01*
X0045000Y0017910D02*
X0045000Y0010125D01*
X0041000Y0010125D02*
X0041000Y0017910D01*
X0037000Y0017910D02*
X0037000Y0010125D01*
X0033000Y0010125D02*
X0033000Y0017910D01*
X0029000Y0020129D02*
X0029000Y0010125D01*
X0025000Y0010125D02*
X0025000Y0018272D01*
X0027988Y0021000D02*
X0028737Y0021000D01*
X0025000Y0024247D02*
X0025000Y0024997D01*
X0028019Y0024997D02*
X0028019Y0028087D01*
X0027896Y0028705D01*
X0027655Y0029287D01*
X0027304Y0029812D01*
X0026859Y0030257D01*
X0026335Y0030607D01*
X0025752Y0030849D01*
X0025134Y0030972D01*
X0018304Y0030972D01*
X0018304Y0024997D01*
X0028019Y0024997D01*
X0028019Y0025000D02*
X0028737Y0025000D01*
X0028952Y0029000D02*
X0027774Y0029000D01*
X0029000Y0029115D02*
X0029000Y0040167D01*
X0033000Y0040154D02*
X0033000Y0031334D01*
X0033127Y0033000D02*
X0012768Y0033000D01*
X0013000Y0030972D02*
X0013000Y0051297D01*
X0012768Y0049000D02*
X0019060Y0049000D01*
X0017000Y0050101D02*
X0017000Y0030972D01*
X0017554Y0029000D02*
X0018304Y0029000D01*
X0021000Y0030972D02*
X0021000Y0040775D01*
X0020566Y0041000D02*
X0012768Y0041000D01*
X0012768Y0045000D02*
X0019060Y0045000D01*
X0021000Y0046590D02*
X0021000Y0046749D01*
X0024739Y0045000D02*
X0024898Y0045000D01*
X0024898Y0041000D02*
X0024739Y0041000D01*
X0025000Y0040517D02*
X0025000Y0030972D01*
X0021000Y0024997D02*
X0021000Y0024247D01*
X0018304Y0025000D02*
X0017554Y0025000D01*
X0012768Y0037000D02*
X0033127Y0037000D01*
X0045251Y0037000D02*
X0051035Y0037000D01*
X0053000Y0038823D02*
X0053000Y0047969D01*
X0053913Y0045000D02*
X0051513Y0045000D01*
X0057000Y0047969D02*
X0057000Y0050369D01*
X0053913Y0053000D02*
X0051513Y0053000D01*
X0051513Y0057000D02*
X0053913Y0057000D01*
X0060913Y0053000D02*
X0108410Y0053000D01*
X0109000Y0050369D02*
X0109000Y0047969D01*
X0108410Y0045000D02*
X0060913Y0045000D01*
X0061000Y0039649D02*
X0061000Y0082679D01*
X0059655Y0081000D02*
X0068726Y0081000D01*
X0069000Y0080726D02*
X0069000Y0074765D01*
X0066809Y0073000D02*
X0058666Y0073000D01*
X0058639Y0069000D02*
X0066303Y0069000D01*
X0069000Y0066015D02*
X0069000Y0019912D01*
X0066039Y0021000D02*
X0077693Y0021000D01*
X0077000Y0020307D02*
X0077000Y0029450D01*
X0077450Y0029000D02*
X0066283Y0029000D01*
X0065000Y0028066D02*
X0065000Y0021606D01*
X0061000Y0022294D02*
X0061000Y0027312D01*
X0059071Y0029000D02*
X0059071Y0029000D01*
X0057000Y0027312D02*
X0057000Y0022294D01*
X0049641Y0025000D02*
X0098638Y0025000D01*
X0098638Y0029000D02*
X0091873Y0029000D01*
X0093000Y0030432D02*
X0093000Y0019912D01*
X0091630Y0021000D02*
X0098638Y0021000D01*
X0097000Y0019912D02*
X0097000Y0029721D01*
X0089000Y0027452D02*
X0089000Y0022265D01*
X0085000Y0022294D02*
X0085000Y0027312D01*
X0084661Y0029000D02*
X0084661Y0029000D01*
X0084661Y0033000D02*
X0084661Y0033000D01*
X0084661Y0033480D02*
X0084661Y0039649D01*
X0084661Y0033480D01*
X0084661Y0033480D01*
X0084661Y0037000D02*
X0084661Y0037000D01*
X0085000Y0039649D02*
X0085000Y0066328D01*
X0081000Y0066328D02*
X0081000Y0039616D01*
X0077000Y0037511D02*
X0077000Y0066328D01*
X0073000Y0066113D02*
X0073000Y0019912D01*
X0081000Y0022294D02*
X0081000Y0027345D01*
X0081000Y0033480D02*
X0081000Y0033480D01*
X0077000Y0033480D02*
X0077000Y0033480D01*
X0075524Y0033000D02*
X0068208Y0033000D01*
X0065000Y0033480D02*
X0065000Y0033480D01*
X0067107Y0037000D02*
X0076625Y0037000D01*
X0065000Y0038895D02*
X0065000Y0084941D01*
X0064976Y0085000D02*
X0061275Y0085000D01*
X0061275Y0089000D02*
X0064229Y0089000D01*
X0064229Y0093000D02*
X0061275Y0093000D01*
X0061000Y0095423D02*
X0061000Y0100112D01*
X0060308Y0101000D02*
X0058711Y0101000D01*
X0058874Y0099425D02*
X0060449Y0108480D01*
X0079346Y0108480D01*
X0080232Y0109366D01*
X0080232Y0112024D01*
X0080232Y0119110D01*
X0080651Y0121000D02*
X0076589Y0121000D01*
X0077000Y0120105D02*
X0077000Y0129296D01*
X0076000Y0129296D02*
X0076000Y0134858D01*
X0076000Y0134858D01*
X0076000Y0129296D01*
X0073000Y0129360D02*
X0073000Y0122476D01*
X0069000Y0122905D02*
X0069000Y0128934D01*
X0070963Y0129000D02*
X0080651Y0129000D01*
X0080651Y0125000D02*
X0066798Y0125000D01*
X0067732Y0134858D02*
X0067732Y0138598D01*
X0069504Y0140370D01*
X0075016Y0140370D01*
X0075803Y0141157D01*
X0075803Y0146472D01*
X0075606Y0146669D01*
X0088975Y0139957D02*
X0088975Y0128643D01*
X0090638Y0130306D01*
X0098512Y0138180D01*
X0101659Y0139483D01*
X0141907Y0139483D01*
X0141907Y0139743D01*
X0142632Y0141493D01*
X0143972Y0142832D01*
X0145662Y0143532D01*
X0150481Y0148352D01*
X0150481Y0158033D01*
X0150110Y0157137D01*
X0148328Y0155355D01*
X0146000Y0154391D01*
X0143480Y0154391D01*
X0141152Y0155355D01*
X0139740Y0156767D01*
X0138328Y0155355D01*
X0136000Y0154391D01*
X0133480Y0154391D01*
X0131152Y0155355D01*
X0129740Y0156767D01*
X0128328Y0155355D01*
X0126000Y0154391D01*
X0123480Y0154391D01*
X0121152Y0155355D01*
X0119819Y0156688D01*
X0119661Y0156688D01*
X0118328Y0155355D01*
X0116000Y0154391D01*
X0113480Y0154391D01*
X0111152Y0155355D01*
X0109740Y0156767D01*
X0108328Y0155355D01*
X0106000Y0154391D01*
X0103480Y0154391D01*
X0101152Y0155355D01*
X0099740Y0156767D01*
X0098328Y0155355D01*
X0097603Y0155054D01*
X0098989Y0153668D01*
X0099222Y0153106D01*
X0099868Y0152839D01*
X0100870Y0151837D01*
X0101413Y0150527D01*
X0101413Y0142811D01*
X0100870Y0141502D01*
X0099868Y0140500D01*
X0098559Y0139957D01*
X0092024Y0139957D01*
X0091551Y0140153D01*
X0091079Y0139957D01*
X0088975Y0139957D01*
X0089000Y0139957D02*
X0089000Y0128668D01*
X0088975Y0129000D02*
X0089332Y0129000D01*
X0088975Y0133000D02*
X0093332Y0133000D01*
X0093000Y0132668D02*
X0093000Y0139957D01*
X0088975Y0137000D02*
X0097332Y0137000D01*
X0097000Y0136668D02*
X0097000Y0139957D01*
X0100368Y0141000D02*
X0142428Y0141000D01*
X0141000Y0139483D02*
X0141000Y0155507D01*
X0137000Y0154805D02*
X0137000Y0139483D01*
X0133000Y0139483D02*
X0133000Y0154589D01*
X0129000Y0156027D02*
X0129000Y0139483D01*
X0125000Y0139483D02*
X0125000Y0154391D01*
X0121000Y0155507D02*
X0121000Y0139483D01*
X0117000Y0139483D02*
X0117000Y0154805D01*
X0113000Y0154589D02*
X0113000Y0139483D01*
X0109000Y0139483D02*
X0109000Y0156027D01*
X0105000Y0154391D02*
X0105000Y0139483D01*
X0101000Y0139210D02*
X0101000Y0141815D01*
X0101413Y0145000D02*
X0147129Y0145000D01*
X0149000Y0146871D02*
X0149000Y0156027D01*
X0149973Y0157000D02*
X0150481Y0157000D01*
X0150481Y0153000D02*
X0099479Y0153000D01*
X0101000Y0151524D02*
X0101000Y0155507D01*
X0101413Y0149000D02*
X0150481Y0149000D01*
X0145000Y0154391D02*
X0145000Y0143258D01*
X0145000Y0122359D02*
X0145000Y0118911D01*
X0144884Y0118631D02*
X0144581Y0117987D01*
X0144576Y0117887D01*
X0144538Y0117795D01*
X0144538Y0117626D01*
X0143402Y0116490D01*
X0141878Y0118014D01*
X0139622Y0118948D01*
X0137181Y0118948D01*
X0134925Y0118014D01*
X0133402Y0116490D01*
X0131878Y0118014D01*
X0129622Y0118948D01*
X0127181Y0118948D01*
X0124925Y0118014D01*
X0123402Y0116490D01*
X0121878Y0118014D01*
X0119622Y0118948D01*
X0117181Y0118948D01*
X0114925Y0118014D01*
X0113199Y0116287D01*
X0113132Y0116125D01*
X0112806Y0116573D01*
X0112164Y0117216D01*
X0111428Y0117750D01*
X0110618Y0118163D01*
X0109754Y0118444D01*
X0108856Y0118586D01*
X0108402Y0118586D01*
X0108402Y0112811D01*
X0108402Y0107036D01*
X0108856Y0107036D01*
X0109754Y0107178D01*
X0110618Y0107459D01*
X0111428Y0107872D01*
X0112164Y0108406D01*
X0112806Y0109049D01*
X0113132Y0109497D01*
X0113199Y0109335D01*
X0114925Y0107608D01*
X0117181Y0106674D01*
X0118631Y0106674D01*
X0124923Y0100382D01*
X0126416Y0099763D01*
X0162175Y0099763D01*
X0163668Y0100382D01*
X0164811Y0101525D01*
X0167117Y0103831D01*
X0167736Y0105324D01*
X0167736Y0107070D01*
X0167947Y0107036D01*
X0168402Y0107036D01*
X0168856Y0107036D01*
X0169754Y0107178D01*
X0170618Y0107459D01*
X0171428Y0107872D01*
X0172164Y0108406D01*
X0172806Y0109049D01*
X0173132Y0109497D01*
X0173199Y0109335D01*
X0174925Y0107608D01*
X0177181Y0106674D01*
X0179622Y0106674D01*
X0180049Y0106851D01*
X0185838Y0101061D01*
X0186981Y0099918D01*
X0188474Y0099300D01*
X0298191Y0099300D01*
X0298586Y0098346D01*
X0299869Y0097063D01*
X0298586Y0095780D01*
X0297587Y0093368D01*
X0297587Y0090758D01*
X0298586Y0088346D01*
X0300432Y0086500D01*
X0302844Y0085501D01*
X0305455Y0085501D01*
X0307867Y0086500D01*
X0309713Y0088346D01*
X0310712Y0090758D01*
X0310712Y0093368D01*
X0309713Y0095780D01*
X0308430Y0097063D01*
X0309713Y0098346D01*
X0310712Y0100758D01*
X0310712Y0103368D01*
X0309713Y0105780D01*
X0308430Y0107063D01*
X0309713Y0108346D01*
X0310712Y0110758D01*
X0310712Y0113368D01*
X0309819Y0115524D01*
X0311101Y0116806D01*
X0312244Y0117949D01*
X0312862Y0119442D01*
X0312862Y0168308D01*
X0312244Y0169801D01*
X0310712Y0171333D01*
X0310712Y0173368D01*
X0309713Y0175780D01*
X0308430Y0177063D01*
X0309713Y0178346D01*
X0310712Y0180758D01*
X0310712Y0183368D01*
X0309713Y0185780D01*
X0308430Y0187063D01*
X0309713Y0188346D01*
X0310712Y0190758D01*
X0310712Y0193368D01*
X0309713Y0195780D01*
X0308430Y0197063D01*
X0309713Y0198346D01*
X0310712Y0200758D01*
X0310712Y0203368D01*
X0309713Y0205780D01*
X0308171Y0207321D01*
X0308189Y0207334D01*
X0308879Y0208024D01*
X0309452Y0208813D01*
X0309895Y0209683D01*
X0310197Y0210611D01*
X0310350Y0211575D01*
X0310350Y0212063D01*
X0310350Y0212551D01*
X0310197Y0213515D01*
X0309895Y0214443D01*
X0309452Y0215312D01*
X0308978Y0215965D01*
X0309167Y0216043D01*
X0310169Y0217045D01*
X0310712Y0218354D01*
X0310712Y0225772D01*
X0310169Y0227081D01*
X0309167Y0228083D01*
X0307858Y0228625D01*
X0300441Y0228625D01*
X0299132Y0228083D01*
X0298130Y0227081D01*
X0297587Y0225772D01*
X0297587Y0218354D01*
X0298130Y0217045D01*
X0299132Y0216043D01*
X0299321Y0215965D01*
X0298847Y0215312D01*
X0298404Y0214443D01*
X0298102Y0213515D01*
X0297950Y0212551D01*
X0297950Y0212063D01*
X0297950Y0211575D01*
X0298102Y0210611D01*
X0298404Y0209683D01*
X0298847Y0208813D01*
X0299421Y0208024D01*
X0300111Y0207334D01*
X0300128Y0207321D01*
X0299150Y0206343D01*
X0298204Y0206343D01*
X0296674Y0205710D01*
X0295503Y0204539D01*
X0292353Y0201389D01*
X0291720Y0199859D01*
X0291720Y0179496D01*
X0244552Y0132328D01*
X0242298Y0132328D01*
X0240768Y0131694D01*
X0239597Y0130523D01*
X0234315Y0125241D01*
X0203715Y0125241D01*
X0202186Y0124607D01*
X0201015Y0123436D01*
X0196393Y0118814D01*
X0194625Y0120582D01*
X0193482Y0121725D01*
X0191989Y0122343D01*
X0166812Y0122343D01*
X0172015Y0127546D01*
X0230962Y0127546D01*
X0232492Y0128180D01*
X0246819Y0142507D01*
X0253796Y0142507D01*
X0255326Y0143141D01*
X0286182Y0173997D01*
X0286816Y0175526D01*
X0286816Y0210063D01*
X0294056Y0217304D01*
X0294690Y0218833D01*
X0294690Y0225913D01*
X0296091Y0227314D01*
X0297090Y0229726D01*
X0297090Y0238337D01*
X0296091Y0240749D01*
X0294245Y0242595D01*
X0291833Y0243594D01*
X0289222Y0243594D01*
X0286810Y0242595D01*
X0285528Y0241312D01*
X0284245Y0242595D01*
X0281833Y0243594D01*
X0279222Y0243594D01*
X0276810Y0242595D01*
X0275269Y0241053D01*
X0275257Y0241071D01*
X0274567Y0241761D01*
X0273777Y0242334D01*
X0272908Y0242777D01*
X0271979Y0243079D01*
X0271016Y0243231D01*
X0270528Y0243231D01*
X0270528Y0234032D01*
X0270527Y0234032D01*
X0270527Y0243231D01*
X0270040Y0243231D01*
X0269076Y0243079D01*
X0268148Y0242777D01*
X0267278Y0242334D01*
X0266489Y0241761D01*
X0265798Y0241071D01*
X0265225Y0240281D01*
X0264782Y0239411D01*
X0264480Y0238483D01*
X0264328Y0237519D01*
X0264328Y0234032D01*
X0270527Y0234032D01*
X0270527Y0234031D01*
X0270528Y0234031D01*
X0270528Y0224831D01*
X0271016Y0224831D01*
X0271979Y0224984D01*
X0272908Y0225286D01*
X0273777Y0225729D01*
X0274567Y0226302D01*
X0275257Y0226992D01*
X0275269Y0227010D01*
X0276810Y0225468D01*
X0279222Y0224469D01*
X0281833Y0224469D01*
X0284245Y0225468D01*
X0285528Y0226751D01*
X0286365Y0225913D01*
X0286365Y0221385D01*
X0279125Y0214145D01*
X0278491Y0212615D01*
X0278491Y0178078D01*
X0251244Y0150831D01*
X0244267Y0150831D01*
X0242737Y0150198D01*
X0241566Y0149027D01*
X0228410Y0135871D01*
X0199568Y0135871D01*
X0199602Y0135952D01*
X0199602Y0137847D01*
X0198877Y0139597D01*
X0197537Y0140937D01*
X0195787Y0141662D01*
X0194527Y0141662D01*
X0189645Y0146544D01*
X0211511Y0146544D01*
X0211611Y0146444D01*
X0211611Y0142811D01*
X0212153Y0141502D01*
X0213155Y0140500D01*
X0214465Y0139957D01*
X0221000Y0139957D01*
X0221472Y0140153D01*
X0221945Y0139957D01*
X0228480Y0139957D01*
X0229789Y0140500D01*
X0230792Y0141502D01*
X0231334Y0142811D01*
X0231334Y0150527D01*
X0230792Y0151837D01*
X0230312Y0152316D01*
X0230312Y0154391D01*
X0232299Y0154391D01*
X0234627Y0155355D01*
X0236039Y0156767D01*
X0237452Y0155355D01*
X0239779Y0154391D01*
X0242299Y0154391D01*
X0244627Y0155355D01*
X0246039Y0156767D01*
X0247452Y0155355D01*
X0249779Y0154391D01*
X0252299Y0154391D01*
X0254627Y0155355D01*
X0256409Y0157137D01*
X0257373Y0159465D01*
X0257373Y0161984D01*
X0256409Y0164312D01*
X0254627Y0166094D01*
X0252299Y0167058D01*
X0249779Y0167058D01*
X0247452Y0166094D01*
X0246039Y0164682D01*
X0244627Y0166094D01*
X0242299Y0167058D01*
X0239779Y0167058D01*
X0237452Y0166094D01*
X0236039Y0164682D01*
X0234627Y0166094D01*
X0232299Y0167058D01*
X0229779Y0167058D01*
X0227452Y0166094D01*
X0226170Y0164812D01*
X0225909Y0164812D01*
X0224627Y0166094D01*
X0222299Y0167058D01*
X0219779Y0167058D01*
X0217452Y0166094D01*
X0216039Y0164682D01*
X0214627Y0166094D01*
X0212299Y0167058D01*
X0209779Y0167058D01*
X0207452Y0166094D01*
X0206039Y0164682D01*
X0204627Y0166094D01*
X0202299Y0167058D01*
X0199779Y0167058D01*
X0197452Y0166094D01*
X0196039Y0164682D01*
X0194627Y0166094D01*
X0192299Y0167058D01*
X0189779Y0167058D01*
X0187452Y0166094D01*
X0186039Y0164682D01*
X0184627Y0166094D01*
X0182299Y0167058D01*
X0179779Y0167058D01*
X0177452Y0166094D01*
X0175670Y0164312D01*
X0174706Y0161984D01*
X0174706Y0159465D01*
X0175670Y0157137D01*
X0177452Y0155355D01*
X0179779Y0154391D01*
X0181325Y0154391D01*
X0181325Y0144249D01*
X0181943Y0142756D01*
X0188828Y0135871D01*
X0173229Y0135871D01*
X0175444Y0138086D01*
X0176062Y0139579D01*
X0176062Y0146075D01*
X0176762Y0147765D01*
X0176762Y0149660D01*
X0176037Y0151410D01*
X0174698Y0152750D01*
X0172947Y0153475D01*
X0171053Y0153475D01*
X0170783Y0153363D01*
X0170783Y0165666D01*
X0171994Y0165666D01*
X0175141Y0166970D01*
X0177550Y0169378D01*
X0181909Y0173737D01*
X0183805Y0173737D01*
X0186952Y0175041D01*
X0189361Y0177449D01*
X0190087Y0179201D01*
X0190213Y0179328D01*
X0194819Y0179328D01*
X0196128Y0179870D01*
X0197130Y0180872D01*
X0197672Y0182181D01*
X0197672Y0189898D01*
X0197130Y0191207D01*
X0196128Y0192209D01*
X0194819Y0192751D01*
X0189602Y0192751D01*
X0189602Y0204913D01*
X0189641Y0204900D01*
X0190569Y0204753D01*
X0191039Y0204753D01*
X0191039Y0210724D01*
X0191039Y0210724D01*
X0191039Y0204753D01*
X0191509Y0204753D01*
X0192438Y0204900D01*
X0193332Y0205190D01*
X0194169Y0205617D01*
X0194930Y0206169D01*
X0195594Y0206834D01*
X0195753Y0207053D01*
X0197452Y0205355D01*
X0199779Y0204391D01*
X0202299Y0204391D01*
X0204627Y0205355D01*
X0206039Y0206767D01*
X0207452Y0205355D01*
X0209779Y0204391D01*
X0212299Y0204391D01*
X0214627Y0205355D01*
X0216039Y0206767D01*
X0217452Y0205355D01*
X0219779Y0204391D01*
X0222299Y0204391D01*
X0224627Y0205355D01*
X0226039Y0206767D01*
X0227452Y0205355D01*
X0229779Y0204391D01*
X0232299Y0204391D01*
X0234627Y0205355D01*
X0236039Y0206767D01*
X0237452Y0205355D01*
X0239779Y0204391D01*
X0242299Y0204391D01*
X0244627Y0205355D01*
X0246325Y0207053D01*
X0246484Y0206834D01*
X0247149Y0206169D01*
X0247910Y0205617D01*
X0248747Y0205190D01*
X0249641Y0204900D01*
X0250569Y0204753D01*
X0251039Y0204753D01*
X0251039Y0210724D01*
X0251039Y0210724D01*
X0251039Y0204753D01*
X0251509Y0204753D01*
X0252438Y0204900D01*
X0253332Y0205190D01*
X0254169Y0205617D01*
X0254930Y0206169D01*
X0255594Y0206834D01*
X0256147Y0207595D01*
X0256574Y0208432D01*
X0256864Y0209326D01*
X0257011Y0210254D01*
X0257011Y0210724D01*
X0251039Y0210724D01*
X0251039Y0210724D01*
X0251039Y0210725D02*
X0251039Y0216696D01*
X0250569Y0216696D01*
X0249641Y0216549D01*
X0248747Y0216259D01*
X0247910Y0215832D01*
X0247149Y0215279D01*
X0246484Y0214615D01*
X0246325Y0214396D01*
X0244627Y0216094D01*
X0242299Y0217058D01*
X0239779Y0217058D01*
X0237452Y0216094D01*
X0236039Y0214682D01*
X0234627Y0216094D01*
X0232299Y0217058D01*
X0229779Y0217058D01*
X0227535Y0216128D01*
X0227535Y0218961D01*
X0238423Y0229849D01*
X0239346Y0232078D01*
X0239346Y0250237D01*
X0238423Y0252465D01*
X0236717Y0254171D01*
X0233608Y0257280D01*
X0310613Y0257280D01*
X0316847Y0251427D01*
X0316847Y0010416D01*
X0310613Y0004562D01*
X0271757Y0004562D01*
X0274864Y0007669D01*
X0274925Y0007608D01*
X0277181Y0006674D01*
X0279622Y0006674D01*
X0281878Y0007608D01*
X0282713Y0008444D01*
X0282807Y0008218D01*
X0283809Y0007216D01*
X0285118Y0006674D01*
X0291685Y0006674D01*
X0292994Y0007216D01*
X0293996Y0008218D01*
X0294539Y0009528D01*
X0294539Y0016094D01*
X0293996Y0017404D01*
X0292994Y0018406D01*
X0291685Y0018948D01*
X0285243Y0018948D01*
X0300544Y0034249D01*
X0301162Y0035742D01*
X0301162Y0068170D01*
X0301862Y0069860D01*
X0301862Y0071754D01*
X0301137Y0073505D01*
X0299798Y0074844D01*
X0298047Y0075569D01*
X0296153Y0075569D01*
X0294402Y0074844D01*
X0293063Y0073505D01*
X0292338Y0071754D01*
X0292338Y0069860D01*
X0293038Y0068170D01*
X0293038Y0048096D01*
X0292758Y0048319D01*
X0291683Y0048995D01*
X0290540Y0049545D01*
X0289342Y0049964D01*
X0288104Y0050247D01*
X0287409Y0050325D01*
X0287409Y0040289D01*
X0285009Y0040289D01*
X0285009Y0050325D01*
X0284313Y0050247D01*
X0283075Y0049964D01*
X0281878Y0049545D01*
X0280734Y0048995D01*
X0279659Y0048319D01*
X0278667Y0047528D01*
X0277770Y0046631D01*
X0276978Y0045638D01*
X0276303Y0044564D01*
X0275752Y0043420D01*
X0275333Y0042222D01*
X0275051Y0040985D01*
X0274972Y0040289D01*
X0285009Y0040289D01*
X0285009Y0037889D01*
X0274972Y0037889D01*
X0275051Y0037193D01*
X0275333Y0035956D01*
X0275752Y0034758D01*
X0276244Y0033738D01*
X0275372Y0034285D01*
X0274229Y0034836D01*
X0273031Y0035255D01*
X0271793Y0035537D01*
X0271098Y0035616D01*
X0271098Y0025580D01*
X0268698Y0025580D01*
X0268698Y0035573D01*
X0269248Y0037627D01*
X0269248Y0040751D01*
X0268440Y0043767D01*
X0266878Y0046472D01*
X0265468Y0047882D01*
X0265468Y0061609D01*
X0265949Y0062770D01*
X0265949Y0064462D01*
X0266091Y0064604D01*
X0266224Y0064604D01*
X0268893Y0065710D01*
X0270036Y0066852D01*
X0270220Y0066667D01*
X0270938Y0066117D01*
X0271721Y0065664D01*
X0272557Y0065318D01*
X0273431Y0065084D01*
X0274327Y0064966D01*
X0274779Y0064966D01*
X0274779Y0071866D01*
X0274780Y0071866D01*
X0274780Y0071866D01*
X0281680Y0071866D01*
X0281680Y0071414D01*
X0281561Y0070517D01*
X0281327Y0069643D01*
X0280981Y0068808D01*
X0280529Y0068024D01*
X0279978Y0067307D01*
X0279339Y0066667D01*
X0278621Y0066117D01*
X0277838Y0065664D01*
X0277002Y0065318D01*
X0276129Y0065084D01*
X0275232Y0064966D01*
X0274780Y0064966D01*
X0274780Y0071866D01*
X0281680Y0071866D01*
X0281680Y0072318D01*
X0281561Y0073215D01*
X0281327Y0074089D01*
X0280981Y0074924D01*
X0280529Y0075708D01*
X0279978Y0076425D01*
X0279339Y0077065D01*
X0278621Y0077616D01*
X0277838Y0078068D01*
X0277002Y0078414D01*
X0276129Y0078648D01*
X0275232Y0078766D01*
X0274780Y0078766D01*
X0274780Y0071866D01*
X0274779Y0071866D01*
X0274779Y0078766D01*
X0274327Y0078766D01*
X0273431Y0078648D01*
X0272557Y0078414D01*
X0271721Y0078068D01*
X0270938Y0077616D01*
X0270220Y0077065D01*
X0270036Y0076880D01*
X0268893Y0078023D01*
X0266224Y0079128D01*
X0263335Y0079128D01*
X0260666Y0078023D01*
X0258623Y0075980D01*
X0257517Y0073311D01*
X0257517Y0073177D01*
X0257376Y0073035D01*
X0255683Y0073035D01*
X0254522Y0072554D01*
X0236830Y0072554D01*
X0231860Y0077524D01*
X0232024Y0077524D01*
X0232642Y0077647D01*
X0233224Y0077889D01*
X0233749Y0078239D01*
X0234194Y0078685D01*
X0234544Y0079209D01*
X0234786Y0079791D01*
X0234909Y0080409D01*
X0234909Y0083598D01*
X0229229Y0083598D01*
X0229229Y0083757D01*
X0229070Y0083757D01*
X0229070Y0089830D01*
X0226275Y0089830D01*
X0225962Y0089768D01*
X0224937Y0090192D01*
X0218402Y0090192D01*
X0217092Y0089650D01*
X0216090Y0088648D01*
X0215947Y0088302D01*
X0210696Y0088302D01*
X0210696Y0091176D01*
X0200981Y0091176D01*
X0200981Y0091926D01*
X0200231Y0091926D01*
X0200231Y0091176D01*
X0190517Y0091176D01*
X0190517Y0088302D01*
X0189798Y0088302D01*
X0189798Y0095409D01*
X0189256Y0096719D01*
X0188254Y0097721D01*
X0186945Y0098263D01*
X0184743Y0098263D01*
X0184197Y0098810D01*
X0181050Y0100113D01*
X0174887Y0100113D01*
X0171740Y0098810D01*
X0170801Y0097871D01*
X0170439Y0097721D01*
X0170332Y0097613D01*
X0116664Y0097613D01*
X0109316Y0097706D01*
X0104050Y0102972D01*
X0104050Y0108995D01*
X0104640Y0108406D01*
X0105375Y0107872D01*
X0106185Y0107459D01*
X0107049Y0107178D01*
X0107947Y0107036D01*
X0108402Y0107036D01*
X0108402Y0112811D01*
X0108402Y0112811D01*
X0108402Y0112811D01*
X0108402Y0118586D01*
X0107947Y0118586D01*
X0107049Y0118444D01*
X0106185Y0118163D01*
X0105375Y0117750D01*
X0104640Y0117216D01*
X0104050Y0116627D01*
X0104050Y0119501D01*
X0106909Y0122359D01*
X0148227Y0122359D01*
X0145796Y0119928D01*
X0145269Y0119449D01*
X0145227Y0119359D01*
X0145156Y0119288D01*
X0144884Y0118631D01*
X0143912Y0117000D02*
X0142892Y0117000D01*
X0141000Y0118377D02*
X0141000Y0122359D01*
X0137000Y0122359D02*
X0137000Y0118873D01*
X0133912Y0117000D02*
X0132892Y0117000D01*
X0133000Y0116892D02*
X0133000Y0122359D01*
X0129000Y0122359D02*
X0129000Y0118948D01*
X0125000Y0118045D02*
X0125000Y0122359D01*
X0121000Y0122359D02*
X0121000Y0118377D01*
X0122892Y0117000D02*
X0123912Y0117000D01*
X0117000Y0118873D02*
X0117000Y0122359D01*
X0113000Y0122359D02*
X0113000Y0116306D01*
X0112379Y0117000D02*
X0113912Y0117000D01*
X0109000Y0118563D02*
X0109000Y0122359D01*
X0105550Y0121000D02*
X0146868Y0121000D01*
X0145000Y0099763D02*
X0145000Y0097613D01*
X0149000Y0097613D02*
X0149000Y0099763D01*
X0153000Y0099763D02*
X0153000Y0097613D01*
X0157000Y0097613D02*
X0157000Y0099763D01*
X0161000Y0099763D02*
X0161000Y0097613D01*
X0165000Y0097613D02*
X0165000Y0101713D01*
X0164287Y0101000D02*
X0185899Y0101000D01*
X0185838Y0101061D02*
X0185838Y0101061D01*
X0185000Y0101899D02*
X0185000Y0098263D01*
X0189000Y0099300D02*
X0189000Y0096975D01*
X0188975Y0097000D02*
X0191490Y0097000D01*
X0191677Y0097186D02*
X0191231Y0096741D01*
X0190881Y0096217D01*
X0190640Y0095634D01*
X0190517Y0095016D01*
X0190517Y0091926D01*
X0200231Y0091926D01*
X0200231Y0097901D01*
X0193401Y0097901D01*
X0192783Y0097778D01*
X0192201Y0097537D01*
X0191677Y0097186D01*
X0193000Y0097821D02*
X0193000Y0099300D01*
X0197000Y0099300D02*
X0197000Y0097901D01*
X0200231Y0097000D02*
X0200981Y0097000D01*
X0200981Y0097901D02*
X0200981Y0091926D01*
X0210696Y0091926D01*
X0210696Y0095016D01*
X0210573Y0095634D01*
X0210332Y0096217D01*
X0209982Y0096741D01*
X0209536Y0097186D01*
X0209012Y0097537D01*
X0208429Y0097778D01*
X0207811Y0097901D01*
X0200981Y0097901D01*
X0201000Y0097901D02*
X0201000Y0099300D01*
X0205000Y0099300D02*
X0205000Y0097901D01*
X0200981Y0093000D02*
X0200231Y0093000D01*
X0201000Y0091926D02*
X0201000Y0091176D01*
X0197000Y0091176D02*
X0197000Y0091926D01*
X0193000Y0091926D02*
X0193000Y0091176D01*
X0190517Y0093000D02*
X0189798Y0093000D01*
X0189798Y0089000D02*
X0190517Y0089000D01*
X0181000Y0100113D02*
X0181000Y0105899D01*
X0181899Y0105000D02*
X0167602Y0105000D01*
X0168402Y0107036D02*
X0168402Y0112811D01*
X0168402Y0107036D01*
X0169000Y0107059D02*
X0169000Y0097613D01*
X0173000Y0099332D02*
X0173000Y0109316D01*
X0172757Y0109000D02*
X0173534Y0109000D01*
X0168402Y0109000D02*
X0168402Y0109000D01*
X0168402Y0112811D02*
X0168402Y0112811D01*
X0169000Y0122343D02*
X0169000Y0124531D01*
X0169469Y0125000D02*
X0203134Y0125000D01*
X0205000Y0125241D02*
X0205000Y0127546D01*
X0201000Y0127546D02*
X0201000Y0123422D01*
X0198578Y0121000D02*
X0194207Y0121000D01*
X0193000Y0121925D02*
X0193000Y0127546D01*
X0197000Y0127546D02*
X0197000Y0119422D01*
X0189000Y0122343D02*
X0189000Y0127546D01*
X0185000Y0127546D02*
X0185000Y0122343D01*
X0181000Y0122343D02*
X0181000Y0127546D01*
X0177000Y0127546D02*
X0177000Y0122343D01*
X0173000Y0122343D02*
X0173000Y0127546D01*
X0177000Y0135871D02*
X0177000Y0155806D01*
X0175806Y0157000D02*
X0170783Y0157000D01*
X0173000Y0153453D02*
X0173000Y0166083D01*
X0170783Y0165000D02*
X0176358Y0165000D01*
X0177000Y0165642D02*
X0177000Y0168828D01*
X0177172Y0169000D02*
X0269413Y0169000D01*
X0269000Y0168587D02*
X0269000Y0225009D01*
X0269027Y0225000D02*
X0233573Y0225000D01*
X0233000Y0224427D02*
X0233000Y0216768D01*
X0232440Y0217000D02*
X0239639Y0217000D01*
X0241000Y0217058D02*
X0241000Y0257280D01*
X0237000Y0257280D02*
X0237000Y0253888D01*
X0237888Y0253000D02*
X0315172Y0253000D01*
X0313000Y0255039D02*
X0313000Y0006803D01*
X0311080Y0005000D02*
X0272195Y0005000D01*
X0273000Y0004562D02*
X0273000Y0005805D01*
X0277000Y0006749D02*
X0277000Y0004562D01*
X0281000Y0004562D02*
X0281000Y0007245D01*
X0285000Y0006723D02*
X0285000Y0004562D01*
X0289000Y0004562D02*
X0289000Y0006674D01*
X0293000Y0007222D02*
X0293000Y0004562D01*
X0297000Y0004562D02*
X0297000Y0030705D01*
X0295295Y0029000D02*
X0316847Y0029000D01*
X0316847Y0025000D02*
X0291295Y0025000D01*
X0293000Y0026705D02*
X0293000Y0018400D01*
X0294163Y0017000D02*
X0316847Y0017000D01*
X0316847Y0013000D02*
X0294539Y0013000D01*
X0294320Y0009000D02*
X0315340Y0009000D01*
X0309000Y0004562D02*
X0309000Y0087633D01*
X0309984Y0089000D02*
X0316847Y0089000D01*
X0316847Y0085000D02*
X0234909Y0085000D01*
X0234909Y0083757D02*
X0234909Y0086945D01*
X0234786Y0087563D01*
X0234544Y0088146D01*
X0234194Y0088670D01*
X0233749Y0089116D01*
X0233224Y0089466D01*
X0232642Y0089707D01*
X0232024Y0089830D01*
X0229229Y0089830D01*
X0229229Y0083757D01*
X0234909Y0083757D01*
X0233000Y0083757D02*
X0233000Y0083598D01*
X0234909Y0081000D02*
X0316847Y0081000D01*
X0316847Y0077000D02*
X0279404Y0077000D01*
X0281000Y0074879D02*
X0281000Y0099300D01*
X0277000Y0099300D02*
X0277000Y0078415D01*
X0274780Y0077000D02*
X0274779Y0077000D01*
X0273000Y0078533D02*
X0273000Y0099300D01*
X0269000Y0099300D02*
X0269000Y0077916D01*
X0269916Y0077000D02*
X0270155Y0077000D01*
X0274779Y0073000D02*
X0274780Y0073000D01*
X0277000Y0071866D02*
X0277000Y0071866D01*
X0274779Y0069000D02*
X0274780Y0069000D01*
X0274779Y0065000D02*
X0274780Y0065000D01*
X0275489Y0065000D02*
X0293038Y0065000D01*
X0293000Y0068261D02*
X0293000Y0048126D01*
X0293038Y0049000D02*
X0291672Y0049000D01*
X0289000Y0050042D02*
X0289000Y0099300D01*
X0285000Y0099300D02*
X0285000Y0050324D01*
X0285009Y0049000D02*
X0287409Y0049000D01*
X0287409Y0045000D02*
X0285009Y0045000D01*
X0285009Y0041000D02*
X0287409Y0041000D01*
X0285000Y0040289D02*
X0285000Y0037889D01*
X0281000Y0037889D02*
X0281000Y0040289D01*
X0277000Y0040289D02*
X0277000Y0037889D01*
X0275095Y0037000D02*
X0269080Y0037000D01*
X0269000Y0036702D02*
X0269000Y0025580D01*
X0268698Y0025580D02*
X0268698Y0023180D01*
X0258661Y0023180D01*
X0258740Y0022484D01*
X0259022Y0021246D01*
X0259441Y0020048D01*
X0259992Y0018905D01*
X0260085Y0018756D01*
X0259622Y0018948D01*
X0257181Y0018948D01*
X0254925Y0018014D01*
X0253402Y0016490D01*
X0252112Y0017779D01*
X0252112Y0028538D01*
X0252808Y0028136D01*
X0255825Y0027328D01*
X0258948Y0027328D01*
X0258982Y0027337D01*
X0258740Y0026275D01*
X0258661Y0025580D01*
X0268698Y0025580D01*
X0268698Y0025000D02*
X0252112Y0025000D01*
X0253000Y0028085D02*
X0253000Y0016892D01*
X0252892Y0017000D02*
X0253912Y0017000D01*
X0257000Y0018873D02*
X0257000Y0027328D01*
X0261000Y0025580D02*
X0261000Y0023180D01*
X0259108Y0021000D02*
X0252112Y0021000D01*
X0243988Y0021000D02*
X0222845Y0021000D01*
X0224925Y0018014D02*
X0223402Y0016490D01*
X0222854Y0017038D01*
X0222779Y0050612D01*
X0222779Y0051414D01*
X0222777Y0051419D01*
X0222777Y0051423D01*
X0222468Y0052163D01*
X0222160Y0052907D01*
X0222157Y0052911D01*
X0222155Y0052915D01*
X0221587Y0053481D01*
X0218925Y0056142D01*
X0218925Y0057680D01*
X0219199Y0057406D01*
X0243988Y0032617D01*
X0243988Y0017076D01*
X0243199Y0016287D01*
X0243132Y0016125D01*
X0242806Y0016573D01*
X0242164Y0017216D01*
X0241428Y0017750D01*
X0240618Y0018163D01*
X0239754Y0018444D01*
X0238856Y0018586D01*
X0238402Y0018586D01*
X0238402Y0012811D01*
X0238402Y0012811D01*
X0238402Y0018586D01*
X0237947Y0018586D01*
X0237049Y0018444D01*
X0236185Y0018163D01*
X0235375Y0017750D01*
X0234640Y0017216D01*
X0233997Y0016573D01*
X0233671Y0016125D01*
X0233604Y0016287D01*
X0231878Y0018014D01*
X0229622Y0018948D01*
X0227181Y0018948D01*
X0224925Y0018014D01*
X0225000Y0018045D02*
X0225000Y0051605D01*
X0223605Y0053000D02*
X0222070Y0053000D01*
X0221000Y0054068D02*
X0221000Y0055605D01*
X0219605Y0057000D02*
X0218925Y0057000D01*
X0222782Y0049000D02*
X0227605Y0049000D01*
X0229000Y0047605D02*
X0229000Y0018948D01*
X0232892Y0017000D02*
X0234424Y0017000D01*
X0233000Y0016892D02*
X0233000Y0043605D01*
X0231605Y0045000D02*
X0222791Y0045000D01*
X0222800Y0041000D02*
X0235605Y0041000D01*
X0237000Y0039605D02*
X0237000Y0018428D01*
X0238402Y0017000D02*
X0238402Y0017000D01*
X0241000Y0017968D02*
X0241000Y0035605D01*
X0239605Y0037000D02*
X0222809Y0037000D01*
X0222818Y0033000D02*
X0243605Y0033000D01*
X0243988Y0029000D02*
X0222827Y0029000D01*
X0222836Y0025000D02*
X0243988Y0025000D01*
X0243912Y0017000D02*
X0242379Y0017000D01*
X0238402Y0013000D02*
X0238402Y0013000D01*
X0223912Y0017000D02*
X0222892Y0017000D01*
X0265000Y0023180D02*
X0265000Y0025580D01*
X0268698Y0029000D02*
X0271098Y0029000D01*
X0271098Y0025580D02*
X0280385Y0025580D01*
X0277985Y0023180D01*
X0271098Y0023180D01*
X0271098Y0025580D01*
X0271098Y0025000D02*
X0279805Y0025000D01*
X0277000Y0025580D02*
X0277000Y0023180D01*
X0273000Y0023180D02*
X0273000Y0025580D01*
X0271098Y0033000D02*
X0268698Y0033000D01*
X0273000Y0035262D02*
X0273000Y0065200D01*
X0274070Y0065000D02*
X0267180Y0065000D01*
X0269000Y0065816D02*
X0269000Y0041676D01*
X0269181Y0041000D02*
X0275054Y0041000D01*
X0276577Y0045000D02*
X0267728Y0045000D01*
X0265468Y0049000D02*
X0280745Y0049000D01*
X0281000Y0049123D02*
X0281000Y0068853D01*
X0281061Y0069000D02*
X0292694Y0069000D01*
X0292854Y0073000D02*
X0281590Y0073000D01*
X0281000Y0071866D02*
X0281000Y0071866D01*
X0277000Y0065318D02*
X0277000Y0045665D01*
X0265468Y0053000D02*
X0293038Y0053000D01*
X0293038Y0057000D02*
X0265468Y0057000D01*
X0265468Y0061000D02*
X0293038Y0061000D01*
X0301162Y0061000D02*
X0316847Y0061000D01*
X0316847Y0057000D02*
X0301162Y0057000D01*
X0301162Y0053000D02*
X0316847Y0053000D01*
X0316847Y0049000D02*
X0301162Y0049000D01*
X0301162Y0045000D02*
X0316847Y0045000D01*
X0316847Y0041000D02*
X0301162Y0041000D01*
X0301162Y0037000D02*
X0316847Y0037000D01*
X0316847Y0033000D02*
X0299295Y0033000D01*
X0301000Y0035350D02*
X0301000Y0004562D01*
X0305000Y0004562D02*
X0305000Y0085501D01*
X0301000Y0086265D02*
X0301000Y0073642D01*
X0301346Y0073000D02*
X0316847Y0073000D01*
X0316847Y0069000D02*
X0301506Y0069000D01*
X0301162Y0065000D02*
X0316847Y0065000D01*
X0297000Y0075569D02*
X0297000Y0099300D01*
X0299806Y0097000D02*
X0209722Y0097000D01*
X0209000Y0097541D02*
X0209000Y0099300D01*
X0213000Y0099300D02*
X0213000Y0088302D01*
X0210696Y0089000D02*
X0216443Y0089000D01*
X0217000Y0089557D02*
X0217000Y0099300D01*
X0221000Y0099300D02*
X0221000Y0090192D01*
X0225000Y0090166D02*
X0225000Y0099300D01*
X0229000Y0099300D02*
X0229000Y0089830D01*
X0229070Y0089000D02*
X0229229Y0089000D01*
X0233000Y0089559D02*
X0233000Y0099300D01*
X0237000Y0099300D02*
X0237000Y0072554D01*
X0236384Y0073000D02*
X0255598Y0073000D01*
X0257000Y0073035D02*
X0257000Y0099300D01*
X0253000Y0099300D02*
X0253000Y0072554D01*
X0249000Y0072554D02*
X0249000Y0099300D01*
X0245000Y0099300D02*
X0245000Y0072554D01*
X0241000Y0072554D02*
X0241000Y0099300D01*
X0233864Y0089000D02*
X0298315Y0089000D01*
X0297587Y0093000D02*
X0210696Y0093000D01*
X0209000Y0091926D02*
X0209000Y0091176D01*
X0205000Y0091176D02*
X0205000Y0091926D01*
X0229070Y0085000D02*
X0229229Y0085000D01*
X0233000Y0077796D02*
X0233000Y0076384D01*
X0232384Y0077000D02*
X0259643Y0077000D01*
X0261000Y0078161D02*
X0261000Y0099300D01*
X0265000Y0099300D02*
X0265000Y0079128D01*
X0293000Y0073353D02*
X0293000Y0099300D01*
X0308493Y0097000D02*
X0316847Y0097000D01*
X0316847Y0093000D02*
X0310712Y0093000D01*
X0309000Y0096493D02*
X0309000Y0097633D01*
X0310712Y0101000D02*
X0316847Y0101000D01*
X0316847Y0105000D02*
X0310036Y0105000D01*
X0309000Y0106493D02*
X0309000Y0107633D01*
X0309984Y0109000D02*
X0316847Y0109000D01*
X0316847Y0113000D02*
X0310712Y0113000D01*
X0311295Y0117000D02*
X0316847Y0117000D01*
X0316847Y0121000D02*
X0312862Y0121000D01*
X0312862Y0125000D02*
X0316847Y0125000D01*
X0316847Y0129000D02*
X0312862Y0129000D01*
X0312862Y0133000D02*
X0316847Y0133000D01*
X0316847Y0137000D02*
X0312862Y0137000D01*
X0312862Y0141000D02*
X0316847Y0141000D01*
X0316847Y0145000D02*
X0312862Y0145000D01*
X0312862Y0149000D02*
X0316847Y0149000D01*
X0316847Y0153000D02*
X0312862Y0153000D01*
X0312862Y0157000D02*
X0316847Y0157000D01*
X0316847Y0161000D02*
X0312862Y0161000D01*
X0312862Y0165000D02*
X0316847Y0165000D01*
X0316847Y0169000D02*
X0312576Y0169000D01*
X0310712Y0173000D02*
X0316847Y0173000D01*
X0316847Y0177000D02*
X0308493Y0177000D01*
X0309000Y0176493D02*
X0309000Y0177633D01*
X0310712Y0181000D02*
X0316847Y0181000D01*
X0316847Y0185000D02*
X0310036Y0185000D01*
X0309000Y0186493D02*
X0309000Y0187633D01*
X0309984Y0189000D02*
X0316847Y0189000D01*
X0316847Y0193000D02*
X0310712Y0193000D01*
X0309000Y0196493D02*
X0309000Y0197633D01*
X0308493Y0197000D02*
X0316847Y0197000D01*
X0316847Y0201000D02*
X0310712Y0201000D01*
X0310036Y0205000D02*
X0316847Y0205000D01*
X0316847Y0209000D02*
X0309547Y0209000D01*
X0309000Y0208191D02*
X0309000Y0206493D01*
X0309000Y0212063D02*
X0309000Y0212063D01*
X0310350Y0212063D02*
X0304150Y0212063D01*
X0304150Y0212063D01*
X0310350Y0212063D01*
X0310278Y0213000D02*
X0316847Y0213000D01*
X0316847Y0217000D02*
X0310124Y0217000D01*
X0309000Y0215974D02*
X0309000Y0215935D01*
X0310712Y0221000D02*
X0316847Y0221000D01*
X0316847Y0225000D02*
X0310712Y0225000D01*
X0309000Y0228152D02*
X0309000Y0257280D01*
X0310912Y0257000D02*
X0233888Y0257000D01*
X0239346Y0249000D02*
X0316847Y0249000D01*
X0316847Y0245000D02*
X0239346Y0245000D01*
X0239346Y0241000D02*
X0265747Y0241000D01*
X0265000Y0239840D02*
X0265000Y0257280D01*
X0261000Y0257280D02*
X0261000Y0160587D01*
X0261413Y0161000D02*
X0257373Y0161000D01*
X0257000Y0162885D02*
X0257000Y0210185D01*
X0257000Y0210724D02*
X0257000Y0210724D01*
X0257011Y0210724D02*
X0257011Y0211194D01*
X0256864Y0212123D01*
X0256574Y0213017D01*
X0256147Y0213854D01*
X0255594Y0214615D01*
X0254930Y0215279D01*
X0254169Y0215832D01*
X0253332Y0216259D01*
X0252438Y0216549D01*
X0251509Y0216696D01*
X0251039Y0216696D01*
X0251039Y0210725D01*
X0251039Y0210725D01*
X0251039Y0210724D02*
X0257011Y0210724D01*
X0257000Y0211264D02*
X0257000Y0257280D01*
X0253000Y0257280D02*
X0253000Y0216366D01*
X0251039Y0213000D02*
X0251039Y0213000D01*
X0253000Y0210724D02*
X0253000Y0210724D01*
X0251039Y0209000D02*
X0251039Y0209000D01*
X0251039Y0205000D02*
X0251039Y0205000D01*
X0249333Y0205000D02*
X0243771Y0205000D01*
X0245000Y0205728D02*
X0245000Y0165721D01*
X0245721Y0165000D02*
X0246358Y0165000D01*
X0249000Y0166735D02*
X0249000Y0205108D01*
X0252746Y0205000D02*
X0278491Y0205000D01*
X0278491Y0209000D02*
X0256758Y0209000D01*
X0256579Y0213000D02*
X0278651Y0213000D01*
X0281000Y0216020D02*
X0281000Y0224469D01*
X0283114Y0225000D02*
X0286365Y0225000D01*
X0285000Y0226224D02*
X0285000Y0220020D01*
X0285980Y0221000D02*
X0229573Y0221000D01*
X0229000Y0220427D02*
X0229000Y0216735D01*
X0229639Y0217000D02*
X0227535Y0217000D01*
X0237000Y0215642D02*
X0237000Y0228427D01*
X0237573Y0229000D02*
X0264669Y0229000D01*
X0264782Y0228652D02*
X0264480Y0229580D01*
X0264328Y0230544D01*
X0264328Y0234031D01*
X0270527Y0234031D01*
X0270527Y0224831D01*
X0270040Y0224831D01*
X0269076Y0224984D01*
X0268148Y0225286D01*
X0267278Y0225729D01*
X0266489Y0226302D01*
X0265798Y0226992D01*
X0265225Y0227782D01*
X0264782Y0228652D01*
X0265000Y0228223D02*
X0265000Y0164587D01*
X0265413Y0165000D02*
X0255721Y0165000D01*
X0253000Y0166768D02*
X0253000Y0205082D01*
X0249000Y0216341D02*
X0249000Y0257280D01*
X0245000Y0257280D02*
X0245000Y0215721D01*
X0242440Y0217000D02*
X0281980Y0217000D01*
X0289000Y0212248D02*
X0289000Y0176776D01*
X0289224Y0177000D02*
X0286816Y0177000D01*
X0286816Y0181000D02*
X0291720Y0181000D01*
X0291720Y0185000D02*
X0286816Y0185000D01*
X0286816Y0189000D02*
X0291720Y0189000D01*
X0291720Y0193000D02*
X0286816Y0193000D01*
X0286816Y0197000D02*
X0291720Y0197000D01*
X0292192Y0201000D02*
X0286816Y0201000D01*
X0286816Y0205000D02*
X0295964Y0205000D01*
X0297000Y0205845D02*
X0297000Y0229509D01*
X0296789Y0229000D02*
X0316847Y0229000D01*
X0316847Y0233000D02*
X0297090Y0233000D01*
X0297090Y0237000D02*
X0316847Y0237000D01*
X0316847Y0241000D02*
X0295839Y0241000D01*
X0297000Y0238553D02*
X0297000Y0257280D01*
X0293000Y0257280D02*
X0293000Y0243110D01*
X0289000Y0243502D02*
X0289000Y0257280D01*
X0285000Y0257280D02*
X0285000Y0241839D01*
X0281000Y0243594D02*
X0281000Y0257280D01*
X0277000Y0257280D02*
X0277000Y0242673D01*
X0273000Y0242730D02*
X0273000Y0257280D01*
X0269000Y0257280D02*
X0269000Y0243054D01*
X0270527Y0241000D02*
X0270528Y0241000D01*
X0270527Y0237000D02*
X0270528Y0237000D01*
X0270528Y0234031D02*
X0261276Y0234031D01*
X0251787Y0247457D01*
X0239346Y0237000D02*
X0264328Y0237000D01*
X0265000Y0234032D02*
X0265000Y0234031D01*
X0264328Y0233000D02*
X0239346Y0233000D01*
X0237000Y0205806D02*
X0237000Y0165642D01*
X0236358Y0165000D02*
X0235721Y0165000D01*
X0233000Y0166768D02*
X0233000Y0204681D01*
X0233771Y0205000D02*
X0238308Y0205000D01*
X0241000Y0204391D02*
X0241000Y0167058D01*
X0229000Y0166735D02*
X0229000Y0204713D01*
X0228308Y0205000D02*
X0223771Y0205000D01*
X0225000Y0205728D02*
X0225000Y0165721D01*
X0225721Y0165000D02*
X0226358Y0165000D01*
X0221000Y0167058D02*
X0221000Y0204391D01*
X0218308Y0205000D02*
X0213771Y0205000D01*
X0213000Y0204681D02*
X0213000Y0192389D01*
X0215685Y0192389D02*
X0208855Y0192389D01*
X0208855Y0186414D01*
X0218570Y0186414D01*
X0218570Y0189504D01*
X0218447Y0190122D01*
X0218206Y0190705D01*
X0217856Y0191229D01*
X0217410Y0191675D01*
X0216886Y0192025D01*
X0216303Y0192266D01*
X0215685Y0192389D01*
X0217000Y0191948D02*
X0217000Y0205806D01*
X0209000Y0204713D02*
X0209000Y0192389D01*
X0208105Y0192389D02*
X0201275Y0192389D01*
X0200657Y0192266D01*
X0200075Y0192025D01*
X0199551Y0191675D01*
X0199105Y0191229D01*
X0198755Y0190705D01*
X0198514Y0190122D01*
X0198391Y0189504D01*
X0198391Y0186414D01*
X0208105Y0186414D01*
X0208105Y0185665D01*
X0198391Y0185665D01*
X0198391Y0182575D01*
X0198514Y0181956D01*
X0198755Y0181374D01*
X0199105Y0180850D01*
X0199551Y0180404D01*
X0200075Y0180054D01*
X0200657Y0179813D01*
X0201275Y0179690D01*
X0208105Y0179690D01*
X0208105Y0185664D01*
X0208855Y0185664D01*
X0208855Y0179690D01*
X0215685Y0179690D01*
X0216303Y0179813D01*
X0216886Y0180054D01*
X0217410Y0180404D01*
X0217856Y0180850D01*
X0218206Y0181374D01*
X0218447Y0181956D01*
X0218570Y0182575D01*
X0218570Y0185665D01*
X0208855Y0185665D01*
X0208855Y0186414D01*
X0208105Y0186414D01*
X0208105Y0192389D01*
X0205000Y0192389D02*
X0205000Y0205728D01*
X0203771Y0205000D02*
X0208308Y0205000D01*
X0201000Y0204391D02*
X0201000Y0192334D01*
X0197000Y0191337D02*
X0197000Y0205806D01*
X0198308Y0205000D02*
X0192746Y0205000D01*
X0193000Y0205082D02*
X0193000Y0192751D01*
X0197672Y0189000D02*
X0198391Y0189000D01*
X0201000Y0186414D02*
X0201000Y0185665D01*
X0198391Y0185000D02*
X0197672Y0185000D01*
X0197183Y0181000D02*
X0199005Y0181000D01*
X0197000Y0180742D02*
X0197000Y0165642D01*
X0196358Y0165000D02*
X0195721Y0165000D01*
X0193000Y0166768D02*
X0193000Y0179328D01*
X0189000Y0177088D02*
X0189000Y0166735D01*
X0186358Y0165000D02*
X0185721Y0165000D01*
X0185000Y0165721D02*
X0185000Y0174232D01*
X0181172Y0173000D02*
X0273413Y0173000D01*
X0273000Y0172587D02*
X0273000Y0225333D01*
X0272028Y0225000D02*
X0277941Y0225000D01*
X0277000Y0225390D02*
X0277000Y0176587D01*
X0277413Y0177000D02*
X0188912Y0177000D01*
X0181000Y0172828D02*
X0181000Y0167058D01*
X0174706Y0161000D02*
X0170783Y0161000D01*
X0174094Y0153000D02*
X0181325Y0153000D01*
X0181000Y0154391D02*
X0181000Y0135871D01*
X0185000Y0135871D02*
X0185000Y0139699D01*
X0183699Y0141000D02*
X0176062Y0141000D01*
X0176062Y0145000D02*
X0181325Y0145000D01*
X0181325Y0149000D02*
X0176762Y0149000D01*
X0174358Y0137000D02*
X0187699Y0137000D01*
X0193000Y0143189D02*
X0193000Y0146544D01*
X0191189Y0145000D02*
X0211611Y0145000D01*
X0209000Y0146544D02*
X0209000Y0135871D01*
X0213000Y0135871D02*
X0213000Y0140655D01*
X0212655Y0141000D02*
X0197385Y0141000D01*
X0197000Y0141159D02*
X0197000Y0146544D01*
X0201000Y0146544D02*
X0201000Y0135871D01*
X0199602Y0137000D02*
X0229539Y0137000D01*
X0229000Y0136461D02*
X0229000Y0140173D01*
X0230290Y0141000D02*
X0233539Y0141000D01*
X0233000Y0140461D02*
X0233000Y0154681D01*
X0230312Y0153000D02*
X0253413Y0153000D01*
X0253000Y0152587D02*
X0253000Y0154681D01*
X0249000Y0154713D02*
X0249000Y0150831D01*
X0245000Y0150831D02*
X0245000Y0155728D01*
X0241000Y0154391D02*
X0241000Y0148461D01*
X0241539Y0149000D02*
X0231334Y0149000D01*
X0225550Y0146800D02*
X0225213Y0146669D01*
X0225550Y0146800D02*
X0225550Y0154113D01*
X0231334Y0145000D02*
X0237539Y0145000D01*
X0237000Y0144461D02*
X0237000Y0155806D01*
X0249000Y0142507D02*
X0249000Y0136776D01*
X0249224Y0137000D02*
X0241311Y0137000D01*
X0241000Y0136689D02*
X0241000Y0131790D01*
X0237311Y0133000D02*
X0245224Y0133000D01*
X0245000Y0132776D02*
X0245000Y0140689D01*
X0245311Y0141000D02*
X0253224Y0141000D01*
X0253000Y0140776D02*
X0253000Y0142507D01*
X0257000Y0144776D02*
X0257000Y0144815D01*
X0257185Y0145000D02*
X0257224Y0145000D01*
X0261000Y0148776D02*
X0261000Y0148815D01*
X0261185Y0149000D02*
X0261224Y0149000D01*
X0265000Y0152776D02*
X0265000Y0152815D01*
X0265185Y0153000D02*
X0265224Y0153000D01*
X0269000Y0156776D02*
X0269000Y0156815D01*
X0269185Y0157000D02*
X0269224Y0157000D01*
X0273000Y0160776D02*
X0273000Y0160815D01*
X0273185Y0161000D02*
X0273224Y0161000D01*
X0277000Y0164776D02*
X0277000Y0164815D01*
X0277185Y0165000D02*
X0277224Y0165000D01*
X0281000Y0168776D02*
X0281000Y0168815D01*
X0281185Y0169000D02*
X0281224Y0169000D01*
X0285000Y0172776D02*
X0285000Y0172815D01*
X0285185Y0173000D02*
X0285224Y0173000D01*
X0278491Y0181000D02*
X0217956Y0181000D01*
X0217000Y0180130D02*
X0217000Y0165642D01*
X0216358Y0165000D02*
X0215721Y0165000D01*
X0213000Y0166768D02*
X0213000Y0179690D01*
X0209000Y0179690D02*
X0209000Y0166735D01*
X0206358Y0165000D02*
X0205721Y0165000D01*
X0205000Y0165721D02*
X0205000Y0179690D01*
X0208105Y0181000D02*
X0208855Y0181000D01*
X0208855Y0185000D02*
X0208105Y0185000D01*
X0209000Y0185665D02*
X0209000Y0186414D01*
X0208855Y0189000D02*
X0208105Y0189000D01*
X0205000Y0186414D02*
X0205000Y0185665D01*
X0201000Y0179745D02*
X0201000Y0167058D01*
X0213000Y0185665D02*
X0213000Y0186414D01*
X0217000Y0186414D02*
X0217000Y0185665D01*
X0218570Y0185000D02*
X0278491Y0185000D01*
X0278491Y0189000D02*
X0218570Y0189000D01*
X0194977Y0215232D02*
X0194930Y0215279D01*
X0194169Y0215832D01*
X0193332Y0216259D01*
X0192438Y0216549D01*
X0191509Y0216696D01*
X0191039Y0216696D01*
X0190569Y0216696D01*
X0189641Y0216549D01*
X0188747Y0216259D01*
X0187996Y0215876D01*
X0185889Y0217983D01*
X0182742Y0219287D01*
X0179336Y0219287D01*
X0176189Y0217983D01*
X0173781Y0215575D01*
X0172477Y0212428D01*
X0172477Y0192804D01*
X0172384Y0193272D01*
X0172143Y0193854D01*
X0171793Y0194378D01*
X0171347Y0194824D01*
X0170823Y0195174D01*
X0170240Y0195416D01*
X0169622Y0195539D01*
X0166434Y0195539D01*
X0166434Y0189859D01*
X0166275Y0189859D01*
X0166275Y0195539D01*
X0163086Y0195539D01*
X0162468Y0195416D01*
X0161886Y0195174D01*
X0161362Y0194824D01*
X0160916Y0194378D01*
X0160566Y0193854D01*
X0160325Y0193272D01*
X0160202Y0192654D01*
X0160202Y0189859D01*
X0166275Y0189859D01*
X0166275Y0189700D01*
X0160202Y0189700D01*
X0160202Y0186905D01*
X0160264Y0186592D01*
X0159839Y0185567D01*
X0159839Y0182791D01*
X0112271Y0182791D01*
X0112271Y0185665D01*
X0102556Y0185665D01*
X0102556Y0186414D01*
X0112271Y0186414D01*
X0112271Y0189504D01*
X0112148Y0190122D01*
X0111907Y0190705D01*
X0111556Y0191229D01*
X0111111Y0191675D01*
X0110587Y0192025D01*
X0110004Y0192266D01*
X0109386Y0192389D01*
X0102556Y0192389D01*
X0102556Y0186414D01*
X0101806Y0186414D01*
X0101806Y0185665D01*
X0092091Y0185665D01*
X0092091Y0182791D01*
X0091373Y0182791D01*
X0091373Y0189898D01*
X0090831Y0191207D01*
X0089829Y0192209D01*
X0088520Y0192751D01*
X0083302Y0192751D01*
X0083302Y0204913D01*
X0083342Y0204900D01*
X0084270Y0204753D01*
X0084740Y0204753D01*
X0084740Y0210724D01*
X0084740Y0210724D01*
X0084740Y0204753D01*
X0085210Y0204753D01*
X0086139Y0204900D01*
X0087032Y0205190D01*
X0087870Y0205617D01*
X0088630Y0206169D01*
X0089295Y0206834D01*
X0089454Y0207053D01*
X0091152Y0205355D01*
X0093480Y0204391D01*
X0096000Y0204391D01*
X0098328Y0205355D01*
X0099740Y0206767D01*
X0101152Y0205355D01*
X0103480Y0204391D01*
X0106000Y0204391D01*
X0108328Y0205355D01*
X0109740Y0206767D01*
X0111152Y0205355D01*
X0113480Y0204391D01*
X0116000Y0204391D01*
X0118328Y0205355D01*
X0119740Y0206767D01*
X0121152Y0205355D01*
X0123480Y0204391D01*
X0125753Y0204391D01*
X0125752Y0201978D01*
X0125050Y0200285D01*
X0125050Y0198390D01*
X0125775Y0196640D01*
X0127115Y0195300D01*
X0127385Y0195189D01*
X0126778Y0194937D01*
X0125438Y0193598D01*
X0124713Y0191847D01*
X0124713Y0189953D01*
X0125438Y0188202D01*
X0126778Y0186863D01*
X0128528Y0186138D01*
X0130422Y0186138D01*
X0132173Y0186863D01*
X0133512Y0188202D01*
X0134212Y0189892D01*
X0143381Y0199061D01*
X0144000Y0200554D01*
X0144000Y0202170D01*
X0144000Y0204796D01*
X0144270Y0204753D01*
X0144740Y0204753D01*
X0144740Y0210724D01*
X0144740Y0210724D01*
X0144740Y0204753D01*
X0145210Y0204753D01*
X0146139Y0204900D01*
X0147032Y0205190D01*
X0147870Y0205617D01*
X0148630Y0206169D01*
X0149295Y0206834D01*
X0149848Y0207595D01*
X0150274Y0208432D01*
X0150565Y0209326D01*
X0150712Y0210254D01*
X0150712Y0210724D01*
X0144740Y0210724D01*
X0144740Y0210724D01*
X0144740Y0210725D02*
X0144740Y0216696D01*
X0144270Y0216696D01*
X0144000Y0216653D01*
X0144000Y0217782D01*
X0146608Y0220391D01*
X0147751Y0221534D01*
X0148369Y0223027D01*
X0148369Y0225194D01*
X0149642Y0225194D01*
X0150951Y0225736D01*
X0151953Y0226738D01*
X0152495Y0228047D01*
X0152495Y0232614D01*
X0152218Y0233283D01*
X0152495Y0233953D01*
X0152495Y0238520D01*
X0151953Y0239829D01*
X0151537Y0240245D01*
X0155351Y0240245D01*
X0156844Y0240863D01*
X0157987Y0242006D01*
X0159088Y0243107D01*
X0161748Y0243107D01*
X0163057Y0243649D01*
X0164059Y0244651D01*
X0164602Y0245961D01*
X0164602Y0252102D01*
X0164059Y0253412D01*
X0163057Y0254414D01*
X0161748Y0254956D01*
X0155606Y0254956D01*
X0154543Y0254516D01*
X0153480Y0254956D01*
X0150044Y0254956D01*
X0148382Y0256756D01*
X0148344Y0256847D01*
X0147911Y0257280D01*
X0197526Y0257280D01*
X0195585Y0255339D01*
X0194977Y0253871D01*
X0194442Y0254406D01*
X0192030Y0255405D01*
X0189419Y0255405D01*
X0187007Y0254406D01*
X0185161Y0252560D01*
X0184162Y0250148D01*
X0184162Y0241537D01*
X0185161Y0239125D01*
X0187007Y0237279D01*
X0189419Y0236280D01*
X0192030Y0236280D01*
X0194442Y0237279D01*
X0195724Y0238562D01*
X0197007Y0237279D01*
X0199419Y0236280D01*
X0202030Y0236280D01*
X0203522Y0236898D01*
X0202160Y0235536D01*
X0195900Y0229276D01*
X0194977Y0227048D01*
X0194977Y0215232D01*
X0194977Y0217000D02*
X0186873Y0217000D01*
X0189000Y0216341D02*
X0189000Y0236454D01*
X0187682Y0237000D02*
X0152495Y0237000D01*
X0153000Y0240245D02*
X0153000Y0182791D01*
X0149000Y0182791D02*
X0149000Y0206539D01*
X0150459Y0209000D02*
X0172477Y0209000D01*
X0172477Y0205000D02*
X0146447Y0205000D01*
X0145000Y0204753D02*
X0145000Y0182791D01*
X0141000Y0182791D02*
X0141000Y0196680D01*
X0141320Y0197000D02*
X0172477Y0197000D01*
X0169000Y0195539D02*
X0169000Y0257280D01*
X0165000Y0257280D02*
X0165000Y0195539D01*
X0166275Y0193000D02*
X0166434Y0193000D01*
X0165000Y0189859D02*
X0165000Y0189700D01*
X0161000Y0189700D02*
X0161000Y0189859D01*
X0160202Y0189000D02*
X0133843Y0189000D01*
X0133000Y0187690D02*
X0133000Y0182791D01*
X0129000Y0182791D02*
X0129000Y0186138D01*
X0125108Y0189000D02*
X0112271Y0189000D01*
X0109000Y0186414D02*
X0109000Y0185665D01*
X0112271Y0185000D02*
X0159839Y0185000D01*
X0157000Y0182791D02*
X0157000Y0241019D01*
X0156981Y0241000D02*
X0184385Y0241000D01*
X0185000Y0239515D02*
X0185000Y0218352D01*
X0181000Y0219287D02*
X0181000Y0257280D01*
X0177000Y0257280D02*
X0177000Y0218319D01*
X0175206Y0217000D02*
X0144000Y0217000D01*
X0144740Y0216696D02*
X0144740Y0210725D01*
X0144740Y0210725D01*
X0144740Y0210724D02*
X0150712Y0210724D01*
X0150712Y0211194D01*
X0150565Y0212123D01*
X0150274Y0213017D01*
X0149848Y0213854D01*
X0149295Y0214615D01*
X0148630Y0215279D01*
X0147870Y0215832D01*
X0147032Y0216259D01*
X0146139Y0216549D01*
X0145210Y0216696D01*
X0144740Y0216696D01*
X0145000Y0216696D02*
X0145000Y0218783D01*
X0147217Y0221000D02*
X0194977Y0221000D01*
X0194977Y0225000D02*
X0148369Y0225000D01*
X0149000Y0225194D02*
X0149000Y0214910D01*
X0150280Y0213000D02*
X0172714Y0213000D01*
X0173000Y0213690D02*
X0173000Y0257280D01*
X0164230Y0253000D02*
X0185602Y0253000D01*
X0185000Y0252170D02*
X0185000Y0257280D01*
X0189000Y0257280D02*
X0189000Y0255231D01*
X0193000Y0255003D02*
X0193000Y0257280D01*
X0197000Y0257280D02*
X0197000Y0256754D01*
X0197246Y0257000D02*
X0148191Y0257000D01*
X0149000Y0257280D02*
X0149000Y0256087D01*
X0153000Y0254956D02*
X0153000Y0257280D01*
X0157000Y0257280D02*
X0157000Y0254956D01*
X0161000Y0254956D02*
X0161000Y0257280D01*
X0164602Y0249000D02*
X0184162Y0249000D01*
X0184162Y0245000D02*
X0164204Y0245000D01*
X0161000Y0243107D02*
X0161000Y0194462D01*
X0160270Y0193000D02*
X0137320Y0193000D01*
X0137000Y0192680D02*
X0137000Y0182791D01*
X0125000Y0182791D02*
X0125000Y0189260D01*
X0125000Y0192540D02*
X0125000Y0204391D01*
X0122009Y0205000D02*
X0117471Y0205000D01*
X0117000Y0204805D02*
X0117000Y0182791D01*
X0113000Y0182791D02*
X0113000Y0204589D01*
X0112009Y0205000D02*
X0107471Y0205000D01*
X0109000Y0206027D02*
X0109000Y0192389D01*
X0105000Y0192389D02*
X0105000Y0204391D01*
X0102009Y0205000D02*
X0097471Y0205000D01*
X0097000Y0204805D02*
X0097000Y0192389D01*
X0094976Y0192389D02*
X0094358Y0192266D01*
X0093776Y0192025D01*
X0093251Y0191675D01*
X0092806Y0191229D01*
X0092456Y0190705D01*
X0092214Y0190122D01*
X0092091Y0189504D01*
X0092091Y0186414D01*
X0101806Y0186414D01*
X0101806Y0192389D01*
X0094976Y0192389D01*
X0093000Y0191423D02*
X0093000Y0204589D01*
X0092009Y0205000D02*
X0086447Y0205000D01*
X0085000Y0204753D02*
X0085000Y0192751D01*
X0083302Y0193000D02*
X0125190Y0193000D01*
X0125626Y0197000D02*
X0083302Y0197000D01*
X0083302Y0201000D02*
X0125347Y0201000D01*
X0121000Y0205507D02*
X0121000Y0182791D01*
X0105000Y0185665D02*
X0105000Y0186414D01*
X0102556Y0189000D02*
X0101806Y0189000D01*
X0101000Y0186414D02*
X0101000Y0185665D01*
X0097000Y0185665D02*
X0097000Y0186414D01*
X0093000Y0186414D02*
X0093000Y0185665D01*
X0092091Y0185000D02*
X0091373Y0185000D01*
X0091373Y0189000D02*
X0092091Y0189000D01*
X0089000Y0192552D02*
X0089000Y0206539D01*
X0084740Y0205000D02*
X0084740Y0205000D01*
X0084740Y0209000D02*
X0084740Y0209000D01*
X0084740Y0210725D02*
X0084740Y0216696D01*
X0084270Y0216696D01*
X0083342Y0216549D01*
X0082448Y0216259D01*
X0081697Y0215876D01*
X0079590Y0217983D01*
X0076443Y0219287D01*
X0073037Y0219287D01*
X0069890Y0217983D01*
X0067481Y0215575D01*
X0066178Y0212428D01*
X0066178Y0195539D01*
X0064072Y0195539D01*
X0064072Y0189859D01*
X0063913Y0189859D01*
X0063913Y0195539D01*
X0060724Y0195539D01*
X0060388Y0195472D01*
X0060388Y0195845D01*
X0059663Y0197595D01*
X0058324Y0198935D01*
X0057515Y0199743D01*
X0057515Y0200331D01*
X0056973Y0201640D01*
X0056825Y0201787D01*
X0056973Y0201935D01*
X0057515Y0203244D01*
X0057515Y0207811D01*
X0056973Y0209120D01*
X0055971Y0210122D01*
X0054661Y0210665D01*
X0052680Y0210665D01*
X0051901Y0211444D01*
X0050408Y0212062D01*
X0043954Y0212062D01*
X0043423Y0213343D01*
X0042083Y0214683D01*
X0040333Y0215408D01*
X0038439Y0215408D01*
X0036688Y0214683D01*
X0035349Y0213343D01*
X0035230Y0213058D01*
X0033852Y0212487D01*
X0032513Y0211148D01*
X0032215Y0210429D01*
X0031201Y0211444D01*
X0029708Y0212062D01*
X0022242Y0212062D01*
X0020749Y0211444D01*
X0019970Y0210665D01*
X0018205Y0210665D01*
X0016896Y0210122D01*
X0016136Y0209362D01*
X0009642Y0209362D01*
X0008149Y0208744D01*
X0006405Y0207000D01*
X0005263Y0205857D01*
X0004644Y0204364D01*
X0004644Y0020141D01*
X0004623Y0020085D01*
X0004644Y0019336D01*
X0004644Y0018586D01*
X0004667Y0018530D01*
X0004669Y0018470D01*
X0004976Y0017785D01*
X0005263Y0017093D01*
X0005305Y0017050D01*
X0005330Y0016995D01*
X0005875Y0016480D01*
X0006405Y0015950D01*
X0006461Y0015927D01*
X0018497Y0004562D01*
X0010350Y0004562D01*
X0004562Y0010350D01*
X0004562Y0251493D01*
X0010350Y0257280D01*
X0020361Y0257280D01*
X0018420Y0255339D01*
X0017811Y0253871D01*
X0017276Y0254406D01*
X0014864Y0255405D01*
X0012254Y0255405D01*
X0009842Y0254406D01*
X0007996Y0252560D01*
X0006997Y0250148D01*
X0006997Y0241537D01*
X0007996Y0239125D01*
X0009842Y0237279D01*
X0012254Y0236280D01*
X0014864Y0236280D01*
X0017276Y0237279D01*
X0018559Y0238562D01*
X0019842Y0237279D01*
X0022254Y0236280D01*
X0024864Y0236280D01*
X0027276Y0237279D01*
X0027497Y0237500D01*
X0027497Y0232196D01*
X0028420Y0229968D01*
X0031687Y0226700D01*
X0033393Y0224995D01*
X0035621Y0224072D01*
X0077623Y0224072D01*
X0084998Y0216696D01*
X0084740Y0216696D01*
X0084740Y0210725D01*
X0084740Y0210725D01*
X0084740Y0213000D02*
X0084740Y0213000D01*
X0084694Y0217000D02*
X0080573Y0217000D01*
X0081000Y0216573D02*
X0081000Y0220694D01*
X0080694Y0221000D02*
X0004562Y0221000D01*
X0004562Y0217000D02*
X0068907Y0217000D01*
X0069000Y0217093D02*
X0069000Y0224072D01*
X0065000Y0224072D02*
X0065000Y0195539D01*
X0066178Y0197000D02*
X0059910Y0197000D01*
X0061000Y0195539D02*
X0061000Y0224072D01*
X0057000Y0224072D02*
X0057000Y0209054D01*
X0057022Y0209000D02*
X0066178Y0209000D01*
X0066178Y0205000D02*
X0057515Y0205000D01*
X0057000Y0202001D02*
X0057000Y0201574D01*
X0057238Y0201000D02*
X0066178Y0201000D01*
X0064072Y0193000D02*
X0063913Y0193000D01*
X0063913Y0189859D02*
X0063913Y0189700D01*
X0057839Y0189700D01*
X0057839Y0186905D01*
X0057902Y0186592D01*
X0057477Y0185567D01*
X0057477Y0184502D01*
X0057130Y0183664D01*
X0057130Y0180934D01*
X0057477Y0180096D01*
X0057477Y0179032D01*
X0058019Y0177722D01*
X0059022Y0176720D01*
X0060331Y0176178D01*
X0060838Y0176178D01*
X0062627Y0175437D01*
X0070557Y0175437D01*
X0070953Y0175041D01*
X0074100Y0173737D01*
X0075997Y0173737D01*
X0078825Y0170909D01*
X0045869Y0170909D01*
X0045627Y0171009D01*
X0042003Y0171009D01*
X0040473Y0170375D01*
X0039916Y0169818D01*
X0039916Y0171764D01*
X0041455Y0173302D01*
X0042180Y0175053D01*
X0042180Y0193088D01*
X0049271Y0193088D01*
X0049701Y0192910D01*
X0050879Y0192910D01*
X0051589Y0192200D01*
X0052928Y0190860D01*
X0054679Y0190135D01*
X0056573Y0190135D01*
X0057839Y0190660D01*
X0057839Y0189859D01*
X0063913Y0189859D01*
X0061000Y0189859D02*
X0061000Y0189700D01*
X0057839Y0189000D02*
X0042180Y0189000D01*
X0042180Y0193000D02*
X0049484Y0193000D01*
X0049000Y0193088D02*
X0049000Y0170909D01*
X0053000Y0170909D02*
X0053000Y0190831D01*
X0057000Y0190312D02*
X0057000Y0170909D01*
X0061000Y0170909D02*
X0061000Y0176111D01*
X0058742Y0177000D02*
X0042180Y0177000D01*
X0042180Y0181000D02*
X0057130Y0181000D01*
X0057477Y0185000D02*
X0042180Y0185000D01*
X0045000Y0193088D02*
X0045000Y0171009D01*
X0041000Y0170593D02*
X0041000Y0172848D01*
X0041152Y0173000D02*
X0076734Y0173000D01*
X0077000Y0172734D02*
X0077000Y0170909D01*
X0073000Y0170909D02*
X0073000Y0174193D01*
X0069000Y0175437D02*
X0069000Y0170909D01*
X0065000Y0170909D02*
X0065000Y0175437D01*
X0055626Y0194898D02*
X0053165Y0197358D01*
X0052181Y0198047D01*
X0052181Y0197850D01*
X0037417Y0197850D01*
X0037417Y0176000D01*
X0035154Y0173736D01*
X0035154Y0114957D01*
X0026748Y0106551D01*
X0026945Y0106551D01*
X0035252Y0098244D01*
X0037614Y0098244D01*
X0040370Y0095488D01*
X0040370Y0075606D01*
X0031709Y0066945D01*
X0027142Y0066945D01*
X0026748Y0066551D01*
X0026748Y0056551D02*
X0016748Y0056551D01*
X0020298Y0056551D01*
X0026748Y0056551D01*
X0026748Y0056551D01*
X0025000Y0056551D02*
X0025000Y0056551D01*
X0021000Y0056551D02*
X0021000Y0056551D01*
X0017000Y0056551D02*
X0017000Y0056551D01*
X0016748Y0056551D02*
X0016748Y0056551D01*
X0016748Y0059739D01*
X0016748Y0059739D01*
X0016748Y0056551D01*
X0016748Y0056551D01*
X0016748Y0057000D02*
X0016748Y0057000D01*
X0016748Y0053000D02*
X0016748Y0053000D01*
X0004644Y0053000D02*
X0004562Y0053000D01*
X0004562Y0057000D02*
X0004644Y0057000D01*
X0004562Y0061000D02*
X0004644Y0061000D01*
X0004562Y0065000D02*
X0004644Y0065000D01*
X0004562Y0069000D02*
X0004644Y0069000D01*
X0004562Y0073000D02*
X0004644Y0073000D01*
X0004562Y0077000D02*
X0004644Y0077000D01*
X0004562Y0081000D02*
X0004644Y0081000D01*
X0004562Y0085000D02*
X0004644Y0085000D01*
X0004562Y0089000D02*
X0004644Y0089000D01*
X0004562Y0093000D02*
X0004644Y0093000D01*
X0004562Y0097000D02*
X0004644Y0097000D01*
X0004562Y0101000D02*
X0004644Y0101000D01*
X0004562Y0105000D02*
X0004644Y0105000D01*
X0004562Y0109000D02*
X0004644Y0109000D01*
X0004562Y0113000D02*
X0004644Y0113000D01*
X0004562Y0117000D02*
X0004644Y0117000D01*
X0004562Y0121000D02*
X0004644Y0121000D01*
X0004562Y0125000D02*
X0004644Y0125000D01*
X0004562Y0129000D02*
X0004644Y0129000D01*
X0004562Y0133000D02*
X0004644Y0133000D01*
X0004562Y0137000D02*
X0004644Y0137000D01*
X0004562Y0141000D02*
X0004644Y0141000D01*
X0004562Y0145000D02*
X0004644Y0145000D01*
X0004562Y0149000D02*
X0004644Y0149000D01*
X0004562Y0153000D02*
X0004644Y0153000D01*
X0004562Y0157000D02*
X0004644Y0157000D01*
X0004562Y0161000D02*
X0004644Y0161000D01*
X0004562Y0165000D02*
X0004644Y0165000D01*
X0004562Y0169000D02*
X0004644Y0169000D01*
X0004562Y0173000D02*
X0004644Y0173000D01*
X0004562Y0177000D02*
X0004644Y0177000D01*
X0004562Y0181000D02*
X0004644Y0181000D01*
X0004562Y0185000D02*
X0004644Y0185000D01*
X0004562Y0189000D02*
X0004644Y0189000D01*
X0004562Y0193000D02*
X0004644Y0193000D01*
X0004562Y0197000D02*
X0004644Y0197000D01*
X0004562Y0201000D02*
X0004644Y0201000D01*
X0004562Y0205000D02*
X0004907Y0205000D01*
X0005000Y0205224D02*
X0005000Y0251931D01*
X0006069Y0253000D02*
X0008436Y0253000D01*
X0009000Y0253564D02*
X0009000Y0255931D01*
X0010069Y0257000D02*
X0020080Y0257000D01*
X0017000Y0257280D02*
X0017000Y0254520D01*
X0013000Y0255405D02*
X0013000Y0257280D01*
X0006997Y0249000D02*
X0004562Y0249000D01*
X0004562Y0245000D02*
X0006997Y0245000D01*
X0007219Y0241000D02*
X0004562Y0241000D01*
X0004562Y0237000D02*
X0010516Y0237000D01*
X0009000Y0238121D02*
X0009000Y0209096D01*
X0008768Y0209000D02*
X0004562Y0209000D01*
X0004562Y0213000D02*
X0035090Y0213000D01*
X0033000Y0211635D02*
X0033000Y0225387D01*
X0033387Y0225000D02*
X0004562Y0225000D01*
X0004562Y0229000D02*
X0029387Y0229000D01*
X0029000Y0229387D02*
X0029000Y0212062D01*
X0025000Y0212062D02*
X0025000Y0236336D01*
X0026602Y0237000D02*
X0027497Y0237000D01*
X0027497Y0233000D02*
X0004562Y0233000D01*
X0013000Y0236280D02*
X0013000Y0209362D01*
X0017000Y0210166D02*
X0017000Y0237165D01*
X0016602Y0237000D02*
X0020516Y0237000D01*
X0021000Y0236800D02*
X0021000Y0211548D01*
X0020685Y0198047D02*
X0021981Y0197650D01*
X0027476Y0198835D02*
X0027550Y0198550D01*
X0030700Y0194163D02*
X0030700Y0177852D01*
X0030528Y0176689D01*
X0024622Y0170783D01*
X0024622Y0143224D01*
X0059369Y0113000D02*
X0061822Y0113000D01*
X0061000Y0113782D02*
X0061000Y0106613D01*
X0060008Y0105000D02*
X0058689Y0105000D01*
X0058668Y0109000D02*
X0064734Y0109000D01*
X0065000Y0108777D02*
X0065000Y0108124D01*
X0069000Y0108265D02*
X0069000Y0106334D01*
X0073000Y0106334D02*
X0073000Y0108265D01*
X0075849Y0109000D02*
X0080651Y0109000D01*
X0080651Y0113000D02*
X0077200Y0113000D01*
X0077000Y0110635D02*
X0077000Y0103963D01*
X0076447Y0105000D02*
X0080651Y0105000D01*
X0080651Y0101000D02*
X0077200Y0101000D01*
X0077200Y0097000D02*
X0080651Y0097000D01*
X0080651Y0093000D02*
X0076354Y0093000D01*
X0077000Y0094494D02*
X0077000Y0089872D01*
X0077872Y0089000D02*
X0082390Y0089000D01*
X0081000Y0090792D02*
X0081000Y0085872D01*
X0081872Y0085000D02*
X0086531Y0085000D01*
X0085000Y0086531D02*
X0085000Y0074452D01*
X0083986Y0077000D02*
X0094531Y0077000D01*
X0093000Y0078531D02*
X0093000Y0074452D01*
X0089000Y0074452D02*
X0089000Y0082531D01*
X0090531Y0081000D02*
X0084599Y0081000D01*
X0073000Y0076726D02*
X0073000Y0074667D01*
X0072726Y0077000D02*
X0058693Y0077000D01*
X0059801Y0097000D02*
X0063383Y0097000D01*
X0067929Y0099917D02*
X0064484Y0103362D01*
X0067929Y0099917D02*
X0070291Y0099228D01*
X0077200Y0117000D02*
X0080651Y0117000D01*
X0076000Y0133000D02*
X0076000Y0133000D01*
X0105000Y0120450D02*
X0105000Y0117478D01*
X0104424Y0117000D02*
X0104050Y0117000D01*
X0108402Y0117000D02*
X0108402Y0117000D01*
X0108402Y0113000D02*
X0108402Y0113000D01*
X0108402Y0109000D02*
X0108402Y0109000D01*
X0109000Y0107059D02*
X0109000Y0098022D01*
X0106022Y0101000D02*
X0124305Y0101000D01*
X0125000Y0100350D02*
X0125000Y0097613D01*
X0121000Y0097613D02*
X0121000Y0104305D01*
X0120305Y0105000D02*
X0104050Y0105000D01*
X0105000Y0102022D02*
X0105000Y0108144D01*
X0112757Y0109000D02*
X0113534Y0109000D01*
X0113000Y0109316D02*
X0113000Y0097660D01*
X0117000Y0097613D02*
X0117000Y0106749D01*
X0129000Y0099763D02*
X0129000Y0097613D01*
X0133000Y0097613D02*
X0133000Y0099763D01*
X0137000Y0099763D02*
X0137000Y0097613D01*
X0141000Y0097613D02*
X0141000Y0099763D01*
X0177000Y0100113D02*
X0177000Y0106749D01*
X0205000Y0135871D02*
X0205000Y0146544D01*
X0217000Y0139957D02*
X0217000Y0135871D01*
X0221000Y0135871D02*
X0221000Y0139958D01*
X0225000Y0139957D02*
X0225000Y0135871D01*
X0225000Y0127546D02*
X0225000Y0125241D01*
X0229000Y0125241D02*
X0229000Y0127546D01*
X0233000Y0128689D02*
X0233000Y0125241D01*
X0233311Y0129000D02*
X0238074Y0129000D01*
X0237000Y0127926D02*
X0237000Y0132689D01*
X0221000Y0127546D02*
X0221000Y0125241D01*
X0217000Y0125241D02*
X0217000Y0127546D01*
X0213000Y0127546D02*
X0213000Y0125241D01*
X0209000Y0125241D02*
X0209000Y0127546D01*
X0256272Y0157000D02*
X0257413Y0157000D01*
X0257000Y0156587D02*
X0257000Y0158563D01*
X0278491Y0193000D02*
X0189602Y0193000D01*
X0189602Y0197000D02*
X0278491Y0197000D01*
X0278491Y0201000D02*
X0189602Y0201000D01*
X0191039Y0205000D02*
X0191039Y0205000D01*
X0191039Y0209000D02*
X0191039Y0209000D01*
X0191039Y0210725D02*
X0191039Y0216696D01*
X0191039Y0210725D01*
X0191039Y0210725D01*
X0191039Y0213000D02*
X0191039Y0213000D01*
X0193000Y0216366D02*
X0193000Y0236682D01*
X0193767Y0237000D02*
X0197682Y0237000D01*
X0197000Y0237287D02*
X0197000Y0230376D01*
X0195786Y0229000D02*
X0152495Y0229000D01*
X0152335Y0233000D02*
X0199624Y0233000D01*
X0201000Y0234376D02*
X0201000Y0236280D01*
X0172477Y0201000D02*
X0144000Y0201000D01*
X0144740Y0205000D02*
X0144740Y0205000D01*
X0144740Y0209000D02*
X0144740Y0209000D01*
X0145000Y0210724D02*
X0145000Y0210724D01*
X0144740Y0213000D02*
X0144740Y0213000D01*
X0149000Y0210724D02*
X0149000Y0210724D01*
X0172438Y0193000D02*
X0172477Y0193000D01*
X0149950Y0248050D02*
X0150409Y0249031D01*
X0149031Y0249031D01*
X0144307Y0254150D01*
X0134661Y0254150D01*
X0130724Y0249031D01*
X0131050Y0249400D01*
X0135100Y0253450D01*
X0150400Y0249400D02*
X0150409Y0249031D01*
X0101000Y0205507D02*
X0101000Y0192389D01*
X0077000Y0219056D02*
X0077000Y0224072D01*
X0073000Y0224072D02*
X0073000Y0219271D01*
X0066415Y0213000D02*
X0043565Y0213000D01*
X0045000Y0212062D02*
X0045000Y0224072D01*
X0049000Y0224072D02*
X0049000Y0212062D01*
X0053000Y0210665D02*
X0053000Y0224072D01*
X0041000Y0224072D02*
X0041000Y0215132D01*
X0037000Y0214812D02*
X0037000Y0224072D01*
X0037516Y0198835D02*
X0037417Y0198343D01*
X0037417Y0197850D01*
X0016748Y0106551D02*
X0016748Y0104346D01*
X0011433Y0099819D01*
X0016748Y0096551D02*
X0026748Y0096551D01*
X0020298Y0096551D01*
X0016748Y0096551D01*
X0016748Y0096551D01*
X0017000Y0096551D02*
X0017000Y0096551D01*
X0021000Y0096551D02*
X0021000Y0096551D01*
X0025000Y0096551D02*
X0025000Y0096551D01*
X0026748Y0096551D02*
X0026748Y0096551D01*
X0004644Y0049000D02*
X0004562Y0049000D01*
X0004562Y0045000D02*
X0004644Y0045000D01*
X0004562Y0041000D02*
X0004644Y0041000D01*
X0004562Y0037000D02*
X0004644Y0037000D01*
X0004562Y0033000D02*
X0004644Y0033000D01*
X0004562Y0029000D02*
X0004644Y0029000D01*
X0004562Y0025000D02*
X0004644Y0025000D01*
X0004562Y0021000D02*
X0004644Y0021000D01*
X0005000Y0017726D02*
X0005000Y0009912D01*
X0005912Y0009000D02*
X0013797Y0009000D01*
X0013000Y0009753D02*
X0013000Y0004562D01*
X0009912Y0005000D02*
X0018033Y0005000D01*
X0017000Y0004562D02*
X0017000Y0005976D01*
X0009000Y0005912D02*
X0009000Y0013529D01*
X0009561Y0013000D02*
X0004562Y0013000D01*
X0004562Y0017000D02*
X0005328Y0017000D01*
X0045251Y0033000D02*
X0049934Y0033000D01*
X0053000Y0033480D02*
X0053000Y0033480D01*
X0057000Y0033480D02*
X0057000Y0033480D01*
X0059071Y0033000D02*
X0059071Y0033000D01*
X0061000Y0033480D02*
X0061000Y0033480D01*
X0059071Y0037000D02*
X0059071Y0037000D01*
X0047243Y0041000D02*
X0045251Y0041000D01*
X0089000Y0039509D02*
X0089000Y0066328D01*
X0097000Y0074452D02*
X0097000Y0074531D01*
X0113000Y0058938D02*
X0113000Y0057369D01*
X0113000Y0050369D02*
X0113000Y0047969D01*
X0119800Y0033850D02*
X0119800Y0024400D01*
X0108550Y0013150D01*
X0108402Y0012811D01*
X0119800Y0033850D02*
X0126492Y0033850D01*
X0143256Y0033850D02*
X0143256Y0011294D01*
X0146350Y0008200D01*
X0171324Y0008200D01*
X0173630Y0010506D01*
X0173630Y0024680D01*
X0177850Y0028900D01*
X0177850Y0040150D01*
X0178165Y0040567D01*
X0287295Y0021000D02*
X0316847Y0021000D01*
X0289000Y0022705D02*
X0289000Y0018948D01*
X0293000Y0202036D02*
X0293000Y0216248D01*
X0293752Y0217000D02*
X0298175Y0217000D01*
X0297587Y0221000D02*
X0294690Y0221000D01*
X0294690Y0225000D02*
X0297587Y0225000D01*
X0301000Y0228625D02*
X0301000Y0257280D01*
X0305000Y0257280D02*
X0305000Y0228625D01*
X0305000Y0212063D02*
X0305000Y0212063D01*
X0304149Y0212063D02*
X0297950Y0212063D01*
X0304149Y0212063D01*
X0304149Y0212063D01*
X0301000Y0212063D02*
X0301000Y0212063D01*
X0298021Y0213000D02*
X0289752Y0213000D01*
X0286816Y0209000D02*
X0298752Y0209000D01*
X0270528Y0225000D02*
X0270527Y0225000D01*
X0270527Y0229000D02*
X0270528Y0229000D01*
X0270527Y0233000D02*
X0270528Y0233000D01*
X0269000Y0234031D02*
X0269000Y0234032D01*
D36*
X0251787Y0247457D03*
X0263598Y0212024D03*
X0275409Y0200213D03*
X0275409Y0163205D03*
X0243269Y0120925D03*
X0225550Y0154113D03*
X0194840Y0136900D03*
X0180134Y0136433D03*
X0174622Y0124622D03*
X0182102Y0103362D03*
X0208480Y0069110D03*
X0214863Y0062538D03*
X0198638Y0065173D03*
X0170650Y0048700D03*
X0161433Y0061531D03*
X0143126Y0058480D03*
X0157094Y0037450D03*
X0111728Y0066945D03*
X0087614Y0044307D03*
X0070882Y0070390D03*
X0058874Y0099425D03*
X0064484Y0103362D03*
X0080232Y0112024D03*
X0089583Y0153362D03*
X0123441Y0119504D03*
X0143126Y0119898D03*
X0146669Y0138795D03*
X0141945Y0144701D03*
X0172000Y0148713D03*
X0129475Y0190900D03*
X0129813Y0199337D03*
X0110055Y0200213D03*
X0161236Y0231709D03*
X0144307Y0254150D03*
X0055626Y0194898D03*
X0041050Y0205300D03*
X0036550Y0208450D03*
X0039386Y0210646D03*
X0011630Y0223835D03*
X0030700Y0177852D03*
X0044307Y0154543D03*
X0024622Y0143224D03*
X0037220Y0106906D03*
X0036039Y0086039D03*
X0011433Y0099819D03*
X0034071Y0058480D03*
X0028559Y0014780D03*
X0256906Y0087614D03*
X0288402Y0091551D03*
X0297100Y0070807D03*
X0302969Y0235646D03*
D37*
X0078559Y0079740D03*
D38*
X0070882Y0070390D02*
X0116157Y0070390D01*
X0132398Y0054150D01*
X0138795Y0054150D01*
X0138795Y0045783D01*
X0138402Y0044307D01*
X0138700Y0044650D01*
X0138700Y0045550D01*
X0142339Y0050213D02*
X0142339Y0039976D01*
X0143520Y0037220D02*
X0143520Y0036563D01*
X0143650Y0036433D01*
X0149950Y0042850D02*
X0149950Y0014500D01*
X0148600Y0013150D01*
X0148402Y0012811D01*
X0158402Y0012811D02*
X0158500Y0013150D01*
X0167950Y0022600D01*
X0167950Y0041050D01*
X0172000Y0041050D01*
X0177850Y0046900D01*
X0177850Y0047800D01*
X0178165Y0048047D01*
X0173244Y0047260D02*
X0173244Y0049720D01*
X0161433Y0061531D01*
X0160300Y0052300D02*
X0167050Y0052300D01*
X0170650Y0048700D01*
X0173244Y0047260D02*
X0170291Y0044307D01*
X0169898Y0044307D01*
X0169799Y0044307D01*
X0166354Y0047752D01*
X0166354Y0050213D01*
X0161433Y0050213D01*
X0160941Y0049720D01*
X0160941Y0047752D01*
X0160449Y0047260D01*
X0160055Y0047260D01*
X0157150Y0047350D02*
X0156906Y0047260D01*
X0157150Y0047350D02*
X0157150Y0049150D01*
X0160300Y0052300D01*
X0163500Y0047260D02*
X0163900Y0046900D01*
X0163900Y0046731D01*
X0166600Y0044031D01*
X0166600Y0042400D01*
X0167950Y0041050D01*
X0163500Y0041354D02*
X0163500Y0043224D01*
X0162417Y0044307D01*
X0156512Y0044307D01*
X0156906Y0043913D01*
X0156906Y0041354D01*
X0156512Y0044307D02*
X0151394Y0044307D01*
X0150213Y0045488D01*
X0150213Y0051394D01*
X0149425Y0052181D01*
X0144307Y0052181D01*
X0142339Y0050213D01*
X0146669Y0048047D02*
X0146800Y0047800D01*
X0146800Y0046000D01*
X0149950Y0042850D01*
X0153067Y0047260D02*
X0153461Y0047260D01*
X0153067Y0047260D02*
X0152083Y0048244D01*
X0152083Y0052181D01*
X0150114Y0054150D01*
X0138795Y0054150D01*
X0143126Y0058480D02*
X0152181Y0067535D01*
X0175016Y0067535D01*
X0188402Y0054150D01*
X0188402Y0012811D01*
X0198402Y0012811D02*
X0198550Y0013150D01*
X0198550Y0065085D01*
X0198638Y0065173D01*
X0208450Y0069080D02*
X0208480Y0069110D01*
X0208450Y0069080D02*
X0208450Y0013150D01*
X0208402Y0012811D01*
X0218402Y0012811D02*
X0218800Y0013150D01*
X0218717Y0050606D01*
X0214863Y0054460D01*
X0214863Y0062538D01*
X0221500Y0060850D02*
X0221500Y0065013D01*
X0214300Y0072213D01*
X0119504Y0072260D01*
X0118764Y0073000D01*
X0104276Y0073000D01*
X0084813Y0092463D01*
X0118450Y0112600D02*
X0118402Y0112811D01*
X0118450Y0112600D02*
X0127224Y0103826D01*
X0161367Y0103826D01*
X0163674Y0106132D01*
X0163674Y0115750D01*
X0166205Y0118281D01*
X0191181Y0118281D01*
X0193487Y0115975D01*
X0193487Y0110631D01*
X0195963Y0108156D01*
X0241131Y0108156D01*
X0243437Y0110463D01*
X0243437Y0113781D01*
X0302050Y0172000D01*
X0303850Y0172000D01*
X0304150Y0172063D01*
X0304300Y0172000D01*
X0308800Y0167500D01*
X0308800Y0120250D01*
X0304300Y0115750D01*
X0304300Y0112150D01*
X0304150Y0112063D01*
X0300213Y0103362D02*
X0301512Y0102063D01*
X0304150Y0102063D01*
X0303850Y0102250D01*
X0300213Y0103362D02*
X0189282Y0103362D01*
X0180044Y0112600D01*
X0178750Y0112600D01*
X0178402Y0112811D01*
X0188256Y0112206D02*
X0188425Y0110631D01*
X0193094Y0105963D01*
X0279775Y0105963D01*
X0302050Y0131950D02*
X0303850Y0131950D01*
X0304150Y0132063D01*
X0302050Y0132400D01*
X0299800Y0134650D01*
X0299800Y0154000D01*
X0303850Y0158050D01*
X0303850Y0161650D01*
X0304150Y0162063D01*
X0303850Y0181900D02*
X0304150Y0182063D01*
X0303850Y0181900D02*
X0243269Y0120925D01*
X0217450Y0146350D02*
X0213194Y0150606D01*
X0185387Y0150606D01*
X0185387Y0145057D01*
X0193544Y0136900D01*
X0194840Y0136900D01*
X0185387Y0150606D02*
X0185387Y0156363D01*
X0181039Y0160724D01*
X0172000Y0148713D02*
X0172000Y0140387D01*
X0148600Y0116987D01*
X0148402Y0112811D01*
X0146669Y0138795D02*
X0154543Y0146669D01*
X0154543Y0162417D01*
X0150114Y0166846D01*
X0044799Y0166846D01*
X0044307Y0154543D02*
X0044307Y0071866D01*
X0034071Y0061630D01*
X0034071Y0058480D01*
X0008706Y0019394D02*
X0022825Y0006063D01*
X0122106Y0006063D01*
X0128350Y0012700D01*
X0128402Y0012811D01*
X0130150Y0016750D02*
X0122950Y0016750D01*
X0118900Y0012700D01*
X0118402Y0012811D01*
X0118000Y0012700D01*
X0115131Y0012700D01*
X0111081Y0008650D01*
X0105569Y0008650D01*
X0102700Y0011519D01*
X0102700Y0015850D01*
X0102700Y0031637D01*
X0099622Y0036433D01*
X0102700Y0015850D02*
X0084700Y0015850D01*
X0084661Y0015764D01*
X0084250Y0015850D01*
X0059500Y0015850D01*
X0059071Y0015764D01*
X0008706Y0019394D02*
X0008706Y0203556D01*
X0010450Y0205300D01*
X0020350Y0205300D01*
X0020685Y0205528D01*
X0020800Y0205750D01*
X0023050Y0208000D01*
X0028900Y0208000D01*
X0030700Y0206200D01*
X0030700Y0204850D01*
X0030921Y0204740D01*
X0030921Y0201787D02*
X0030921Y0198835D01*
X0030921Y0201787D02*
X0036433Y0201787D01*
X0037516Y0200705D01*
X0037516Y0204740D02*
X0037900Y0204850D01*
X0037900Y0205750D01*
X0040106Y0207956D01*
X0039386Y0208677D01*
X0039386Y0210646D01*
X0040150Y0208000D02*
X0049600Y0208000D01*
X0051850Y0205750D01*
X0052181Y0205528D01*
X0044200Y0202150D02*
X0043913Y0201787D01*
X0044200Y0202150D02*
X0041050Y0205300D01*
X0040106Y0207956D02*
X0040150Y0208000D01*
X0036550Y0208450D02*
X0034300Y0206200D01*
X0034300Y0204850D01*
X0034071Y0204740D01*
X0030921Y0201787D02*
X0024937Y0201787D01*
X0021981Y0197650D01*
X0022555Y0201787D02*
X0012417Y0201787D01*
X0012319Y0201295D01*
X0011335Y0200311D01*
X0011335Y0132398D01*
X0016748Y0126984D01*
X0016748Y0126551D01*
X0022555Y0201787D02*
X0024130Y0203756D01*
X0026098Y0204740D01*
X0027476Y0204740D01*
X0114740Y0160724D02*
X0114850Y0160750D01*
X0124300Y0160750D01*
X0124740Y0160724D01*
X0129475Y0190900D02*
X0139937Y0201362D01*
X0139937Y0219465D01*
X0144307Y0223835D01*
X0144307Y0230331D01*
X0141157Y0230331D02*
X0141157Y0232496D01*
X0140370Y0233283D01*
X0133677Y0233283D01*
X0129740Y0229346D01*
X0129828Y0226503D01*
X0129813Y0199337D01*
X0141157Y0236236D02*
X0141157Y0242339D01*
X0138992Y0244504D01*
X0138992Y0249031D01*
X0138700Y0248950D01*
X0144307Y0239583D02*
X0144307Y0236236D01*
X0144307Y0239583D02*
X0149031Y0244307D01*
X0154543Y0244307D01*
X0158500Y0248264D01*
X0158500Y0248950D01*
X0158677Y0249031D01*
X0221050Y0160750D02*
X0221039Y0160724D01*
X0221050Y0160750D02*
X0230950Y0160750D01*
X0231039Y0160724D01*
X0188402Y0112811D02*
X0188256Y0112206D01*
X0221500Y0060850D02*
X0248050Y0034300D01*
X0248050Y0013150D01*
X0248402Y0012811D01*
X0266950Y0005500D02*
X0138081Y0005500D01*
X0133187Y0010394D01*
X0133187Y0014106D01*
X0130150Y0016750D01*
X0266950Y0005500D02*
X0272350Y0010900D01*
X0272350Y0012250D01*
X0276850Y0016750D01*
X0277300Y0016750D01*
X0297100Y0036550D01*
X0297100Y0070807D01*
X0303850Y0201700D02*
X0304150Y0202063D01*
D39*
X0095291Y0151197D02*
X0095291Y0146669D01*
X0095291Y0151197D02*
X0093126Y0153362D01*
X0089583Y0153362D01*
X0087811Y0146669D02*
X0074740Y0159740D01*
X0074740Y0160724D01*
D40*
X0087614Y0174228D02*
X0162220Y0174228D01*
X0166354Y0174228D01*
X0170291Y0174228D01*
X0178362Y0182299D01*
X0182102Y0182299D01*
X0181039Y0183362D02*
X0181039Y0210724D01*
X0162220Y0174228D02*
X0162220Y0142535D01*
X0150606Y0130921D01*
X0103362Y0130921D01*
X0095488Y0123047D01*
X0095488Y0099425D01*
X0105724Y0089189D01*
X0116610Y0089051D01*
X0174091Y0089051D01*
X0176591Y0091551D01*
X0179346Y0091551D01*
X0178165Y0090370D01*
X0178165Y0079740D01*
X0217535Y0079740D01*
X0233283Y0063992D01*
X0256906Y0063992D01*
X0256906Y0040370D01*
X0256906Y0063992D02*
X0257387Y0064473D01*
X0087614Y0174228D02*
X0080921Y0180921D01*
X0075803Y0182299D02*
X0074740Y0183362D01*
X0074740Y0210724D01*
D41*
X0080921Y0186039D02*
X0077181Y0182299D01*
X0075803Y0182299D01*
X0063992Y0182299D01*
X0080921Y0180921D02*
X0080921Y0186039D01*
X0181039Y0183362D02*
X0182102Y0182299D01*
X0183480Y0182299D01*
X0187220Y0186039D01*
D42*
X0221669Y0083677D02*
X0221500Y0083350D01*
X0221050Y0082900D01*
X0217535Y0079740D01*
D43*
X0220685Y0241866D02*
X0220724Y0245843D01*
M02*
