G75*
%MOIN*%
%OFA0B0*%
%FSLAX25Y25*%
%IPPOS*%
%LPD*%
%AMOC8*
5,1,8,0,0,1.08239X$1,22.5*
%
%ADD10C,0.00000*%
%ADD11C,0.06000*%
%ADD12R,0.06000X0.06000*%
%ADD13R,0.05150X0.05150*%
%ADD14C,0.05150*%
%ADD15C,0.05543*%
%ADD16C,0.00875*%
%ADD17R,0.12000X0.06500*%
%ADD18C,0.16598*%
%ADD19C,0.16200*%
%ADD20C,0.07400*%
%ADD21R,0.10000X0.10000*%
%ADD22C,0.05937*%
%ADD23C,0.06000*%
%ADD24OC8,0.06000*%
%ADD25R,0.04500X0.04000*%
%ADD26R,0.06969X0.07087*%
%ADD27C,0.05000*%
%ADD28C,0.04000*%
%ADD29C,0.01200*%
%ADD30C,0.02400*%
%ADD31C,0.01600*%
%ADD32C,0.02400*%
%ADD33OC8,0.02570*%
%ADD34C,0.01000*%
%ADD35C,0.10000*%
%ADD36C,0.06600*%
%ADD37C,0.04400*%
D10*
X0001000Y0004937D02*
X0001000Y0256906D01*
X0004937Y0260843D01*
X0315961Y0260843D01*
X0320409Y0256906D01*
X0320409Y0004937D01*
X0315961Y0001000D01*
X0004937Y0001000D01*
X0001000Y0004937D01*
D11*
X0016039Y0142063D03*
X0016039Y0152063D03*
X0016039Y0162063D03*
X0016039Y0172063D03*
X0304150Y0172063D03*
X0304150Y0182063D03*
X0304150Y0192063D03*
X0304150Y0202063D03*
X0304150Y0212063D03*
X0304150Y0162063D03*
X0304150Y0152063D03*
X0304150Y0142063D03*
X0304150Y0132063D03*
X0304150Y0122063D03*
X0304150Y0112063D03*
X0304150Y0102063D03*
X0304150Y0092063D03*
D12*
X0304150Y0222063D03*
D13*
X0288402Y0012811D03*
D14*
X0278402Y0012811D03*
X0268402Y0012811D03*
X0258402Y0012811D03*
X0248402Y0012811D03*
X0238402Y0012811D03*
X0228402Y0012811D03*
X0218402Y0012811D03*
X0208402Y0012811D03*
X0198402Y0012811D03*
X0188402Y0012811D03*
X0178402Y0012811D03*
X0168402Y0012811D03*
X0158402Y0012811D03*
X0148402Y0012811D03*
X0138402Y0012811D03*
X0128402Y0012811D03*
X0118402Y0012811D03*
X0108402Y0012811D03*
X0108402Y0112811D03*
X0118402Y0112811D03*
X0128402Y0112811D03*
X0138402Y0112811D03*
X0148402Y0112811D03*
X0158402Y0112811D03*
X0168402Y0112811D03*
X0178402Y0112811D03*
X0188402Y0112811D03*
X0198402Y0112811D03*
X0208402Y0112811D03*
X0218402Y0112811D03*
X0228402Y0112811D03*
X0238402Y0112811D03*
X0248402Y0112811D03*
X0258402Y0112811D03*
X0268402Y0112811D03*
X0278402Y0112811D03*
X0288402Y0112811D03*
D15*
X0251039Y0160724D03*
X0241039Y0160724D03*
X0231039Y0160724D03*
X0221039Y0160724D03*
X0211039Y0160724D03*
X0201039Y0160724D03*
X0191039Y0160724D03*
X0181039Y0160724D03*
X0144740Y0160724D03*
X0134740Y0160724D03*
X0124740Y0160724D03*
X0114740Y0160724D03*
X0104740Y0160724D03*
X0094740Y0160724D03*
X0084740Y0160724D03*
X0074740Y0160724D03*
X0074740Y0210724D03*
X0084740Y0210724D03*
X0094740Y0210724D03*
X0104740Y0210724D03*
X0114740Y0210724D03*
X0124740Y0210724D03*
X0134740Y0210724D03*
X0144740Y0210724D03*
X0181039Y0210724D03*
X0191039Y0210724D03*
X0201039Y0210724D03*
X0211039Y0210724D03*
X0221039Y0210724D03*
X0231039Y0210724D03*
X0241039Y0210724D03*
X0251039Y0210724D03*
D16*
X0220159Y0150982D02*
X0220159Y0148356D01*
X0220159Y0150982D02*
X0222785Y0150982D01*
X0222785Y0148356D01*
X0220159Y0148356D01*
X0220159Y0149230D02*
X0222785Y0149230D01*
X0222785Y0150104D02*
X0220159Y0150104D01*
X0220159Y0150978D02*
X0222785Y0150978D01*
X0220159Y0144982D02*
X0220159Y0142356D01*
X0220159Y0144982D02*
X0222785Y0144982D01*
X0222785Y0142356D01*
X0220159Y0142356D01*
X0220159Y0143230D02*
X0222785Y0143230D01*
X0222785Y0144104D02*
X0220159Y0144104D01*
X0220159Y0144978D02*
X0222785Y0144978D01*
X0196537Y0144982D02*
X0196537Y0142356D01*
X0196537Y0144982D02*
X0199163Y0144982D01*
X0199163Y0142356D01*
X0196537Y0142356D01*
X0196537Y0143230D02*
X0199163Y0143230D01*
X0199163Y0144104D02*
X0196537Y0144104D01*
X0196537Y0144978D02*
X0199163Y0144978D01*
X0196537Y0148356D02*
X0196537Y0150982D01*
X0199163Y0150982D01*
X0199163Y0148356D01*
X0196537Y0148356D01*
X0196537Y0149230D02*
X0199163Y0149230D01*
X0199163Y0150104D02*
X0196537Y0150104D01*
X0196537Y0150978D02*
X0199163Y0150978D01*
X0169486Y0184726D02*
X0166860Y0184726D01*
X0166860Y0187352D01*
X0169486Y0187352D01*
X0169486Y0184726D01*
X0169486Y0185600D02*
X0166860Y0185600D01*
X0166860Y0186474D02*
X0169486Y0186474D01*
X0169486Y0187348D02*
X0166860Y0187348D01*
X0163486Y0184726D02*
X0160860Y0184726D01*
X0160860Y0187352D01*
X0163486Y0187352D01*
X0163486Y0184726D01*
X0163486Y0185600D02*
X0160860Y0185600D01*
X0160860Y0186474D02*
X0163486Y0186474D01*
X0163486Y0187348D02*
X0160860Y0187348D01*
X0159793Y0232907D02*
X0159793Y0235533D01*
X0159793Y0232907D02*
X0157167Y0232907D01*
X0157167Y0235533D01*
X0159793Y0235533D01*
X0159793Y0233781D02*
X0157167Y0233781D01*
X0157167Y0234655D02*
X0159793Y0234655D01*
X0159793Y0235529D02*
X0157167Y0235529D01*
X0159793Y0238907D02*
X0159793Y0241533D01*
X0159793Y0238907D02*
X0157167Y0238907D01*
X0157167Y0241533D01*
X0159793Y0241533D01*
X0159793Y0239781D02*
X0157167Y0239781D01*
X0157167Y0240655D02*
X0159793Y0240655D01*
X0159793Y0241529D02*
X0157167Y0241529D01*
X0156730Y0246968D02*
X0159356Y0246968D01*
X0156730Y0246968D02*
X0156730Y0251094D01*
X0159356Y0251094D01*
X0159356Y0246968D01*
X0159356Y0247842D02*
X0156730Y0247842D01*
X0156730Y0248716D02*
X0159356Y0248716D01*
X0159356Y0249590D02*
X0156730Y0249590D01*
X0156730Y0250464D02*
X0159356Y0250464D01*
X0152356Y0246968D02*
X0149730Y0246968D01*
X0149730Y0251094D01*
X0152356Y0251094D01*
X0152356Y0246968D01*
X0152356Y0247842D02*
X0149730Y0247842D01*
X0149730Y0248716D02*
X0152356Y0248716D01*
X0152356Y0249590D02*
X0149730Y0249590D01*
X0149730Y0250464D02*
X0152356Y0250464D01*
X0139671Y0246968D02*
X0137045Y0246968D01*
X0137045Y0251094D01*
X0139671Y0251094D01*
X0139671Y0246968D01*
X0139671Y0247842D02*
X0137045Y0247842D01*
X0137045Y0248716D02*
X0139671Y0248716D01*
X0139671Y0249590D02*
X0137045Y0249590D01*
X0137045Y0250464D02*
X0139671Y0250464D01*
X0132671Y0246968D02*
X0130045Y0246968D01*
X0130045Y0251094D01*
X0132671Y0251094D01*
X0132671Y0246968D01*
X0132671Y0247842D02*
X0130045Y0247842D01*
X0130045Y0248716D02*
X0132671Y0248716D01*
X0132671Y0249590D02*
X0130045Y0249590D01*
X0130045Y0250464D02*
X0132671Y0250464D01*
X0140108Y0241533D02*
X0140108Y0238907D01*
X0137482Y0238907D01*
X0137482Y0241533D01*
X0140108Y0241533D01*
X0140108Y0239781D02*
X0137482Y0239781D01*
X0137482Y0240655D02*
X0140108Y0240655D01*
X0140108Y0241529D02*
X0137482Y0241529D01*
X0140108Y0235533D02*
X0140108Y0232907D01*
X0137482Y0232907D01*
X0137482Y0235533D01*
X0140108Y0235533D01*
X0140108Y0233781D02*
X0137482Y0233781D01*
X0137482Y0234655D02*
X0140108Y0234655D01*
X0140108Y0235529D02*
X0137482Y0235529D01*
X0119986Y0246968D02*
X0117360Y0246968D01*
X0117360Y0251094D01*
X0119986Y0251094D01*
X0119986Y0246968D01*
X0119986Y0247842D02*
X0117360Y0247842D01*
X0117360Y0248716D02*
X0119986Y0248716D01*
X0119986Y0249590D02*
X0117360Y0249590D01*
X0117360Y0250464D02*
X0119986Y0250464D01*
X0112986Y0246968D02*
X0110360Y0246968D01*
X0110360Y0251094D01*
X0112986Y0251094D01*
X0112986Y0246968D01*
X0112986Y0247842D02*
X0110360Y0247842D01*
X0110360Y0248716D02*
X0112986Y0248716D01*
X0112986Y0249590D02*
X0110360Y0249590D01*
X0110360Y0250464D02*
X0112986Y0250464D01*
X0109923Y0241533D02*
X0109923Y0238907D01*
X0109923Y0241533D02*
X0112549Y0241533D01*
X0112549Y0238907D01*
X0109923Y0238907D01*
X0109923Y0239781D02*
X0112549Y0239781D01*
X0112549Y0240655D02*
X0109923Y0240655D01*
X0109923Y0241529D02*
X0112549Y0241529D01*
X0109923Y0235533D02*
X0109923Y0232907D01*
X0109923Y0235533D02*
X0112549Y0235533D01*
X0112549Y0232907D01*
X0109923Y0232907D01*
X0109923Y0233781D02*
X0112549Y0233781D01*
X0112549Y0234655D02*
X0109923Y0234655D01*
X0109923Y0235529D02*
X0112549Y0235529D01*
X0068305Y0187352D02*
X0065679Y0187352D01*
X0068305Y0187352D02*
X0068305Y0184726D01*
X0065679Y0184726D01*
X0065679Y0187352D01*
X0065679Y0185600D02*
X0068305Y0185600D01*
X0068305Y0186474D02*
X0065679Y0186474D01*
X0065679Y0187348D02*
X0068305Y0187348D01*
X0062305Y0187352D02*
X0059679Y0187352D01*
X0062305Y0187352D02*
X0062305Y0184726D01*
X0059679Y0184726D01*
X0059679Y0187352D01*
X0059679Y0185600D02*
X0062305Y0185600D01*
X0062305Y0186474D02*
X0059679Y0186474D01*
X0059679Y0187348D02*
X0062305Y0187348D01*
X0035120Y0197474D02*
X0035120Y0200100D01*
X0037746Y0200100D01*
X0037746Y0197474D01*
X0035120Y0197474D01*
X0035120Y0198348D02*
X0037746Y0198348D01*
X0037746Y0199222D02*
X0035120Y0199222D01*
X0035120Y0200096D02*
X0037746Y0200096D01*
X0035120Y0203474D02*
X0035120Y0206100D01*
X0037746Y0206100D01*
X0037746Y0203474D01*
X0035120Y0203474D01*
X0035120Y0204348D02*
X0037746Y0204348D01*
X0037746Y0205222D02*
X0035120Y0205222D01*
X0035120Y0206096D02*
X0037746Y0206096D01*
X0036809Y0214911D02*
X0034183Y0214911D01*
X0036809Y0214911D02*
X0036809Y0212285D01*
X0034183Y0212285D01*
X0034183Y0214911D01*
X0034183Y0213159D02*
X0036809Y0213159D01*
X0036809Y0214033D02*
X0034183Y0214033D01*
X0034183Y0214907D02*
X0036809Y0214907D01*
X0036809Y0220159D02*
X0034183Y0220159D01*
X0034183Y0222785D01*
X0036809Y0222785D01*
X0036809Y0220159D01*
X0036809Y0221033D02*
X0034183Y0221033D01*
X0034183Y0221907D02*
X0036809Y0221907D01*
X0036809Y0222781D02*
X0034183Y0222781D01*
X0030809Y0220159D02*
X0028183Y0220159D01*
X0028183Y0222785D01*
X0030809Y0222785D01*
X0030809Y0220159D01*
X0030809Y0221033D02*
X0028183Y0221033D01*
X0028183Y0221907D02*
X0030809Y0221907D01*
X0030809Y0222781D02*
X0028183Y0222781D01*
X0028183Y0214911D02*
X0030809Y0214911D01*
X0030809Y0212285D01*
X0028183Y0212285D01*
X0028183Y0214911D01*
X0028183Y0213159D02*
X0030809Y0213159D01*
X0030809Y0214033D02*
X0028183Y0214033D01*
X0028183Y0214907D02*
X0030809Y0214907D01*
X0029872Y0206100D02*
X0029872Y0203474D01*
X0027246Y0203474D01*
X0027246Y0206100D01*
X0029872Y0206100D01*
X0029872Y0204348D02*
X0027246Y0204348D01*
X0027246Y0205222D02*
X0029872Y0205222D01*
X0029872Y0206096D02*
X0027246Y0206096D01*
X0029872Y0200100D02*
X0029872Y0197474D01*
X0027246Y0197474D01*
X0027246Y0200100D01*
X0029872Y0200100D01*
X0029872Y0198348D02*
X0027246Y0198348D01*
X0027246Y0199222D02*
X0029872Y0199222D01*
X0029872Y0200096D02*
X0027246Y0200096D01*
X0073179Y0150982D02*
X0073179Y0148356D01*
X0070553Y0148356D01*
X0070553Y0150982D01*
X0073179Y0150982D01*
X0073179Y0149230D02*
X0070553Y0149230D01*
X0070553Y0150104D02*
X0073179Y0150104D01*
X0073179Y0150978D02*
X0070553Y0150978D01*
X0073179Y0144982D02*
X0073179Y0142356D01*
X0070553Y0142356D01*
X0070553Y0144982D01*
X0073179Y0144982D01*
X0073179Y0143230D02*
X0070553Y0143230D01*
X0070553Y0144104D02*
X0073179Y0144104D01*
X0073179Y0144978D02*
X0070553Y0144978D01*
X0069679Y0132795D02*
X0067053Y0132795D01*
X0067053Y0136921D01*
X0069679Y0136921D01*
X0069679Y0132795D01*
X0069679Y0133669D02*
X0067053Y0133669D01*
X0067053Y0134543D02*
X0069679Y0134543D01*
X0069679Y0135417D02*
X0067053Y0135417D01*
X0067053Y0136291D02*
X0069679Y0136291D01*
X0074053Y0132795D02*
X0076679Y0132795D01*
X0074053Y0132795D02*
X0074053Y0136921D01*
X0076679Y0136921D01*
X0076679Y0132795D01*
X0076679Y0133669D02*
X0074053Y0133669D01*
X0074053Y0134543D02*
X0076679Y0134543D01*
X0076679Y0135417D02*
X0074053Y0135417D01*
X0074053Y0136291D02*
X0076679Y0136291D01*
X0090238Y0142356D02*
X0090238Y0144982D01*
X0092864Y0144982D01*
X0092864Y0142356D01*
X0090238Y0142356D01*
X0090238Y0143230D02*
X0092864Y0143230D01*
X0092864Y0144104D02*
X0090238Y0144104D01*
X0090238Y0144978D02*
X0092864Y0144978D01*
X0090238Y0148356D02*
X0090238Y0150982D01*
X0092864Y0150982D01*
X0092864Y0148356D01*
X0090238Y0148356D01*
X0090238Y0149230D02*
X0092864Y0149230D01*
X0092864Y0150104D02*
X0090238Y0150104D01*
X0090238Y0150978D02*
X0092864Y0150978D01*
X0113860Y0150982D02*
X0113860Y0148356D01*
X0113860Y0150982D02*
X0116486Y0150982D01*
X0116486Y0148356D01*
X0113860Y0148356D01*
X0113860Y0149230D02*
X0116486Y0149230D01*
X0116486Y0150104D02*
X0113860Y0150104D01*
X0113860Y0150978D02*
X0116486Y0150978D01*
X0113860Y0144982D02*
X0113860Y0142356D01*
X0113860Y0144982D02*
X0116486Y0144982D01*
X0116486Y0142356D01*
X0113860Y0142356D01*
X0113860Y0143230D02*
X0116486Y0143230D01*
X0116486Y0144104D02*
X0113860Y0144104D01*
X0113860Y0144978D02*
X0116486Y0144978D01*
X0154167Y0062679D02*
X0156793Y0062679D01*
X0154167Y0062679D02*
X0154167Y0065305D01*
X0156793Y0065305D01*
X0156793Y0062679D01*
X0156793Y0063553D02*
X0154167Y0063553D01*
X0154167Y0064427D02*
X0156793Y0064427D01*
X0156793Y0065301D02*
X0154167Y0065301D01*
X0160167Y0062679D02*
X0162793Y0062679D01*
X0160167Y0062679D02*
X0160167Y0065305D01*
X0162793Y0065305D01*
X0162793Y0062679D01*
X0162793Y0063553D02*
X0160167Y0063553D01*
X0160167Y0064427D02*
X0162793Y0064427D01*
X0162793Y0065301D02*
X0160167Y0065301D01*
X0160167Y0057431D02*
X0162793Y0057431D01*
X0162793Y0054805D01*
X0160167Y0054805D01*
X0160167Y0057431D01*
X0160167Y0055679D02*
X0162793Y0055679D01*
X0162793Y0056553D02*
X0160167Y0056553D01*
X0160167Y0057427D02*
X0162793Y0057427D01*
X0156793Y0057431D02*
X0154167Y0057431D01*
X0156793Y0057431D02*
X0156793Y0054805D01*
X0154167Y0054805D01*
X0154167Y0057431D01*
X0154167Y0055679D02*
X0156793Y0055679D01*
X0156793Y0056553D02*
X0154167Y0056553D01*
X0154167Y0057427D02*
X0156793Y0057427D01*
X0153230Y0048620D02*
X0153230Y0045994D01*
X0153230Y0048620D02*
X0155856Y0048620D01*
X0155856Y0045994D01*
X0153230Y0045994D01*
X0153230Y0046868D02*
X0155856Y0046868D01*
X0155856Y0047742D02*
X0153230Y0047742D01*
X0153230Y0048616D02*
X0155856Y0048616D01*
X0163730Y0048620D02*
X0163730Y0045994D01*
X0161104Y0045994D01*
X0161104Y0048620D01*
X0163730Y0048620D01*
X0163730Y0046868D02*
X0161104Y0046868D01*
X0161104Y0047742D02*
X0163730Y0047742D01*
X0163730Y0048616D02*
X0161104Y0048616D01*
X0163730Y0042620D02*
X0163730Y0039994D01*
X0161104Y0039994D01*
X0161104Y0042620D01*
X0163730Y0042620D01*
X0163730Y0040868D02*
X0161104Y0040868D01*
X0161104Y0041742D02*
X0163730Y0041742D01*
X0163730Y0042616D02*
X0161104Y0042616D01*
X0153230Y0042620D02*
X0153230Y0039994D01*
X0153230Y0042620D02*
X0155856Y0042620D01*
X0155856Y0039994D01*
X0153230Y0039994D01*
X0153230Y0040868D02*
X0155856Y0040868D01*
X0155856Y0041742D02*
X0153230Y0041742D01*
X0153230Y0042616D02*
X0155856Y0042616D01*
X0104675Y0040746D02*
X0104675Y0038120D01*
X0102049Y0038120D01*
X0102049Y0040746D01*
X0104675Y0040746D01*
X0104675Y0038994D02*
X0102049Y0038994D01*
X0102049Y0039868D02*
X0104675Y0039868D01*
X0104675Y0040742D02*
X0102049Y0040742D01*
X0104675Y0034746D02*
X0104675Y0032120D01*
X0102049Y0032120D01*
X0102049Y0034746D01*
X0104675Y0034746D01*
X0104675Y0032994D02*
X0102049Y0032994D01*
X0102049Y0033868D02*
X0104675Y0033868D01*
X0104675Y0034742D02*
X0102049Y0034742D01*
X0032872Y0046931D02*
X0030246Y0046931D01*
X0030246Y0049557D01*
X0032872Y0049557D01*
X0032872Y0046931D01*
X0032872Y0047805D02*
X0030246Y0047805D01*
X0030246Y0048679D02*
X0032872Y0048679D01*
X0032872Y0049553D02*
X0030246Y0049553D01*
X0026872Y0046931D02*
X0024246Y0046931D01*
X0024246Y0049557D01*
X0026872Y0049557D01*
X0026872Y0046931D01*
X0026872Y0047805D02*
X0024246Y0047805D01*
X0024246Y0048679D02*
X0026872Y0048679D01*
X0026872Y0049553D02*
X0024246Y0049553D01*
X0168978Y0232907D02*
X0168978Y0235533D01*
X0171604Y0235533D01*
X0171604Y0232907D01*
X0168978Y0232907D01*
X0168978Y0233781D02*
X0171604Y0233781D01*
X0171604Y0234655D02*
X0168978Y0234655D01*
X0168978Y0235529D02*
X0171604Y0235529D01*
X0168978Y0238907D02*
X0168978Y0241533D01*
X0171604Y0241533D01*
X0171604Y0238907D01*
X0168978Y0238907D01*
X0168978Y0239781D02*
X0171604Y0239781D01*
X0171604Y0240655D02*
X0168978Y0240655D01*
X0168978Y0241529D02*
X0171604Y0241529D01*
X0172041Y0246968D02*
X0169415Y0246968D01*
X0169415Y0251094D01*
X0172041Y0251094D01*
X0172041Y0246968D01*
X0172041Y0247842D02*
X0169415Y0247842D01*
X0169415Y0248716D02*
X0172041Y0248716D01*
X0172041Y0249590D02*
X0169415Y0249590D01*
X0169415Y0250464D02*
X0172041Y0250464D01*
X0176415Y0246968D02*
X0179041Y0246968D01*
X0176415Y0246968D02*
X0176415Y0251094D01*
X0179041Y0251094D01*
X0179041Y0246968D01*
X0179041Y0247842D02*
X0176415Y0247842D01*
X0176415Y0248716D02*
X0179041Y0248716D01*
X0179041Y0249590D02*
X0176415Y0249590D01*
X0176415Y0250464D02*
X0179041Y0250464D01*
X0221096Y0084990D02*
X0223722Y0084990D01*
X0223722Y0082364D01*
X0221096Y0082364D01*
X0221096Y0084990D01*
X0221096Y0083238D02*
X0223722Y0083238D01*
X0223722Y0084112D02*
X0221096Y0084112D01*
X0221096Y0084986D02*
X0223722Y0084986D01*
X0227096Y0084990D02*
X0229722Y0084990D01*
X0229722Y0082364D01*
X0227096Y0082364D01*
X0227096Y0084990D01*
X0227096Y0083238D02*
X0229722Y0083238D01*
X0229722Y0084112D02*
X0227096Y0084112D01*
X0227096Y0084986D02*
X0229722Y0084986D01*
D17*
X0200476Y0091551D03*
X0179476Y0091551D03*
X0187350Y0186039D03*
X0208350Y0186039D03*
X0102051Y0186039D03*
X0081051Y0186039D03*
X0039059Y0024622D03*
X0018059Y0024622D03*
D18*
X0257387Y0039189D03*
D19*
X0269898Y0024380D03*
X0286209Y0039089D03*
D20*
X0274780Y0071866D03*
X0264780Y0071866D03*
D21*
X0119110Y0091551D03*
X0119110Y0046669D03*
X0050213Y0046669D03*
X0050213Y0091551D03*
D22*
X0056102Y0033480D02*
X0062039Y0033480D01*
X0062039Y0015764D02*
X0056102Y0015764D01*
X0081693Y0015764D02*
X0087630Y0015764D01*
X0087630Y0033480D02*
X0081693Y0033480D01*
D23*
X0043559Y0238906D02*
X0043559Y0244906D01*
X0033559Y0244906D02*
X0033559Y0238906D01*
X0023559Y0238906D02*
X0023559Y0244906D01*
X0013559Y0244906D02*
X0013559Y0238906D01*
X0190724Y0238906D02*
X0190724Y0244906D01*
X0200724Y0244906D02*
X0200724Y0238906D01*
X0210724Y0238906D02*
X0210724Y0244906D01*
X0220724Y0244906D02*
X0220724Y0238906D01*
X0270528Y0238906D02*
X0270528Y0244906D01*
X0280528Y0244906D02*
X0280528Y0238906D01*
X0290528Y0238906D02*
X0290528Y0244906D01*
D24*
X0029622Y0120488D03*
X0029622Y0110488D03*
X0029622Y0100488D03*
X0029622Y0090488D03*
X0029622Y0080488D03*
X0019622Y0080488D03*
X0019622Y0090488D03*
X0019622Y0100488D03*
X0019622Y0110488D03*
X0019622Y0120488D03*
X0019622Y0070488D03*
X0029622Y0070488D03*
D25*
X0138732Y0044307D03*
X0146732Y0040807D03*
X0146732Y0047807D03*
X0170228Y0044307D03*
X0178228Y0040807D03*
X0178228Y0047807D03*
X0052244Y0198287D03*
X0052244Y0205287D03*
X0044244Y0201787D03*
X0020748Y0198287D03*
X0020748Y0205287D03*
X0012748Y0201787D03*
D26*
X0071866Y0115339D03*
X0071866Y0099260D03*
D27*
X0071866Y0086433D01*
X0078559Y0079740D01*
X0050213Y0091551D02*
X0050213Y0065961D01*
X0036433Y0052181D01*
X0036433Y0048244D01*
X0036335Y0048146D01*
X0039189Y0045291D01*
X0039059Y0024622D01*
X0047063Y0016354D02*
X0017535Y0016354D01*
X0015173Y0022654D01*
X0015173Y0023441D01*
X0018059Y0024622D01*
X0017929Y0041354D01*
X0047063Y0016354D02*
X0055724Y0026591D01*
X0055724Y0031709D01*
X0057496Y0033480D01*
X0059071Y0033480D01*
X0059071Y0037811D01*
X0050213Y0046669D01*
X0050213Y0091551D02*
X0050213Y0099425D01*
X0060055Y0109268D01*
X0060055Y0115173D01*
X0060055Y0142732D01*
X0067142Y0149819D01*
X0071866Y0149669D01*
X0071866Y0115339D02*
X0060283Y0115339D01*
X0060252Y0115370D01*
X0060055Y0115173D01*
X0066992Y0186039D02*
X0074740Y0186039D01*
X0089976Y0197063D02*
X0091157Y0197063D01*
X0102051Y0186039D01*
X0132890Y0186039D01*
X0145488Y0198638D01*
X0145488Y0209976D01*
X0144740Y0210724D01*
X0145409Y0210055D01*
X0167929Y0210055D01*
X0166354Y0212024D01*
X0175409Y0221079D01*
X0186039Y0221079D01*
X0190764Y0216354D01*
X0190764Y0211000D01*
X0191039Y0210724D01*
X0191039Y0201118D01*
X0197063Y0195094D01*
X0205331Y0195094D01*
X0208087Y0192339D01*
X0208087Y0186433D01*
X0208350Y0186039D01*
X0239976Y0186039D01*
X0250606Y0196669D01*
X0250606Y0210291D01*
X0251039Y0210724D01*
X0233283Y0233283D02*
X0221472Y0221472D01*
X0221472Y0211157D01*
X0221039Y0210724D01*
X0201039Y0210724D02*
X0201039Y0225843D01*
X0207299Y0232102D01*
X0217929Y0232102D01*
X0220685Y0234858D01*
X0220685Y0241866D01*
X0233283Y0249031D02*
X0233283Y0233283D01*
X0233283Y0249031D02*
X0225409Y0256906D01*
X0205724Y0256906D01*
X0200724Y0251906D01*
X0200724Y0241906D01*
X0114386Y0215567D02*
X0114386Y0211079D01*
X0114740Y0210724D01*
X0114386Y0215567D02*
X0110843Y0219110D01*
X0108480Y0219110D01*
X0102181Y0225409D01*
X0095488Y0225409D01*
X0067929Y0252969D01*
X0028559Y0252969D01*
X0023559Y0247969D01*
X0023559Y0241906D01*
X0033559Y0241906D02*
X0033559Y0233402D01*
X0036827Y0230134D01*
X0080134Y0230134D01*
X0092339Y0217929D01*
X0097535Y0217929D01*
X0104740Y0210724D01*
X0089976Y0197063D02*
X0084740Y0202299D01*
X0084740Y0210724D01*
X0084740Y0214898D01*
X0078165Y0221472D01*
X0069898Y0221472D01*
X0063992Y0215567D01*
X0257387Y0064473D02*
X0257387Y0039189D01*
X0269898Y0024380D02*
X0271499Y0024380D01*
X0286209Y0039089D01*
X0274780Y0050518D01*
X0274780Y0071866D01*
X0264780Y0071866D02*
X0257387Y0064473D01*
D28*
X0162024Y0174228D02*
X0162173Y0186039D01*
X0168173Y0186039D02*
X0167929Y0210055D01*
X0220685Y0241866D02*
X0220724Y0241906D01*
X0036335Y0048146D02*
X0031559Y0048244D01*
X0025559Y0048244D02*
X0017929Y0041354D01*
D29*
X0025559Y0048244D02*
X0024850Y0050500D01*
X0024850Y0070750D01*
X0019900Y0070750D01*
X0019622Y0070488D01*
X0024850Y0070750D02*
X0029350Y0070750D01*
X0029622Y0070488D01*
X0029800Y0070750D01*
X0031600Y0070750D01*
X0042569Y0081325D01*
X0042569Y0101912D01*
X0055900Y0115637D01*
X0055900Y0144100D01*
X0069738Y0157938D01*
X0075756Y0151919D01*
X0079806Y0151919D01*
X0081325Y0150400D01*
X0081325Y0144775D01*
X0087625Y0138475D01*
X0085375Y0136225D01*
X0085600Y0136000D01*
X0085206Y0135944D01*
X0087625Y0138475D02*
X0095500Y0146350D01*
X0091551Y0143669D01*
X0071866Y0143669D02*
X0071866Y0142732D01*
X0067929Y0138795D01*
X0067929Y0135295D01*
X0068366Y0134858D01*
X0069738Y0157938D02*
X0058600Y0169469D01*
X0058600Y0185050D01*
X0062200Y0188650D01*
X0118717Y0249031D02*
X0119504Y0249031D01*
X0125803Y0255331D01*
X0175409Y0255331D01*
X0177772Y0252969D01*
X0177772Y0249031D01*
X0151043Y0249031D02*
X0150606Y0248594D01*
X0150606Y0245094D01*
X0131358Y0249031D02*
X0131358Y0240720D01*
X0206256Y0184206D02*
X0208350Y0186039D01*
X0206256Y0184206D02*
X0206256Y0157150D01*
X0201700Y0152594D01*
X0201700Y0146800D01*
X0197850Y0143669D01*
X0168400Y0112600D02*
X0168323Y0112600D01*
X0168323Y0105513D01*
X0115750Y0105513D01*
X0108663Y0112600D01*
X0108550Y0112600D01*
X0108402Y0112811D01*
X0168323Y0105513D02*
X0177772Y0105513D01*
X0178559Y0106118D01*
X0180134Y0105331D01*
X0193565Y0091900D01*
X0200350Y0091900D01*
X0200476Y0091551D01*
X0200800Y0091450D01*
X0222400Y0091450D01*
X0228700Y0085150D01*
X0228700Y0083800D01*
X0228409Y0083677D01*
X0229600Y0083350D01*
X0261100Y0083350D01*
X0272350Y0072100D01*
X0274780Y0071866D01*
X0178635Y0105513D02*
X0177772Y0105513D01*
X0119110Y0046669D02*
X0118900Y0046450D01*
X0097300Y0046450D01*
X0084700Y0033850D01*
X0084661Y0033480D01*
X0142339Y0039976D02*
X0143520Y0037220D01*
X0251039Y0210724D02*
X0252100Y0212950D01*
X0270100Y0230950D01*
X0270100Y0241750D01*
X0270528Y0241906D01*
D30*
X0218575Y0193656D03*
X0225550Y0154113D03*
X0213344Y0133356D03*
X0243269Y0120925D03*
X0208480Y0069110D03*
X0214863Y0064900D03*
X0198638Y0065173D03*
X0172654Y0057693D03*
X0162417Y0067929D03*
X0159176Y0033063D03*
X0061187Y0091450D03*
X0036100Y0084250D03*
X0040150Y0124300D03*
X0085206Y0135944D03*
X0119350Y0158050D03*
X0129475Y0190900D03*
X0129475Y0194894D03*
X0129813Y0199337D03*
X0175409Y0226591D03*
X0178165Y0243126D03*
X0126197Y0245094D03*
X0051963Y0194444D03*
X0030700Y0177852D03*
X0024622Y0178165D03*
X0028507Y0194500D03*
X0172000Y0148713D03*
X0297100Y0070807D03*
D31*
X0175409Y0221079D02*
X0175409Y0226591D01*
X0178165Y0243126D02*
X0178165Y0248835D01*
X0170728Y0249031D02*
X0170556Y0248859D01*
X0170291Y0248859D01*
X0158480Y0248835D02*
X0158240Y0248835D01*
X0158043Y0249031D01*
X0151043Y0249031D02*
X0150606Y0249469D01*
X0138700Y0248950D02*
X0138440Y0248950D01*
X0138358Y0249031D01*
X0131358Y0249031D02*
X0130134Y0249031D01*
X0126197Y0245094D01*
X0111673Y0249031D02*
X0111592Y0248950D01*
X0111250Y0248950D01*
D32*
X0126197Y0245094D02*
X0126787Y0245094D01*
X0152189Y0221000D02*
X0187850Y0221000D01*
X0189000Y0219850D02*
X0189000Y0216341D01*
X0188786Y0216271D02*
X0186364Y0218693D01*
X0182909Y0220124D01*
X0179170Y0220124D01*
X0175715Y0218693D01*
X0173070Y0216049D01*
X0171639Y0212594D01*
X0171639Y0190288D01*
X0171209Y0190575D01*
X0170547Y0190850D01*
X0169844Y0190989D01*
X0168173Y0190989D01*
X0166689Y0190989D01*
X0166226Y0191453D01*
X0164448Y0192189D01*
X0164071Y0192189D01*
X0163527Y0192423D01*
X0160981Y0192455D01*
X0160316Y0192189D01*
X0159898Y0192189D01*
X0158120Y0191453D01*
X0156760Y0190092D01*
X0156023Y0188314D01*
X0156023Y0187937D01*
X0155790Y0187393D01*
X0155742Y0183628D01*
X0111251Y0183628D01*
X0111251Y0185614D01*
X0102476Y0185614D01*
X0102476Y0186464D01*
X0111251Y0186464D01*
X0111251Y0189605D01*
X0111128Y0190223D01*
X0110887Y0190805D01*
X0110537Y0191329D01*
X0110091Y0191775D01*
X0109567Y0192125D01*
X0108985Y0192366D01*
X0108366Y0192489D01*
X0102476Y0192489D01*
X0102476Y0186464D01*
X0101626Y0186464D01*
X0101626Y0185614D01*
X0092851Y0185614D01*
X0092851Y0183628D01*
X0091508Y0183628D01*
X0091451Y0183685D01*
X0091451Y0190165D01*
X0090781Y0191782D01*
X0089544Y0193020D01*
X0087926Y0193689D01*
X0084140Y0193689D01*
X0084140Y0204773D01*
X0084270Y0204753D01*
X0084740Y0204753D01*
X0084740Y0210724D01*
X0084740Y0210724D01*
X0084740Y0204753D01*
X0085210Y0204753D01*
X0086139Y0204900D01*
X0087032Y0205190D01*
X0087870Y0205617D01*
X0088630Y0206169D01*
X0088892Y0206431D01*
X0090678Y0204645D01*
X0093314Y0203553D01*
X0096167Y0203553D01*
X0098803Y0204645D01*
X0099740Y0205582D01*
X0100678Y0204645D01*
X0103314Y0203553D01*
X0106167Y0203553D01*
X0108803Y0204645D01*
X0109740Y0205582D01*
X0110678Y0204645D01*
X0113314Y0203553D01*
X0114774Y0203553D01*
X0115350Y0202161D01*
X0116728Y0200783D01*
X0123977Y0193534D01*
X0124241Y0192897D01*
X0123875Y0192014D01*
X0123875Y0189786D01*
X0124728Y0187728D01*
X0126303Y0186153D01*
X0128361Y0185300D01*
X0130589Y0185300D01*
X0132647Y0186153D01*
X0134223Y0187728D01*
X0134756Y0189016D01*
X0141774Y0195177D01*
X0141926Y0195240D01*
X0142502Y0195816D01*
X0143115Y0196354D01*
X0143188Y0196502D01*
X0143304Y0196618D01*
X0143616Y0197372D01*
X0143976Y0198103D01*
X0143987Y0198267D01*
X0144050Y0198419D01*
X0144050Y0199235D01*
X0144103Y0200048D01*
X0144050Y0200204D01*
X0144050Y0204788D01*
X0144270Y0204753D01*
X0144740Y0204753D01*
X0144740Y0210724D01*
X0144740Y0210724D01*
X0144740Y0204753D01*
X0145210Y0204753D01*
X0146139Y0204900D01*
X0147032Y0205190D01*
X0147870Y0205617D01*
X0148630Y0206169D01*
X0149295Y0206834D01*
X0149848Y0207595D01*
X0150274Y0208432D01*
X0150565Y0209326D01*
X0150712Y0210254D01*
X0150712Y0210724D01*
X0144740Y0210724D01*
X0144740Y0210724D01*
X0150712Y0210724D01*
X0150712Y0211194D01*
X0150565Y0212123D01*
X0150274Y0213017D01*
X0149848Y0213854D01*
X0149295Y0214615D01*
X0148630Y0215279D01*
X0147870Y0215832D01*
X0147308Y0216118D01*
X0159260Y0228070D01*
X0160755Y0228070D01*
X0162533Y0228807D01*
X0163894Y0230168D01*
X0164386Y0231356D01*
X0164878Y0230168D01*
X0166239Y0228807D01*
X0168017Y0228070D01*
X0172566Y0228070D01*
X0174344Y0228807D01*
X0174858Y0229320D01*
X0179529Y0229320D01*
X0190982Y0217868D01*
X0190982Y0216696D01*
X0190569Y0216696D01*
X0189641Y0216549D01*
X0188786Y0216271D01*
X0188057Y0217000D02*
X0190982Y0217000D01*
X0185000Y0219258D02*
X0185000Y0223850D01*
X0183850Y0225000D02*
X0156189Y0225000D01*
X0157000Y0225811D02*
X0157000Y0190332D01*
X0156307Y0189000D02*
X0134750Y0189000D01*
X0137000Y0190986D02*
X0137000Y0183628D01*
X0133000Y0183628D02*
X0133000Y0186505D01*
X0129000Y0185300D02*
X0129000Y0183628D01*
X0125000Y0183628D02*
X0125000Y0187456D01*
X0124201Y0189000D02*
X0111251Y0189000D01*
X0109000Y0186464D02*
X0109000Y0185614D01*
X0111251Y0185000D02*
X0155760Y0185000D01*
X0153000Y0183628D02*
X0153000Y0221811D01*
X0149000Y0217811D02*
X0149000Y0214910D01*
X0148189Y0217000D02*
X0174021Y0217000D01*
X0173000Y0215879D02*
X0173000Y0228250D01*
X0174537Y0229000D02*
X0179850Y0229000D01*
X0181000Y0227850D02*
X0181000Y0220124D01*
X0177000Y0219226D02*
X0177000Y0229320D01*
X0169000Y0228070D02*
X0169000Y0190989D01*
X0168173Y0190989D02*
X0168173Y0188676D01*
X0168173Y0188676D01*
X0168173Y0190989D01*
X0168173Y0189000D02*
X0168173Y0189000D01*
X0165000Y0191961D02*
X0165000Y0230046D01*
X0166046Y0229000D02*
X0162726Y0229000D01*
X0161000Y0228172D02*
X0161000Y0192455D01*
X0171639Y0193000D02*
X0139294Y0193000D01*
X0141000Y0194497D02*
X0141000Y0183628D01*
X0145000Y0183628D02*
X0145000Y0204753D01*
X0144740Y0205000D02*
X0144740Y0205000D01*
X0146447Y0205000D02*
X0171639Y0205000D01*
X0171639Y0209000D02*
X0150459Y0209000D01*
X0149000Y0210724D02*
X0149000Y0210724D01*
X0150280Y0213000D02*
X0171807Y0213000D01*
X0171639Y0201000D02*
X0144050Y0201000D01*
X0143462Y0197000D02*
X0171639Y0197000D01*
X0190439Y0197000D02*
X0201270Y0197000D01*
X0201000Y0197270D02*
X0201000Y0192194D01*
X0200835Y0192125D02*
X0200311Y0191775D01*
X0199865Y0191329D01*
X0199515Y0190805D01*
X0199273Y0190223D01*
X0199150Y0189605D01*
X0199150Y0186464D01*
X0207925Y0186464D01*
X0207925Y0185614D01*
X0208775Y0185614D01*
X0208775Y0179589D01*
X0214666Y0179589D01*
X0215284Y0179712D01*
X0215866Y0179954D01*
X0216390Y0180304D01*
X0216836Y0180749D01*
X0217186Y0181274D01*
X0217427Y0181856D01*
X0217550Y0182474D01*
X0217550Y0185614D01*
X0208775Y0185614D01*
X0208775Y0186464D01*
X0217550Y0186464D01*
X0217550Y0188056D01*
X0219689Y0188056D01*
X0221747Y0188908D01*
X0223322Y0190484D01*
X0224175Y0192542D01*
X0224175Y0194770D01*
X0223322Y0196828D01*
X0221747Y0198403D01*
X0219802Y0199209D01*
X0216240Y0202526D01*
X0215613Y0203154D01*
X0215529Y0203188D01*
X0215463Y0203250D01*
X0214632Y0203560D01*
X0213812Y0203900D01*
X0213722Y0203900D01*
X0213637Y0203932D01*
X0213356Y0203922D01*
X0215102Y0204645D01*
X0216039Y0205582D01*
X0216977Y0204645D01*
X0219613Y0203553D01*
X0222466Y0203553D01*
X0225102Y0204645D01*
X0226039Y0205582D01*
X0226977Y0204645D01*
X0229613Y0203553D01*
X0232466Y0203553D01*
X0235102Y0204645D01*
X0236039Y0205582D01*
X0236977Y0204645D01*
X0239613Y0203553D01*
X0242466Y0203553D01*
X0245102Y0204645D01*
X0246888Y0206431D01*
X0247149Y0206169D01*
X0247910Y0205617D01*
X0248747Y0205190D01*
X0249641Y0204900D01*
X0250569Y0204753D01*
X0251039Y0204753D01*
X0251039Y0210724D01*
X0251039Y0210724D01*
X0251039Y0204753D01*
X0251509Y0204753D01*
X0252438Y0204900D01*
X0253332Y0205190D01*
X0254169Y0205617D01*
X0254930Y0206169D01*
X0255594Y0206834D01*
X0256147Y0207595D01*
X0256574Y0208432D01*
X0256864Y0209326D01*
X0257011Y0210254D01*
X0257011Y0210724D01*
X0251039Y0210724D01*
X0251039Y0210724D01*
X0251039Y0210725D02*
X0251039Y0216696D01*
X0250569Y0216696D01*
X0249641Y0216549D01*
X0248747Y0216259D01*
X0247910Y0215832D01*
X0247149Y0215279D01*
X0246888Y0215018D01*
X0245102Y0216804D01*
X0242466Y0217896D01*
X0239613Y0217896D01*
X0236977Y0216804D01*
X0236039Y0215867D01*
X0235102Y0216804D01*
X0232466Y0217896D01*
X0229613Y0217896D01*
X0228372Y0217382D01*
X0228372Y0218614D01*
X0239133Y0229375D01*
X0240183Y0231911D01*
X0240183Y0250404D01*
X0239133Y0252940D01*
X0237192Y0254881D01*
X0235630Y0256443D01*
X0314293Y0256443D01*
X0316009Y0254924D01*
X0316009Y0234810D01*
X0314672Y0236147D01*
X0295772Y0255047D01*
X0293714Y0255900D01*
X0287436Y0255900D01*
X0285378Y0255047D01*
X0283803Y0253472D01*
X0282450Y0252119D01*
X0282000Y0252305D01*
X0279056Y0252305D01*
X0276336Y0251179D01*
X0274679Y0249522D01*
X0274567Y0249635D01*
X0273777Y0250208D01*
X0272908Y0250651D01*
X0271979Y0250953D01*
X0271016Y0251105D01*
X0270528Y0251105D01*
X0270528Y0241906D01*
X0270527Y0241906D01*
X0270527Y0241905D01*
X0270528Y0241905D01*
X0270528Y0232706D01*
X0271016Y0232706D01*
X0271979Y0232858D01*
X0272908Y0233160D01*
X0273777Y0233603D01*
X0274567Y0234176D01*
X0274679Y0234289D01*
X0276336Y0232632D01*
X0279056Y0231506D01*
X0282000Y0231506D01*
X0284719Y0232632D01*
X0285450Y0233363D01*
X0285450Y0232980D01*
X0241759Y0189288D01*
X0241013Y0187487D01*
X0241013Y0167896D01*
X0239613Y0167896D01*
X0236977Y0166804D01*
X0236039Y0165867D01*
X0235102Y0166804D01*
X0232466Y0167896D01*
X0229613Y0167896D01*
X0226977Y0166804D01*
X0226039Y0165867D01*
X0225102Y0166804D01*
X0222466Y0167896D01*
X0219613Y0167896D01*
X0216977Y0166804D01*
X0216039Y0165867D01*
X0215102Y0166804D01*
X0212466Y0167896D01*
X0209613Y0167896D01*
X0206977Y0166804D01*
X0206039Y0165867D01*
X0205102Y0166804D01*
X0202466Y0167896D01*
X0199613Y0167896D01*
X0196977Y0166804D01*
X0196039Y0165867D01*
X0195102Y0166804D01*
X0192466Y0167896D01*
X0189613Y0167896D01*
X0186977Y0166804D01*
X0186039Y0165867D01*
X0185102Y0166804D01*
X0182466Y0167896D01*
X0179613Y0167896D01*
X0176977Y0166804D01*
X0174960Y0164787D01*
X0173868Y0162151D01*
X0173868Y0159298D01*
X0174786Y0157081D01*
X0171620Y0157081D01*
X0171620Y0164828D01*
X0172161Y0164828D01*
X0175616Y0166259D01*
X0178260Y0168904D01*
X0182256Y0172899D01*
X0183972Y0172899D01*
X0187427Y0174330D01*
X0190071Y0176975D01*
X0190657Y0178389D01*
X0194226Y0178389D01*
X0195843Y0179059D01*
X0197081Y0180297D01*
X0197750Y0181914D01*
X0197750Y0190165D01*
X0197081Y0191782D01*
X0195843Y0193020D01*
X0194226Y0193689D01*
X0190439Y0193689D01*
X0190439Y0204773D01*
X0190569Y0204753D01*
X0191039Y0204753D01*
X0191039Y0208239D01*
X0191039Y0204753D01*
X0191509Y0204753D01*
X0192438Y0204900D01*
X0193142Y0205129D01*
X0202046Y0196224D01*
X0203424Y0194846D01*
X0205225Y0194100D01*
X0210909Y0194100D01*
X0212638Y0192489D01*
X0208775Y0192489D01*
X0208775Y0186464D01*
X0207925Y0186464D01*
X0207925Y0192489D01*
X0202035Y0192489D01*
X0201417Y0192366D01*
X0200835Y0192125D01*
X0199150Y0189000D02*
X0197750Y0189000D01*
X0197000Y0191862D02*
X0197000Y0201270D01*
X0197270Y0201000D02*
X0190439Y0201000D01*
X0191039Y0205000D02*
X0191039Y0205000D01*
X0192746Y0205000D02*
X0193270Y0205000D01*
X0193000Y0205082D02*
X0193000Y0193689D01*
X0195862Y0193000D02*
X0212090Y0193000D01*
X0209000Y0192489D02*
X0209000Y0194100D01*
X0208775Y0189000D02*
X0207925Y0189000D01*
X0209000Y0186464D02*
X0209000Y0185614D01*
X0208775Y0185000D02*
X0207925Y0185000D01*
X0207925Y0185614D02*
X0207925Y0179589D01*
X0202035Y0179589D01*
X0201417Y0179712D01*
X0200835Y0179954D01*
X0200311Y0180304D01*
X0199865Y0180749D01*
X0199515Y0181274D01*
X0199273Y0181856D01*
X0199150Y0182474D01*
X0199150Y0185614D01*
X0207925Y0185614D01*
X0205000Y0185614D02*
X0205000Y0186464D01*
X0201000Y0186464D02*
X0201000Y0185614D01*
X0199150Y0185000D02*
X0197750Y0185000D01*
X0197372Y0181000D02*
X0199697Y0181000D01*
X0201000Y0179885D02*
X0201000Y0167896D01*
X0205000Y0166846D02*
X0205000Y0179589D01*
X0207925Y0181000D02*
X0208775Y0181000D01*
X0209000Y0179589D02*
X0209000Y0167642D01*
X0213000Y0167675D02*
X0213000Y0179589D01*
X0217000Y0180995D02*
X0217000Y0166814D01*
X0221000Y0167896D02*
X0221000Y0188599D01*
X0221838Y0189000D02*
X0241639Y0189000D01*
X0245000Y0192530D02*
X0245000Y0204602D01*
X0245457Y0205000D02*
X0249333Y0205000D01*
X0249000Y0205108D02*
X0249000Y0196530D01*
X0249470Y0197000D02*
X0223150Y0197000D01*
X0221000Y0198713D02*
X0221000Y0203553D01*
X0217879Y0201000D02*
X0253470Y0201000D01*
X0253000Y0200530D02*
X0253000Y0205082D01*
X0252746Y0205000D02*
X0257470Y0205000D01*
X0257000Y0204530D02*
X0257000Y0210185D01*
X0257000Y0210724D02*
X0257000Y0210724D01*
X0257011Y0210724D02*
X0257011Y0211194D01*
X0256864Y0212123D01*
X0256574Y0213017D01*
X0256147Y0213854D01*
X0255594Y0214615D01*
X0254930Y0215279D01*
X0254169Y0215832D01*
X0253332Y0216259D01*
X0252438Y0216549D01*
X0251509Y0216696D01*
X0251039Y0216696D01*
X0251039Y0210725D01*
X0251039Y0210725D01*
X0251039Y0210724D02*
X0257011Y0210724D01*
X0257000Y0211264D02*
X0257000Y0256443D01*
X0253000Y0256443D02*
X0253000Y0216366D01*
X0251039Y0213000D02*
X0251039Y0213000D01*
X0253000Y0210724D02*
X0253000Y0210724D01*
X0251039Y0209000D02*
X0251039Y0209000D01*
X0251039Y0205000D02*
X0251039Y0205000D01*
X0256758Y0209000D02*
X0261470Y0209000D01*
X0261000Y0208530D02*
X0261000Y0256443D01*
X0265000Y0256443D02*
X0265000Y0247714D01*
X0264782Y0247285D02*
X0265225Y0248155D01*
X0265798Y0248945D01*
X0266489Y0249635D01*
X0267278Y0250208D01*
X0268148Y0250651D01*
X0269076Y0250953D01*
X0270040Y0251105D01*
X0270527Y0251105D01*
X0270527Y0241906D01*
X0264328Y0241906D01*
X0264328Y0245393D01*
X0264480Y0246357D01*
X0264782Y0247285D01*
X0265854Y0249000D02*
X0240183Y0249000D01*
X0240183Y0245000D02*
X0264328Y0245000D01*
X0264328Y0241905D02*
X0264328Y0238418D01*
X0264480Y0237454D01*
X0264782Y0236526D01*
X0265225Y0235656D01*
X0265798Y0234866D01*
X0266489Y0234176D01*
X0267278Y0233603D01*
X0268148Y0233160D01*
X0269076Y0232858D01*
X0270040Y0232706D01*
X0270527Y0232706D01*
X0270527Y0241905D01*
X0264328Y0241905D01*
X0265000Y0241905D02*
X0265000Y0241906D01*
X0264328Y0241000D02*
X0240183Y0241000D01*
X0240183Y0237000D02*
X0264628Y0237000D01*
X0265000Y0236097D02*
X0265000Y0212530D01*
X0265470Y0213000D02*
X0256579Y0213000D01*
X0249000Y0216341D02*
X0249000Y0256443D01*
X0245000Y0256443D02*
X0245000Y0216846D01*
X0244629Y0217000D02*
X0269470Y0217000D01*
X0269000Y0216530D02*
X0269000Y0232883D01*
X0268639Y0233000D02*
X0240183Y0233000D01*
X0238758Y0229000D02*
X0281470Y0229000D01*
X0281000Y0228530D02*
X0281000Y0231506D01*
X0277000Y0232357D02*
X0277000Y0224530D01*
X0277470Y0225000D02*
X0234758Y0225000D01*
X0233000Y0223242D02*
X0233000Y0217675D01*
X0234629Y0217000D02*
X0237450Y0217000D01*
X0237000Y0216814D02*
X0237000Y0227242D01*
X0230758Y0221000D02*
X0273470Y0221000D01*
X0273000Y0220530D02*
X0273000Y0233207D01*
X0272416Y0233000D02*
X0275968Y0233000D01*
X0270528Y0233000D02*
X0270527Y0233000D01*
X0270527Y0237000D02*
X0270528Y0237000D01*
X0270527Y0241000D02*
X0270528Y0241000D01*
X0269000Y0241905D02*
X0269000Y0241906D01*
X0270527Y0245000D02*
X0270528Y0245000D01*
X0270527Y0249000D02*
X0270528Y0249000D01*
X0269000Y0250928D02*
X0269000Y0256443D01*
X0273000Y0256443D02*
X0273000Y0250604D01*
X0277000Y0251454D02*
X0277000Y0256443D01*
X0281000Y0256443D02*
X0281000Y0252305D01*
X0283330Y0253000D02*
X0239073Y0253000D01*
X0237000Y0255073D02*
X0237000Y0256443D01*
X0241000Y0256443D02*
X0241000Y0217896D01*
X0229000Y0217642D02*
X0229000Y0219242D01*
X0226622Y0205000D02*
X0225457Y0205000D01*
X0225000Y0204602D02*
X0225000Y0166846D01*
X0229000Y0167642D02*
X0229000Y0203807D01*
X0233000Y0203774D02*
X0233000Y0167675D01*
X0237000Y0166814D02*
X0237000Y0204635D01*
X0236622Y0205000D02*
X0235457Y0205000D01*
X0241000Y0203553D02*
X0241000Y0167896D01*
X0241013Y0169000D02*
X0178357Y0169000D01*
X0177000Y0167643D02*
X0177000Y0166814D01*
X0175173Y0165000D02*
X0172576Y0165000D01*
X0173000Y0165176D02*
X0173000Y0157081D01*
X0173868Y0161000D02*
X0171620Y0161000D01*
X0181000Y0167896D02*
X0181000Y0171643D01*
X0184215Y0173000D02*
X0241013Y0173000D01*
X0241013Y0177000D02*
X0190082Y0177000D01*
X0189000Y0175903D02*
X0189000Y0167642D01*
X0185000Y0166846D02*
X0185000Y0173325D01*
X0193000Y0178389D02*
X0193000Y0167675D01*
X0197000Y0166814D02*
X0197000Y0180216D01*
X0205000Y0192489D02*
X0205000Y0194193D01*
X0213000Y0186464D02*
X0213000Y0185614D01*
X0217000Y0185614D02*
X0217000Y0186464D01*
X0217550Y0185000D02*
X0241013Y0185000D01*
X0241013Y0181000D02*
X0217003Y0181000D01*
X0224175Y0193000D02*
X0245470Y0193000D01*
X0253000Y0186670D02*
X0253000Y0167675D01*
X0252466Y0167896D02*
X0250813Y0167896D01*
X0250813Y0184483D01*
X0293126Y0226796D01*
X0294504Y0228174D01*
X0295250Y0229975D01*
X0295250Y0233163D01*
X0296801Y0234714D01*
X0297816Y0237164D01*
X0305517Y0229463D01*
X0300274Y0229463D01*
X0298657Y0228793D01*
X0297419Y0227555D01*
X0296750Y0225938D01*
X0296750Y0218188D01*
X0297419Y0216571D01*
X0298657Y0215333D01*
X0298822Y0215264D01*
X0298404Y0214443D01*
X0298102Y0213515D01*
X0297950Y0212551D01*
X0297950Y0212063D01*
X0297950Y0211575D01*
X0298102Y0210611D01*
X0298404Y0209683D01*
X0298847Y0208813D01*
X0299421Y0208024D01*
X0299533Y0207912D01*
X0297876Y0206255D01*
X0296750Y0203535D01*
X0296750Y0201529D01*
X0257965Y0162745D01*
X0257119Y0164787D01*
X0255102Y0166804D01*
X0252466Y0167896D01*
X0250813Y0169000D02*
X0264220Y0169000D01*
X0265000Y0169780D02*
X0265000Y0198670D01*
X0263330Y0197000D02*
X0292220Y0197000D01*
X0293000Y0197780D02*
X0293000Y0226670D01*
X0291330Y0225000D02*
X0296750Y0225000D01*
X0297000Y0226543D02*
X0297000Y0235194D01*
X0297748Y0237000D02*
X0297980Y0237000D01*
X0301000Y0233980D02*
X0301000Y0229463D01*
X0299157Y0229000D02*
X0294846Y0229000D01*
X0295250Y0233000D02*
X0301980Y0233000D01*
X0305000Y0229980D02*
X0305000Y0229463D01*
X0311500Y0231400D02*
X0311500Y0036100D01*
X0288550Y0013150D01*
X0288402Y0012811D01*
X0287266Y0019786D02*
X0287265Y0019786D01*
X0301254Y0033774D01*
X0302000Y0035575D01*
X0302000Y0068003D01*
X0302700Y0069693D01*
X0302700Y0071921D01*
X0301847Y0073979D01*
X0300272Y0075555D01*
X0298214Y0076407D01*
X0295986Y0076407D01*
X0293928Y0075555D01*
X0292353Y0073979D01*
X0291500Y0071921D01*
X0291500Y0069693D01*
X0292200Y0068003D01*
X0292200Y0048670D01*
X0291683Y0048995D01*
X0290540Y0049545D01*
X0289342Y0049964D01*
X0288104Y0050247D01*
X0287409Y0050325D01*
X0287409Y0040289D01*
X0285009Y0040289D01*
X0285009Y0050325D01*
X0284313Y0050247D01*
X0283075Y0049964D01*
X0281878Y0049545D01*
X0280734Y0048995D01*
X0279659Y0048319D01*
X0278667Y0047528D01*
X0277770Y0046631D01*
X0276978Y0045638D01*
X0276303Y0044564D01*
X0275752Y0043420D01*
X0275333Y0042222D01*
X0275051Y0040985D01*
X0274972Y0040289D01*
X0285009Y0040289D01*
X0285009Y0037889D01*
X0274972Y0037889D01*
X0275051Y0037193D01*
X0275333Y0035956D01*
X0275752Y0034758D01*
X0276244Y0033738D01*
X0275372Y0034285D01*
X0274229Y0034836D01*
X0273031Y0035255D01*
X0271793Y0035537D01*
X0271098Y0035616D01*
X0271098Y0025580D01*
X0268698Y0025580D01*
X0268698Y0033382D01*
X0269220Y0034287D01*
X0270086Y0037517D01*
X0270086Y0040861D01*
X0269220Y0044091D01*
X0267548Y0046986D01*
X0266305Y0048229D01*
X0266305Y0061442D01*
X0266787Y0062603D01*
X0266787Y0063930D01*
X0269368Y0064999D01*
X0270682Y0066313D01*
X0270938Y0066117D01*
X0271721Y0065664D01*
X0272557Y0065318D01*
X0273431Y0065084D01*
X0274327Y0064966D01*
X0274779Y0064966D01*
X0274779Y0071866D01*
X0274780Y0071866D01*
X0274780Y0071866D01*
X0281680Y0071866D01*
X0281680Y0071414D01*
X0281561Y0070517D01*
X0281327Y0069643D01*
X0280981Y0068808D01*
X0280529Y0068024D01*
X0279978Y0067307D01*
X0279339Y0066667D01*
X0278621Y0066117D01*
X0277838Y0065664D01*
X0277002Y0065318D01*
X0276129Y0065084D01*
X0275232Y0064966D01*
X0274780Y0064966D01*
X0274780Y0071866D01*
X0281680Y0071866D01*
X0281680Y0072318D01*
X0281561Y0073215D01*
X0281327Y0074089D01*
X0280981Y0074924D01*
X0280529Y0075708D01*
X0279978Y0076425D01*
X0279339Y0077065D01*
X0278621Y0077616D01*
X0277838Y0078068D01*
X0277002Y0078414D01*
X0276129Y0078648D01*
X0275232Y0078766D01*
X0274780Y0078766D01*
X0274780Y0071866D01*
X0274779Y0071866D01*
X0274779Y0078766D01*
X0274327Y0078766D01*
X0273431Y0078648D01*
X0272557Y0078414D01*
X0271721Y0078068D01*
X0270938Y0077616D01*
X0270682Y0077419D01*
X0269368Y0078733D01*
X0266391Y0079966D01*
X0263168Y0079966D01*
X0260191Y0078733D01*
X0257913Y0076454D01*
X0256844Y0073873D01*
X0255517Y0073873D01*
X0254355Y0073392D01*
X0237177Y0073392D01*
X0231433Y0079136D01*
X0231445Y0079141D01*
X0232041Y0079539D01*
X0232547Y0080046D01*
X0232945Y0080642D01*
X0233220Y0081304D01*
X0233359Y0082006D01*
X0233359Y0083677D01*
X0229017Y0083677D01*
X0229017Y0083677D01*
X0233359Y0083677D01*
X0233359Y0085348D01*
X0233220Y0086051D01*
X0232945Y0086713D01*
X0232547Y0087308D01*
X0232041Y0087815D01*
X0231445Y0088213D01*
X0230783Y0088487D01*
X0230080Y0088627D01*
X0228409Y0088627D01*
X0226926Y0088627D01*
X0226462Y0089091D01*
X0225990Y0089286D01*
X0224033Y0090208D01*
X0221411Y0090332D01*
X0220349Y0089950D01*
X0220187Y0089950D01*
X0219119Y0089507D01*
X0218098Y0089140D01*
X0209676Y0089140D01*
X0209676Y0091126D01*
X0200901Y0091126D01*
X0200901Y0091976D01*
X0209676Y0091976D01*
X0209676Y0095116D01*
X0209553Y0095735D01*
X0209312Y0096317D01*
X0208962Y0096841D01*
X0208516Y0097287D01*
X0208422Y0097350D01*
X0298397Y0097350D01*
X0298684Y0097063D01*
X0297876Y0096255D01*
X0296750Y0093535D01*
X0296750Y0090591D01*
X0297876Y0087871D01*
X0299958Y0085790D01*
X0302678Y0084663D01*
X0305622Y0084663D01*
X0305900Y0084778D01*
X0305900Y0038420D01*
X0287266Y0019786D01*
X0288480Y0021000D02*
X0288480Y0021000D01*
X0289000Y0021520D02*
X0289000Y0021520D01*
X0292480Y0025000D02*
X0292480Y0025000D01*
X0293000Y0025520D02*
X0293000Y0025520D01*
X0296480Y0029000D02*
X0296480Y0029000D01*
X0297000Y0029520D02*
X0297000Y0029520D01*
X0300480Y0033000D02*
X0300480Y0033000D01*
X0301000Y0033520D02*
X0301000Y0033520D01*
X0302000Y0037000D02*
X0304480Y0037000D01*
X0305000Y0037520D02*
X0305000Y0084663D01*
X0301864Y0085000D02*
X0233359Y0085000D01*
X0233000Y0083677D02*
X0233000Y0083677D01*
X0233094Y0081000D02*
X0305900Y0081000D01*
X0305900Y0077000D02*
X0279404Y0077000D01*
X0281000Y0074879D02*
X0281000Y0097350D01*
X0277000Y0097350D02*
X0277000Y0078415D01*
X0274780Y0077000D02*
X0274779Y0077000D01*
X0273000Y0078533D02*
X0273000Y0097350D01*
X0269000Y0097350D02*
X0269000Y0078885D01*
X0265000Y0079966D02*
X0265000Y0097350D01*
X0261000Y0097350D02*
X0261000Y0079068D01*
X0258458Y0077000D02*
X0233569Y0077000D01*
X0233000Y0077569D02*
X0233000Y0080773D01*
X0233000Y0086581D02*
X0233000Y0097350D01*
X0229000Y0097350D02*
X0229000Y0088627D01*
X0228409Y0088627D02*
X0228409Y0086496D01*
X0228409Y0088627D01*
X0226553Y0089000D02*
X0297409Y0089000D01*
X0297000Y0089987D02*
X0297000Y0076407D01*
X0301000Y0074827D02*
X0301000Y0085358D01*
X0296750Y0093000D02*
X0209676Y0093000D01*
X0209000Y0091976D02*
X0209000Y0091126D01*
X0213000Y0089140D02*
X0213000Y0097350D01*
X0209000Y0097350D02*
X0209000Y0096784D01*
X0208803Y0097000D02*
X0298621Y0097000D01*
X0297000Y0097350D02*
X0297000Y0094139D01*
X0293000Y0097350D02*
X0293000Y0074627D01*
X0291947Y0073000D02*
X0281590Y0073000D01*
X0281000Y0071866D02*
X0281000Y0071866D01*
X0281061Y0069000D02*
X0291787Y0069000D01*
X0292200Y0065000D02*
X0275489Y0065000D01*
X0274780Y0065000D02*
X0274779Y0065000D01*
X0274070Y0065000D02*
X0269369Y0065000D01*
X0269000Y0064847D02*
X0269000Y0044472D01*
X0268695Y0045000D02*
X0276577Y0045000D01*
X0277000Y0045665D02*
X0277000Y0065318D01*
X0274779Y0069000D02*
X0274780Y0069000D01*
X0277000Y0071866D02*
X0277000Y0071866D01*
X0274780Y0073000D02*
X0274779Y0073000D01*
X0281000Y0068853D02*
X0281000Y0049123D01*
X0280745Y0049000D02*
X0266305Y0049000D01*
X0266305Y0053000D02*
X0292200Y0053000D01*
X0292200Y0057000D02*
X0266305Y0057000D01*
X0266305Y0061000D02*
X0292200Y0061000D01*
X0302000Y0061000D02*
X0305900Y0061000D01*
X0305900Y0057000D02*
X0302000Y0057000D01*
X0302000Y0053000D02*
X0305900Y0053000D01*
X0305900Y0049000D02*
X0302000Y0049000D01*
X0302000Y0045000D02*
X0305900Y0045000D01*
X0305900Y0041000D02*
X0302000Y0041000D01*
X0292200Y0049000D02*
X0291672Y0049000D01*
X0289000Y0050042D02*
X0289000Y0097350D01*
X0285000Y0097350D02*
X0285000Y0050324D01*
X0285009Y0049000D02*
X0287409Y0049000D01*
X0287409Y0045000D02*
X0285009Y0045000D01*
X0285009Y0041000D02*
X0287409Y0041000D01*
X0285000Y0040289D02*
X0285000Y0037889D01*
X0281000Y0037889D02*
X0281000Y0040289D01*
X0277000Y0040289D02*
X0277000Y0037889D01*
X0275095Y0037000D02*
X0269947Y0037000D01*
X0269000Y0033906D02*
X0269000Y0025580D01*
X0268698Y0025580D02*
X0268698Y0023180D01*
X0258661Y0023180D01*
X0258740Y0022484D01*
X0259022Y0021246D01*
X0259441Y0020048D01*
X0259568Y0019786D01*
X0257014Y0019786D01*
X0254451Y0018724D01*
X0253402Y0017675D01*
X0252950Y0018126D01*
X0252950Y0027231D01*
X0255715Y0026490D01*
X0258789Y0026490D01*
X0258740Y0026275D01*
X0258661Y0025580D01*
X0268698Y0025580D01*
X0268698Y0025000D02*
X0252950Y0025000D01*
X0253000Y0027217D02*
X0253000Y0018076D01*
X0252950Y0021000D02*
X0259108Y0021000D01*
X0257000Y0019780D02*
X0257000Y0026490D01*
X0261000Y0025580D02*
X0261000Y0023180D01*
X0265000Y0023180D02*
X0265000Y0025580D01*
X0268698Y0029000D02*
X0271098Y0029000D01*
X0271098Y0025580D02*
X0279200Y0025580D01*
X0276800Y0023180D01*
X0271098Y0023180D01*
X0271098Y0025580D01*
X0271098Y0025000D02*
X0278620Y0025000D01*
X0277000Y0025580D02*
X0277000Y0023380D01*
X0273000Y0023180D02*
X0273000Y0025580D01*
X0271098Y0033000D02*
X0268698Y0033000D01*
X0273000Y0035262D02*
X0273000Y0065200D01*
X0257000Y0074251D02*
X0257000Y0097350D01*
X0253000Y0097350D02*
X0253000Y0073392D01*
X0249000Y0073392D02*
X0249000Y0097350D01*
X0245000Y0097350D02*
X0245000Y0073392D01*
X0241000Y0073392D02*
X0241000Y0097350D01*
X0237000Y0097350D02*
X0237000Y0073569D01*
X0228409Y0086496D02*
X0228409Y0086496D01*
X0225000Y0089752D02*
X0225000Y0097350D01*
X0221000Y0097350D02*
X0221000Y0090184D01*
X0217000Y0089140D02*
X0217000Y0097350D01*
X0205000Y0091976D02*
X0205000Y0091126D01*
X0201000Y0091126D02*
X0201000Y0091976D01*
X0200051Y0091976D02*
X0200051Y0091126D01*
X0191276Y0091126D01*
X0191276Y0089140D01*
X0189876Y0089140D01*
X0189876Y0095676D01*
X0189207Y0097294D01*
X0188960Y0097540D01*
X0189419Y0097350D01*
X0192531Y0097350D01*
X0192436Y0097287D01*
X0191991Y0096841D01*
X0191641Y0096317D01*
X0191399Y0095735D01*
X0191276Y0095116D01*
X0191276Y0091976D01*
X0200051Y0091976D01*
X0197000Y0091976D02*
X0197000Y0091126D01*
X0193000Y0091126D02*
X0193000Y0091976D01*
X0191276Y0093000D02*
X0189876Y0093000D01*
X0189328Y0097000D02*
X0192150Y0097000D01*
X0189000Y0097500D02*
X0189000Y0097524D01*
X0186628Y0099087D02*
X0186352Y0099201D01*
X0185237Y0099201D01*
X0185209Y0099232D01*
X0184980Y0099341D01*
X0184801Y0099520D01*
X0183300Y0100142D01*
X0181833Y0100841D01*
X0181580Y0100854D01*
X0181346Y0100951D01*
X0179721Y0100951D01*
X0178099Y0101036D01*
X0177860Y0100951D01*
X0107256Y0100951D01*
X0104888Y0103319D01*
X0104888Y0108226D01*
X0105375Y0107872D01*
X0106185Y0107459D01*
X0107049Y0107178D01*
X0107947Y0107036D01*
X0108402Y0107036D01*
X0108856Y0107036D01*
X0109754Y0107178D01*
X0110618Y0107459D01*
X0111428Y0107872D01*
X0112164Y0108406D01*
X0112553Y0108796D01*
X0114451Y0106898D01*
X0117014Y0105836D01*
X0118284Y0105836D01*
X0120512Y0103609D01*
X0122313Y0102863D01*
X0150925Y0102863D01*
X0152726Y0103609D01*
X0154104Y0104987D01*
X0155557Y0106440D01*
X0157014Y0105836D01*
X0159789Y0105836D01*
X0162352Y0106898D01*
X0164250Y0108796D01*
X0164640Y0108406D01*
X0165375Y0107872D01*
X0166185Y0107459D01*
X0167049Y0107178D01*
X0167947Y0107036D01*
X0168402Y0107036D01*
X0168856Y0107036D01*
X0169754Y0107178D01*
X0170618Y0107459D01*
X0171428Y0107872D01*
X0172164Y0108406D01*
X0172553Y0108796D01*
X0174451Y0106898D01*
X0177014Y0105836D01*
X0179789Y0105836D01*
X0179852Y0105862D01*
X0186240Y0099474D01*
X0186628Y0099087D01*
X0185000Y0099332D02*
X0185000Y0100714D01*
X0184714Y0101000D02*
X0178785Y0101000D01*
X0177998Y0101000D02*
X0107207Y0101000D01*
X0109000Y0100951D02*
X0109000Y0107059D01*
X0108402Y0107036D02*
X0108402Y0112811D01*
X0108402Y0112811D01*
X0108402Y0112811D01*
X0108402Y0118586D01*
X0108856Y0118586D01*
X0109754Y0118444D01*
X0110618Y0118163D01*
X0111428Y0117750D01*
X0112164Y0117216D01*
X0112553Y0116826D01*
X0114451Y0118724D01*
X0117014Y0119786D01*
X0119789Y0119786D01*
X0122352Y0118724D01*
X0123402Y0117675D01*
X0124451Y0118724D01*
X0127014Y0119786D01*
X0129113Y0119786D01*
X0130848Y0121521D01*
X0107256Y0121521D01*
X0104888Y0119154D01*
X0104888Y0117396D01*
X0105375Y0117750D01*
X0106185Y0118163D01*
X0107049Y0118444D01*
X0107947Y0118586D01*
X0108402Y0118586D01*
X0108402Y0112811D01*
X0108402Y0107036D01*
X0108402Y0109000D02*
X0108402Y0109000D01*
X0105000Y0108144D02*
X0105000Y0103207D01*
X0104888Y0105000D02*
X0119120Y0105000D01*
X0117000Y0105842D02*
X0117000Y0100951D01*
X0121000Y0100951D02*
X0121000Y0103406D01*
X0125000Y0102863D02*
X0125000Y0100951D01*
X0129000Y0100951D02*
X0129000Y0102863D01*
X0133000Y0102863D02*
X0133000Y0100951D01*
X0137000Y0100951D02*
X0137000Y0102863D01*
X0141000Y0102863D02*
X0141000Y0100951D01*
X0145000Y0100951D02*
X0145000Y0102863D01*
X0149000Y0102863D02*
X0149000Y0100951D01*
X0153000Y0100951D02*
X0153000Y0103883D01*
X0154117Y0105000D02*
X0180714Y0105000D01*
X0181000Y0104714D02*
X0181000Y0100951D01*
X0177000Y0100951D02*
X0177000Y0105842D01*
X0173000Y0108349D02*
X0173000Y0100951D01*
X0169000Y0100951D02*
X0169000Y0107059D01*
X0168402Y0107036D02*
X0168402Y0112200D01*
X0168402Y0112200D01*
X0168402Y0107036D01*
X0168402Y0109000D02*
X0168402Y0109000D01*
X0165000Y0108144D02*
X0165000Y0100951D01*
X0161000Y0100951D02*
X0161000Y0106338D01*
X0157000Y0105842D02*
X0157000Y0100951D01*
X0130327Y0121000D02*
X0106735Y0121000D01*
X0109000Y0121521D02*
X0109000Y0118563D01*
X0108402Y0117000D02*
X0108402Y0117000D01*
X0105000Y0117478D02*
X0105000Y0119265D01*
X0108402Y0113000D02*
X0108402Y0113000D01*
X0112379Y0117000D02*
X0112727Y0117000D01*
X0113000Y0117273D02*
X0113000Y0121521D01*
X0117000Y0121521D02*
X0117000Y0119780D01*
X0121000Y0119284D02*
X0121000Y0121521D01*
X0125000Y0121521D02*
X0125000Y0118952D01*
X0129000Y0119786D02*
X0129000Y0121521D01*
X0113000Y0108349D02*
X0113000Y0100951D01*
X0093000Y0077346D02*
X0093000Y0076007D01*
X0093210Y0075920D02*
X0092310Y0076292D01*
X0091414Y0076663D01*
X0091411Y0076663D01*
X0091408Y0076664D01*
X0090438Y0076663D01*
X0084753Y0076663D01*
X0085459Y0078368D01*
X0085459Y0081113D01*
X0084409Y0083649D01*
X0078766Y0089291D01*
X0078766Y0092910D01*
X0079081Y0093224D01*
X0079750Y0094841D01*
X0079750Y0103678D01*
X0079081Y0105296D01*
X0077843Y0106533D01*
X0076226Y0107203D01*
X0067507Y0107203D01*
X0066495Y0106784D01*
X0066859Y0107664D01*
X0067507Y0107395D01*
X0076226Y0107395D01*
X0077843Y0108065D01*
X0079081Y0109303D01*
X0079750Y0110920D01*
X0079750Y0119757D01*
X0079081Y0121374D01*
X0077843Y0122612D01*
X0076226Y0123282D01*
X0067507Y0123282D01*
X0066955Y0123053D01*
X0066955Y0127958D01*
X0070641Y0127958D01*
X0072419Y0128695D01*
X0073017Y0129293D01*
X0073695Y0129158D01*
X0075366Y0129158D01*
X0075366Y0134858D01*
X0075366Y0134858D01*
X0075366Y0129158D01*
X0077037Y0129158D01*
X0077740Y0129298D01*
X0078402Y0129572D01*
X0078997Y0129970D01*
X0079504Y0130477D01*
X0079902Y0131073D01*
X0080176Y0131735D01*
X0080316Y0132438D01*
X0080316Y0134858D01*
X0075366Y0134858D01*
X0075366Y0134858D01*
X0080316Y0134858D01*
X0080316Y0137279D01*
X0080176Y0137982D01*
X0079902Y0138644D01*
X0079504Y0139240D01*
X0078997Y0139746D01*
X0078402Y0140144D01*
X0077740Y0140418D01*
X0077622Y0140442D01*
X0078016Y0141395D01*
X0078016Y0145944D01*
X0077891Y0146246D01*
X0078719Y0148079D01*
X0078806Y0150823D01*
X0077836Y0153391D01*
X0077259Y0154005D01*
X0078803Y0154645D01*
X0079740Y0155582D01*
X0080678Y0154645D01*
X0082500Y0153890D01*
X0082500Y0147244D01*
X0082405Y0146721D01*
X0082500Y0146278D01*
X0082500Y0145825D01*
X0082703Y0145335D01*
X0082815Y0144816D01*
X0083073Y0144443D01*
X0083246Y0144024D01*
X0083621Y0143649D01*
X0083923Y0143212D01*
X0084304Y0142966D01*
X0084624Y0142646D01*
X0085115Y0142443D01*
X0085561Y0142155D01*
X0086007Y0142073D01*
X0086425Y0141900D01*
X0086621Y0141900D01*
X0086741Y0141296D01*
X0087015Y0140634D01*
X0087413Y0140038D01*
X0087920Y0139531D01*
X0088516Y0139133D01*
X0088861Y0138990D01*
X0080659Y0130789D01*
X0079913Y0128988D01*
X0079913Y0091488D01*
X0080659Y0089687D01*
X0082037Y0088309D01*
X0101500Y0068846D01*
X0103301Y0068100D01*
X0147391Y0068100D01*
X0140567Y0061276D01*
X0139996Y0061847D01*
X0138195Y0062593D01*
X0106569Y0062593D01*
X0093899Y0075233D01*
X0093215Y0075917D01*
X0093212Y0075918D01*
X0093210Y0075920D01*
X0093346Y0077000D02*
X0084893Y0077000D01*
X0085000Y0077259D02*
X0085000Y0076663D01*
X0089000Y0076663D02*
X0089000Y0081346D01*
X0089346Y0081000D02*
X0085459Y0081000D01*
X0085000Y0082221D02*
X0085000Y0085346D01*
X0085346Y0085000D02*
X0083057Y0085000D01*
X0081000Y0087057D02*
X0081000Y0089346D01*
X0081346Y0089000D02*
X0079057Y0089000D01*
X0078856Y0093000D02*
X0079913Y0093000D01*
X0079913Y0097000D02*
X0079750Y0097000D01*
X0079750Y0101000D02*
X0079913Y0101000D01*
X0079913Y0105000D02*
X0079203Y0105000D01*
X0077000Y0106882D02*
X0077000Y0107716D01*
X0078778Y0109000D02*
X0079913Y0109000D01*
X0079913Y0113000D02*
X0079750Y0113000D01*
X0079750Y0117000D02*
X0079913Y0117000D01*
X0079913Y0121000D02*
X0079236Y0121000D01*
X0077000Y0122961D02*
X0077000Y0129158D01*
X0079918Y0129000D02*
X0072724Y0129000D01*
X0073000Y0129276D02*
X0073000Y0123282D01*
X0069000Y0123282D02*
X0069000Y0127958D01*
X0066955Y0125000D02*
X0079913Y0125000D01*
X0081000Y0131130D02*
X0081000Y0154511D01*
X0082500Y0153000D02*
X0077984Y0153000D01*
X0078748Y0149000D02*
X0082500Y0149000D01*
X0082775Y0145000D02*
X0078016Y0145000D01*
X0077853Y0141000D02*
X0086863Y0141000D01*
X0085000Y0142490D02*
X0085000Y0135130D01*
X0086870Y0137000D02*
X0080316Y0137000D01*
X0077000Y0134858D02*
X0077000Y0134858D01*
X0075366Y0133000D02*
X0075366Y0133000D01*
X0080316Y0133000D02*
X0082870Y0133000D01*
X0061372Y0153807D02*
X0057450Y0149885D01*
X0057450Y0181842D01*
X0057957Y0181503D01*
X0058619Y0181229D01*
X0059321Y0181089D01*
X0060992Y0181089D01*
X0060992Y0182494D01*
X0060992Y0181089D01*
X0062184Y0181089D01*
X0063084Y0180190D01*
X0065620Y0179139D01*
X0066315Y0179139D01*
X0066771Y0178038D01*
X0069415Y0175393D01*
X0069415Y0175393D01*
X0070478Y0174330D01*
X0073933Y0172899D01*
X0075650Y0172899D01*
X0078849Y0169700D01*
X0077875Y0169700D01*
X0076074Y0168954D01*
X0075016Y0167896D01*
X0073314Y0167896D01*
X0070678Y0166804D01*
X0068660Y0164787D01*
X0067569Y0162151D01*
X0067569Y0159298D01*
X0068655Y0156674D01*
X0068619Y0156676D01*
X0068514Y0156719D01*
X0067251Y0156719D01*
X0065988Y0156759D01*
X0065882Y0156719D01*
X0065769Y0156719D01*
X0064602Y0156235D01*
X0063420Y0155789D01*
X0063338Y0155712D01*
X0063233Y0155668D01*
X0062340Y0154775D01*
X0061419Y0153911D01*
X0061372Y0153807D01*
X0061000Y0153435D02*
X0061000Y0181089D01*
X0062273Y0181000D02*
X0057450Y0181000D01*
X0060992Y0182494D02*
X0060992Y0182494D01*
X0057450Y0177000D02*
X0067809Y0177000D01*
X0069000Y0175809D02*
X0069000Y0165127D01*
X0068873Y0165000D02*
X0057450Y0165000D01*
X0057450Y0161000D02*
X0067569Y0161000D01*
X0068520Y0157000D02*
X0057450Y0157000D01*
X0057450Y0153000D02*
X0060565Y0153000D01*
X0065000Y0156400D02*
X0065000Y0179396D01*
X0057450Y0173000D02*
X0073690Y0173000D01*
X0073000Y0173286D02*
X0073000Y0167766D01*
X0076185Y0169000D02*
X0057450Y0169000D01*
X0077000Y0169337D02*
X0077000Y0171549D01*
X0091451Y0185000D02*
X0092851Y0185000D01*
X0093000Y0185614D02*
X0093000Y0186464D01*
X0092851Y0186464D02*
X0101626Y0186464D01*
X0101626Y0192489D01*
X0095736Y0192489D01*
X0095118Y0192366D01*
X0094535Y0192125D01*
X0094011Y0191775D01*
X0093566Y0191329D01*
X0093215Y0190805D01*
X0092974Y0190223D01*
X0092851Y0189605D01*
X0092851Y0186464D01*
X0092851Y0189000D02*
X0091451Y0189000D01*
X0093000Y0190285D02*
X0093000Y0203683D01*
X0090322Y0205000D02*
X0086447Y0205000D01*
X0085000Y0204753D02*
X0085000Y0193689D01*
X0084140Y0197000D02*
X0120511Y0197000D01*
X0121000Y0196511D02*
X0121000Y0183628D01*
X0117000Y0183628D02*
X0117000Y0200511D01*
X0116511Y0201000D02*
X0084140Y0201000D01*
X0084740Y0205000D02*
X0084740Y0205000D01*
X0084740Y0209000D02*
X0084740Y0209000D01*
X0084740Y0210725D02*
X0084740Y0215769D01*
X0084740Y0215770D01*
X0084740Y0210725D01*
X0084740Y0210725D01*
X0084740Y0213000D02*
X0084740Y0213000D01*
X0083342Y0216549D02*
X0082487Y0216271D01*
X0080065Y0218693D01*
X0076610Y0220124D01*
X0072870Y0220124D01*
X0069415Y0218693D01*
X0066771Y0216049D01*
X0065340Y0212594D01*
X0065340Y0192824D01*
X0063084Y0191889D01*
X0062184Y0190989D01*
X0060992Y0190989D01*
X0059321Y0190989D01*
X0058619Y0190850D01*
X0057957Y0190575D01*
X0057450Y0190237D01*
X0057450Y0193021D01*
X0058224Y0193795D01*
X0058894Y0195412D01*
X0058894Y0201163D01*
X0058635Y0201787D01*
X0058894Y0202412D01*
X0058894Y0208163D01*
X0058224Y0209780D01*
X0056986Y0211018D01*
X0055369Y0211687D01*
X0052837Y0211687D01*
X0048275Y0216349D01*
X0048264Y0216374D01*
X0047594Y0217044D01*
X0046930Y0217722D01*
X0046905Y0217733D01*
X0046886Y0217752D01*
X0046010Y0218115D01*
X0045138Y0218488D01*
X0045110Y0218488D01*
X0045085Y0218498D01*
X0044136Y0218498D01*
X0043188Y0218509D01*
X0043163Y0218498D01*
X0041356Y0218498D01*
X0041646Y0219198D01*
X0041646Y0223234D01*
X0077276Y0223234D01*
X0083876Y0216634D01*
X0083342Y0216549D01*
X0083510Y0217000D02*
X0081758Y0217000D01*
X0081000Y0217758D02*
X0081000Y0219510D01*
X0079510Y0221000D02*
X0041646Y0221000D01*
X0045000Y0223234D02*
X0045000Y0218498D01*
X0047638Y0217000D02*
X0067722Y0217000D01*
X0069000Y0218278D02*
X0069000Y0223234D01*
X0073000Y0223234D02*
X0073000Y0220124D01*
X0077000Y0219963D02*
X0077000Y0223234D01*
X0065000Y0223234D02*
X0065000Y0192683D01*
X0065340Y0193000D02*
X0057450Y0193000D01*
X0060992Y0190989D02*
X0060992Y0189584D01*
X0060992Y0189585D01*
X0060992Y0190989D01*
X0061000Y0190989D02*
X0061000Y0223234D01*
X0057000Y0223234D02*
X0057000Y0211004D01*
X0058547Y0209000D02*
X0065340Y0209000D01*
X0065340Y0205000D02*
X0058894Y0205000D01*
X0058894Y0201000D02*
X0065340Y0201000D01*
X0065340Y0197000D02*
X0058894Y0197000D01*
X0052244Y0198287D02*
X0051850Y0197650D01*
X0051850Y0194050D01*
X0051963Y0194444D01*
X0051850Y0194050D02*
X0051850Y0117212D01*
X0039700Y0105062D01*
X0039700Y0082900D01*
X0037450Y0080650D01*
X0029800Y0080650D01*
X0029622Y0080488D01*
X0034649Y0075050D02*
X0038564Y0075050D01*
X0040622Y0075903D01*
X0042197Y0077478D01*
X0043313Y0078593D01*
X0043313Y0068819D01*
X0032525Y0058031D01*
X0030584Y0056090D01*
X0029913Y0054472D01*
X0029714Y0054394D01*
X0029284Y0054394D01*
X0027506Y0053658D01*
X0027043Y0053194D01*
X0025559Y0053194D01*
X0023888Y0053194D01*
X0023186Y0053054D01*
X0022524Y0052780D01*
X0021928Y0052382D01*
X0021421Y0051875D01*
X0021023Y0051280D01*
X0020749Y0050618D01*
X0020609Y0049915D01*
X0020609Y0048244D01*
X0020609Y0046573D01*
X0020749Y0045871D01*
X0021023Y0045209D01*
X0021421Y0044613D01*
X0021928Y0044106D01*
X0022524Y0043708D01*
X0023186Y0043434D01*
X0023888Y0043294D01*
X0025559Y0043294D01*
X0025559Y0045607D01*
X0025559Y0043294D01*
X0027043Y0043294D01*
X0027506Y0042831D01*
X0029284Y0042094D01*
X0029647Y0042094D01*
X0030154Y0041872D01*
X0032267Y0041828D01*
X0032207Y0032272D01*
X0032184Y0032272D01*
X0030567Y0031602D01*
X0029329Y0030364D01*
X0028659Y0028747D01*
X0028659Y0020497D01*
X0029329Y0018880D01*
X0030567Y0017642D01*
X0032184Y0016972D01*
X0045934Y0016972D01*
X0047551Y0017642D01*
X0048789Y0018880D01*
X0049459Y0020497D01*
X0049459Y0028747D01*
X0048789Y0030364D01*
X0047551Y0031602D01*
X0046007Y0032242D01*
X0046046Y0038469D01*
X0049013Y0038469D01*
X0049013Y0045469D01*
X0051413Y0045469D01*
X0051413Y0047869D01*
X0058413Y0047869D01*
X0058413Y0051984D01*
X0058290Y0052603D01*
X0058048Y0053185D01*
X0057698Y0053709D01*
X0057252Y0054155D01*
X0056728Y0054505D01*
X0056146Y0054746D01*
X0055528Y0054869D01*
X0051413Y0054869D01*
X0051413Y0047869D01*
X0049013Y0047869D01*
X0049013Y0054869D01*
X0048879Y0054869D01*
X0056062Y0062052D01*
X0057113Y0064588D01*
X0057113Y0082576D01*
X0057705Y0082821D01*
X0058943Y0084059D01*
X0059613Y0085676D01*
X0059613Y0086041D01*
X0059705Y0086003D01*
X0078098Y0067609D01*
X0079899Y0066863D01*
X0088413Y0066863D01*
X0101084Y0054223D01*
X0101768Y0053539D01*
X0101771Y0053538D01*
X0101773Y0053536D01*
X0102672Y0053164D01*
X0103569Y0052793D01*
X0103572Y0052793D01*
X0103575Y0052792D01*
X0104544Y0052793D01*
X0111112Y0052793D01*
X0111033Y0052603D01*
X0110910Y0051984D01*
X0110910Y0047869D01*
X0117910Y0047869D01*
X0117910Y0045469D01*
X0110910Y0045469D01*
X0110910Y0042855D01*
X0108675Y0043586D01*
X0107415Y0044847D01*
X0105637Y0045583D01*
X0101087Y0045583D01*
X0099309Y0044847D01*
X0097949Y0043486D01*
X0097212Y0041708D01*
X0097212Y0037158D01*
X0097513Y0036433D01*
X0097212Y0035708D01*
X0097212Y0031158D01*
X0097800Y0029739D01*
X0097800Y0020750D01*
X0093064Y0020750D01*
X0091804Y0022010D01*
X0089096Y0023132D01*
X0080227Y0023132D01*
X0077519Y0022010D01*
X0076258Y0020750D01*
X0067474Y0020750D01*
X0066213Y0022010D01*
X0063505Y0023132D01*
X0054637Y0023132D01*
X0051928Y0022010D01*
X0049856Y0019938D01*
X0048734Y0017229D01*
X0048734Y0014298D01*
X0049789Y0011750D01*
X0023280Y0011750D01*
X0016858Y0018172D01*
X0017634Y0018172D01*
X0017634Y0024197D01*
X0018484Y0024197D01*
X0018484Y0018172D01*
X0024374Y0018172D01*
X0024992Y0018295D01*
X0025575Y0018536D01*
X0026099Y0018886D01*
X0026545Y0019332D01*
X0026895Y0019856D01*
X0027136Y0020439D01*
X0027259Y0021057D01*
X0027259Y0024197D01*
X0018484Y0024197D01*
X0018484Y0025047D01*
X0017634Y0025047D01*
X0017634Y0031072D01*
X0014000Y0031072D01*
X0014000Y0067342D01*
X0017054Y0064288D01*
X0019622Y0064288D01*
X0019622Y0070488D01*
X0019622Y0070488D01*
X0019622Y0064288D01*
X0022190Y0064288D01*
X0024622Y0066720D01*
X0027054Y0064288D01*
X0029622Y0064288D01*
X0029622Y0070488D01*
X0029622Y0070488D01*
X0029622Y0064288D01*
X0032190Y0064288D01*
X0035822Y0067920D01*
X0035822Y0070488D01*
X0029622Y0070488D01*
X0019622Y0070488D01*
X0019622Y0070488D01*
X0023422Y0070488D01*
X0029622Y0070488D01*
X0029622Y0070488D01*
X0029622Y0070488D01*
X0035822Y0070488D01*
X0035822Y0073056D01*
X0034239Y0074640D01*
X0034649Y0075050D01*
X0037000Y0075050D02*
X0037000Y0062506D01*
X0035494Y0061000D02*
X0014000Y0061000D01*
X0014000Y0057000D02*
X0031494Y0057000D01*
X0033000Y0058506D02*
X0033000Y0065098D01*
X0032902Y0065000D02*
X0039494Y0065000D01*
X0041000Y0066506D02*
X0041000Y0076280D01*
X0041720Y0077000D02*
X0043313Y0077000D01*
X0043313Y0073000D02*
X0035822Y0073000D01*
X0033000Y0070488D02*
X0033000Y0070488D01*
X0035822Y0069000D02*
X0043313Y0069000D01*
X0053000Y0058990D02*
X0053000Y0054869D01*
X0051413Y0053000D02*
X0049013Y0053000D01*
X0049000Y0054869D02*
X0049000Y0054990D01*
X0051010Y0057000D02*
X0098300Y0057000D01*
X0097000Y0058297D02*
X0097000Y0020750D01*
X0097800Y0021000D02*
X0092814Y0021000D01*
X0093000Y0020814D02*
X0093000Y0030432D01*
X0092906Y0030247D02*
X0093346Y0031112D01*
X0093647Y0032036D01*
X0093798Y0032995D01*
X0093798Y0033480D01*
X0084662Y0033480D01*
X0084662Y0033480D01*
X0084661Y0033480D02*
X0084661Y0027312D01*
X0084661Y0033480D01*
X0075524Y0033480D01*
X0075524Y0032995D01*
X0075676Y0032036D01*
X0075976Y0031112D01*
X0076417Y0030247D01*
X0076988Y0029462D01*
X0077674Y0028775D01*
X0078460Y0028205D01*
X0079325Y0027764D01*
X0080248Y0027464D01*
X0081207Y0027312D01*
X0084661Y0027312D01*
X0088115Y0027312D01*
X0089074Y0027464D01*
X0089998Y0027764D01*
X0090863Y0028205D01*
X0091648Y0028775D01*
X0092335Y0029462D01*
X0092906Y0030247D01*
X0091873Y0029000D02*
X0097800Y0029000D01*
X0097800Y0025000D02*
X0049459Y0025000D01*
X0049354Y0029000D02*
X0051859Y0029000D01*
X0052084Y0028775D02*
X0052869Y0028205D01*
X0053734Y0027764D01*
X0054658Y0027464D01*
X0055617Y0027312D01*
X0059071Y0027312D01*
X0062525Y0027312D01*
X0063484Y0027464D01*
X0064407Y0027764D01*
X0065272Y0028205D01*
X0066058Y0028775D01*
X0066744Y0029462D01*
X0067315Y0030247D01*
X0067756Y0031112D01*
X0068056Y0032036D01*
X0068208Y0032995D01*
X0068208Y0033480D01*
X0059071Y0033480D01*
X0059071Y0027312D01*
X0059071Y0033480D01*
X0059071Y0033480D01*
X0059071Y0033480D01*
X0049934Y0033480D01*
X0049934Y0032995D01*
X0050086Y0032036D01*
X0050386Y0031112D01*
X0050827Y0030247D01*
X0051397Y0029462D01*
X0052084Y0028775D01*
X0053000Y0028138D02*
X0053000Y0022454D01*
X0050918Y0021000D02*
X0049459Y0021000D01*
X0049000Y0019389D02*
X0049000Y0017872D01*
X0048734Y0017000D02*
X0046002Y0017000D01*
X0045000Y0016972D02*
X0045000Y0011750D01*
X0049000Y0011750D02*
X0049000Y0013656D01*
X0049272Y0013000D02*
X0022030Y0013000D01*
X0021000Y0014030D02*
X0021000Y0018172D01*
X0018030Y0017000D02*
X0032116Y0017000D01*
X0033000Y0016972D02*
X0033000Y0011750D01*
X0029000Y0011750D02*
X0029000Y0019674D01*
X0028659Y0021000D02*
X0027248Y0021000D01*
X0025000Y0018298D02*
X0025000Y0011750D01*
X0017000Y0018030D02*
X0017000Y0018172D01*
X0017634Y0021000D02*
X0018484Y0021000D01*
X0021000Y0024197D02*
X0021000Y0025047D01*
X0018484Y0025047D02*
X0027259Y0025047D01*
X0027259Y0028187D01*
X0027136Y0028805D01*
X0026895Y0029388D01*
X0026545Y0029912D01*
X0026099Y0030358D01*
X0025575Y0030708D01*
X0024992Y0030949D01*
X0024374Y0031072D01*
X0018484Y0031072D01*
X0018484Y0025047D01*
X0018484Y0025000D02*
X0028659Y0025000D01*
X0025000Y0025047D02*
X0025000Y0024197D01*
X0027055Y0029000D02*
X0028764Y0029000D01*
X0029000Y0029570D02*
X0029000Y0042212D01*
X0032262Y0041000D02*
X0014000Y0041000D01*
X0014000Y0045000D02*
X0021162Y0045000D01*
X0021000Y0045264D02*
X0021000Y0031072D01*
X0018484Y0029000D02*
X0017634Y0029000D01*
X0017000Y0031072D02*
X0017000Y0064342D01*
X0016342Y0065000D02*
X0014000Y0065000D01*
X0019622Y0065000D02*
X0019622Y0065000D01*
X0021000Y0064288D02*
X0021000Y0051224D01*
X0020609Y0049000D02*
X0014000Y0049000D01*
X0014000Y0053000D02*
X0023054Y0053000D01*
X0025000Y0053194D02*
X0025000Y0066342D01*
X0026342Y0065000D02*
X0022902Y0065000D01*
X0019622Y0069000D02*
X0019622Y0069000D01*
X0021000Y0070488D02*
X0021000Y0070488D01*
X0025000Y0070488D02*
X0025000Y0070488D01*
X0029000Y0070488D02*
X0029000Y0070488D01*
X0029622Y0069000D02*
X0029622Y0069000D01*
X0029622Y0065000D02*
X0029622Y0065000D01*
X0029000Y0064288D02*
X0029000Y0054276D01*
X0025559Y0053194D02*
X0025559Y0050881D01*
X0025559Y0050881D01*
X0025559Y0053194D01*
X0025559Y0053000D02*
X0025559Y0053000D01*
X0025158Y0048244D02*
X0020609Y0048244D01*
X0025158Y0048244D01*
X0025158Y0048244D01*
X0025000Y0048244D02*
X0025000Y0048244D01*
X0025559Y0045607D02*
X0025559Y0045607D01*
X0025559Y0045000D02*
X0025559Y0045000D01*
X0025000Y0043294D02*
X0025000Y0030946D01*
X0032212Y0033000D02*
X0014000Y0033000D01*
X0014000Y0037000D02*
X0032237Y0037000D01*
X0046037Y0037000D02*
X0051035Y0037000D01*
X0050827Y0036713D02*
X0050386Y0035848D01*
X0050086Y0034925D01*
X0049934Y0033966D01*
X0049934Y0033480D01*
X0059071Y0033480D01*
X0059071Y0033480D01*
X0068208Y0033480D01*
X0068208Y0033966D01*
X0068056Y0034925D01*
X0067756Y0035848D01*
X0067315Y0036713D01*
X0066744Y0037499D01*
X0066058Y0038185D01*
X0065272Y0038756D01*
X0064407Y0039197D01*
X0063484Y0039497D01*
X0062525Y0039649D01*
X0059071Y0039649D01*
X0059071Y0033480D01*
X0059071Y0033480D01*
X0059071Y0039649D01*
X0057711Y0039649D01*
X0058048Y0040154D01*
X0058290Y0040736D01*
X0058413Y0041354D01*
X0058413Y0045469D01*
X0051413Y0045469D01*
X0051413Y0038469D01*
X0052475Y0038469D01*
X0052084Y0038185D01*
X0051397Y0037499D01*
X0050827Y0036713D01*
X0049000Y0038469D02*
X0049000Y0029855D01*
X0049934Y0033000D02*
X0046012Y0033000D01*
X0053000Y0033480D02*
X0053000Y0033480D01*
X0057000Y0033480D02*
X0057000Y0033480D01*
X0059071Y0033000D02*
X0059071Y0033000D01*
X0061000Y0033480D02*
X0061000Y0033480D01*
X0059071Y0037000D02*
X0059071Y0037000D01*
X0061000Y0039649D02*
X0061000Y0084707D01*
X0060707Y0085000D02*
X0059333Y0085000D01*
X0057113Y0081000D02*
X0064707Y0081000D01*
X0065000Y0080707D02*
X0065000Y0038895D01*
X0067107Y0037000D02*
X0076625Y0037000D01*
X0076417Y0036713D02*
X0075976Y0035848D01*
X0075676Y0034925D01*
X0075524Y0033966D01*
X0075524Y0033480D01*
X0084661Y0033480D01*
X0084661Y0033480D01*
X0084661Y0033480D01*
X0084661Y0039649D01*
X0081207Y0039649D01*
X0080248Y0039497D01*
X0079325Y0039197D01*
X0078460Y0038756D01*
X0077674Y0038185D01*
X0076988Y0037499D01*
X0076417Y0036713D01*
X0077000Y0037511D02*
X0077000Y0068707D01*
X0076707Y0069000D02*
X0057113Y0069000D01*
X0057113Y0065000D02*
X0090280Y0065000D01*
X0089000Y0066277D02*
X0089000Y0039509D01*
X0089074Y0039497D02*
X0088115Y0039649D01*
X0084661Y0039649D01*
X0084661Y0033480D01*
X0084661Y0033480D01*
X0084662Y0033480D02*
X0093798Y0033480D01*
X0093798Y0033966D01*
X0093647Y0034925D01*
X0093346Y0035848D01*
X0092906Y0036713D01*
X0092335Y0037499D01*
X0091648Y0038185D01*
X0090863Y0038756D01*
X0089998Y0039197D01*
X0089074Y0039497D01*
X0085000Y0039649D02*
X0085000Y0066863D01*
X0081000Y0066863D02*
X0081000Y0039616D01*
X0084661Y0037000D02*
X0084661Y0037000D01*
X0085000Y0033480D02*
X0085000Y0033480D01*
X0084661Y0033000D02*
X0084661Y0033000D01*
X0081000Y0033480D02*
X0081000Y0033480D01*
X0077450Y0029000D02*
X0066283Y0029000D01*
X0065000Y0028066D02*
X0065000Y0022513D01*
X0067224Y0021000D02*
X0076509Y0021000D01*
X0077000Y0021491D02*
X0077000Y0029450D01*
X0075524Y0033000D02*
X0068208Y0033000D01*
X0065000Y0033480D02*
X0065000Y0033480D01*
X0061000Y0027312D02*
X0061000Y0023132D01*
X0057000Y0023132D02*
X0057000Y0027312D01*
X0059071Y0029000D02*
X0059071Y0029000D01*
X0069000Y0020750D02*
X0069000Y0076707D01*
X0068707Y0077000D02*
X0057113Y0077000D01*
X0057113Y0073000D02*
X0072707Y0073000D01*
X0073000Y0072707D02*
X0073000Y0020750D01*
X0081000Y0023132D02*
X0081000Y0027345D01*
X0085000Y0027312D02*
X0085000Y0023132D01*
X0089000Y0023132D02*
X0089000Y0027452D01*
X0084661Y0029000D02*
X0084661Y0029000D01*
X0089000Y0033480D02*
X0089000Y0033480D01*
X0093000Y0033480D02*
X0093000Y0033480D01*
X0093798Y0033000D02*
X0097212Y0033000D01*
X0097278Y0037000D02*
X0092697Y0037000D01*
X0093000Y0036528D02*
X0093000Y0062287D01*
X0094290Y0061000D02*
X0055010Y0061000D01*
X0057000Y0064316D02*
X0057000Y0054324D01*
X0058125Y0053000D02*
X0103069Y0053000D01*
X0105000Y0052793D02*
X0105000Y0045583D01*
X0107045Y0045000D02*
X0110910Y0045000D01*
X0113000Y0045469D02*
X0113000Y0047869D01*
X0110910Y0049000D02*
X0058413Y0049000D01*
X0057000Y0047869D02*
X0057000Y0045469D01*
X0058413Y0045000D02*
X0099680Y0045000D01*
X0101000Y0045547D02*
X0101000Y0054306D01*
X0109000Y0052793D02*
X0109000Y0043480D01*
X0103362Y0039433D02*
X0112000Y0036606D01*
X0119800Y0033850D01*
X0119800Y0024400D01*
X0108550Y0013150D01*
X0108402Y0012811D01*
X0119800Y0033850D02*
X0143256Y0033850D01*
X0143256Y0011294D01*
X0146350Y0008200D01*
X0171324Y0008200D01*
X0173630Y0010506D01*
X0173630Y0024680D01*
X0177850Y0028900D01*
X0177850Y0040150D01*
X0178228Y0040807D01*
X0146732Y0040807D02*
X0146350Y0040150D01*
X0143650Y0037450D01*
X0143650Y0036433D01*
X0143256Y0033850D01*
X0133117Y0039450D02*
X0126416Y0039450D01*
X0126596Y0039629D01*
X0126946Y0040154D01*
X0127187Y0040736D01*
X0127310Y0041354D01*
X0127310Y0045469D01*
X0120310Y0045469D01*
X0120310Y0047869D01*
X0127310Y0047869D01*
X0127310Y0051984D01*
X0127187Y0052603D01*
X0127108Y0052793D01*
X0133895Y0052793D01*
X0133895Y0052594D01*
X0133875Y0049922D01*
X0132752Y0048799D01*
X0132082Y0047182D01*
X0132082Y0041432D01*
X0132752Y0039815D01*
X0133117Y0039450D01*
X0133000Y0039450D02*
X0133000Y0039567D01*
X0132261Y0041000D02*
X0127240Y0041000D01*
X0129000Y0039450D02*
X0129000Y0052793D01*
X0133000Y0052793D02*
X0133000Y0049047D01*
X0132953Y0049000D02*
X0127310Y0049000D01*
X0125000Y0047869D02*
X0125000Y0045469D01*
X0127310Y0045000D02*
X0132082Y0045000D01*
X0121000Y0045469D02*
X0121000Y0047869D01*
X0117000Y0047869D02*
X0117000Y0045469D01*
X0117000Y0062593D02*
X0117000Y0068100D01*
X0113000Y0068100D02*
X0113000Y0062593D01*
X0109000Y0062593D02*
X0109000Y0068100D01*
X0105000Y0068100D02*
X0105000Y0064159D01*
X0104156Y0065000D02*
X0144291Y0065000D01*
X0145000Y0065709D02*
X0145000Y0068100D01*
X0141000Y0068100D02*
X0141000Y0061709D01*
X0137000Y0062593D02*
X0137000Y0068100D01*
X0133000Y0068100D02*
X0133000Y0062593D01*
X0129000Y0062593D02*
X0129000Y0068100D01*
X0125000Y0068100D02*
X0125000Y0062593D01*
X0121000Y0062593D02*
X0121000Y0068100D01*
X0101346Y0069000D02*
X0100147Y0069000D01*
X0101000Y0069346D02*
X0101000Y0068149D01*
X0097000Y0072139D02*
X0097000Y0073346D01*
X0097346Y0073000D02*
X0096137Y0073000D01*
X0097212Y0041000D02*
X0058342Y0041000D01*
X0053000Y0045469D02*
X0053000Y0047869D01*
X0051413Y0049000D02*
X0049013Y0049000D01*
X0049013Y0045000D02*
X0051413Y0045000D01*
X0051413Y0041000D02*
X0049013Y0041000D01*
X0041000Y0016972D02*
X0041000Y0011750D01*
X0037000Y0011750D02*
X0037000Y0016972D01*
X0021000Y0048244D02*
X0021000Y0048244D01*
X0019622Y0080488D02*
X0019900Y0080650D01*
X0029350Y0090100D01*
X0029622Y0090488D01*
X0069000Y0107203D02*
X0069000Y0107395D01*
X0073000Y0107395D02*
X0073000Y0107203D01*
X0115173Y0143669D02*
X0119350Y0146800D01*
X0119350Y0158050D01*
X0113000Y0183628D02*
X0113000Y0203683D01*
X0110322Y0205000D02*
X0109158Y0205000D01*
X0109000Y0204842D02*
X0109000Y0192360D01*
X0105000Y0192489D02*
X0105000Y0203553D01*
X0101000Y0204511D02*
X0101000Y0192489D01*
X0101626Y0189000D02*
X0102476Y0189000D01*
X0101000Y0186464D02*
X0101000Y0185614D01*
X0097000Y0185614D02*
X0097000Y0186464D01*
X0097000Y0192489D02*
X0097000Y0203898D01*
X0099158Y0205000D02*
X0100322Y0205000D01*
X0089000Y0206322D02*
X0089000Y0193245D01*
X0089563Y0193000D02*
X0124198Y0193000D01*
X0105000Y0186464D02*
X0105000Y0185614D01*
X0065508Y0213000D02*
X0051552Y0213000D01*
X0053000Y0211687D02*
X0053000Y0223234D01*
X0049000Y0223234D02*
X0049000Y0215608D01*
X0020748Y0198287D02*
X0020800Y0197650D01*
X0144740Y0209000D02*
X0144740Y0209000D01*
X0145000Y0210724D02*
X0145000Y0210724D01*
X0149000Y0206539D02*
X0149000Y0183628D01*
X0191039Y0208239D02*
X0191039Y0208239D01*
X0215457Y0205000D02*
X0216622Y0205000D01*
X0217000Y0204635D02*
X0217000Y0201819D01*
X0251330Y0185000D02*
X0280220Y0185000D01*
X0281000Y0185780D02*
X0281000Y0214670D01*
X0279330Y0213000D02*
X0298021Y0213000D01*
X0297950Y0212063D02*
X0304149Y0212063D01*
X0297950Y0212063D01*
X0301000Y0212063D02*
X0301000Y0212063D01*
X0304149Y0212063D02*
X0304149Y0212063D01*
X0298752Y0209000D02*
X0275330Y0209000D01*
X0277000Y0210670D02*
X0277000Y0181780D01*
X0276220Y0181000D02*
X0250813Y0181000D01*
X0250813Y0177000D02*
X0272220Y0177000D01*
X0273000Y0177780D02*
X0273000Y0206670D01*
X0271330Y0205000D02*
X0297356Y0205000D01*
X0297000Y0204139D02*
X0297000Y0217583D01*
X0297242Y0217000D02*
X0283330Y0217000D01*
X0285000Y0218670D02*
X0285000Y0189780D01*
X0284220Y0189000D02*
X0255330Y0189000D01*
X0257000Y0190670D02*
X0257000Y0164906D01*
X0256906Y0165000D02*
X0260220Y0165000D01*
X0261000Y0165780D02*
X0261000Y0194670D01*
X0259330Y0193000D02*
X0288220Y0193000D01*
X0289000Y0193780D02*
X0289000Y0222670D01*
X0287330Y0221000D02*
X0296750Y0221000D01*
X0285000Y0232530D02*
X0285000Y0232913D01*
X0285087Y0233000D02*
X0285450Y0233000D01*
X0280528Y0241906D02*
X0280900Y0242200D01*
X0285400Y0246700D01*
X0285400Y0247150D01*
X0288550Y0250300D01*
X0292600Y0250300D01*
X0311500Y0231400D01*
X0313820Y0237000D02*
X0316009Y0237000D01*
X0313000Y0237820D02*
X0313000Y0256443D01*
X0309000Y0256443D02*
X0309000Y0241820D01*
X0309820Y0241000D02*
X0316009Y0241000D01*
X0316009Y0245000D02*
X0305820Y0245000D01*
X0305000Y0245820D02*
X0305000Y0256443D01*
X0301000Y0256443D02*
X0301000Y0249820D01*
X0301820Y0249000D02*
X0316009Y0249000D01*
X0316009Y0253000D02*
X0297820Y0253000D01*
X0297000Y0253820D02*
X0297000Y0256443D01*
X0293000Y0256443D02*
X0293000Y0255900D01*
X0289000Y0255900D02*
X0289000Y0256443D01*
X0285000Y0256443D02*
X0285000Y0254670D01*
X0269000Y0202670D02*
X0269000Y0173780D01*
X0268220Y0173000D02*
X0250813Y0173000D01*
X0225550Y0154113D02*
X0225550Y0146800D01*
X0221472Y0143669D01*
X0267330Y0201000D02*
X0296220Y0201000D01*
X0193824Y0251631D02*
X0192196Y0252305D01*
X0189252Y0252305D01*
X0186533Y0251179D01*
X0184451Y0249097D01*
X0183324Y0246377D01*
X0183324Y0238793D01*
X0182534Y0239120D01*
X0176441Y0239120D01*
X0176441Y0242495D01*
X0176095Y0243331D01*
X0177728Y0243331D01*
X0177728Y0244031D01*
X0177728Y0244031D01*
X0177728Y0243331D01*
X0179399Y0243331D01*
X0180102Y0243471D01*
X0180764Y0243745D01*
X0181360Y0244144D01*
X0181866Y0244650D01*
X0182264Y0245246D01*
X0182539Y0245908D01*
X0182678Y0246611D01*
X0182678Y0247812D01*
X0182772Y0248037D01*
X0182772Y0253963D01*
X0182010Y0255801D01*
X0181369Y0256443D01*
X0195503Y0256443D01*
X0194875Y0255814D01*
X0193824Y0253278D01*
X0193824Y0251631D01*
X0193000Y0251973D02*
X0193000Y0256443D01*
X0193824Y0253000D02*
X0182772Y0253000D01*
X0182772Y0249000D02*
X0184411Y0249000D01*
X0185000Y0249646D02*
X0185000Y0256443D01*
X0189000Y0256443D02*
X0189000Y0252201D01*
X0183324Y0245000D02*
X0182100Y0245000D01*
X0181000Y0243903D02*
X0181000Y0239120D01*
X0183324Y0241000D02*
X0176441Y0241000D01*
X0177000Y0239120D02*
X0177000Y0243331D01*
X0302253Y0073000D02*
X0305900Y0073000D01*
X0305900Y0069000D02*
X0302413Y0069000D01*
X0302000Y0065000D02*
X0305900Y0065000D01*
X0275054Y0041000D02*
X0270049Y0041000D01*
X0243150Y0032270D02*
X0243150Y0017423D01*
X0242553Y0016826D01*
X0242164Y0017216D01*
X0241428Y0017750D01*
X0240618Y0018163D01*
X0239754Y0018444D01*
X0238856Y0018586D01*
X0238402Y0018586D01*
X0238402Y0012811D01*
X0238402Y0012811D01*
X0238402Y0018586D01*
X0237947Y0018586D01*
X0237049Y0018444D01*
X0236185Y0018163D01*
X0235375Y0017750D01*
X0234640Y0017216D01*
X0234250Y0016826D01*
X0232352Y0018724D01*
X0229789Y0019786D01*
X0227014Y0019786D01*
X0224451Y0018724D01*
X0223689Y0017963D01*
X0223617Y0050609D01*
X0223617Y0051581D01*
X0223614Y0051586D01*
X0223614Y0051592D01*
X0223461Y0051959D01*
X0243150Y0032270D01*
X0242420Y0033000D02*
X0223656Y0033000D01*
X0223665Y0029000D02*
X0243150Y0029000D01*
X0243150Y0025000D02*
X0223674Y0025000D01*
X0223683Y0021000D02*
X0243150Y0021000D01*
X0241000Y0017968D02*
X0241000Y0034420D01*
X0238420Y0037000D02*
X0223647Y0037000D01*
X0223638Y0041000D02*
X0234420Y0041000D01*
X0233000Y0042420D02*
X0233000Y0018076D01*
X0234076Y0017000D02*
X0234424Y0017000D01*
X0237000Y0018428D02*
X0237000Y0038420D01*
X0230420Y0045000D02*
X0223629Y0045000D01*
X0223620Y0049000D02*
X0226420Y0049000D01*
X0225000Y0050420D02*
X0225000Y0018952D01*
X0229000Y0019786D02*
X0229000Y0046420D01*
X0238402Y0017000D02*
X0238402Y0017000D01*
X0242379Y0017000D02*
X0242727Y0017000D01*
X0238402Y0013000D02*
X0238402Y0013000D01*
X0077000Y0033480D02*
X0077000Y0033480D01*
D33*
X0078559Y0079740D03*
D34*
X0080874Y0071763D02*
X0061187Y0091450D01*
X0080874Y0071763D02*
X0090439Y0071763D01*
X0104543Y0057693D01*
X0137220Y0057693D01*
X0140567Y0054346D01*
X0150213Y0063992D01*
X0155480Y0063992D01*
X0161480Y0063992D02*
X0161480Y0066992D01*
X0162417Y0067929D01*
X0169898Y0061630D02*
X0176197Y0061630D01*
X0178165Y0059661D01*
X0178228Y0047807D01*
X0174228Y0044110D01*
X0174228Y0041157D01*
X0167950Y0034879D01*
X0167950Y0022600D01*
X0158500Y0013150D01*
X0158402Y0012811D01*
X0150737Y0015287D02*
X0148600Y0013150D01*
X0148402Y0012811D01*
X0150737Y0015287D02*
X0150737Y0047181D01*
X0147975Y0047187D01*
X0149669Y0047307D01*
X0154543Y0047307D01*
X0158480Y0044307D02*
X0158480Y0053118D01*
X0155480Y0056118D01*
X0151543Y0052181D01*
X0144307Y0052181D01*
X0142339Y0050213D01*
X0142339Y0039976D01*
X0143520Y0037220D02*
X0143520Y0036563D01*
X0143650Y0036433D01*
X0138732Y0044307D02*
X0138795Y0052575D01*
X0140567Y0054346D01*
X0146732Y0047807D02*
X0146800Y0047800D01*
X0146800Y0046787D01*
X0147975Y0047187D01*
X0154543Y0041307D02*
X0155480Y0041307D01*
X0158480Y0044307D01*
X0162417Y0041307D02*
X0166898Y0041307D01*
X0170228Y0044307D01*
X0169750Y0044650D01*
X0162417Y0047307D02*
X0162417Y0047457D01*
X0172654Y0057693D01*
X0169898Y0061630D02*
X0164386Y0056118D01*
X0161480Y0056118D01*
X0162417Y0041307D02*
X0162417Y0036304D01*
X0159176Y0033063D01*
X0177850Y0046900D02*
X0177850Y0047800D01*
X0178228Y0047807D01*
X0198550Y0065085D02*
X0198638Y0065173D01*
X0198550Y0065085D02*
X0198550Y0013150D01*
X0198402Y0012811D01*
X0208402Y0012811D02*
X0208450Y0013150D01*
X0208450Y0069080D01*
X0208480Y0069110D01*
X0214300Y0073000D02*
X0104276Y0073000D01*
X0084813Y0092463D01*
X0084813Y0128013D01*
X0103150Y0146350D01*
X0103150Y0146800D01*
X0093700Y0156250D01*
X0093250Y0156250D01*
X0089200Y0160300D01*
X0089200Y0162100D01*
X0086500Y0164800D01*
X0078850Y0164800D01*
X0074800Y0160750D01*
X0074740Y0160724D01*
X0084740Y0160724D02*
X0085150Y0160300D01*
X0087400Y0158050D01*
X0087400Y0146800D01*
X0091551Y0149669D01*
X0103150Y0146800D02*
X0111250Y0146800D01*
X0115173Y0149669D01*
X0114740Y0160724D02*
X0114850Y0160750D01*
X0124300Y0160750D01*
X0124740Y0160724D01*
X0129475Y0190900D02*
X0139150Y0199394D01*
X0139150Y0214890D01*
X0158480Y0234220D01*
X0158480Y0240220D02*
X0158480Y0248835D01*
X0150606Y0245094D02*
X0142732Y0237220D01*
X0134858Y0237220D01*
X0131358Y0240720D01*
X0138795Y0240220D02*
X0138795Y0248855D01*
X0138700Y0248950D01*
X0138795Y0234220D02*
X0129813Y0225238D01*
X0129813Y0199337D01*
X0129475Y0195223D02*
X0129218Y0195223D01*
X0119504Y0204937D01*
X0119504Y0225953D01*
X0111236Y0234220D01*
X0111236Y0240220D02*
X0111236Y0248936D01*
X0111250Y0248950D01*
X0129475Y0195223D02*
X0129475Y0194894D01*
X0170291Y0234220D02*
X0181559Y0234220D01*
X0195882Y0219898D01*
X0195882Y0216968D01*
X0195906Y0216944D01*
X0195906Y0209294D01*
X0206200Y0199000D01*
X0212837Y0199000D01*
X0218575Y0193656D01*
X0245913Y0186513D02*
X0290350Y0230950D01*
X0290350Y0241750D01*
X0290528Y0241906D01*
X0304150Y0202063D02*
X0303850Y0201700D01*
X0255250Y0153100D01*
X0247037Y0153100D01*
X0214861Y0120924D01*
X0207538Y0120924D01*
X0205724Y0119110D01*
X0198550Y0113050D01*
X0198402Y0112811D01*
X0196750Y0108550D02*
X0192700Y0112600D01*
X0192700Y0114400D01*
X0190000Y0117100D01*
X0156363Y0117100D01*
X0153437Y0114175D01*
X0153437Y0111250D01*
X0149950Y0107763D01*
X0123287Y0107763D01*
X0118450Y0112600D01*
X0118402Y0112811D01*
X0128402Y0112811D02*
X0128800Y0113050D01*
X0129307Y0113050D01*
X0138532Y0122275D01*
X0152706Y0122275D01*
X0169300Y0138869D01*
X0169300Y0150402D01*
X0171079Y0152181D01*
X0174382Y0152181D01*
X0199450Y0127113D01*
X0217450Y0127113D01*
X0245913Y0155576D01*
X0245913Y0186513D01*
X0231039Y0160724D02*
X0230950Y0160750D01*
X0221050Y0160750D01*
X0221039Y0160724D01*
X0221472Y0149669D02*
X0217450Y0146350D01*
X0212837Y0146350D01*
X0206594Y0140106D01*
X0213344Y0133356D01*
X0206594Y0140106D02*
X0206369Y0139881D01*
X0190563Y0139881D01*
X0181450Y0148994D01*
X0181450Y0160300D01*
X0181039Y0160724D01*
X0191039Y0160724D02*
X0191350Y0160300D01*
X0194050Y0157600D01*
X0194050Y0146800D01*
X0197850Y0149669D01*
X0172000Y0148713D02*
X0172000Y0136450D01*
X0148600Y0113050D01*
X0148402Y0112811D01*
X0178402Y0112811D02*
X0178750Y0112600D01*
X0180044Y0112600D01*
X0190394Y0102250D01*
X0303850Y0102250D01*
X0304150Y0102063D01*
X0304150Y0112063D02*
X0304300Y0112150D01*
X0304300Y0115750D01*
X0308800Y0120250D01*
X0308800Y0167500D01*
X0304300Y0172000D01*
X0304150Y0172063D01*
X0303850Y0172000D01*
X0302050Y0172000D01*
X0243437Y0113781D01*
X0243437Y0110463D01*
X0241525Y0108550D01*
X0196750Y0108550D01*
X0194669Y0106750D02*
X0278200Y0106750D01*
X0283713Y0112263D01*
X0283713Y0113613D01*
X0302050Y0131950D01*
X0303850Y0131950D01*
X0304150Y0132063D01*
X0302050Y0132400D01*
X0299800Y0134650D01*
X0299800Y0154000D01*
X0303850Y0158050D01*
X0303850Y0161650D01*
X0304150Y0162063D01*
X0303850Y0181900D02*
X0304150Y0182063D01*
X0303850Y0181900D02*
X0243269Y0120925D01*
X0194669Y0106750D02*
X0188819Y0112600D01*
X0188650Y0112600D01*
X0188402Y0112811D01*
X0214300Y0073000D02*
X0221500Y0065800D01*
X0221500Y0060850D01*
X0248050Y0034300D01*
X0248050Y0013150D01*
X0248402Y0012811D01*
X0266950Y0005500D02*
X0138081Y0005500D01*
X0133187Y0010394D01*
X0133187Y0014106D01*
X0130150Y0016750D01*
X0122950Y0016750D01*
X0118900Y0012700D01*
X0118402Y0012811D01*
X0118000Y0012700D01*
X0115131Y0012700D01*
X0111081Y0008650D01*
X0105569Y0008650D01*
X0102700Y0011519D01*
X0102700Y0015850D01*
X0102700Y0031637D01*
X0103362Y0033433D01*
X0102700Y0015850D02*
X0084700Y0015850D01*
X0084661Y0015764D01*
X0084250Y0015850D01*
X0059500Y0015850D01*
X0059071Y0015764D01*
X0021250Y0006850D02*
X0122500Y0006850D01*
X0128350Y0012700D01*
X0128402Y0012811D01*
X0138732Y0044307D02*
X0138250Y0045550D01*
X0138700Y0045550D02*
X0138700Y0044650D01*
X0138732Y0044307D01*
X0214863Y0054460D02*
X0218717Y0050606D01*
X0218800Y0013150D01*
X0218402Y0012811D01*
X0214863Y0054460D02*
X0214863Y0064900D01*
X0272350Y0012250D02*
X0272350Y0010900D01*
X0266950Y0005500D01*
X0272350Y0012250D02*
X0276850Y0016750D01*
X0277300Y0016750D01*
X0297100Y0036550D01*
X0297100Y0070807D01*
X0170291Y0240220D02*
X0170291Y0248859D01*
X0170200Y0248950D01*
X0052244Y0205287D02*
X0051894Y0204937D01*
X0049425Y0204937D01*
X0048244Y0203756D01*
X0048244Y0199425D01*
X0042869Y0194050D01*
X0042850Y0194050D01*
X0042850Y0114174D01*
X0036100Y0107424D01*
X0036100Y0084250D01*
X0022825Y0105456D02*
X0015738Y0105456D01*
X0010956Y0109844D01*
X0010956Y0146800D01*
X0015850Y0151300D01*
X0015850Y0151750D01*
X0016039Y0152063D01*
X0009100Y0164612D02*
X0011630Y0167142D01*
X0020291Y0167142D01*
X0027378Y0174228D01*
X0027378Y0183677D01*
X0016748Y0194307D01*
X0016748Y0201591D01*
X0020748Y0205287D01*
X0021819Y0205528D01*
X0028559Y0198787D01*
X0032102Y0200606D02*
X0032102Y0196075D01*
X0030528Y0194500D01*
X0028507Y0194500D01*
X0024232Y0194500D01*
X0020748Y0198287D01*
X0020748Y0205287D02*
X0020350Y0205300D01*
X0020748Y0205287D02*
X0020800Y0205750D01*
X0028559Y0204787D02*
X0028559Y0212661D01*
X0029496Y0213598D01*
X0032496Y0217535D02*
X0032496Y0202969D01*
X0036433Y0199031D01*
X0036433Y0198787D01*
X0036433Y0193913D01*
X0030700Y0188180D01*
X0030700Y0177852D01*
X0024622Y0178165D02*
X0024622Y0182102D01*
X0012700Y0194024D01*
X0012700Y0202150D01*
X0012748Y0201787D01*
X0012811Y0202181D01*
X0012811Y0205724D01*
X0028559Y0221472D01*
X0029496Y0221472D01*
X0032496Y0217535D02*
X0035496Y0220535D01*
X0035496Y0221472D01*
X0035496Y0213598D02*
X0044110Y0213598D01*
X0052244Y0205287D01*
X0051850Y0205300D01*
X0052244Y0205287D02*
X0051850Y0205750D01*
X0044200Y0202150D02*
X0044244Y0201787D01*
X0040913Y0204787D01*
X0036433Y0204787D01*
X0032102Y0200606D02*
X0029496Y0203213D01*
X0028559Y0204787D01*
X0041050Y0195737D02*
X0041050Y0142187D01*
X0024737Y0125874D01*
X0024737Y0115637D01*
X0019900Y0110800D01*
X0019622Y0110488D01*
X0024513Y0112206D02*
X0024513Y0107144D01*
X0022825Y0105456D01*
X0024513Y0112206D02*
X0027663Y0115356D01*
X0032781Y0115356D01*
X0040150Y0124300D01*
X0009100Y0164612D02*
X0009100Y0019000D01*
X0021250Y0006850D01*
X0041050Y0195737D02*
X0043750Y0198437D01*
X0043750Y0201700D01*
X0044244Y0201787D01*
D35*
X0074740Y0210724D02*
X0074740Y0186039D01*
X0074740Y0183362D01*
X0075803Y0182299D01*
X0080921Y0180921D02*
X0087614Y0174228D01*
X0162024Y0174228D01*
X0170291Y0174228D01*
X0178362Y0182299D01*
X0182102Y0182299D01*
X0181039Y0183362D02*
X0181039Y0210724D01*
X0162220Y0174228D02*
X0162220Y0142535D01*
X0150606Y0130921D01*
X0103362Y0130921D01*
X0095488Y0123047D01*
X0095488Y0099425D01*
X0103362Y0091551D01*
X0119110Y0091551D01*
X0179476Y0091551D01*
X0178165Y0090370D01*
X0178165Y0079740D01*
X0217535Y0079740D01*
X0233283Y0063992D01*
X0256906Y0063992D01*
X0256906Y0040370D01*
X0256906Y0063992D02*
X0257387Y0064473D01*
D36*
X0183480Y0182299D02*
X0182102Y0182299D01*
X0181039Y0183362D01*
X0183480Y0182299D02*
X0187350Y0186039D01*
X0081051Y0186039D02*
X0080921Y0180921D01*
X0077181Y0182299D02*
X0081051Y0186039D01*
X0077181Y0182299D02*
X0075803Y0182299D01*
D37*
X0217535Y0079740D02*
X0221050Y0082900D01*
X0221500Y0083350D01*
X0222409Y0083677D01*
M02*
