%
M48
M72
T01C0.01200
T02C0.01370
T03C0.03150
T04C0.03543
T05C0.03937
T06C0.04000
T07C0.11800
T08C0.12598
%
T01
X36100Y84250
X61187Y91450
X40150Y124300
X85206Y135944
X119350Y158050
X129475Y190900
X129475Y194894
X129813Y199337
X175409Y226591
X178165Y243126
X126197Y245094
X51963Y194444
X30700Y177852
X24622Y178165
X28507Y194500
X162417Y67929
X172654Y57693
X198638Y65173
X208480Y69110
X214863Y64900
X159176Y33063
X243269Y120925
X213344Y133356
X225550Y154113
X218575Y193656
X172000Y148713
X297100Y70807
T02
X78559Y79740
T03
X108402Y12811
X118402Y12811
X128402Y12811
X138402Y12811
X148402Y12811
X158402Y12811
X168402Y12811
X178402Y12811
X188402Y12811
X198402Y12811
X208402Y12811
X218402Y12811
X228402Y12811
X238402Y12811
X248402Y12811
X258402Y12811
X268402Y12811
X278402Y12811
X288402Y12811
X288402Y112811
X278402Y112811
X268402Y112811
X258402Y112811
X248402Y112811
X238402Y112811
X228402Y112811
X218402Y112811
X208402Y112811
X198402Y112811
X188402Y112811
X178402Y112811
X168402Y112811
X158402Y112811
X148402Y112811
X138402Y112811
X128402Y112811
X118402Y112811
X108402Y112811
T04
X74740Y160724
X84740Y160724
X94740Y160724
X104740Y160724
X114740Y160724
X124740Y160724
X134740Y160724
X144740Y160724
X181039Y160724
X191039Y160724
X201039Y160724
X211039Y160724
X221039Y160724
X231039Y160724
X241039Y160724
X251039Y160724
X251039Y210724
X241039Y210724
X231039Y210724
X221039Y210724
X211039Y210724
X201039Y210724
X191039Y210724
X181039Y210724
X144740Y210724
X134740Y210724
X124740Y210724
X114740Y210724
X104740Y210724
X94740Y210724
X84740Y210724
X74740Y210724
T05
X59071Y33480
X59071Y15764
X84661Y15764
X84661Y33480
T06
X19622Y70488
X29622Y70488
X29622Y80488
X19622Y80488
X19622Y90488
X29622Y90488
X29622Y100488
X19622Y100488
X19622Y110488
X29622Y110488
X29622Y120488
X19622Y120488
X16039Y142063
X16039Y152063
X16039Y162063
X16039Y172063
X13559Y241906
X23559Y241906
X33559Y241906
X43559Y241906
X190724Y241906
X200724Y241906
X210724Y241906
X220724Y241906
X270528Y241906
X280528Y241906
X290528Y241906
X304150Y222063
X304150Y212063
X304150Y202063
X304150Y192063
X304150Y182063
X304150Y172063
X304150Y162063
X304150Y152063
X304150Y142063
X304150Y132063
X304150Y122063
X304150Y112063
X304150Y102063
X304150Y92063
X274780Y71866
X264780Y71866
T07
X269898Y24380
X286209Y39089
T08
X257387Y39189
M30
