G75*
%MOIN*%
%OFA0B0*%
%FSLAX25Y25*%
%IPPOS*%
%LPD*%
%AMOC8*
5,1,8,0,0,1.08239X$1,22.5*
%
%ADD10C,0.00000*%
%ADD11C,0.01500*%
%ADD12C,0.00800*%
%ADD13C,0.01000*%
%ADD14C,0.00500*%
D10*
X0001000Y0004937D02*
X0001000Y0256906D01*
X0004937Y0260843D01*
X0315961Y0260843D01*
X0320409Y0256906D01*
X0320409Y0004937D01*
X0315961Y0001000D01*
X0004937Y0001000D01*
X0001000Y0004937D01*
D11*
X0111405Y0035399D02*
X0112823Y0033982D01*
X0115659Y0033982D01*
X0117077Y0035399D01*
X0111405Y0041071D01*
X0111405Y0035399D01*
X0117077Y0035399D02*
X0117077Y0041071D01*
X0115659Y0042489D01*
X0112823Y0042489D01*
X0111405Y0041071D01*
X0120263Y0035399D02*
X0120263Y0033982D01*
X0121680Y0033982D01*
X0121680Y0035399D01*
X0120263Y0035399D01*
X0125217Y0035399D02*
X0126635Y0033982D01*
X0129470Y0033982D01*
X0130888Y0035399D01*
X0128053Y0038235D02*
X0126635Y0038235D01*
X0125217Y0036817D01*
X0125217Y0035399D01*
X0126635Y0038235D02*
X0125217Y0039653D01*
X0125217Y0041071D01*
X0126635Y0042489D01*
X0129470Y0042489D01*
X0130888Y0041071D01*
X0134425Y0039653D02*
X0137260Y0033982D01*
X0140096Y0039653D01*
X0152840Y0039653D02*
X0157094Y0039653D01*
X0158512Y0038235D01*
X0158512Y0035399D01*
X0157094Y0033982D01*
X0152840Y0033982D01*
X0152840Y0042489D01*
X0163233Y0042489D02*
X0163233Y0033982D01*
X0164650Y0033982D02*
X0161815Y0033982D01*
X0168187Y0036817D02*
X0168187Y0038235D01*
X0169605Y0039653D01*
X0172440Y0039653D01*
X0173858Y0038235D01*
X0173858Y0035399D01*
X0172440Y0033982D01*
X0169605Y0033982D01*
X0168187Y0036817D02*
X0173858Y0036817D01*
X0177161Y0033982D02*
X0179997Y0033982D01*
X0178579Y0033982D02*
X0178579Y0039653D01*
X0179997Y0039653D01*
X0178579Y0042489D02*
X0178579Y0043907D01*
X0183533Y0038235D02*
X0183533Y0033982D01*
X0189205Y0033982D02*
X0189205Y0042489D01*
X0187787Y0039653D02*
X0184951Y0039653D01*
X0183533Y0038235D01*
X0187787Y0039653D02*
X0189205Y0038235D01*
X0192741Y0039653D02*
X0196995Y0039653D01*
X0198413Y0038235D01*
X0196995Y0036817D01*
X0194159Y0036817D01*
X0192741Y0035399D01*
X0194159Y0033982D01*
X0198413Y0033982D01*
X0201832Y0039653D02*
X0203250Y0039653D01*
X0206086Y0036817D01*
X0206086Y0033982D02*
X0206086Y0039653D01*
X0209622Y0038235D02*
X0209622Y0033982D01*
X0213876Y0033982D01*
X0215294Y0035399D01*
X0213876Y0036817D01*
X0209622Y0036817D01*
X0209622Y0038235D02*
X0211040Y0039653D01*
X0213876Y0039653D01*
X0220014Y0042489D02*
X0220014Y0033982D01*
X0218597Y0033982D02*
X0221432Y0033982D01*
X0224969Y0035399D02*
X0224969Y0038235D01*
X0226387Y0039653D01*
X0229222Y0039653D01*
X0230640Y0038235D01*
X0230640Y0035399D01*
X0229222Y0033982D01*
X0226387Y0033982D01*
X0224969Y0035399D01*
X0221432Y0042489D02*
X0220014Y0042489D01*
X0234177Y0041071D02*
X0234177Y0038235D01*
X0235594Y0036817D01*
X0239848Y0036817D01*
X0239848Y0033982D02*
X0239848Y0042489D01*
X0235594Y0042489D01*
X0234177Y0041071D01*
X0253798Y0068916D02*
X0253798Y0074587D01*
X0250963Y0071752D02*
X0256634Y0071752D01*
X0164650Y0042489D02*
X0163233Y0042489D01*
D12*
X0243871Y0101226D02*
X0243871Y0102628D01*
X0245273Y0104029D01*
X0247074Y0103328D02*
X0247775Y0104029D01*
X0249176Y0104029D01*
X0249877Y0103328D01*
X0249877Y0100526D01*
X0249176Y0099825D01*
X0247775Y0099825D01*
X0247074Y0100526D01*
X0247074Y0103328D01*
X0243871Y0101226D02*
X0245273Y0099825D01*
X0251678Y0100526D02*
X0252379Y0099825D01*
X0253780Y0099825D01*
X0254480Y0100526D01*
X0253780Y0101927D02*
X0254480Y0102628D01*
X0254480Y0103328D01*
X0253780Y0104029D01*
X0252379Y0104029D01*
X0251678Y0103328D01*
X0252379Y0101927D02*
X0251678Y0101226D01*
X0251678Y0100526D01*
X0252379Y0101927D02*
X0253780Y0101927D01*
X0256149Y0104029D02*
X0257550Y0104029D01*
X0256849Y0104029D02*
X0256849Y0099825D01*
X0256149Y0099825D02*
X0257550Y0099825D01*
X0259351Y0099825D02*
X0259351Y0104029D01*
X0260752Y0102628D01*
X0262154Y0104029D01*
X0262154Y0099825D01*
X0263822Y0099825D02*
X0265223Y0101226D01*
X0265223Y0102628D01*
X0263822Y0104029D01*
X0271628Y0104029D02*
X0274431Y0104029D01*
X0273030Y0104029D02*
X0273030Y0099825D01*
X0276232Y0100526D02*
X0276232Y0104029D01*
X0279035Y0104029D02*
X0279035Y0100526D01*
X0278334Y0099825D01*
X0276933Y0099825D01*
X0276232Y0100526D01*
X0280836Y0100526D02*
X0280836Y0103328D01*
X0281537Y0104029D01*
X0282938Y0104029D01*
X0283639Y0103328D01*
X0283639Y0100526D01*
X0282938Y0099825D01*
X0281537Y0099825D01*
X0280836Y0100526D01*
X0285440Y0100526D02*
X0285440Y0103328D01*
X0286141Y0104029D01*
X0288243Y0104029D01*
X0288243Y0099825D01*
X0286141Y0099825D01*
X0285440Y0100526D01*
X0290044Y0099125D02*
X0292846Y0099125D01*
X0296049Y0099825D02*
X0296049Y0104029D01*
X0297450Y0104029D02*
X0294648Y0104029D01*
X0294648Y0094186D02*
X0297450Y0094186D01*
X0296049Y0094186D02*
X0296049Y0089983D01*
X0292846Y0089282D02*
X0290044Y0089282D01*
X0288243Y0089983D02*
X0286841Y0089983D01*
X0287542Y0089983D02*
X0287542Y0094186D01*
X0288243Y0094186D02*
X0286841Y0094186D01*
X0285173Y0094186D02*
X0285173Y0089983D01*
X0285173Y0091384D02*
X0283071Y0091384D01*
X0282371Y0092084D01*
X0282371Y0093486D01*
X0283071Y0094186D01*
X0285173Y0094186D01*
X0283772Y0091384D02*
X0282371Y0089983D01*
X0280569Y0090683D02*
X0279869Y0089983D01*
X0278468Y0089983D01*
X0277767Y0090683D01*
X0277767Y0093486D01*
X0278468Y0094186D01*
X0279869Y0094186D01*
X0280569Y0093486D01*
X0280569Y0090683D01*
X0279168Y0091384D02*
X0277767Y0089983D01*
X0290438Y0113849D02*
X0293240Y0113849D01*
X0296443Y0114550D02*
X0296443Y0118753D01*
X0297844Y0118753D02*
X0295042Y0118753D01*
X0296049Y0121794D02*
X0296049Y0125997D01*
X0297450Y0125997D02*
X0294648Y0125997D01*
X0292846Y0129125D02*
X0290044Y0129125D01*
X0288243Y0130526D02*
X0287542Y0129825D01*
X0286141Y0129825D01*
X0285440Y0130526D01*
X0283639Y0129825D02*
X0280836Y0129825D01*
X0279035Y0129825D02*
X0279035Y0134029D01*
X0278334Y0131927D02*
X0276232Y0129825D01*
X0279035Y0131226D02*
X0276232Y0134029D01*
X0275965Y0139825D02*
X0275965Y0144029D01*
X0274564Y0142628D01*
X0273163Y0144029D01*
X0273163Y0139825D01*
X0271361Y0139825D02*
X0269960Y0139825D01*
X0270661Y0139825D02*
X0270661Y0144029D01*
X0271361Y0144029D02*
X0269960Y0144029D01*
X0268292Y0143328D02*
X0268292Y0142628D01*
X0267592Y0141927D01*
X0266190Y0141927D01*
X0265490Y0141226D01*
X0265490Y0140526D01*
X0266190Y0139825D01*
X0267592Y0139825D01*
X0268292Y0140526D01*
X0268292Y0143328D02*
X0267592Y0144029D01*
X0266190Y0144029D01*
X0265490Y0143328D01*
X0263688Y0143328D02*
X0263688Y0140526D01*
X0262988Y0139825D01*
X0261586Y0139825D01*
X0260886Y0140526D01*
X0260886Y0143328D01*
X0261586Y0144029D01*
X0262988Y0144029D01*
X0263688Y0143328D01*
X0259084Y0144029D02*
X0257683Y0142628D01*
X0257683Y0141226D01*
X0259084Y0139825D01*
X0260052Y0134029D02*
X0261453Y0134029D01*
X0262154Y0133328D01*
X0262154Y0130526D01*
X0261453Y0129825D01*
X0260052Y0129825D01*
X0259351Y0130526D01*
X0257550Y0131226D02*
X0254747Y0134029D01*
X0252946Y0134029D02*
X0251545Y0132628D01*
X0251545Y0131226D01*
X0252946Y0129825D01*
X0254747Y0129825D02*
X0256849Y0131927D01*
X0257550Y0134029D02*
X0257550Y0129825D01*
X0259351Y0133328D02*
X0260052Y0134029D01*
X0263955Y0133328D02*
X0264656Y0134029D01*
X0266057Y0134029D01*
X0266758Y0133328D01*
X0266758Y0132628D01*
X0266057Y0131927D01*
X0264656Y0131927D01*
X0263955Y0131226D01*
X0263955Y0130526D01*
X0264656Y0129825D01*
X0266057Y0129825D01*
X0266758Y0130526D01*
X0268426Y0129825D02*
X0269827Y0131226D01*
X0269827Y0132628D01*
X0268426Y0134029D01*
X0277634Y0139825D02*
X0279035Y0141226D01*
X0279035Y0142628D01*
X0277634Y0144029D01*
X0285440Y0143328D02*
X0285440Y0140526D01*
X0286141Y0139825D01*
X0287542Y0139825D01*
X0288243Y0140526D01*
X0288243Y0143328D01*
X0287542Y0144029D01*
X0286141Y0144029D01*
X0285440Y0143328D01*
X0290044Y0143328D02*
X0290044Y0140526D01*
X0290745Y0139825D01*
X0292846Y0139825D01*
X0292846Y0144029D01*
X0290745Y0144029D01*
X0290044Y0143328D01*
X0294648Y0143328D02*
X0295349Y0144029D01*
X0296750Y0144029D01*
X0297450Y0143328D01*
X0297450Y0142628D01*
X0296750Y0141927D01*
X0295349Y0141927D01*
X0294648Y0141226D01*
X0294648Y0140526D01*
X0295349Y0139825D01*
X0296750Y0139825D01*
X0297450Y0140526D01*
X0297450Y0134029D02*
X0294648Y0134029D01*
X0296049Y0134029D02*
X0296049Y0129825D01*
X0292846Y0121093D02*
X0290044Y0121093D01*
X0288243Y0122494D02*
X0288243Y0125297D01*
X0287542Y0125997D01*
X0286141Y0125997D01*
X0285440Y0125297D01*
X0283639Y0125297D02*
X0283639Y0124596D01*
X0282938Y0123895D01*
X0281537Y0123895D01*
X0280836Y0123195D01*
X0280836Y0122494D01*
X0281537Y0121794D01*
X0282938Y0121794D01*
X0283639Y0122494D01*
X0285440Y0122494D02*
X0286141Y0121794D01*
X0287542Y0121794D01*
X0288243Y0122494D01*
X0288636Y0118753D02*
X0286534Y0118753D01*
X0285834Y0118053D01*
X0285834Y0115250D01*
X0286534Y0114550D01*
X0288636Y0114550D01*
X0288636Y0118753D01*
X0284032Y0118753D02*
X0282631Y0118753D01*
X0283332Y0118753D02*
X0283332Y0114550D01*
X0284032Y0114550D02*
X0282631Y0114550D01*
X0280963Y0114550D02*
X0280963Y0118753D01*
X0278161Y0114550D01*
X0278161Y0118753D01*
X0271755Y0117352D02*
X0270354Y0118753D01*
X0268686Y0118753D02*
X0267285Y0117352D01*
X0265884Y0118753D01*
X0265884Y0114550D01*
X0264082Y0115250D02*
X0263381Y0114550D01*
X0261980Y0114550D01*
X0261280Y0115250D01*
X0261280Y0118053D01*
X0261980Y0118753D01*
X0263381Y0118753D01*
X0264082Y0118053D01*
X0264082Y0115250D01*
X0268686Y0114550D02*
X0268686Y0118753D01*
X0271755Y0117352D02*
X0271755Y0115951D01*
X0270354Y0114550D01*
X0280836Y0125297D02*
X0281537Y0125997D01*
X0282938Y0125997D01*
X0283639Y0125297D01*
X0283639Y0129825D02*
X0283639Y0134029D01*
X0285440Y0133328D02*
X0286141Y0134029D01*
X0287542Y0134029D01*
X0288243Y0133328D01*
X0288243Y0130526D01*
X0288243Y0149825D02*
X0286141Y0149825D01*
X0285440Y0150526D01*
X0285440Y0153328D01*
X0286141Y0154029D01*
X0288243Y0154029D01*
X0288243Y0149825D01*
X0290044Y0149825D02*
X0292846Y0149825D01*
X0292846Y0154029D01*
X0290044Y0154029D01*
X0291445Y0151927D02*
X0292846Y0151927D01*
X0294648Y0149825D02*
X0297450Y0149825D01*
X0297450Y0154029D01*
X0296750Y0159825D02*
X0295349Y0159825D01*
X0294648Y0160526D01*
X0294648Y0161226D01*
X0295349Y0161927D01*
X0296750Y0161927D01*
X0297450Y0162628D01*
X0297450Y0163328D01*
X0296750Y0164029D01*
X0295349Y0164029D01*
X0294648Y0163328D01*
X0292846Y0163328D02*
X0292846Y0160526D01*
X0292146Y0159825D01*
X0290745Y0159825D01*
X0290044Y0160526D01*
X0288243Y0161226D02*
X0285440Y0164029D01*
X0288243Y0164029D02*
X0288243Y0159825D01*
X0287542Y0161927D02*
X0285440Y0159825D01*
X0290044Y0163328D02*
X0290745Y0164029D01*
X0292146Y0164029D01*
X0292846Y0163328D01*
X0296750Y0159825D02*
X0297450Y0160526D01*
X0296750Y0169825D02*
X0295349Y0169825D01*
X0294648Y0170526D01*
X0294648Y0171226D01*
X0295349Y0171927D01*
X0296750Y0171927D01*
X0297450Y0172628D01*
X0297450Y0173328D01*
X0296750Y0174029D01*
X0295349Y0174029D01*
X0294648Y0173328D01*
X0292846Y0174029D02*
X0290745Y0174029D01*
X0290044Y0173328D01*
X0290044Y0170526D01*
X0290745Y0169825D01*
X0292846Y0169825D01*
X0292846Y0174029D01*
X0296750Y0169825D02*
X0297450Y0170526D01*
X0288243Y0169825D02*
X0286841Y0169825D01*
X0287542Y0169825D02*
X0287542Y0174029D01*
X0288243Y0174029D02*
X0286841Y0174029D01*
X0286141Y0179825D02*
X0285440Y0180526D01*
X0286141Y0179825D02*
X0287542Y0179825D01*
X0288243Y0180526D01*
X0288243Y0183328D01*
X0287542Y0184029D01*
X0286141Y0184029D01*
X0285440Y0183328D01*
X0290044Y0184029D02*
X0292846Y0179825D01*
X0294648Y0180526D02*
X0294648Y0183328D01*
X0295349Y0184029D01*
X0297450Y0184029D01*
X0297450Y0179825D01*
X0295349Y0179825D01*
X0294648Y0180526D01*
X0294648Y0189825D02*
X0296049Y0191226D01*
X0295349Y0191226D02*
X0297450Y0191226D01*
X0297450Y0189825D02*
X0297450Y0194029D01*
X0295349Y0194029D01*
X0294648Y0193328D01*
X0294648Y0191927D01*
X0295349Y0191226D01*
X0292846Y0191927D02*
X0291445Y0191927D01*
X0290044Y0194029D02*
X0292846Y0194029D01*
X0292846Y0189825D01*
X0290044Y0189825D01*
X0288243Y0190526D02*
X0287542Y0189825D01*
X0286141Y0189825D01*
X0285440Y0190526D01*
X0285440Y0191226D01*
X0286141Y0191927D01*
X0287542Y0191927D01*
X0288243Y0192628D01*
X0288243Y0193328D01*
X0287542Y0194029D01*
X0286141Y0194029D01*
X0285440Y0193328D01*
X0283639Y0194029D02*
X0283639Y0189825D01*
X0280836Y0189825D01*
X0282237Y0191927D02*
X0283639Y0191927D01*
X0283639Y0194029D02*
X0280836Y0194029D01*
X0279035Y0194029D02*
X0276232Y0194029D01*
X0277634Y0194029D02*
X0277634Y0189825D01*
X0267450Y0184029D02*
X0264648Y0184029D01*
X0266049Y0184029D02*
X0266049Y0179825D01*
X0262846Y0179125D02*
X0260044Y0179125D01*
X0258243Y0179825D02*
X0256841Y0179825D01*
X0257542Y0179825D02*
X0257542Y0184029D01*
X0258243Y0184029D02*
X0256841Y0184029D01*
X0255173Y0184029D02*
X0253071Y0184029D01*
X0252371Y0183328D01*
X0252371Y0181927D01*
X0253071Y0181226D01*
X0255173Y0181226D01*
X0255173Y0179825D02*
X0255173Y0184029D01*
X0253772Y0181226D02*
X0252371Y0179825D01*
X0250569Y0180526D02*
X0250569Y0183328D01*
X0249869Y0184029D01*
X0248468Y0184029D01*
X0247767Y0183328D01*
X0247767Y0180526D01*
X0248468Y0179825D01*
X0249869Y0179825D01*
X0250569Y0180526D01*
X0249168Y0181226D02*
X0247767Y0179825D01*
X0259218Y0172628D02*
X0260619Y0174029D01*
X0262287Y0174029D02*
X0263688Y0174029D01*
X0262988Y0174029D02*
X0262988Y0169825D01*
X0263688Y0169825D02*
X0262287Y0169825D01*
X0260619Y0169825D02*
X0259218Y0171226D01*
X0259218Y0172628D01*
X0265490Y0173328D02*
X0266190Y0174029D01*
X0267592Y0174029D01*
X0268292Y0173328D01*
X0268292Y0172628D01*
X0267592Y0171927D01*
X0266190Y0171927D01*
X0265490Y0171226D01*
X0265490Y0170526D01*
X0266190Y0169825D01*
X0267592Y0169825D01*
X0268292Y0170526D01*
X0270094Y0170526D02*
X0270794Y0169825D01*
X0272196Y0169825D01*
X0272896Y0170526D01*
X0272896Y0173328D01*
X0272196Y0174029D01*
X0270794Y0174029D01*
X0270094Y0173328D01*
X0270094Y0170526D01*
X0274698Y0169825D02*
X0274698Y0174029D01*
X0276099Y0172628D01*
X0277500Y0174029D01*
X0277500Y0169825D01*
X0279168Y0169825D02*
X0280569Y0171226D01*
X0280569Y0172628D01*
X0279168Y0174029D01*
X0290745Y0199825D02*
X0292146Y0199825D01*
X0292846Y0200526D01*
X0292146Y0201927D02*
X0290745Y0201927D01*
X0290044Y0201226D01*
X0290044Y0200526D01*
X0290745Y0199825D01*
X0292146Y0201927D02*
X0292846Y0202628D01*
X0292846Y0203328D01*
X0292146Y0204029D01*
X0290745Y0204029D01*
X0290044Y0203328D01*
X0294648Y0203328D02*
X0295349Y0204029D01*
X0296750Y0204029D01*
X0297450Y0203328D01*
X0297450Y0200526D01*
X0296750Y0199825D01*
X0295349Y0199825D01*
X0294648Y0200526D01*
X0295349Y0209825D02*
X0294648Y0210526D01*
X0294648Y0211927D01*
X0296049Y0211927D01*
X0294648Y0213328D02*
X0295349Y0214029D01*
X0296750Y0214029D01*
X0297450Y0213328D01*
X0297450Y0210526D01*
X0296750Y0209825D01*
X0295349Y0209825D01*
X0292846Y0209825D02*
X0292846Y0214029D01*
X0290044Y0209825D01*
X0290044Y0214029D01*
X0288243Y0214029D02*
X0286141Y0214029D01*
X0285440Y0213328D01*
X0285440Y0210526D01*
X0286141Y0209825D01*
X0288243Y0209825D01*
X0288243Y0214029D01*
X0287542Y0219825D02*
X0286141Y0219825D01*
X0285440Y0220526D01*
X0287542Y0219825D02*
X0288243Y0220526D01*
X0288243Y0223328D01*
X0287542Y0224029D01*
X0286141Y0224029D01*
X0285440Y0223328D01*
X0290044Y0223328D02*
X0290745Y0224029D01*
X0292146Y0224029D01*
X0292846Y0223328D01*
X0292846Y0220526D01*
X0292146Y0219825D01*
X0290745Y0219825D01*
X0290044Y0220526D01*
X0294648Y0221226D02*
X0294648Y0224029D01*
X0297450Y0224029D02*
X0297450Y0221226D01*
X0296049Y0219825D01*
X0294648Y0221226D01*
X0213598Y0173441D02*
X0213598Y0167142D01*
X0213599Y0167142D02*
X0213585Y0167083D01*
X0213568Y0167025D01*
X0213547Y0166968D01*
X0213523Y0166912D01*
X0213495Y0166858D01*
X0213465Y0166806D01*
X0213431Y0166755D01*
X0213394Y0166707D01*
X0213355Y0166661D01*
X0213312Y0166618D01*
X0213268Y0166577D01*
X0213220Y0166539D01*
X0213171Y0166504D01*
X0213119Y0166472D01*
X0213066Y0166443D01*
X0213011Y0166417D01*
X0212955Y0166395D01*
X0212897Y0166376D01*
X0212838Y0166360D01*
X0212779Y0166349D01*
X0212719Y0166340D01*
X0212658Y0166336D01*
X0212598Y0166335D01*
X0212537Y0166338D01*
X0212477Y0166344D01*
X0212417Y0166354D01*
X0206906Y0166354D02*
X0206844Y0166344D01*
X0206781Y0166338D01*
X0206718Y0166335D01*
X0206655Y0166336D01*
X0206592Y0166342D01*
X0206530Y0166351D01*
X0206468Y0166364D01*
X0206407Y0166381D01*
X0206348Y0166402D01*
X0206290Y0166427D01*
X0206233Y0166455D01*
X0206179Y0166487D01*
X0206126Y0166522D01*
X0206076Y0166560D01*
X0206028Y0166601D01*
X0205983Y0166645D01*
X0205941Y0166692D01*
X0205902Y0166742D01*
X0205866Y0166794D01*
X0205834Y0166848D01*
X0205804Y0166903D01*
X0205779Y0166961D01*
X0205757Y0167020D01*
X0205739Y0167081D01*
X0205724Y0167142D01*
X0205724Y0173441D01*
X0205739Y0173502D01*
X0205757Y0173563D01*
X0205779Y0173622D01*
X0205804Y0173680D01*
X0205834Y0173735D01*
X0205866Y0173789D01*
X0205902Y0173841D01*
X0205941Y0173891D01*
X0205983Y0173938D01*
X0206028Y0173982D01*
X0206076Y0174023D01*
X0206126Y0174061D01*
X0206179Y0174096D01*
X0206233Y0174128D01*
X0206290Y0174156D01*
X0206348Y0174181D01*
X0206407Y0174202D01*
X0206468Y0174219D01*
X0206530Y0174232D01*
X0206592Y0174241D01*
X0206655Y0174247D01*
X0206718Y0174248D01*
X0206781Y0174245D01*
X0206844Y0174239D01*
X0206906Y0174229D01*
X0201850Y0173541D02*
X0201850Y0167041D01*
X0201848Y0166981D01*
X0201843Y0166920D01*
X0201834Y0166861D01*
X0201821Y0166802D01*
X0201805Y0166743D01*
X0201785Y0166686D01*
X0201762Y0166631D01*
X0201735Y0166576D01*
X0201706Y0166524D01*
X0201673Y0166473D01*
X0201637Y0166424D01*
X0201599Y0166378D01*
X0201557Y0166334D01*
X0201513Y0166292D01*
X0201467Y0166254D01*
X0201418Y0166218D01*
X0201367Y0166185D01*
X0201315Y0166156D01*
X0201260Y0166129D01*
X0201205Y0166106D01*
X0201148Y0166086D01*
X0201089Y0166070D01*
X0201030Y0166057D01*
X0200971Y0166048D01*
X0200910Y0166043D01*
X0200850Y0166041D01*
X0194850Y0166041D02*
X0194790Y0166043D01*
X0194729Y0166048D01*
X0194670Y0166057D01*
X0194611Y0166070D01*
X0194552Y0166086D01*
X0194495Y0166106D01*
X0194440Y0166129D01*
X0194385Y0166156D01*
X0194333Y0166185D01*
X0194282Y0166218D01*
X0194233Y0166254D01*
X0194187Y0166292D01*
X0194143Y0166334D01*
X0194101Y0166378D01*
X0194063Y0166424D01*
X0194027Y0166473D01*
X0193994Y0166524D01*
X0193965Y0166576D01*
X0193938Y0166631D01*
X0193915Y0166686D01*
X0193895Y0166743D01*
X0193879Y0166802D01*
X0193866Y0166861D01*
X0193857Y0166920D01*
X0193852Y0166981D01*
X0193850Y0167041D01*
X0193850Y0173541D01*
X0193852Y0173601D01*
X0193857Y0173662D01*
X0193866Y0173721D01*
X0193879Y0173780D01*
X0193895Y0173839D01*
X0193915Y0173896D01*
X0193938Y0173951D01*
X0193965Y0174006D01*
X0193994Y0174058D01*
X0194027Y0174109D01*
X0194063Y0174158D01*
X0194101Y0174204D01*
X0194143Y0174248D01*
X0194187Y0174290D01*
X0194233Y0174328D01*
X0194282Y0174364D01*
X0194333Y0174397D01*
X0194385Y0174426D01*
X0194440Y0174453D01*
X0194495Y0174476D01*
X0194552Y0174496D01*
X0194611Y0174512D01*
X0194670Y0174525D01*
X0194729Y0174534D01*
X0194790Y0174539D01*
X0194850Y0174541D01*
X0190039Y0173541D02*
X0190039Y0167041D01*
X0190037Y0166981D01*
X0190032Y0166920D01*
X0190023Y0166861D01*
X0190010Y0166802D01*
X0189994Y0166743D01*
X0189974Y0166686D01*
X0189951Y0166631D01*
X0189924Y0166576D01*
X0189895Y0166524D01*
X0189862Y0166473D01*
X0189826Y0166424D01*
X0189788Y0166378D01*
X0189746Y0166334D01*
X0189702Y0166292D01*
X0189656Y0166254D01*
X0189607Y0166218D01*
X0189556Y0166185D01*
X0189504Y0166156D01*
X0189449Y0166129D01*
X0189394Y0166106D01*
X0189337Y0166086D01*
X0189278Y0166070D01*
X0189219Y0166057D01*
X0189160Y0166048D01*
X0189099Y0166043D01*
X0189039Y0166041D01*
X0183039Y0166041D02*
X0182979Y0166043D01*
X0182918Y0166048D01*
X0182859Y0166057D01*
X0182800Y0166070D01*
X0182741Y0166086D01*
X0182684Y0166106D01*
X0182629Y0166129D01*
X0182574Y0166156D01*
X0182522Y0166185D01*
X0182471Y0166218D01*
X0182422Y0166254D01*
X0182376Y0166292D01*
X0182332Y0166334D01*
X0182290Y0166378D01*
X0182252Y0166424D01*
X0182216Y0166473D01*
X0182183Y0166524D01*
X0182154Y0166576D01*
X0182127Y0166631D01*
X0182104Y0166686D01*
X0182084Y0166743D01*
X0182068Y0166802D01*
X0182055Y0166861D01*
X0182046Y0166920D01*
X0182041Y0166981D01*
X0182039Y0167041D01*
X0182039Y0173541D01*
X0182041Y0173601D01*
X0182046Y0173662D01*
X0182055Y0173721D01*
X0182068Y0173780D01*
X0182084Y0173839D01*
X0182104Y0173896D01*
X0182127Y0173951D01*
X0182154Y0174006D01*
X0182183Y0174058D01*
X0182216Y0174109D01*
X0182252Y0174158D01*
X0182290Y0174204D01*
X0182332Y0174248D01*
X0182376Y0174290D01*
X0182422Y0174328D01*
X0182471Y0174364D01*
X0182522Y0174397D01*
X0182574Y0174426D01*
X0182629Y0174453D01*
X0182684Y0174476D01*
X0182741Y0174496D01*
X0182800Y0174512D01*
X0182859Y0174525D01*
X0182918Y0174534D01*
X0182979Y0174539D01*
X0183039Y0174541D01*
X0189039Y0174541D02*
X0189099Y0174539D01*
X0189160Y0174534D01*
X0189219Y0174525D01*
X0189278Y0174512D01*
X0189337Y0174496D01*
X0189394Y0174476D01*
X0189449Y0174453D01*
X0189504Y0174426D01*
X0189556Y0174397D01*
X0189607Y0174364D01*
X0189656Y0174328D01*
X0189702Y0174290D01*
X0189746Y0174248D01*
X0189788Y0174204D01*
X0189826Y0174158D01*
X0189862Y0174109D01*
X0189895Y0174058D01*
X0189924Y0174006D01*
X0189951Y0173951D01*
X0189974Y0173896D01*
X0189994Y0173839D01*
X0190010Y0173780D01*
X0190023Y0173721D01*
X0190032Y0173662D01*
X0190037Y0173601D01*
X0190039Y0173541D01*
X0200850Y0174541D02*
X0200910Y0174539D01*
X0200971Y0174534D01*
X0201030Y0174525D01*
X0201089Y0174512D01*
X0201148Y0174496D01*
X0201205Y0174476D01*
X0201260Y0174453D01*
X0201315Y0174426D01*
X0201367Y0174397D01*
X0201418Y0174364D01*
X0201467Y0174328D01*
X0201513Y0174290D01*
X0201557Y0174248D01*
X0201599Y0174204D01*
X0201637Y0174158D01*
X0201673Y0174109D01*
X0201706Y0174058D01*
X0201735Y0174006D01*
X0201762Y0173951D01*
X0201785Y0173896D01*
X0201805Y0173839D01*
X0201821Y0173780D01*
X0201834Y0173721D01*
X0201843Y0173662D01*
X0201848Y0173601D01*
X0201850Y0173541D01*
X0212417Y0174229D02*
X0212477Y0174239D01*
X0212537Y0174245D01*
X0212598Y0174248D01*
X0212658Y0174247D01*
X0212719Y0174243D01*
X0212779Y0174234D01*
X0212838Y0174223D01*
X0212897Y0174207D01*
X0212955Y0174188D01*
X0213011Y0174166D01*
X0213066Y0174140D01*
X0213119Y0174111D01*
X0213171Y0174079D01*
X0213220Y0174044D01*
X0213268Y0174006D01*
X0213312Y0173965D01*
X0213355Y0173922D01*
X0213394Y0173876D01*
X0213431Y0173828D01*
X0213465Y0173777D01*
X0213495Y0173725D01*
X0213523Y0173671D01*
X0213547Y0173615D01*
X0213568Y0173558D01*
X0213585Y0173500D01*
X0213599Y0173441D01*
X0251805Y0118753D02*
X0250404Y0117352D01*
X0250404Y0115951D01*
X0251805Y0114550D01*
X0253473Y0114550D02*
X0254874Y0114550D01*
X0254174Y0114550D02*
X0254174Y0118753D01*
X0254874Y0118753D02*
X0253473Y0118753D01*
X0256676Y0118053D02*
X0257376Y0118753D01*
X0258777Y0118753D01*
X0259478Y0118053D01*
X0259478Y0117352D01*
X0258777Y0116651D01*
X0257376Y0116651D01*
X0256676Y0115951D01*
X0256676Y0115250D01*
X0257376Y0114550D01*
X0258777Y0114550D01*
X0259478Y0115250D01*
X0255887Y0056306D02*
X0255887Y0048638D01*
X0255887Y0056306D02*
X0299213Y0056306D01*
X0299213Y0022072D01*
X0279346Y0022072D01*
X0260843Y0022072D02*
X0255887Y0022072D01*
X0255887Y0029740D01*
X0079740Y0167142D02*
X0079740Y0173441D01*
X0079741Y0173441D02*
X0079727Y0173500D01*
X0079710Y0173558D01*
X0079689Y0173615D01*
X0079665Y0173671D01*
X0079637Y0173725D01*
X0079607Y0173777D01*
X0079573Y0173828D01*
X0079536Y0173876D01*
X0079497Y0173922D01*
X0079454Y0173965D01*
X0079410Y0174006D01*
X0079362Y0174044D01*
X0079313Y0174079D01*
X0079261Y0174111D01*
X0079208Y0174140D01*
X0079153Y0174166D01*
X0079097Y0174188D01*
X0079039Y0174207D01*
X0078980Y0174223D01*
X0078921Y0174234D01*
X0078861Y0174243D01*
X0078800Y0174247D01*
X0078740Y0174248D01*
X0078679Y0174245D01*
X0078619Y0174239D01*
X0078559Y0174229D01*
X0073047Y0174229D02*
X0072985Y0174239D01*
X0072922Y0174245D01*
X0072859Y0174248D01*
X0072796Y0174247D01*
X0072733Y0174241D01*
X0072671Y0174232D01*
X0072609Y0174219D01*
X0072548Y0174202D01*
X0072489Y0174181D01*
X0072431Y0174156D01*
X0072374Y0174128D01*
X0072320Y0174096D01*
X0072267Y0174061D01*
X0072217Y0174023D01*
X0072169Y0173982D01*
X0072124Y0173938D01*
X0072082Y0173891D01*
X0072043Y0173841D01*
X0072007Y0173789D01*
X0071975Y0173735D01*
X0071945Y0173680D01*
X0071920Y0173622D01*
X0071898Y0173563D01*
X0071880Y0173502D01*
X0071865Y0173441D01*
X0071866Y0173441D02*
X0071866Y0167142D01*
X0071865Y0167142D02*
X0071880Y0167081D01*
X0071898Y0167020D01*
X0071920Y0166961D01*
X0071945Y0166903D01*
X0071975Y0166848D01*
X0072007Y0166794D01*
X0072043Y0166742D01*
X0072082Y0166692D01*
X0072124Y0166645D01*
X0072169Y0166601D01*
X0072217Y0166560D01*
X0072267Y0166522D01*
X0072320Y0166487D01*
X0072374Y0166455D01*
X0072431Y0166427D01*
X0072489Y0166402D01*
X0072548Y0166381D01*
X0072609Y0166364D01*
X0072671Y0166351D01*
X0072733Y0166342D01*
X0072796Y0166336D01*
X0072859Y0166335D01*
X0072922Y0166338D01*
X0072985Y0166344D01*
X0073047Y0166354D01*
X0067992Y0167041D02*
X0067992Y0173541D01*
X0067990Y0173601D01*
X0067985Y0173662D01*
X0067976Y0173721D01*
X0067963Y0173780D01*
X0067947Y0173839D01*
X0067927Y0173896D01*
X0067904Y0173951D01*
X0067877Y0174006D01*
X0067848Y0174058D01*
X0067815Y0174109D01*
X0067779Y0174158D01*
X0067741Y0174204D01*
X0067699Y0174248D01*
X0067655Y0174290D01*
X0067609Y0174328D01*
X0067560Y0174364D01*
X0067509Y0174397D01*
X0067457Y0174426D01*
X0067402Y0174453D01*
X0067347Y0174476D01*
X0067290Y0174496D01*
X0067231Y0174512D01*
X0067172Y0174525D01*
X0067113Y0174534D01*
X0067052Y0174539D01*
X0066992Y0174541D01*
X0065096Y0176754D02*
X0063695Y0176754D01*
X0062994Y0177455D01*
X0062994Y0178156D01*
X0063695Y0178856D01*
X0065096Y0178856D01*
X0065797Y0179557D01*
X0065797Y0180257D01*
X0065096Y0180958D01*
X0063695Y0180958D01*
X0062994Y0180257D01*
X0061193Y0180958D02*
X0059091Y0180958D01*
X0058391Y0180257D01*
X0058391Y0177455D01*
X0059091Y0176754D01*
X0061193Y0176754D01*
X0061193Y0180958D01*
X0065096Y0176754D02*
X0065797Y0177455D01*
X0060992Y0174541D02*
X0060932Y0174539D01*
X0060871Y0174534D01*
X0060812Y0174525D01*
X0060753Y0174512D01*
X0060694Y0174496D01*
X0060637Y0174476D01*
X0060582Y0174453D01*
X0060527Y0174426D01*
X0060475Y0174397D01*
X0060424Y0174364D01*
X0060375Y0174328D01*
X0060329Y0174290D01*
X0060285Y0174248D01*
X0060243Y0174204D01*
X0060205Y0174158D01*
X0060169Y0174109D01*
X0060136Y0174058D01*
X0060107Y0174006D01*
X0060080Y0173951D01*
X0060057Y0173896D01*
X0060037Y0173839D01*
X0060021Y0173780D01*
X0060008Y0173721D01*
X0059999Y0173662D01*
X0059994Y0173601D01*
X0059992Y0173541D01*
X0059992Y0167041D01*
X0059994Y0166981D01*
X0059999Y0166920D01*
X0060008Y0166861D01*
X0060021Y0166802D01*
X0060037Y0166743D01*
X0060057Y0166686D01*
X0060080Y0166631D01*
X0060107Y0166576D01*
X0060136Y0166524D01*
X0060169Y0166473D01*
X0060205Y0166424D01*
X0060243Y0166378D01*
X0060285Y0166334D01*
X0060329Y0166292D01*
X0060375Y0166254D01*
X0060424Y0166218D01*
X0060475Y0166185D01*
X0060527Y0166156D01*
X0060582Y0166129D01*
X0060637Y0166106D01*
X0060694Y0166086D01*
X0060753Y0166070D01*
X0060812Y0166057D01*
X0060871Y0166048D01*
X0060932Y0166043D01*
X0060992Y0166041D01*
X0056181Y0167041D02*
X0056181Y0173541D01*
X0056179Y0173601D01*
X0056174Y0173662D01*
X0056165Y0173721D01*
X0056152Y0173780D01*
X0056136Y0173839D01*
X0056116Y0173896D01*
X0056093Y0173951D01*
X0056066Y0174006D01*
X0056037Y0174058D01*
X0056004Y0174109D01*
X0055968Y0174158D01*
X0055930Y0174204D01*
X0055888Y0174248D01*
X0055844Y0174290D01*
X0055798Y0174328D01*
X0055749Y0174364D01*
X0055698Y0174397D01*
X0055646Y0174426D01*
X0055591Y0174453D01*
X0055536Y0174476D01*
X0055479Y0174496D01*
X0055420Y0174512D01*
X0055361Y0174525D01*
X0055302Y0174534D01*
X0055241Y0174539D01*
X0055181Y0174541D01*
X0053787Y0176054D02*
X0056589Y0176054D01*
X0051985Y0176754D02*
X0051985Y0180958D01*
X0050584Y0179557D01*
X0049183Y0180958D01*
X0049183Y0176754D01*
X0047381Y0177455D02*
X0047381Y0180257D01*
X0046681Y0180958D01*
X0045279Y0180958D01*
X0044579Y0180257D01*
X0044579Y0177455D01*
X0045279Y0176754D01*
X0046681Y0176754D01*
X0047381Y0177455D01*
X0048181Y0173541D02*
X0048181Y0167041D01*
X0048183Y0166981D01*
X0048188Y0166920D01*
X0048197Y0166861D01*
X0048210Y0166802D01*
X0048226Y0166743D01*
X0048246Y0166686D01*
X0048269Y0166631D01*
X0048296Y0166576D01*
X0048325Y0166524D01*
X0048358Y0166473D01*
X0048394Y0166424D01*
X0048432Y0166378D01*
X0048474Y0166334D01*
X0048518Y0166292D01*
X0048564Y0166254D01*
X0048613Y0166218D01*
X0048664Y0166185D01*
X0048716Y0166156D01*
X0048771Y0166129D01*
X0048826Y0166106D01*
X0048883Y0166086D01*
X0048942Y0166070D01*
X0049001Y0166057D01*
X0049060Y0166048D01*
X0049121Y0166043D01*
X0049181Y0166041D01*
X0055181Y0166041D02*
X0055241Y0166043D01*
X0055302Y0166048D01*
X0055361Y0166057D01*
X0055420Y0166070D01*
X0055479Y0166086D01*
X0055536Y0166106D01*
X0055591Y0166129D01*
X0055646Y0166156D01*
X0055698Y0166185D01*
X0055749Y0166218D01*
X0055798Y0166254D01*
X0055844Y0166292D01*
X0055888Y0166334D01*
X0055930Y0166378D01*
X0055968Y0166424D01*
X0056004Y0166473D01*
X0056037Y0166524D01*
X0056066Y0166576D01*
X0056093Y0166631D01*
X0056116Y0166686D01*
X0056136Y0166743D01*
X0056152Y0166802D01*
X0056165Y0166861D01*
X0056174Y0166920D01*
X0056179Y0166981D01*
X0056181Y0167041D01*
X0049181Y0174541D02*
X0049121Y0174539D01*
X0049060Y0174534D01*
X0049001Y0174525D01*
X0048942Y0174512D01*
X0048883Y0174496D01*
X0048826Y0174476D01*
X0048771Y0174453D01*
X0048716Y0174426D01*
X0048664Y0174397D01*
X0048613Y0174364D01*
X0048564Y0174328D01*
X0048518Y0174290D01*
X0048474Y0174248D01*
X0048432Y0174204D01*
X0048394Y0174158D01*
X0048358Y0174109D01*
X0048325Y0174058D01*
X0048296Y0174006D01*
X0048269Y0173951D01*
X0048246Y0173896D01*
X0048226Y0173839D01*
X0048210Y0173780D01*
X0048197Y0173721D01*
X0048188Y0173662D01*
X0048183Y0173601D01*
X0048181Y0173541D01*
X0042777Y0177455D02*
X0042077Y0176754D01*
X0040675Y0176754D01*
X0039975Y0177455D01*
X0039975Y0178156D01*
X0040675Y0178856D01*
X0042077Y0178856D01*
X0042777Y0179557D01*
X0042777Y0180257D01*
X0042077Y0180958D01*
X0040675Y0180958D01*
X0039975Y0180257D01*
X0038173Y0180958D02*
X0036772Y0180958D01*
X0037473Y0180958D02*
X0037473Y0176754D01*
X0038173Y0176754D02*
X0036772Y0176754D01*
X0037012Y0185180D02*
X0038413Y0185180D01*
X0039113Y0185880D01*
X0038413Y0187281D02*
X0039113Y0187982D01*
X0039113Y0188683D01*
X0038413Y0189383D01*
X0037012Y0189383D01*
X0036311Y0188683D01*
X0037012Y0187281D02*
X0036311Y0186581D01*
X0036311Y0185880D01*
X0037012Y0185180D01*
X0037012Y0187281D02*
X0038413Y0187281D01*
X0040915Y0185880D02*
X0041616Y0185180D01*
X0043017Y0185180D01*
X0043717Y0185880D01*
X0043717Y0188683D01*
X0043017Y0189383D01*
X0041616Y0189383D01*
X0040915Y0188683D01*
X0045519Y0184479D02*
X0048321Y0184479D01*
X0050123Y0185880D02*
X0050823Y0185180D01*
X0052925Y0185180D01*
X0052925Y0189383D01*
X0050823Y0189383D01*
X0050123Y0188683D01*
X0050123Y0185880D01*
X0054727Y0185880D02*
X0055427Y0185180D01*
X0056829Y0185180D01*
X0057529Y0185880D01*
X0056829Y0187281D02*
X0055427Y0187281D01*
X0054727Y0186581D01*
X0054727Y0185880D01*
X0056829Y0187281D02*
X0057529Y0187982D01*
X0057529Y0188683D01*
X0056829Y0189383D01*
X0055427Y0189383D01*
X0054727Y0188683D01*
X0067992Y0167041D02*
X0067990Y0166981D01*
X0067985Y0166920D01*
X0067976Y0166861D01*
X0067963Y0166802D01*
X0067947Y0166743D01*
X0067927Y0166686D01*
X0067904Y0166631D01*
X0067877Y0166576D01*
X0067848Y0166524D01*
X0067815Y0166473D01*
X0067779Y0166424D01*
X0067741Y0166378D01*
X0067699Y0166334D01*
X0067655Y0166292D01*
X0067609Y0166254D01*
X0067560Y0166218D01*
X0067509Y0166185D01*
X0067457Y0166156D01*
X0067402Y0166129D01*
X0067347Y0166106D01*
X0067290Y0166086D01*
X0067231Y0166070D01*
X0067172Y0166057D01*
X0067113Y0166048D01*
X0067052Y0166043D01*
X0066992Y0166041D01*
X0078559Y0166354D02*
X0078619Y0166344D01*
X0078679Y0166338D01*
X0078740Y0166335D01*
X0078800Y0166336D01*
X0078861Y0166340D01*
X0078921Y0166349D01*
X0078980Y0166360D01*
X0079039Y0166376D01*
X0079097Y0166395D01*
X0079153Y0166417D01*
X0079208Y0166443D01*
X0079261Y0166472D01*
X0079313Y0166504D01*
X0079362Y0166539D01*
X0079410Y0166577D01*
X0079454Y0166618D01*
X0079497Y0166661D01*
X0079536Y0166707D01*
X0079573Y0166755D01*
X0079607Y0166806D01*
X0079637Y0166858D01*
X0079665Y0166912D01*
X0079689Y0166968D01*
X0079710Y0167025D01*
X0079727Y0167083D01*
X0079741Y0167142D01*
X0051230Y0153564D02*
X0051230Y0152864D01*
X0050529Y0152163D01*
X0049128Y0152163D01*
X0048428Y0151463D01*
X0048428Y0150762D01*
X0049128Y0150061D01*
X0050529Y0150061D01*
X0051230Y0150762D01*
X0051230Y0153564D02*
X0050529Y0154265D01*
X0049128Y0154265D01*
X0048428Y0153564D01*
X0046626Y0154265D02*
X0046626Y0150061D01*
X0044524Y0150061D01*
X0043824Y0150762D01*
X0043824Y0153564D01*
X0044524Y0154265D01*
X0046626Y0154265D01*
X0042022Y0149361D02*
X0039220Y0149361D01*
X0037418Y0150061D02*
X0037418Y0154265D01*
X0036017Y0152864D01*
X0034616Y0154265D01*
X0034616Y0150061D01*
X0032814Y0150061D02*
X0031413Y0150061D01*
X0032114Y0150061D02*
X0032114Y0154265D01*
X0032814Y0154265D02*
X0031413Y0154265D01*
X0029745Y0153564D02*
X0029745Y0152864D01*
X0029044Y0152163D01*
X0027643Y0152163D01*
X0026943Y0151463D01*
X0026943Y0150762D01*
X0027643Y0150061D01*
X0029044Y0150061D01*
X0029745Y0150762D01*
X0029745Y0153564D02*
X0029044Y0154265D01*
X0027643Y0154265D01*
X0026943Y0153564D01*
X0025141Y0153564D02*
X0025141Y0150762D01*
X0024440Y0150061D01*
X0023039Y0150061D01*
X0022339Y0150762D01*
X0022339Y0153564D01*
X0023039Y0154265D01*
X0024440Y0154265D01*
X0025141Y0153564D01*
X0025218Y0144265D02*
X0025218Y0140061D01*
X0025218Y0141463D02*
X0022416Y0144265D01*
X0024518Y0142163D02*
X0022416Y0140061D01*
X0027020Y0140762D02*
X0027720Y0140061D01*
X0029122Y0140061D01*
X0029822Y0140762D01*
X0029822Y0143564D01*
X0029122Y0144265D01*
X0027720Y0144265D01*
X0027020Y0143564D01*
X0031624Y0143564D02*
X0032324Y0144265D01*
X0033725Y0144265D01*
X0034426Y0143564D01*
X0034426Y0142864D01*
X0033725Y0142163D01*
X0032324Y0142163D01*
X0031624Y0141463D01*
X0031624Y0140762D01*
X0032324Y0140061D01*
X0033725Y0140061D01*
X0034426Y0140762D01*
X0036228Y0139361D02*
X0039030Y0139361D01*
X0040831Y0140762D02*
X0040831Y0143564D01*
X0041532Y0144265D01*
X0043634Y0144265D01*
X0043634Y0140061D01*
X0041532Y0140061D01*
X0040831Y0140762D01*
X0045435Y0140762D02*
X0046136Y0140061D01*
X0047537Y0140061D01*
X0048238Y0140762D01*
X0047537Y0142163D02*
X0048238Y0142864D01*
X0048238Y0143564D01*
X0047537Y0144265D01*
X0046136Y0144265D01*
X0045435Y0143564D01*
X0046136Y0142163D02*
X0045435Y0141463D01*
X0045435Y0140762D01*
X0046136Y0142163D02*
X0047537Y0142163D01*
D13*
X0025803Y0162024D02*
X0021079Y0162024D01*
X0025803Y0162024D02*
X0030134Y0166354D01*
X0030134Y0173835D01*
X0034858Y0178559D01*
X0034858Y0186827D02*
X0025803Y0177772D01*
X0025803Y0172260D01*
X0025409Y0171866D01*
X0021079Y0171866D01*
X0098242Y0250319D02*
X0097308Y0251253D01*
X0097308Y0254990D01*
X0098242Y0255924D01*
X0101045Y0255924D01*
X0101045Y0250319D01*
X0098242Y0250319D01*
X0103385Y0250319D02*
X0105254Y0252187D01*
X0104320Y0252187D02*
X0107122Y0252187D01*
X0107122Y0250319D02*
X0107122Y0255924D01*
X0104320Y0255924D01*
X0103385Y0254990D01*
X0103385Y0253121D01*
X0104320Y0252187D01*
X0109463Y0253121D02*
X0113199Y0253121D01*
X0113199Y0254055D02*
X0111331Y0255924D01*
X0109463Y0254055D01*
X0109463Y0250319D01*
X0113199Y0250319D02*
X0113199Y0254055D01*
X0115540Y0254990D02*
X0116474Y0255924D01*
X0118342Y0255924D01*
X0119276Y0254990D01*
X0119276Y0251253D01*
X0118342Y0250319D01*
X0116474Y0250319D01*
X0115540Y0251253D01*
X0127694Y0251253D02*
X0127694Y0254990D01*
X0128628Y0255924D01*
X0131431Y0255924D01*
X0131431Y0250319D01*
X0128628Y0250319D01*
X0127694Y0251253D01*
X0133771Y0251253D02*
X0134705Y0250319D01*
X0136574Y0250319D01*
X0137508Y0251253D01*
X0136574Y0253121D02*
X0134705Y0253121D01*
X0133771Y0252187D01*
X0133771Y0251253D01*
X0136574Y0253121D02*
X0137508Y0254055D01*
X0137508Y0254990D01*
X0136574Y0255924D01*
X0134705Y0255924D01*
X0133771Y0254990D01*
X0109368Y0030537D02*
X0109368Y0029603D01*
X0109368Y0027735D02*
X0109368Y0023064D01*
X0110302Y0022130D01*
X0111236Y0022130D01*
X0113577Y0024933D02*
X0113577Y0026801D01*
X0114511Y0027735D01*
X0116379Y0027735D01*
X0117313Y0026801D01*
X0117313Y0024933D01*
X0116379Y0023998D01*
X0114511Y0023998D01*
X0113577Y0024933D01*
X0107185Y0024933D02*
X0106251Y0023998D01*
X0104382Y0023998D01*
X0103448Y0025867D02*
X0107185Y0025867D01*
X0107185Y0026801D02*
X0106251Y0027735D01*
X0104382Y0027735D01*
X0103448Y0026801D01*
X0103448Y0025867D01*
X0101108Y0026801D02*
X0101108Y0024933D01*
X0100173Y0023998D01*
X0097371Y0023998D01*
X0094096Y0024933D02*
X0093162Y0023998D01*
X0094096Y0024933D02*
X0094096Y0028669D01*
X0095030Y0027735D02*
X0093162Y0027735D01*
X0090979Y0024933D02*
X0090045Y0024933D01*
X0090045Y0023998D01*
X0090979Y0023998D01*
X0090979Y0024933D01*
X0097371Y0027735D02*
X0100173Y0027735D01*
X0101108Y0026801D01*
X0107185Y0026801D02*
X0107185Y0024933D01*
X0119575Y0027735D02*
X0120509Y0027735D01*
X0122378Y0025867D01*
X0122378Y0027735D02*
X0122378Y0023998D01*
X0124718Y0024933D02*
X0125653Y0023998D01*
X0128455Y0023998D01*
X0128455Y0022130D02*
X0128455Y0027735D01*
X0125653Y0027735D01*
X0124718Y0026801D01*
X0124718Y0024933D01*
X0136715Y0023998D02*
X0137649Y0024933D01*
X0137649Y0028669D01*
X0136715Y0027735D02*
X0138584Y0027735D01*
X0140846Y0027735D02*
X0141780Y0027735D01*
X0143648Y0025867D01*
X0143648Y0027735D02*
X0143648Y0023998D01*
X0145989Y0023998D02*
X0145989Y0026801D01*
X0146923Y0027735D01*
X0148791Y0027735D01*
X0148791Y0025867D02*
X0145989Y0025867D01*
X0145989Y0023998D02*
X0148791Y0023998D01*
X0149725Y0024933D01*
X0148791Y0025867D01*
X0158143Y0025867D02*
X0161879Y0025867D01*
X0161879Y0026801D02*
X0160945Y0027735D01*
X0159077Y0027735D01*
X0158143Y0026801D01*
X0158143Y0025867D01*
X0159077Y0023998D02*
X0160945Y0023998D01*
X0161879Y0024933D01*
X0161879Y0026801D01*
X0164220Y0027735D02*
X0167023Y0027735D01*
X0167957Y0026801D01*
X0167957Y0024933D01*
X0167023Y0023998D01*
X0164220Y0023998D01*
X0170219Y0027735D02*
X0171153Y0027735D01*
X0173021Y0025867D01*
X0173021Y0027735D02*
X0173021Y0023998D01*
X0175362Y0023998D02*
X0175362Y0027735D01*
X0179098Y0027735D02*
X0179098Y0024933D01*
X0178164Y0023998D01*
X0175362Y0023998D01*
X0181439Y0024933D02*
X0182373Y0023998D01*
X0184241Y0023998D01*
X0185175Y0024933D01*
X0185175Y0026801D01*
X0184241Y0027735D01*
X0182373Y0027735D01*
X0181439Y0026801D01*
X0181439Y0024933D01*
X0187516Y0024933D02*
X0188450Y0023998D01*
X0191253Y0023998D01*
X0190318Y0025867D02*
X0188450Y0025867D01*
X0187516Y0024933D01*
X0187516Y0027735D02*
X0190318Y0027735D01*
X0191253Y0026801D01*
X0190318Y0025867D01*
X0190318Y0019703D02*
X0188450Y0019703D01*
X0187516Y0018769D01*
X0187516Y0017835D01*
X0191253Y0014098D01*
X0187516Y0014098D01*
X0191253Y0018769D02*
X0190318Y0019703D01*
X0193593Y0018769D02*
X0193593Y0017835D01*
X0197330Y0014098D01*
X0193593Y0014098D01*
X0193593Y0018769D02*
X0194527Y0019703D01*
X0196396Y0019703D01*
X0197330Y0018769D01*
X0199670Y0023998D02*
X0199670Y0026801D01*
X0200605Y0027735D01*
X0203407Y0027735D01*
X0203407Y0023998D01*
X0205748Y0025867D02*
X0209484Y0025867D01*
X0209484Y0026801D02*
X0208550Y0027735D01*
X0206682Y0027735D01*
X0205748Y0026801D01*
X0205748Y0025867D01*
X0206682Y0023998D02*
X0208550Y0023998D01*
X0209484Y0024933D01*
X0209484Y0026801D01*
X0211825Y0026801D02*
X0211825Y0024933D01*
X0212759Y0023998D01*
X0215561Y0023998D01*
X0215561Y0022130D02*
X0215561Y0027735D01*
X0212759Y0027735D01*
X0211825Y0026801D01*
X0217902Y0026801D02*
X0218836Y0027735D01*
X0220704Y0027735D01*
X0221639Y0026801D01*
X0221639Y0024933D01*
X0220704Y0023998D01*
X0218836Y0023998D01*
X0217902Y0024933D01*
X0217902Y0026801D01*
X0218836Y0019703D02*
X0217902Y0018769D01*
X0217902Y0017835D01*
X0218836Y0016901D01*
X0220704Y0016901D01*
X0221639Y0017835D01*
X0221639Y0018769D01*
X0220704Y0019703D01*
X0218836Y0019703D01*
X0218836Y0016901D02*
X0217902Y0015967D01*
X0217902Y0015033D01*
X0218836Y0014098D01*
X0220704Y0014098D01*
X0221639Y0015033D01*
X0221639Y0015967D01*
X0220704Y0016901D01*
X0223979Y0014098D02*
X0227716Y0014098D01*
X0225847Y0014098D02*
X0225847Y0019703D01*
X0227716Y0017835D01*
X0230056Y0018769D02*
X0230056Y0015033D01*
X0230991Y0014098D01*
X0232859Y0014098D01*
X0233793Y0015033D01*
X0230056Y0018769D01*
X0230991Y0019703D01*
X0232859Y0019703D01*
X0233793Y0018769D01*
X0233793Y0015033D01*
X0236134Y0014098D02*
X0239870Y0014098D01*
X0236134Y0017835D01*
X0236134Y0018769D01*
X0237068Y0019703D01*
X0238936Y0019703D01*
X0239870Y0018769D01*
X0239870Y0023998D02*
X0239870Y0027735D01*
X0238002Y0029603D01*
X0236134Y0027735D01*
X0236134Y0023998D01*
X0233793Y0023998D02*
X0233793Y0027735D01*
X0230991Y0027735D01*
X0230056Y0026801D01*
X0230056Y0023998D01*
X0236134Y0026801D02*
X0239870Y0026801D01*
X0215561Y0015033D02*
X0214627Y0015033D01*
X0214627Y0014098D01*
X0215561Y0014098D01*
X0215561Y0015033D01*
X0212523Y0015033D02*
X0208786Y0018769D01*
X0208786Y0015033D01*
X0209720Y0014098D01*
X0211589Y0014098D01*
X0212523Y0015033D01*
X0212523Y0018769D01*
X0211589Y0019703D01*
X0209720Y0019703D01*
X0208786Y0018769D01*
X0206446Y0016901D02*
X0202709Y0016901D01*
X0203643Y0019703D02*
X0203643Y0014098D01*
X0200368Y0014098D02*
X0199434Y0014098D01*
X0199434Y0015033D01*
X0200368Y0015033D01*
X0200368Y0014098D01*
X0203643Y0019703D02*
X0206446Y0016901D01*
D14*
X0241157Y0079346D02*
X0034465Y0079346D01*
X0034465Y0235252D01*
X0241157Y0235252D01*
X0241157Y0079346D01*
X0271039Y0072969D02*
X0271039Y0241157D01*
X0033795Y0241157D01*
X0033795Y0072969D01*
X0008165Y0072969D01*
X0008165Y0241157D01*
X0033795Y0241157D01*
X0067929Y0237220D02*
X0071866Y0237220D01*
X0071866Y0256906D01*
X0071866Y0262811D02*
X0071866Y0282496D01*
X0071866Y0288402D02*
X0071866Y0308087D01*
X0085252Y0308087D01*
X0091157Y0308087D02*
X0104543Y0308087D01*
X0110449Y0308087D02*
X0123835Y0308087D01*
X0129740Y0308087D02*
X0143126Y0308087D01*
X0149031Y0308087D02*
X0162417Y0308087D01*
X0162417Y0288402D01*
X0162417Y0282496D02*
X0162417Y0262811D01*
X0162417Y0256906D02*
X0162417Y0237220D01*
X0071866Y0237220D01*
X0067929Y0237220D02*
X0067929Y0162417D01*
X0166354Y0162417D01*
X0166354Y0237220D01*
X0162417Y0237220D01*
X0271039Y0241157D02*
X0312024Y0241157D01*
X0312024Y0072969D01*
X0271039Y0072969D01*
X0033795Y0072969D01*
X0021079Y0136827D02*
X0010843Y0136827D01*
X0010843Y0167142D01*
X0021079Y0167142D01*
X0021079Y0136827D01*
X0021079Y0167142D02*
X0021079Y0177378D01*
X0010843Y0177378D01*
X0010843Y0167142D01*
X0299425Y0217142D02*
X0299425Y0087220D01*
X0308874Y0087220D01*
X0308874Y0217142D01*
X0299425Y0217142D01*
X0299425Y0226984D01*
X0308874Y0226984D01*
X0308874Y0217142D01*
M02*
