G75*
%MOIN*%
%OFA0B0*%
%FSLAX25Y25*%
%IPPOS*%
%LPD*%
%AMOC8*
5,1,8,0,0,1.08239X$1,22.5*
%
%ADD10C,0.00000*%
%ADD11C,0.06400*%
%ADD12R,0.06400X0.06400*%
%ADD13R,0.05550X0.05550*%
%ADD14C,0.05550*%
%ADD15C,0.05943*%
%ADD16R,0.05400X0.02900*%
%ADD17C,0.16998*%
%ADD18C,0.16600*%
%ADD19C,0.07800*%
%ADD20C,0.06337*%
%ADD21C,0.06400*%
%ADD22OC8,0.06400*%
D10*
X0001000Y0004937D02*
X0001000Y0256906D01*
X0004937Y0260843D01*
X0315961Y0260843D01*
X0320409Y0256906D01*
X0320409Y0004937D01*
X0315961Y0001000D01*
X0004937Y0001000D01*
X0001000Y0004937D01*
D11*
X0016039Y0142063D03*
X0016039Y0152063D03*
X0016039Y0162063D03*
X0016039Y0172063D03*
X0304150Y0172063D03*
X0304150Y0182063D03*
X0304150Y0192063D03*
X0304150Y0202063D03*
X0304150Y0212063D03*
X0304150Y0162063D03*
X0304150Y0152063D03*
X0304150Y0142063D03*
X0304150Y0132063D03*
X0304150Y0122063D03*
X0304150Y0112063D03*
X0304150Y0102063D03*
X0304150Y0092063D03*
D12*
X0304150Y0222063D03*
D13*
X0288402Y0012811D03*
D14*
X0278402Y0012811D03*
X0268402Y0012811D03*
X0258402Y0012811D03*
X0248402Y0012811D03*
X0238402Y0012811D03*
X0228402Y0012811D03*
X0218402Y0012811D03*
X0208402Y0012811D03*
X0198402Y0012811D03*
X0188402Y0012811D03*
X0178402Y0012811D03*
X0168402Y0012811D03*
X0158402Y0012811D03*
X0148402Y0012811D03*
X0138402Y0012811D03*
X0128402Y0012811D03*
X0118402Y0012811D03*
X0108402Y0012811D03*
X0108402Y0112811D03*
X0118402Y0112811D03*
X0128402Y0112811D03*
X0138402Y0112811D03*
X0148402Y0112811D03*
X0158402Y0112811D03*
X0168402Y0112811D03*
X0178402Y0112811D03*
X0188402Y0112811D03*
X0198402Y0112811D03*
X0208402Y0112811D03*
X0218402Y0112811D03*
X0228402Y0112811D03*
X0238402Y0112811D03*
X0248402Y0112811D03*
X0258402Y0112811D03*
X0268402Y0112811D03*
X0278402Y0112811D03*
X0288402Y0112811D03*
D15*
X0251039Y0160724D03*
X0241039Y0160724D03*
X0231039Y0160724D03*
X0221039Y0160724D03*
X0211039Y0160724D03*
X0201039Y0160724D03*
X0191039Y0160724D03*
X0181039Y0160724D03*
X0144740Y0160724D03*
X0134740Y0160724D03*
X0124740Y0160724D03*
X0114740Y0160724D03*
X0104740Y0160724D03*
X0094740Y0160724D03*
X0084740Y0160724D03*
X0074740Y0160724D03*
X0074740Y0210724D03*
X0084740Y0210724D03*
X0094740Y0210724D03*
X0104740Y0210724D03*
X0114740Y0210724D03*
X0124740Y0210724D03*
X0134740Y0210724D03*
X0144740Y0210724D03*
X0181039Y0210724D03*
X0191039Y0210724D03*
X0201039Y0210724D03*
X0211039Y0210724D03*
X0221039Y0210724D03*
X0231039Y0210724D03*
X0241039Y0210724D03*
X0251039Y0210724D03*
D16*
X0213598Y0172063D03*
X0213598Y0168520D03*
X0201787Y0168291D03*
X0201787Y0172291D03*
X0189976Y0172291D03*
X0189976Y0168291D03*
X0107299Y0168520D03*
X0107299Y0172063D03*
X0095488Y0172291D03*
X0095488Y0168291D03*
X0083677Y0168291D03*
X0083677Y0172291D03*
X0304150Y0081512D03*
X0304150Y0077969D03*
D17*
X0257387Y0039189D03*
D18*
X0269898Y0024380D03*
X0286209Y0039089D03*
D19*
X0274780Y0071866D03*
X0264780Y0071866D03*
D20*
X0087630Y0033480D02*
X0081693Y0033480D01*
X0081693Y0015764D02*
X0087630Y0015764D01*
X0062039Y0015764D02*
X0056102Y0015764D01*
X0056102Y0033480D02*
X0062039Y0033480D01*
D21*
X0043559Y0238906D02*
X0043559Y0244906D01*
X0033559Y0244906D02*
X0033559Y0238906D01*
X0023559Y0238906D02*
X0023559Y0244906D01*
X0013559Y0244906D02*
X0013559Y0238906D01*
X0190724Y0238906D02*
X0190724Y0244906D01*
X0200724Y0244906D02*
X0200724Y0238906D01*
X0210724Y0238906D02*
X0210724Y0244906D01*
X0220724Y0244906D02*
X0220724Y0238906D01*
X0270528Y0238906D02*
X0270528Y0244906D01*
X0280528Y0244906D02*
X0280528Y0238906D01*
X0290528Y0238906D02*
X0290528Y0244906D01*
D22*
X0029622Y0120488D03*
X0029622Y0110488D03*
X0029622Y0100488D03*
X0029622Y0090488D03*
X0029622Y0080488D03*
X0019622Y0080488D03*
X0019622Y0090488D03*
X0019622Y0100488D03*
X0019622Y0110488D03*
X0019622Y0120488D03*
X0019622Y0070488D03*
X0029622Y0070488D03*
M02*
